%TF.GenerationSoftware,KiCad,Pcbnew,(6.0.7)*%
%TF.CreationDate,2023-02-28T16:34:09-05:00*%
%TF.ProjectId,Front_EndDesign3,46726f6e-745f-4456-9e64-44657369676e,rev?*%
%TF.SameCoordinates,Original*%
%TF.FileFunction,Copper,L1,Top*%
%TF.FilePolarity,Positive*%
%FSLAX46Y46*%
G04 Gerber Fmt 4.6, Leading zero omitted, Abs format (unit mm)*
G04 Created by KiCad (PCBNEW (6.0.7)) date 2023-02-28 16:34:09*
%MOMM*%
%LPD*%
G01*
G04 APERTURE LIST*
G04 Aperture macros list*
%AMRoundRect*
0 Rectangle with rounded corners*
0 $1 Rounding radius*
0 $2 $3 $4 $5 $6 $7 $8 $9 X,Y pos of 4 corners*
0 Add a 4 corners polygon primitive as box body*
4,1,4,$2,$3,$4,$5,$6,$7,$8,$9,$2,$3,0*
0 Add four circle primitives for the rounded corners*
1,1,$1+$1,$2,$3*
1,1,$1+$1,$4,$5*
1,1,$1+$1,$6,$7*
1,1,$1+$1,$8,$9*
0 Add four rect primitives between the rounded corners*
20,1,$1+$1,$2,$3,$4,$5,0*
20,1,$1+$1,$4,$5,$6,$7,0*
20,1,$1+$1,$6,$7,$8,$9,0*
20,1,$1+$1,$8,$9,$2,$3,0*%
G04 Aperture macros list end*
%TA.AperFunction,SMDPad,CuDef*%
%ADD10RoundRect,0.237500X-0.300000X-0.237500X0.300000X-0.237500X0.300000X0.237500X-0.300000X0.237500X0*%
%TD*%
%TA.AperFunction,SMDPad,CuDef*%
%ADD11RoundRect,0.137500X0.137500X-0.587500X0.137500X0.587500X-0.137500X0.587500X-0.137500X-0.587500X0*%
%TD*%
%TA.AperFunction,SMDPad,CuDef*%
%ADD12RoundRect,0.237500X-0.250000X-0.237500X0.250000X-0.237500X0.250000X0.237500X-0.250000X0.237500X0*%
%TD*%
%TA.AperFunction,SMDPad,CuDef*%
%ADD13RoundRect,0.237500X-0.237500X0.300000X-0.237500X-0.300000X0.237500X-0.300000X0.237500X0.300000X0*%
%TD*%
%TA.AperFunction,ComponentPad*%
%ADD14R,1.700000X1.700000*%
%TD*%
%TA.AperFunction,SMDPad,CuDef*%
%ADD15R,0.650000X1.560000*%
%TD*%
%TA.AperFunction,SMDPad,CuDef*%
%ADD16RoundRect,0.237500X0.300000X0.237500X-0.300000X0.237500X-0.300000X-0.237500X0.300000X-0.237500X0*%
%TD*%
%TA.AperFunction,SMDPad,CuDef*%
%ADD17R,5.207000X1.066800*%
%TD*%
%TA.AperFunction,SMDPad,CuDef*%
%ADD18RoundRect,0.237500X0.237500X-0.300000X0.237500X0.300000X-0.237500X0.300000X-0.237500X-0.300000X0*%
%TD*%
%TA.AperFunction,SMDPad,CuDef*%
%ADD19R,1.560000X0.650000*%
%TD*%
%TA.AperFunction,SMDPad,CuDef*%
%ADD20RoundRect,0.150000X0.150000X-0.587500X0.150000X0.587500X-0.150000X0.587500X-0.150000X-0.587500X0*%
%TD*%
%TA.AperFunction,ComponentPad*%
%ADD21R,1.400000X1.400000*%
%TD*%
%TA.AperFunction,ComponentPad*%
%ADD22C,1.400000*%
%TD*%
%TA.AperFunction,ComponentPad*%
%ADD23R,1.600000X1.600000*%
%TD*%
%TA.AperFunction,ComponentPad*%
%ADD24O,1.600000X1.600000*%
%TD*%
%TA.AperFunction,SMDPad,CuDef*%
%ADD25RoundRect,0.237500X0.237500X-0.250000X0.237500X0.250000X-0.237500X0.250000X-0.237500X-0.250000X0*%
%TD*%
%TA.AperFunction,SMDPad,CuDef*%
%ADD26RoundRect,0.237500X-0.237500X0.287500X-0.237500X-0.287500X0.237500X-0.287500X0.237500X0.287500X0*%
%TD*%
%TA.AperFunction,SMDPad,CuDef*%
%ADD27RoundRect,0.237500X0.250000X0.237500X-0.250000X0.237500X-0.250000X-0.237500X0.250000X-0.237500X0*%
%TD*%
%TA.AperFunction,SMDPad,CuDef*%
%ADD28R,1.300000X0.600000*%
%TD*%
%TA.AperFunction,SMDPad,CuDef*%
%ADD29RoundRect,0.237500X-0.237500X0.250000X-0.237500X-0.250000X0.237500X-0.250000X0.237500X0.250000X0*%
%TD*%
%TA.AperFunction,SMDPad,CuDef*%
%ADD30R,1.350000X0.400000*%
%TD*%
%TA.AperFunction,SMDPad,CuDef*%
%ADD31R,1.400000X1.600000*%
%TD*%
%TA.AperFunction,SMDPad,CuDef*%
%ADD32R,1.300000X1.450000*%
%TD*%
%TA.AperFunction,SMDPad,CuDef*%
%ADD33R,1.900000X1.900000*%
%TD*%
%TA.AperFunction,ComponentPad*%
%ADD34O,1.700000X1.700000*%
%TD*%
%TA.AperFunction,SMDPad,CuDef*%
%ADD35RoundRect,0.150000X0.825000X0.150000X-0.825000X0.150000X-0.825000X-0.150000X0.825000X-0.150000X0*%
%TD*%
%TA.AperFunction,ViaPad*%
%ADD36C,0.838000*%
%TD*%
%TA.AperFunction,ViaPad*%
%ADD37C,0.600000*%
%TD*%
%TA.AperFunction,ViaPad*%
%ADD38C,0.800000*%
%TD*%
%TA.AperFunction,Conductor*%
%ADD39C,0.609600*%
%TD*%
%TA.AperFunction,Conductor*%
%ADD40C,0.305000*%
%TD*%
%TA.AperFunction,Conductor*%
%ADD41C,0.250000*%
%TD*%
G04 APERTURE END LIST*
D10*
%TO.P,C12,1*%
%TO.N,+5V*%
X92763000Y-78740000D03*
%TO.P,C12,2*%
%TO.N,GND*%
X94488000Y-78740000D03*
%TD*%
D11*
%TO.P,U2,1*%
%TO.N,Net-(R5-Pad1)*%
X78740000Y-80474000D03*
%TO.P,U2,2*%
%TO.N,GND*%
X81280000Y-80474000D03*
%TO.P,U2,3*%
%TO.N,Net-(C7-Pad2)*%
X81280000Y-74974000D03*
%TO.P,U2,4*%
%TO.N,Net-(C7-Pad1)*%
X78740000Y-74974000D03*
%TD*%
D12*
%TO.P,R7,1*%
%TO.N,Net-(R7-Pad1)*%
X94063500Y-85165000D03*
%TO.P,R7,2*%
%TO.N,GND*%
X95888500Y-85165000D03*
%TD*%
D13*
%TO.P,C10,1*%
%TO.N,+5V*%
X73817000Y-90223500D03*
%TO.P,C10,2*%
%TO.N,GND*%
X73817000Y-91948500D03*
%TD*%
D14*
%TO.P,J7,1,Pin_1*%
%TO.N,Net-(J7-Pad1)*%
X95270000Y-75050000D03*
%TD*%
D12*
%TO.P,R13,1*%
%TO.N,Net-(J7-Pad1)*%
X98298000Y-75184000D03*
%TO.P,R13,2*%
%TO.N,Net-(R13-Pad2)*%
X100123000Y-75184000D03*
%TD*%
D15*
%TO.P,U6,1*%
%TO.N,Net-(J12-Pad1)*%
X109954000Y-75380000D03*
%TO.P,U6,2,V-*%
%TO.N,-5V*%
X109004000Y-75380000D03*
%TO.P,U6,3,+*%
%TO.N,Net-(R16-Pad2)*%
X108054000Y-75380000D03*
%TO.P,U6,4,-*%
%TO.N,Net-(J12-Pad1)*%
X108054000Y-78080000D03*
%TO.P,U6,5,~{DISABLE}*%
%TO.N,+5V*%
X109004000Y-78080000D03*
%TO.P,U6,6,V+*%
X109954000Y-78080000D03*
%TD*%
D16*
%TO.P,C15,1*%
%TO.N,Net-(C15-Pad1)*%
X112662500Y-86400000D03*
%TO.P,C15,2*%
%TO.N,Net-(C15-Pad2)*%
X110937500Y-86400000D03*
%TD*%
D14*
%TO.P,J4,1,Pin_1*%
%TO.N,Net-(C5-Pad1)*%
X67715000Y-94586000D03*
%TD*%
D17*
%TO.P,GD1,1*%
%TO.N,Net-(GD1-Pad1)*%
X59500000Y-78959800D03*
%TO.P,GD1,2*%
%TO.N,GND*%
X59500000Y-83100000D03*
%TD*%
D14*
%TO.P,J8,1,Pin_1*%
%TO.N,+5V*%
X103500000Y-88900000D03*
%TD*%
D18*
%TO.P,c16,1*%
%TO.N,GND*%
X105686500Y-79680500D03*
%TO.P,c16,2*%
%TO.N,+5V*%
X105686500Y-77955500D03*
%TD*%
D12*
%TO.P,R17,1*%
%TO.N,Net-(J12-Pad1)*%
X116078000Y-75420000D03*
%TO.P,R17,2*%
%TO.N,Net-(C21-Pad1)*%
X117903000Y-75420000D03*
%TD*%
D10*
%TO.P,C7,1*%
%TO.N,Net-(C7-Pad1)*%
X79047000Y-73152000D03*
%TO.P,C7,2*%
%TO.N,Net-(C7-Pad2)*%
X80772000Y-73152000D03*
%TD*%
D12*
%TO.P,R16,1*%
%TO.N,Net-(R15-Pad1)*%
X102187500Y-79900000D03*
%TO.P,R16,2*%
%TO.N,Net-(R16-Pad2)*%
X104012500Y-79900000D03*
%TD*%
D19*
%TO.P,U4,1,VIN*%
%TO.N,+5V*%
X113050000Y-89950000D03*
%TO.P,U4,2,VOUT*%
%TO.N,-5V*%
X113050000Y-89000000D03*
%TO.P,U4,3,C+*%
%TO.N,Net-(C15-Pad1)*%
X113050000Y-88050000D03*
%TO.P,U4,4,C-*%
%TO.N,Net-(C15-Pad2)*%
X110350000Y-88050000D03*
%TO.P,U4,5,GND*%
%TO.N,GND*%
X110350000Y-89000000D03*
%TO.P,U4,6,~{SHDN}*%
%TO.N,+5V*%
X110350000Y-89950000D03*
%TD*%
D16*
%TO.P,C11,1*%
%TO.N,GND*%
X91462500Y-72250000D03*
%TO.P,C11,2*%
%TO.N,-5V*%
X89737500Y-72250000D03*
%TD*%
D20*
%TO.P,D1,1,A1*%
%TO.N,+3.3V*%
X117250000Y-71737500D03*
%TO.P,D1,2,K2*%
%TO.N,GND*%
X119150000Y-71737500D03*
%TO.P,D1,3,K3A4*%
%TO.N,Net-(C21-Pad1)*%
X118200000Y-69862500D03*
%TD*%
D21*
%TO.P,K1,1*%
%TO.N,GND*%
X72012500Y-82607500D03*
D22*
%TO.P,K1,4*%
%TO.N,Net-(C7-Pad1)*%
X72012500Y-74987500D03*
%TO.P,K1,6*%
%TO.N,Net-(C1-Pad2)*%
X72012500Y-69907500D03*
%TO.P,K1,8*%
%TO.N,Net-(C3-Pad2)*%
X72012500Y-64827500D03*
%TO.P,K1,9*%
%TO.N,Net-(C3-Pad1)*%
X64392500Y-64827500D03*
%TO.P,K1,11*%
%TO.N,Net-(C2-Pad2)*%
X64392500Y-69907500D03*
%TO.P,K1,13*%
%TO.N,Net-(GD1-Pad1)*%
X64392500Y-74987500D03*
%TO.P,K1,16*%
%TO.N,attenuate*%
X64392500Y-82607500D03*
%TD*%
D23*
%TO.P,D2,1,K*%
%TO.N,attenuate*%
X64400000Y-85600000D03*
D24*
%TO.P,D2,2,A*%
%TO.N,GND*%
X72020000Y-85600000D03*
%TD*%
D10*
%TO.P,C22,1*%
%TO.N,+3.3V*%
X117537500Y-66300000D03*
%TO.P,C22,2*%
%TO.N,GND*%
X119262500Y-66300000D03*
%TD*%
D18*
%TO.P,C14,1*%
%TO.N,+5V*%
X107400000Y-89962500D03*
%TO.P,C14,2*%
%TO.N,GND*%
X107400000Y-88237500D03*
%TD*%
D13*
%TO.P,C21,1*%
%TO.N,Net-(C21-Pad1)*%
X117856000Y-77216000D03*
%TO.P,C21,2*%
%TO.N,GND*%
X117856000Y-78941000D03*
%TD*%
D18*
%TO.P,C18,1*%
%TO.N,-5V*%
X114900000Y-89025000D03*
%TO.P,C18,2*%
%TO.N,GND*%
X114900000Y-87300000D03*
%TD*%
D13*
%TO.P,C5,1*%
%TO.N,Net-(C5-Pad1)*%
X63397000Y-91183500D03*
%TO.P,C5,2*%
%TO.N,GND*%
X63397000Y-92908500D03*
%TD*%
D18*
%TO.P,C13,1*%
%TO.N,Net-(C13-Pad1)*%
X103100000Y-68862500D03*
%TO.P,C13,2*%
%TO.N,GND*%
X103100000Y-67137500D03*
%TD*%
D12*
%TO.P,R6,1*%
%TO.N,Net-(C8-Pad1)*%
X72314500Y-93526000D03*
%TO.P,R6,2*%
%TO.N,GND*%
X74139500Y-93526000D03*
%TD*%
D14*
%TO.P,J12,1,Pin_1*%
%TO.N,Net-(J12-Pad1)*%
X113030000Y-75438000D03*
%TD*%
D25*
%TO.P,R8,1*%
%TO.N,pwm*%
X99800000Y-68912500D03*
%TO.P,R8,2*%
%TO.N,Net-(L1-Pad1)*%
X99800000Y-67087500D03*
%TD*%
D15*
%TO.P,U5,1*%
%TO.N,Net-(R16-Pad2)*%
X103996500Y-75194000D03*
%TO.P,U5,2,V-*%
%TO.N,-5V*%
X103046500Y-75194000D03*
%TO.P,U5,3,+*%
%TO.N,Net-(R13-Pad2)*%
X102096500Y-75194000D03*
%TO.P,U5,4,-*%
%TO.N,Net-(R15-Pad1)*%
X102096500Y-77894000D03*
%TO.P,U5,5,V+*%
%TO.N,+5V*%
X103996500Y-77894000D03*
%TD*%
D26*
%TO.P,L1,1,1*%
%TO.N,Net-(L1-Pad1)*%
X101500000Y-67125000D03*
%TO.P,L1,2,2*%
%TO.N,Net-(C13-Pad1)*%
X101500000Y-68875000D03*
%TD*%
D12*
%TO.P,R15,1*%
%TO.N,Net-(R15-Pad1)*%
X102211500Y-81534000D03*
%TO.P,R15,2*%
%TO.N,GND*%
X104036500Y-81534000D03*
%TD*%
D27*
%TO.P,R12,1*%
%TO.N,Net-(R12-Pad1)*%
X85112500Y-89729000D03*
%TO.P,R12,2*%
%TO.N,Net-(J7-Pad1)*%
X83287500Y-89729000D03*
%TD*%
D28*
%TO.P,Q1,1,G*%
%TO.N,GND*%
X66677000Y-89276000D03*
%TO.P,Q1,2,S*%
%TO.N,Net-(C5-Pad1)*%
X66677000Y-91176000D03*
%TO.P,Q1,3,D*%
%TO.N,+5V*%
X68777000Y-90226000D03*
%TD*%
D27*
%TO.P,R14,1*%
%TO.N,Net-(C13-Pad1)*%
X101812500Y-70700000D03*
%TO.P,R14,2*%
%TO.N,Net-(R13-Pad2)*%
X99987500Y-70700000D03*
%TD*%
D29*
%TO.P,R5,1*%
%TO.N,Net-(R5-Pad1)*%
X78740000Y-82249000D03*
%TO.P,R5,2*%
%TO.N,acdc*%
X78740000Y-84074000D03*
%TD*%
D14*
%TO.P,J3,1,Pin_1*%
%TO.N,Net-(C7-Pad1)*%
X75600000Y-75000000D03*
%TD*%
D30*
%TO.P,J2,1,1*%
%TO.N,Net-(C5-Pad1)*%
X59975000Y-91200000D03*
%TO.P,J2,2,2*%
%TO.N,unconnected-(J2-Pad2)*%
X59975000Y-91850000D03*
%TO.P,J2,3,3*%
%TO.N,unconnected-(J2-Pad3)*%
X59975000Y-92500000D03*
%TO.P,J2,4,4*%
%TO.N,unconnected-(J2-Pad4)*%
X59975000Y-93150000D03*
%TO.P,J2,5,5*%
%TO.N,GND*%
X59975000Y-93800000D03*
D31*
%TO.P,J2,S1,SHIELD*%
X59750000Y-89300000D03*
D32*
%TO.P,J2,S2,SHIELD*%
X57300000Y-89075000D03*
D33*
%TO.P,J2,S3,SHIELD*%
X57300000Y-91300000D03*
%TO.P,J2,S4,SHIELD*%
X57300000Y-93700000D03*
D32*
%TO.P,J2,S5,SHIELD*%
X57300000Y-95925000D03*
D31*
%TO.P,J2,S6,SHIELD*%
X59750000Y-95700000D03*
%TD*%
D10*
%TO.P,c19,1*%
%TO.N,GND*%
X108357500Y-80264000D03*
%TO.P,c19,2*%
%TO.N,+5V*%
X110082500Y-80264000D03*
%TD*%
D27*
%TO.P,R10,1*%
%TO.N,Net-(R10-Pad1)*%
X85178500Y-84865000D03*
%TO.P,R10,2*%
%TO.N,Net-(J7-Pad1)*%
X83353500Y-84865000D03*
%TD*%
D18*
%TO.P,C8,1*%
%TO.N,Net-(C8-Pad1)*%
X72297000Y-91948500D03*
%TO.P,C8,2*%
%TO.N,+5V*%
X72297000Y-90223500D03*
%TD*%
D15*
%TO.P,U3,1*%
%TO.N,Net-(J7-Pad1)*%
X90720000Y-74890000D03*
%TO.P,U3,2,V-*%
%TO.N,-5V*%
X89770000Y-74890000D03*
%TO.P,U3,3,+*%
%TO.N,Net-(C7-Pad2)*%
X88820000Y-74890000D03*
%TO.P,U3,4,-*%
%TO.N,Net-(R7-Pad1)*%
X88820000Y-77590000D03*
%TO.P,U3,5,V+*%
%TO.N,+5V*%
X90720000Y-77590000D03*
%TD*%
D14*
%TO.P,J5,1,Pin_1*%
%TO.N,Net-(C7-Pad2)*%
X85280000Y-75040000D03*
%TD*%
%TO.P,J1,1,Pin_1*%
%TO.N,Net-(GD1-Pad1)*%
X59436000Y-74970000D03*
%TD*%
D16*
%TO.P,C20,1*%
%TO.N,-5V*%
X108913000Y-73152000D03*
%TO.P,C20,2*%
%TO.N,GND*%
X107188000Y-73152000D03*
%TD*%
D14*
%TO.P,J11,1,Pin_1*%
%TO.N,attenuate*%
X79475000Y-64200000D03*
D34*
%TO.P,J11,2,Pin_2*%
%TO.N,acdc*%
X82015000Y-64200000D03*
%TO.P,J11,3,Pin_3*%
%TO.N,amp1-10*%
X84555000Y-64200000D03*
%TO.P,J11,4,Pin_4*%
%TO.N,amp1-5*%
X87095000Y-64200000D03*
%TO.P,J11,5,Pin_5*%
%TO.N,amp1-2.5*%
X89635000Y-64200000D03*
%TO.P,J11,6,Pin_6*%
%TO.N,amp1-1*%
X92175000Y-64200000D03*
%TO.P,J11,7,Pin_7*%
%TO.N,pwm*%
X94715000Y-64200000D03*
%TO.P,J11,8,Pin_8*%
%TO.N,GND*%
X97255000Y-64200000D03*
%TO.P,J11,9,Pin_9*%
X99795000Y-64200000D03*
%TO.P,J11,10,Pin_10*%
X102335000Y-64200000D03*
%TD*%
D14*
%TO.P,J10,1,Pin_1*%
%TO.N,-5V*%
X118500000Y-89000000D03*
%TD*%
D12*
%TO.P,R11,1*%
%TO.N,Net-(R11-Pad1)*%
X94063500Y-83655000D03*
%TO.P,R11,2*%
%TO.N,Net-(J7-Pad1)*%
X95888500Y-83655000D03*
%TD*%
D10*
%TO.P,C6,1*%
%TO.N,-5V*%
X94123500Y-87495000D03*
%TO.P,C6,2*%
%TO.N,GND*%
X95848500Y-87495000D03*
%TD*%
D14*
%TO.P,J14,1,Pin_1*%
%TO.N,+3.3V*%
X113100000Y-66100000D03*
%TD*%
%TO.P,J9,1,Pin_1*%
%TO.N,Net-(C13-Pad1)*%
X107100000Y-67200000D03*
%TD*%
%TO.P,J6,1,Pin_1*%
%TO.N,+5V*%
X77567000Y-90236000D03*
%TD*%
D35*
%TO.P,U1,1*%
%TO.N,amp1-1*%
X92091000Y-91240000D03*
%TO.P,U1,2*%
%TO.N,Net-(R7-Pad1)*%
X92091000Y-89970000D03*
%TO.P,U1,3*%
%TO.N,Net-(R9-Pad1)*%
X92091000Y-88700000D03*
%TO.P,U1,4,V-*%
%TO.N,-5V*%
X92091000Y-87430000D03*
%TO.P,U1,5,GND*%
%TO.N,GND*%
X92091000Y-86160000D03*
%TO.P,U1,6*%
%TO.N,Net-(R7-Pad1)*%
X92091000Y-84890000D03*
%TO.P,U1,7*%
%TO.N,Net-(R11-Pad1)*%
X92091000Y-83620000D03*
%TO.P,U1,8*%
%TO.N,amp1-2.5*%
X92091000Y-82350000D03*
%TO.P,U1,9*%
%TO.N,amp1-5*%
X87141000Y-82350000D03*
%TO.P,U1,10*%
%TO.N,Net-(R7-Pad1)*%
X87141000Y-83620000D03*
%TO.P,U1,11*%
%TO.N,Net-(R10-Pad1)*%
X87141000Y-84890000D03*
%TO.P,U1,12,VL*%
%TO.N,unconnected-(U1-Pad12)*%
X87141000Y-86160000D03*
%TO.P,U1,13,V+*%
%TO.N,+5V*%
X87141000Y-87430000D03*
%TO.P,U1,14*%
%TO.N,Net-(R12-Pad1)*%
X87141000Y-88700000D03*
%TO.P,U1,15*%
%TO.N,Net-(R7-Pad1)*%
X87141000Y-89970000D03*
%TO.P,U1,16*%
%TO.N,amp1-10*%
X87141000Y-91240000D03*
%TD*%
D14*
%TO.P,J13,1,Pin_1*%
%TO.N,Net-(C21-Pad1)*%
X120904000Y-75420000D03*
%TD*%
D10*
%TO.P,C17,1*%
%TO.N,-5V*%
X103146500Y-73230000D03*
%TO.P,C17,2*%
%TO.N,GND*%
X104871500Y-73230000D03*
%TD*%
D12*
%TO.P,R9,1*%
%TO.N,Net-(R9-Pad1)*%
X94083500Y-89005000D03*
%TO.P,R9,2*%
%TO.N,Net-(J7-Pad1)*%
X95908500Y-89005000D03*
%TD*%
D16*
%TO.P,C9,1*%
%TO.N,+5V*%
X85062500Y-88229000D03*
%TO.P,C9,2*%
%TO.N,GND*%
X83337500Y-88229000D03*
%TD*%
D36*
%TO.N,GND*%
X80642700Y-82857300D03*
X98200000Y-85200000D03*
X61900000Y-95700000D03*
X74400000Y-67400000D03*
X83200000Y-93400000D03*
X93100000Y-71800000D03*
X83200000Y-86500000D03*
X94500000Y-80600000D03*
X65400000Y-73000000D03*
X93100000Y-77100000D03*
X108700000Y-85600000D03*
X120200000Y-78900000D03*
X63400000Y-89300000D03*
D37*
X106300000Y-81500000D03*
D36*
X109800000Y-64400000D03*
%TO.N,-5V*%
X116300000Y-84500000D03*
X101500000Y-72300000D03*
X89900000Y-88900000D03*
X111400000Y-72400000D03*
X96700000Y-72300000D03*
%TO.N,+5V*%
X105700000Y-76500000D03*
D38*
X110490000Y-82550000D03*
D36*
X86700000Y-80000000D03*
X80700000Y-90300000D03*
X84700000Y-86229000D03*
%TO.N,+3.3V*%
X115500000Y-64000000D03*
D37*
%TO.N,acdc*%
X76500000Y-78700000D03*
%TO.N,amp1-1*%
X94700000Y-91229000D03*
%TO.N,amp1-2.5*%
X90700000Y-80600000D03*
%TO.N,amp1-5*%
X88100000Y-80900000D03*
D36*
%TO.N,amp1-10*%
X82700000Y-91200000D03*
%TD*%
D39*
%TO.N,GND*%
X119262500Y-66300000D02*
X119262500Y-71625000D01*
X117476200Y-63076200D02*
X111123800Y-63076200D01*
X94488000Y-78740000D02*
X94488000Y-78488000D01*
X66677000Y-89276000D02*
X63624000Y-89276000D01*
X97255000Y-64200000D02*
X99795000Y-64200000D01*
X63556000Y-89256000D02*
X63600000Y-89300000D01*
X106466000Y-81534000D02*
X106500000Y-81500000D01*
X59750000Y-95700000D02*
X59750000Y-94079800D01*
X114900000Y-85200000D02*
X114100000Y-84400000D01*
X108422900Y-88237500D02*
X108700000Y-88514600D01*
X105686500Y-80686500D02*
X106500000Y-81500000D01*
X83074000Y-93526000D02*
X83200000Y-93400000D01*
X107400000Y-88237500D02*
X108422900Y-88237500D01*
X59525000Y-95925000D02*
X59750000Y-95700000D01*
X81280000Y-80474000D02*
X80642700Y-81111300D01*
X59750000Y-89300000D02*
X57525000Y-89300000D01*
X120159000Y-78941000D02*
X120200000Y-78900000D01*
X106300000Y-81500000D02*
X106466000Y-81534000D01*
X114900000Y-87300000D02*
X114900000Y-85200000D01*
X57300000Y-95925000D02*
X59525000Y-95925000D01*
X109600000Y-64200000D02*
X109800000Y-64400000D01*
X107188000Y-73152000D02*
X107188000Y-71612000D01*
X114100000Y-84400000D02*
X109900000Y-84400000D01*
X63624000Y-89276000D02*
X63600000Y-89300000D01*
X106500000Y-81500000D02*
X107121500Y-81500000D01*
X109185400Y-89000000D02*
X108700000Y-88514600D01*
X104036500Y-81534000D02*
X106300000Y-81500000D01*
X103000000Y-64865000D02*
X102335000Y-64200000D01*
X59750000Y-95700000D02*
X61900000Y-95700000D01*
X104871500Y-73230000D02*
X107110000Y-73230000D01*
X83337500Y-88229000D02*
X83337500Y-86637500D01*
X80600000Y-82900000D02*
X80642700Y-82857300D01*
X103000000Y-64865000D02*
X103000000Y-67037500D01*
X63397000Y-94203000D02*
X61900000Y-95700000D01*
X119262500Y-64862500D02*
X117476200Y-63076200D01*
X63397000Y-92908500D02*
X63397000Y-94203000D01*
X98065000Y-85165000D02*
X98200000Y-85200000D01*
X73817000Y-93203500D02*
X74139500Y-93526000D01*
X57525000Y-89300000D02*
X57300000Y-89075000D01*
X110350000Y-89000000D02*
X109185400Y-89000000D01*
X95888500Y-85165000D02*
X98065000Y-85165000D01*
X103000000Y-67037500D02*
X103100000Y-67137500D01*
X73817000Y-91948500D02*
X73817000Y-93203500D01*
X111123800Y-63076200D02*
X109800000Y-64400000D01*
X92650000Y-72250000D02*
X93100000Y-71800000D01*
X57300000Y-89075000D02*
X57300000Y-91300000D01*
X109800000Y-69000000D02*
X109800000Y-64400000D01*
X59500000Y-83100000D02*
X59500000Y-89050000D01*
X99795000Y-64200000D02*
X102335000Y-64200000D01*
X95848500Y-87115000D02*
X94893500Y-86160000D01*
X117856000Y-78941000D02*
X120159000Y-78941000D01*
X59500000Y-89050000D02*
X59750000Y-89300000D01*
X109900000Y-84400000D02*
X108700000Y-85600000D01*
X74139500Y-93526000D02*
X83074000Y-93526000D01*
X102335000Y-64200000D02*
X109600000Y-64200000D01*
X107188000Y-71612000D02*
X107200000Y-71600000D01*
X98200000Y-85200000D02*
X98100000Y-85200000D01*
X107121500Y-81500000D02*
X108357500Y-80264000D01*
X119262500Y-66300000D02*
X119262500Y-64862500D01*
X94488000Y-78740000D02*
X94488000Y-80588000D01*
X94893500Y-86160000D02*
X95888500Y-85165000D01*
X108700000Y-88514600D02*
X108700000Y-85600000D01*
X91462500Y-72250000D02*
X92650000Y-72250000D01*
X94488000Y-80588000D02*
X94500000Y-80600000D01*
X63400000Y-89300000D02*
X63556000Y-89256000D01*
X105686500Y-79680500D02*
X105686500Y-80686500D01*
X57300000Y-91300000D02*
X57300000Y-93700000D01*
X80642700Y-81111300D02*
X80600000Y-82900000D01*
X92091000Y-86160000D02*
X94893500Y-86160000D01*
X107200000Y-71600000D02*
X109800000Y-69000000D01*
X83337500Y-86637500D02*
X83200000Y-86500000D01*
X94488000Y-78488000D02*
X93100000Y-77100000D01*
X57300000Y-93700000D02*
X57300000Y-95925000D01*
X119262500Y-71625000D02*
X119150000Y-71737500D01*
X95848500Y-87495000D02*
X95848500Y-87115000D01*
X107110000Y-73230000D02*
X107188000Y-73152000D01*
D40*
%TO.N,Net-(C5-Pad1)*%
X66677000Y-93548000D02*
X67715000Y-94586000D01*
X59737000Y-91156000D02*
X63369500Y-91156000D01*
X63397000Y-91183500D02*
X63404500Y-91176000D01*
X63404500Y-91176000D02*
X66677000Y-91176000D01*
X63369500Y-91156000D02*
X63397000Y-91183500D01*
X66677000Y-91176000D02*
X66677000Y-93548000D01*
D39*
%TO.N,-5V*%
X118475000Y-89025000D02*
X118500000Y-89000000D01*
X108913000Y-73152000D02*
X109665000Y-72400000D01*
X89770000Y-72282500D02*
X89737500Y-72250000D01*
X96700000Y-72300000D02*
X96123800Y-71723800D01*
X94058500Y-87430000D02*
X94123500Y-87495000D01*
X116325000Y-89025000D02*
X118475000Y-89025000D01*
X114900000Y-89025000D02*
X116325000Y-89025000D01*
X116325000Y-89025000D02*
X116325000Y-84525000D01*
X103146500Y-73230000D02*
X102216500Y-72300000D01*
X116325000Y-84525000D02*
X116300000Y-84500000D01*
X92091000Y-87430000D02*
X94058500Y-87430000D01*
X113050000Y-89000000D02*
X114875000Y-89000000D01*
X109665000Y-72400000D02*
X111400000Y-72400000D01*
X91111300Y-70876200D02*
X96123800Y-70876200D01*
X109004000Y-75380000D02*
X109004000Y-73243000D01*
X103046500Y-73330000D02*
X103146500Y-73230000D01*
X96123800Y-71723800D02*
X96123800Y-70876200D01*
X103046500Y-75194000D02*
X103046500Y-73330000D01*
X102216500Y-72300000D02*
X101500000Y-72300000D01*
X114875000Y-89000000D02*
X114900000Y-89025000D01*
X90470000Y-87430000D02*
X89900000Y-88000000D01*
X92091000Y-87430000D02*
X90470000Y-87430000D01*
X109004000Y-73243000D02*
X108913000Y-73152000D01*
X89900000Y-88000000D02*
X89900000Y-88900000D01*
X89770000Y-74890000D02*
X89770000Y-72282500D01*
X89737500Y-72250000D02*
X91111300Y-70876200D01*
D41*
%TO.N,Net-(C7-Pad1)*%
X78714000Y-75000000D02*
X75600000Y-75000000D01*
X78740000Y-73459000D02*
X79047000Y-73152000D01*
X78740000Y-74974000D02*
X78714000Y-75000000D01*
X78740000Y-74974000D02*
X78740000Y-73459000D01*
D40*
%TO.N,Net-(C7-Pad2)*%
X80772000Y-73152000D02*
X80772000Y-74466000D01*
X81346000Y-75040000D02*
X85280000Y-75040000D01*
X85280000Y-75040000D02*
X88670000Y-75040000D01*
X88670000Y-75040000D02*
X88820000Y-74890000D01*
X80772000Y-74466000D02*
X81280000Y-74974000D01*
%TO.N,Net-(C8-Pad1)*%
X72297000Y-91948500D02*
X72297000Y-93508500D01*
X72297000Y-93508500D02*
X72314500Y-93526000D01*
D39*
%TO.N,+5V*%
X105700000Y-77942000D02*
X105700000Y-76500000D01*
X72294500Y-90226000D02*
X72297000Y-90223500D01*
X105625000Y-77894000D02*
X105686500Y-77955500D01*
X90720000Y-78380000D02*
X89100000Y-80000000D01*
X107450000Y-82550000D02*
X110490000Y-82550000D01*
X77567000Y-90236000D02*
X80636000Y-90236000D01*
X84700000Y-86229000D02*
X84700000Y-87866500D01*
X91613000Y-77590000D02*
X92763000Y-78740000D01*
X110337500Y-89962500D02*
X110350000Y-89950000D01*
X90720000Y-77590000D02*
X90720000Y-78380000D01*
X85062500Y-88229000D02*
X85861500Y-87430000D01*
X104562500Y-89962500D02*
X103500000Y-88900000D01*
X84700000Y-87866500D02*
X85062500Y-88229000D01*
X103500000Y-86500000D02*
X107450000Y-82550000D01*
X85861500Y-87430000D02*
X87141000Y-87430000D01*
X107400000Y-89962500D02*
X110337500Y-89962500D01*
X77554500Y-90223500D02*
X77567000Y-90236000D01*
X110082500Y-80264000D02*
X110082500Y-82142500D01*
X73817000Y-90223500D02*
X77554500Y-90223500D01*
X103500000Y-88900000D02*
X103500000Y-86500000D01*
X80636000Y-90236000D02*
X80700000Y-90300000D01*
X110350000Y-89950000D02*
X113050000Y-89950000D01*
X90720000Y-77590000D02*
X91613000Y-77590000D01*
X105686500Y-77955500D02*
X105700000Y-77942000D01*
X110082500Y-82142500D02*
X110490000Y-82550000D01*
X68777000Y-90226000D02*
X72294500Y-90226000D01*
X103996500Y-77894000D02*
X105625000Y-77894000D01*
X110082500Y-80264000D02*
X110082500Y-78208500D01*
X89100000Y-80000000D02*
X86700000Y-80000000D01*
X109004000Y-78080000D02*
X109954000Y-78080000D01*
X72297000Y-90223500D02*
X73817000Y-90223500D01*
X110082500Y-78208500D02*
X109954000Y-78080000D01*
X107400000Y-89962500D02*
X104562500Y-89962500D01*
D40*
%TO.N,Net-(C13-Pad1)*%
X103100000Y-68862500D02*
X104762500Y-67200000D01*
X101512500Y-68862500D02*
X101500000Y-68875000D01*
X101812500Y-70700000D02*
X101812500Y-69187500D01*
X101812500Y-69187500D02*
X101500000Y-68875000D01*
X103100000Y-68862500D02*
X101512500Y-68862500D01*
X104762500Y-67200000D02*
X107100000Y-67200000D01*
%TO.N,Net-(C21-Pad1)*%
X117903000Y-75420000D02*
X117903000Y-70159500D01*
X117903000Y-70159500D02*
X118200000Y-69862500D01*
X117903000Y-77169000D02*
X117856000Y-77216000D01*
X117903000Y-75420000D02*
X120904000Y-75420000D01*
X117903000Y-75420000D02*
X117903000Y-77169000D01*
D39*
%TO.N,+3.3V*%
X113100000Y-66100000D02*
X115200000Y-64000000D01*
X117537500Y-66300000D02*
X115700000Y-68137500D01*
X115700000Y-68137500D02*
X115700000Y-70400000D01*
X117037500Y-71737500D02*
X117245700Y-71737500D01*
X115200000Y-64000000D02*
X115500000Y-64000000D01*
X115700000Y-70400000D02*
X117037500Y-71737500D01*
X113100000Y-66100000D02*
X117337500Y-66100000D01*
X117337500Y-66100000D02*
X117537500Y-66300000D01*
D40*
%TO.N,Net-(GD1-Pad1)*%
X64375000Y-74970000D02*
X64392500Y-74987500D01*
X59436000Y-78895800D02*
X59500000Y-78959800D01*
X59436000Y-74970000D02*
X64375000Y-74970000D01*
X59436000Y-74970000D02*
X59436000Y-78895800D01*
%TO.N,Net-(J7-Pad1)*%
X99400000Y-88000000D02*
X98395000Y-89005000D01*
X82435000Y-84865000D02*
X83353500Y-84865000D01*
X90265000Y-76135000D02*
X88577500Y-76135000D01*
X87600000Y-77112500D02*
X84687500Y-77112500D01*
X90720000Y-74890000D02*
X90720000Y-75680000D01*
X81600000Y-89000000D02*
X81600000Y-85700000D01*
X83353500Y-78446500D02*
X84687500Y-77112500D01*
X98395000Y-89005000D02*
X95908500Y-89005000D01*
X99400000Y-84400000D02*
X99400000Y-88000000D01*
X82329000Y-89729000D02*
X81600000Y-89000000D01*
X88577500Y-76135000D02*
X87600000Y-77112500D01*
X98400000Y-83400000D02*
X99400000Y-84400000D01*
X83353500Y-84865000D02*
X83353500Y-78446500D01*
X98164000Y-75050000D02*
X98298000Y-75184000D01*
X95270000Y-75050000D02*
X98164000Y-75050000D01*
X96143500Y-83400000D02*
X98400000Y-83400000D01*
X90720000Y-74890000D02*
X95110000Y-74890000D01*
X95270000Y-75050000D02*
X95888500Y-75668500D01*
X90720000Y-75680000D02*
X90265000Y-76135000D01*
X95110000Y-74890000D02*
X95270000Y-75050000D01*
X81600000Y-85700000D02*
X82435000Y-84865000D01*
X83287500Y-89729000D02*
X82329000Y-89729000D01*
X95888500Y-75668500D02*
X95888500Y-83655000D01*
X95888500Y-83655000D02*
X96143500Y-83400000D01*
%TO.N,attenuate*%
X64400000Y-85600000D02*
X64400000Y-82615000D01*
X64392500Y-79282500D02*
X79475000Y-64200000D01*
X64400000Y-82615000D02*
X64392500Y-82607500D01*
X64392500Y-82607500D02*
X64392500Y-79282500D01*
%TO.N,acdc*%
X76500000Y-81834000D02*
X76400000Y-78800000D01*
X78740000Y-84074000D02*
X76500000Y-81834000D01*
X76400000Y-78800000D02*
X76500000Y-78700000D01*
%TO.N,amp1-1*%
X94689000Y-91240000D02*
X94700000Y-91229000D01*
X92091000Y-91240000D02*
X94689000Y-91240000D01*
%TO.N,amp1-2.5*%
X92091000Y-81991000D02*
X92091000Y-82350000D01*
X90700000Y-80600000D02*
X92091000Y-81991000D01*
%TO.N,amp1-5*%
X87141000Y-81859000D02*
X88100000Y-80900000D01*
X87141000Y-82350000D02*
X87141000Y-81859000D01*
%TO.N,amp1-10*%
X82740000Y-91240000D02*
X82700000Y-91200000D01*
X87141000Y-91240000D02*
X82740000Y-91240000D01*
%TO.N,pwm*%
X94715000Y-64200000D02*
X99427500Y-68912500D01*
X99427500Y-68912500D02*
X99800000Y-68912500D01*
%TO.N,Net-(J12-Pad1)*%
X109954000Y-75380000D02*
X112972000Y-75380000D01*
X116060000Y-75438000D02*
X116078000Y-75420000D01*
X109600000Y-76700000D02*
X109954000Y-76346000D01*
X108349000Y-76700000D02*
X109600000Y-76700000D01*
X112972000Y-75380000D02*
X113030000Y-75438000D01*
X108054000Y-76995000D02*
X108349000Y-76700000D01*
X109954000Y-76346000D02*
X109954000Y-75380000D01*
X108054000Y-78080000D02*
X108054000Y-76995000D01*
X113030000Y-75438000D02*
X116060000Y-75438000D01*
%TO.N,Net-(L1-Pad1)*%
X99800000Y-67087500D02*
X101462500Y-67087500D01*
X101462500Y-67087500D02*
X101500000Y-67125000D01*
%TO.N,Net-(R5-Pad1)*%
X78740000Y-80474000D02*
X78740000Y-82249000D01*
D41*
%TO.N,Net-(R7-Pad1)*%
X86764249Y-83620000D02*
X87141000Y-83620000D01*
X90091000Y-83620000D02*
X87141000Y-83620000D01*
X93788500Y-84890000D02*
X94063500Y-85165000D01*
D40*
X87141000Y-89970000D02*
X87759000Y-89970000D01*
D41*
X85200000Y-78300000D02*
X85910000Y-77590000D01*
X85200000Y-78300000D02*
X85200000Y-82055751D01*
D40*
X88091000Y-83620000D02*
X87141000Y-83620000D01*
D41*
X85910000Y-77590000D02*
X88820000Y-77590000D01*
D40*
X89100000Y-88629000D02*
X89100000Y-84629000D01*
X87141000Y-89970000D02*
X92091000Y-89970000D01*
X87759000Y-89970000D02*
X89100000Y-88629000D01*
D41*
X92091000Y-84890000D02*
X91361000Y-84890000D01*
X92091000Y-84890000D02*
X93788500Y-84890000D01*
D40*
X89100000Y-84629000D02*
X88091000Y-83620000D01*
D41*
X85200000Y-82055751D02*
X86764249Y-83620000D01*
X91361000Y-84890000D02*
X90091000Y-83620000D01*
D40*
%TO.N,Net-(R9-Pad1)*%
X93778500Y-88700000D02*
X94083500Y-89005000D01*
X92091000Y-88700000D02*
X93778500Y-88700000D01*
%TO.N,Net-(R10-Pad1)*%
X85178500Y-84865000D02*
X86923500Y-84865000D01*
X86923500Y-84865000D02*
X86923500Y-84890000D01*
%TO.N,Net-(R11-Pad1)*%
X92091000Y-83620000D02*
X94028500Y-83620000D01*
X94028500Y-83620000D02*
X94063500Y-83655000D01*
%TO.N,Net-(R12-Pad1)*%
X86141500Y-88700000D02*
X87141000Y-88700000D01*
X85112500Y-89729000D02*
X86141500Y-88700000D01*
%TO.N,Net-(R13-Pad2)*%
X102086500Y-75184000D02*
X102096500Y-75194000D01*
X99987500Y-75048500D02*
X100123000Y-75184000D01*
X99987500Y-70700000D02*
X99987500Y-75048500D01*
X100123000Y-75184000D02*
X102086500Y-75184000D01*
%TO.N,Net-(R15-Pad1)*%
X102187500Y-79900000D02*
X102187500Y-81510000D01*
X102096500Y-77894000D02*
X102096500Y-79809000D01*
X102096500Y-79809000D02*
X102187500Y-79900000D01*
%TO.N,Net-(R16-Pad2)*%
X103100000Y-79027500D02*
X103100000Y-76800000D01*
X103100000Y-79027500D02*
X103140000Y-79027500D01*
X103100000Y-76800000D02*
X103996500Y-75903500D01*
X103140000Y-79027500D02*
X104012500Y-79900000D01*
X107868000Y-75194000D02*
X108054000Y-75380000D01*
X103996500Y-75194000D02*
X107868000Y-75194000D01*
X103996500Y-75903500D02*
X103996500Y-75194000D01*
%TO.N,Net-(C15-Pad1)*%
X113050000Y-86787500D02*
X112662500Y-86400000D01*
X113050000Y-88050000D02*
X113050000Y-86787500D01*
%TO.N,Net-(C15-Pad2)*%
X110350000Y-86987500D02*
X110937500Y-86400000D01*
X110350000Y-88050000D02*
X110350000Y-86987500D01*
%TD*%
M02*
