%TF.GenerationSoftware,KiCad,Pcbnew,(6.0.7)*%
%TF.CreationDate,2023-02-28T16:34:10-05:00*%
%TF.ProjectId,Front_EndDesign3,46726f6e-745f-4456-9e64-44657369676e,rev?*%
%TF.SameCoordinates,Original*%
%TF.FileFunction,Soldermask,Top*%
%TF.FilePolarity,Negative*%
%FSLAX46Y46*%
G04 Gerber Fmt 4.6, Leading zero omitted, Abs format (unit mm)*
G04 Created by KiCad (PCBNEW (6.0.7)) date 2023-02-28 16:34:10*
%MOMM*%
%LPD*%
G01*
G04 APERTURE LIST*
G04 Aperture macros list*
%AMRoundRect*
0 Rectangle with rounded corners*
0 $1 Rounding radius*
0 $2 $3 $4 $5 $6 $7 $8 $9 X,Y pos of 4 corners*
0 Add a 4 corners polygon primitive as box body*
4,1,4,$2,$3,$4,$5,$6,$7,$8,$9,$2,$3,0*
0 Add four circle primitives for the rounded corners*
1,1,$1+$1,$2,$3*
1,1,$1+$1,$4,$5*
1,1,$1+$1,$6,$7*
1,1,$1+$1,$8,$9*
0 Add four rect primitives between the rounded corners*
20,1,$1+$1,$2,$3,$4,$5,0*
20,1,$1+$1,$4,$5,$6,$7,0*
20,1,$1+$1,$6,$7,$8,$9,0*
20,1,$1+$1,$8,$9,$2,$3,0*%
G04 Aperture macros list end*
%ADD10RoundRect,0.237500X-0.300000X-0.237500X0.300000X-0.237500X0.300000X0.237500X-0.300000X0.237500X0*%
%ADD11RoundRect,0.137500X0.137500X-0.587500X0.137500X0.587500X-0.137500X0.587500X-0.137500X-0.587500X0*%
%ADD12RoundRect,0.237500X-0.250000X-0.237500X0.250000X-0.237500X0.250000X0.237500X-0.250000X0.237500X0*%
%ADD13RoundRect,0.237500X-0.237500X0.300000X-0.237500X-0.300000X0.237500X-0.300000X0.237500X0.300000X0*%
%ADD14R,1.700000X1.700000*%
%ADD15R,0.650000X1.560000*%
%ADD16RoundRect,0.237500X0.300000X0.237500X-0.300000X0.237500X-0.300000X-0.237500X0.300000X-0.237500X0*%
%ADD17R,5.207000X1.066800*%
%ADD18RoundRect,0.237500X0.237500X-0.300000X0.237500X0.300000X-0.237500X0.300000X-0.237500X-0.300000X0*%
%ADD19R,1.560000X0.650000*%
%ADD20RoundRect,0.150000X0.150000X-0.587500X0.150000X0.587500X-0.150000X0.587500X-0.150000X-0.587500X0*%
%ADD21R,1.400000X1.400000*%
%ADD22C,1.400000*%
%ADD23R,1.600000X1.600000*%
%ADD24O,1.600000X1.600000*%
%ADD25RoundRect,0.237500X0.237500X-0.250000X0.237500X0.250000X-0.237500X0.250000X-0.237500X-0.250000X0*%
%ADD26RoundRect,0.237500X-0.237500X0.287500X-0.237500X-0.287500X0.237500X-0.287500X0.237500X0.287500X0*%
%ADD27RoundRect,0.237500X0.250000X0.237500X-0.250000X0.237500X-0.250000X-0.237500X0.250000X-0.237500X0*%
%ADD28RoundRect,0.070000X-0.650000X-0.300000X0.650000X-0.300000X0.650000X0.300000X-0.650000X0.300000X0*%
%ADD29RoundRect,0.237500X-0.237500X0.250000X-0.237500X-0.250000X0.237500X-0.250000X0.237500X0.250000X0*%
%ADD30R,1.350000X0.400000*%
%ADD31R,1.400000X1.600000*%
%ADD32R,1.300000X1.450000*%
%ADD33R,1.900000X1.900000*%
%ADD34O,1.700000X1.700000*%
%ADD35RoundRect,0.150000X0.825000X0.150000X-0.825000X0.150000X-0.825000X-0.150000X0.825000X-0.150000X0*%
G04 APERTURE END LIST*
D10*
%TO.C,C12*%
X92763000Y-78740000D03*
X94488000Y-78740000D03*
%TD*%
D11*
%TO.C,U2*%
X78740000Y-80474000D03*
X81280000Y-80474000D03*
X81280000Y-74974000D03*
X78740000Y-74974000D03*
%TD*%
D12*
%TO.C,R7*%
X94063500Y-85165000D03*
X95888500Y-85165000D03*
%TD*%
D13*
%TO.C,C10*%
X73817000Y-90223500D03*
X73817000Y-91948500D03*
%TD*%
D14*
%TO.C,J7*%
X95270000Y-75050000D03*
%TD*%
D12*
%TO.C,R13*%
X98298000Y-75184000D03*
X100123000Y-75184000D03*
%TD*%
D15*
%TO.C,U6*%
X109954000Y-75380000D03*
X109004000Y-75380000D03*
X108054000Y-75380000D03*
X108054000Y-78080000D03*
X109004000Y-78080000D03*
X109954000Y-78080000D03*
%TD*%
D16*
%TO.C,C15*%
X112662500Y-86400000D03*
X110937500Y-86400000D03*
%TD*%
D14*
%TO.C,J4*%
X67715000Y-94586000D03*
%TD*%
D17*
%TO.C,GD1*%
X59500000Y-78959800D03*
X59500000Y-83100000D03*
%TD*%
D14*
%TO.C,J8*%
X103500000Y-88900000D03*
%TD*%
D18*
%TO.C,c16*%
X105686500Y-79680500D03*
X105686500Y-77955500D03*
%TD*%
D12*
%TO.C,R17*%
X116078000Y-75420000D03*
X117903000Y-75420000D03*
%TD*%
D10*
%TO.C,C7*%
X79047000Y-73152000D03*
X80772000Y-73152000D03*
%TD*%
D12*
%TO.C,R16*%
X102187500Y-79900000D03*
X104012500Y-79900000D03*
%TD*%
D19*
%TO.C,U4*%
X113050000Y-89950000D03*
X113050000Y-89000000D03*
X113050000Y-88050000D03*
X110350000Y-88050000D03*
X110350000Y-89000000D03*
X110350000Y-89950000D03*
%TD*%
D16*
%TO.C,C11*%
X91462500Y-72250000D03*
X89737500Y-72250000D03*
%TD*%
D20*
%TO.C,D1*%
X117250000Y-71737500D03*
X119150000Y-71737500D03*
X118200000Y-69862500D03*
%TD*%
D21*
%TO.C,K1*%
X72012500Y-82607500D03*
D22*
X72012500Y-74987500D03*
X72012500Y-69907500D03*
X72012500Y-64827500D03*
X64392500Y-64827500D03*
X64392500Y-69907500D03*
X64392500Y-74987500D03*
X64392500Y-82607500D03*
%TD*%
D23*
%TO.C,D2*%
X64400000Y-85600000D03*
D24*
X72020000Y-85600000D03*
%TD*%
D10*
%TO.C,C22*%
X117537500Y-66300000D03*
X119262500Y-66300000D03*
%TD*%
D18*
%TO.C,C14*%
X107400000Y-89962500D03*
X107400000Y-88237500D03*
%TD*%
D13*
%TO.C,C21*%
X117856000Y-77216000D03*
X117856000Y-78941000D03*
%TD*%
D18*
%TO.C,C18*%
X114900000Y-89025000D03*
X114900000Y-87300000D03*
%TD*%
D13*
%TO.C,C5*%
X63397000Y-91183500D03*
X63397000Y-92908500D03*
%TD*%
D18*
%TO.C,C13*%
X103100000Y-68862500D03*
X103100000Y-67137500D03*
%TD*%
D12*
%TO.C,R6*%
X72314500Y-93526000D03*
X74139500Y-93526000D03*
%TD*%
D14*
%TO.C,J12*%
X113030000Y-75438000D03*
%TD*%
D25*
%TO.C,R8*%
X99800000Y-68912500D03*
X99800000Y-67087500D03*
%TD*%
D15*
%TO.C,U5*%
X103996500Y-75194000D03*
X103046500Y-75194000D03*
X102096500Y-75194000D03*
X102096500Y-77894000D03*
X103996500Y-77894000D03*
%TD*%
D26*
%TO.C,L1*%
X101500000Y-67125000D03*
X101500000Y-68875000D03*
%TD*%
D12*
%TO.C,R15*%
X102211500Y-81534000D03*
X104036500Y-81534000D03*
%TD*%
D27*
%TO.C,R12*%
X85112500Y-89729000D03*
X83287500Y-89729000D03*
%TD*%
D28*
%TO.C,Q1*%
X66677000Y-89276000D03*
X66677000Y-91176000D03*
X68777000Y-90226000D03*
%TD*%
D27*
%TO.C,R14*%
X101812500Y-70700000D03*
X99987500Y-70700000D03*
%TD*%
D29*
%TO.C,R5*%
X78740000Y-82249000D03*
X78740000Y-84074000D03*
%TD*%
D14*
%TO.C,J3*%
X75600000Y-75000000D03*
%TD*%
D30*
%TO.C,J2*%
X59975000Y-91200000D03*
X59975000Y-91850000D03*
X59975000Y-92500000D03*
X59975000Y-93150000D03*
X59975000Y-93800000D03*
D31*
X59750000Y-89300000D03*
D32*
X57300000Y-89075000D03*
D33*
X57300000Y-91300000D03*
X57300000Y-93700000D03*
D32*
X57300000Y-95925000D03*
D31*
X59750000Y-95700000D03*
%TD*%
D10*
%TO.C,c19*%
X108357500Y-80264000D03*
X110082500Y-80264000D03*
%TD*%
D27*
%TO.C,R10*%
X85178500Y-84865000D03*
X83353500Y-84865000D03*
%TD*%
D18*
%TO.C,C8*%
X72297000Y-91948500D03*
X72297000Y-90223500D03*
%TD*%
D15*
%TO.C,U3*%
X90720000Y-74890000D03*
X89770000Y-74890000D03*
X88820000Y-74890000D03*
X88820000Y-77590000D03*
X90720000Y-77590000D03*
%TD*%
D14*
%TO.C,J5*%
X85280000Y-75040000D03*
%TD*%
%TO.C,J1*%
X59436000Y-74970000D03*
%TD*%
D16*
%TO.C,C20*%
X108913000Y-73152000D03*
X107188000Y-73152000D03*
%TD*%
D14*
%TO.C,J11*%
X79475000Y-64200000D03*
D34*
X82015000Y-64200000D03*
X84555000Y-64200000D03*
X87095000Y-64200000D03*
X89635000Y-64200000D03*
X92175000Y-64200000D03*
X94715000Y-64200000D03*
X97255000Y-64200000D03*
X99795000Y-64200000D03*
X102335000Y-64200000D03*
%TD*%
D14*
%TO.C,J10*%
X118500000Y-89000000D03*
%TD*%
D12*
%TO.C,R11*%
X94063500Y-83655000D03*
X95888500Y-83655000D03*
%TD*%
D10*
%TO.C,C6*%
X94123500Y-87495000D03*
X95848500Y-87495000D03*
%TD*%
D14*
%TO.C,J14*%
X113100000Y-66100000D03*
%TD*%
%TO.C,J9*%
X107100000Y-67200000D03*
%TD*%
%TO.C,J6*%
X77567000Y-90236000D03*
%TD*%
D35*
%TO.C,U1*%
X92091000Y-91240000D03*
X92091000Y-89970000D03*
X92091000Y-88700000D03*
X92091000Y-87430000D03*
X92091000Y-86160000D03*
X92091000Y-84890000D03*
X92091000Y-83620000D03*
X92091000Y-82350000D03*
X87141000Y-82350000D03*
X87141000Y-83620000D03*
X87141000Y-84890000D03*
X87141000Y-86160000D03*
X87141000Y-87430000D03*
X87141000Y-88700000D03*
X87141000Y-89970000D03*
X87141000Y-91240000D03*
%TD*%
D14*
%TO.C,J13*%
X120904000Y-75420000D03*
%TD*%
D10*
%TO.C,C17*%
X103146500Y-73230000D03*
X104871500Y-73230000D03*
%TD*%
D12*
%TO.C,R9*%
X94083500Y-89005000D03*
X95908500Y-89005000D03*
%TD*%
D16*
%TO.C,C9*%
X85062500Y-88229000D03*
X83337500Y-88229000D03*
%TD*%
M02*
