%TF.GenerationSoftware,KiCad,Pcbnew,(6.0.7)*%
%TF.CreationDate,2023-02-28T16:34:10-05:00*%
%TF.ProjectId,Front_EndDesign3,46726f6e-745f-4456-9e64-44657369676e,rev?*%
%TF.SameCoordinates,Original*%
%TF.FileFunction,Legend,Top*%
%TF.FilePolarity,Positive*%
%FSLAX46Y46*%
G04 Gerber Fmt 4.6, Leading zero omitted, Abs format (unit mm)*
G04 Created by KiCad (PCBNEW (6.0.7)) date 2023-02-28 16:34:10*
%MOMM*%
%LPD*%
G01*
G04 APERTURE LIST*
%ADD10C,0.150000*%
%ADD11C,0.125000*%
%ADD12C,0.128120*%
%ADD13C,0.120000*%
%ADD14C,0.100000*%
%ADD15C,0.127000*%
%ADD16C,0.200000*%
G04 APERTURE END LIST*
D10*
%TO.C,C12*%
X96757142Y-79257142D02*
X96709523Y-79304761D01*
X96566666Y-79352380D01*
X96471428Y-79352380D01*
X96328571Y-79304761D01*
X96233333Y-79209523D01*
X96185714Y-79114285D01*
X96138095Y-78923809D01*
X96138095Y-78780952D01*
X96185714Y-78590476D01*
X96233333Y-78495238D01*
X96328571Y-78400000D01*
X96471428Y-78352380D01*
X96566666Y-78352380D01*
X96709523Y-78400000D01*
X96757142Y-78447619D01*
X97709523Y-79352380D02*
X97138095Y-79352380D01*
X97423809Y-79352380D02*
X97423809Y-78352380D01*
X97328571Y-78495238D01*
X97233333Y-78590476D01*
X97138095Y-78638095D01*
X98090476Y-78447619D02*
X98138095Y-78400000D01*
X98233333Y-78352380D01*
X98471428Y-78352380D01*
X98566666Y-78400000D01*
X98614285Y-78447619D01*
X98661904Y-78542857D01*
X98661904Y-78638095D01*
X98614285Y-78780952D01*
X98042857Y-79352380D01*
X98661904Y-79352380D01*
%TO.C,U2*%
X76462380Y-78485904D02*
X77271904Y-78485904D01*
X77367142Y-78438285D01*
X77414761Y-78390666D01*
X77462380Y-78295428D01*
X77462380Y-78104952D01*
X77414761Y-78009714D01*
X77367142Y-77962095D01*
X77271904Y-77914476D01*
X76462380Y-77914476D01*
X76557619Y-77485904D02*
X76510000Y-77438285D01*
X76462380Y-77343047D01*
X76462380Y-77104952D01*
X76510000Y-77009714D01*
X76557619Y-76962095D01*
X76652857Y-76914476D01*
X76748095Y-76914476D01*
X76890952Y-76962095D01*
X77462380Y-77533523D01*
X77462380Y-76914476D01*
%TO.C,R7*%
X97433333Y-86552380D02*
X97100000Y-86076190D01*
X96861904Y-86552380D02*
X96861904Y-85552380D01*
X97242857Y-85552380D01*
X97338095Y-85600000D01*
X97385714Y-85647619D01*
X97433333Y-85742857D01*
X97433333Y-85885714D01*
X97385714Y-85980952D01*
X97338095Y-86028571D01*
X97242857Y-86076190D01*
X96861904Y-86076190D01*
X97766666Y-85552380D02*
X98433333Y-85552380D01*
X98004761Y-86552380D01*
%TO.C,C10*%
X73557142Y-88957142D02*
X73509523Y-89004761D01*
X73366666Y-89052380D01*
X73271428Y-89052380D01*
X73128571Y-89004761D01*
X73033333Y-88909523D01*
X72985714Y-88814285D01*
X72938095Y-88623809D01*
X72938095Y-88480952D01*
X72985714Y-88290476D01*
X73033333Y-88195238D01*
X73128571Y-88100000D01*
X73271428Y-88052380D01*
X73366666Y-88052380D01*
X73509523Y-88100000D01*
X73557142Y-88147619D01*
X74509523Y-89052380D02*
X73938095Y-89052380D01*
X74223809Y-89052380D02*
X74223809Y-88052380D01*
X74128571Y-88195238D01*
X74033333Y-88290476D01*
X73938095Y-88338095D01*
X75128571Y-88052380D02*
X75223809Y-88052380D01*
X75319047Y-88100000D01*
X75366666Y-88147619D01*
X75414285Y-88242857D01*
X75461904Y-88433333D01*
X75461904Y-88671428D01*
X75414285Y-88861904D01*
X75366666Y-88957142D01*
X75319047Y-89004761D01*
X75223809Y-89052380D01*
X75128571Y-89052380D01*
X75033333Y-89004761D01*
X74985714Y-88957142D01*
X74938095Y-88861904D01*
X74890476Y-88671428D01*
X74890476Y-88433333D01*
X74938095Y-88242857D01*
X74985714Y-88147619D01*
X75033333Y-88100000D01*
X75128571Y-88052380D01*
%TO.C,J7*%
X94566666Y-71952380D02*
X94566666Y-72666666D01*
X94519047Y-72809523D01*
X94423809Y-72904761D01*
X94280952Y-72952380D01*
X94185714Y-72952380D01*
X94947619Y-71952380D02*
X95614285Y-71952380D01*
X95185714Y-72952380D01*
%TO.C,R13*%
X97757142Y-77152380D02*
X97423809Y-76676190D01*
X97185714Y-77152380D02*
X97185714Y-76152380D01*
X97566666Y-76152380D01*
X97661904Y-76200000D01*
X97709523Y-76247619D01*
X97757142Y-76342857D01*
X97757142Y-76485714D01*
X97709523Y-76580952D01*
X97661904Y-76628571D01*
X97566666Y-76676190D01*
X97185714Y-76676190D01*
X98709523Y-77152380D02*
X98138095Y-77152380D01*
X98423809Y-77152380D02*
X98423809Y-76152380D01*
X98328571Y-76295238D01*
X98233333Y-76390476D01*
X98138095Y-76438095D01*
X99042857Y-76152380D02*
X99661904Y-76152380D01*
X99328571Y-76533333D01*
X99471428Y-76533333D01*
X99566666Y-76580952D01*
X99614285Y-76628571D01*
X99661904Y-76723809D01*
X99661904Y-76961904D01*
X99614285Y-77057142D01*
X99566666Y-77104761D01*
X99471428Y-77152380D01*
X99185714Y-77152380D01*
X99090476Y-77104761D01*
X99042857Y-77057142D01*
%TO.C,U6*%
X111152380Y-79061904D02*
X111961904Y-79061904D01*
X112057142Y-79014285D01*
X112104761Y-78966666D01*
X112152380Y-78871428D01*
X112152380Y-78680952D01*
X112104761Y-78585714D01*
X112057142Y-78538095D01*
X111961904Y-78490476D01*
X111152380Y-78490476D01*
X111152380Y-77585714D02*
X111152380Y-77776190D01*
X111200000Y-77871428D01*
X111247619Y-77919047D01*
X111390476Y-78014285D01*
X111580952Y-78061904D01*
X111961904Y-78061904D01*
X112057142Y-78014285D01*
X112104761Y-77966666D01*
X112152380Y-77871428D01*
X112152380Y-77680952D01*
X112104761Y-77585714D01*
X112057142Y-77538095D01*
X111961904Y-77490476D01*
X111723809Y-77490476D01*
X111628571Y-77538095D01*
X111580952Y-77585714D01*
X111533333Y-77680952D01*
X111533333Y-77871428D01*
X111580952Y-77966666D01*
X111628571Y-78014285D01*
X111723809Y-78061904D01*
%TO.C,C15*%
X111557142Y-83757142D02*
X111509523Y-83804761D01*
X111366666Y-83852380D01*
X111271428Y-83852380D01*
X111128571Y-83804761D01*
X111033333Y-83709523D01*
X110985714Y-83614285D01*
X110938095Y-83423809D01*
X110938095Y-83280952D01*
X110985714Y-83090476D01*
X111033333Y-82995238D01*
X111128571Y-82900000D01*
X111271428Y-82852380D01*
X111366666Y-82852380D01*
X111509523Y-82900000D01*
X111557142Y-82947619D01*
X112509523Y-83852380D02*
X111938095Y-83852380D01*
X112223809Y-83852380D02*
X112223809Y-82852380D01*
X112128571Y-82995238D01*
X112033333Y-83090476D01*
X111938095Y-83138095D01*
X113414285Y-82852380D02*
X112938095Y-82852380D01*
X112890476Y-83328571D01*
X112938095Y-83280952D01*
X113033333Y-83233333D01*
X113271428Y-83233333D01*
X113366666Y-83280952D01*
X113414285Y-83328571D01*
X113461904Y-83423809D01*
X113461904Y-83661904D01*
X113414285Y-83757142D01*
X113366666Y-83804761D01*
X113271428Y-83852380D01*
X113033333Y-83852380D01*
X112938095Y-83804761D01*
X112890476Y-83757142D01*
%TO.C,J4*%
X64166666Y-95052380D02*
X64166666Y-95766666D01*
X64119047Y-95909523D01*
X64023809Y-96004761D01*
X63880952Y-96052380D01*
X63785714Y-96052380D01*
X65071428Y-95385714D02*
X65071428Y-96052380D01*
X64833333Y-95004761D02*
X64595238Y-95719047D01*
X65214285Y-95719047D01*
%TO.C,GD1*%
X58985714Y-80500000D02*
X58890476Y-80452380D01*
X58747619Y-80452380D01*
X58604761Y-80500000D01*
X58509523Y-80595238D01*
X58461904Y-80690476D01*
X58414285Y-80880952D01*
X58414285Y-81023809D01*
X58461904Y-81214285D01*
X58509523Y-81309523D01*
X58604761Y-81404761D01*
X58747619Y-81452380D01*
X58842857Y-81452380D01*
X58985714Y-81404761D01*
X59033333Y-81357142D01*
X59033333Y-81023809D01*
X58842857Y-81023809D01*
X59461904Y-81452380D02*
X59461904Y-80452380D01*
X59700000Y-80452380D01*
X59842857Y-80500000D01*
X59938095Y-80595238D01*
X59985714Y-80690476D01*
X60033333Y-80880952D01*
X60033333Y-81023809D01*
X59985714Y-81214285D01*
X59938095Y-81309523D01*
X59842857Y-81404761D01*
X59700000Y-81452380D01*
X59461904Y-81452380D01*
X60985714Y-81452380D02*
X60414285Y-81452380D01*
X60700000Y-81452380D02*
X60700000Y-80452380D01*
X60604761Y-80595238D01*
X60509523Y-80690476D01*
X60414285Y-80738095D01*
%TO.C,J8*%
X99766666Y-87952380D02*
X99766666Y-88666666D01*
X99719047Y-88809523D01*
X99623809Y-88904761D01*
X99480952Y-88952380D01*
X99385714Y-88952380D01*
X100385714Y-88380952D02*
X100290476Y-88333333D01*
X100242857Y-88285714D01*
X100195238Y-88190476D01*
X100195238Y-88142857D01*
X100242857Y-88047619D01*
X100290476Y-88000000D01*
X100385714Y-87952380D01*
X100576190Y-87952380D01*
X100671428Y-88000000D01*
X100719047Y-88047619D01*
X100766666Y-88142857D01*
X100766666Y-88190476D01*
X100719047Y-88285714D01*
X100671428Y-88333333D01*
X100576190Y-88380952D01*
X100385714Y-88380952D01*
X100290476Y-88428571D01*
X100242857Y-88476190D01*
X100195238Y-88571428D01*
X100195238Y-88761904D01*
X100242857Y-88857142D01*
X100290476Y-88904761D01*
X100385714Y-88952380D01*
X100576190Y-88952380D01*
X100671428Y-88904761D01*
X100719047Y-88857142D01*
X100766666Y-88761904D01*
X100766666Y-88571428D01*
X100719047Y-88476190D01*
X100671428Y-88428571D01*
X100576190Y-88380952D01*
%TO.C,c16*%
X106704761Y-76614285D02*
X106752380Y-76709523D01*
X106752380Y-76900000D01*
X106704761Y-76995238D01*
X106657142Y-77042857D01*
X106561904Y-77090476D01*
X106276190Y-77090476D01*
X106180952Y-77042857D01*
X106133333Y-76995238D01*
X106085714Y-76900000D01*
X106085714Y-76709523D01*
X106133333Y-76614285D01*
X106752380Y-75661904D02*
X106752380Y-76233333D01*
X106752380Y-75947619D02*
X105752380Y-75947619D01*
X105895238Y-76042857D01*
X105990476Y-76138095D01*
X106038095Y-76233333D01*
X105752380Y-74804761D02*
X105752380Y-74995238D01*
X105800000Y-75090476D01*
X105847619Y-75138095D01*
X105990476Y-75233333D01*
X106180952Y-75280952D01*
X106561904Y-75280952D01*
X106657142Y-75233333D01*
X106704761Y-75185714D01*
X106752380Y-75090476D01*
X106752380Y-74900000D01*
X106704761Y-74804761D01*
X106657142Y-74757142D01*
X106561904Y-74709523D01*
X106323809Y-74709523D01*
X106228571Y-74757142D01*
X106180952Y-74804761D01*
X106133333Y-74900000D01*
X106133333Y-75090476D01*
X106180952Y-75185714D01*
X106228571Y-75233333D01*
X106323809Y-75280952D01*
%TO.C,R17*%
X116347642Y-74442380D02*
X116014309Y-73966190D01*
X115776214Y-74442380D02*
X115776214Y-73442380D01*
X116157166Y-73442380D01*
X116252404Y-73490000D01*
X116300023Y-73537619D01*
X116347642Y-73632857D01*
X116347642Y-73775714D01*
X116300023Y-73870952D01*
X116252404Y-73918571D01*
X116157166Y-73966190D01*
X115776214Y-73966190D01*
X117300023Y-74442380D02*
X116728595Y-74442380D01*
X117014309Y-74442380D02*
X117014309Y-73442380D01*
X116919071Y-73585238D01*
X116823833Y-73680476D01*
X116728595Y-73728095D01*
X117633357Y-73442380D02*
X118300023Y-73442380D01*
X117871452Y-74442380D01*
%TO.C,C7*%
X79742833Y-72079142D02*
X79695214Y-72126761D01*
X79552357Y-72174380D01*
X79457119Y-72174380D01*
X79314261Y-72126761D01*
X79219023Y-72031523D01*
X79171404Y-71936285D01*
X79123785Y-71745809D01*
X79123785Y-71602952D01*
X79171404Y-71412476D01*
X79219023Y-71317238D01*
X79314261Y-71222000D01*
X79457119Y-71174380D01*
X79552357Y-71174380D01*
X79695214Y-71222000D01*
X79742833Y-71269619D01*
X80076166Y-71174380D02*
X80742833Y-71174380D01*
X80314261Y-72174380D01*
%TO.C,R16*%
X99457142Y-80352380D02*
X99123809Y-79876190D01*
X98885714Y-80352380D02*
X98885714Y-79352380D01*
X99266666Y-79352380D01*
X99361904Y-79400000D01*
X99409523Y-79447619D01*
X99457142Y-79542857D01*
X99457142Y-79685714D01*
X99409523Y-79780952D01*
X99361904Y-79828571D01*
X99266666Y-79876190D01*
X98885714Y-79876190D01*
X100409523Y-80352380D02*
X99838095Y-80352380D01*
X100123809Y-80352380D02*
X100123809Y-79352380D01*
X100028571Y-79495238D01*
X99933333Y-79590476D01*
X99838095Y-79638095D01*
X101266666Y-79352380D02*
X101076190Y-79352380D01*
X100980952Y-79400000D01*
X100933333Y-79447619D01*
X100838095Y-79590476D01*
X100790476Y-79780952D01*
X100790476Y-80161904D01*
X100838095Y-80257142D01*
X100885714Y-80304761D01*
X100980952Y-80352380D01*
X101171428Y-80352380D01*
X101266666Y-80304761D01*
X101314285Y-80257142D01*
X101361904Y-80161904D01*
X101361904Y-79923809D01*
X101314285Y-79828571D01*
X101266666Y-79780952D01*
X101171428Y-79733333D01*
X100980952Y-79733333D01*
X100885714Y-79780952D01*
X100838095Y-79828571D01*
X100790476Y-79923809D01*
%TO.C,U4*%
X110838095Y-91052380D02*
X110838095Y-91861904D01*
X110885714Y-91957142D01*
X110933333Y-92004761D01*
X111028571Y-92052380D01*
X111219047Y-92052380D01*
X111314285Y-92004761D01*
X111361904Y-91957142D01*
X111409523Y-91861904D01*
X111409523Y-91052380D01*
X112314285Y-91385714D02*
X112314285Y-92052380D01*
X112076190Y-91004761D02*
X111838095Y-91719047D01*
X112457142Y-91719047D01*
%TO.C,C11*%
X88657142Y-70957142D02*
X88609523Y-71004761D01*
X88466666Y-71052380D01*
X88371428Y-71052380D01*
X88228571Y-71004761D01*
X88133333Y-70909523D01*
X88085714Y-70814285D01*
X88038095Y-70623809D01*
X88038095Y-70480952D01*
X88085714Y-70290476D01*
X88133333Y-70195238D01*
X88228571Y-70100000D01*
X88371428Y-70052380D01*
X88466666Y-70052380D01*
X88609523Y-70100000D01*
X88657142Y-70147619D01*
X89609523Y-71052380D02*
X89038095Y-71052380D01*
X89323809Y-71052380D02*
X89323809Y-70052380D01*
X89228571Y-70195238D01*
X89133333Y-70290476D01*
X89038095Y-70338095D01*
X90561904Y-71052380D02*
X89990476Y-71052380D01*
X90276190Y-71052380D02*
X90276190Y-70052380D01*
X90180952Y-70195238D01*
X90085714Y-70290476D01*
X89990476Y-70338095D01*
%TO.C,D1*%
X116252380Y-71538095D02*
X115252380Y-71538095D01*
X115252380Y-71300000D01*
X115300000Y-71157142D01*
X115395238Y-71061904D01*
X115490476Y-71014285D01*
X115680952Y-70966666D01*
X115823809Y-70966666D01*
X116014285Y-71014285D01*
X116109523Y-71061904D01*
X116204761Y-71157142D01*
X116252380Y-71300000D01*
X116252380Y-71538095D01*
X116252380Y-70014285D02*
X116252380Y-70585714D01*
X116252380Y-70300000D02*
X115252380Y-70300000D01*
X115395238Y-70395238D01*
X115490476Y-70490476D01*
X115538095Y-70585714D01*
%TO.C,K1*%
X70261904Y-78752380D02*
X70261904Y-77752380D01*
X70833333Y-78752380D02*
X70404761Y-78180952D01*
X70833333Y-77752380D02*
X70261904Y-78323809D01*
X71785714Y-78752380D02*
X71214285Y-78752380D01*
X71500000Y-78752380D02*
X71500000Y-77752380D01*
X71404761Y-77895238D01*
X71309523Y-77990476D01*
X71214285Y-78038095D01*
%TO.C,D2*%
X67761904Y-86052380D02*
X67761904Y-85052380D01*
X68000000Y-85052380D01*
X68142857Y-85100000D01*
X68238095Y-85195238D01*
X68285714Y-85290476D01*
X68333333Y-85480952D01*
X68333333Y-85623809D01*
X68285714Y-85814285D01*
X68238095Y-85909523D01*
X68142857Y-86004761D01*
X68000000Y-86052380D01*
X67761904Y-86052380D01*
X68714285Y-85147619D02*
X68761904Y-85100000D01*
X68857142Y-85052380D01*
X69095238Y-85052380D01*
X69190476Y-85100000D01*
X69238095Y-85147619D01*
X69285714Y-85242857D01*
X69285714Y-85338095D01*
X69238095Y-85480952D01*
X68666666Y-86052380D01*
X69285714Y-86052380D01*
X62438095Y-86652380D02*
X62438095Y-85652380D01*
X63009523Y-86652380D02*
X62580952Y-86080952D01*
X63009523Y-85652380D02*
X62438095Y-86223809D01*
%TO.C,C22*%
X117757142Y-65227142D02*
X117709523Y-65274761D01*
X117566666Y-65322380D01*
X117471428Y-65322380D01*
X117328571Y-65274761D01*
X117233333Y-65179523D01*
X117185714Y-65084285D01*
X117138095Y-64893809D01*
X117138095Y-64750952D01*
X117185714Y-64560476D01*
X117233333Y-64465238D01*
X117328571Y-64370000D01*
X117471428Y-64322380D01*
X117566666Y-64322380D01*
X117709523Y-64370000D01*
X117757142Y-64417619D01*
X118138095Y-64417619D02*
X118185714Y-64370000D01*
X118280952Y-64322380D01*
X118519047Y-64322380D01*
X118614285Y-64370000D01*
X118661904Y-64417619D01*
X118709523Y-64512857D01*
X118709523Y-64608095D01*
X118661904Y-64750952D01*
X118090476Y-65322380D01*
X118709523Y-65322380D01*
X119090476Y-64417619D02*
X119138095Y-64370000D01*
X119233333Y-64322380D01*
X119471428Y-64322380D01*
X119566666Y-64370000D01*
X119614285Y-64417619D01*
X119661904Y-64512857D01*
X119661904Y-64608095D01*
X119614285Y-64750952D01*
X119042857Y-65322380D01*
X119661904Y-65322380D01*
%TO.C,C14*%
X107557142Y-92942857D02*
X107604761Y-92990476D01*
X107652380Y-93133333D01*
X107652380Y-93228571D01*
X107604761Y-93371428D01*
X107509523Y-93466666D01*
X107414285Y-93514285D01*
X107223809Y-93561904D01*
X107080952Y-93561904D01*
X106890476Y-93514285D01*
X106795238Y-93466666D01*
X106700000Y-93371428D01*
X106652380Y-93228571D01*
X106652380Y-93133333D01*
X106700000Y-92990476D01*
X106747619Y-92942857D01*
X107652380Y-91990476D02*
X107652380Y-92561904D01*
X107652380Y-92276190D02*
X106652380Y-92276190D01*
X106795238Y-92371428D01*
X106890476Y-92466666D01*
X106938095Y-92561904D01*
X106985714Y-91133333D02*
X107652380Y-91133333D01*
X106604761Y-91371428D02*
X107319047Y-91609523D01*
X107319047Y-90990476D01*
%TO.C,C21*%
X116357142Y-79542857D02*
X116404761Y-79590476D01*
X116452380Y-79733333D01*
X116452380Y-79828571D01*
X116404761Y-79971428D01*
X116309523Y-80066666D01*
X116214285Y-80114285D01*
X116023809Y-80161904D01*
X115880952Y-80161904D01*
X115690476Y-80114285D01*
X115595238Y-80066666D01*
X115500000Y-79971428D01*
X115452380Y-79828571D01*
X115452380Y-79733333D01*
X115500000Y-79590476D01*
X115547619Y-79542857D01*
X115547619Y-79161904D02*
X115500000Y-79114285D01*
X115452380Y-79019047D01*
X115452380Y-78780952D01*
X115500000Y-78685714D01*
X115547619Y-78638095D01*
X115642857Y-78590476D01*
X115738095Y-78590476D01*
X115880952Y-78638095D01*
X116452380Y-79209523D01*
X116452380Y-78590476D01*
X116452380Y-77638095D02*
X116452380Y-78209523D01*
X116452380Y-77923809D02*
X115452380Y-77923809D01*
X115595238Y-78019047D01*
X115690476Y-78114285D01*
X115738095Y-78209523D01*
%TO.C,C18*%
X115157142Y-92042857D02*
X115204761Y-92090476D01*
X115252380Y-92233333D01*
X115252380Y-92328571D01*
X115204761Y-92471428D01*
X115109523Y-92566666D01*
X115014285Y-92614285D01*
X114823809Y-92661904D01*
X114680952Y-92661904D01*
X114490476Y-92614285D01*
X114395238Y-92566666D01*
X114300000Y-92471428D01*
X114252380Y-92328571D01*
X114252380Y-92233333D01*
X114300000Y-92090476D01*
X114347619Y-92042857D01*
X115252380Y-91090476D02*
X115252380Y-91661904D01*
X115252380Y-91376190D02*
X114252380Y-91376190D01*
X114395238Y-91471428D01*
X114490476Y-91566666D01*
X114538095Y-91661904D01*
X114680952Y-90519047D02*
X114633333Y-90614285D01*
X114585714Y-90661904D01*
X114490476Y-90709523D01*
X114442857Y-90709523D01*
X114347619Y-90661904D01*
X114300000Y-90614285D01*
X114252380Y-90519047D01*
X114252380Y-90328571D01*
X114300000Y-90233333D01*
X114347619Y-90185714D01*
X114442857Y-90138095D01*
X114490476Y-90138095D01*
X114585714Y-90185714D01*
X114633333Y-90233333D01*
X114680952Y-90328571D01*
X114680952Y-90519047D01*
X114728571Y-90614285D01*
X114776190Y-90661904D01*
X114871428Y-90709523D01*
X115061904Y-90709523D01*
X115157142Y-90661904D01*
X115204761Y-90614285D01*
X115252380Y-90519047D01*
X115252380Y-90328571D01*
X115204761Y-90233333D01*
X115157142Y-90185714D01*
X115061904Y-90138095D01*
X114871428Y-90138095D01*
X114776190Y-90185714D01*
X114728571Y-90233333D01*
X114680952Y-90328571D01*
%TO.C,C5*%
X65184142Y-92212666D02*
X65231761Y-92260285D01*
X65279380Y-92403142D01*
X65279380Y-92498380D01*
X65231761Y-92641238D01*
X65136523Y-92736476D01*
X65041285Y-92784095D01*
X64850809Y-92831714D01*
X64707952Y-92831714D01*
X64517476Y-92784095D01*
X64422238Y-92736476D01*
X64327000Y-92641238D01*
X64279380Y-92498380D01*
X64279380Y-92403142D01*
X64327000Y-92260285D01*
X64374619Y-92212666D01*
X64279380Y-91307904D02*
X64279380Y-91784095D01*
X64755571Y-91831714D01*
X64707952Y-91784095D01*
X64660333Y-91688857D01*
X64660333Y-91450761D01*
X64707952Y-91355523D01*
X64755571Y-91307904D01*
X64850809Y-91260285D01*
X65088904Y-91260285D01*
X65184142Y-91307904D01*
X65231761Y-91355523D01*
X65279380Y-91450761D01*
X65279380Y-91688857D01*
X65231761Y-91784095D01*
X65184142Y-91831714D01*
%TO.C,C13*%
X104957142Y-68142857D02*
X105004761Y-68190476D01*
X105052380Y-68333333D01*
X105052380Y-68428571D01*
X105004761Y-68571428D01*
X104909523Y-68666666D01*
X104814285Y-68714285D01*
X104623809Y-68761904D01*
X104480952Y-68761904D01*
X104290476Y-68714285D01*
X104195238Y-68666666D01*
X104100000Y-68571428D01*
X104052380Y-68428571D01*
X104052380Y-68333333D01*
X104100000Y-68190476D01*
X104147619Y-68142857D01*
X105052380Y-67190476D02*
X105052380Y-67761904D01*
X105052380Y-67476190D02*
X104052380Y-67476190D01*
X104195238Y-67571428D01*
X104290476Y-67666666D01*
X104338095Y-67761904D01*
X104052380Y-66857142D02*
X104052380Y-66238095D01*
X104433333Y-66571428D01*
X104433333Y-66428571D01*
X104480952Y-66333333D01*
X104528571Y-66285714D01*
X104623809Y-66238095D01*
X104861904Y-66238095D01*
X104957142Y-66285714D01*
X105004761Y-66333333D01*
X105052380Y-66428571D01*
X105052380Y-66714285D01*
X105004761Y-66809523D01*
X104957142Y-66857142D01*
%TO.C,R6*%
X73033333Y-96752380D02*
X72700000Y-96276190D01*
X72461904Y-96752380D02*
X72461904Y-95752380D01*
X72842857Y-95752380D01*
X72938095Y-95800000D01*
X72985714Y-95847619D01*
X73033333Y-95942857D01*
X73033333Y-96085714D01*
X72985714Y-96180952D01*
X72938095Y-96228571D01*
X72842857Y-96276190D01*
X72461904Y-96276190D01*
X73890476Y-95752380D02*
X73700000Y-95752380D01*
X73604761Y-95800000D01*
X73557142Y-95847619D01*
X73461904Y-95990476D01*
X73414285Y-96180952D01*
X73414285Y-96561904D01*
X73461904Y-96657142D01*
X73509523Y-96704761D01*
X73604761Y-96752380D01*
X73795238Y-96752380D01*
X73890476Y-96704761D01*
X73938095Y-96657142D01*
X73985714Y-96561904D01*
X73985714Y-96323809D01*
X73938095Y-96228571D01*
X73890476Y-96180952D01*
X73795238Y-96133333D01*
X73604761Y-96133333D01*
X73509523Y-96180952D01*
X73461904Y-96228571D01*
X73414285Y-96323809D01*
%TO.C,J12*%
X112220476Y-72560380D02*
X112220476Y-73274666D01*
X112172857Y-73417523D01*
X112077619Y-73512761D01*
X111934761Y-73560380D01*
X111839523Y-73560380D01*
X113220476Y-73560380D02*
X112649047Y-73560380D01*
X112934761Y-73560380D02*
X112934761Y-72560380D01*
X112839523Y-72703238D01*
X112744285Y-72798476D01*
X112649047Y-72846095D01*
X113601428Y-72655619D02*
X113649047Y-72608000D01*
X113744285Y-72560380D01*
X113982380Y-72560380D01*
X114077619Y-72608000D01*
X114125238Y-72655619D01*
X114172857Y-72750857D01*
X114172857Y-72846095D01*
X114125238Y-72988952D01*
X113553809Y-73560380D01*
X114172857Y-73560380D01*
%TO.C,R8*%
X98052380Y-68766666D02*
X97576190Y-69100000D01*
X98052380Y-69338095D02*
X97052380Y-69338095D01*
X97052380Y-68957142D01*
X97100000Y-68861904D01*
X97147619Y-68814285D01*
X97242857Y-68766666D01*
X97385714Y-68766666D01*
X97480952Y-68814285D01*
X97528571Y-68861904D01*
X97576190Y-68957142D01*
X97576190Y-69338095D01*
X97480952Y-68195238D02*
X97433333Y-68290476D01*
X97385714Y-68338095D01*
X97290476Y-68385714D01*
X97242857Y-68385714D01*
X97147619Y-68338095D01*
X97100000Y-68290476D01*
X97052380Y-68195238D01*
X97052380Y-68004761D01*
X97100000Y-67909523D01*
X97147619Y-67861904D01*
X97242857Y-67814285D01*
X97290476Y-67814285D01*
X97385714Y-67861904D01*
X97433333Y-67909523D01*
X97480952Y-68004761D01*
X97480952Y-68195238D01*
X97528571Y-68290476D01*
X97576190Y-68338095D01*
X97671428Y-68385714D01*
X97861904Y-68385714D01*
X97957142Y-68338095D01*
X98004761Y-68290476D01*
X98052380Y-68195238D01*
X98052380Y-68004761D01*
X98004761Y-67909523D01*
X97957142Y-67861904D01*
X97861904Y-67814285D01*
X97671428Y-67814285D01*
X97576190Y-67861904D01*
X97528571Y-67909523D01*
X97480952Y-68004761D01*
%TO.C,U5*%
X99952380Y-78161904D02*
X100761904Y-78161904D01*
X100857142Y-78114285D01*
X100904761Y-78066666D01*
X100952380Y-77971428D01*
X100952380Y-77780952D01*
X100904761Y-77685714D01*
X100857142Y-77638095D01*
X100761904Y-77590476D01*
X99952380Y-77590476D01*
X99952380Y-76638095D02*
X99952380Y-77114285D01*
X100428571Y-77161904D01*
X100380952Y-77114285D01*
X100333333Y-77019047D01*
X100333333Y-76780952D01*
X100380952Y-76685714D01*
X100428571Y-76638095D01*
X100523809Y-76590476D01*
X100761904Y-76590476D01*
X100857142Y-76638095D01*
X100904761Y-76685714D01*
X100952380Y-76780952D01*
X100952380Y-77019047D01*
X100904761Y-77114285D01*
X100857142Y-77161904D01*
D11*
%TO.C,L1*%
X101316666Y-66226190D02*
X101078571Y-66226190D01*
X101078571Y-65726190D01*
X101745238Y-66226190D02*
X101459523Y-66226190D01*
X101602380Y-66226190D02*
X101602380Y-65726190D01*
X101554761Y-65797619D01*
X101507142Y-65845238D01*
X101459523Y-65869047D01*
D10*
%TO.C,R15*%
X99357142Y-81852380D02*
X99023809Y-81376190D01*
X98785714Y-81852380D02*
X98785714Y-80852380D01*
X99166666Y-80852380D01*
X99261904Y-80900000D01*
X99309523Y-80947619D01*
X99357142Y-81042857D01*
X99357142Y-81185714D01*
X99309523Y-81280952D01*
X99261904Y-81328571D01*
X99166666Y-81376190D01*
X98785714Y-81376190D01*
X100309523Y-81852380D02*
X99738095Y-81852380D01*
X100023809Y-81852380D02*
X100023809Y-80852380D01*
X99928571Y-80995238D01*
X99833333Y-81090476D01*
X99738095Y-81138095D01*
X101214285Y-80852380D02*
X100738095Y-80852380D01*
X100690476Y-81328571D01*
X100738095Y-81280952D01*
X100833333Y-81233333D01*
X101071428Y-81233333D01*
X101166666Y-81280952D01*
X101214285Y-81328571D01*
X101261904Y-81423809D01*
X101261904Y-81661904D01*
X101214285Y-81757142D01*
X101166666Y-81804761D01*
X101071428Y-81852380D01*
X100833333Y-81852380D01*
X100738095Y-81804761D01*
X100690476Y-81757142D01*
%TO.C,R12*%
X80557142Y-89852380D02*
X80223809Y-89376190D01*
X79985714Y-89852380D02*
X79985714Y-88852380D01*
X80366666Y-88852380D01*
X80461904Y-88900000D01*
X80509523Y-88947619D01*
X80557142Y-89042857D01*
X80557142Y-89185714D01*
X80509523Y-89280952D01*
X80461904Y-89328571D01*
X80366666Y-89376190D01*
X79985714Y-89376190D01*
X81509523Y-89852380D02*
X80938095Y-89852380D01*
X81223809Y-89852380D02*
X81223809Y-88852380D01*
X81128571Y-88995238D01*
X81033333Y-89090476D01*
X80938095Y-89138095D01*
X81890476Y-88947619D02*
X81938095Y-88900000D01*
X82033333Y-88852380D01*
X82271428Y-88852380D01*
X82366666Y-88900000D01*
X82414285Y-88947619D01*
X82461904Y-89042857D01*
X82461904Y-89138095D01*
X82414285Y-89280952D01*
X81842857Y-89852380D01*
X82461904Y-89852380D01*
%TO.C,Q1*%
X68204761Y-88147619D02*
X68109523Y-88100000D01*
X68014285Y-88004761D01*
X67871428Y-87861904D01*
X67776190Y-87814285D01*
X67680952Y-87814285D01*
X67728571Y-88052380D02*
X67633333Y-88004761D01*
X67538095Y-87909523D01*
X67490476Y-87719047D01*
X67490476Y-87385714D01*
X67538095Y-87195238D01*
X67633333Y-87100000D01*
X67728571Y-87052380D01*
X67919047Y-87052380D01*
X68014285Y-87100000D01*
X68109523Y-87195238D01*
X68157142Y-87385714D01*
X68157142Y-87719047D01*
X68109523Y-87909523D01*
X68014285Y-88004761D01*
X67919047Y-88052380D01*
X67728571Y-88052380D01*
X69109523Y-88052380D02*
X68538095Y-88052380D01*
X68823809Y-88052380D02*
X68823809Y-87052380D01*
X68728571Y-87195238D01*
X68633333Y-87290476D01*
X68538095Y-87338095D01*
%TO.C,R14*%
X97057142Y-71252380D02*
X96723809Y-70776190D01*
X96485714Y-71252380D02*
X96485714Y-70252380D01*
X96866666Y-70252380D01*
X96961904Y-70300000D01*
X97009523Y-70347619D01*
X97057142Y-70442857D01*
X97057142Y-70585714D01*
X97009523Y-70680952D01*
X96961904Y-70728571D01*
X96866666Y-70776190D01*
X96485714Y-70776190D01*
X98009523Y-71252380D02*
X97438095Y-71252380D01*
X97723809Y-71252380D02*
X97723809Y-70252380D01*
X97628571Y-70395238D01*
X97533333Y-70490476D01*
X97438095Y-70538095D01*
X98866666Y-70585714D02*
X98866666Y-71252380D01*
X98628571Y-70204761D02*
X98390476Y-70919047D01*
X99009523Y-70919047D01*
%TO.C,R5*%
X80622380Y-83328166D02*
X80146190Y-83661500D01*
X80622380Y-83899595D02*
X79622380Y-83899595D01*
X79622380Y-83518642D01*
X79670000Y-83423404D01*
X79717619Y-83375785D01*
X79812857Y-83328166D01*
X79955714Y-83328166D01*
X80050952Y-83375785D01*
X80098571Y-83423404D01*
X80146190Y-83518642D01*
X80146190Y-83899595D01*
X79622380Y-82423404D02*
X79622380Y-82899595D01*
X80098571Y-82947214D01*
X80050952Y-82899595D01*
X80003333Y-82804357D01*
X80003333Y-82566261D01*
X80050952Y-82471023D01*
X80098571Y-82423404D01*
X80193809Y-82375785D01*
X80431904Y-82375785D01*
X80527142Y-82423404D01*
X80574761Y-82471023D01*
X80622380Y-82566261D01*
X80622380Y-82804357D01*
X80574761Y-82899595D01*
X80527142Y-82947214D01*
%TO.C,J3*%
X75266666Y-72122380D02*
X75266666Y-72836666D01*
X75219047Y-72979523D01*
X75123809Y-73074761D01*
X74980952Y-73122380D01*
X74885714Y-73122380D01*
X75647619Y-72122380D02*
X76266666Y-72122380D01*
X75933333Y-72503333D01*
X76076190Y-72503333D01*
X76171428Y-72550952D01*
X76219047Y-72598571D01*
X76266666Y-72693809D01*
X76266666Y-72931904D01*
X76219047Y-73027142D01*
X76171428Y-73074761D01*
X76076190Y-73122380D01*
X75790476Y-73122380D01*
X75695238Y-73074761D01*
X75647619Y-73027142D01*
D12*
%TO.C,J2*%
X61648391Y-90421898D02*
X62014448Y-90421898D01*
X62087659Y-90446302D01*
X62136467Y-90495110D01*
X62160871Y-90568321D01*
X62160871Y-90617129D01*
X61697198Y-90202264D02*
X61672795Y-90177860D01*
X61648391Y-90129052D01*
X61648391Y-90007033D01*
X61672795Y-89958226D01*
X61697198Y-89933822D01*
X61746006Y-89909418D01*
X61794814Y-89909418D01*
X61868025Y-89933822D01*
X62160871Y-90226668D01*
X62160871Y-89909418D01*
D10*
%TO.C,c19*%
X111685714Y-80804761D02*
X111590476Y-80852380D01*
X111400000Y-80852380D01*
X111304761Y-80804761D01*
X111257142Y-80757142D01*
X111209523Y-80661904D01*
X111209523Y-80376190D01*
X111257142Y-80280952D01*
X111304761Y-80233333D01*
X111400000Y-80185714D01*
X111590476Y-80185714D01*
X111685714Y-80233333D01*
X112638095Y-80852380D02*
X112066666Y-80852380D01*
X112352380Y-80852380D02*
X112352380Y-79852380D01*
X112257142Y-79995238D01*
X112161904Y-80090476D01*
X112066666Y-80138095D01*
X113114285Y-80852380D02*
X113304761Y-80852380D01*
X113400000Y-80804761D01*
X113447619Y-80757142D01*
X113542857Y-80614285D01*
X113590476Y-80423809D01*
X113590476Y-80042857D01*
X113542857Y-79947619D01*
X113495238Y-79900000D01*
X113400000Y-79852380D01*
X113209523Y-79852380D01*
X113114285Y-79900000D01*
X113066666Y-79947619D01*
X113019047Y-80042857D01*
X113019047Y-80280952D01*
X113066666Y-80376190D01*
X113114285Y-80423809D01*
X113209523Y-80471428D01*
X113400000Y-80471428D01*
X113495238Y-80423809D01*
X113542857Y-80376190D01*
X113590476Y-80280952D01*
%TO.C,R10*%
X83057142Y-83681380D02*
X82723809Y-83205190D01*
X82485714Y-83681380D02*
X82485714Y-82681380D01*
X82866666Y-82681380D01*
X82961904Y-82729000D01*
X83009523Y-82776619D01*
X83057142Y-82871857D01*
X83057142Y-83014714D01*
X83009523Y-83109952D01*
X82961904Y-83157571D01*
X82866666Y-83205190D01*
X82485714Y-83205190D01*
X84009523Y-83681380D02*
X83438095Y-83681380D01*
X83723809Y-83681380D02*
X83723809Y-82681380D01*
X83628571Y-82824238D01*
X83533333Y-82919476D01*
X83438095Y-82967095D01*
X84628571Y-82681380D02*
X84723809Y-82681380D01*
X84819047Y-82729000D01*
X84866666Y-82776619D01*
X84914285Y-82871857D01*
X84961904Y-83062333D01*
X84961904Y-83300428D01*
X84914285Y-83490904D01*
X84866666Y-83586142D01*
X84819047Y-83633761D01*
X84723809Y-83681380D01*
X84628571Y-83681380D01*
X84533333Y-83633761D01*
X84485714Y-83586142D01*
X84438095Y-83490904D01*
X84390476Y-83300428D01*
X84390476Y-83062333D01*
X84438095Y-82871857D01*
X84485714Y-82776619D01*
X84533333Y-82729000D01*
X84628571Y-82681380D01*
%TO.C,C8*%
X71224142Y-91252666D02*
X71271761Y-91300285D01*
X71319380Y-91443142D01*
X71319380Y-91538380D01*
X71271761Y-91681238D01*
X71176523Y-91776476D01*
X71081285Y-91824095D01*
X70890809Y-91871714D01*
X70747952Y-91871714D01*
X70557476Y-91824095D01*
X70462238Y-91776476D01*
X70367000Y-91681238D01*
X70319380Y-91538380D01*
X70319380Y-91443142D01*
X70367000Y-91300285D01*
X70414619Y-91252666D01*
X70747952Y-90681238D02*
X70700333Y-90776476D01*
X70652714Y-90824095D01*
X70557476Y-90871714D01*
X70509857Y-90871714D01*
X70414619Y-90824095D01*
X70367000Y-90776476D01*
X70319380Y-90681238D01*
X70319380Y-90490761D01*
X70367000Y-90395523D01*
X70414619Y-90347904D01*
X70509857Y-90300285D01*
X70557476Y-90300285D01*
X70652714Y-90347904D01*
X70700333Y-90395523D01*
X70747952Y-90490761D01*
X70747952Y-90681238D01*
X70795571Y-90776476D01*
X70843190Y-90824095D01*
X70938428Y-90871714D01*
X71128904Y-90871714D01*
X71224142Y-90824095D01*
X71271761Y-90776476D01*
X71319380Y-90681238D01*
X71319380Y-90490761D01*
X71271761Y-90395523D01*
X71224142Y-90347904D01*
X71128904Y-90300285D01*
X70938428Y-90300285D01*
X70843190Y-90347904D01*
X70795571Y-90395523D01*
X70747952Y-90490761D01*
%TO.C,U3*%
X91652380Y-76661904D02*
X92461904Y-76661904D01*
X92557142Y-76614285D01*
X92604761Y-76566666D01*
X92652380Y-76471428D01*
X92652380Y-76280952D01*
X92604761Y-76185714D01*
X92557142Y-76138095D01*
X92461904Y-76090476D01*
X91652380Y-76090476D01*
X91652380Y-75709523D02*
X91652380Y-75090476D01*
X92033333Y-75423809D01*
X92033333Y-75280952D01*
X92080952Y-75185714D01*
X92128571Y-75138095D01*
X92223809Y-75090476D01*
X92461904Y-75090476D01*
X92557142Y-75138095D01*
X92604761Y-75185714D01*
X92652380Y-75280952D01*
X92652380Y-75566666D01*
X92604761Y-75661904D01*
X92557142Y-75709523D01*
%TO.C,J5*%
X84946666Y-72162380D02*
X84946666Y-72876666D01*
X84899047Y-73019523D01*
X84803809Y-73114761D01*
X84660952Y-73162380D01*
X84565714Y-73162380D01*
X85899047Y-72162380D02*
X85422857Y-72162380D01*
X85375238Y-72638571D01*
X85422857Y-72590952D01*
X85518095Y-72543333D01*
X85756190Y-72543333D01*
X85851428Y-72590952D01*
X85899047Y-72638571D01*
X85946666Y-72733809D01*
X85946666Y-72971904D01*
X85899047Y-73067142D01*
X85851428Y-73114761D01*
X85756190Y-73162380D01*
X85518095Y-73162380D01*
X85422857Y-73114761D01*
X85375238Y-73067142D01*
%TO.C,J1*%
X59102666Y-72092380D02*
X59102666Y-72806666D01*
X59055047Y-72949523D01*
X58959809Y-73044761D01*
X58816952Y-73092380D01*
X58721714Y-73092380D01*
X60102666Y-73092380D02*
X59531238Y-73092380D01*
X59816952Y-73092380D02*
X59816952Y-72092380D01*
X59721714Y-72235238D01*
X59626476Y-72330476D01*
X59531238Y-72378095D01*
X57257142Y-77357142D02*
X57304761Y-77404761D01*
X57352380Y-77547619D01*
X57352380Y-77642857D01*
X57304761Y-77785714D01*
X57209523Y-77880952D01*
X57114285Y-77928571D01*
X56923809Y-77976190D01*
X56780952Y-77976190D01*
X56590476Y-77928571D01*
X56495238Y-77880952D01*
X56400000Y-77785714D01*
X56352380Y-77642857D01*
X56352380Y-77547619D01*
X56400000Y-77404761D01*
X56447619Y-77357142D01*
X57352380Y-76928571D02*
X56352380Y-76928571D01*
X57352380Y-76500000D02*
X56828571Y-76500000D01*
X56733333Y-76547619D01*
X56685714Y-76642857D01*
X56685714Y-76785714D01*
X56733333Y-76880952D01*
X56780952Y-76928571D01*
X57352380Y-75595238D02*
X56828571Y-75595238D01*
X56733333Y-75642857D01*
X56685714Y-75738095D01*
X56685714Y-75928571D01*
X56733333Y-76023809D01*
X57304761Y-75595238D02*
X57352380Y-75690476D01*
X57352380Y-75928571D01*
X57304761Y-76023809D01*
X57209523Y-76071428D01*
X57114285Y-76071428D01*
X57019047Y-76023809D01*
X56971428Y-75928571D01*
X56971428Y-75690476D01*
X56923809Y-75595238D01*
X56685714Y-75119047D02*
X57352380Y-75119047D01*
X56780952Y-75119047D02*
X56733333Y-75071428D01*
X56685714Y-74976190D01*
X56685714Y-74833333D01*
X56733333Y-74738095D01*
X56828571Y-74690476D01*
X57352380Y-74690476D01*
X57304761Y-73833333D02*
X57352380Y-73928571D01*
X57352380Y-74119047D01*
X57304761Y-74214285D01*
X57209523Y-74261904D01*
X56828571Y-74261904D01*
X56733333Y-74214285D01*
X56685714Y-74119047D01*
X56685714Y-73928571D01*
X56733333Y-73833333D01*
X56828571Y-73785714D01*
X56923809Y-73785714D01*
X57019047Y-74261904D01*
X57352380Y-73214285D02*
X57304761Y-73309523D01*
X57209523Y-73357142D01*
X56352380Y-73357142D01*
X57352380Y-71547619D02*
X57352380Y-72119047D01*
X57352380Y-71833333D02*
X56352380Y-71833333D01*
X56495238Y-71928571D01*
X56590476Y-72023809D01*
X56638095Y-72119047D01*
X57352380Y-70357142D02*
X56685714Y-70357142D01*
X56352380Y-70357142D02*
X56400000Y-70404761D01*
X56447619Y-70357142D01*
X56400000Y-70309523D01*
X56352380Y-70357142D01*
X56447619Y-70357142D01*
X56685714Y-69880952D02*
X57352380Y-69880952D01*
X56780952Y-69880952D02*
X56733333Y-69833333D01*
X56685714Y-69738095D01*
X56685714Y-69595238D01*
X56733333Y-69500000D01*
X56828571Y-69452380D01*
X57352380Y-69452380D01*
X56685714Y-68976190D02*
X57685714Y-68976190D01*
X56733333Y-68976190D02*
X56685714Y-68880952D01*
X56685714Y-68690476D01*
X56733333Y-68595238D01*
X56780952Y-68547619D01*
X56876190Y-68500000D01*
X57161904Y-68500000D01*
X57257142Y-68547619D01*
X57304761Y-68595238D01*
X57352380Y-68690476D01*
X57352380Y-68880952D01*
X57304761Y-68976190D01*
X56685714Y-67642857D02*
X57352380Y-67642857D01*
X56685714Y-68071428D02*
X57209523Y-68071428D01*
X57304761Y-68023809D01*
X57352380Y-67928571D01*
X57352380Y-67785714D01*
X57304761Y-67690476D01*
X57257142Y-67642857D01*
X56685714Y-67309523D02*
X56685714Y-66928571D01*
X56352380Y-67166666D02*
X57209523Y-67166666D01*
X57304761Y-67119047D01*
X57352380Y-67023809D01*
X57352380Y-66928571D01*
%TO.C,C20*%
X108957142Y-71957142D02*
X108909523Y-72004761D01*
X108766666Y-72052380D01*
X108671428Y-72052380D01*
X108528571Y-72004761D01*
X108433333Y-71909523D01*
X108385714Y-71814285D01*
X108338095Y-71623809D01*
X108338095Y-71480952D01*
X108385714Y-71290476D01*
X108433333Y-71195238D01*
X108528571Y-71100000D01*
X108671428Y-71052380D01*
X108766666Y-71052380D01*
X108909523Y-71100000D01*
X108957142Y-71147619D01*
X109338095Y-71147619D02*
X109385714Y-71100000D01*
X109480952Y-71052380D01*
X109719047Y-71052380D01*
X109814285Y-71100000D01*
X109861904Y-71147619D01*
X109909523Y-71242857D01*
X109909523Y-71338095D01*
X109861904Y-71480952D01*
X109290476Y-72052380D01*
X109909523Y-72052380D01*
X110528571Y-71052380D02*
X110623809Y-71052380D01*
X110719047Y-71100000D01*
X110766666Y-71147619D01*
X110814285Y-71242857D01*
X110861904Y-71433333D01*
X110861904Y-71671428D01*
X110814285Y-71861904D01*
X110766666Y-71957142D01*
X110719047Y-72004761D01*
X110623809Y-72052380D01*
X110528571Y-72052380D01*
X110433333Y-72004761D01*
X110385714Y-71957142D01*
X110338095Y-71861904D01*
X110290476Y-71671428D01*
X110290476Y-71433333D01*
X110338095Y-71242857D01*
X110385714Y-71147619D01*
X110433333Y-71100000D01*
X110528571Y-71052380D01*
%TO.C,J11*%
X79790476Y-66752380D02*
X79790476Y-67466666D01*
X79742857Y-67609523D01*
X79647619Y-67704761D01*
X79504761Y-67752380D01*
X79409523Y-67752380D01*
X80790476Y-67752380D02*
X80219047Y-67752380D01*
X80504761Y-67752380D02*
X80504761Y-66752380D01*
X80409523Y-66895238D01*
X80314285Y-66990476D01*
X80219047Y-67038095D01*
X81742857Y-67752380D02*
X81171428Y-67752380D01*
X81457142Y-67752380D02*
X81457142Y-66752380D01*
X81361904Y-66895238D01*
X81266666Y-66990476D01*
X81171428Y-67038095D01*
%TO.C,J10*%
X121090476Y-89252380D02*
X121090476Y-89966666D01*
X121042857Y-90109523D01*
X120947619Y-90204761D01*
X120804761Y-90252380D01*
X120709523Y-90252380D01*
X122090476Y-90252380D02*
X121519047Y-90252380D01*
X121804761Y-90252380D02*
X121804761Y-89252380D01*
X121709523Y-89395238D01*
X121614285Y-89490476D01*
X121519047Y-89538095D01*
X122709523Y-89252380D02*
X122804761Y-89252380D01*
X122900000Y-89300000D01*
X122947619Y-89347619D01*
X122995238Y-89442857D01*
X123042857Y-89633333D01*
X123042857Y-89871428D01*
X122995238Y-90061904D01*
X122947619Y-90157142D01*
X122900000Y-90204761D01*
X122804761Y-90252380D01*
X122709523Y-90252380D01*
X122614285Y-90204761D01*
X122566666Y-90157142D01*
X122519047Y-90061904D01*
X122471428Y-89871428D01*
X122471428Y-89633333D01*
X122519047Y-89442857D01*
X122566666Y-89347619D01*
X122614285Y-89300000D01*
X122709523Y-89252380D01*
%TO.C,R11*%
X96657142Y-82652380D02*
X96323809Y-82176190D01*
X96085714Y-82652380D02*
X96085714Y-81652380D01*
X96466666Y-81652380D01*
X96561904Y-81700000D01*
X96609523Y-81747619D01*
X96657142Y-81842857D01*
X96657142Y-81985714D01*
X96609523Y-82080952D01*
X96561904Y-82128571D01*
X96466666Y-82176190D01*
X96085714Y-82176190D01*
X97609523Y-82652380D02*
X97038095Y-82652380D01*
X97323809Y-82652380D02*
X97323809Y-81652380D01*
X97228571Y-81795238D01*
X97133333Y-81890476D01*
X97038095Y-81938095D01*
X98561904Y-82652380D02*
X97990476Y-82652380D01*
X98276190Y-82652380D02*
X98276190Y-81652380D01*
X98180952Y-81795238D01*
X98085714Y-81890476D01*
X97990476Y-81938095D01*
%TO.C,C6*%
X97733333Y-87986142D02*
X97685714Y-88033761D01*
X97542857Y-88081380D01*
X97447619Y-88081380D01*
X97304761Y-88033761D01*
X97209523Y-87938523D01*
X97161904Y-87843285D01*
X97114285Y-87652809D01*
X97114285Y-87509952D01*
X97161904Y-87319476D01*
X97209523Y-87224238D01*
X97304761Y-87129000D01*
X97447619Y-87081380D01*
X97542857Y-87081380D01*
X97685714Y-87129000D01*
X97733333Y-87176619D01*
X98590476Y-87081380D02*
X98400000Y-87081380D01*
X98304761Y-87129000D01*
X98257142Y-87176619D01*
X98161904Y-87319476D01*
X98114285Y-87509952D01*
X98114285Y-87890904D01*
X98161904Y-87986142D01*
X98209523Y-88033761D01*
X98304761Y-88081380D01*
X98495238Y-88081380D01*
X98590476Y-88033761D01*
X98638095Y-87986142D01*
X98685714Y-87890904D01*
X98685714Y-87652809D01*
X98638095Y-87557571D01*
X98590476Y-87509952D01*
X98495238Y-87462333D01*
X98304761Y-87462333D01*
X98209523Y-87509952D01*
X98161904Y-87557571D01*
X98114285Y-87652809D01*
%TO.C,J14*%
X112290476Y-63222380D02*
X112290476Y-63936666D01*
X112242857Y-64079523D01*
X112147619Y-64174761D01*
X112004761Y-64222380D01*
X111909523Y-64222380D01*
X113290476Y-64222380D02*
X112719047Y-64222380D01*
X113004761Y-64222380D02*
X113004761Y-63222380D01*
X112909523Y-63365238D01*
X112814285Y-63460476D01*
X112719047Y-63508095D01*
X114147619Y-63555714D02*
X114147619Y-64222380D01*
X113909523Y-63174761D02*
X113671428Y-63889047D01*
X114290476Y-63889047D01*
%TO.C,J9*%
X106866666Y-69352380D02*
X106866666Y-70066666D01*
X106819047Y-70209523D01*
X106723809Y-70304761D01*
X106580952Y-70352380D01*
X106485714Y-70352380D01*
X107390476Y-70352380D02*
X107580952Y-70352380D01*
X107676190Y-70304761D01*
X107723809Y-70257142D01*
X107819047Y-70114285D01*
X107866666Y-69923809D01*
X107866666Y-69542857D01*
X107819047Y-69447619D01*
X107771428Y-69400000D01*
X107676190Y-69352380D01*
X107485714Y-69352380D01*
X107390476Y-69400000D01*
X107342857Y-69447619D01*
X107295238Y-69542857D01*
X107295238Y-69780952D01*
X107342857Y-69876190D01*
X107390476Y-69923809D01*
X107485714Y-69971428D01*
X107676190Y-69971428D01*
X107771428Y-69923809D01*
X107819047Y-69876190D01*
X107866666Y-69780952D01*
%TO.C,J6*%
X77233666Y-87358380D02*
X77233666Y-88072666D01*
X77186047Y-88215523D01*
X77090809Y-88310761D01*
X76947952Y-88358380D01*
X76852714Y-88358380D01*
X78138428Y-87358380D02*
X77947952Y-87358380D01*
X77852714Y-87406000D01*
X77805095Y-87453619D01*
X77709857Y-87596476D01*
X77662238Y-87786952D01*
X77662238Y-88167904D01*
X77709857Y-88263142D01*
X77757476Y-88310761D01*
X77852714Y-88358380D01*
X78043190Y-88358380D01*
X78138428Y-88310761D01*
X78186047Y-88263142D01*
X78233666Y-88167904D01*
X78233666Y-87929809D01*
X78186047Y-87834571D01*
X78138428Y-87786952D01*
X78043190Y-87739333D01*
X77852714Y-87739333D01*
X77757476Y-87786952D01*
X77709857Y-87834571D01*
X77662238Y-87929809D01*
%TO.C,U1*%
X88854095Y-92147380D02*
X88854095Y-92956904D01*
X88901714Y-93052142D01*
X88949333Y-93099761D01*
X89044571Y-93147380D01*
X89235047Y-93147380D01*
X89330285Y-93099761D01*
X89377904Y-93052142D01*
X89425523Y-92956904D01*
X89425523Y-92147380D01*
X90425523Y-93147380D02*
X89854095Y-93147380D01*
X90139809Y-93147380D02*
X90139809Y-92147380D01*
X90044571Y-92290238D01*
X89949333Y-92385476D01*
X89854095Y-92433095D01*
%TO.C,J13*%
X120094476Y-72542380D02*
X120094476Y-73256666D01*
X120046857Y-73399523D01*
X119951619Y-73494761D01*
X119808761Y-73542380D01*
X119713523Y-73542380D01*
X121094476Y-73542380D02*
X120523047Y-73542380D01*
X120808761Y-73542380D02*
X120808761Y-72542380D01*
X120713523Y-72685238D01*
X120618285Y-72780476D01*
X120523047Y-72828095D01*
X121427809Y-72542380D02*
X122046857Y-72542380D01*
X121713523Y-72923333D01*
X121856380Y-72923333D01*
X121951619Y-72970952D01*
X121999238Y-73018571D01*
X122046857Y-73113809D01*
X122046857Y-73351904D01*
X121999238Y-73447142D01*
X121951619Y-73494761D01*
X121856380Y-73542380D01*
X121570666Y-73542380D01*
X121475428Y-73494761D01*
X121427809Y-73447142D01*
%TO.C,C17*%
X103366142Y-72157142D02*
X103318523Y-72204761D01*
X103175666Y-72252380D01*
X103080428Y-72252380D01*
X102937571Y-72204761D01*
X102842333Y-72109523D01*
X102794714Y-72014285D01*
X102747095Y-71823809D01*
X102747095Y-71680952D01*
X102794714Y-71490476D01*
X102842333Y-71395238D01*
X102937571Y-71300000D01*
X103080428Y-71252380D01*
X103175666Y-71252380D01*
X103318523Y-71300000D01*
X103366142Y-71347619D01*
X104318523Y-72252380D02*
X103747095Y-72252380D01*
X104032809Y-72252380D02*
X104032809Y-71252380D01*
X103937571Y-71395238D01*
X103842333Y-71490476D01*
X103747095Y-71538095D01*
X104651857Y-71252380D02*
X105318523Y-71252380D01*
X104889952Y-72252380D01*
%TO.C,R9*%
X97533333Y-89581380D02*
X97200000Y-89105190D01*
X96961904Y-89581380D02*
X96961904Y-88581380D01*
X97342857Y-88581380D01*
X97438095Y-88629000D01*
X97485714Y-88676619D01*
X97533333Y-88771857D01*
X97533333Y-88914714D01*
X97485714Y-89009952D01*
X97438095Y-89057571D01*
X97342857Y-89105190D01*
X96961904Y-89105190D01*
X98009523Y-89581380D02*
X98200000Y-89581380D01*
X98295238Y-89533761D01*
X98342857Y-89486142D01*
X98438095Y-89343285D01*
X98485714Y-89152809D01*
X98485714Y-88771857D01*
X98438095Y-88676619D01*
X98390476Y-88629000D01*
X98295238Y-88581380D01*
X98104761Y-88581380D01*
X98009523Y-88629000D01*
X97961904Y-88676619D01*
X97914285Y-88771857D01*
X97914285Y-89009952D01*
X97961904Y-89105190D01*
X98009523Y-89152809D01*
X98104761Y-89200428D01*
X98295238Y-89200428D01*
X98390476Y-89152809D01*
X98438095Y-89105190D01*
X98485714Y-89009952D01*
%TO.C,C9*%
X81333333Y-88257142D02*
X81285714Y-88304761D01*
X81142857Y-88352380D01*
X81047619Y-88352380D01*
X80904761Y-88304761D01*
X80809523Y-88209523D01*
X80761904Y-88114285D01*
X80714285Y-87923809D01*
X80714285Y-87780952D01*
X80761904Y-87590476D01*
X80809523Y-87495238D01*
X80904761Y-87400000D01*
X81047619Y-87352380D01*
X81142857Y-87352380D01*
X81285714Y-87400000D01*
X81333333Y-87447619D01*
X81809523Y-88352380D02*
X82000000Y-88352380D01*
X82095238Y-88304761D01*
X82142857Y-88257142D01*
X82238095Y-88114285D01*
X82285714Y-87923809D01*
X82285714Y-87542857D01*
X82238095Y-87447619D01*
X82190476Y-87400000D01*
X82095238Y-87352380D01*
X81904761Y-87352380D01*
X81809523Y-87400000D01*
X81761904Y-87447619D01*
X81714285Y-87542857D01*
X81714285Y-87780952D01*
X81761904Y-87876190D01*
X81809523Y-87923809D01*
X81904761Y-87971428D01*
X82095238Y-87971428D01*
X82190476Y-87923809D01*
X82238095Y-87876190D01*
X82285714Y-87780952D01*
D13*
%TO.C,C12*%
X93479233Y-79250000D02*
X93771767Y-79250000D01*
X93479233Y-78230000D02*
X93771767Y-78230000D01*
%TO.C,U2*%
X77850000Y-77724000D02*
X77850000Y-79734000D01*
X82170000Y-79734000D02*
X81815000Y-79734000D01*
X77850000Y-75714000D02*
X78205000Y-75714000D01*
X82170000Y-75714000D02*
X81815000Y-75714000D01*
X77850000Y-77724000D02*
X77850000Y-75714000D01*
X82170000Y-77724000D02*
X82170000Y-79734000D01*
X82170000Y-77724000D02*
X82170000Y-75714000D01*
X78205000Y-79734000D02*
X78205000Y-81199000D01*
X77850000Y-79734000D02*
X78205000Y-79734000D01*
%TO.C,R7*%
X94721276Y-85687500D02*
X95230724Y-85687500D01*
X94721276Y-84642500D02*
X95230724Y-84642500D01*
%TO.C,C10*%
X74327000Y-90939733D02*
X74327000Y-91232267D01*
X73307000Y-90939733D02*
X73307000Y-91232267D01*
%TO.C,J7*%
X93940000Y-75050000D02*
X93940000Y-73720000D01*
X93940000Y-73720000D02*
X95270000Y-73720000D01*
X93940000Y-76380000D02*
X96600000Y-76380000D01*
X93940000Y-76320000D02*
X96600000Y-76320000D01*
X96600000Y-76320000D02*
X96600000Y-76380000D01*
X93940000Y-76320000D02*
X93940000Y-76380000D01*
%TO.C,R13*%
X98955776Y-75706500D02*
X99465224Y-75706500D01*
X98955776Y-74661500D02*
X99465224Y-74661500D01*
%TO.C,U6*%
X110614000Y-77630000D02*
X110614000Y-74680000D01*
X107394000Y-75830000D02*
X107394000Y-77630000D01*
%TO.C,C15*%
X111946267Y-86910000D02*
X111653733Y-86910000D01*
X111946267Y-85890000D02*
X111653733Y-85890000D01*
%TO.C,J4*%
X66385000Y-93256000D02*
X67715000Y-93256000D01*
X66385000Y-95856000D02*
X66385000Y-95916000D01*
X66385000Y-95916000D02*
X69045000Y-95916000D01*
X66385000Y-95856000D02*
X69045000Y-95856000D01*
X66385000Y-94586000D02*
X66385000Y-93256000D01*
X69045000Y-95856000D02*
X69045000Y-95916000D01*
%TO.C,GD1*%
X62230500Y-82259050D02*
X62230500Y-79800750D01*
X56769500Y-79800750D02*
X56769500Y-82259050D01*
%TO.C,J8*%
X102170000Y-90230000D02*
X104830000Y-90230000D01*
X102170000Y-90170000D02*
X104830000Y-90170000D01*
X102170000Y-88900000D02*
X102170000Y-87570000D01*
X104830000Y-90170000D02*
X104830000Y-90230000D01*
X102170000Y-90170000D02*
X102170000Y-90230000D01*
X102170000Y-87570000D02*
X103500000Y-87570000D01*
%TO.C,c16*%
X105176500Y-78964267D02*
X105176500Y-78671733D01*
X106196500Y-78964267D02*
X106196500Y-78671733D01*
%TO.C,R17*%
X116735776Y-75942500D02*
X117245224Y-75942500D01*
X116735776Y-74897500D02*
X117245224Y-74897500D01*
%TO.C,C7*%
X79763233Y-73662000D02*
X80055767Y-73662000D01*
X79763233Y-72642000D02*
X80055767Y-72642000D01*
%TO.C,R16*%
X102845276Y-79377500D02*
X103354724Y-79377500D01*
X102845276Y-80422500D02*
X103354724Y-80422500D01*
%TO.C,U4*%
X110800000Y-90610000D02*
X113750000Y-90610000D01*
X112600000Y-87390000D02*
X110800000Y-87390000D01*
%TO.C,C11*%
X90746267Y-72760000D02*
X90453733Y-72760000D01*
X90746267Y-71740000D02*
X90453733Y-71740000D01*
%TO.C,D1*%
X119760000Y-70800000D02*
X119760000Y-71450000D01*
X119760000Y-70800000D02*
X119760000Y-70150000D01*
X116640000Y-70800000D02*
X116640000Y-72475000D01*
X116640000Y-70800000D02*
X116640000Y-70150000D01*
%TO.C,K1*%
X63012500Y-63417500D02*
X63012500Y-84007500D01*
X73552500Y-82857500D02*
X73552500Y-84157500D01*
X73392500Y-84007500D02*
X73392500Y-63417500D01*
X67842500Y-82167500D02*
X66742500Y-82167500D01*
X67842500Y-81597500D02*
X67842500Y-82797500D01*
X67842500Y-82797500D02*
X68542500Y-82797500D01*
X68542500Y-82797500D02*
X68542500Y-81597500D01*
X69712500Y-84007500D02*
X69712500Y-82967500D01*
X68542500Y-82167500D02*
X69642500Y-82167500D01*
X73392500Y-63417500D02*
X63012500Y-63417500D01*
X63012500Y-84007500D02*
X73392500Y-84007500D01*
X68542500Y-81997500D02*
X67842500Y-82397500D01*
X69712500Y-82947500D02*
X66712500Y-82947500D01*
X73552500Y-84157500D02*
X72342500Y-84157500D01*
X66712500Y-82947500D02*
X66712500Y-84007500D01*
X68542500Y-81597500D02*
X67842500Y-81597500D01*
%TO.C,D2*%
X66810000Y-84480000D02*
X66810000Y-86720000D01*
X65440000Y-85600000D02*
X66090000Y-85600000D01*
X70980000Y-85600000D02*
X70330000Y-85600000D01*
X66930000Y-84480000D02*
X66930000Y-86720000D01*
X70330000Y-86720000D02*
X70330000Y-84480000D01*
X66090000Y-84480000D02*
X66090000Y-86720000D01*
X70330000Y-84480000D02*
X66090000Y-84480000D01*
X66090000Y-86720000D02*
X70330000Y-86720000D01*
X66690000Y-84480000D02*
X66690000Y-86720000D01*
%TO.C,C22*%
X118253733Y-65790000D02*
X118546267Y-65790000D01*
X118253733Y-66810000D02*
X118546267Y-66810000D01*
%TO.C,C14*%
X106890000Y-89246267D02*
X106890000Y-88953733D01*
X107910000Y-89246267D02*
X107910000Y-88953733D01*
%TO.C,C21*%
X117346000Y-77932233D02*
X117346000Y-78224767D01*
X118366000Y-77932233D02*
X118366000Y-78224767D01*
%TO.C,C18*%
X115410000Y-88308767D02*
X115410000Y-88016233D01*
X114390000Y-88308767D02*
X114390000Y-88016233D01*
%TO.C,C5*%
X63907000Y-91899733D02*
X63907000Y-92192267D01*
X62887000Y-91899733D02*
X62887000Y-92192267D01*
%TO.C,C13*%
X102590000Y-68146267D02*
X102590000Y-67853733D01*
X103610000Y-68146267D02*
X103610000Y-67853733D01*
%TO.C,R6*%
X72972276Y-94048500D02*
X73481724Y-94048500D01*
X72972276Y-93003500D02*
X73481724Y-93003500D01*
%TO.C,J12*%
X111700000Y-75438000D02*
X111700000Y-74108000D01*
X111700000Y-74108000D02*
X113030000Y-74108000D01*
X111700000Y-76768000D02*
X114360000Y-76768000D01*
X114360000Y-76708000D02*
X114360000Y-76768000D01*
X111700000Y-76708000D02*
X111700000Y-76768000D01*
X111700000Y-76708000D02*
X114360000Y-76708000D01*
%TO.C,R8*%
X100322500Y-68254724D02*
X100322500Y-67745276D01*
X99277500Y-68254724D02*
X99277500Y-67745276D01*
%TO.C,U5*%
X101436500Y-75644000D02*
X101436500Y-77444000D01*
X104656500Y-77444000D02*
X104656500Y-74994000D01*
%TO.C,L1*%
X100990000Y-67828733D02*
X100990000Y-68171267D01*
X102010000Y-67828733D02*
X102010000Y-68171267D01*
%TO.C,R15*%
X102869276Y-82056500D02*
X103378724Y-82056500D01*
X102869276Y-81011500D02*
X103378724Y-81011500D01*
%TO.C,R12*%
X84454724Y-90251500D02*
X83945276Y-90251500D01*
X84454724Y-89206500D02*
X83945276Y-89206500D01*
D14*
%TO.C,Q1*%
X66902000Y-88901000D02*
X66127000Y-88901000D01*
X68552000Y-91576000D02*
X68552000Y-91876000D01*
X66902000Y-88851000D02*
X66902000Y-88901000D01*
X68177000Y-88576000D02*
X68552000Y-88576000D01*
X66902000Y-91876000D02*
X66902000Y-91526000D01*
X67277000Y-88576000D02*
X66902000Y-88851000D01*
X68552000Y-88576000D02*
X68552000Y-88876000D01*
X67552000Y-88576000D02*
X67277000Y-88576000D01*
X68552000Y-91876000D02*
X68102000Y-91876000D01*
X67377000Y-91876000D02*
X66902000Y-91876000D01*
X68552000Y-91651000D02*
X68552000Y-91526000D01*
D13*
%TO.C,R14*%
X101154724Y-71222500D02*
X100645276Y-71222500D01*
X101154724Y-70177500D02*
X100645276Y-70177500D01*
%TO.C,R5*%
X79262500Y-82906776D02*
X79262500Y-83416224D01*
X78217500Y-82906776D02*
X78217500Y-83416224D01*
%TO.C,J3*%
X74270000Y-76270000D02*
X74270000Y-76330000D01*
X74270000Y-75000000D02*
X74270000Y-73670000D01*
X74270000Y-76330000D02*
X76930000Y-76330000D01*
X76930000Y-76270000D02*
X76930000Y-76330000D01*
X74270000Y-73670000D02*
X75600000Y-73670000D01*
X74270000Y-76270000D02*
X76930000Y-76270000D01*
D15*
%TO.C,J2*%
X58975000Y-96250000D02*
X58175000Y-96250000D01*
X56225000Y-88750000D02*
X55850000Y-88750000D01*
X58975000Y-88750000D02*
X58175000Y-88750000D01*
X55850000Y-96250000D02*
X55850000Y-88750000D01*
X56225000Y-96250000D02*
X55850000Y-96250000D01*
D16*
X61325000Y-91200000D02*
G75*
G03*
X61325000Y-91200000I-100000J0D01*
G01*
D13*
%TO.C,c19*%
X109073733Y-80774000D02*
X109366267Y-80774000D01*
X109073733Y-79754000D02*
X109366267Y-79754000D01*
%TO.C,R10*%
X84520724Y-85387500D02*
X84011276Y-85387500D01*
X84520724Y-84342500D02*
X84011276Y-84342500D01*
%TO.C,C8*%
X72807000Y-91232267D02*
X72807000Y-90939733D01*
X71787000Y-91232267D02*
X71787000Y-90939733D01*
%TO.C,U3*%
X88160000Y-75340000D02*
X88160000Y-77140000D01*
X91380000Y-77140000D02*
X91380000Y-74690000D01*
%TO.C,J5*%
X83950000Y-76310000D02*
X86610000Y-76310000D01*
X83950000Y-76370000D02*
X86610000Y-76370000D01*
X86610000Y-76310000D02*
X86610000Y-76370000D01*
X83950000Y-75040000D02*
X83950000Y-73710000D01*
X83950000Y-76310000D02*
X83950000Y-76370000D01*
X83950000Y-73710000D02*
X85280000Y-73710000D01*
%TO.C,J1*%
X58106000Y-76300000D02*
X60766000Y-76300000D01*
X58106000Y-73640000D02*
X59436000Y-73640000D01*
X58106000Y-74970000D02*
X58106000Y-73640000D01*
X60766000Y-76240000D02*
X60766000Y-76300000D01*
X58106000Y-76240000D02*
X58106000Y-76300000D01*
X58106000Y-76240000D02*
X60766000Y-76240000D01*
%TO.C,C20*%
X108196767Y-72642000D02*
X107904233Y-72642000D01*
X108196767Y-73662000D02*
X107904233Y-73662000D01*
%TO.C,J11*%
X80745000Y-62870000D02*
X103665000Y-62870000D01*
X79475000Y-65530000D02*
X78145000Y-65530000D01*
X80745000Y-65530000D02*
X103665000Y-65530000D01*
X103665000Y-65530000D02*
X103665000Y-62870000D01*
X78145000Y-65530000D02*
X78145000Y-64200000D01*
X80745000Y-65530000D02*
X80745000Y-62870000D01*
%TO.C,J10*%
X117170000Y-90270000D02*
X119830000Y-90270000D01*
X117170000Y-89000000D02*
X117170000Y-87670000D01*
X117170000Y-90270000D02*
X117170000Y-90330000D01*
X119830000Y-90270000D02*
X119830000Y-90330000D01*
X117170000Y-87670000D02*
X118500000Y-87670000D01*
X117170000Y-90330000D02*
X119830000Y-90330000D01*
%TO.C,R11*%
X94721276Y-84177500D02*
X95230724Y-84177500D01*
X94721276Y-83132500D02*
X95230724Y-83132500D01*
%TO.C,C6*%
X94839733Y-86985000D02*
X95132267Y-86985000D01*
X94839733Y-88005000D02*
X95132267Y-88005000D01*
%TO.C,J14*%
X111770000Y-67370000D02*
X114430000Y-67370000D01*
X111770000Y-67370000D02*
X111770000Y-67430000D01*
X111770000Y-64770000D02*
X113100000Y-64770000D01*
X111770000Y-66100000D02*
X111770000Y-64770000D01*
X114430000Y-67370000D02*
X114430000Y-67430000D01*
X111770000Y-67430000D02*
X114430000Y-67430000D01*
%TO.C,J9*%
X105770000Y-67200000D02*
X105770000Y-65870000D01*
X108430000Y-68470000D02*
X108430000Y-68530000D01*
X105770000Y-68470000D02*
X105770000Y-68530000D01*
X105770000Y-68530000D02*
X108430000Y-68530000D01*
X105770000Y-65870000D02*
X107100000Y-65870000D01*
X105770000Y-68470000D02*
X108430000Y-68470000D01*
%TO.C,J6*%
X76237000Y-90236000D02*
X76237000Y-88906000D01*
X76237000Y-91566000D02*
X78897000Y-91566000D01*
X76237000Y-91506000D02*
X76237000Y-91566000D01*
X76237000Y-88906000D02*
X77567000Y-88906000D01*
X76237000Y-91506000D02*
X78897000Y-91506000D01*
X78897000Y-91506000D02*
X78897000Y-91566000D01*
%TO.C,U1*%
X89616000Y-91855000D02*
X87666000Y-91855000D01*
X89616000Y-81735000D02*
X91566000Y-81735000D01*
X89616000Y-91855000D02*
X93066000Y-91855000D01*
X89616000Y-81735000D02*
X87666000Y-81735000D01*
%TO.C,J13*%
X119574000Y-76690000D02*
X119574000Y-76750000D01*
X119574000Y-76690000D02*
X122234000Y-76690000D01*
X119574000Y-75420000D02*
X119574000Y-74090000D01*
X122234000Y-76690000D02*
X122234000Y-76750000D01*
X119574000Y-76750000D02*
X122234000Y-76750000D01*
X119574000Y-74090000D02*
X120904000Y-74090000D01*
%TO.C,C17*%
X103862733Y-72720000D02*
X104155267Y-72720000D01*
X103862733Y-73740000D02*
X104155267Y-73740000D01*
%TO.C,R9*%
X94741276Y-89527500D02*
X95250724Y-89527500D01*
X94741276Y-88482500D02*
X95250724Y-88482500D01*
%TO.C,C9*%
X84346267Y-88739000D02*
X84053733Y-88739000D01*
X84346267Y-87719000D02*
X84053733Y-87719000D01*
%TD*%
M02*
