%TF.GenerationSoftware,KiCad,Pcbnew,(6.0.7)*%
%TF.CreationDate,2023-02-28T16:34:10-05:00*%
%TF.ProjectId,Front_EndDesign3,46726f6e-745f-4456-9e64-44657369676e,rev?*%
%TF.SameCoordinates,Original*%
%TF.FileFunction,Copper,L4,Bot*%
%TF.FilePolarity,Positive*%
%FSLAX46Y46*%
G04 Gerber Fmt 4.6, Leading zero omitted, Abs format (unit mm)*
G04 Created by KiCad (PCBNEW (6.0.7)) date 2023-02-28 16:34:10*
%MOMM*%
%LPD*%
G01*
G04 APERTURE LIST*
G04 Aperture macros list*
%AMRoundRect*
0 Rectangle with rounded corners*
0 $1 Rounding radius*
0 $2 $3 $4 $5 $6 $7 $8 $9 X,Y pos of 4 corners*
0 Add a 4 corners polygon primitive as box body*
4,1,4,$2,$3,$4,$5,$6,$7,$8,$9,$2,$3,0*
0 Add four circle primitives for the rounded corners*
1,1,$1+$1,$2,$3*
1,1,$1+$1,$4,$5*
1,1,$1+$1,$6,$7*
1,1,$1+$1,$8,$9*
0 Add four rect primitives between the rounded corners*
20,1,$1+$1,$2,$3,$4,$5,0*
20,1,$1+$1,$4,$5,$6,$7,0*
20,1,$1+$1,$6,$7,$8,$9,0*
20,1,$1+$1,$8,$9,$2,$3,0*%
G04 Aperture macros list end*
%TA.AperFunction,ComponentPad*%
%ADD10R,1.700000X1.700000*%
%TD*%
%TA.AperFunction,ComponentPad*%
%ADD11R,1.400000X1.400000*%
%TD*%
%TA.AperFunction,ComponentPad*%
%ADD12C,1.400000*%
%TD*%
%TA.AperFunction,ComponentPad*%
%ADD13R,1.600000X1.600000*%
%TD*%
%TA.AperFunction,ComponentPad*%
%ADD14O,1.600000X1.600000*%
%TD*%
%TA.AperFunction,ComponentPad*%
%ADD15O,1.700000X1.700000*%
%TD*%
%TA.AperFunction,SMDPad,CuDef*%
%ADD16RoundRect,0.237500X-0.237500X0.300000X-0.237500X-0.300000X0.237500X-0.300000X0.237500X0.300000X0*%
%TD*%
%TA.AperFunction,SMDPad,CuDef*%
%ADD17RoundRect,0.237500X-0.300000X-0.237500X0.300000X-0.237500X0.300000X0.237500X-0.300000X0.237500X0*%
%TD*%
%TA.AperFunction,SMDPad,CuDef*%
%ADD18RoundRect,0.237500X0.250000X0.237500X-0.250000X0.237500X-0.250000X-0.237500X0.250000X-0.237500X0*%
%TD*%
%TA.AperFunction,SMDPad,CuDef*%
%ADD19RoundRect,0.237500X0.237500X-0.250000X0.237500X0.250000X-0.237500X0.250000X-0.237500X-0.250000X0*%
%TD*%
%TA.AperFunction,SMDPad,CuDef*%
%ADD20RoundRect,0.237500X0.237500X-0.300000X0.237500X0.300000X-0.237500X0.300000X-0.237500X-0.300000X0*%
%TD*%
%TA.AperFunction,SMDPad,CuDef*%
%ADD21RoundRect,0.237500X-0.250000X-0.237500X0.250000X-0.237500X0.250000X0.237500X-0.250000X0.237500X0*%
%TD*%
%TA.AperFunction,ViaPad*%
%ADD22C,0.838000*%
%TD*%
%TA.AperFunction,ViaPad*%
%ADD23C,0.600000*%
%TD*%
%TA.AperFunction,ViaPad*%
%ADD24C,0.800000*%
%TD*%
%TA.AperFunction,Conductor*%
%ADD25C,0.609600*%
%TD*%
%TA.AperFunction,Conductor*%
%ADD26C,0.305000*%
%TD*%
%TA.AperFunction,Conductor*%
%ADD27C,0.250000*%
%TD*%
G04 APERTURE END LIST*
D10*
%TO.P,J7,1,Pin_1*%
%TO.N,Net-(J7-Pad1)*%
X95270000Y-75050000D03*
%TD*%
%TO.P,J4,1,Pin_1*%
%TO.N,Net-(C5-Pad1)*%
X67715000Y-94586000D03*
%TD*%
%TO.P,J8,1,Pin_1*%
%TO.N,+5V*%
X103500000Y-88900000D03*
%TD*%
D11*
%TO.P,K1,1*%
%TO.N,GND*%
X72012500Y-82607500D03*
D12*
%TO.P,K1,4*%
%TO.N,Net-(C7-Pad1)*%
X72012500Y-74987500D03*
%TO.P,K1,6*%
%TO.N,Net-(C1-Pad2)*%
X72012500Y-69907500D03*
%TO.P,K1,8*%
%TO.N,Net-(C3-Pad2)*%
X72012500Y-64827500D03*
%TO.P,K1,9*%
%TO.N,Net-(C3-Pad1)*%
X64392500Y-64827500D03*
%TO.P,K1,11*%
%TO.N,Net-(C2-Pad2)*%
X64392500Y-69907500D03*
%TO.P,K1,13*%
%TO.N,Net-(GD1-Pad1)*%
X64392500Y-74987500D03*
%TO.P,K1,16*%
%TO.N,attenuate*%
X64392500Y-82607500D03*
%TD*%
D13*
%TO.P,D2,1,K*%
%TO.N,attenuate*%
X64400000Y-85600000D03*
D14*
%TO.P,D2,2,A*%
%TO.N,GND*%
X72020000Y-85600000D03*
%TD*%
D10*
%TO.P,J12,1,Pin_1*%
%TO.N,Net-(J12-Pad1)*%
X113030000Y-75438000D03*
%TD*%
%TO.P,J3,1,Pin_1*%
%TO.N,Net-(C7-Pad1)*%
X75600000Y-75000000D03*
%TD*%
%TO.P,J5,1,Pin_1*%
%TO.N,Net-(C7-Pad2)*%
X85280000Y-75040000D03*
%TD*%
%TO.P,J1,1,Pin_1*%
%TO.N,Net-(GD1-Pad1)*%
X59436000Y-74970000D03*
%TD*%
%TO.P,J11,1,Pin_1*%
%TO.N,attenuate*%
X79475000Y-64200000D03*
D15*
%TO.P,J11,2,Pin_2*%
%TO.N,acdc*%
X82015000Y-64200000D03*
%TO.P,J11,3,Pin_3*%
%TO.N,amp1-10*%
X84555000Y-64200000D03*
%TO.P,J11,4,Pin_4*%
%TO.N,amp1-5*%
X87095000Y-64200000D03*
%TO.P,J11,5,Pin_5*%
%TO.N,amp1-2.5*%
X89635000Y-64200000D03*
%TO.P,J11,6,Pin_6*%
%TO.N,amp1-1*%
X92175000Y-64200000D03*
%TO.P,J11,7,Pin_7*%
%TO.N,pwm*%
X94715000Y-64200000D03*
%TO.P,J11,8,Pin_8*%
%TO.N,GND*%
X97255000Y-64200000D03*
%TO.P,J11,9,Pin_9*%
X99795000Y-64200000D03*
%TO.P,J11,10,Pin_10*%
X102335000Y-64200000D03*
%TD*%
D10*
%TO.P,J10,1,Pin_1*%
%TO.N,-5V*%
X118500000Y-89000000D03*
%TD*%
%TO.P,J14,1,Pin_1*%
%TO.N,+3.3V*%
X113100000Y-66100000D03*
%TD*%
%TO.P,J9,1,Pin_1*%
%TO.N,Net-(C13-Pad1)*%
X107100000Y-67200000D03*
%TD*%
%TO.P,J6,1,Pin_1*%
%TO.N,+5V*%
X77567000Y-90236000D03*
%TD*%
%TO.P,J13,1,Pin_1*%
%TO.N,Net-(C21-Pad1)*%
X120904000Y-75420000D03*
%TD*%
D16*
%TO.P,C3,1*%
%TO.N,Net-(C3-Pad1)*%
X67700000Y-64837500D03*
%TO.P,C3,2*%
%TO.N,Net-(C3-Pad2)*%
X67700000Y-66562500D03*
%TD*%
D17*
%TO.P,C4,1*%
%TO.N,Net-(C3-Pad2)*%
X69337500Y-66600000D03*
%TO.P,C4,2*%
%TO.N,GND*%
X71062500Y-66600000D03*
%TD*%
D18*
%TO.P,R4,1*%
%TO.N,GND*%
X71112500Y-68100000D03*
%TO.P,R4,2*%
%TO.N,Net-(C3-Pad2)*%
X69287500Y-68100000D03*
%TD*%
D19*
%TO.P,R2,1*%
%TO.N,Net-(C1-Pad2)*%
X68600000Y-71725000D03*
%TO.P,R2,2*%
%TO.N,Net-(C2-Pad2)*%
X68600000Y-69900000D03*
%TD*%
D20*
%TO.P,C2,1*%
%TO.N,Net-(C1-Pad2)*%
X66850000Y-71642500D03*
%TO.P,C2,2*%
%TO.N,Net-(C2-Pad2)*%
X66850000Y-69917500D03*
%TD*%
D19*
%TO.P,R3,1*%
%TO.N,Net-(C3-Pad2)*%
X66075000Y-66655000D03*
%TO.P,R3,2*%
%TO.N,Net-(C3-Pad1)*%
X66075000Y-64830000D03*
%TD*%
D17*
%TO.P,C1,1*%
%TO.N,GND*%
X66627500Y-75040000D03*
%TO.P,C1,2*%
%TO.N,Net-(C1-Pad2)*%
X68352500Y-75040000D03*
%TD*%
D21*
%TO.P,R1,1*%
%TO.N,GND*%
X66577500Y-76540000D03*
%TO.P,R1,2*%
%TO.N,Net-(C1-Pad2)*%
X68402500Y-76540000D03*
%TD*%
D22*
%TO.N,GND*%
X80642700Y-82857300D03*
X98200000Y-85200000D03*
X61900000Y-95700000D03*
X74400000Y-67400000D03*
X83200000Y-93400000D03*
X93100000Y-71800000D03*
X83200000Y-86500000D03*
X94500000Y-80600000D03*
X65400000Y-73000000D03*
X93100000Y-77100000D03*
X108700000Y-85600000D03*
X120200000Y-78900000D03*
X63400000Y-89300000D03*
D23*
X106300000Y-81500000D03*
D22*
X109800000Y-64400000D03*
%TO.N,-5V*%
X116300000Y-84500000D03*
X101500000Y-72300000D03*
X89900000Y-88900000D03*
X111400000Y-72400000D03*
X96700000Y-72300000D03*
%TO.N,+5V*%
X105700000Y-76500000D03*
D24*
X110490000Y-82550000D03*
D22*
X86700000Y-80000000D03*
X80700000Y-90300000D03*
X84700000Y-86229000D03*
%TO.N,+3.3V*%
X115500000Y-64000000D03*
D23*
%TO.N,acdc*%
X76500000Y-78700000D03*
%TO.N,amp1-1*%
X94700000Y-91229000D03*
%TO.N,amp1-2.5*%
X90700000Y-80600000D03*
%TO.N,amp1-5*%
X88100000Y-80900000D03*
D22*
%TO.N,amp1-10*%
X82700000Y-91200000D03*
%TD*%
D25*
%TO.N,GND*%
X66627500Y-75040000D02*
X66627500Y-76490000D01*
X66577500Y-76540000D02*
X66577500Y-77172500D01*
X74400000Y-67400000D02*
X74100000Y-67400000D01*
X71062500Y-68050000D02*
X71112500Y-68100000D01*
X72012500Y-82607500D02*
X72012500Y-85592500D01*
X66627500Y-74227500D02*
X65400000Y-73000000D01*
X66577500Y-77172500D02*
X72012500Y-82607500D01*
X74100000Y-67400000D02*
X73400000Y-68100000D01*
X71062500Y-66600000D02*
X71062500Y-68050000D01*
X72012500Y-85592500D02*
X72020000Y-85600000D01*
X71112500Y-68100000D02*
X73400000Y-68100000D01*
X66627500Y-75040000D02*
X66627500Y-74227500D01*
X66627500Y-76490000D02*
X66577500Y-76540000D01*
D26*
%TO.N,Net-(C1-Pad2)*%
X70195000Y-71725000D02*
X72012500Y-69907500D01*
D27*
X68352500Y-71972500D02*
X68600000Y-71725000D01*
D26*
X68517500Y-71642500D02*
X68600000Y-71725000D01*
D27*
X68352500Y-75040000D02*
X68352500Y-71972500D01*
D26*
X66850000Y-71642500D02*
X68517500Y-71642500D01*
D27*
X68402500Y-76540000D02*
X68402500Y-75090000D01*
D26*
X68600000Y-71725000D02*
X70195000Y-71725000D01*
D27*
%TO.N,Net-(C2-Pad2)*%
X64392500Y-69907500D02*
X66840000Y-69907500D01*
X66840000Y-69907500D02*
X66850000Y-69917500D01*
X68582500Y-69917500D02*
X68600000Y-69900000D01*
X66850000Y-69917500D02*
X68582500Y-69917500D01*
D26*
%TO.N,Net-(C3-Pad1)*%
X67692500Y-64830000D02*
X67700000Y-64837500D01*
X66075000Y-64830000D02*
X67692500Y-64830000D01*
X66072500Y-64827500D02*
X66075000Y-64830000D01*
X64392500Y-64827500D02*
X66072500Y-64827500D01*
%TO.N,Net-(C3-Pad2)*%
X67607500Y-66655000D02*
X67700000Y-66562500D01*
X66075000Y-66655000D02*
X67607500Y-66655000D01*
X67700000Y-66562500D02*
X69300000Y-66562500D01*
D27*
X69337500Y-66600000D02*
X69337500Y-68050000D01*
X71110000Y-64827500D02*
X72012500Y-64827500D01*
X69337500Y-66600000D02*
X71110000Y-64827500D01*
X69337500Y-68050000D02*
X69287500Y-68100000D01*
D26*
%TO.N,Net-(C7-Pad1)*%
X75587500Y-74987500D02*
X75600000Y-75000000D01*
X72012500Y-74987500D02*
X75587500Y-74987500D01*
%TO.N,acdc*%
X77230000Y-78700000D02*
X82015000Y-73915000D01*
X76500000Y-78700000D02*
X77230000Y-78700000D01*
X82015000Y-64200000D02*
X82015000Y-73915000D01*
%TO.N,amp1-1*%
X94700000Y-91229000D02*
X94852500Y-91076500D01*
X92801845Y-77892911D02*
X92175000Y-77266066D01*
X94852500Y-81404434D02*
X95271500Y-80985434D01*
X94852500Y-91076500D02*
X94852500Y-81404434D01*
X92915686Y-77892911D02*
X92801845Y-77892911D01*
X95271500Y-80985434D02*
X95271500Y-80248724D01*
X92175000Y-77266066D02*
X92175000Y-64200000D01*
X95271500Y-80248724D02*
X92915686Y-77892911D01*
%TO.N,amp1-2.5*%
X90700000Y-80600000D02*
X90700000Y-78100000D01*
X90700000Y-78100000D02*
X90000000Y-77400000D01*
X89635000Y-66735000D02*
X89635000Y-64200000D01*
X90000000Y-67100000D02*
X89635000Y-66735000D01*
X90000000Y-77400000D02*
X90000000Y-67100000D01*
%TO.N,amp1-5*%
X88100000Y-80900000D02*
X88100000Y-65205000D01*
X88100000Y-65205000D02*
X87095000Y-64200000D01*
%TO.N,amp1-10*%
X81414200Y-78585800D02*
X83200000Y-76800000D01*
X82700000Y-91200000D02*
X81414200Y-89914200D01*
X81414200Y-89914200D02*
X81414200Y-78585800D01*
X83200000Y-76800000D02*
X83200000Y-65555000D01*
X83200000Y-65555000D02*
X84555000Y-64200000D01*
%TD*%
%TA.AperFunction,Conductor*%
%TO.N,GND*%
G36*
X123893621Y-61828502D02*
G01*
X123940114Y-61882158D01*
X123951500Y-61934500D01*
X123951500Y-97217500D01*
X123931498Y-97285621D01*
X123877842Y-97332114D01*
X123825500Y-97343500D01*
X56260500Y-97343500D01*
X56192379Y-97323498D01*
X56145886Y-97269842D01*
X56134500Y-97217500D01*
X56134500Y-95484134D01*
X66356500Y-95484134D01*
X66363255Y-95546316D01*
X66414385Y-95682705D01*
X66501739Y-95799261D01*
X66618295Y-95886615D01*
X66754684Y-95937745D01*
X66816866Y-95944500D01*
X68613134Y-95944500D01*
X68675316Y-95937745D01*
X68811705Y-95886615D01*
X68928261Y-95799261D01*
X69015615Y-95682705D01*
X69066745Y-95546316D01*
X69073500Y-95484134D01*
X69073500Y-93687866D01*
X69066745Y-93625684D01*
X69015615Y-93489295D01*
X68928261Y-93372739D01*
X68811705Y-93285385D01*
X68675316Y-93234255D01*
X68613134Y-93227500D01*
X66816866Y-93227500D01*
X66754684Y-93234255D01*
X66618295Y-93285385D01*
X66501739Y-93372739D01*
X66414385Y-93489295D01*
X66363255Y-93625684D01*
X66356500Y-93687866D01*
X66356500Y-95484134D01*
X56134500Y-95484134D01*
X56134500Y-91134134D01*
X76208500Y-91134134D01*
X76215255Y-91196316D01*
X76266385Y-91332705D01*
X76353739Y-91449261D01*
X76470295Y-91536615D01*
X76606684Y-91587745D01*
X76668866Y-91594500D01*
X78465134Y-91594500D01*
X78527316Y-91587745D01*
X78663705Y-91536615D01*
X78780261Y-91449261D01*
X78867615Y-91332705D01*
X78918745Y-91196316D01*
X78925500Y-91134134D01*
X78925500Y-89337866D01*
X78918745Y-89275684D01*
X78867615Y-89139295D01*
X78780261Y-89022739D01*
X78663705Y-88935385D01*
X78527316Y-88884255D01*
X78465134Y-88877500D01*
X76668866Y-88877500D01*
X76606684Y-88884255D01*
X76470295Y-88935385D01*
X76353739Y-89022739D01*
X76266385Y-89139295D01*
X76215255Y-89275684D01*
X76208500Y-89337866D01*
X76208500Y-91134134D01*
X56134500Y-91134134D01*
X56134500Y-86448134D01*
X63091500Y-86448134D01*
X63098255Y-86510316D01*
X63149385Y-86646705D01*
X63236739Y-86763261D01*
X63353295Y-86850615D01*
X63489684Y-86901745D01*
X63551866Y-86908500D01*
X65248134Y-86908500D01*
X65310316Y-86901745D01*
X65446705Y-86850615D01*
X65563261Y-86763261D01*
X65650615Y-86646705D01*
X65701745Y-86510316D01*
X65708500Y-86448134D01*
X65708500Y-85866522D01*
X70737273Y-85866522D01*
X70784764Y-86043761D01*
X70788510Y-86054053D01*
X70880586Y-86251511D01*
X70886069Y-86261007D01*
X71011028Y-86439467D01*
X71018084Y-86447875D01*
X71172125Y-86601916D01*
X71180533Y-86608972D01*
X71358993Y-86733931D01*
X71368489Y-86739414D01*
X71565947Y-86831490D01*
X71576239Y-86835236D01*
X71748503Y-86881394D01*
X71762599Y-86881058D01*
X71766000Y-86873116D01*
X71766000Y-86867967D01*
X72274000Y-86867967D01*
X72277973Y-86881498D01*
X72286522Y-86882727D01*
X72463761Y-86835236D01*
X72474053Y-86831490D01*
X72671511Y-86739414D01*
X72681007Y-86733931D01*
X72859467Y-86608972D01*
X72867875Y-86601916D01*
X73021916Y-86447875D01*
X73028972Y-86439467D01*
X73153931Y-86261007D01*
X73159414Y-86251511D01*
X73251490Y-86054053D01*
X73255236Y-86043761D01*
X73301394Y-85871497D01*
X73301058Y-85857401D01*
X73293116Y-85854000D01*
X72292115Y-85854000D01*
X72276876Y-85858475D01*
X72275671Y-85859865D01*
X72274000Y-85867548D01*
X72274000Y-86867967D01*
X71766000Y-86867967D01*
X71766000Y-85872115D01*
X71761525Y-85856876D01*
X71760135Y-85855671D01*
X71752452Y-85854000D01*
X70752033Y-85854000D01*
X70738502Y-85857973D01*
X70737273Y-85866522D01*
X65708500Y-85866522D01*
X65708500Y-85328503D01*
X70738606Y-85328503D01*
X70738942Y-85342599D01*
X70746884Y-85346000D01*
X71747885Y-85346000D01*
X71763124Y-85341525D01*
X71764329Y-85340135D01*
X71766000Y-85332452D01*
X71766000Y-85327885D01*
X72274000Y-85327885D01*
X72278475Y-85343124D01*
X72279865Y-85344329D01*
X72287548Y-85346000D01*
X73287967Y-85346000D01*
X73301498Y-85342027D01*
X73302727Y-85333478D01*
X73255236Y-85156239D01*
X73251490Y-85145947D01*
X73159414Y-84948489D01*
X73153931Y-84938993D01*
X73028972Y-84760533D01*
X73021916Y-84752125D01*
X72867875Y-84598084D01*
X72859467Y-84591028D01*
X72681007Y-84466069D01*
X72671511Y-84460586D01*
X72474053Y-84368510D01*
X72463761Y-84364764D01*
X72291497Y-84318606D01*
X72277401Y-84318942D01*
X72274000Y-84326884D01*
X72274000Y-85327885D01*
X71766000Y-85327885D01*
X71766000Y-84332033D01*
X71762027Y-84318502D01*
X71753478Y-84317273D01*
X71576239Y-84364764D01*
X71565947Y-84368510D01*
X71368489Y-84460586D01*
X71358993Y-84466069D01*
X71180533Y-84591028D01*
X71172125Y-84598084D01*
X71018084Y-84752125D01*
X71011028Y-84760533D01*
X70886069Y-84938993D01*
X70880586Y-84948489D01*
X70788510Y-85145947D01*
X70784764Y-85156239D01*
X70738606Y-85328503D01*
X65708500Y-85328503D01*
X65708500Y-84751866D01*
X65701745Y-84689684D01*
X65650615Y-84553295D01*
X65563261Y-84436739D01*
X65446705Y-84349385D01*
X65310316Y-84298255D01*
X65248134Y-84291500D01*
X63551866Y-84291500D01*
X63489684Y-84298255D01*
X63353295Y-84349385D01*
X63236739Y-84436739D01*
X63149385Y-84553295D01*
X63098255Y-84689684D01*
X63091500Y-84751866D01*
X63091500Y-86448134D01*
X56134500Y-86448134D01*
X56134500Y-82607500D01*
X63179384Y-82607500D01*
X63197814Y-82818155D01*
X63252544Y-83022410D01*
X63341911Y-83214058D01*
X63463199Y-83387276D01*
X63612724Y-83536801D01*
X63785942Y-83658089D01*
X63790920Y-83660410D01*
X63790923Y-83660412D01*
X63972608Y-83745133D01*
X63977590Y-83747456D01*
X63982898Y-83748878D01*
X63982900Y-83748879D01*
X64176530Y-83800762D01*
X64176532Y-83800762D01*
X64181845Y-83802186D01*
X64392500Y-83820616D01*
X64603155Y-83802186D01*
X64608468Y-83800762D01*
X64608470Y-83800762D01*
X64802100Y-83748879D01*
X64802102Y-83748878D01*
X64807410Y-83747456D01*
X64812392Y-83745133D01*
X64994077Y-83660412D01*
X64994080Y-83660410D01*
X64999058Y-83658089D01*
X65172276Y-83536801D01*
X65321801Y-83387276D01*
X65346383Y-83352169D01*
X70804501Y-83352169D01*
X70804871Y-83358990D01*
X70810395Y-83409852D01*
X70814021Y-83425104D01*
X70859176Y-83545554D01*
X70867714Y-83561149D01*
X70944215Y-83663224D01*
X70956776Y-83675785D01*
X71058851Y-83752286D01*
X71074446Y-83760824D01*
X71194894Y-83805978D01*
X71210149Y-83809605D01*
X71261014Y-83815131D01*
X71267828Y-83815500D01*
X71740385Y-83815500D01*
X71755624Y-83811025D01*
X71756829Y-83809635D01*
X71758500Y-83801952D01*
X71758500Y-83797384D01*
X72266500Y-83797384D01*
X72270975Y-83812623D01*
X72272365Y-83813828D01*
X72280048Y-83815499D01*
X72757169Y-83815499D01*
X72763990Y-83815129D01*
X72814852Y-83809605D01*
X72830104Y-83805979D01*
X72950554Y-83760824D01*
X72966149Y-83752286D01*
X73068224Y-83675785D01*
X73080785Y-83663224D01*
X73157286Y-83561149D01*
X73165824Y-83545554D01*
X73210978Y-83425106D01*
X73214605Y-83409851D01*
X73220131Y-83358986D01*
X73220500Y-83352172D01*
X73220500Y-82879615D01*
X73216025Y-82864376D01*
X73214635Y-82863171D01*
X73206952Y-82861500D01*
X72284615Y-82861500D01*
X72269376Y-82865975D01*
X72268171Y-82867365D01*
X72266500Y-82875048D01*
X72266500Y-83797384D01*
X71758500Y-83797384D01*
X71758500Y-82879615D01*
X71754025Y-82864376D01*
X71752635Y-82863171D01*
X71744952Y-82861500D01*
X70822616Y-82861500D01*
X70807377Y-82865975D01*
X70806172Y-82867365D01*
X70804501Y-82875048D01*
X70804501Y-83352169D01*
X65346383Y-83352169D01*
X65443089Y-83214058D01*
X65532456Y-83022410D01*
X65587186Y-82818155D01*
X65605616Y-82607500D01*
X65587186Y-82396845D01*
X65570718Y-82335385D01*
X70804500Y-82335385D01*
X70808975Y-82350624D01*
X70810365Y-82351829D01*
X70818048Y-82353500D01*
X71740385Y-82353500D01*
X71755624Y-82349025D01*
X71756829Y-82347635D01*
X71758500Y-82339952D01*
X71758500Y-82335385D01*
X72266500Y-82335385D01*
X72270975Y-82350624D01*
X72272365Y-82351829D01*
X72280048Y-82353500D01*
X73202384Y-82353500D01*
X73217623Y-82349025D01*
X73218828Y-82347635D01*
X73220499Y-82339952D01*
X73220499Y-81862831D01*
X73220129Y-81856010D01*
X73214605Y-81805148D01*
X73210979Y-81789896D01*
X73165824Y-81669446D01*
X73157286Y-81653851D01*
X73080785Y-81551776D01*
X73068224Y-81539215D01*
X72966149Y-81462714D01*
X72950554Y-81454176D01*
X72830106Y-81409022D01*
X72814851Y-81405395D01*
X72763986Y-81399869D01*
X72757172Y-81399500D01*
X72284615Y-81399500D01*
X72269376Y-81403975D01*
X72268171Y-81405365D01*
X72266500Y-81413048D01*
X72266500Y-82335385D01*
X71758500Y-82335385D01*
X71758500Y-81417616D01*
X71754025Y-81402377D01*
X71752635Y-81401172D01*
X71744952Y-81399501D01*
X71267831Y-81399501D01*
X71261010Y-81399871D01*
X71210148Y-81405395D01*
X71194896Y-81409021D01*
X71074446Y-81454176D01*
X71058851Y-81462714D01*
X70956776Y-81539215D01*
X70944215Y-81551776D01*
X70867714Y-81653851D01*
X70859176Y-81669446D01*
X70814022Y-81789894D01*
X70810395Y-81805149D01*
X70804869Y-81856014D01*
X70804500Y-81862828D01*
X70804500Y-82335385D01*
X65570718Y-82335385D01*
X65532456Y-82192590D01*
X65530133Y-82187608D01*
X65445412Y-82005923D01*
X65445410Y-82005920D01*
X65443089Y-82000942D01*
X65321801Y-81827724D01*
X65172276Y-81678199D01*
X64999058Y-81556911D01*
X64994080Y-81554590D01*
X64994077Y-81554588D01*
X64812392Y-81469867D01*
X64812391Y-81469866D01*
X64807410Y-81467544D01*
X64802102Y-81466122D01*
X64802100Y-81466121D01*
X64608470Y-81414238D01*
X64608468Y-81414238D01*
X64603155Y-81412814D01*
X64392500Y-81394384D01*
X64181845Y-81412814D01*
X64176532Y-81414238D01*
X64176530Y-81414238D01*
X63982900Y-81466121D01*
X63982898Y-81466122D01*
X63977590Y-81467544D01*
X63972609Y-81469866D01*
X63972608Y-81469867D01*
X63790923Y-81554588D01*
X63790920Y-81554590D01*
X63785942Y-81556911D01*
X63612724Y-81678199D01*
X63463199Y-81827724D01*
X63341911Y-82000942D01*
X63339590Y-82005920D01*
X63339588Y-82005923D01*
X63254867Y-82187608D01*
X63252544Y-82192590D01*
X63197814Y-82396845D01*
X63179384Y-82607500D01*
X56134500Y-82607500D01*
X56134500Y-78688640D01*
X75686463Y-78688640D01*
X75704163Y-78869160D01*
X75761418Y-79041273D01*
X75765065Y-79047295D01*
X75765066Y-79047297D01*
X75851279Y-79189652D01*
X75855380Y-79196424D01*
X75860269Y-79201487D01*
X75860270Y-79201488D01*
X75902395Y-79245109D01*
X75981382Y-79326902D01*
X76133159Y-79426222D01*
X76139763Y-79428678D01*
X76139765Y-79428679D01*
X76296558Y-79486990D01*
X76296560Y-79486990D01*
X76303168Y-79489448D01*
X76386995Y-79500633D01*
X76475980Y-79512507D01*
X76475984Y-79512507D01*
X76482961Y-79513438D01*
X76489972Y-79512800D01*
X76489976Y-79512800D01*
X76632459Y-79499832D01*
X76663600Y-79496998D01*
X76670302Y-79494820D01*
X76670304Y-79494820D01*
X76829409Y-79443124D01*
X76829412Y-79443123D01*
X76836108Y-79440947D01*
X76842159Y-79437340D01*
X76842161Y-79437339D01*
X76940410Y-79378771D01*
X77004927Y-79361000D01*
X77202725Y-79361000D01*
X77211295Y-79361292D01*
X77257272Y-79364427D01*
X77257276Y-79364427D01*
X77264848Y-79364943D01*
X77272324Y-79363638D01*
X77272327Y-79363638D01*
X77323349Y-79354733D01*
X77329875Y-79353770D01*
X77381278Y-79347550D01*
X77381288Y-79347547D01*
X77388829Y-79346635D01*
X77395939Y-79343948D01*
X77402918Y-79342234D01*
X77408108Y-79340814D01*
X77414973Y-79338742D01*
X77422453Y-79337436D01*
X77429401Y-79334386D01*
X77429404Y-79334385D01*
X77457994Y-79321834D01*
X77476847Y-79313558D01*
X77482903Y-79311086D01*
X77538488Y-79290083D01*
X77544747Y-79285781D01*
X77551100Y-79282460D01*
X77555834Y-79279825D01*
X77561997Y-79276180D01*
X77568948Y-79273129D01*
X77574971Y-79268507D01*
X77574975Y-79268505D01*
X77616056Y-79236983D01*
X77621391Y-79233107D01*
X77664078Y-79203768D01*
X77664081Y-79203765D01*
X77670338Y-79199465D01*
X77708857Y-79156232D01*
X77713839Y-79150956D01*
X82323905Y-74540890D01*
X82386217Y-74506864D01*
X82457032Y-74511929D01*
X82513868Y-74554476D01*
X82538679Y-74620996D01*
X82539000Y-74629985D01*
X82539000Y-76474014D01*
X82518998Y-76542135D01*
X82502095Y-76563109D01*
X80966093Y-78099111D01*
X80959828Y-78104964D01*
X80919373Y-78140256D01*
X80885209Y-78188868D01*
X80881297Y-78194133D01*
X80844651Y-78240869D01*
X80841524Y-78247795D01*
X80837829Y-78253896D01*
X80835141Y-78258607D01*
X80831749Y-78264934D01*
X80827380Y-78271150D01*
X80824619Y-78278232D01*
X80805818Y-78326455D01*
X80803261Y-78332538D01*
X80797697Y-78344861D01*
X80778814Y-78386682D01*
X80777429Y-78394157D01*
X80775273Y-78401036D01*
X80773821Y-78406132D01*
X80772024Y-78413129D01*
X80769264Y-78420209D01*
X80768272Y-78427742D01*
X80768272Y-78427743D01*
X80761513Y-78479084D01*
X80760481Y-78485599D01*
X80754907Y-78515675D01*
X80749659Y-78543991D01*
X80750096Y-78551571D01*
X80750096Y-78551572D01*
X80752991Y-78601775D01*
X80753200Y-78609028D01*
X80753200Y-89246500D01*
X80733198Y-89314621D01*
X80679542Y-89361114D01*
X80627200Y-89372500D01*
X80602516Y-89372500D01*
X80596063Y-89373872D01*
X80596059Y-89373872D01*
X80507162Y-89392768D01*
X80411808Y-89413036D01*
X80405779Y-89415720D01*
X80405777Y-89415721D01*
X80239726Y-89489652D01*
X80239724Y-89489653D01*
X80233696Y-89492337D01*
X80075963Y-89606936D01*
X80071550Y-89611838D01*
X80071548Y-89611839D01*
X79982850Y-89710348D01*
X79945503Y-89751826D01*
X79942200Y-89757547D01*
X79882867Y-89860316D01*
X79848019Y-89920674D01*
X79845977Y-89926959D01*
X79790824Y-90096705D01*
X79787771Y-90106100D01*
X79767391Y-90300000D01*
X79787771Y-90493900D01*
X79789811Y-90500178D01*
X79789811Y-90500179D01*
X79793600Y-90511839D01*
X79848019Y-90679326D01*
X79945503Y-90848174D01*
X79949921Y-90853081D01*
X79949922Y-90853082D01*
X80071545Y-90988157D01*
X80075963Y-90993064D01*
X80085263Y-90999821D01*
X80137379Y-91037685D01*
X80233695Y-91107663D01*
X80239723Y-91110347D01*
X80239725Y-91110348D01*
X80405777Y-91184279D01*
X80411808Y-91186964D01*
X80490616Y-91203715D01*
X80596059Y-91226128D01*
X80596063Y-91226128D01*
X80602516Y-91227500D01*
X80797484Y-91227500D01*
X80803937Y-91226128D01*
X80803941Y-91226128D01*
X80909384Y-91203715D01*
X80988192Y-91186964D01*
X80994223Y-91184279D01*
X81160275Y-91110348D01*
X81160277Y-91110347D01*
X81166305Y-91107663D01*
X81231185Y-91060525D01*
X81318693Y-90996947D01*
X81318695Y-90996945D01*
X81324037Y-90993064D01*
X81346172Y-90968480D01*
X81406618Y-90931242D01*
X81477601Y-90932594D01*
X81528902Y-90963697D01*
X81736097Y-91170892D01*
X81770123Y-91233204D01*
X81772312Y-91246815D01*
X81787771Y-91393900D01*
X81848019Y-91579326D01*
X81851322Y-91585048D01*
X81851323Y-91585049D01*
X81856672Y-91594314D01*
X81945503Y-91748174D01*
X81949921Y-91753081D01*
X81949922Y-91753082D01*
X82064810Y-91880677D01*
X82075963Y-91893064D01*
X82233695Y-92007663D01*
X82239723Y-92010347D01*
X82239725Y-92010348D01*
X82405777Y-92084279D01*
X82411808Y-92086964D01*
X82507162Y-92107232D01*
X82596059Y-92126128D01*
X82596063Y-92126128D01*
X82602516Y-92127500D01*
X82797484Y-92127500D01*
X82803937Y-92126128D01*
X82803941Y-92126128D01*
X82892838Y-92107232D01*
X82988192Y-92086964D01*
X82994223Y-92084279D01*
X83160275Y-92010348D01*
X83160277Y-92010347D01*
X83166305Y-92007663D01*
X83324037Y-91893064D01*
X83335191Y-91880677D01*
X83450078Y-91753082D01*
X83450079Y-91753081D01*
X83454497Y-91748174D01*
X83543328Y-91594314D01*
X83548677Y-91585049D01*
X83548678Y-91585048D01*
X83551981Y-91579326D01*
X83612229Y-91393900D01*
X83627590Y-91247757D01*
X83631919Y-91206565D01*
X83632609Y-91200000D01*
X83617187Y-91053272D01*
X83612919Y-91012664D01*
X83612919Y-91012663D01*
X83612229Y-91006100D01*
X83607994Y-90993064D01*
X83554023Y-90826959D01*
X83551981Y-90820674D01*
X83454497Y-90651826D01*
X83417240Y-90610448D01*
X83328452Y-90511839D01*
X83328450Y-90511838D01*
X83324037Y-90506936D01*
X83166305Y-90392337D01*
X83160277Y-90389653D01*
X83160275Y-90389652D01*
X82994223Y-90315721D01*
X82994222Y-90315721D01*
X82988192Y-90313036D01*
X82892838Y-90292768D01*
X82803941Y-90273872D01*
X82803937Y-90273872D01*
X82797484Y-90272500D01*
X82759485Y-90272500D01*
X82691364Y-90252498D01*
X82670390Y-90235595D01*
X82112105Y-89677310D01*
X82078079Y-89614998D01*
X82075200Y-89588215D01*
X82075200Y-88900000D01*
X88967391Y-88900000D01*
X88987771Y-89093900D01*
X88989811Y-89100178D01*
X88989811Y-89100179D01*
X89005252Y-89147703D01*
X89048019Y-89279326D01*
X89145503Y-89448174D01*
X89149921Y-89453081D01*
X89149922Y-89453082D01*
X89185268Y-89492337D01*
X89275963Y-89593064D01*
X89281302Y-89596943D01*
X89391918Y-89677310D01*
X89433695Y-89707663D01*
X89439723Y-89710347D01*
X89439725Y-89710348D01*
X89545736Y-89757547D01*
X89611808Y-89786964D01*
X89680341Y-89801531D01*
X89796059Y-89826128D01*
X89796063Y-89826128D01*
X89802516Y-89827500D01*
X89997484Y-89827500D01*
X90003937Y-89826128D01*
X90003941Y-89826128D01*
X90119659Y-89801531D01*
X90188192Y-89786964D01*
X90254264Y-89757547D01*
X90360275Y-89710348D01*
X90360277Y-89710347D01*
X90366305Y-89707663D01*
X90408083Y-89677310D01*
X90518698Y-89596943D01*
X90524037Y-89593064D01*
X90614733Y-89492337D01*
X90650078Y-89453082D01*
X90650079Y-89453081D01*
X90654497Y-89448174D01*
X90751981Y-89279326D01*
X90794748Y-89147703D01*
X90810189Y-89100179D01*
X90810189Y-89100178D01*
X90812229Y-89093900D01*
X90832609Y-88900000D01*
X90812229Y-88706100D01*
X90751981Y-88520674D01*
X90654497Y-88351826D01*
X90524037Y-88206936D01*
X90366305Y-88092337D01*
X90360277Y-88089653D01*
X90360275Y-88089652D01*
X90194223Y-88015721D01*
X90194222Y-88015721D01*
X90188192Y-88013036D01*
X90092838Y-87992768D01*
X90003941Y-87973872D01*
X90003937Y-87973872D01*
X89997484Y-87972500D01*
X89802516Y-87972500D01*
X89796063Y-87973872D01*
X89796059Y-87973872D01*
X89707162Y-87992768D01*
X89611808Y-88013036D01*
X89605779Y-88015720D01*
X89605777Y-88015721D01*
X89439726Y-88089652D01*
X89439724Y-88089653D01*
X89433696Y-88092337D01*
X89275963Y-88206936D01*
X89145503Y-88351826D01*
X89048019Y-88520674D01*
X88987771Y-88706100D01*
X88967391Y-88900000D01*
X82075200Y-88900000D01*
X82075200Y-86229000D01*
X83767391Y-86229000D01*
X83787771Y-86422900D01*
X83848019Y-86608326D01*
X83945503Y-86777174D01*
X83949921Y-86782081D01*
X83949922Y-86782082D01*
X84063418Y-86908131D01*
X84075963Y-86922064D01*
X84233695Y-87036663D01*
X84239723Y-87039347D01*
X84239725Y-87039348D01*
X84405777Y-87113279D01*
X84411808Y-87115964D01*
X84507162Y-87136232D01*
X84596059Y-87155128D01*
X84596063Y-87155128D01*
X84602516Y-87156500D01*
X84797484Y-87156500D01*
X84803937Y-87155128D01*
X84803941Y-87155128D01*
X84892838Y-87136232D01*
X84988192Y-87115964D01*
X84994223Y-87113279D01*
X85160275Y-87039348D01*
X85160277Y-87039347D01*
X85166305Y-87036663D01*
X85324037Y-86922064D01*
X85336583Y-86908131D01*
X85450078Y-86782082D01*
X85450079Y-86782081D01*
X85454497Y-86777174D01*
X85551981Y-86608326D01*
X85612229Y-86422900D01*
X85632609Y-86229000D01*
X85612229Y-86035100D01*
X85551981Y-85849674D01*
X85454497Y-85680826D01*
X85324037Y-85535936D01*
X85174788Y-85427500D01*
X85171647Y-85425218D01*
X85171646Y-85425217D01*
X85166305Y-85421337D01*
X85160277Y-85418653D01*
X85160275Y-85418652D01*
X84994223Y-85344721D01*
X84994222Y-85344721D01*
X84988192Y-85342036D01*
X84892838Y-85321768D01*
X84803941Y-85302872D01*
X84803937Y-85302872D01*
X84797484Y-85301500D01*
X84602516Y-85301500D01*
X84596063Y-85302872D01*
X84596059Y-85302872D01*
X84507162Y-85321768D01*
X84411808Y-85342036D01*
X84405779Y-85344720D01*
X84405777Y-85344721D01*
X84239726Y-85418652D01*
X84239724Y-85418653D01*
X84233696Y-85421337D01*
X84228355Y-85425217D01*
X84228354Y-85425218D01*
X84225213Y-85427500D01*
X84075963Y-85535936D01*
X83945503Y-85680826D01*
X83848019Y-85849674D01*
X83787771Y-86035100D01*
X83767391Y-86229000D01*
X82075200Y-86229000D01*
X82075200Y-78911785D01*
X82095202Y-78843664D01*
X82112105Y-78822690D01*
X83648105Y-77286690D01*
X83654371Y-77280836D01*
X83689100Y-77250540D01*
X83694827Y-77245544D01*
X83728991Y-77196932D01*
X83732905Y-77191664D01*
X83735652Y-77188161D01*
X83769549Y-77144931D01*
X83772676Y-77138005D01*
X83776371Y-77131904D01*
X83779058Y-77127195D01*
X83782451Y-77120866D01*
X83786820Y-77114650D01*
X83808391Y-77059324D01*
X83810946Y-77053246D01*
X83832262Y-77006037D01*
X83832263Y-77006034D01*
X83835386Y-76999117D01*
X83836769Y-76991653D01*
X83838904Y-76984842D01*
X83840394Y-76979612D01*
X83842176Y-76972670D01*
X83844936Y-76965591D01*
X83852686Y-76906720D01*
X83853718Y-76900204D01*
X83863157Y-76849276D01*
X83864541Y-76841809D01*
X83861209Y-76784024D01*
X83861000Y-76776772D01*
X83861000Y-76349913D01*
X83881002Y-76281792D01*
X83934658Y-76235299D01*
X84004932Y-76225195D01*
X84066649Y-76253381D01*
X84066739Y-76253261D01*
X84183295Y-76340615D01*
X84319684Y-76391745D01*
X84381866Y-76398500D01*
X86178134Y-76398500D01*
X86240316Y-76391745D01*
X86376705Y-76340615D01*
X86493261Y-76253261D01*
X86580615Y-76136705D01*
X86631745Y-76000316D01*
X86638500Y-75938134D01*
X86638500Y-74141866D01*
X86631745Y-74079684D01*
X86580615Y-73943295D01*
X86493261Y-73826739D01*
X86376705Y-73739385D01*
X86240316Y-73688255D01*
X86178134Y-73681500D01*
X84381866Y-73681500D01*
X84319684Y-73688255D01*
X84183295Y-73739385D01*
X84066739Y-73826739D01*
X84065437Y-73825002D01*
X84013783Y-73853208D01*
X83942968Y-73848143D01*
X83886132Y-73805596D01*
X83861321Y-73739076D01*
X83861000Y-73730087D01*
X83861000Y-65880985D01*
X83881002Y-65812864D01*
X83897905Y-65791890D01*
X84131865Y-65557930D01*
X84194177Y-65523904D01*
X84246081Y-65523555D01*
X84388526Y-65552536D01*
X84388534Y-65552537D01*
X84393597Y-65553567D01*
X84518062Y-65558131D01*
X84611673Y-65561564D01*
X84611677Y-65561564D01*
X84616837Y-65561753D01*
X84621957Y-65561097D01*
X84621959Y-65561097D01*
X84833288Y-65534025D01*
X84833289Y-65534025D01*
X84838416Y-65533368D01*
X84843366Y-65531883D01*
X85047429Y-65470661D01*
X85047434Y-65470659D01*
X85052384Y-65469174D01*
X85252994Y-65370896D01*
X85434860Y-65241173D01*
X85438948Y-65237100D01*
X85578616Y-65097918D01*
X85593096Y-65083489D01*
X85621853Y-65043470D01*
X85723453Y-64902077D01*
X85724776Y-64903028D01*
X85771645Y-64859857D01*
X85841580Y-64847625D01*
X85907026Y-64875144D01*
X85934875Y-64906994D01*
X85994987Y-65005088D01*
X86141250Y-65173938D01*
X86313126Y-65316632D01*
X86506000Y-65429338D01*
X86714692Y-65509030D01*
X86719760Y-65510061D01*
X86719763Y-65510062D01*
X86814862Y-65529410D01*
X86933597Y-65553567D01*
X86938772Y-65553757D01*
X86938774Y-65553757D01*
X87151673Y-65561564D01*
X87151677Y-65561564D01*
X87156837Y-65561753D01*
X87161957Y-65561097D01*
X87161959Y-65561097D01*
X87296990Y-65543799D01*
X87367100Y-65554983D01*
X87420034Y-65602297D01*
X87439000Y-65668778D01*
X87439000Y-79143173D01*
X87418998Y-79211294D01*
X87365342Y-79257787D01*
X87295068Y-79267891D01*
X87238939Y-79245109D01*
X87171647Y-79196218D01*
X87171646Y-79196217D01*
X87166305Y-79192337D01*
X87160277Y-79189653D01*
X87160275Y-79189652D01*
X86994223Y-79115721D01*
X86994222Y-79115721D01*
X86988192Y-79113036D01*
X86892838Y-79092768D01*
X86803941Y-79073872D01*
X86803937Y-79073872D01*
X86797484Y-79072500D01*
X86602516Y-79072500D01*
X86596063Y-79073872D01*
X86596059Y-79073872D01*
X86507162Y-79092768D01*
X86411808Y-79113036D01*
X86405779Y-79115720D01*
X86405777Y-79115721D01*
X86239726Y-79189652D01*
X86239724Y-79189653D01*
X86233696Y-79192337D01*
X86228355Y-79196217D01*
X86228354Y-79196218D01*
X86099159Y-79290083D01*
X86075963Y-79306936D01*
X86071550Y-79311838D01*
X86071548Y-79311839D01*
X85953338Y-79443124D01*
X85945503Y-79451826D01*
X85942200Y-79457547D01*
X85920681Y-79494820D01*
X85848019Y-79620674D01*
X85787771Y-79806100D01*
X85787081Y-79812663D01*
X85787081Y-79812664D01*
X85772926Y-79947339D01*
X85767391Y-80000000D01*
X85768081Y-80006565D01*
X85784656Y-80164259D01*
X85787771Y-80193900D01*
X85789811Y-80200178D01*
X85789811Y-80200179D01*
X85813050Y-80271702D01*
X85848019Y-80379326D01*
X85851322Y-80385048D01*
X85851323Y-80385049D01*
X85861148Y-80402066D01*
X85945503Y-80548174D01*
X85949921Y-80553081D01*
X85949922Y-80553082D01*
X85992168Y-80600000D01*
X86075963Y-80693064D01*
X86081302Y-80696943D01*
X86216770Y-80795366D01*
X86233695Y-80807663D01*
X86239723Y-80810347D01*
X86239725Y-80810348D01*
X86405777Y-80884279D01*
X86411808Y-80886964D01*
X86491778Y-80903962D01*
X86596059Y-80926128D01*
X86596063Y-80926128D01*
X86602516Y-80927500D01*
X86797484Y-80927500D01*
X86803937Y-80926128D01*
X86803941Y-80926128D01*
X86908222Y-80903962D01*
X86988192Y-80886964D01*
X86994223Y-80884279D01*
X87114229Y-80830849D01*
X87184596Y-80821415D01*
X87248893Y-80851522D01*
X87286707Y-80911610D01*
X87290877Y-80933660D01*
X87292214Y-80947297D01*
X87304163Y-81069160D01*
X87361418Y-81241273D01*
X87365065Y-81247295D01*
X87365066Y-81247297D01*
X87451720Y-81390380D01*
X87455380Y-81396424D01*
X87460269Y-81401487D01*
X87460270Y-81401488D01*
X87493573Y-81435974D01*
X87581382Y-81526902D01*
X87733159Y-81626222D01*
X87739763Y-81628678D01*
X87739765Y-81628679D01*
X87896558Y-81686990D01*
X87896560Y-81686990D01*
X87903168Y-81689448D01*
X87986995Y-81700633D01*
X88075980Y-81712507D01*
X88075984Y-81712507D01*
X88082961Y-81713438D01*
X88089972Y-81712800D01*
X88089976Y-81712800D01*
X88232459Y-81699832D01*
X88263600Y-81696998D01*
X88270302Y-81694820D01*
X88270304Y-81694820D01*
X88429409Y-81643124D01*
X88429412Y-81643123D01*
X88436108Y-81640947D01*
X88571787Y-81560066D01*
X88585860Y-81551677D01*
X88585862Y-81551676D01*
X88591912Y-81548069D01*
X88723266Y-81422982D01*
X88823643Y-81271902D01*
X88888055Y-81102338D01*
X88891582Y-81077241D01*
X88912748Y-80926639D01*
X88912748Y-80926636D01*
X88913299Y-80922717D01*
X88913616Y-80900000D01*
X88893397Y-80719745D01*
X88889546Y-80708685D01*
X88850326Y-80596062D01*
X88833745Y-80548448D01*
X88829999Y-80542453D01*
X88780146Y-80462670D01*
X88761000Y-80395901D01*
X88761000Y-66989055D01*
X88781002Y-66920934D01*
X88834658Y-66874441D01*
X88904932Y-66864337D01*
X88969512Y-66893831D01*
X89002372Y-66938407D01*
X89021434Y-66981829D01*
X89023914Y-66987904D01*
X89044917Y-67043488D01*
X89049219Y-67049747D01*
X89052540Y-67056100D01*
X89055175Y-67060834D01*
X89058820Y-67066997D01*
X89061871Y-67073948D01*
X89066493Y-67079971D01*
X89066495Y-67079975D01*
X89098017Y-67121056D01*
X89101893Y-67126391D01*
X89131232Y-67169078D01*
X89131235Y-67169081D01*
X89135535Y-67175338D01*
X89141202Y-67180387D01*
X89178768Y-67213857D01*
X89184044Y-67218839D01*
X89302095Y-67336890D01*
X89336121Y-67399202D01*
X89339000Y-67425985D01*
X89339000Y-77372725D01*
X89338708Y-77381295D01*
X89335736Y-77424895D01*
X89335057Y-77434848D01*
X89336362Y-77442324D01*
X89336362Y-77442327D01*
X89345267Y-77493349D01*
X89346230Y-77499875D01*
X89352450Y-77551278D01*
X89352453Y-77551288D01*
X89353365Y-77558829D01*
X89356052Y-77565939D01*
X89357766Y-77572918D01*
X89359186Y-77578108D01*
X89361258Y-77584973D01*
X89362564Y-77592453D01*
X89386442Y-77646847D01*
X89388914Y-77652903D01*
X89409917Y-77708488D01*
X89414219Y-77714747D01*
X89417540Y-77721100D01*
X89420175Y-77725834D01*
X89423820Y-77731997D01*
X89426871Y-77738948D01*
X89431493Y-77744971D01*
X89431495Y-77744975D01*
X89463017Y-77786056D01*
X89466893Y-77791391D01*
X89496232Y-77834078D01*
X89496235Y-77834081D01*
X89500535Y-77840338D01*
X89506202Y-77845387D01*
X89543768Y-77878857D01*
X89549044Y-77883839D01*
X90002095Y-78336890D01*
X90036121Y-78399202D01*
X90039000Y-78425985D01*
X90039000Y-80096004D01*
X90018913Y-80164256D01*
X89971235Y-80238238D01*
X89968826Y-80244858D01*
X89968824Y-80244861D01*
X89960614Y-80267419D01*
X89909197Y-80408685D01*
X89886463Y-80588640D01*
X89904163Y-80769160D01*
X89961418Y-80941273D01*
X89965065Y-80947295D01*
X89965066Y-80947297D01*
X90051359Y-81089784D01*
X90055380Y-81096424D01*
X90060269Y-81101487D01*
X90060270Y-81101488D01*
X90105355Y-81148174D01*
X90181382Y-81226902D01*
X90206305Y-81243211D01*
X90319583Y-81317338D01*
X90333159Y-81326222D01*
X90339763Y-81328678D01*
X90339765Y-81328679D01*
X90496558Y-81386990D01*
X90496560Y-81386990D01*
X90503168Y-81389448D01*
X90581268Y-81399869D01*
X90675980Y-81412507D01*
X90675984Y-81412507D01*
X90682961Y-81413438D01*
X90689972Y-81412800D01*
X90689976Y-81412800D01*
X90832459Y-81399832D01*
X90863600Y-81396998D01*
X90870302Y-81394820D01*
X90870304Y-81394820D01*
X91029409Y-81343124D01*
X91029412Y-81343123D01*
X91036108Y-81340947D01*
X91151932Y-81271902D01*
X91185860Y-81251677D01*
X91185862Y-81251676D01*
X91191912Y-81248069D01*
X91323266Y-81122982D01*
X91423643Y-80971902D01*
X91480808Y-80821415D01*
X91485555Y-80808920D01*
X91485556Y-80808918D01*
X91488055Y-80802338D01*
X91489035Y-80795366D01*
X91512748Y-80626639D01*
X91512748Y-80626636D01*
X91513299Y-80622717D01*
X91513616Y-80600000D01*
X91493397Y-80419745D01*
X91489546Y-80408685D01*
X91436063Y-80255105D01*
X91433745Y-80248448D01*
X91423667Y-80232319D01*
X91380146Y-80162670D01*
X91361000Y-80095901D01*
X91361000Y-78127264D01*
X91361292Y-78118695D01*
X91364426Y-78072727D01*
X91364426Y-78072723D01*
X91364942Y-78065151D01*
X91354735Y-78006669D01*
X91353772Y-78000142D01*
X91347549Y-77948718D01*
X91347548Y-77948712D01*
X91346635Y-77941171D01*
X91343949Y-77934064D01*
X91342234Y-77927081D01*
X91340829Y-77921944D01*
X91338741Y-77915028D01*
X91337435Y-77907546D01*
X91313568Y-77853176D01*
X91311077Y-77847072D01*
X91292768Y-77798617D01*
X91292767Y-77798615D01*
X91290083Y-77791512D01*
X91285782Y-77785254D01*
X91282459Y-77778897D01*
X91279837Y-77774188D01*
X91276183Y-77768009D01*
X91273129Y-77761052D01*
X91268506Y-77755028D01*
X91268503Y-77755022D01*
X91236983Y-77713944D01*
X91233107Y-77708609D01*
X91203768Y-77665922D01*
X91203765Y-77665919D01*
X91199465Y-77659662D01*
X91156232Y-77621143D01*
X91150956Y-77616161D01*
X90697905Y-77163110D01*
X90663879Y-77100798D01*
X90661000Y-77074015D01*
X90661000Y-67127275D01*
X90661292Y-67118705D01*
X90664427Y-67072728D01*
X90664427Y-67072724D01*
X90664943Y-67065152D01*
X90662728Y-67052460D01*
X90654733Y-67006651D01*
X90653770Y-67000125D01*
X90647550Y-66948722D01*
X90647547Y-66948712D01*
X90646635Y-66941171D01*
X90643948Y-66934061D01*
X90642234Y-66927082D01*
X90640814Y-66921892D01*
X90638742Y-66915027D01*
X90637436Y-66907547D01*
X90613558Y-66853153D01*
X90611086Y-66847097D01*
X90590083Y-66791512D01*
X90585781Y-66785253D01*
X90582460Y-66778900D01*
X90579825Y-66774166D01*
X90576180Y-66768003D01*
X90573129Y-66761052D01*
X90568507Y-66755029D01*
X90568505Y-66755025D01*
X90536983Y-66713944D01*
X90533107Y-66708609D01*
X90503768Y-66665922D01*
X90503765Y-66665919D01*
X90499465Y-66659662D01*
X90456232Y-66621143D01*
X90450956Y-66616161D01*
X90332905Y-66498110D01*
X90298879Y-66435798D01*
X90296000Y-66409015D01*
X90296000Y-65462178D01*
X90316002Y-65394057D01*
X90348832Y-65359599D01*
X90364147Y-65348675D01*
X90514860Y-65241173D01*
X90518948Y-65237100D01*
X90658616Y-65097918D01*
X90673096Y-65083489D01*
X90701853Y-65043470D01*
X90803453Y-64902077D01*
X90804776Y-64903028D01*
X90851645Y-64859857D01*
X90921580Y-64847625D01*
X90987026Y-64875144D01*
X91014875Y-64906994D01*
X91074987Y-65005088D01*
X91221250Y-65173938D01*
X91393126Y-65316632D01*
X91451572Y-65350785D01*
X91500294Y-65402423D01*
X91514000Y-65459572D01*
X91514000Y-77238791D01*
X91513708Y-77247361D01*
X91511027Y-77286690D01*
X91510057Y-77300914D01*
X91511362Y-77308390D01*
X91511362Y-77308393D01*
X91520267Y-77359415D01*
X91521230Y-77365941D01*
X91527450Y-77417344D01*
X91527453Y-77417354D01*
X91528365Y-77424895D01*
X91531052Y-77432005D01*
X91532766Y-77438984D01*
X91534186Y-77444174D01*
X91536258Y-77451039D01*
X91537564Y-77458519D01*
X91561442Y-77512913D01*
X91563914Y-77518969D01*
X91584917Y-77574554D01*
X91589219Y-77580813D01*
X91592540Y-77587166D01*
X91595175Y-77591900D01*
X91598820Y-77598063D01*
X91601871Y-77605014D01*
X91606493Y-77611037D01*
X91606495Y-77611041D01*
X91638017Y-77652122D01*
X91641893Y-77657457D01*
X91671232Y-77700144D01*
X91671235Y-77700147D01*
X91675535Y-77706404D01*
X91681202Y-77711453D01*
X91718768Y-77744923D01*
X91724044Y-77749905D01*
X92315155Y-78341016D01*
X92321008Y-78347281D01*
X92356301Y-78387738D01*
X92404913Y-78421902D01*
X92410178Y-78425814D01*
X92456914Y-78462460D01*
X92463840Y-78465587D01*
X92469941Y-78469282D01*
X92474652Y-78471970D01*
X92480979Y-78475362D01*
X92487195Y-78479731D01*
X92542507Y-78501296D01*
X92548583Y-78503850D01*
X92602728Y-78528298D01*
X92601908Y-78530114D01*
X92642954Y-78554974D01*
X94573595Y-80485615D01*
X94607621Y-80547927D01*
X94610500Y-80574710D01*
X94610500Y-80659449D01*
X94590498Y-80727570D01*
X94573595Y-80748544D01*
X94404395Y-80917744D01*
X94398130Y-80923597D01*
X94357673Y-80958890D01*
X94323509Y-81007502D01*
X94319597Y-81012767D01*
X94282951Y-81059503D01*
X94279824Y-81066429D01*
X94276129Y-81072530D01*
X94273441Y-81077241D01*
X94270049Y-81083568D01*
X94265680Y-81089784D01*
X94250843Y-81127841D01*
X94244118Y-81145089D01*
X94241561Y-81151172D01*
X94220242Y-81198388D01*
X94217114Y-81205316D01*
X94215729Y-81212791D01*
X94213573Y-81219670D01*
X94212121Y-81224766D01*
X94210324Y-81231763D01*
X94207564Y-81238843D01*
X94206572Y-81246376D01*
X94206572Y-81246377D01*
X94199813Y-81297718D01*
X94198781Y-81304233D01*
X94187959Y-81362625D01*
X94188396Y-81370205D01*
X94188396Y-81370206D01*
X94191291Y-81420409D01*
X94191500Y-81427662D01*
X94191500Y-90542327D01*
X94171498Y-90610448D01*
X94153657Y-90632351D01*
X94138782Y-90646918D01*
X94069493Y-90714771D01*
X93971235Y-90867238D01*
X93968826Y-90873858D01*
X93968824Y-90873861D01*
X93922978Y-90999821D01*
X93909197Y-91037685D01*
X93886463Y-91217640D01*
X93904163Y-91398160D01*
X93961418Y-91570273D01*
X93965065Y-91576295D01*
X93965066Y-91576297D01*
X93975978Y-91594314D01*
X94055380Y-91725424D01*
X94060269Y-91730487D01*
X94060270Y-91730488D01*
X94081027Y-91751982D01*
X94181382Y-91855902D01*
X94333159Y-91955222D01*
X94339763Y-91957678D01*
X94339765Y-91957679D01*
X94496558Y-92015990D01*
X94496560Y-92015990D01*
X94503168Y-92018448D01*
X94586995Y-92029633D01*
X94675980Y-92041507D01*
X94675984Y-92041507D01*
X94682961Y-92042438D01*
X94689972Y-92041800D01*
X94689976Y-92041800D01*
X94832459Y-92028832D01*
X94863600Y-92025998D01*
X94870302Y-92023820D01*
X94870304Y-92023820D01*
X95029409Y-91972124D01*
X95029412Y-91972123D01*
X95036108Y-91969947D01*
X95191912Y-91877069D01*
X95323266Y-91751982D01*
X95423643Y-91600902D01*
X95488055Y-91431338D01*
X95489035Y-91424366D01*
X95512748Y-91255639D01*
X95512748Y-91255636D01*
X95513299Y-91251717D01*
X95513452Y-91240738D01*
X95513561Y-91232962D01*
X95513561Y-91232957D01*
X95513616Y-91229000D01*
X95509950Y-91196316D01*
X95509259Y-91190156D01*
X95510584Y-91153149D01*
X95515657Y-91125777D01*
X95515657Y-91125776D01*
X95517041Y-91118309D01*
X95513709Y-91060524D01*
X95513500Y-91053272D01*
X95513500Y-89798134D01*
X102141500Y-89798134D01*
X102148255Y-89860316D01*
X102199385Y-89996705D01*
X102286739Y-90113261D01*
X102403295Y-90200615D01*
X102539684Y-90251745D01*
X102601866Y-90258500D01*
X104398134Y-90258500D01*
X104460316Y-90251745D01*
X104596705Y-90200615D01*
X104713261Y-90113261D01*
X104800615Y-89996705D01*
X104837568Y-89898134D01*
X117141500Y-89898134D01*
X117148255Y-89960316D01*
X117199385Y-90096705D01*
X117286739Y-90213261D01*
X117403295Y-90300615D01*
X117539684Y-90351745D01*
X117601866Y-90358500D01*
X119398134Y-90358500D01*
X119460316Y-90351745D01*
X119596705Y-90300615D01*
X119713261Y-90213261D01*
X119800615Y-90096705D01*
X119851745Y-89960316D01*
X119858500Y-89898134D01*
X119858500Y-88101866D01*
X119851745Y-88039684D01*
X119800615Y-87903295D01*
X119713261Y-87786739D01*
X119596705Y-87699385D01*
X119460316Y-87648255D01*
X119398134Y-87641500D01*
X117601866Y-87641500D01*
X117539684Y-87648255D01*
X117403295Y-87699385D01*
X117286739Y-87786739D01*
X117199385Y-87903295D01*
X117148255Y-88039684D01*
X117141500Y-88101866D01*
X117141500Y-89898134D01*
X104837568Y-89898134D01*
X104851745Y-89860316D01*
X104858500Y-89798134D01*
X104858500Y-88001866D01*
X104851745Y-87939684D01*
X104800615Y-87803295D01*
X104713261Y-87686739D01*
X104596705Y-87599385D01*
X104460316Y-87548255D01*
X104398134Y-87541500D01*
X102601866Y-87541500D01*
X102539684Y-87548255D01*
X102403295Y-87599385D01*
X102286739Y-87686739D01*
X102199385Y-87803295D01*
X102148255Y-87939684D01*
X102141500Y-88001866D01*
X102141500Y-89798134D01*
X95513500Y-89798134D01*
X95513500Y-84500000D01*
X115367391Y-84500000D01*
X115387771Y-84693900D01*
X115448019Y-84879326D01*
X115545503Y-85048174D01*
X115549921Y-85053081D01*
X115549922Y-85053082D01*
X115642806Y-85156239D01*
X115675963Y-85193064D01*
X115681302Y-85196943D01*
X115827101Y-85302872D01*
X115833695Y-85307663D01*
X115839723Y-85310347D01*
X115839725Y-85310348D01*
X115919801Y-85346000D01*
X116011808Y-85386964D01*
X116107162Y-85407232D01*
X116196059Y-85426128D01*
X116196063Y-85426128D01*
X116202516Y-85427500D01*
X116397484Y-85427500D01*
X116403937Y-85426128D01*
X116403941Y-85426128D01*
X116492838Y-85407232D01*
X116588192Y-85386964D01*
X116680199Y-85346000D01*
X116760275Y-85310348D01*
X116760277Y-85310347D01*
X116766305Y-85307663D01*
X116772900Y-85302872D01*
X116918698Y-85196943D01*
X116924037Y-85193064D01*
X116957195Y-85156239D01*
X117050078Y-85053082D01*
X117050079Y-85053081D01*
X117054497Y-85048174D01*
X117151981Y-84879326D01*
X117212229Y-84693900D01*
X117232609Y-84500000D01*
X117213579Y-84318942D01*
X117212919Y-84312664D01*
X117212919Y-84312663D01*
X117212229Y-84306100D01*
X117151981Y-84120674D01*
X117054497Y-83951826D01*
X116936355Y-83820616D01*
X116928452Y-83811839D01*
X116928450Y-83811838D01*
X116924037Y-83806936D01*
X116848818Y-83752286D01*
X116771647Y-83696218D01*
X116771646Y-83696217D01*
X116766305Y-83692337D01*
X116760277Y-83689653D01*
X116760275Y-83689652D01*
X116594223Y-83615721D01*
X116594222Y-83615721D01*
X116588192Y-83613036D01*
X116492838Y-83592768D01*
X116403941Y-83573872D01*
X116403937Y-83573872D01*
X116397484Y-83572500D01*
X116202516Y-83572500D01*
X116196063Y-83573872D01*
X116196059Y-83573872D01*
X116107162Y-83592768D01*
X116011808Y-83613036D01*
X116005779Y-83615720D01*
X116005777Y-83615721D01*
X115839726Y-83689652D01*
X115839724Y-83689653D01*
X115833696Y-83692337D01*
X115675963Y-83806936D01*
X115671550Y-83811838D01*
X115671548Y-83811839D01*
X115663645Y-83820616D01*
X115545503Y-83951826D01*
X115448019Y-84120674D01*
X115387771Y-84306100D01*
X115387081Y-84312663D01*
X115387081Y-84312664D01*
X115386421Y-84318942D01*
X115367391Y-84500000D01*
X95513500Y-84500000D01*
X95513500Y-82550000D01*
X109576496Y-82550000D01*
X109596458Y-82739928D01*
X109655473Y-82921556D01*
X109750960Y-83086944D01*
X109878747Y-83228866D01*
X110033248Y-83341118D01*
X110039276Y-83343802D01*
X110039278Y-83343803D01*
X110201681Y-83416109D01*
X110207712Y-83418794D01*
X110301112Y-83438647D01*
X110388056Y-83457128D01*
X110388061Y-83457128D01*
X110394513Y-83458500D01*
X110585487Y-83458500D01*
X110591939Y-83457128D01*
X110591944Y-83457128D01*
X110678888Y-83438647D01*
X110772288Y-83418794D01*
X110778319Y-83416109D01*
X110940722Y-83343803D01*
X110940724Y-83343802D01*
X110946752Y-83341118D01*
X111101253Y-83228866D01*
X111229040Y-83086944D01*
X111324527Y-82921556D01*
X111383542Y-82739928D01*
X111403504Y-82550000D01*
X111387407Y-82396845D01*
X111384232Y-82366635D01*
X111384232Y-82366633D01*
X111383542Y-82360072D01*
X111324527Y-82178444D01*
X111229040Y-82013056D01*
X111222618Y-82005923D01*
X111105675Y-81876045D01*
X111105674Y-81876044D01*
X111101253Y-81871134D01*
X110946752Y-81758882D01*
X110940724Y-81756198D01*
X110940722Y-81756197D01*
X110778319Y-81683891D01*
X110778318Y-81683891D01*
X110772288Y-81681206D01*
X110643594Y-81653851D01*
X110591944Y-81642872D01*
X110591939Y-81642872D01*
X110585487Y-81641500D01*
X110394513Y-81641500D01*
X110388061Y-81642872D01*
X110388056Y-81642872D01*
X110336406Y-81653851D01*
X110207712Y-81681206D01*
X110201682Y-81683891D01*
X110201681Y-81683891D01*
X110039278Y-81756197D01*
X110039276Y-81756198D01*
X110033248Y-81758882D01*
X109878747Y-81871134D01*
X109874326Y-81876044D01*
X109874325Y-81876045D01*
X109757383Y-82005923D01*
X109750960Y-82013056D01*
X109655473Y-82178444D01*
X109596458Y-82360072D01*
X109595768Y-82366633D01*
X109595768Y-82366635D01*
X109592593Y-82396845D01*
X109576496Y-82550000D01*
X95513500Y-82550000D01*
X95513500Y-81730419D01*
X95533502Y-81662298D01*
X95550405Y-81641324D01*
X95719605Y-81472124D01*
X95725871Y-81466270D01*
X95760600Y-81435974D01*
X95766327Y-81430978D01*
X95800474Y-81382391D01*
X95804406Y-81377097D01*
X95809809Y-81370206D01*
X95841049Y-81330365D01*
X95844176Y-81323439D01*
X95847871Y-81317338D01*
X95850559Y-81312627D01*
X95853951Y-81306300D01*
X95858320Y-81300084D01*
X95879889Y-81244762D01*
X95882442Y-81238687D01*
X95890052Y-81221834D01*
X95906885Y-81184552D01*
X95908270Y-81177082D01*
X95910422Y-81170213D01*
X95911893Y-81165050D01*
X95913677Y-81158102D01*
X95916436Y-81151025D01*
X95924188Y-81092144D01*
X95925219Y-81085630D01*
X95927104Y-81075463D01*
X95936041Y-81027243D01*
X95935207Y-81012770D01*
X95932709Y-80969459D01*
X95932500Y-80962206D01*
X95932500Y-80275988D01*
X95932792Y-80267419D01*
X95935926Y-80221451D01*
X95935926Y-80221447D01*
X95936442Y-80213875D01*
X95926235Y-80155393D01*
X95925272Y-80148866D01*
X95919049Y-80097442D01*
X95919048Y-80097436D01*
X95918135Y-80089895D01*
X95915449Y-80082788D01*
X95913734Y-80075805D01*
X95912332Y-80070679D01*
X95910241Y-80063756D01*
X95908935Y-80056270D01*
X95885063Y-80001888D01*
X95882582Y-79995808D01*
X95864267Y-79947339D01*
X95861583Y-79940236D01*
X95857280Y-79933975D01*
X95853957Y-79927619D01*
X95851348Y-79922930D01*
X95847683Y-79916733D01*
X95844629Y-79909775D01*
X95840006Y-79903750D01*
X95840004Y-79903747D01*
X95808475Y-79862659D01*
X95804597Y-79857321D01*
X95775267Y-79814645D01*
X95775265Y-79814643D01*
X95770965Y-79808386D01*
X95727732Y-79769867D01*
X95722456Y-79764885D01*
X93402376Y-77444806D01*
X93396522Y-77438540D01*
X93366226Y-77403811D01*
X93361230Y-77398084D01*
X93312618Y-77363920D01*
X93307350Y-77360006D01*
X93266594Y-77328049D01*
X93260617Y-77323362D01*
X93253691Y-77320235D01*
X93247590Y-77316540D01*
X93242879Y-77313852D01*
X93236552Y-77310460D01*
X93230336Y-77306091D01*
X93175024Y-77284526D01*
X93168948Y-77281972D01*
X93114803Y-77257524D01*
X93115623Y-77255708D01*
X93074577Y-77230848D01*
X92872905Y-77029176D01*
X92838879Y-76966864D01*
X92836000Y-76940081D01*
X92836000Y-76500000D01*
X104767391Y-76500000D01*
X104787771Y-76693900D01*
X104848019Y-76879326D01*
X104851322Y-76885048D01*
X104851323Y-76885049D01*
X104917180Y-76999117D01*
X104945503Y-77048174D01*
X104949921Y-77053081D01*
X104949922Y-77053082D01*
X105032624Y-77144931D01*
X105075963Y-77193064D01*
X105081302Y-77196943D01*
X105200647Y-77283652D01*
X105233695Y-77307663D01*
X105239723Y-77310347D01*
X105239725Y-77310348D01*
X105389455Y-77377012D01*
X105411808Y-77386964D01*
X105507162Y-77407232D01*
X105596059Y-77426128D01*
X105596063Y-77426128D01*
X105602516Y-77427500D01*
X105797484Y-77427500D01*
X105803937Y-77426128D01*
X105803941Y-77426128D01*
X105892838Y-77407232D01*
X105988192Y-77386964D01*
X106010545Y-77377012D01*
X106160275Y-77310348D01*
X106160277Y-77310347D01*
X106166305Y-77307663D01*
X106199354Y-77283652D01*
X106318698Y-77196943D01*
X106324037Y-77193064D01*
X106367377Y-77144931D01*
X106450078Y-77053082D01*
X106450079Y-77053081D01*
X106454497Y-77048174D01*
X106482820Y-76999117D01*
X106548677Y-76885049D01*
X106548678Y-76885048D01*
X106551981Y-76879326D01*
X106612229Y-76693900D01*
X106632609Y-76500000D01*
X106622699Y-76405715D01*
X106615386Y-76336134D01*
X111671500Y-76336134D01*
X111678255Y-76398316D01*
X111729385Y-76534705D01*
X111816739Y-76651261D01*
X111933295Y-76738615D01*
X112069684Y-76789745D01*
X112131866Y-76796500D01*
X113928134Y-76796500D01*
X113990316Y-76789745D01*
X114126705Y-76738615D01*
X114243261Y-76651261D01*
X114330615Y-76534705D01*
X114381745Y-76398316D01*
X114388500Y-76336134D01*
X114388500Y-76318134D01*
X119545500Y-76318134D01*
X119552255Y-76380316D01*
X119603385Y-76516705D01*
X119690739Y-76633261D01*
X119807295Y-76720615D01*
X119943684Y-76771745D01*
X120005866Y-76778500D01*
X121802134Y-76778500D01*
X121864316Y-76771745D01*
X122000705Y-76720615D01*
X122117261Y-76633261D01*
X122204615Y-76516705D01*
X122255745Y-76380316D01*
X122262500Y-76318134D01*
X122262500Y-74521866D01*
X122255745Y-74459684D01*
X122204615Y-74323295D01*
X122117261Y-74206739D01*
X122000705Y-74119385D01*
X121864316Y-74068255D01*
X121802134Y-74061500D01*
X120005866Y-74061500D01*
X119943684Y-74068255D01*
X119807295Y-74119385D01*
X119690739Y-74206739D01*
X119603385Y-74323295D01*
X119552255Y-74459684D01*
X119545500Y-74521866D01*
X119545500Y-76318134D01*
X114388500Y-76318134D01*
X114388500Y-74539866D01*
X114381745Y-74477684D01*
X114330615Y-74341295D01*
X114243261Y-74224739D01*
X114126705Y-74137385D01*
X113990316Y-74086255D01*
X113928134Y-74079500D01*
X112131866Y-74079500D01*
X112069684Y-74086255D01*
X111933295Y-74137385D01*
X111816739Y-74224739D01*
X111729385Y-74341295D01*
X111678255Y-74477684D01*
X111671500Y-74539866D01*
X111671500Y-76336134D01*
X106615386Y-76336134D01*
X106612919Y-76312664D01*
X106612919Y-76312663D01*
X106612229Y-76306100D01*
X106601724Y-76273767D01*
X106562774Y-76153891D01*
X106551981Y-76120674D01*
X106542292Y-76103891D01*
X106457800Y-75957547D01*
X106454497Y-75951826D01*
X106448096Y-75944717D01*
X106328452Y-75811839D01*
X106328450Y-75811838D01*
X106324037Y-75806936D01*
X106263246Y-75762769D01*
X106171647Y-75696218D01*
X106171646Y-75696217D01*
X106166305Y-75692337D01*
X106160277Y-75689653D01*
X106160275Y-75689652D01*
X105994223Y-75615721D01*
X105994222Y-75615721D01*
X105988192Y-75613036D01*
X105892838Y-75592768D01*
X105803941Y-75573872D01*
X105803937Y-75573872D01*
X105797484Y-75572500D01*
X105602516Y-75572500D01*
X105596063Y-75573872D01*
X105596059Y-75573872D01*
X105507162Y-75592768D01*
X105411808Y-75613036D01*
X105405779Y-75615720D01*
X105405777Y-75615721D01*
X105239726Y-75689652D01*
X105239724Y-75689653D01*
X105233696Y-75692337D01*
X105228355Y-75696217D01*
X105228354Y-75696218D01*
X105099309Y-75789974D01*
X105075963Y-75806936D01*
X105071550Y-75811838D01*
X105071548Y-75811839D01*
X104951904Y-75944717D01*
X104945503Y-75951826D01*
X104942200Y-75957547D01*
X104857709Y-76103891D01*
X104848019Y-76120674D01*
X104837226Y-76153891D01*
X104798277Y-76273767D01*
X104787771Y-76306100D01*
X104787081Y-76312663D01*
X104787081Y-76312664D01*
X104777301Y-76405715D01*
X104767391Y-76500000D01*
X92836000Y-76500000D01*
X92836000Y-75948134D01*
X93911500Y-75948134D01*
X93918255Y-76010316D01*
X93969385Y-76146705D01*
X94056739Y-76263261D01*
X94173295Y-76350615D01*
X94309684Y-76401745D01*
X94371866Y-76408500D01*
X96168134Y-76408500D01*
X96230316Y-76401745D01*
X96366705Y-76350615D01*
X96483261Y-76263261D01*
X96570615Y-76146705D01*
X96621745Y-76010316D01*
X96628500Y-75948134D01*
X96628500Y-74151866D01*
X96621745Y-74089684D01*
X96570615Y-73953295D01*
X96483261Y-73836739D01*
X96366705Y-73749385D01*
X96230316Y-73698255D01*
X96168134Y-73691500D01*
X94371866Y-73691500D01*
X94309684Y-73698255D01*
X94173295Y-73749385D01*
X94056739Y-73836739D01*
X93969385Y-73953295D01*
X93918255Y-74089684D01*
X93911500Y-74151866D01*
X93911500Y-75948134D01*
X92836000Y-75948134D01*
X92836000Y-72300000D01*
X95767391Y-72300000D01*
X95768081Y-72306565D01*
X95776845Y-72389943D01*
X95787771Y-72493900D01*
X95848019Y-72679326D01*
X95851322Y-72685048D01*
X95851323Y-72685049D01*
X95865848Y-72710207D01*
X95945503Y-72848174D01*
X95949921Y-72853081D01*
X95949922Y-72853082D01*
X96035544Y-72948174D01*
X96075963Y-72993064D01*
X96233695Y-73107663D01*
X96239723Y-73110347D01*
X96239725Y-73110348D01*
X96405777Y-73184279D01*
X96411808Y-73186964D01*
X96490931Y-73203782D01*
X96596059Y-73226128D01*
X96596063Y-73226128D01*
X96602516Y-73227500D01*
X96797484Y-73227500D01*
X96803937Y-73226128D01*
X96803941Y-73226128D01*
X96909069Y-73203782D01*
X96988192Y-73186964D01*
X96994223Y-73184279D01*
X97160275Y-73110348D01*
X97160277Y-73110347D01*
X97166305Y-73107663D01*
X97324037Y-72993064D01*
X97364457Y-72948174D01*
X97450078Y-72853082D01*
X97450079Y-72853081D01*
X97454497Y-72848174D01*
X97534152Y-72710207D01*
X97548677Y-72685049D01*
X97548678Y-72685048D01*
X97551981Y-72679326D01*
X97612229Y-72493900D01*
X97623156Y-72389943D01*
X97631919Y-72306565D01*
X97632609Y-72300000D01*
X100567391Y-72300000D01*
X100568081Y-72306565D01*
X100576845Y-72389943D01*
X100587771Y-72493900D01*
X100648019Y-72679326D01*
X100651322Y-72685048D01*
X100651323Y-72685049D01*
X100665848Y-72710207D01*
X100745503Y-72848174D01*
X100749921Y-72853081D01*
X100749922Y-72853082D01*
X100835544Y-72948174D01*
X100875963Y-72993064D01*
X101033695Y-73107663D01*
X101039723Y-73110347D01*
X101039725Y-73110348D01*
X101205777Y-73184279D01*
X101211808Y-73186964D01*
X101290931Y-73203782D01*
X101396059Y-73226128D01*
X101396063Y-73226128D01*
X101402516Y-73227500D01*
X101597484Y-73227500D01*
X101603937Y-73226128D01*
X101603941Y-73226128D01*
X101709069Y-73203782D01*
X101788192Y-73186964D01*
X101794223Y-73184279D01*
X101960275Y-73110348D01*
X101960277Y-73110347D01*
X101966305Y-73107663D01*
X102124037Y-72993064D01*
X102164457Y-72948174D01*
X102250078Y-72853082D01*
X102250079Y-72853081D01*
X102254497Y-72848174D01*
X102334152Y-72710207D01*
X102348677Y-72685049D01*
X102348678Y-72685048D01*
X102351981Y-72679326D01*
X102412229Y-72493900D01*
X102422099Y-72400000D01*
X110467391Y-72400000D01*
X110468081Y-72406565D01*
X110476571Y-72487336D01*
X110487771Y-72593900D01*
X110489811Y-72600178D01*
X110489811Y-72600179D01*
X110507673Y-72655154D01*
X110548019Y-72779326D01*
X110645503Y-72948174D01*
X110649921Y-72953081D01*
X110649922Y-72953082D01*
X110681508Y-72988161D01*
X110775963Y-73093064D01*
X110781302Y-73096943D01*
X110907094Y-73188336D01*
X110933695Y-73207663D01*
X110939723Y-73210347D01*
X110939725Y-73210348D01*
X111105777Y-73284279D01*
X111111808Y-73286964D01*
X111207162Y-73307232D01*
X111296059Y-73326128D01*
X111296063Y-73326128D01*
X111302516Y-73327500D01*
X111497484Y-73327500D01*
X111503937Y-73326128D01*
X111503941Y-73326128D01*
X111592838Y-73307232D01*
X111688192Y-73286964D01*
X111694223Y-73284279D01*
X111860275Y-73210348D01*
X111860277Y-73210347D01*
X111866305Y-73207663D01*
X111892907Y-73188336D01*
X112018698Y-73096943D01*
X112024037Y-73093064D01*
X112118493Y-72988161D01*
X112150078Y-72953082D01*
X112150079Y-72953081D01*
X112154497Y-72948174D01*
X112251981Y-72779326D01*
X112292327Y-72655154D01*
X112310189Y-72600179D01*
X112310189Y-72600178D01*
X112312229Y-72593900D01*
X112323430Y-72487336D01*
X112331919Y-72406565D01*
X112332609Y-72400000D01*
X112321408Y-72293435D01*
X112312919Y-72212664D01*
X112312919Y-72212663D01*
X112312229Y-72206100D01*
X112251981Y-72020674D01*
X112154497Y-71851826D01*
X112069608Y-71757547D01*
X112028452Y-71711839D01*
X112028450Y-71711838D01*
X112024037Y-71706936D01*
X111866305Y-71592337D01*
X111860277Y-71589653D01*
X111860275Y-71589652D01*
X111694223Y-71515721D01*
X111694222Y-71515721D01*
X111688192Y-71513036D01*
X111590810Y-71492337D01*
X111503941Y-71473872D01*
X111503937Y-71473872D01*
X111497484Y-71472500D01*
X111302516Y-71472500D01*
X111296063Y-71473872D01*
X111296059Y-71473872D01*
X111209190Y-71492337D01*
X111111808Y-71513036D01*
X111105779Y-71515720D01*
X111105777Y-71515721D01*
X110939726Y-71589652D01*
X110939724Y-71589653D01*
X110933696Y-71592337D01*
X110928355Y-71596217D01*
X110928354Y-71596218D01*
X110781302Y-71703057D01*
X110775963Y-71706936D01*
X110771550Y-71711838D01*
X110771548Y-71711839D01*
X110730392Y-71757547D01*
X110645503Y-71851826D01*
X110548019Y-72020674D01*
X110487771Y-72206100D01*
X110487081Y-72212663D01*
X110487081Y-72212664D01*
X110478592Y-72293435D01*
X110467391Y-72400000D01*
X102422099Y-72400000D01*
X102423156Y-72389943D01*
X102431919Y-72306565D01*
X102432609Y-72300000D01*
X102424074Y-72218798D01*
X102412919Y-72112664D01*
X102412919Y-72112663D01*
X102412229Y-72106100D01*
X102351981Y-71920674D01*
X102254497Y-71751826D01*
X102250078Y-71746918D01*
X102128452Y-71611839D01*
X102128450Y-71611838D01*
X102124037Y-71606936D01*
X102100248Y-71589652D01*
X101971647Y-71496218D01*
X101971646Y-71496217D01*
X101966305Y-71492337D01*
X101960277Y-71489653D01*
X101960275Y-71489652D01*
X101794223Y-71415721D01*
X101794222Y-71415721D01*
X101788192Y-71413036D01*
X101692838Y-71392768D01*
X101603941Y-71373872D01*
X101603937Y-71373872D01*
X101597484Y-71372500D01*
X101402516Y-71372500D01*
X101396063Y-71373872D01*
X101396059Y-71373872D01*
X101307162Y-71392768D01*
X101211808Y-71413036D01*
X101205779Y-71415720D01*
X101205777Y-71415721D01*
X101039726Y-71489652D01*
X101039724Y-71489653D01*
X101033696Y-71492337D01*
X101028355Y-71496217D01*
X101028354Y-71496218D01*
X100896057Y-71592337D01*
X100875963Y-71606936D01*
X100871550Y-71611838D01*
X100871548Y-71611839D01*
X100749922Y-71746918D01*
X100745503Y-71751826D01*
X100648019Y-71920674D01*
X100587771Y-72106100D01*
X100587081Y-72112663D01*
X100587081Y-72112664D01*
X100575926Y-72218798D01*
X100567391Y-72300000D01*
X97632609Y-72300000D01*
X97624074Y-72218798D01*
X97612919Y-72112664D01*
X97612919Y-72112663D01*
X97612229Y-72106100D01*
X97551981Y-71920674D01*
X97454497Y-71751826D01*
X97450078Y-71746918D01*
X97328452Y-71611839D01*
X97328450Y-71611838D01*
X97324037Y-71606936D01*
X97300248Y-71589652D01*
X97171647Y-71496218D01*
X97171646Y-71496217D01*
X97166305Y-71492337D01*
X97160277Y-71489653D01*
X97160275Y-71489652D01*
X96994223Y-71415721D01*
X96994222Y-71415721D01*
X96988192Y-71413036D01*
X96892838Y-71392768D01*
X96803941Y-71373872D01*
X96803937Y-71373872D01*
X96797484Y-71372500D01*
X96602516Y-71372500D01*
X96596063Y-71373872D01*
X96596059Y-71373872D01*
X96507162Y-71392768D01*
X96411808Y-71413036D01*
X96405779Y-71415720D01*
X96405777Y-71415721D01*
X96239726Y-71489652D01*
X96239724Y-71489653D01*
X96233696Y-71492337D01*
X96228355Y-71496217D01*
X96228354Y-71496218D01*
X96096057Y-71592337D01*
X96075963Y-71606936D01*
X96071550Y-71611838D01*
X96071548Y-71611839D01*
X95949922Y-71746918D01*
X95945503Y-71751826D01*
X95848019Y-71920674D01*
X95787771Y-72106100D01*
X95787081Y-72112663D01*
X95787081Y-72112664D01*
X95775926Y-72218798D01*
X95767391Y-72300000D01*
X92836000Y-72300000D01*
X92836000Y-68098134D01*
X105741500Y-68098134D01*
X105748255Y-68160316D01*
X105799385Y-68296705D01*
X105886739Y-68413261D01*
X106003295Y-68500615D01*
X106139684Y-68551745D01*
X106201866Y-68558500D01*
X107998134Y-68558500D01*
X108060316Y-68551745D01*
X108196705Y-68500615D01*
X108313261Y-68413261D01*
X108400615Y-68296705D01*
X108451745Y-68160316D01*
X108458500Y-68098134D01*
X108458500Y-66998134D01*
X111741500Y-66998134D01*
X111748255Y-67060316D01*
X111799385Y-67196705D01*
X111886739Y-67313261D01*
X112003295Y-67400615D01*
X112139684Y-67451745D01*
X112201866Y-67458500D01*
X113998134Y-67458500D01*
X114060316Y-67451745D01*
X114196705Y-67400615D01*
X114313261Y-67313261D01*
X114400615Y-67196705D01*
X114451745Y-67060316D01*
X114458500Y-66998134D01*
X114458500Y-65201866D01*
X114451745Y-65139684D01*
X114400615Y-65003295D01*
X114313261Y-64886739D01*
X114196705Y-64799385D01*
X114060316Y-64748255D01*
X113998134Y-64741500D01*
X112201866Y-64741500D01*
X112139684Y-64748255D01*
X112003295Y-64799385D01*
X111886739Y-64886739D01*
X111799385Y-65003295D01*
X111748255Y-65139684D01*
X111741500Y-65201866D01*
X111741500Y-66998134D01*
X108458500Y-66998134D01*
X108458500Y-66301866D01*
X108451745Y-66239684D01*
X108400615Y-66103295D01*
X108313261Y-65986739D01*
X108196705Y-65899385D01*
X108060316Y-65848255D01*
X107998134Y-65841500D01*
X106201866Y-65841500D01*
X106139684Y-65848255D01*
X106003295Y-65899385D01*
X105886739Y-65986739D01*
X105799385Y-66103295D01*
X105748255Y-66239684D01*
X105741500Y-66301866D01*
X105741500Y-68098134D01*
X92836000Y-68098134D01*
X92836000Y-65462178D01*
X92856002Y-65394057D01*
X92888832Y-65359599D01*
X92904147Y-65348675D01*
X93054860Y-65241173D01*
X93058948Y-65237100D01*
X93198616Y-65097918D01*
X93213096Y-65083489D01*
X93241853Y-65043470D01*
X93343453Y-64902077D01*
X93344776Y-64903028D01*
X93391645Y-64859857D01*
X93461580Y-64847625D01*
X93527026Y-64875144D01*
X93554875Y-64906994D01*
X93614987Y-65005088D01*
X93761250Y-65173938D01*
X93933126Y-65316632D01*
X94126000Y-65429338D01*
X94334692Y-65509030D01*
X94339760Y-65510061D01*
X94339763Y-65510062D01*
X94434862Y-65529410D01*
X94553597Y-65553567D01*
X94558772Y-65553757D01*
X94558774Y-65553757D01*
X94771673Y-65561564D01*
X94771677Y-65561564D01*
X94776837Y-65561753D01*
X94781957Y-65561097D01*
X94781959Y-65561097D01*
X94993288Y-65534025D01*
X94993289Y-65534025D01*
X94998416Y-65533368D01*
X95003366Y-65531883D01*
X95207429Y-65470661D01*
X95207434Y-65470659D01*
X95212384Y-65469174D01*
X95412994Y-65370896D01*
X95594860Y-65241173D01*
X95598948Y-65237100D01*
X95738616Y-65097918D01*
X95753096Y-65083489D01*
X95781853Y-65043470D01*
X95883453Y-64902077D01*
X95884640Y-64902930D01*
X95931960Y-64859362D01*
X96001897Y-64847145D01*
X96067338Y-64874678D01*
X96095166Y-64906511D01*
X96152694Y-65000388D01*
X96158777Y-65008699D01*
X96298213Y-65169667D01*
X96305580Y-65176883D01*
X96469434Y-65312916D01*
X96477881Y-65318831D01*
X96661756Y-65426279D01*
X96671042Y-65430729D01*
X96870001Y-65506703D01*
X96879899Y-65509579D01*
X96983250Y-65530606D01*
X96997299Y-65529410D01*
X97001000Y-65519065D01*
X97001000Y-65518517D01*
X97509000Y-65518517D01*
X97513064Y-65532359D01*
X97526478Y-65534393D01*
X97533184Y-65533534D01*
X97543262Y-65531392D01*
X97747255Y-65470191D01*
X97756842Y-65466433D01*
X97948095Y-65372739D01*
X97956945Y-65367464D01*
X98130328Y-65243792D01*
X98138200Y-65237139D01*
X98289052Y-65086812D01*
X98295730Y-65078965D01*
X98423022Y-64901819D01*
X98424147Y-64902627D01*
X98471669Y-64858876D01*
X98541607Y-64846661D01*
X98607046Y-64874197D01*
X98634870Y-64906028D01*
X98692690Y-65000383D01*
X98698777Y-65008699D01*
X98838213Y-65169667D01*
X98845580Y-65176883D01*
X99009434Y-65312916D01*
X99017881Y-65318831D01*
X99201756Y-65426279D01*
X99211042Y-65430729D01*
X99410001Y-65506703D01*
X99419899Y-65509579D01*
X99523250Y-65530606D01*
X99537299Y-65529410D01*
X99541000Y-65519065D01*
X99541000Y-65518517D01*
X100049000Y-65518517D01*
X100053064Y-65532359D01*
X100066478Y-65534393D01*
X100073184Y-65533534D01*
X100083262Y-65531392D01*
X100287255Y-65470191D01*
X100296842Y-65466433D01*
X100488095Y-65372739D01*
X100496945Y-65367464D01*
X100670328Y-65243792D01*
X100678200Y-65237139D01*
X100829052Y-65086812D01*
X100835730Y-65078965D01*
X100963022Y-64901819D01*
X100964147Y-64902627D01*
X101011669Y-64858876D01*
X101081607Y-64846661D01*
X101147046Y-64874197D01*
X101174870Y-64906028D01*
X101232690Y-65000383D01*
X101238777Y-65008699D01*
X101378213Y-65169667D01*
X101385580Y-65176883D01*
X101549434Y-65312916D01*
X101557881Y-65318831D01*
X101741756Y-65426279D01*
X101751042Y-65430729D01*
X101950001Y-65506703D01*
X101959899Y-65509579D01*
X102063250Y-65530606D01*
X102077299Y-65529410D01*
X102081000Y-65519065D01*
X102081000Y-65518517D01*
X102589000Y-65518517D01*
X102593064Y-65532359D01*
X102606478Y-65534393D01*
X102613184Y-65533534D01*
X102623262Y-65531392D01*
X102827255Y-65470191D01*
X102836842Y-65466433D01*
X103028095Y-65372739D01*
X103036945Y-65367464D01*
X103210328Y-65243792D01*
X103218200Y-65237139D01*
X103369052Y-65086812D01*
X103375730Y-65078965D01*
X103500003Y-64906020D01*
X103505313Y-64897183D01*
X103599670Y-64706267D01*
X103603469Y-64696672D01*
X103665377Y-64492910D01*
X103667555Y-64482837D01*
X103668986Y-64471962D01*
X103666775Y-64457778D01*
X103653617Y-64454000D01*
X102607115Y-64454000D01*
X102591876Y-64458475D01*
X102590671Y-64459865D01*
X102589000Y-64467548D01*
X102589000Y-65518517D01*
X102081000Y-65518517D01*
X102081000Y-64472115D01*
X102076525Y-64456876D01*
X102075135Y-64455671D01*
X102067452Y-64454000D01*
X100067115Y-64454000D01*
X100051876Y-64458475D01*
X100050671Y-64459865D01*
X100049000Y-64467548D01*
X100049000Y-65518517D01*
X99541000Y-65518517D01*
X99541000Y-64472115D01*
X99536525Y-64456876D01*
X99535135Y-64455671D01*
X99527452Y-64454000D01*
X97527115Y-64454000D01*
X97511876Y-64458475D01*
X97510671Y-64459865D01*
X97509000Y-64467548D01*
X97509000Y-65518517D01*
X97001000Y-65518517D01*
X97001000Y-64000000D01*
X114567391Y-64000000D01*
X114568081Y-64006565D01*
X114574307Y-64065796D01*
X114587771Y-64193900D01*
X114648019Y-64379326D01*
X114651322Y-64385048D01*
X114651323Y-64385049D01*
X114712606Y-64491194D01*
X114745503Y-64548174D01*
X114875963Y-64693064D01*
X115033695Y-64807663D01*
X115039723Y-64810347D01*
X115039725Y-64810348D01*
X115205777Y-64884279D01*
X115211808Y-64886964D01*
X115286923Y-64902930D01*
X115396059Y-64926128D01*
X115396063Y-64926128D01*
X115402516Y-64927500D01*
X115597484Y-64927500D01*
X115603937Y-64926128D01*
X115603941Y-64926128D01*
X115713077Y-64902930D01*
X115788192Y-64886964D01*
X115794223Y-64884279D01*
X115960275Y-64810348D01*
X115960277Y-64810347D01*
X115966305Y-64807663D01*
X116124037Y-64693064D01*
X116254497Y-64548174D01*
X116287394Y-64491194D01*
X116348677Y-64385049D01*
X116348678Y-64385048D01*
X116351981Y-64379326D01*
X116412229Y-64193900D01*
X116425694Y-64065796D01*
X116431919Y-64006565D01*
X116432609Y-64000000D01*
X116427781Y-63954066D01*
X116412919Y-63812664D01*
X116412919Y-63812663D01*
X116412229Y-63806100D01*
X116397479Y-63760702D01*
X116354023Y-63626959D01*
X116351981Y-63620674D01*
X116348350Y-63614384D01*
X116257800Y-63457547D01*
X116254497Y-63451826D01*
X116179269Y-63368277D01*
X116128452Y-63311839D01*
X116128450Y-63311838D01*
X116124037Y-63306936D01*
X116053642Y-63255791D01*
X115971647Y-63196218D01*
X115971646Y-63196217D01*
X115966305Y-63192337D01*
X115960277Y-63189653D01*
X115960275Y-63189652D01*
X115794223Y-63115721D01*
X115794222Y-63115721D01*
X115788192Y-63113036D01*
X115692838Y-63092768D01*
X115603941Y-63073872D01*
X115603937Y-63073872D01*
X115597484Y-63072500D01*
X115402516Y-63072500D01*
X115396063Y-63073872D01*
X115396059Y-63073872D01*
X115307162Y-63092768D01*
X115211808Y-63113036D01*
X115205779Y-63115720D01*
X115205777Y-63115721D01*
X115039726Y-63189652D01*
X115039724Y-63189653D01*
X115033696Y-63192337D01*
X115028355Y-63196217D01*
X115028354Y-63196218D01*
X114933595Y-63265064D01*
X114875963Y-63306936D01*
X114871550Y-63311838D01*
X114871548Y-63311839D01*
X114820731Y-63368277D01*
X114745503Y-63451826D01*
X114742200Y-63457547D01*
X114651651Y-63614384D01*
X114648019Y-63620674D01*
X114645977Y-63626959D01*
X114602522Y-63760702D01*
X114587771Y-63806100D01*
X114587081Y-63812663D01*
X114587081Y-63812664D01*
X114572219Y-63954066D01*
X114567391Y-64000000D01*
X97001000Y-64000000D01*
X97001000Y-63927885D01*
X97509000Y-63927885D01*
X97513475Y-63943124D01*
X97514865Y-63944329D01*
X97522548Y-63946000D01*
X99522885Y-63946000D01*
X99538124Y-63941525D01*
X99539329Y-63940135D01*
X99541000Y-63932452D01*
X99541000Y-63927885D01*
X100049000Y-63927885D01*
X100053475Y-63943124D01*
X100054865Y-63944329D01*
X100062548Y-63946000D01*
X102062885Y-63946000D01*
X102078124Y-63941525D01*
X102079329Y-63940135D01*
X102081000Y-63932452D01*
X102081000Y-63927885D01*
X102589000Y-63927885D01*
X102593475Y-63943124D01*
X102594865Y-63944329D01*
X102602548Y-63946000D01*
X103653344Y-63946000D01*
X103666875Y-63942027D01*
X103668180Y-63932947D01*
X103626214Y-63765875D01*
X103622894Y-63756124D01*
X103537972Y-63560814D01*
X103533105Y-63551739D01*
X103417426Y-63372926D01*
X103411136Y-63364757D01*
X103267806Y-63207240D01*
X103260273Y-63200215D01*
X103093139Y-63068222D01*
X103084552Y-63062517D01*
X102898117Y-62959599D01*
X102888705Y-62955369D01*
X102687959Y-62884280D01*
X102677988Y-62881646D01*
X102606837Y-62868972D01*
X102593540Y-62870432D01*
X102589000Y-62884989D01*
X102589000Y-63927885D01*
X102081000Y-63927885D01*
X102081000Y-62883102D01*
X102077082Y-62869758D01*
X102062806Y-62867771D01*
X102024324Y-62873660D01*
X102014288Y-62876051D01*
X101811868Y-62942212D01*
X101802359Y-62946209D01*
X101613463Y-63044542D01*
X101604738Y-63050036D01*
X101434433Y-63177905D01*
X101426726Y-63184748D01*
X101279590Y-63338717D01*
X101273104Y-63346727D01*
X101168193Y-63500521D01*
X101113282Y-63545524D01*
X101042757Y-63553695D01*
X100979010Y-63522441D01*
X100958313Y-63497957D01*
X100877427Y-63372926D01*
X100871136Y-63364757D01*
X100727806Y-63207240D01*
X100720273Y-63200215D01*
X100553139Y-63068222D01*
X100544552Y-63062517D01*
X100358117Y-62959599D01*
X100348705Y-62955369D01*
X100147959Y-62884280D01*
X100137988Y-62881646D01*
X100066837Y-62868972D01*
X100053540Y-62870432D01*
X100049000Y-62884989D01*
X100049000Y-63927885D01*
X99541000Y-63927885D01*
X99541000Y-62883102D01*
X99537082Y-62869758D01*
X99522806Y-62867771D01*
X99484324Y-62873660D01*
X99474288Y-62876051D01*
X99271868Y-62942212D01*
X99262359Y-62946209D01*
X99073463Y-63044542D01*
X99064738Y-63050036D01*
X98894433Y-63177905D01*
X98886726Y-63184748D01*
X98739590Y-63338717D01*
X98733104Y-63346727D01*
X98628193Y-63500521D01*
X98573282Y-63545524D01*
X98502757Y-63553695D01*
X98439010Y-63522441D01*
X98418313Y-63497957D01*
X98337427Y-63372926D01*
X98331136Y-63364757D01*
X98187806Y-63207240D01*
X98180273Y-63200215D01*
X98013139Y-63068222D01*
X98004552Y-63062517D01*
X97818117Y-62959599D01*
X97808705Y-62955369D01*
X97607959Y-62884280D01*
X97597988Y-62881646D01*
X97526837Y-62868972D01*
X97513540Y-62870432D01*
X97509000Y-62884989D01*
X97509000Y-63927885D01*
X97001000Y-63927885D01*
X97001000Y-62883102D01*
X96997082Y-62869758D01*
X96982806Y-62867771D01*
X96944324Y-62873660D01*
X96934288Y-62876051D01*
X96731868Y-62942212D01*
X96722359Y-62946209D01*
X96533463Y-63044542D01*
X96524738Y-63050036D01*
X96354433Y-63177905D01*
X96346726Y-63184748D01*
X96199590Y-63338717D01*
X96193109Y-63346722D01*
X96088498Y-63500074D01*
X96033587Y-63545076D01*
X95963062Y-63553247D01*
X95899315Y-63521993D01*
X95878618Y-63497509D01*
X95797822Y-63372617D01*
X95797820Y-63372614D01*
X95795014Y-63368277D01*
X95644670Y-63203051D01*
X95640619Y-63199852D01*
X95640615Y-63199848D01*
X95473414Y-63067800D01*
X95473410Y-63067798D01*
X95469359Y-63064598D01*
X95433028Y-63044542D01*
X95417136Y-63035769D01*
X95273789Y-62956638D01*
X95268920Y-62954914D01*
X95268916Y-62954912D01*
X95068087Y-62883795D01*
X95068083Y-62883794D01*
X95063212Y-62882069D01*
X95058119Y-62881162D01*
X95058116Y-62881161D01*
X94848373Y-62843800D01*
X94848367Y-62843799D01*
X94843284Y-62842894D01*
X94769452Y-62841992D01*
X94625081Y-62840228D01*
X94625079Y-62840228D01*
X94619911Y-62840165D01*
X94399091Y-62873955D01*
X94186756Y-62943357D01*
X93988607Y-63046507D01*
X93984474Y-63049610D01*
X93984471Y-63049612D01*
X93896422Y-63115721D01*
X93809965Y-63180635D01*
X93806393Y-63184373D01*
X93698729Y-63297037D01*
X93655629Y-63342138D01*
X93548201Y-63499621D01*
X93493293Y-63544621D01*
X93422768Y-63552792D01*
X93359021Y-63521538D01*
X93338324Y-63497054D01*
X93257822Y-63372617D01*
X93257820Y-63372614D01*
X93255014Y-63368277D01*
X93104670Y-63203051D01*
X93100619Y-63199852D01*
X93100615Y-63199848D01*
X92933414Y-63067800D01*
X92933410Y-63067798D01*
X92929359Y-63064598D01*
X92893028Y-63044542D01*
X92877136Y-63035769D01*
X92733789Y-62956638D01*
X92728920Y-62954914D01*
X92728916Y-62954912D01*
X92528087Y-62883795D01*
X92528083Y-62883794D01*
X92523212Y-62882069D01*
X92518119Y-62881162D01*
X92518116Y-62881161D01*
X92308373Y-62843800D01*
X92308367Y-62843799D01*
X92303284Y-62842894D01*
X92229452Y-62841992D01*
X92085081Y-62840228D01*
X92085079Y-62840228D01*
X92079911Y-62840165D01*
X91859091Y-62873955D01*
X91646756Y-62943357D01*
X91448607Y-63046507D01*
X91444474Y-63049610D01*
X91444471Y-63049612D01*
X91356422Y-63115721D01*
X91269965Y-63180635D01*
X91266393Y-63184373D01*
X91158729Y-63297037D01*
X91115629Y-63342138D01*
X91008201Y-63499621D01*
X90953293Y-63544621D01*
X90882768Y-63552792D01*
X90819021Y-63521538D01*
X90798324Y-63497054D01*
X90717822Y-63372617D01*
X90717820Y-63372614D01*
X90715014Y-63368277D01*
X90564670Y-63203051D01*
X90560619Y-63199852D01*
X90560615Y-63199848D01*
X90393414Y-63067800D01*
X90393410Y-63067798D01*
X90389359Y-63064598D01*
X90353028Y-63044542D01*
X90337136Y-63035769D01*
X90193789Y-62956638D01*
X90188920Y-62954914D01*
X90188916Y-62954912D01*
X89988087Y-62883795D01*
X89988083Y-62883794D01*
X89983212Y-62882069D01*
X89978119Y-62881162D01*
X89978116Y-62881161D01*
X89768373Y-62843800D01*
X89768367Y-62843799D01*
X89763284Y-62842894D01*
X89689452Y-62841992D01*
X89545081Y-62840228D01*
X89545079Y-62840228D01*
X89539911Y-62840165D01*
X89319091Y-62873955D01*
X89106756Y-62943357D01*
X88908607Y-63046507D01*
X88904474Y-63049610D01*
X88904471Y-63049612D01*
X88816422Y-63115721D01*
X88729965Y-63180635D01*
X88726393Y-63184373D01*
X88618729Y-63297037D01*
X88575629Y-63342138D01*
X88468201Y-63499621D01*
X88413293Y-63544621D01*
X88342768Y-63552792D01*
X88279021Y-63521538D01*
X88258324Y-63497054D01*
X88177822Y-63372617D01*
X88177820Y-63372614D01*
X88175014Y-63368277D01*
X88024670Y-63203051D01*
X88020619Y-63199852D01*
X88020615Y-63199848D01*
X87853414Y-63067800D01*
X87853410Y-63067798D01*
X87849359Y-63064598D01*
X87813028Y-63044542D01*
X87797136Y-63035769D01*
X87653789Y-62956638D01*
X87648920Y-62954914D01*
X87648916Y-62954912D01*
X87448087Y-62883795D01*
X87448083Y-62883794D01*
X87443212Y-62882069D01*
X87438119Y-62881162D01*
X87438116Y-62881161D01*
X87228373Y-62843800D01*
X87228367Y-62843799D01*
X87223284Y-62842894D01*
X87149452Y-62841992D01*
X87005081Y-62840228D01*
X87005079Y-62840228D01*
X86999911Y-62840165D01*
X86779091Y-62873955D01*
X86566756Y-62943357D01*
X86368607Y-63046507D01*
X86364474Y-63049610D01*
X86364471Y-63049612D01*
X86276422Y-63115721D01*
X86189965Y-63180635D01*
X86186393Y-63184373D01*
X86078729Y-63297037D01*
X86035629Y-63342138D01*
X85928201Y-63499621D01*
X85873293Y-63544621D01*
X85802768Y-63552792D01*
X85739021Y-63521538D01*
X85718324Y-63497054D01*
X85637822Y-63372617D01*
X85637820Y-63372614D01*
X85635014Y-63368277D01*
X85484670Y-63203051D01*
X85480619Y-63199852D01*
X85480615Y-63199848D01*
X85313414Y-63067800D01*
X85313410Y-63067798D01*
X85309359Y-63064598D01*
X85273028Y-63044542D01*
X85257136Y-63035769D01*
X85113789Y-62956638D01*
X85108920Y-62954914D01*
X85108916Y-62954912D01*
X84908087Y-62883795D01*
X84908083Y-62883794D01*
X84903212Y-62882069D01*
X84898119Y-62881162D01*
X84898116Y-62881161D01*
X84688373Y-62843800D01*
X84688367Y-62843799D01*
X84683284Y-62842894D01*
X84609452Y-62841992D01*
X84465081Y-62840228D01*
X84465079Y-62840228D01*
X84459911Y-62840165D01*
X84239091Y-62873955D01*
X84026756Y-62943357D01*
X83828607Y-63046507D01*
X83824474Y-63049610D01*
X83824471Y-63049612D01*
X83736422Y-63115721D01*
X83649965Y-63180635D01*
X83646393Y-63184373D01*
X83538729Y-63297037D01*
X83495629Y-63342138D01*
X83388201Y-63499621D01*
X83333293Y-63544621D01*
X83262768Y-63552792D01*
X83199021Y-63521538D01*
X83178324Y-63497054D01*
X83097822Y-63372617D01*
X83097820Y-63372614D01*
X83095014Y-63368277D01*
X82944670Y-63203051D01*
X82940619Y-63199852D01*
X82940615Y-63199848D01*
X82773414Y-63067800D01*
X82773410Y-63067798D01*
X82769359Y-63064598D01*
X82733028Y-63044542D01*
X82717136Y-63035769D01*
X82573789Y-62956638D01*
X82568920Y-62954914D01*
X82568916Y-62954912D01*
X82368087Y-62883795D01*
X82368083Y-62883794D01*
X82363212Y-62882069D01*
X82358119Y-62881162D01*
X82358116Y-62881161D01*
X82148373Y-62843800D01*
X82148367Y-62843799D01*
X82143284Y-62842894D01*
X82069452Y-62841992D01*
X81925081Y-62840228D01*
X81925079Y-62840228D01*
X81919911Y-62840165D01*
X81699091Y-62873955D01*
X81486756Y-62943357D01*
X81288607Y-63046507D01*
X81284474Y-63049610D01*
X81284471Y-63049612D01*
X81196422Y-63115721D01*
X81109965Y-63180635D01*
X81053537Y-63239684D01*
X81029283Y-63265064D01*
X80967759Y-63300494D01*
X80896846Y-63297037D01*
X80839060Y-63255791D01*
X80820207Y-63222243D01*
X80778767Y-63111703D01*
X80775615Y-63103295D01*
X80688261Y-62986739D01*
X80571705Y-62899385D01*
X80435316Y-62848255D01*
X80373134Y-62841500D01*
X78576866Y-62841500D01*
X78514684Y-62848255D01*
X78378295Y-62899385D01*
X78261739Y-62986739D01*
X78174385Y-63103295D01*
X78123255Y-63239684D01*
X78116500Y-63301866D01*
X78116500Y-65098134D01*
X78123255Y-65160316D01*
X78174385Y-65296705D01*
X78261739Y-65413261D01*
X78378295Y-65500615D01*
X78514684Y-65551745D01*
X78576866Y-65558500D01*
X80373134Y-65558500D01*
X80435316Y-65551745D01*
X80571705Y-65500615D01*
X80688261Y-65413261D01*
X80775615Y-65296705D01*
X80795451Y-65243792D01*
X80819598Y-65179382D01*
X80862240Y-65122618D01*
X80928802Y-65097918D01*
X80998150Y-65113126D01*
X81032817Y-65141114D01*
X81061250Y-65173938D01*
X81233126Y-65316632D01*
X81291572Y-65350785D01*
X81340294Y-65402423D01*
X81354000Y-65459572D01*
X81354000Y-73589015D01*
X81333998Y-73657136D01*
X81317095Y-73678110D01*
X77031930Y-77963275D01*
X76969618Y-77997301D01*
X76898803Y-77992236D01*
X76875320Y-77980565D01*
X76862611Y-77972499D01*
X76862606Y-77972496D01*
X76856666Y-77968727D01*
X76841355Y-77963275D01*
X76692425Y-77910243D01*
X76692420Y-77910242D01*
X76685790Y-77907881D01*
X76678802Y-77907048D01*
X76678799Y-77907047D01*
X76555698Y-77892368D01*
X76505680Y-77886404D01*
X76498677Y-77887140D01*
X76498676Y-77887140D01*
X76332288Y-77904628D01*
X76332286Y-77904629D01*
X76325288Y-77905364D01*
X76153579Y-77963818D01*
X76091109Y-78002250D01*
X76005095Y-78055166D01*
X76005092Y-78055168D01*
X75999088Y-78058862D01*
X75994053Y-78063793D01*
X75994050Y-78063795D01*
X75874525Y-78180843D01*
X75869493Y-78185771D01*
X75771235Y-78338238D01*
X75768826Y-78344858D01*
X75768824Y-78344861D01*
X75717600Y-78485599D01*
X75709197Y-78508685D01*
X75686463Y-78688640D01*
X56134500Y-78688640D01*
X56134500Y-76823766D01*
X65582000Y-76823766D01*
X65582337Y-76830282D01*
X65592075Y-76924132D01*
X65594968Y-76937528D01*
X65645488Y-77088953D01*
X65651653Y-77102115D01*
X65735426Y-77237492D01*
X65744460Y-77248890D01*
X65857129Y-77361363D01*
X65868540Y-77370375D01*
X66004063Y-77453912D01*
X66017241Y-77460056D01*
X66168766Y-77510315D01*
X66182132Y-77513181D01*
X66274770Y-77522672D01*
X66281185Y-77523000D01*
X66305385Y-77523000D01*
X66320624Y-77518525D01*
X66321829Y-77517135D01*
X66323500Y-77509452D01*
X66323500Y-76812115D01*
X66319025Y-76796876D01*
X66317635Y-76795671D01*
X66309952Y-76794000D01*
X65600115Y-76794000D01*
X65584876Y-76798475D01*
X65583671Y-76799865D01*
X65582000Y-76807548D01*
X65582000Y-76823766D01*
X56134500Y-76823766D01*
X56134500Y-75868134D01*
X58077500Y-75868134D01*
X58084255Y-75930316D01*
X58135385Y-76066705D01*
X58222739Y-76183261D01*
X58339295Y-76270615D01*
X58475684Y-76321745D01*
X58537866Y-76328500D01*
X60334134Y-76328500D01*
X60396316Y-76321745D01*
X60532705Y-76270615D01*
X60649261Y-76183261D01*
X60736615Y-76066705D01*
X60787745Y-75930316D01*
X60794500Y-75868134D01*
X60794500Y-74987500D01*
X63179384Y-74987500D01*
X63197814Y-75198155D01*
X63252544Y-75402410D01*
X63254866Y-75407391D01*
X63254867Y-75407392D01*
X63299661Y-75503452D01*
X63341911Y-75594058D01*
X63463199Y-75767276D01*
X63612724Y-75916801D01*
X63785942Y-76038089D01*
X63790920Y-76040410D01*
X63790923Y-76040412D01*
X63950773Y-76114951D01*
X63977590Y-76127456D01*
X63982898Y-76128878D01*
X63982900Y-76128879D01*
X64176530Y-76180762D01*
X64176532Y-76180762D01*
X64181845Y-76182186D01*
X64392500Y-76200616D01*
X64603155Y-76182186D01*
X64608468Y-76180762D01*
X64608470Y-76180762D01*
X64802100Y-76128879D01*
X64802102Y-76128878D01*
X64807410Y-76127456D01*
X64834227Y-76114951D01*
X64994077Y-76040412D01*
X64994080Y-76040410D01*
X64999058Y-76038089D01*
X65172276Y-75916801D01*
X65321801Y-75767276D01*
X65441452Y-75596397D01*
X65496908Y-75552069D01*
X65567527Y-75544760D01*
X65630888Y-75576791D01*
X65651809Y-75602366D01*
X65726824Y-75723591D01*
X65745661Y-75792043D01*
X65726939Y-75856008D01*
X65651090Y-75979059D01*
X65644944Y-75992241D01*
X65594685Y-76143766D01*
X65591819Y-76157132D01*
X65582328Y-76249770D01*
X65582000Y-76256185D01*
X65582000Y-76267885D01*
X65586475Y-76283124D01*
X65587865Y-76284329D01*
X65595548Y-76286000D01*
X66305385Y-76286000D01*
X66320624Y-76281525D01*
X66321829Y-76280135D01*
X66323500Y-76272452D01*
X66323500Y-75613905D01*
X66343502Y-75545784D01*
X66354275Y-75531393D01*
X66371829Y-75511135D01*
X66373500Y-75503452D01*
X66373500Y-74075115D01*
X66369025Y-74059876D01*
X66367635Y-74058671D01*
X66359952Y-74057000D01*
X66281234Y-74057000D01*
X66274718Y-74057337D01*
X66180868Y-74067075D01*
X66167472Y-74069968D01*
X66016047Y-74120488D01*
X66002885Y-74126653D01*
X65867508Y-74210426D01*
X65856110Y-74219460D01*
X65743637Y-74332129D01*
X65734625Y-74343540D01*
X65681382Y-74429917D01*
X65628610Y-74477410D01*
X65558539Y-74488834D01*
X65493415Y-74460560D01*
X65459927Y-74417051D01*
X65445412Y-74385923D01*
X65445410Y-74385920D01*
X65443089Y-74380942D01*
X65321801Y-74207724D01*
X65172276Y-74058199D01*
X64999058Y-73936911D01*
X64994080Y-73934590D01*
X64994077Y-73934588D01*
X64812392Y-73849867D01*
X64812391Y-73849866D01*
X64807410Y-73847544D01*
X64802102Y-73846122D01*
X64802100Y-73846121D01*
X64608470Y-73794238D01*
X64608468Y-73794238D01*
X64603155Y-73792814D01*
X64392500Y-73774384D01*
X64181845Y-73792814D01*
X64176532Y-73794238D01*
X64176530Y-73794238D01*
X63982900Y-73846121D01*
X63982898Y-73846122D01*
X63977590Y-73847544D01*
X63972609Y-73849866D01*
X63972608Y-73849867D01*
X63790923Y-73934588D01*
X63790920Y-73934590D01*
X63785942Y-73936911D01*
X63612724Y-74058199D01*
X63463199Y-74207724D01*
X63341911Y-74380942D01*
X63339590Y-74385920D01*
X63339588Y-74385923D01*
X63267803Y-74539866D01*
X63252544Y-74572590D01*
X63251122Y-74577898D01*
X63251121Y-74577900D01*
X63203347Y-74756194D01*
X63197814Y-74776845D01*
X63179384Y-74987500D01*
X60794500Y-74987500D01*
X60794500Y-74071866D01*
X60787745Y-74009684D01*
X60736615Y-73873295D01*
X60649261Y-73756739D01*
X60532705Y-73669385D01*
X60396316Y-73618255D01*
X60334134Y-73611500D01*
X58537866Y-73611500D01*
X58475684Y-73618255D01*
X58339295Y-73669385D01*
X58222739Y-73756739D01*
X58135385Y-73873295D01*
X58084255Y-74009684D01*
X58077500Y-74071866D01*
X58077500Y-75868134D01*
X56134500Y-75868134D01*
X56134500Y-69907500D01*
X63179384Y-69907500D01*
X63197814Y-70118155D01*
X63199238Y-70123468D01*
X63199238Y-70123470D01*
X63248907Y-70308835D01*
X63252544Y-70322410D01*
X63341911Y-70514058D01*
X63463199Y-70687276D01*
X63612724Y-70836801D01*
X63785942Y-70958089D01*
X63790920Y-70960410D01*
X63790923Y-70960412D01*
X63970174Y-71043998D01*
X63977590Y-71047456D01*
X63982898Y-71048878D01*
X63982900Y-71048879D01*
X64176530Y-71100762D01*
X64176532Y-71100762D01*
X64181845Y-71102186D01*
X64392500Y-71120616D01*
X64603155Y-71102186D01*
X64608468Y-71100762D01*
X64608470Y-71100762D01*
X64802100Y-71048879D01*
X64802102Y-71048878D01*
X64807410Y-71047456D01*
X64814826Y-71043998D01*
X64994077Y-70960412D01*
X64994080Y-70960410D01*
X64999058Y-70958089D01*
X65172276Y-70836801D01*
X65321801Y-70687276D01*
X65386602Y-70594730D01*
X65442059Y-70550401D01*
X65489815Y-70541000D01*
X65865172Y-70541000D01*
X65933293Y-70561002D01*
X65972315Y-70600696D01*
X66023884Y-70684031D01*
X66030788Y-70690923D01*
X66031589Y-70692387D01*
X66033611Y-70694938D01*
X66033174Y-70695284D01*
X66064866Y-70753204D01*
X66059863Y-70824024D01*
X66030944Y-70869110D01*
X66023071Y-70876997D01*
X65931791Y-71025080D01*
X65877026Y-71190191D01*
X65866500Y-71292928D01*
X65866500Y-71992072D01*
X65866837Y-71995318D01*
X65866837Y-71995322D01*
X65869468Y-72020674D01*
X65877293Y-72096093D01*
X65879474Y-72102629D01*
X65879474Y-72102631D01*
X65903938Y-72175957D01*
X65932346Y-72261107D01*
X66023884Y-72409031D01*
X66029066Y-72414204D01*
X66141816Y-72526758D01*
X66141821Y-72526762D01*
X66146997Y-72531929D01*
X66153227Y-72535769D01*
X66153228Y-72535770D01*
X66257719Y-72600179D01*
X66295080Y-72623209D01*
X66460191Y-72677974D01*
X66467027Y-72678674D01*
X66467030Y-72678675D01*
X66518526Y-72683951D01*
X66562928Y-72688500D01*
X67137072Y-72688500D01*
X67140318Y-72688163D01*
X67140322Y-72688163D01*
X67234235Y-72678419D01*
X67234239Y-72678418D01*
X67241093Y-72677707D01*
X67247629Y-72675526D01*
X67247631Y-72675526D01*
X67380395Y-72631232D01*
X67406107Y-72622654D01*
X67526699Y-72548029D01*
X67595149Y-72529193D01*
X67662919Y-72550354D01*
X67708490Y-72604795D01*
X67719000Y-72655175D01*
X67719000Y-74061360D01*
X67698998Y-74129481D01*
X67659304Y-74168503D01*
X67585969Y-74213884D01*
X67580797Y-74219065D01*
X67578727Y-74221139D01*
X67576962Y-74222105D01*
X67575059Y-74223613D01*
X67574801Y-74223287D01*
X67516446Y-74255219D01*
X67445625Y-74250218D01*
X67400530Y-74221292D01*
X67397869Y-74218636D01*
X67386460Y-74209625D01*
X67250937Y-74126088D01*
X67237759Y-74119944D01*
X67086234Y-74069685D01*
X67072868Y-74066819D01*
X66980230Y-74057328D01*
X66973815Y-74057000D01*
X66899615Y-74057000D01*
X66884376Y-74061475D01*
X66883171Y-74062865D01*
X66881500Y-74070548D01*
X66881500Y-75966095D01*
X66861498Y-76034216D01*
X66850725Y-76048607D01*
X66833171Y-76068865D01*
X66831500Y-76076548D01*
X66831500Y-77504885D01*
X66835975Y-77520124D01*
X66837365Y-77521329D01*
X66845048Y-77523000D01*
X66873766Y-77523000D01*
X66880282Y-77522663D01*
X66974132Y-77512925D01*
X66987528Y-77510032D01*
X67138953Y-77459512D01*
X67152115Y-77453347D01*
X67287492Y-77369574D01*
X67298890Y-77360540D01*
X67400393Y-77258860D01*
X67462676Y-77224781D01*
X67533496Y-77229784D01*
X67578583Y-77258704D01*
X67686997Y-77366929D01*
X67693227Y-77370769D01*
X67693228Y-77370770D01*
X67809315Y-77442327D01*
X67835080Y-77458209D01*
X68000191Y-77512974D01*
X68007027Y-77513674D01*
X68007030Y-77513675D01*
X68054370Y-77518525D01*
X68102928Y-77523500D01*
X68702072Y-77523500D01*
X68705318Y-77523163D01*
X68705322Y-77523163D01*
X68799235Y-77513419D01*
X68799239Y-77513418D01*
X68806093Y-77512707D01*
X68812629Y-77510526D01*
X68812631Y-77510526D01*
X68947680Y-77465470D01*
X68971107Y-77457654D01*
X69119031Y-77366116D01*
X69157032Y-77328049D01*
X69236758Y-77248184D01*
X69236762Y-77248179D01*
X69241929Y-77243003D01*
X69245770Y-77236772D01*
X69329369Y-77101150D01*
X69329370Y-77101148D01*
X69333209Y-77094920D01*
X69387974Y-76929809D01*
X69398500Y-76827072D01*
X69398500Y-76252928D01*
X69396671Y-76235299D01*
X69388419Y-76155765D01*
X69388418Y-76155761D01*
X69387707Y-76148907D01*
X69380551Y-76127456D01*
X69334972Y-75990841D01*
X69332654Y-75983893D01*
X69253763Y-75856407D01*
X69234927Y-75787957D01*
X69253649Y-75723990D01*
X69329369Y-75601150D01*
X69329370Y-75601148D01*
X69333209Y-75594920D01*
X69387974Y-75429809D01*
X69398500Y-75327072D01*
X69398500Y-74987500D01*
X70799384Y-74987500D01*
X70817814Y-75198155D01*
X70872544Y-75402410D01*
X70874866Y-75407391D01*
X70874867Y-75407392D01*
X70919661Y-75503452D01*
X70961911Y-75594058D01*
X71083199Y-75767276D01*
X71232724Y-75916801D01*
X71405942Y-76038089D01*
X71410920Y-76040410D01*
X71410923Y-76040412D01*
X71570773Y-76114951D01*
X71597590Y-76127456D01*
X71602898Y-76128878D01*
X71602900Y-76128879D01*
X71796530Y-76180762D01*
X71796532Y-76180762D01*
X71801845Y-76182186D01*
X72012500Y-76200616D01*
X72223155Y-76182186D01*
X72228468Y-76180762D01*
X72228470Y-76180762D01*
X72422100Y-76128879D01*
X72422102Y-76128878D01*
X72427410Y-76127456D01*
X72454227Y-76114951D01*
X72614077Y-76040412D01*
X72614080Y-76040410D01*
X72619058Y-76038089D01*
X72792276Y-75916801D01*
X72941801Y-75767276D01*
X72987347Y-75702230D01*
X73042803Y-75657901D01*
X73090560Y-75648500D01*
X74115500Y-75648500D01*
X74183621Y-75668502D01*
X74230114Y-75722158D01*
X74241500Y-75774500D01*
X74241500Y-75898134D01*
X74248255Y-75960316D01*
X74299385Y-76096705D01*
X74386739Y-76213261D01*
X74503295Y-76300615D01*
X74639684Y-76351745D01*
X74701866Y-76358500D01*
X76498134Y-76358500D01*
X76560316Y-76351745D01*
X76696705Y-76300615D01*
X76813261Y-76213261D01*
X76900615Y-76096705D01*
X76951745Y-75960316D01*
X76958500Y-75898134D01*
X76958500Y-74101866D01*
X76951745Y-74039684D01*
X76900615Y-73903295D01*
X76813261Y-73786739D01*
X76696705Y-73699385D01*
X76560316Y-73648255D01*
X76498134Y-73641500D01*
X74701866Y-73641500D01*
X74639684Y-73648255D01*
X74503295Y-73699385D01*
X74386739Y-73786739D01*
X74299385Y-73903295D01*
X74248255Y-74039684D01*
X74241500Y-74101866D01*
X74241500Y-74200500D01*
X74221498Y-74268621D01*
X74167842Y-74315114D01*
X74115500Y-74326500D01*
X73090560Y-74326500D01*
X73022439Y-74306498D01*
X72987346Y-74272770D01*
X72944954Y-74212227D01*
X72941801Y-74207724D01*
X72792276Y-74058199D01*
X72619058Y-73936911D01*
X72614080Y-73934590D01*
X72614077Y-73934588D01*
X72432392Y-73849867D01*
X72432391Y-73849866D01*
X72427410Y-73847544D01*
X72422102Y-73846122D01*
X72422100Y-73846121D01*
X72228470Y-73794238D01*
X72228468Y-73794238D01*
X72223155Y-73792814D01*
X72012500Y-73774384D01*
X71801845Y-73792814D01*
X71796532Y-73794238D01*
X71796530Y-73794238D01*
X71602900Y-73846121D01*
X71602898Y-73846122D01*
X71597590Y-73847544D01*
X71592609Y-73849866D01*
X71592608Y-73849867D01*
X71410923Y-73934588D01*
X71410920Y-73934590D01*
X71405942Y-73936911D01*
X71232724Y-74058199D01*
X71083199Y-74207724D01*
X70961911Y-74380942D01*
X70959590Y-74385920D01*
X70959588Y-74385923D01*
X70887803Y-74539866D01*
X70872544Y-74572590D01*
X70871122Y-74577898D01*
X70871121Y-74577900D01*
X70823347Y-74756194D01*
X70817814Y-74776845D01*
X70799384Y-74987500D01*
X69398500Y-74987500D01*
X69398500Y-74752928D01*
X69387707Y-74648907D01*
X69332654Y-74483893D01*
X69241116Y-74335969D01*
X69235934Y-74330796D01*
X69123184Y-74218242D01*
X69123179Y-74218238D01*
X69118003Y-74213071D01*
X69045884Y-74168616D01*
X68998391Y-74115844D01*
X68986000Y-74061356D01*
X68986000Y-72802697D01*
X69006002Y-72734576D01*
X69059658Y-72688083D01*
X69072124Y-72683173D01*
X69149159Y-72657472D01*
X69156107Y-72655154D01*
X69304031Y-72563616D01*
X69426929Y-72440503D01*
X69430772Y-72434269D01*
X69431056Y-72433909D01*
X69488973Y-72392846D01*
X69529939Y-72386000D01*
X70167725Y-72386000D01*
X70176295Y-72386292D01*
X70222272Y-72389427D01*
X70222276Y-72389427D01*
X70229848Y-72389943D01*
X70237324Y-72388638D01*
X70237327Y-72388638D01*
X70288349Y-72379733D01*
X70294875Y-72378770D01*
X70346278Y-72372550D01*
X70346288Y-72372547D01*
X70353829Y-72371635D01*
X70360939Y-72368948D01*
X70367918Y-72367234D01*
X70373108Y-72365814D01*
X70379973Y-72363742D01*
X70387453Y-72362436D01*
X70394401Y-72359386D01*
X70394404Y-72359385D01*
X70413546Y-72350982D01*
X70441847Y-72338558D01*
X70447903Y-72336086D01*
X70503488Y-72315083D01*
X70509747Y-72310781D01*
X70516100Y-72307460D01*
X70520834Y-72304825D01*
X70526997Y-72301180D01*
X70533948Y-72298129D01*
X70539971Y-72293507D01*
X70539975Y-72293505D01*
X70581056Y-72261983D01*
X70586391Y-72258107D01*
X70629078Y-72228768D01*
X70629081Y-72228765D01*
X70635338Y-72224465D01*
X70673856Y-72181233D01*
X70678838Y-72175957D01*
X71715023Y-71139772D01*
X71777335Y-71105746D01*
X71815099Y-71103346D01*
X72007024Y-71120137D01*
X72007025Y-71120137D01*
X72012500Y-71120616D01*
X72223155Y-71102186D01*
X72228468Y-71100762D01*
X72228470Y-71100762D01*
X72422100Y-71048879D01*
X72422102Y-71048878D01*
X72427410Y-71047456D01*
X72434826Y-71043998D01*
X72614077Y-70960412D01*
X72614080Y-70960410D01*
X72619058Y-70958089D01*
X72792276Y-70836801D01*
X72941801Y-70687276D01*
X73063089Y-70514058D01*
X73152456Y-70322410D01*
X73156094Y-70308835D01*
X73205762Y-70123470D01*
X73205762Y-70123468D01*
X73207186Y-70118155D01*
X73225616Y-69907500D01*
X73207186Y-69696845D01*
X73180480Y-69597178D01*
X73153879Y-69497900D01*
X73153878Y-69497898D01*
X73152456Y-69492590D01*
X73150133Y-69487608D01*
X73065412Y-69305923D01*
X73065410Y-69305920D01*
X73063089Y-69300942D01*
X72941801Y-69127724D01*
X72792276Y-68978199D01*
X72619058Y-68856911D01*
X72614080Y-68854590D01*
X72614077Y-68854588D01*
X72432392Y-68769867D01*
X72432391Y-68769866D01*
X72427410Y-68767544D01*
X72422102Y-68766122D01*
X72422100Y-68766121D01*
X72228470Y-68714238D01*
X72228468Y-68714238D01*
X72223155Y-68712814D01*
X72217679Y-68712335D01*
X72217674Y-68712334D01*
X72192005Y-68710089D01*
X72187904Y-68709730D01*
X72121786Y-68683867D01*
X72080146Y-68626363D01*
X72076205Y-68555476D01*
X72079292Y-68544542D01*
X72095315Y-68496234D01*
X72098181Y-68482868D01*
X72107672Y-68390230D01*
X72108000Y-68383815D01*
X72108000Y-68372115D01*
X72103525Y-68356876D01*
X72102135Y-68355671D01*
X72094452Y-68354000D01*
X70984500Y-68354000D01*
X70916379Y-68333998D01*
X70869886Y-68280342D01*
X70858500Y-68228000D01*
X70858500Y-67641115D01*
X70854026Y-67625876D01*
X70851988Y-67624111D01*
X70813604Y-67564385D01*
X70808500Y-67528886D01*
X70808500Y-67058885D01*
X71316500Y-67058885D01*
X71320974Y-67074124D01*
X71323012Y-67075889D01*
X71361396Y-67135615D01*
X71366500Y-67171114D01*
X71366500Y-67827885D01*
X71370975Y-67843124D01*
X71372365Y-67844329D01*
X71380048Y-67846000D01*
X72089885Y-67846000D01*
X72105124Y-67841525D01*
X72106329Y-67840135D01*
X72108000Y-67832452D01*
X72108000Y-67816234D01*
X72107663Y-67809718D01*
X72097925Y-67715868D01*
X72095032Y-67702472D01*
X72044512Y-67551047D01*
X72038347Y-67537885D01*
X71963176Y-67416409D01*
X71944339Y-67347957D01*
X71963061Y-67283992D01*
X72038910Y-67160941D01*
X72045056Y-67147759D01*
X72095315Y-66996234D01*
X72098181Y-66982868D01*
X72107672Y-66890230D01*
X72108000Y-66883815D01*
X72108000Y-66872115D01*
X72103525Y-66856876D01*
X72102135Y-66855671D01*
X72094452Y-66854000D01*
X71334615Y-66854000D01*
X71319376Y-66858475D01*
X71318171Y-66859865D01*
X71316500Y-66867548D01*
X71316500Y-67058885D01*
X70808500Y-67058885D01*
X70808500Y-66472000D01*
X70828502Y-66403879D01*
X70882158Y-66357386D01*
X70934500Y-66346000D01*
X72089885Y-66346000D01*
X72105124Y-66341525D01*
X72106329Y-66340135D01*
X72108000Y-66332452D01*
X72108000Y-66316234D01*
X72107663Y-66309718D01*
X72097925Y-66215868D01*
X72095030Y-66202465D01*
X72090761Y-66189668D01*
X72088177Y-66118719D01*
X72124362Y-66057635D01*
X72187827Y-66025812D01*
X72199302Y-66024274D01*
X72217664Y-66022667D01*
X72217671Y-66022666D01*
X72223155Y-66022186D01*
X72228468Y-66020762D01*
X72228470Y-66020762D01*
X72422100Y-65968879D01*
X72422102Y-65968878D01*
X72427410Y-65967456D01*
X72432392Y-65965133D01*
X72614077Y-65880412D01*
X72614080Y-65880410D01*
X72619058Y-65878089D01*
X72792276Y-65756801D01*
X72941801Y-65607276D01*
X73063089Y-65434058D01*
X73066717Y-65426279D01*
X73150133Y-65247392D01*
X73150134Y-65247391D01*
X73152456Y-65242410D01*
X73171948Y-65169667D01*
X73205762Y-65043470D01*
X73205762Y-65043468D01*
X73207186Y-65038155D01*
X73225616Y-64827500D01*
X73207186Y-64616845D01*
X73164564Y-64457778D01*
X73153879Y-64417900D01*
X73153878Y-64417898D01*
X73152456Y-64412590D01*
X73142279Y-64390765D01*
X73065412Y-64225923D01*
X73065410Y-64225920D01*
X73063089Y-64220942D01*
X72941801Y-64047724D01*
X72792276Y-63898199D01*
X72619058Y-63776911D01*
X72614080Y-63774590D01*
X72614077Y-63774588D01*
X72432392Y-63689867D01*
X72432391Y-63689866D01*
X72427410Y-63687544D01*
X72422102Y-63686122D01*
X72422100Y-63686121D01*
X72228470Y-63634238D01*
X72228468Y-63634238D01*
X72223155Y-63632814D01*
X72012500Y-63614384D01*
X71801845Y-63632814D01*
X71796532Y-63634238D01*
X71796530Y-63634238D01*
X71602900Y-63686121D01*
X71602898Y-63686122D01*
X71597590Y-63687544D01*
X71592609Y-63689866D01*
X71592608Y-63689867D01*
X71410923Y-63774588D01*
X71410920Y-63774590D01*
X71405942Y-63776911D01*
X71232724Y-63898199D01*
X71083199Y-64047724D01*
X70999244Y-64167625D01*
X70942415Y-64212505D01*
X70910098Y-64225300D01*
X70898868Y-64229145D01*
X70864017Y-64239270D01*
X70856407Y-64241481D01*
X70849584Y-64245516D01*
X70838966Y-64251795D01*
X70821213Y-64260492D01*
X70813568Y-64263519D01*
X70802383Y-64267948D01*
X70795968Y-64272609D01*
X70766612Y-64293937D01*
X70756695Y-64300451D01*
X70718638Y-64322958D01*
X70704317Y-64337279D01*
X70689284Y-64350119D01*
X70672893Y-64362028D01*
X70660202Y-64377369D01*
X70644702Y-64396105D01*
X70636712Y-64404884D01*
X69462000Y-65579595D01*
X69399688Y-65613621D01*
X69372905Y-65616500D01*
X68987928Y-65616500D01*
X68984682Y-65616837D01*
X68984678Y-65616837D01*
X68890765Y-65626581D01*
X68890761Y-65626582D01*
X68883907Y-65627293D01*
X68877371Y-65629474D01*
X68877369Y-65629474D01*
X68744945Y-65673654D01*
X68673995Y-65676238D01*
X68612911Y-65640054D01*
X68581087Y-65576590D01*
X68588626Y-65505995D01*
X68597810Y-65488013D01*
X68614368Y-65461152D01*
X68614369Y-65461149D01*
X68618209Y-65454920D01*
X68672974Y-65289809D01*
X68683500Y-65187072D01*
X68683500Y-64487928D01*
X68682972Y-64482837D01*
X68673419Y-64390765D01*
X68673418Y-64390761D01*
X68672707Y-64383907D01*
X68617654Y-64218893D01*
X68526116Y-64070969D01*
X68507345Y-64052231D01*
X68408184Y-63953242D01*
X68408179Y-63953238D01*
X68403003Y-63948071D01*
X68393198Y-63942027D01*
X68261150Y-63860631D01*
X68261148Y-63860630D01*
X68254920Y-63856791D01*
X68089809Y-63802026D01*
X68082973Y-63801326D01*
X68082970Y-63801325D01*
X68031474Y-63796049D01*
X67987072Y-63791500D01*
X67412928Y-63791500D01*
X67409682Y-63791837D01*
X67409678Y-63791837D01*
X67315765Y-63801581D01*
X67315761Y-63801582D01*
X67308907Y-63802293D01*
X67302371Y-63804474D01*
X67302369Y-63804474D01*
X67212886Y-63834328D01*
X67143893Y-63857346D01*
X66995969Y-63948884D01*
X66990796Y-63954066D01*
X66955252Y-63989672D01*
X66892969Y-64023751D01*
X66822149Y-64018748D01*
X66787987Y-63999536D01*
X66783183Y-63995742D01*
X66778003Y-63990571D01*
X66759577Y-63979213D01*
X66636150Y-63903131D01*
X66636148Y-63903130D01*
X66629920Y-63899291D01*
X66464809Y-63844526D01*
X66457973Y-63843826D01*
X66457970Y-63843825D01*
X66406474Y-63838549D01*
X66362072Y-63834000D01*
X65787928Y-63834000D01*
X65784682Y-63834337D01*
X65784678Y-63834337D01*
X65690765Y-63844081D01*
X65690761Y-63844082D01*
X65683907Y-63844793D01*
X65677371Y-63846974D01*
X65677369Y-63846974D01*
X65634723Y-63861202D01*
X65518893Y-63899846D01*
X65390636Y-63979213D01*
X65322186Y-63998050D01*
X65254416Y-63976888D01*
X65235240Y-63961163D01*
X65172276Y-63898199D01*
X64999058Y-63776911D01*
X64994080Y-63774590D01*
X64994077Y-63774588D01*
X64812392Y-63689867D01*
X64812391Y-63689866D01*
X64807410Y-63687544D01*
X64802102Y-63686122D01*
X64802100Y-63686121D01*
X64608470Y-63634238D01*
X64608468Y-63634238D01*
X64603155Y-63632814D01*
X64392500Y-63614384D01*
X64181845Y-63632814D01*
X64176532Y-63634238D01*
X64176530Y-63634238D01*
X63982900Y-63686121D01*
X63982898Y-63686122D01*
X63977590Y-63687544D01*
X63972609Y-63689866D01*
X63972608Y-63689867D01*
X63790923Y-63774588D01*
X63790920Y-63774590D01*
X63785942Y-63776911D01*
X63612724Y-63898199D01*
X63463199Y-64047724D01*
X63341911Y-64220942D01*
X63339590Y-64225920D01*
X63339588Y-64225923D01*
X63262721Y-64390765D01*
X63252544Y-64412590D01*
X63251122Y-64417898D01*
X63251121Y-64417900D01*
X63240436Y-64457778D01*
X63197814Y-64616845D01*
X63179384Y-64827500D01*
X63197814Y-65038155D01*
X63199238Y-65043468D01*
X63199238Y-65043470D01*
X63233053Y-65169667D01*
X63252544Y-65242410D01*
X63254866Y-65247391D01*
X63254867Y-65247392D01*
X63338284Y-65426279D01*
X63341911Y-65434058D01*
X63463199Y-65607276D01*
X63612724Y-65756801D01*
X63785942Y-65878089D01*
X63790920Y-65880410D01*
X63790923Y-65880412D01*
X63972608Y-65965133D01*
X63977590Y-65967456D01*
X63982898Y-65968878D01*
X63982900Y-65968879D01*
X64176530Y-66020762D01*
X64176532Y-66020762D01*
X64181845Y-66022186D01*
X64392500Y-66040616D01*
X64603155Y-66022186D01*
X64608468Y-66020762D01*
X64608470Y-66020762D01*
X64802100Y-65968879D01*
X64802102Y-65968878D01*
X64807410Y-65967456D01*
X64812392Y-65965133D01*
X64994077Y-65880412D01*
X64994080Y-65880410D01*
X64999058Y-65878089D01*
X65004256Y-65874449D01*
X65004610Y-65874330D01*
X65008325Y-65872185D01*
X65008756Y-65872931D01*
X65071526Y-65851756D01*
X65140388Y-65869034D01*
X65188977Y-65920799D01*
X65201866Y-65990616D01*
X65183795Y-66043771D01*
X65156791Y-66087580D01*
X65102026Y-66252691D01*
X65091500Y-66355428D01*
X65091500Y-66954572D01*
X65091837Y-66957818D01*
X65091837Y-66957822D01*
X65100726Y-67043488D01*
X65102293Y-67058593D01*
X65104474Y-67065129D01*
X65104474Y-67065131D01*
X65132041Y-67147759D01*
X65157346Y-67223607D01*
X65248884Y-67371531D01*
X65254066Y-67376704D01*
X65366816Y-67489258D01*
X65366821Y-67489262D01*
X65371997Y-67494429D01*
X65378227Y-67498269D01*
X65378228Y-67498270D01*
X65510877Y-67580036D01*
X65520080Y-67585709D01*
X65685191Y-67640474D01*
X65692027Y-67641174D01*
X65692030Y-67641175D01*
X65743526Y-67646451D01*
X65787928Y-67651000D01*
X66362072Y-67651000D01*
X66365318Y-67650663D01*
X66365322Y-67650663D01*
X66459235Y-67640919D01*
X66459239Y-67640918D01*
X66466093Y-67640207D01*
X66472629Y-67638026D01*
X66472631Y-67638026D01*
X66605395Y-67593732D01*
X66631107Y-67585154D01*
X66779031Y-67493616D01*
X66819747Y-67452828D01*
X66882031Y-67418749D01*
X66952851Y-67423752D01*
X66987013Y-67442964D01*
X66991817Y-67446758D01*
X66996997Y-67451929D01*
X67003227Y-67455769D01*
X67003228Y-67455770D01*
X67072176Y-67498270D01*
X67145080Y-67543209D01*
X67310191Y-67597974D01*
X67317027Y-67598674D01*
X67317030Y-67598675D01*
X67368526Y-67603951D01*
X67412928Y-67608500D01*
X67987072Y-67608500D01*
X67990318Y-67608163D01*
X67990322Y-67608163D01*
X68084235Y-67598419D01*
X68084239Y-67598418D01*
X68091093Y-67597707D01*
X68097627Y-67595527D01*
X68097632Y-67595526D01*
X68136315Y-67582620D01*
X68207265Y-67580036D01*
X68268349Y-67616220D01*
X68300173Y-67679684D01*
X68301535Y-67714984D01*
X68291500Y-67812928D01*
X68291500Y-68387072D01*
X68291837Y-68390318D01*
X68291837Y-68390322D01*
X68301440Y-68482868D01*
X68302293Y-68491093D01*
X68304474Y-68497629D01*
X68304474Y-68497631D01*
X68322528Y-68551745D01*
X68357346Y-68656107D01*
X68392438Y-68712814D01*
X68393062Y-68713823D01*
X68411900Y-68782275D01*
X68390739Y-68850044D01*
X68336298Y-68895616D01*
X68298922Y-68905453D01*
X68215765Y-68914081D01*
X68215761Y-68914082D01*
X68208907Y-68914793D01*
X68202371Y-68916974D01*
X68202369Y-68916974D01*
X68069605Y-68961268D01*
X68043893Y-68969846D01*
X67895969Y-69061384D01*
X67890796Y-69066566D01*
X67830459Y-69127008D01*
X67768176Y-69161087D01*
X67697356Y-69156084D01*
X67652268Y-69127163D01*
X67648929Y-69123829D01*
X67553003Y-69028071D01*
X67546772Y-69024230D01*
X67411150Y-68940631D01*
X67411148Y-68940630D01*
X67404920Y-68936791D01*
X67239809Y-68882026D01*
X67232973Y-68881326D01*
X67232970Y-68881325D01*
X67181474Y-68876049D01*
X67137072Y-68871500D01*
X66562928Y-68871500D01*
X66559682Y-68871837D01*
X66559678Y-68871837D01*
X66465765Y-68881581D01*
X66465761Y-68881582D01*
X66458907Y-68882293D01*
X66452371Y-68884474D01*
X66452369Y-68884474D01*
X66354955Y-68916974D01*
X66293893Y-68937346D01*
X66145969Y-69028884D01*
X66140796Y-69034066D01*
X66028242Y-69146816D01*
X66028238Y-69146821D01*
X66023071Y-69151997D01*
X66019231Y-69158227D01*
X66019230Y-69158228D01*
X65984780Y-69214116D01*
X65932007Y-69261610D01*
X65877520Y-69274000D01*
X65489815Y-69274000D01*
X65421694Y-69253998D01*
X65386602Y-69220270D01*
X65343160Y-69158228D01*
X65321801Y-69127724D01*
X65172276Y-68978199D01*
X64999058Y-68856911D01*
X64994080Y-68854590D01*
X64994077Y-68854588D01*
X64812392Y-68769867D01*
X64812391Y-68769866D01*
X64807410Y-68767544D01*
X64802102Y-68766122D01*
X64802100Y-68766121D01*
X64608470Y-68714238D01*
X64608468Y-68714238D01*
X64603155Y-68712814D01*
X64392500Y-68694384D01*
X64181845Y-68712814D01*
X64176532Y-68714238D01*
X64176530Y-68714238D01*
X63982900Y-68766121D01*
X63982898Y-68766122D01*
X63977590Y-68767544D01*
X63972609Y-68769866D01*
X63972608Y-68769867D01*
X63790923Y-68854588D01*
X63790920Y-68854590D01*
X63785942Y-68856911D01*
X63612724Y-68978199D01*
X63463199Y-69127724D01*
X63341911Y-69300942D01*
X63339590Y-69305920D01*
X63339588Y-69305923D01*
X63254867Y-69487608D01*
X63252544Y-69492590D01*
X63251122Y-69497898D01*
X63251121Y-69497900D01*
X63224520Y-69597178D01*
X63197814Y-69696845D01*
X63179384Y-69907500D01*
X56134500Y-69907500D01*
X56134500Y-61934500D01*
X56154502Y-61866379D01*
X56208158Y-61819886D01*
X56260500Y-61808500D01*
X123825500Y-61808500D01*
X123893621Y-61828502D01*
G37*
%TD.AperFunction*%
%TD*%
M02*
