%TF.GenerationSoftware,KiCad,Pcbnew,9.0.0*%
%TF.CreationDate,2025-04-10T22:59:02-04:00*%
%TF.ProjectId,USBLabTool,5553424c-6162-4546-9f6f-6c2e6b696361,2*%
%TF.SameCoordinates,Original*%
%TF.FileFunction,Copper,L1,Top*%
%TF.FilePolarity,Positive*%
%FSLAX46Y46*%
G04 Gerber Fmt 4.6, Leading zero omitted, Abs format (unit mm)*
G04 Created by KiCad (PCBNEW 9.0.0) date 2025-04-10 22:59:02*
%MOMM*%
%LPD*%
G01*
G04 APERTURE LIST*
G04 Aperture macros list*
%AMRoundRect*
0 Rectangle with rounded corners*
0 $1 Rounding radius*
0 $2 $3 $4 $5 $6 $7 $8 $9 X,Y pos of 4 corners*
0 Add a 4 corners polygon primitive as box body*
4,1,4,$2,$3,$4,$5,$6,$7,$8,$9,$2,$3,0*
0 Add four circle primitives for the rounded corners*
1,1,$1+$1,$2,$3*
1,1,$1+$1,$4,$5*
1,1,$1+$1,$6,$7*
1,1,$1+$1,$8,$9*
0 Add four rect primitives between the rounded corners*
20,1,$1+$1,$2,$3,$4,$5,0*
20,1,$1+$1,$4,$5,$6,$7,0*
20,1,$1+$1,$6,$7,$8,$9,0*
20,1,$1+$1,$8,$9,$2,$3,0*%
%AMFreePoly0*
4,1,23,0.500000,-0.750000,0.000000,-0.750000,0.000000,-0.745722,-0.065263,-0.745722,-0.191342,-0.711940,-0.304381,-0.646677,-0.396677,-0.554381,-0.461940,-0.441342,-0.495722,-0.315263,-0.495722,-0.250000,-0.500000,-0.250000,-0.500000,0.250000,-0.495722,0.250000,-0.495722,0.315263,-0.461940,0.441342,-0.396677,0.554381,-0.304381,0.646677,-0.191342,0.711940,-0.065263,0.745722,0.000000,0.745722,
0.000000,0.750000,0.500000,0.750000,0.500000,-0.750000,0.500000,-0.750000,$1*%
%AMFreePoly1*
4,1,23,0.000000,0.745722,0.065263,0.745722,0.191342,0.711940,0.304381,0.646677,0.396677,0.554381,0.461940,0.441342,0.495722,0.315263,0.495722,0.250000,0.500000,0.250000,0.500000,-0.250000,0.495722,-0.250000,0.495722,-0.315263,0.461940,-0.441342,0.396677,-0.554381,0.304381,-0.646677,0.191342,-0.711940,0.065263,-0.745722,0.000000,-0.745722,0.000000,-0.750000,-0.500000,-0.750000,
-0.500000,0.750000,0.000000,0.750000,0.000000,0.745722,0.000000,0.745722,$1*%
G04 Aperture macros list end*
%TA.AperFunction,SMDPad,CuDef*%
%ADD10RoundRect,0.200000X-0.200000X-0.275000X0.200000X-0.275000X0.200000X0.275000X-0.200000X0.275000X0*%
%TD*%
%TA.AperFunction,SMDPad,CuDef*%
%ADD11RoundRect,0.250000X0.337500X0.475000X-0.337500X0.475000X-0.337500X-0.475000X0.337500X-0.475000X0*%
%TD*%
%TA.AperFunction,SMDPad,CuDef*%
%ADD12RoundRect,0.237500X-0.250000X-0.237500X0.250000X-0.237500X0.250000X0.237500X-0.250000X0.237500X0*%
%TD*%
%TA.AperFunction,SMDPad,CuDef*%
%ADD13RoundRect,0.075000X0.725000X0.075000X-0.725000X0.075000X-0.725000X-0.075000X0.725000X-0.075000X0*%
%TD*%
%TA.AperFunction,SMDPad,CuDef*%
%ADD14RoundRect,0.075000X0.075000X0.725000X-0.075000X0.725000X-0.075000X-0.725000X0.075000X-0.725000X0*%
%TD*%
%TA.AperFunction,SMDPad,CuDef*%
%ADD15RoundRect,0.237500X0.300000X0.237500X-0.300000X0.237500X-0.300000X-0.237500X0.300000X-0.237500X0*%
%TD*%
%TA.AperFunction,SMDPad,CuDef*%
%ADD16C,2.000000*%
%TD*%
%TA.AperFunction,SMDPad,CuDef*%
%ADD17RoundRect,0.150000X-0.825000X-0.150000X0.825000X-0.150000X0.825000X0.150000X-0.825000X0.150000X0*%
%TD*%
%TA.AperFunction,SMDPad,CuDef*%
%ADD18RoundRect,0.100000X-0.637500X-0.100000X0.637500X-0.100000X0.637500X0.100000X-0.637500X0.100000X0*%
%TD*%
%TA.AperFunction,ComponentPad*%
%ADD19R,1.700000X1.700000*%
%TD*%
%TA.AperFunction,ComponentPad*%
%ADD20O,1.700000X1.700000*%
%TD*%
%TA.AperFunction,SMDPad,CuDef*%
%ADD21RoundRect,0.237500X-0.237500X0.250000X-0.237500X-0.250000X0.237500X-0.250000X0.237500X0.250000X0*%
%TD*%
%TA.AperFunction,SMDPad,CuDef*%
%ADD22RoundRect,0.237500X-0.300000X-0.237500X0.300000X-0.237500X0.300000X0.237500X-0.300000X0.237500X0*%
%TD*%
%TA.AperFunction,SMDPad,CuDef*%
%ADD23R,5.207000X1.066800*%
%TD*%
%TA.AperFunction,SMDPad,CuDef*%
%ADD24RoundRect,0.137500X-0.137500X0.587500X-0.137500X-0.587500X0.137500X-0.587500X0.137500X0.587500X0*%
%TD*%
%TA.AperFunction,SMDPad,CuDef*%
%ADD25RoundRect,0.200000X0.200000X0.275000X-0.200000X0.275000X-0.200000X-0.275000X0.200000X-0.275000X0*%
%TD*%
%TA.AperFunction,SMDPad,CuDef*%
%ADD26RoundRect,0.237500X-0.237500X0.300000X-0.237500X-0.300000X0.237500X-0.300000X0.237500X0.300000X0*%
%TD*%
%TA.AperFunction,SMDPad,CuDef*%
%ADD27RoundRect,0.237500X0.250000X0.237500X-0.250000X0.237500X-0.250000X-0.237500X0.250000X-0.237500X0*%
%TD*%
%TA.AperFunction,SMDPad,CuDef*%
%ADD28RoundRect,0.200000X0.275000X-0.200000X0.275000X0.200000X-0.275000X0.200000X-0.275000X-0.200000X0*%
%TD*%
%TA.AperFunction,SMDPad,CuDef*%
%ADD29RoundRect,0.150000X-0.587500X-0.150000X0.587500X-0.150000X0.587500X0.150000X-0.587500X0.150000X0*%
%TD*%
%TA.AperFunction,SMDPad,CuDef*%
%ADD30R,0.838200X0.762000*%
%TD*%
%TA.AperFunction,SMDPad,CuDef*%
%ADD31RoundRect,0.112500X0.187500X0.112500X-0.187500X0.112500X-0.187500X-0.112500X0.187500X-0.112500X0*%
%TD*%
%TA.AperFunction,SMDPad,CuDef*%
%ADD32RoundRect,0.125000X-0.687500X-0.125000X0.687500X-0.125000X0.687500X0.125000X-0.687500X0.125000X0*%
%TD*%
%TA.AperFunction,SMDPad,CuDef*%
%ADD33RoundRect,0.062500X0.062500X0.350000X-0.062500X0.350000X-0.062500X-0.350000X0.062500X-0.350000X0*%
%TD*%
%TA.AperFunction,SMDPad,CuDef*%
%ADD34RoundRect,0.062500X0.350000X0.062500X-0.350000X0.062500X-0.350000X-0.062500X0.350000X-0.062500X0*%
%TD*%
%TA.AperFunction,HeatsinkPad*%
%ADD35R,1.000000X3.000000*%
%TD*%
%TA.AperFunction,SMDPad,CuDef*%
%ADD36RoundRect,0.100000X-0.217500X-0.100000X0.217500X-0.100000X0.217500X0.100000X-0.217500X0.100000X0*%
%TD*%
%TA.AperFunction,SMDPad,CuDef*%
%ADD37R,0.698500X2.006600*%
%TD*%
%TA.AperFunction,SMDPad,CuDef*%
%ADD38RoundRect,0.112500X0.112500X-0.187500X0.112500X0.187500X-0.112500X0.187500X-0.112500X-0.187500X0*%
%TD*%
%TA.AperFunction,ComponentPad*%
%ADD39R,1.508000X1.508000*%
%TD*%
%TA.AperFunction,ComponentPad*%
%ADD40C,1.508000*%
%TD*%
%TA.AperFunction,SMDPad,CuDef*%
%ADD41RoundRect,0.237500X-0.287500X-0.237500X0.287500X-0.237500X0.287500X0.237500X-0.287500X0.237500X0*%
%TD*%
%TA.AperFunction,SMDPad,CuDef*%
%ADD42RoundRect,0.200000X-0.275000X0.200000X-0.275000X-0.200000X0.275000X-0.200000X0.275000X0.200000X0*%
%TD*%
%TA.AperFunction,SMDPad,CuDef*%
%ADD43RoundRect,0.162500X0.162500X-0.837500X0.162500X0.837500X-0.162500X0.837500X-0.162500X-0.837500X0*%
%TD*%
%TA.AperFunction,SMDPad,CuDef*%
%ADD44RoundRect,0.100000X0.100000X-0.217500X0.100000X0.217500X-0.100000X0.217500X-0.100000X-0.217500X0*%
%TD*%
%TA.AperFunction,SMDPad,CuDef*%
%ADD45RoundRect,0.237500X0.237500X-0.300000X0.237500X0.300000X-0.237500X0.300000X-0.237500X-0.300000X0*%
%TD*%
%TA.AperFunction,ComponentPad*%
%ADD46R,1.800000X1.800000*%
%TD*%
%TA.AperFunction,ComponentPad*%
%ADD47C,1.800000*%
%TD*%
%TA.AperFunction,SMDPad,CuDef*%
%ADD48RoundRect,0.225000X-0.250000X0.225000X-0.250000X-0.225000X0.250000X-0.225000X0.250000X0.225000X0*%
%TD*%
%TA.AperFunction,SMDPad,CuDef*%
%ADD49FreePoly0,270.000000*%
%TD*%
%TA.AperFunction,SMDPad,CuDef*%
%ADD50FreePoly1,270.000000*%
%TD*%
%TA.AperFunction,SMDPad,CuDef*%
%ADD51FreePoly0,180.000000*%
%TD*%
%TA.AperFunction,SMDPad,CuDef*%
%ADD52FreePoly1,180.000000*%
%TD*%
%TA.AperFunction,SMDPad,CuDef*%
%ADD53R,1.066800X5.207000*%
%TD*%
%TA.AperFunction,SMDPad,CuDef*%
%ADD54R,2.006600X0.698500*%
%TD*%
%TA.AperFunction,SMDPad,CuDef*%
%ADD55RoundRect,0.162500X-0.617500X-0.162500X0.617500X-0.162500X0.617500X0.162500X-0.617500X0.162500X0*%
%TD*%
%TA.AperFunction,SMDPad,CuDef*%
%ADD56RoundRect,0.062500X0.350000X-0.062500X0.350000X0.062500X-0.350000X0.062500X-0.350000X-0.062500X0*%
%TD*%
%TA.AperFunction,SMDPad,CuDef*%
%ADD57RoundRect,0.062500X0.062500X-0.350000X0.062500X0.350000X-0.062500X0.350000X-0.062500X-0.350000X0*%
%TD*%
%TA.AperFunction,HeatsinkPad*%
%ADD58R,3.000000X1.000000*%
%TD*%
%TA.AperFunction,SMDPad,CuDef*%
%ADD59RoundRect,0.125000X0.687500X0.125000X-0.687500X0.125000X-0.687500X-0.125000X0.687500X-0.125000X0*%
%TD*%
%TA.AperFunction,SMDPad,CuDef*%
%ADD60FreePoly0,90.000000*%
%TD*%
%TA.AperFunction,SMDPad,CuDef*%
%ADD61FreePoly1,90.000000*%
%TD*%
%TA.AperFunction,SMDPad,CuDef*%
%ADD62RoundRect,0.237500X0.237500X-0.250000X0.237500X0.250000X-0.237500X0.250000X-0.237500X-0.250000X0*%
%TD*%
%TA.AperFunction,ComponentPad*%
%ADD63R,1.400000X1.400000*%
%TD*%
%TA.AperFunction,ComponentPad*%
%ADD64C,1.400000*%
%TD*%
%TA.AperFunction,SMDPad,CuDef*%
%ADD65RoundRect,0.237500X0.287500X0.237500X-0.287500X0.237500X-0.287500X-0.237500X0.287500X-0.237500X0*%
%TD*%
%TA.AperFunction,SMDPad,CuDef*%
%ADD66R,0.400000X0.750000*%
%TD*%
%TA.AperFunction,SMDPad,CuDef*%
%ADD67R,2.450000X2.400000*%
%TD*%
%TA.AperFunction,SMDPad,CuDef*%
%ADD68R,0.530000X0.400000*%
%TD*%
%TA.AperFunction,SMDPad,CuDef*%
%ADD69RoundRect,0.250001X0.624999X-0.462499X0.624999X0.462499X-0.624999X0.462499X-0.624999X-0.462499X0*%
%TD*%
%TA.AperFunction,SMDPad,CuDef*%
%ADD70R,0.700000X0.300000*%
%TD*%
%TA.AperFunction,HeatsinkPad*%
%ADD71O,1.400000X0.800000*%
%TD*%
%TA.AperFunction,ViaPad*%
%ADD72C,0.600000*%
%TD*%
%TA.AperFunction,Conductor*%
%ADD73C,0.400000*%
%TD*%
%TA.AperFunction,Conductor*%
%ADD74C,0.200000*%
%TD*%
G04 APERTURE END LIST*
D10*
%TO.P,R45,1*%
%TO.N,/AWG_FrontEnd/C1_OUT_G*%
X120181000Y-89434000D03*
%TO.P,R45,2*%
%TO.N,Net-(U10C--)*%
X121831000Y-89434000D03*
%TD*%
D11*
%TO.P,C30,1*%
%TO.N,Net-(U10B-+)*%
X118543500Y-86244000D03*
%TO.P,C30,2*%
%TO.N,GND*%
X116468500Y-86244000D03*
%TD*%
D12*
%TO.P,R31,1*%
%TO.N,Net-(U7--)*%
X165963501Y-85444000D03*
%TO.P,R31,2*%
%TO.N,ADC2_INP3*%
X167788501Y-85444000D03*
%TD*%
D13*
%TO.P,U12,1,PE2*%
%TO.N,unconnected-(U12-PE2-Pad1)*%
X150556000Y-97294000D03*
%TO.P,U12,2,PE3*%
%TO.N,unconnected-(U12-PE3-Pad2)*%
X150556000Y-96794000D03*
%TO.P,U12,3,PE4*%
%TO.N,unconnected-(U12-PE4-Pad3)*%
X150556000Y-96294000D03*
%TO.P,U12,4,PE5*%
%TO.N,unconnected-(U12-PE5-Pad4)*%
X150556000Y-95794000D03*
%TO.P,U12,5,PE6*%
%TO.N,unconnected-(U12-PE6-Pad5)*%
X150556000Y-95294000D03*
%TO.P,U12,6,VBAT*%
%TO.N,+3.3V*%
X150556000Y-94794000D03*
%TO.P,U12,7,PC13*%
%TO.N,unconnected-(U12-PC13-Pad7)*%
X150556000Y-94294000D03*
%TO.P,U12,8,PC14*%
%TO.N,RCC_OSC32_IN*%
X150556000Y-93794000D03*
%TO.P,U12,9,PC15*%
%TO.N,RCC_OSC32_OUT*%
X150556000Y-93294000D03*
%TO.P,U12,10,VSS*%
%TO.N,GND*%
X150556000Y-92794000D03*
%TO.P,U12,11,VDD*%
%TO.N,+3.3V*%
X150556000Y-92294000D03*
%TO.P,U12,12,PH0*%
%TO.N,RCC_OSC_IN*%
X150556000Y-91794000D03*
%TO.P,U12,13,PH1*%
%TO.N,RCC_OSC_OUT*%
X150556000Y-91294000D03*
%TO.P,U12,14,NRST*%
%TO.N,NRST*%
X150556000Y-90794000D03*
%TO.P,U12,15,PC0*%
%TO.N,unconnected-(U12-PC0-Pad15)*%
X150556000Y-90294000D03*
%TO.P,U12,16,PC1*%
%TO.N,unconnected-(U12-PC1-Pad16)*%
X150556000Y-89794000D03*
%TO.P,U12,17,PC2*%
%TO.N,CH0_attenuate*%
X150556000Y-89294000D03*
%TO.P,U12,18,PC3*%
%TO.N,CH0_ACDC*%
X150556000Y-88794000D03*
%TO.P,U12,19,VSSA*%
%TO.N,GNDA*%
X150556000Y-88294000D03*
%TO.P,U12,20,VREF-*%
X150556000Y-87794000D03*
%TO.P,U12,21,VREF+*%
%TO.N,VREFP*%
X150556000Y-87294000D03*
%TO.P,U12,22,VDDA*%
%TO.N,Net-(U12-VDDA)*%
X150556000Y-86794000D03*
%TO.P,U12,23,PA0*%
%TO.N,ADC1_INP0*%
X150556000Y-86294000D03*
%TO.P,U12,24,PA1*%
%TO.N,TIM2_CH2*%
X150556000Y-85794000D03*
%TO.P,U12,25,PA2*%
%TO.N,TIM2_CH3*%
X150556000Y-85294000D03*
D14*
%TO.P,U12,26,PA3*%
%TO.N,GAIN_C0*%
X148881000Y-83619000D03*
%TO.P,U12,27,VSS*%
%TO.N,GND*%
X148381000Y-83619000D03*
%TO.P,U12,28,VDD*%
%TO.N,+3.3V*%
X147881000Y-83619000D03*
%TO.P,U12,29,PA4*%
%TO.N,C0_IN*%
X147381000Y-83619000D03*
%TO.P,U12,30,PA5*%
%TO.N,C1_IN*%
X146881000Y-83619000D03*
%TO.P,U12,31,PA6*%
%TO.N,ADC2_INP3*%
X146381000Y-83619000D03*
%TO.P,U12,32,PA7*%
%TO.N,GAIN_C1*%
X145881000Y-83619000D03*
%TO.P,U12,33,PC4*%
%TO.N,CH1_ACDC*%
X145381000Y-83619000D03*
%TO.P,U12,34,PC5*%
%TO.N,CH1_attenuate*%
X144881000Y-83619000D03*
%TO.P,U12,35,PB0*%
%TO.N,CH1_amp_1*%
X144381000Y-83619000D03*
%TO.P,U12,36,PB1*%
%TO.N,CH1_amp_5*%
X143881000Y-83619000D03*
%TO.P,U12,37,PB2*%
%TO.N,CH1_amp_2.5*%
X143381000Y-83619000D03*
%TO.P,U12,38,PE7*%
%TO.N,unconnected-(U12-PE7-Pad38)*%
X142881000Y-83619000D03*
%TO.P,U12,39,PE8*%
%TO.N,unconnected-(U12-PE8-Pad39)*%
X142381000Y-83619000D03*
%TO.P,U12,40,PE9*%
%TO.N,unconnected-(U12-PE9-Pad40)*%
X141881000Y-83619000D03*
%TO.P,U12,41,PE10*%
%TO.N,unconnected-(U12-PE10-Pad41)*%
X141381000Y-83619000D03*
%TO.P,U12,42,PE11*%
%TO.N,unconnected-(U12-PE11-Pad42)*%
X140881000Y-83619000D03*
%TO.P,U12,43,PE12*%
%TO.N,unconnected-(U12-PE12-Pad43)*%
X140381000Y-83619000D03*
%TO.P,U12,44,PE13*%
%TO.N,unconnected-(U12-PE13-Pad44)*%
X139881000Y-83619000D03*
%TO.P,U12,45,PE14*%
%TO.N,unconnected-(U12-PE14-Pad45)*%
X139381000Y-83619000D03*
%TO.P,U12,46,PE15*%
%TO.N,unconnected-(U12-PE15-Pad46)*%
X138881000Y-83619000D03*
%TO.P,U12,47,PB10*%
%TO.N,CH1_amp_10*%
X138381000Y-83619000D03*
%TO.P,U12,48,VCAP*%
%TO.N,Net-(C31-Pad2)*%
X137881000Y-83619000D03*
%TO.P,U12,49,VSS*%
%TO.N,GND*%
X137381000Y-83619000D03*
%TO.P,U12,50,VDD*%
%TO.N,+3.3V*%
X136881000Y-83619000D03*
D13*
%TO.P,U12,51,PB12*%
%TO.N,CH0_amp_1*%
X135206000Y-85294000D03*
%TO.P,U12,52,PB13*%
%TO.N,Net-(U12-PB13)*%
X135206000Y-85794000D03*
%TO.P,U12,53,PB14*%
%TO.N,Net-(U12-PB14)*%
X135206000Y-86294000D03*
%TO.P,U12,54,PB15*%
%TO.N,CH0_amp_10*%
X135206000Y-86794000D03*
%TO.P,U12,55,PD8*%
%TO.N,LOGIC_IN15*%
X135206000Y-87294000D03*
%TO.P,U12,56,PD9*%
%TO.N,LOGIC_IN14*%
X135206000Y-87794000D03*
%TO.P,U12,57,PD10*%
%TO.N,LOGIC_IN13*%
X135206000Y-88294000D03*
%TO.P,U12,58,PD11*%
%TO.N,LOGIC_IN12*%
X135206000Y-88794000D03*
%TO.P,U12,59,PD12*%
%TO.N,LOGIC_IN11*%
X135206000Y-89294000D03*
%TO.P,U12,60,PD13*%
%TO.N,LOGIC_IN10*%
X135206000Y-89794000D03*
%TO.P,U12,61,PD14*%
%TO.N,LOGIC_IN9*%
X135206000Y-90294000D03*
%TO.P,U12,62,PD15*%
%TO.N,LOGIC_IN8*%
X135206000Y-90794000D03*
%TO.P,U12,63,PC6*%
%TO.N,CH0_amp_2.5*%
X135206000Y-91294000D03*
%TO.P,U12,64,PC7*%
%TO.N,unconnected-(U12-PC7-Pad64)*%
X135206000Y-91794000D03*
%TO.P,U12,65,PC8*%
%TO.N,CH0_amp_5*%
X135206000Y-92294000D03*
%TO.P,U12,66,PC9*%
%TO.N,UCPD_FLT*%
X135206000Y-92794000D03*
%TO.P,U12,67,PA8*%
%TO.N,TIM1_CH1*%
X135206000Y-93294000D03*
%TO.P,U12,68,PA9*%
%TO.N,USCPD_DBn*%
X135206000Y-93794000D03*
%TO.P,U12,69,PA10*%
%TO.N,TIM1_CH2*%
X135206000Y-94294000D03*
%TO.P,U12,70,PA11*%
%TO.N,USB_D-*%
X135206000Y-94794000D03*
%TO.P,U12,71,PA12*%
%TO.N,USB_D+*%
X135206000Y-95294000D03*
%TO.P,U12,72,PA13(JTMS*%
%TO.N,DEBUG_JTMS-SWDI0*%
X135206000Y-95794000D03*
%TO.P,U12,73,VDDUSB*%
%TO.N,+3.3V*%
X135206000Y-96294000D03*
%TO.P,U12,74,VSS*%
%TO.N,GND*%
X135206000Y-96794000D03*
%TO.P,U12,75,VDD*%
%TO.N,+3.3V*%
X135206000Y-97294000D03*
D14*
%TO.P,U12,76,PA14(JTCK*%
%TO.N,DEBUG_JTCK_SWCLK*%
X136881000Y-98969000D03*
%TO.P,U12,77,PA15(JTDI)*%
%TO.N,unconnected-(U12-PA15(JTDI)-Pad77)*%
X137381000Y-98969000D03*
%TO.P,U12,78,PC10*%
%TO.N,unconnected-(U12-PC10-Pad78)*%
X137881000Y-98969000D03*
%TO.P,U12,79,PC11*%
%TO.N,unconnected-(U12-PC11-Pad79)*%
X138381000Y-98969000D03*
%TO.P,U12,80,PC12*%
%TO.N,unconnected-(U12-PC12-Pad80)*%
X138881000Y-98969000D03*
%TO.P,U12,81,PD0*%
%TO.N,LOGIC_IN0*%
X139381000Y-98969000D03*
%TO.P,U12,82,PD1*%
%TO.N,LOGIC_IN1*%
X139881000Y-98969000D03*
%TO.P,U12,83,PD2*%
%TO.N,LOGIC_IN2*%
X140381000Y-98969000D03*
%TO.P,U12,84,PD3*%
%TO.N,LOGIC_IN3*%
X140881000Y-98969000D03*
%TO.P,U12,85,PD4*%
%TO.N,LOGIC_IN4*%
X141381000Y-98969000D03*
%TO.P,U12,86,PD5*%
%TO.N,LOGIC_IN5*%
X141881000Y-98969000D03*
%TO.P,U12,87,PD6*%
%TO.N,LOGIC_IN6*%
X142381000Y-98969000D03*
%TO.P,U12,88,PD7*%
%TO.N,LOGIC_IN7*%
X142881000Y-98969000D03*
%TO.P,U12,89,PB3(JTDO*%
%TO.N,DEBUG_JTD-SW0*%
X143381000Y-98969000D03*
%TO.P,U12,90,PB4(NJTRST)*%
%TO.N,unconnected-(U12-PB4(NJTRST)-Pad90)*%
X143881000Y-98969000D03*
%TO.P,U12,91,PB5*%
%TO.N,unconnected-(U12-PB5-Pad91)*%
X144381000Y-98969000D03*
%TO.P,U12,92,PB6*%
%TO.N,unconnected-(U12-PB6-Pad92)*%
X144881000Y-98969000D03*
%TO.P,U12,93,PB7*%
%TO.N,unconnected-(U12-PB7-Pad93)*%
X145381000Y-98969000D03*
%TO.P,U12,94,BOOT0*%
%TO.N,Net-(U12-BOOT0)*%
X145881000Y-98969000D03*
%TO.P,U12,95,PB8*%
%TO.N,unconnected-(U12-PB8-Pad95)*%
X146381000Y-98969000D03*
%TO.P,U12,96,PB9*%
%TO.N,unconnected-(U12-PB9-Pad96)*%
X146881000Y-98969000D03*
%TO.P,U12,97,PE0*%
%TO.N,unconnected-(U12-PE0-Pad97)*%
X147381000Y-98969000D03*
%TO.P,U12,98,VCAP*%
%TO.N,Net-(C31-Pad1)*%
X147881000Y-98969000D03*
%TO.P,U12,99,VSS*%
%TO.N,GND*%
X148381000Y-98969000D03*
%TO.P,U12,100,VDD*%
%TO.N,+3.3V*%
X148881000Y-98969000D03*
%TD*%
D15*
%TO.P,C18,1*%
%TO.N,+5VCLEAN*%
X153788500Y-73786500D03*
%TO.P,C18,2*%
%TO.N,GNDA*%
X152063500Y-73786500D03*
%TD*%
D16*
%TO.P,TP4,1,1*%
%TO.N,/AWG_FrontEnd/C1_OUT_G*%
X133250000Y-79320000D03*
%TD*%
D17*
%TO.P,U9,1*%
%TO.N,/AWG_FrontEnd/C0_V_OFF*%
X119275000Y-102975000D03*
%TO.P,U9,2,-*%
X119275000Y-104245000D03*
%TO.P,U9,3,+*%
%TO.N,Net-(U9A-+)*%
X119275000Y-105515000D03*
%TO.P,U9,4,V+*%
%TO.N,+12VA*%
X119275000Y-106785000D03*
%TO.P,U9,5,+*%
%TO.N,C0_IN*%
X119275000Y-108055000D03*
%TO.P,U9,6,-*%
%TO.N,Net-(JP1-B)*%
X119275000Y-109325000D03*
%TO.P,U9,7*%
X119275000Y-110595000D03*
%TO.P,U9,8*%
%TO.N,/AWG_FrontEnd/C0_OUT_G*%
X124225000Y-110595000D03*
%TO.P,U9,9,-*%
%TO.N,/AWG_FrontEnd/C0_FB*%
X124225000Y-109325000D03*
%TO.P,U9,10,+*%
%TO.N,GNDA*%
X124225000Y-108055000D03*
%TO.P,U9,11,V-*%
%TO.N,-12VA*%
X124225000Y-106785000D03*
%TO.P,U9,12,+*%
%TO.N,GNDA*%
X124225000Y-105515000D03*
%TO.P,U9,13,-*%
%TO.N,Net-(U9D--)*%
X124225000Y-104245000D03*
%TO.P,U9,14*%
%TO.N,DAC1_OUT1*%
X124225000Y-102975000D03*
%TD*%
D18*
%TO.P,U5,1,1Z*%
%TO.N,Net-(U5-1Z)*%
X141381000Y-73044000D03*
%TO.P,U5,2,1Y*%
%TO.N,Net-(U5-1Y)*%
X141381000Y-73694000D03*
%TO.P,U5,3,2Y*%
X141381000Y-74344000D03*
%TO.P,U5,4,2Z*%
%TO.N,Net-(U5-2Z)*%
X141381000Y-74994000D03*
%TO.P,U5,5,2S*%
%TO.N,CH0_amp_2.5*%
X141381000Y-75644000D03*
%TO.P,U5,6,3S*%
%TO.N,CH0_amp_5*%
X141381000Y-76294000D03*
%TO.P,U5,7,E*%
%TO.N,GND*%
X141381000Y-76944000D03*
%TO.P,U5,8,GND*%
X141381000Y-77594000D03*
%TO.P,U5,9,V_EE*%
%TO.N,-5VCLEAN*%
X147106000Y-77594000D03*
%TO.P,U5,10,3Z*%
%TO.N,Net-(U5-3Z)*%
X147106000Y-76944000D03*
%TO.P,U5,11,3Y*%
%TO.N,Net-(U5-1Y)*%
X147106000Y-76294000D03*
%TO.P,U5,12,4Y*%
X147106000Y-75644000D03*
%TO.P,U5,13,4Z*%
%TO.N,Net-(U5-4Z)*%
X147106000Y-74994000D03*
%TO.P,U5,14,4S*%
%TO.N,CH0_amp_10*%
X147106000Y-74344000D03*
%TO.P,U5,15,1S*%
%TO.N,CH0_amp_1*%
X147106000Y-73694000D03*
%TO.P,U5,16,V_CC*%
%TO.N,+5VCLEAN*%
X147106000Y-73044000D03*
%TD*%
D10*
%TO.P,R48,1*%
%TO.N,Net-(U9D--)*%
X127081000Y-101644000D03*
%TO.P,R48,2*%
%TO.N,-5VCLEAN*%
X128731000Y-101644000D03*
%TD*%
D12*
%TO.P,R27,1*%
%TO.N,Net-(U6--IN_B)*%
X155593500Y-77044000D03*
%TO.P,R27,2*%
%TO.N,GNDA*%
X157418500Y-77044000D03*
%TD*%
D16*
%TO.P,TP1,1,1*%
%TO.N,/AWG_FrontEnd/C0_V_OFF*%
X114981000Y-103379000D03*
%TD*%
D10*
%TO.P,R47,1*%
%TO.N,/AWG_FrontEnd/C0_V_OFF*%
X123981000Y-101454000D03*
%TO.P,R47,2*%
%TO.N,Net-(U9D--)*%
X125631000Y-101454000D03*
%TD*%
D19*
%TO.P,J17,1,Pin_1*%
%TO.N,+12VA*%
X111906000Y-81384000D03*
D20*
%TO.P,J17,2,Pin_2*%
%TO.N,-12VA*%
X111906000Y-78844000D03*
%TD*%
D15*
%TO.P,C15,1*%
%TO.N,+5VCLEAN*%
X164568500Y-94644000D03*
%TO.P,C15,2*%
%TO.N,GNDA*%
X162843500Y-94644000D03*
%TD*%
D21*
%TO.P,R28,1*%
%TO.N,Net-(U4--IN_B)*%
X162706000Y-91044000D03*
%TO.P,R28,2*%
%TO.N,Net-(U4-OUT_B)*%
X162706000Y-92869000D03*
%TD*%
D22*
%TO.P,C66,1*%
%TO.N,-5V*%
X184887500Y-117500000D03*
%TO.P,C66,2*%
%TO.N,GND*%
X186612500Y-117500000D03*
%TD*%
D23*
%TO.P,GD2,1*%
%TO.N,GNDA*%
X174906000Y-76973900D03*
%TO.P,GD2,2*%
%TO.N,P_CH0_IN*%
X174906000Y-81114100D03*
%TD*%
D16*
%TO.P,TP10,1,1*%
%TO.N,ADC2_INP3*%
X169250000Y-80250000D03*
%TD*%
D24*
%TO.P,U2,1*%
%TO.N,Net-(R10-Pad1)*%
X166376000Y-67094000D03*
%TO.P,U2,2*%
%TO.N,GND*%
X163836000Y-67094000D03*
%TO.P,U2,3*%
%TO.N,Net-(U6-+IN_A)*%
X163836000Y-72594000D03*
%TO.P,U2,4*%
%TO.N,Net-(C10-Pad1)*%
X166376000Y-72594000D03*
%TD*%
D19*
%TO.P,J19,1,Pin_1*%
%TO.N,-5V*%
X178000000Y-119250000D03*
%TD*%
D25*
%TO.P,R53,1*%
%TO.N,GND*%
X147506000Y-100869000D03*
%TO.P,R53,2*%
%TO.N,Net-(U12-BOOT0)*%
X145856000Y-100869000D03*
%TD*%
%TO.P,R62,1*%
%TO.N,-12VA*%
X121075000Y-115000000D03*
%TO.P,R62,2*%
%TO.N,Net-(C46-Pad1)*%
X119425000Y-115000000D03*
%TD*%
D18*
%TO.P,U11,1,D1*%
%TO.N,Net-(U11A-D1)*%
X120208500Y-92521500D03*
%TO.P,U11,2,NC*%
%TO.N,unconnected-(U11C-NC-Pad2)*%
X120208500Y-93171500D03*
%TO.P,U11,3,D3*%
%TO.N,Net-(U11A-D3)*%
X120208500Y-93821500D03*
%TO.P,U11,4,S3*%
%TO.N,/AWG_FrontEnd/C1_FB*%
X120208500Y-94471500D03*
%TO.P,U11,5,S4*%
%TO.N,/AWG_FrontEnd/C0_FB*%
X120208500Y-95121500D03*
%TO.P,U11,6,D4*%
%TO.N,Net-(U11B-D4)*%
X120208500Y-95771500D03*
%TO.P,U11,7,NC*%
%TO.N,unconnected-(U11C-NC-Pad7)*%
X120208500Y-96421500D03*
%TO.P,U11,8,D2*%
%TO.N,Net-(U11B-D2)*%
X120208500Y-97071500D03*
%TO.P,U11,9,S2*%
%TO.N,/AWG_FrontEnd/C0_FB*%
X125933500Y-97071500D03*
%TO.P,U11,10,IN2*%
%TO.N,GAIN_C0*%
X125933500Y-96421500D03*
%TO.P,U11,11,V+*%
%TO.N,+12VA*%
X125933500Y-95771500D03*
%TO.P,U11,12,VL*%
%TO.N,+3.3V*%
X125933500Y-95121500D03*
%TO.P,U11,13,GND*%
%TO.N,GND*%
X125933500Y-94471500D03*
%TO.P,U11,14,V-*%
%TO.N,-12VA*%
X125933500Y-93821500D03*
%TO.P,U11,15,IN1*%
%TO.N,GAIN_C1*%
X125933500Y-93171500D03*
%TO.P,U11,16,S1*%
%TO.N,/AWG_FrontEnd/C1_FB*%
X125933500Y-92521500D03*
%TD*%
D26*
%TO.P,C48,1*%
%TO.N,GNDA*%
X129306000Y-106381500D03*
%TO.P,C48,2*%
%TO.N,-12VA*%
X129306000Y-108106500D03*
%TD*%
D27*
%TO.P,R29,1*%
%TO.N,Net-(C20-Pad1)*%
X157438500Y-78786500D03*
%TO.P,R29,2*%
%TO.N,Net-(U6-+IN_B)*%
X155613500Y-78786500D03*
%TD*%
D22*
%TO.P,C41,1*%
%TO.N,GND*%
X119387500Y-113250000D03*
%TO.P,C41,2*%
%TO.N,-12VA*%
X121112500Y-113250000D03*
%TD*%
D28*
%TO.P,R51,1*%
%TO.N,Net-(U9D--)*%
X129306000Y-104894000D03*
%TO.P,R51,2*%
%TO.N,DAC1_OUT1*%
X129306000Y-103244000D03*
%TD*%
D21*
%TO.P,R54,1*%
%TO.N,+3.3VA*%
X154306000Y-84419000D03*
%TO.P,R54,2*%
%TO.N,Net-(U12-VDDA)*%
X154306000Y-86244000D03*
%TD*%
D10*
%TO.P,R46,1*%
%TO.N,/AWG_FrontEnd/C1_OUT_G*%
X120181000Y-90934000D03*
%TO.P,R46,2*%
%TO.N,Net-(U10C--)*%
X121831000Y-90934000D03*
%TD*%
D21*
%TO.P,R25,1*%
%TO.N,Net-(U4--IN_B)*%
X161106000Y-91044000D03*
%TO.P,R25,2*%
%TO.N,GNDA*%
X161106000Y-92869000D03*
%TD*%
D29*
%TO.P,D3,1,K*%
%TO.N,+3.3VA*%
X163750000Y-80000000D03*
%TO.P,D3,2,A*%
%TO.N,GNDA*%
X163750000Y-81900000D03*
%TO.P,D3,3,K*%
%TO.N,ADC2_INP3*%
X165625000Y-80950000D03*
%TD*%
D16*
%TO.P,TP12,1,1*%
%TO.N,Net-(C19-Pad1)*%
X161000000Y-72750000D03*
%TD*%
D12*
%TO.P,R24,1*%
%TO.N,TIM2_CH2*%
X150793500Y-80644000D03*
%TO.P,R24,2*%
%TO.N,Net-(L2-Pad1)*%
X152618500Y-80644000D03*
%TD*%
D10*
%TO.P,R33,1*%
%TO.N,TIM1_CH1*%
X113656000Y-106069000D03*
%TO.P,R33,2*%
%TO.N,Net-(U9A-+)*%
X115306000Y-106069000D03*
%TD*%
D30*
%TO.P,Y2,1,1*%
%TO.N,RCC_OSC_IN*%
X152750000Y-91550000D03*
%TO.P,Y2,2,2*%
%TO.N,GND*%
X154100000Y-91550000D03*
%TO.P,Y2,3,3*%
%TO.N,RCC_OSC_OUT*%
X154100000Y-90500000D03*
%TO.P,Y2,4,4*%
%TO.N,GND*%
X152750000Y-90500000D03*
%TD*%
D22*
%TO.P,C60,1*%
%TO.N,GNDA*%
X135643500Y-81044000D03*
%TO.P,C60,2*%
%TO.N,+3.3VA*%
X137368500Y-81044000D03*
%TD*%
D12*
%TO.P,R12,1*%
%TO.N,GNDA*%
X137500000Y-74500000D03*
%TO.P,R12,2*%
%TO.N,Net-(U5-1Y)*%
X139325000Y-74500000D03*
%TD*%
D10*
%TO.P,R42,1*%
%TO.N,/AWG_FrontEnd/C1_OUT_G*%
X116600000Y-94244000D03*
%TO.P,R42,2*%
%TO.N,Net-(U11A-D3)*%
X118250000Y-94244000D03*
%TD*%
D31*
%TO.P,D2,1,K*%
%TO.N,CH0_attenuate*%
X184075000Y-72900000D03*
%TO.P,D2,2,A*%
%TO.N,GND*%
X181975000Y-72900000D03*
%TD*%
D32*
%TO.P,U6,1,OUT_A*%
%TO.N,Net-(U6-OUT_A)*%
X149351000Y-75411500D03*
%TO.P,U6,2,-IN_A*%
%TO.N,Net-(U5-1Y)*%
X149351000Y-76061500D03*
%TO.P,U6,3,+IN_A*%
%TO.N,Net-(U6-+IN_A)*%
X149351000Y-76711500D03*
%TO.P,U6,4,V-*%
%TO.N,-5VCLEAN*%
X149351000Y-77361500D03*
%TO.P,U6,5,+IN_B*%
%TO.N,Net-(U6-+IN_B)*%
X153576000Y-77361500D03*
%TO.P,U6,6,-IN_B*%
%TO.N,Net-(U6--IN_B)*%
X153576000Y-76711500D03*
%TO.P,U6,7,OUT_B*%
%TO.N,Net-(U6-OUT_B)*%
X153576000Y-76061500D03*
%TO.P,U6,8,V+*%
%TO.N,+5VCLEAN*%
X153576000Y-75411500D03*
%TD*%
D33*
%TO.P,U18,1,A->B*%
%TO.N,GND*%
X134743500Y-114806500D03*
D34*
%TO.P,U18,2,A0*%
%TO.N,LOGIC_INP15*%
X135681000Y-114369000D03*
%TO.P,U18,3,A1*%
%TO.N,LOGIC_INP14*%
X135681000Y-113869000D03*
%TO.P,U18,4,A2*%
%TO.N,LOGIC_INP13*%
X135681000Y-113369000D03*
%TO.P,U18,5,A3*%
%TO.N,LOGIC_INP12*%
X135681000Y-112869000D03*
%TO.P,U18,6,A4*%
%TO.N,LOGIC_INP11*%
X135681000Y-112369000D03*
%TO.P,U18,7,A5*%
%TO.N,LOGIC_INP10*%
X135681000Y-111869000D03*
%TO.P,U18,8,A6*%
%TO.N,LOGIC_INP9*%
X135681000Y-111369000D03*
%TO.P,U18,9,A7*%
%TO.N,LOGIC_INP8*%
X135681000Y-110869000D03*
D33*
%TO.P,U18,10,GND*%
%TO.N,GND*%
X134743500Y-110431500D03*
%TO.P,U18,11,B7*%
%TO.N,LOGIC_IN8*%
X134243500Y-110431500D03*
D34*
%TO.P,U18,12,B6*%
%TO.N,LOGIC_IN9*%
X133306000Y-110869000D03*
%TO.P,U18,13,B5*%
%TO.N,LOGIC_IN10*%
X133306000Y-111369000D03*
%TO.P,U18,14,B4*%
%TO.N,LOGIC_IN11*%
X133306000Y-111869000D03*
%TO.P,U18,15,B3*%
%TO.N,LOGIC_IN12*%
X133306000Y-112369000D03*
%TO.P,U18,16,B2*%
%TO.N,LOGIC_IN13*%
X133306000Y-112869000D03*
%TO.P,U18,17,B1*%
%TO.N,LOGIC_IN14*%
X133306000Y-113369000D03*
%TO.P,U18,18,B0*%
%TO.N,LOGIC_IN15*%
X133306000Y-113869000D03*
%TO.P,U18,19,CE*%
%TO.N,GND*%
X133306000Y-114369000D03*
D33*
%TO.P,U18,20,VCC*%
%TO.N,+3.3V*%
X134243500Y-114806500D03*
D35*
%TO.P,U18,21*%
%TO.N,N/C*%
X134493500Y-112619000D03*
%TD*%
D15*
%TO.P,C23,1*%
%TO.N,-5VCLEAN*%
X164168500Y-84644000D03*
%TO.P,C23,2*%
%TO.N,GNDA*%
X162443500Y-84644000D03*
%TD*%
D36*
%TO.P,C33,1*%
%TO.N,RCC_OSC_IN*%
X153435000Y-93250000D03*
%TO.P,C33,2*%
%TO.N,GND*%
X154250000Y-93250000D03*
%TD*%
D37*
%TO.P,L5,1,1*%
%TO.N,Net-(U15-VO)*%
X136144750Y-78650000D03*
%TO.P,L5,2,2*%
%TO.N,+3.3VA*%
X137605250Y-78650000D03*
%TD*%
D38*
%TO.P,D1,1,K*%
%TO.N,CH1_attenuate*%
X186725000Y-104550000D03*
%TO.P,D1,2,A*%
%TO.N,GND*%
X186725000Y-102450000D03*
%TD*%
D16*
%TO.P,TP14,1,1*%
%TO.N,Net-(U4-OUT_A)*%
X172250000Y-83750000D03*
%TD*%
D25*
%TO.P,R49,1*%
%TO.N,/AWG_FrontEnd/C1_V_OFF*%
X128156000Y-89109000D03*
%TO.P,R49,2*%
%TO.N,Net-(U10C--)*%
X126506000Y-89109000D03*
%TD*%
D22*
%TO.P,C46,1*%
%TO.N,Net-(C46-Pad1)*%
X119275000Y-116750000D03*
%TO.P,C46,2*%
%TO.N,Net-(U13-Vfb2)*%
X121000000Y-116750000D03*
%TD*%
D39*
%TO.P,SW1,1,1*%
%TO.N,NRST*%
X153750000Y-95750000D03*
D40*
%TO.P,SW1,2,2*%
X160250000Y-95750000D03*
%TO.P,SW1,3,K*%
%TO.N,GND*%
X153750000Y-100250000D03*
%TO.P,SW1,4,A*%
X160250000Y-100250000D03*
%TD*%
D25*
%TO.P,R43,1*%
%TO.N,Net-(U9D--)*%
X122131000Y-98454000D03*
%TO.P,R43,2*%
%TO.N,/AWG_FrontEnd/C0_OUT_G*%
X120481000Y-98454000D03*
%TD*%
D15*
%TO.P,C43,1*%
%TO.N,+3.3V*%
X136168500Y-103244000D03*
%TO.P,C43,2*%
%TO.N,GND*%
X134443500Y-103244000D03*
%TD*%
D11*
%TO.P,C29,1*%
%TO.N,Net-(U9A-+)*%
X115287500Y-108000000D03*
%TO.P,C29,2*%
%TO.N,GND*%
X113212500Y-108000000D03*
%TD*%
D41*
%TO.P,L2,1,1*%
%TO.N,Net-(L2-Pad1)*%
X154156000Y-80444000D03*
%TO.P,L2,2,2*%
%TO.N,Net-(C20-Pad1)*%
X155906000Y-80444000D03*
%TD*%
D15*
%TO.P,C20,1*%
%TO.N,Net-(C20-Pad1)*%
X155893500Y-82044000D03*
%TO.P,C20,2*%
%TO.N,GNDA*%
X154168500Y-82044000D03*
%TD*%
D16*
%TO.P,TP8,1,1*%
%TO.N,+3.3VA*%
X140500000Y-80000000D03*
%TD*%
%TO.P,TP3,1,1*%
%TO.N,/AWG_FrontEnd/C0_OUT_G*%
X118306000Y-100454000D03*
%TD*%
%TO.P,TP11,1,1*%
%TO.N,Net-(U7--)*%
X176250000Y-86000000D03*
%TD*%
D22*
%TO.P,C16,1*%
%TO.N,-5VCLEAN*%
X150637500Y-78986500D03*
%TO.P,C16,2*%
%TO.N,GNDA*%
X152362500Y-78986500D03*
%TD*%
D42*
%TO.P,R58,1*%
%TO.N,+12VA*%
X111500000Y-113675000D03*
%TO.P,R58,2*%
%TO.N,Net-(U13-Vfb1)*%
X111500000Y-115325000D03*
%TD*%
D43*
%TO.P,U16,1,VCC*%
%TO.N,+5V*%
X184156000Y-115304000D03*
%TO.P,U16,2,VOUT*%
%TO.N,-5V*%
X185106000Y-115304000D03*
%TO.P,U16,3,C+*%
%TO.N,Net-(U16-C+)*%
X186056000Y-115304000D03*
%TO.P,U16,4,C-*%
%TO.N,Net-(U16-C-)*%
X186056000Y-111884000D03*
%TO.P,U16,5,GND*%
%TO.N,GND*%
X185106000Y-111884000D03*
%TO.P,U16,6,~SHDN*%
%TO.N,+5V*%
X184156000Y-111884000D03*
%TD*%
D16*
%TO.P,TP5,1,1*%
%TO.N,Net-(U8--)*%
X157750000Y-72000000D03*
%TD*%
D22*
%TO.P,C70,1*%
%TO.N,Net-(D10-A)*%
X123943500Y-75744000D03*
%TO.P,C70,2*%
%TO.N,Net-(Q1-G)*%
X125668500Y-75744000D03*
%TD*%
%TO.P,C59,1*%
%TO.N,GND*%
X130243500Y-74844000D03*
%TO.P,C59,2*%
%TO.N,Net-(U15-VO)*%
X131968500Y-74844000D03*
%TD*%
D44*
%TO.P,C34,1*%
%TO.N,GND*%
X155250000Y-91590000D03*
%TO.P,C34,2*%
%TO.N,RCC_OSC_OUT*%
X155250000Y-90775000D03*
%TD*%
D28*
%TO.P,R66,1*%
%TO.N,Net-(U17-VBUS_CTRL)*%
X125406000Y-71318996D03*
%TO.P,R66,2*%
%TO.N,GND*%
X125406000Y-69668996D03*
%TD*%
D22*
%TO.P,C61,1*%
%TO.N,+5V*%
X184387500Y-109500000D03*
%TO.P,C61,2*%
%TO.N,GND*%
X186112500Y-109500000D03*
%TD*%
D45*
%TO.P,C27,1*%
%TO.N,+3.3VA*%
X159500000Y-82975000D03*
%TO.P,C27,2*%
%TO.N,GNDA*%
X159500000Y-81250000D03*
%TD*%
D46*
%TO.P,D7,1,K*%
%TO.N,Net-(D7-K)*%
X135506000Y-68044000D03*
D47*
%TO.P,D7,2,A*%
%TO.N,+5V*%
X135506000Y-70584000D03*
%TD*%
D48*
%TO.P,C78,1*%
%TO.N,+3.3V*%
X134506000Y-98469000D03*
%TO.P,C78,2*%
%TO.N,GND*%
X134506000Y-100019000D03*
%TD*%
D49*
%TO.P,JP1,1,A*%
%TO.N,C0_IN*%
X114481000Y-110454000D03*
D50*
%TO.P,JP1,2,B*%
%TO.N,Net-(JP1-B)*%
X114481000Y-111754000D03*
%TD*%
D19*
%TO.P,J1,1,Pin_1*%
%TO.N,+3.3V*%
X121756000Y-119444000D03*
D20*
%TO.P,J1,2,Pin_2*%
%TO.N,DEBUG_JTCK_SWCLK*%
X124296000Y-119444000D03*
%TO.P,J1,3,Pin_3*%
%TO.N,GND*%
X126836000Y-119444000D03*
%TO.P,J1,4,Pin_4*%
%TO.N,DEBUG_JTMS-SWDI0*%
X129376000Y-119444000D03*
%TO.P,J1,5,Pin_5*%
%TO.N,NRST*%
X131916000Y-119444000D03*
%TO.P,J1,6,Pin_6*%
%TO.N,DEBUG_JTD-SW0*%
X134456000Y-119444000D03*
%TD*%
D15*
%TO.P,C25,1*%
%TO.N,ADC2_INP3*%
X167738501Y-83844000D03*
%TO.P,C25,2*%
%TO.N,GNDA*%
X166013501Y-83844000D03*
%TD*%
D25*
%TO.P,R41,1*%
%TO.N,Net-(U11A-D1)*%
X118306000Y-92744000D03*
%TO.P,R41,2*%
%TO.N,/AWG_FrontEnd/C1_OUT_G*%
X116656000Y-92744000D03*
%TD*%
D46*
%TO.P,J2,1,Pin_1*%
%TO.N,P_CH0_IN*%
X169746000Y-108244000D03*
D47*
%TO.P,J2,2,Pin_2*%
%TO.N,P_CH1_IN*%
X169746000Y-110784000D03*
%TO.P,J2,3,Pin_3*%
%TO.N,GND*%
X167206000Y-108244000D03*
%TO.P,J2,4,Pin_4*%
%TO.N,GNDA*%
X167206000Y-110784000D03*
%TO.P,J2,5,Pin_5*%
%TO.N,LOGIC_INP7*%
X164666000Y-108244000D03*
%TO.P,J2,6,Pin_6*%
%TO.N,LOGIC_INP15*%
X164666000Y-110784000D03*
%TO.P,J2,7,Pin_7*%
%TO.N,LOGIC_INP6*%
X162126000Y-108244000D03*
%TO.P,J2,8,Pin_8*%
%TO.N,LOGIC_INP14*%
X162126000Y-110784000D03*
%TO.P,J2,9,Pin_9*%
%TO.N,LOGIC_INP5*%
X159586000Y-108244000D03*
%TO.P,J2,10,Pin_10*%
%TO.N,LOGIC_INP13*%
X159586000Y-110784000D03*
%TO.P,J2,11,Pin_11*%
%TO.N,LOGIC_INP4*%
X157046000Y-108244000D03*
%TO.P,J2,12,Pin_12*%
%TO.N,LOGIC_INP12*%
X157046000Y-110784000D03*
%TO.P,J2,13,Pin_13*%
%TO.N,LOGIC_INP3*%
X154506000Y-108244000D03*
%TO.P,J2,14,Pin_14*%
%TO.N,LOGIC_INP11*%
X154506000Y-110784000D03*
%TO.P,J2,15,Pin_15*%
%TO.N,LOGIC_INP2*%
X151966000Y-108244000D03*
%TO.P,J2,16,Pin_16*%
%TO.N,LOGIC_INP10*%
X151966000Y-110784000D03*
%TO.P,J2,17,Pin_17*%
%TO.N,LOGIC_INP1*%
X149426000Y-108244000D03*
%TO.P,J2,18,Pin_18*%
%TO.N,LOGIC_INP9*%
X149426000Y-110784000D03*
%TO.P,J2,19,Pin_19*%
%TO.N,LOGIC_INP0*%
X146886000Y-108244000D03*
%TO.P,J2,20,Pin_20*%
%TO.N,LOGIC_INP8*%
X146886000Y-110784000D03*
%TO.P,J2,21,Pin_21*%
%TO.N,GND*%
X144346000Y-108244000D03*
%TO.P,J2,22,Pin_22*%
%TO.N,GNDA*%
X144346000Y-110784000D03*
%TO.P,J2,23,Pin_23*%
%TO.N,DAC1_OUT1*%
X141806000Y-108244000D03*
%TO.P,J2,24,Pin_24*%
%TO.N,DAC1_OUT2*%
X141806000Y-110784000D03*
%TD*%
D42*
%TO.P,R52,1*%
%TO.N,Net-(U10C--)*%
X132506000Y-85594000D03*
%TO.P,R52,2*%
%TO.N,DAC1_OUT2*%
X132506000Y-87244000D03*
%TD*%
D22*
%TO.P,C13,1*%
%TO.N,-5VCLEAN*%
X170843500Y-90444000D03*
%TO.P,C13,2*%
%TO.N,GNDA*%
X172568500Y-90444000D03*
%TD*%
D12*
%TO.P,R22,1*%
%TO.N,TIM2_CH3*%
X158893500Y-84744000D03*
%TO.P,R22,2*%
%TO.N,Net-(L1-Pad1)*%
X160718500Y-84744000D03*
%TD*%
D51*
%TO.P,JP3,1,A*%
%TO.N,+5V*%
X124775000Y-67650000D03*
D52*
%TO.P,JP3,2,B*%
%TO.N,Net-(D10-A)*%
X123475000Y-67650000D03*
%TD*%
D53*
%TO.P,GD1,1*%
%TO.N,GNDA*%
X181849850Y-109375250D03*
%TO.P,GD1,2*%
%TO.N,P_CH1_IN*%
X177709650Y-109375250D03*
%TD*%
D22*
%TO.P,C17,1*%
%TO.N,+5VCLEAN*%
X147387500Y-71500000D03*
%TO.P,C17,2*%
%TO.N,GNDA*%
X149112500Y-71500000D03*
%TD*%
D16*
%TO.P,TP6,1,1*%
%TO.N,Net-(C20-Pad1)*%
X165000000Y-75500000D03*
%TD*%
D54*
%TO.P,L4,1,1*%
%TO.N,Net-(D6-K)*%
X127750000Y-114000000D03*
%TO.P,L4,2,2*%
%TO.N,GND*%
X127750000Y-115460500D03*
%TD*%
D55*
%TO.P,U7,1*%
%TO.N,Net-(U7--)*%
X166126001Y-87244000D03*
%TO.P,U7,2,V-*%
%TO.N,-5VCLEAN*%
X166126001Y-88194000D03*
%TO.P,U7,3,+*%
%TO.N,Net-(U4-OUT_B)*%
X166126001Y-89144000D03*
%TO.P,U7,4,-*%
%TO.N,Net-(U7--)*%
X168826001Y-89144000D03*
%TO.P,U7,5,~{DISABLE}*%
%TO.N,+5VCLEAN*%
X168826001Y-88194000D03*
%TO.P,U7,6,V+*%
X168826001Y-87244000D03*
%TD*%
D25*
%TO.P,R39,1*%
%TO.N,Net-(U11B-D2)*%
X118325000Y-97954000D03*
%TO.P,R39,2*%
%TO.N,/AWG_FrontEnd/C0_OUT_G*%
X116675000Y-97954000D03*
%TD*%
D15*
%TO.P,C12,1*%
%TO.N,-5VCLEAN*%
X145168500Y-78844000D03*
%TO.P,C12,2*%
%TO.N,GNDA*%
X143443500Y-78844000D03*
%TD*%
D10*
%TO.P,R44,1*%
%TO.N,/AWG_FrontEnd/C0_OUT_G*%
X120481000Y-99954000D03*
%TO.P,R44,2*%
%TO.N,Net-(U9D--)*%
X122131000Y-99954000D03*
%TD*%
D16*
%TO.P,TP2,1,1*%
%TO.N,/AWG_FrontEnd/C1_V_OFF*%
X117831000Y-89109000D03*
%TD*%
D25*
%TO.P,R40,1*%
%TO.N,Net-(U11B-D4)*%
X118575000Y-96250000D03*
%TO.P,R40,2*%
%TO.N,/AWG_FrontEnd/C0_OUT_G*%
X116925000Y-96250000D03*
%TD*%
D12*
%TO.P,R26,1*%
%TO.N,Net-(C19-Pad1)*%
X159306000Y-87744000D03*
%TO.P,R26,2*%
%TO.N,Net-(U4-+IN_B)*%
X161131000Y-87744000D03*
%TD*%
D15*
%TO.P,C21,1*%
%TO.N,GNDA*%
X172568500Y-86844000D03*
%TO.P,C21,2*%
%TO.N,+5VCLEAN*%
X170843500Y-86844000D03*
%TD*%
%TO.P,C49,1*%
%TO.N,+3.3V*%
X136168500Y-104744000D03*
%TO.P,C49,2*%
%TO.N,GND*%
X134443500Y-104744000D03*
%TD*%
D27*
%TO.P,R84,1*%
%TO.N,Net-(U12-PB13)*%
X141637500Y-67325000D03*
%TO.P,R84,2*%
%TO.N,UCPD_CC1*%
X139812500Y-67325000D03*
%TD*%
D42*
%TO.P,R63,1*%
%TO.N,GNDA*%
X113000000Y-113675000D03*
%TO.P,R63,2*%
%TO.N,Net-(U13-Vfb1)*%
X113000000Y-115325000D03*
%TD*%
D56*
%TO.P,U20,1,A->B*%
%TO.N,GND*%
X138443500Y-102181500D03*
D57*
%TO.P,U20,2,A0*%
%TO.N,LOGIC_INP0*%
X138881000Y-103119000D03*
%TO.P,U20,3,A1*%
%TO.N,LOGIC_INP1*%
X139381000Y-103119000D03*
%TO.P,U20,4,A2*%
%TO.N,LOGIC_INP2*%
X139881000Y-103119000D03*
%TO.P,U20,5,A3*%
%TO.N,LOGIC_INP3*%
X140381000Y-103119000D03*
%TO.P,U20,6,A4*%
%TO.N,LOGIC_INP4*%
X140881000Y-103119000D03*
%TO.P,U20,7,A5*%
%TO.N,LOGIC_INP5*%
X141381000Y-103119000D03*
%TO.P,U20,8,A6*%
%TO.N,LOGIC_INP6*%
X141881000Y-103119000D03*
%TO.P,U20,9,A7*%
%TO.N,LOGIC_INP7*%
X142381000Y-103119000D03*
D56*
%TO.P,U20,10,GND*%
%TO.N,GND*%
X142818500Y-102181500D03*
%TO.P,U20,11,B7*%
%TO.N,LOGIC_IN7*%
X142818500Y-101681500D03*
D57*
%TO.P,U20,12,B6*%
%TO.N,LOGIC_IN6*%
X142381000Y-100744000D03*
%TO.P,U20,13,B5*%
%TO.N,LOGIC_IN5*%
X141881000Y-100744000D03*
%TO.P,U20,14,B4*%
%TO.N,LOGIC_IN4*%
X141381000Y-100744000D03*
%TO.P,U20,15,B3*%
%TO.N,LOGIC_IN3*%
X140881000Y-100744000D03*
%TO.P,U20,16,B2*%
%TO.N,LOGIC_IN2*%
X140381000Y-100744000D03*
%TO.P,U20,17,B1*%
%TO.N,LOGIC_IN1*%
X139881000Y-100744000D03*
%TO.P,U20,18,B0*%
%TO.N,LOGIC_IN0*%
X139381000Y-100744000D03*
%TO.P,U20,19,CE*%
%TO.N,GND*%
X138881000Y-100744000D03*
D56*
%TO.P,U20,20,VCC*%
%TO.N,+3.3V*%
X138443500Y-101681500D03*
D58*
%TO.P,U20,21*%
%TO.N,N/C*%
X140631000Y-101931500D03*
%TD*%
D59*
%TO.P,U4,1,OUT_A*%
%TO.N,Net-(U4-OUT_A)*%
X168831000Y-92919000D03*
%TO.P,U4,2,-IN_A*%
%TO.N,Net-(U3-1Y)*%
X168831000Y-92269000D03*
%TO.P,U4,3,+IN_A*%
%TO.N,Net-(U4-+IN_A)*%
X168831000Y-91619000D03*
%TO.P,U4,4,V-*%
%TO.N,-5VCLEAN*%
X168831000Y-90969000D03*
%TO.P,U4,5,+IN_B*%
%TO.N,Net-(U4-+IN_B)*%
X164606000Y-90969000D03*
%TO.P,U4,6,-IN_B*%
%TO.N,Net-(U4--IN_B)*%
X164606000Y-91619000D03*
%TO.P,U4,7,OUT_B*%
%TO.N,Net-(U4-OUT_B)*%
X164606000Y-92269000D03*
%TO.P,U4,8,V+*%
%TO.N,+5VCLEAN*%
X164606000Y-92919000D03*
%TD*%
D60*
%TO.P,JP2,1,A*%
%TO.N,C1_IN*%
X118006000Y-81169000D03*
D61*
%TO.P,JP2,2,B*%
%TO.N,Net-(JP2-B)*%
X118006000Y-79869000D03*
%TD*%
D45*
%TO.P,C39,1*%
%TO.N,GNDA*%
X128506000Y-99706500D03*
%TO.P,C39,2*%
%TO.N,-12VA*%
X128506000Y-97981500D03*
%TD*%
D62*
%TO.P,R55,1*%
%TO.N,VREFP*%
X152606000Y-86244000D03*
%TO.P,R55,2*%
%TO.N,Net-(U12-VDDA)*%
X152606000Y-84419000D03*
%TD*%
D63*
%TO.P,K2,1*%
%TO.N,GND*%
X179506000Y-76144000D03*
D64*
%TO.P,K2,4*%
%TO.N,Net-(C10-Pad1)*%
X179506000Y-83764000D03*
%TO.P,K2,6*%
%TO.N,Net-(C5-Pad2)*%
X179506000Y-88844000D03*
%TO.P,K2,8*%
%TO.N,Net-(C7-Pad2)*%
X179506000Y-93924000D03*
%TO.P,K2,9*%
%TO.N,Net-(C7-Pad1)*%
X187126000Y-93924000D03*
%TO.P,K2,11*%
%TO.N,Net-(C6-Pad2)*%
X187126000Y-88844000D03*
%TO.P,K2,13*%
%TO.N,P_CH0_IN*%
X187126000Y-83764000D03*
%TO.P,K2,16*%
%TO.N,CH0_attenuate*%
X187126000Y-76144000D03*
%TD*%
D65*
%TO.P,L1,1,1*%
%TO.N,Net-(L1-Pad1)*%
X162593500Y-86244000D03*
%TO.P,L1,2,2*%
%TO.N,Net-(C19-Pad1)*%
X160843500Y-86244000D03*
%TD*%
D21*
%TO.P,R10,1*%
%TO.N,Net-(R10-Pad1)*%
X168306000Y-68931500D03*
%TO.P,R10,2*%
%TO.N,CH0_ACDC*%
X168306000Y-70756500D03*
%TD*%
D42*
%TO.P,R64,1*%
%TO.N,Net-(D7-K)*%
X139706000Y-68844000D03*
%TO.P,R64,2*%
%TO.N,GND*%
X139706000Y-70494000D03*
%TD*%
D66*
%TO.P,Q1,1,S_1*%
%TO.N,+5V*%
X127300000Y-70750000D03*
%TO.P,Q1,2,S_2*%
X127950000Y-70750000D03*
%TO.P,Q1,3,S_3*%
X128600000Y-70750000D03*
%TO.P,Q1,4,G*%
%TO.N,Net-(Q1-G)*%
X129250000Y-70750000D03*
D67*
%TO.P,Q1,5,D*%
%TO.N,Net-(D10-A)*%
X128275000Y-68525000D03*
D68*
%TO.P,Q1,6*%
%TO.N,N/C*%
X126785000Y-69225000D03*
%TO.P,Q1,7*%
X129765000Y-69225000D03*
%TD*%
D16*
%TO.P,TP9,1,1*%
%TO.N,+3.3VA*%
X168750000Y-76250000D03*
%TD*%
D15*
%TO.P,C19,1*%
%TO.N,Net-(C19-Pad1)*%
X159081000Y-86244000D03*
%TO.P,C19,2*%
%TO.N,GNDA*%
X157356000Y-86244000D03*
%TD*%
%TO.P,C55,1*%
%TO.N,Net-(D8-K)*%
X131106000Y-77944000D03*
%TO.P,C55,2*%
%TO.N,GND*%
X129381000Y-77944000D03*
%TD*%
D27*
%TO.P,R21,1*%
%TO.N,Net-(U4-OUT_A)*%
X169131000Y-94444000D03*
%TO.P,R21,2*%
%TO.N,Net-(U4-+IN_B)*%
X167306000Y-94444000D03*
%TD*%
D10*
%TO.P,R34,1*%
%TO.N,TIM1_CH2*%
X117181000Y-83934000D03*
%TO.P,R34,2*%
%TO.N,Net-(U10B-+)*%
X118831000Y-83934000D03*
%TD*%
D48*
%TO.P,C76,1*%
%TO.N,+3.3V*%
X130306000Y-113469000D03*
%TO.P,C76,2*%
%TO.N,GND*%
X130306000Y-115019000D03*
%TD*%
D54*
%TO.P,L3,1,1*%
%TO.N,+5V*%
X124250000Y-115460500D03*
%TO.P,L3,2,2*%
%TO.N,Net-(D5-A)*%
X124250000Y-114000000D03*
%TD*%
D69*
%TO.P,D8,1,K*%
%TO.N,Net-(D8-K)*%
X134106000Y-76731500D03*
%TO.P,D8,2,A*%
%TO.N,+5V*%
X134106000Y-73756500D03*
%TD*%
D16*
%TO.P,TP7,1,1*%
%TO.N,ADC1_INP0*%
X147500000Y-79750000D03*
%TD*%
D37*
%TO.P,L6,1,1*%
%TO.N,GND*%
X187875000Y-106950000D03*
%TO.P,L6,2,2*%
%TO.N,GNDA*%
X186414500Y-106950000D03*
%TD*%
D10*
%TO.P,R50,1*%
%TO.N,Net-(U10C--)*%
X126981000Y-90744000D03*
%TO.P,R50,2*%
%TO.N,-5VCLEAN*%
X128631000Y-90744000D03*
%TD*%
D63*
%TO.P,K1,1*%
%TO.N,GND*%
X183637250Y-97112750D03*
D64*
%TO.P,K1,4*%
%TO.N,Net-(C9-Pad1)*%
X176017250Y-97112750D03*
%TO.P,K1,6*%
%TO.N,Net-(C1-Pad2)*%
X170937250Y-97112750D03*
%TO.P,K1,8*%
%TO.N,Net-(C3-Pad2)*%
X165857250Y-97112750D03*
%TO.P,K1,9*%
%TO.N,Net-(C3-Pad1)*%
X165857250Y-104732750D03*
%TO.P,K1,11*%
%TO.N,Net-(C2-Pad2)*%
X170937250Y-104732750D03*
%TO.P,K1,13*%
%TO.N,P_CH1_IN*%
X176017250Y-104732750D03*
%TO.P,K1,16*%
%TO.N,CH1_attenuate*%
X183637250Y-104732750D03*
%TD*%
D17*
%TO.P,U10,1*%
%TO.N,Net-(JP2-B)*%
X123181000Y-79624000D03*
%TO.P,U10,2,-*%
X123181000Y-80894000D03*
%TO.P,U10,3,+*%
%TO.N,C1_IN*%
X123181000Y-82164000D03*
%TO.P,U10,4,V+*%
%TO.N,+12VA*%
X123181000Y-83434000D03*
%TO.P,U10,5,+*%
%TO.N,Net-(U10B-+)*%
X123181000Y-84704000D03*
%TO.P,U10,6,-*%
%TO.N,/AWG_FrontEnd/C1_V_OFF*%
X123181000Y-85974000D03*
%TO.P,U10,7*%
X123181000Y-87244000D03*
%TO.P,U10,8*%
%TO.N,DAC1_OUT2*%
X128131000Y-87244000D03*
%TO.P,U10,9,-*%
%TO.N,Net-(U10C--)*%
X128131000Y-85974000D03*
%TO.P,U10,10,+*%
%TO.N,GNDA*%
X128131000Y-84704000D03*
%TO.P,U10,11,V-*%
%TO.N,-12VA*%
X128131000Y-83434000D03*
%TO.P,U10,12,+*%
%TO.N,GNDA*%
X128131000Y-82164000D03*
%TO.P,U10,13,-*%
%TO.N,/AWG_FrontEnd/C1_FB*%
X128131000Y-80894000D03*
%TO.P,U10,14*%
%TO.N,/AWG_FrontEnd/C1_OUT_G*%
X128131000Y-79624000D03*
%TD*%
D45*
%TO.P,C3,1*%
%TO.N,Net-(C3-Pad1)*%
X163306000Y-102106500D03*
%TO.P,C3,2*%
%TO.N,Net-(C3-Pad2)*%
X163306000Y-100381500D03*
%TD*%
D10*
%TO.P,R38,1*%
%TO.N,Net-(JP2-B)*%
X121506000Y-77609000D03*
%TO.P,R38,2*%
%TO.N,/AWG_FrontEnd/C1_FB*%
X123156000Y-77609000D03*
%TD*%
D28*
%TO.P,R36,1*%
%TO.N,Net-(JP1-B)*%
X129306000Y-111569000D03*
%TO.P,R36,2*%
%TO.N,/AWG_FrontEnd/C0_FB*%
X129306000Y-109919000D03*
%TD*%
D45*
%TO.P,C62,1*%
%TO.N,Net-(U16-C+)*%
X187756000Y-114306500D03*
%TO.P,C62,2*%
%TO.N,Net-(U16-C-)*%
X187756000Y-112581500D03*
%TD*%
D16*
%TO.P,TP13,1,1*%
%TO.N,Net-(U6-OUT_A)*%
X154500000Y-71500000D03*
%TD*%
D70*
%TO.P,J20,A1,GND*%
%TO.N,GND*%
X120760000Y-68190000D03*
%TO.P,J20,A2,TX1+*%
%TO.N,unconnected-(J20-TX1+-PadA2)*%
X120760000Y-68690000D03*
%TO.P,J20,A3,TX1-*%
%TO.N,unconnected-(J20-TX1--PadA3)*%
X120760000Y-69190000D03*
%TO.P,J20,A4,VBUS*%
%TO.N,Net-(D10-A)*%
X120760000Y-69690000D03*
%TO.P,J20,A5,CC1*%
%TO.N,Net-(J20-CC1)*%
X120760000Y-70190000D03*
%TO.P,J20,A6,D+*%
%TO.N,USB_D+*%
X120760000Y-70690000D03*
%TO.P,J20,A7,D-*%
%TO.N,USB_D-*%
X120760000Y-71190000D03*
%TO.P,J20,A8,SBU1*%
%TO.N,unconnected-(J20-SBU1-PadA8)*%
X120760000Y-71690000D03*
%TO.P,J20,A9,VBUS*%
%TO.N,Net-(D10-A)*%
X120760000Y-72190000D03*
%TO.P,J20,A10,RX2-*%
%TO.N,unconnected-(J20-RX2--PadA10)*%
X120760000Y-72690000D03*
%TO.P,J20,A11,RX2+*%
%TO.N,unconnected-(J20-RX2+-PadA11)*%
X120760000Y-73190000D03*
%TO.P,J20,A12,GND*%
%TO.N,GND*%
X120760000Y-73690000D03*
%TO.P,J20,B1,GND*%
X119060000Y-73440000D03*
%TO.P,J20,B2,TX2+*%
%TO.N,unconnected-(J20-TX2+-PadB2)*%
X119060000Y-72940000D03*
%TO.P,J20,B3,TX2-*%
%TO.N,unconnected-(J20-TX2--PadB3)*%
X119060000Y-72440000D03*
%TO.P,J20,B4,VBUS*%
%TO.N,Net-(D10-A)*%
X119060000Y-71940000D03*
%TO.P,J20,B5,CC2*%
%TO.N,Net-(J20-CC2)*%
X119060000Y-71440000D03*
%TO.P,J20,B6,D+*%
%TO.N,USB_D+*%
X119060000Y-70940000D03*
%TO.P,J20,B7,D-*%
%TO.N,USB_D-*%
X119060000Y-70440000D03*
%TO.P,J20,B8,SBU2*%
%TO.N,unconnected-(J20-SBU2-PadB8)*%
X119060000Y-69940000D03*
%TO.P,J20,B9,VBUS*%
%TO.N,Net-(D10-A)*%
X119060000Y-69440000D03*
%TO.P,J20,B10,RX1-*%
%TO.N,unconnected-(J20-RX1--PadB10)*%
X119060000Y-68940000D03*
%TO.P,J20,B11,RX1+*%
%TO.N,unconnected-(J20-RX1+-PadB11)*%
X119060000Y-68440000D03*
%TO.P,J20,B12,GND*%
%TO.N,GND*%
X119060000Y-67940000D03*
D71*
%TO.P,J20,S1,SHIELD*%
X112900000Y-66450000D03*
X118850000Y-66810000D03*
X118850000Y-75070000D03*
X112900000Y-75430000D03*
%TD*%
D15*
%TO.P,C44,1*%
%TO.N,+3.3V*%
X136168500Y-101744000D03*
%TO.P,C44,2*%
%TO.N,GND*%
X134443500Y-101744000D03*
%TD*%
D25*
%TO.P,R67,1*%
%TO.N,Net-(D10-A)*%
X127131000Y-73244000D03*
%TO.P,R67,2*%
%TO.N,Net-(U17-VBUS_CTRL)*%
X125481000Y-73244000D03*
%TD*%
D15*
%TO.P,C56,1*%
%TO.N,Net-(D8-K)*%
X131968500Y-76444000D03*
%TO.P,C56,2*%
%TO.N,GND*%
X130243500Y-76444000D03*
%TD*%
D27*
%TO.P,R30,1*%
%TO.N,Net-(U6--IN_B)*%
X157418500Y-75386500D03*
%TO.P,R30,2*%
%TO.N,Net-(U6-OUT_B)*%
X155593500Y-75386500D03*
%TD*%
D72*
%TO.N,GNDA*%
X176106000Y-113044000D03*
X128000000Y-106000000D03*
X169000000Y-103250000D03*
X144500000Y-77250000D03*
X157250000Y-84768501D03*
X165275000Y-82725000D03*
X170306000Y-113044000D03*
X159906000Y-91844000D03*
X152750000Y-68250000D03*
X134662735Y-80500000D03*
X163880025Y-95880025D03*
X112500000Y-110000000D03*
X186250000Y-80750000D03*
X152106000Y-76410500D03*
X122862500Y-104612500D03*
X129706000Y-99844000D03*
X173706000Y-89844000D03*
X126475000Y-84550000D03*
X186700000Y-95975000D03*
X147750000Y-88750000D03*
X161004625Y-81254625D03*
X158875000Y-75875000D03*
X173706000Y-87444000D03*
X177250000Y-75500000D03*
X116750000Y-112750000D03*
X140250000Y-72250000D03*
%TO.N,GND*%
X128306000Y-74744000D03*
X114250000Y-109250000D03*
X138106000Y-106550000D03*
X131750000Y-73250000D03*
X136706000Y-97044000D03*
X187275000Y-116200000D03*
X131500000Y-115250000D03*
X116750000Y-119000000D03*
X155000000Y-92500000D03*
X131725000Y-69000000D03*
X145850000Y-103050000D03*
X134306000Y-105844000D03*
X143700000Y-95900000D03*
X153500000Y-89600000D03*
X138500000Y-72650000D03*
X158250000Y-92000000D03*
X138106000Y-100500000D03*
X134200000Y-115775000D03*
X137525000Y-82475000D03*
X144500000Y-76250000D03*
X114750000Y-86250000D03*
X147984129Y-82319430D03*
X147759047Y-96600000D03*
X182425000Y-113500000D03*
X162215975Y-69984025D03*
X129506000Y-95044000D03*
X159325000Y-79875000D03*
X151906000Y-92444000D03*
X116500000Y-74500000D03*
X125712500Y-68037500D03*
X116250000Y-114250000D03*
X187500000Y-109500000D03*
%TO.N,-5V*%
X185250000Y-119000000D03*
X179648511Y-102025372D03*
%TO.N,+5V*%
X123250000Y-116750000D03*
X184150000Y-107075000D03*
X116000000Y-117000000D03*
X136000000Y-116750000D03*
X177550000Y-83650000D03*
X183150000Y-110400000D03*
X180250000Y-98250000D03*
X126250000Y-74500000D03*
X171425000Y-76450000D03*
%TO.N,ADC2_INP3*%
X161095382Y-77754171D03*
X147000000Y-82250000D03*
%TO.N,ADC1_INP0*%
X149106000Y-86444000D03*
X149250000Y-80000000D03*
%TO.N,+3.3VA*%
X164500000Y-77500000D03*
X162750000Y-81000000D03*
X152500000Y-87500000D03*
X141106000Y-82244000D03*
X161195000Y-82500000D03*
X150732493Y-83069000D03*
X142500000Y-80000000D03*
%TO.N,-5VCLEAN*%
X162000000Y-89000000D03*
X137719649Y-86140001D03*
X164000000Y-83750000D03*
X160750000Y-78750000D03*
X149500000Y-78750000D03*
X175500000Y-91500000D03*
X142500000Y-82250000D03*
X126500000Y-100000000D03*
X127842975Y-90230578D03*
%TO.N,RCC_OSC32_IN*%
X151906000Y-94844000D03*
%TO.N,RCC_OSC32_OUT*%
X151956000Y-93294000D03*
%TO.N,+12VA*%
X121125000Y-104625000D03*
X112000000Y-107250000D03*
X127853017Y-95685051D03*
X125706000Y-84244000D03*
X125125000Y-80825000D03*
%TO.N,-12VA*%
X122500000Y-116150000D03*
X127500000Y-98750000D03*
X129106000Y-96644000D03*
X126350000Y-82475000D03*
X122250000Y-112944000D03*
X125900000Y-107379000D03*
X129931000Y-92000000D03*
X127906000Y-93844000D03*
X129931000Y-89490000D03*
%TO.N,+3.3V*%
X132665025Y-115165025D03*
X129505000Y-95844002D03*
X135487500Y-72737500D03*
X145500000Y-96844000D03*
X131975000Y-66950000D03*
X138625000Y-81175000D03*
X135906000Y-105844000D03*
X129250000Y-112750000D03*
X141750000Y-86444000D03*
X132806000Y-72744000D03*
X135693500Y-99656500D03*
X147980999Y-84954051D03*
X135300000Y-74775000D03*
%TO.N,Net-(U13-Vfb1)*%
X120125000Y-111500000D03*
X117100000Y-115675000D03*
%TO.N,Net-(U13-Vfb2)*%
X117750000Y-120500000D03*
X122458026Y-118052024D03*
X126250000Y-113000000D03*
%TO.N,Net-(D8-K)*%
X133906000Y-75644000D03*
%TO.N,Net-(C31-Pad1)*%
X147250000Y-97500000D03*
%TO.N,UCPD_CC1*%
X141175000Y-69750000D03*
%TO.N,UCPD_CC2*%
X133926470Y-82926470D03*
X130211760Y-73798290D03*
X125975000Y-66175000D03*
X130750000Y-69000000D03*
%TO.N,NRST*%
X149106000Y-90244000D03*
X167125000Y-117625000D03*
%TO.N,CH1_attenuate*%
X142750000Y-89750000D03*
X148459047Y-95208599D03*
X142556000Y-87245000D03*
%TO.N,CH0_attenuate*%
X166250000Y-79500000D03*
X148500000Y-89250000D03*
%TO.N,Net-(D5-A)*%
X124250000Y-113000000D03*
%TO.N,Net-(D6-K)*%
X127250000Y-112864000D03*
%TO.N,DEBUG_JTMS-SWDI0*%
X137000000Y-109500000D03*
X136706000Y-96044000D03*
%TO.N,DEBUG_JTD-SW0*%
X143306000Y-97644000D03*
X140506000Y-95844000D03*
X138706000Y-95844000D03*
%TO.N,DEBUG_JTCK_SWCLK*%
X137506000Y-104044000D03*
X137406000Y-101000000D03*
%TO.N,CH0_ACDC*%
X155838696Y-94528754D03*
X170500000Y-71750000D03*
X170500000Y-82250000D03*
%TO.N,DAC1_OUT1*%
X129806000Y-102244000D03*
%TO.N,DAC1_OUT2*%
X140106000Y-86844000D03*
X133306000Y-86744000D03*
%TO.N,CH1_ACDC*%
X159706000Y-93244000D03*
%TO.N,C0_IN*%
X147050000Y-86525000D03*
X117500000Y-108150000D03*
%TO.N,C1_IN*%
X146687500Y-85712500D03*
X121375000Y-81300000D03*
%TO.N,Net-(U3-1Y)*%
X170143500Y-92849939D03*
%TO.N,Net-(U3-2Z)*%
X168491052Y-86419002D03*
X163090575Y-87237812D03*
%TO.N,Net-(U3-3Z)*%
X166506000Y-86419000D03*
X160200661Y-88344001D03*
%TO.N,Net-(U3-4Z)*%
X157306000Y-87244000D03*
X167421658Y-86769707D03*
%TO.N,Net-(U5-1Z)*%
X143500000Y-72244000D03*
%TO.N,Net-(U5-2Z)*%
X142906000Y-75044000D03*
%TO.N,Net-(U5-3Z)*%
X145706000Y-77044000D03*
%TO.N,Net-(U5-4Z)*%
X145906000Y-74944000D03*
%TO.N,TIM2_CH3*%
X156319614Y-83750000D03*
X150706000Y-84644000D03*
%TO.N,Net-(U6-+IN_B)*%
X152806000Y-78001000D03*
%TO.N,TIM2_CH2*%
X149506000Y-84644000D03*
X149505000Y-80919000D03*
%TO.N,Net-(U4-OUT_B)*%
X162895949Y-89344001D03*
X162000000Y-92000000D03*
%TO.N,Net-(U6-OUT_B)*%
X159250000Y-78000000D03*
X155875000Y-83025000D03*
X158750000Y-74500000D03*
%TO.N,TIM1_CH1*%
X133931000Y-93244000D03*
X112705475Y-105284475D03*
X137651470Y-93000000D03*
%TO.N,TIM1_CH2*%
X116006000Y-84244000D03*
X124306000Y-90744000D03*
X129906000Y-94219000D03*
X138500000Y-94750000D03*
%TO.N,/AWG_FrontEnd/C0_FB*%
X126050000Y-109919000D03*
X123781000Y-96719000D03*
%TO.N,/AWG_FrontEnd/C1_FB*%
X124306000Y-92244000D03*
X130925000Y-80400000D03*
%TO.N,/AWG_FrontEnd/C0_OUT_G*%
X125306000Y-111244000D03*
X117000000Y-101500000D03*
%TO.N,/AWG_FrontEnd/C1_OUT_G*%
X120506000Y-88244000D03*
X126750000Y-80000000D03*
%TO.N,Net-(U9D--)*%
X126437500Y-104562500D03*
X126500000Y-102500000D03*
%TO.N,Net-(U10C--)*%
X125831000Y-88109000D03*
X126275000Y-86325000D03*
%TO.N,UCPD_FLT*%
X131250000Y-66344000D03*
X127500000Y-76000000D03*
X131831000Y-84764072D03*
X136950735Y-92299265D03*
%TO.N,Net-(U17-VBUS_CTRL)*%
X126250000Y-72000000D03*
%TO.N,CH1_amp_10*%
X156675477Y-85355472D03*
X138707000Y-82245000D03*
%TO.N,CH1_amp_5*%
X143551190Y-85703747D03*
X146450000Y-87450000D03*
X162200987Y-88044252D03*
%TO.N,CH1_amp_1*%
X159778337Y-85382393D03*
X144274860Y-85273670D03*
%TO.N,CH1_amp_2.5*%
X141049265Y-85200735D03*
X165306000Y-90219000D03*
X143906000Y-87045000D03*
%TO.N,CH0_amp_1*%
X133625000Y-84375000D03*
X145506000Y-73744000D03*
%TO.N,CH0_amp_5*%
X137506000Y-90244000D03*
X139506000Y-76644000D03*
%TO.N,CH0_amp_2.5*%
X136706000Y-89644000D03*
X139506000Y-75644000D03*
%TO.N,CH0_amp_10*%
X144937871Y-74812129D03*
X133706000Y-86044000D03*
%TO.N,GAIN_C1*%
X127306000Y-93244000D03*
X145500000Y-85100000D03*
%TO.N,GAIN_C0*%
X142806000Y-88744000D03*
X128106000Y-96444000D03*
%TO.N,USCPD_DBn*%
X138250000Y-91750000D03*
X128125000Y-66600000D03*
%TO.N,Net-(C31-Pad2)*%
X138500000Y-90000000D03*
X138500000Y-85250000D03*
%TO.N,Net-(Q1-G)*%
X129325000Y-73025000D03*
%TO.N,+5VCLEAN*%
X170750000Y-86000000D03*
X151720976Y-79786570D03*
X157175000Y-83350000D03*
X176000000Y-109500000D03*
X149825000Y-72789047D03*
X168500000Y-96750000D03*
X152620236Y-72775000D03*
%TO.N,Net-(U4-+IN_A)*%
X174500000Y-92750000D03*
%TO.N,Net-(C10-Pad1)*%
X174500000Y-74250000D03*
%TO.N,Net-(U6-+IN_A)*%
X161000000Y-68500000D03*
%TO.N,Net-(U15-VO)*%
X135906000Y-78044000D03*
%TO.N,USB_D+*%
X122706000Y-73044000D03*
X124750000Y-70500000D03*
X137900325Y-96248375D03*
X124500000Y-73763762D03*
X130500000Y-88750000D03*
%TO.N,USB_D-*%
X137906000Y-95444000D03*
X116450000Y-70450000D03*
X121500000Y-75000000D03*
X131250000Y-88250000D03*
%TO.N,Net-(U8--)*%
X155995227Y-73995028D03*
%TO.N,Net-(C19-Pad1)*%
X161000000Y-75000000D03*
X162290657Y-87249293D03*
%TO.N,Net-(U6-OUT_A)*%
X152500000Y-71250000D03*
X149876000Y-74586500D03*
%TO.N,Net-(U4-OUT_A)*%
X173500000Y-85500000D03*
X167230265Y-91319735D03*
%TO.N,Net-(D10-A)*%
X133350000Y-67600000D03*
X124500000Y-77750000D03*
X137575000Y-71275000D03*
X137025000Y-69750000D03*
X126775000Y-69925000D03*
X157775000Y-81225000D03*
X128350000Y-72850000D03*
%TO.N,Net-(J20-CC1)*%
X133000000Y-70500000D03*
X126500000Y-71250000D03*
X122075031Y-69391809D03*
%TO.N,Net-(J20-CC2)*%
X116250000Y-71500000D03*
X122075000Y-67450000D03*
%TO.N,Net-(U12-PB13)*%
X131525000Y-83000000D03*
X141450000Y-68725000D03*
X131300000Y-79075000D03*
%TO.N,Net-(U12-PB14)*%
X119975000Y-81075000D03*
X133100000Y-83775000D03*
%TD*%
D73*
%TO.N,GNDA*%
X122750000Y-107625000D02*
X123180000Y-108055000D01*
X183381100Y-107844000D02*
X181849850Y-109375250D01*
X181849850Y-111650150D02*
X180456000Y-113044000D01*
X130000000Y-83809999D02*
X129105999Y-84704000D01*
X140250000Y-72250000D02*
X142500000Y-70000000D01*
X128924500Y-106000000D02*
X129306000Y-106381500D01*
X129568500Y-99706500D02*
X129706000Y-99844000D01*
D74*
X154168500Y-82044000D02*
X154168500Y-82668500D01*
D73*
X143443500Y-78306500D02*
X143443500Y-78844000D01*
D74*
X154500000Y-79287500D02*
X152663500Y-79287500D01*
X155682000Y-83682000D02*
X155682000Y-84199894D01*
D73*
X172568500Y-86844000D02*
X173106000Y-86844000D01*
X149500000Y-71500000D02*
X152750000Y-68250000D01*
X152106000Y-76410500D02*
X152106000Y-78730000D01*
D74*
X154168500Y-82044000D02*
X154982000Y-81230500D01*
D73*
X165275000Y-82725000D02*
X165975000Y-83425000D01*
X122750000Y-105500000D02*
X123000000Y-105500000D01*
X128131000Y-82164000D02*
X130000000Y-82164000D01*
X161106000Y-92906500D02*
X162843500Y-94644000D01*
X122862500Y-104612500D02*
X122750000Y-104725000D01*
X140250000Y-72250000D02*
X140150000Y-72350000D01*
X138550000Y-73450000D02*
X137500000Y-74500000D01*
X128000000Y-106000000D02*
X128924500Y-106000000D01*
D74*
X156107106Y-84625000D02*
X157106499Y-84625000D01*
X150556000Y-87794000D02*
X150556000Y-88294000D01*
D73*
X128506000Y-99706500D02*
X129568500Y-99706500D01*
X131089000Y-81075000D02*
X135612500Y-81075000D01*
X159504625Y-81254625D02*
X159500000Y-81250000D01*
X175776100Y-76973900D02*
X177250000Y-75500000D01*
X157356000Y-86244000D02*
X157376477Y-86223523D01*
X162443500Y-84644000D02*
X162443500Y-83206500D01*
X170306000Y-113044000D02*
X176106000Y-113044000D01*
X173106000Y-86844000D02*
X173706000Y-87444000D01*
X165975000Y-83425000D02*
X165975000Y-83805499D01*
X152063500Y-73786500D02*
X152063500Y-76368000D01*
X115500000Y-113250000D02*
X113425000Y-113250000D01*
X129105999Y-84704000D02*
X128131000Y-84704000D01*
X116000000Y-112750000D02*
X115500000Y-113250000D01*
X157706000Y-77044000D02*
X158875000Y-75875000D01*
X180456000Y-113044000D02*
X176106000Y-113044000D01*
X142500000Y-70000000D02*
X147612500Y-70000000D01*
X185520500Y-107844000D02*
X186414500Y-106950000D01*
X124225000Y-105515000D02*
X124710000Y-106000000D01*
X161106000Y-92869000D02*
X160931000Y-92869000D01*
X116750000Y-112750000D02*
X116000000Y-112750000D01*
X172568500Y-90444000D02*
X173106000Y-90444000D01*
X122750000Y-104725000D02*
X122750000Y-105500000D01*
D74*
X155025000Y-83025000D02*
X155682000Y-83682000D01*
D73*
X126475000Y-84550000D02*
X126425000Y-84500000D01*
X165975000Y-83805499D02*
X166013501Y-83844000D01*
X123015000Y-105515000D02*
X124225000Y-105515000D01*
X126475000Y-84550000D02*
X126629000Y-84704000D01*
X113425000Y-113250000D02*
X113000000Y-113675000D01*
X157376477Y-86223523D02*
X157376477Y-84894978D01*
X112500000Y-110000000D02*
X112500000Y-113175000D01*
X163880025Y-95880025D02*
X162843500Y-94843500D01*
X161004625Y-81254625D02*
X161650000Y-81900000D01*
X185425000Y-107844000D02*
X185520500Y-107844000D01*
D74*
X148456000Y-87794000D02*
X150556000Y-87794000D01*
D73*
X134662735Y-80500000D02*
X135206735Y-81044000D01*
X161650000Y-81900000D02*
X163750000Y-81900000D01*
X166013501Y-83844000D02*
X165937501Y-83768000D01*
X112500000Y-113175000D02*
X113000000Y-113675000D01*
D74*
X152663500Y-79287500D02*
X152362500Y-78986500D01*
X147750000Y-88500000D02*
X148456000Y-87794000D01*
D73*
X140150000Y-72500000D02*
X139200000Y-73450000D01*
D74*
X154982000Y-79769500D02*
X154500000Y-79287500D01*
D73*
X147612500Y-70000000D02*
X149112500Y-71500000D01*
X149112500Y-71500000D02*
X149500000Y-71500000D01*
D74*
X154525000Y-83025000D02*
X155025000Y-83025000D01*
D73*
X139200000Y-73450000D02*
X138550000Y-73450000D01*
X181849850Y-109375250D02*
X181849850Y-111650150D01*
X173106000Y-90444000D02*
X173706000Y-89844000D01*
X157376477Y-84894978D02*
X157250000Y-84768501D01*
D74*
X155682000Y-84199894D02*
X156107106Y-84625000D01*
D73*
X162443500Y-83206500D02*
X163750000Y-81900000D01*
X174906000Y-76973900D02*
X175776100Y-76973900D01*
X124710000Y-106000000D02*
X128000000Y-106000000D01*
D74*
X154982000Y-81230500D02*
X154982000Y-79769500D01*
D73*
X135206735Y-81044000D02*
X135643500Y-81044000D01*
X126629000Y-84704000D02*
X128131000Y-84704000D01*
X152063500Y-76368000D02*
X152106000Y-76410500D01*
X162843500Y-94843500D02*
X162843500Y-94644000D01*
X161106000Y-92869000D02*
X161106000Y-92906500D01*
X185425000Y-107844000D02*
X183381100Y-107844000D01*
X157418500Y-77044000D02*
X157706000Y-77044000D01*
X140150000Y-72350000D02*
X140150000Y-72500000D01*
X130000000Y-82164000D02*
X131089000Y-81075000D01*
D74*
X157106499Y-84625000D02*
X157250000Y-84768501D01*
X154168500Y-82668500D02*
X154525000Y-83025000D01*
D73*
X161004625Y-81254625D02*
X159504625Y-81254625D01*
X123180000Y-108055000D02*
X124225000Y-108055000D01*
X160931000Y-92869000D02*
X159906000Y-91844000D01*
X152106000Y-78730000D02*
X152362500Y-78986500D01*
X135612500Y-81075000D02*
X135643500Y-81044000D01*
X123000000Y-105500000D02*
X123015000Y-105515000D01*
X122750000Y-105500000D02*
X122750000Y-107625000D01*
X144500000Y-77250000D02*
X143443500Y-78306500D01*
D74*
X147750000Y-88750000D02*
X147750000Y-88500000D01*
D73*
X130000000Y-82164000D02*
X130000000Y-83809999D01*
%TO.N,Net-(C3-Pad2)*%
X163256000Y-100331500D02*
X163306000Y-100381500D01*
X163306000Y-99664000D02*
X165857250Y-97112750D01*
X163306000Y-100381500D02*
X163306000Y-99664000D01*
%TO.N,Net-(C3-Pad1)*%
X163306000Y-102181500D02*
X165857250Y-104732750D01*
X163306000Y-102106500D02*
X163306000Y-102181500D01*
%TO.N,GND*%
X154095000Y-91590000D02*
X154066000Y-91619000D01*
X130306000Y-115019000D02*
X129864500Y-115460500D01*
X185106000Y-110506500D02*
X185106000Y-111884000D01*
D74*
X119610000Y-67940000D02*
X119060000Y-67940000D01*
X129023157Y-94844000D02*
X129306000Y-94844000D01*
X128750000Y-75188000D02*
X128306000Y-74744000D01*
X151556000Y-92794000D02*
X151906000Y-92444000D01*
D73*
X138500000Y-72650000D02*
X139706000Y-71444000D01*
X113212500Y-108000000D02*
X113212500Y-108212500D01*
D74*
X155000000Y-92500000D02*
X154250000Y-93250000D01*
X137931000Y-106925000D02*
X137931000Y-107244000D01*
X125712500Y-68037500D02*
X125500000Y-68250000D01*
D73*
X179296000Y-73164000D02*
X179382000Y-73250000D01*
D74*
X119840000Y-73440000D02*
X120090000Y-73690000D01*
D73*
X179296000Y-73164000D02*
X179296000Y-75934000D01*
X152716000Y-90569000D02*
X152716000Y-90384000D01*
X134443500Y-100081500D02*
X134506000Y-100019000D01*
X183684750Y-97065250D02*
X183637250Y-97112750D01*
D74*
X133306000Y-114369000D02*
X130956000Y-114369000D01*
D73*
X134443500Y-104744000D02*
X134443500Y-105706500D01*
X130243500Y-74756500D02*
X131750000Y-73250000D01*
D74*
X128750000Y-77313000D02*
X128750000Y-75188000D01*
X129381000Y-77944000D02*
X128750000Y-77313000D01*
D73*
X163836000Y-67914000D02*
X163836000Y-67094000D01*
X163836000Y-67094000D02*
X166567000Y-69825000D01*
X134443500Y-105706500D02*
X134306000Y-105844000D01*
X187500000Y-109500000D02*
X186112500Y-109500000D01*
D74*
X118850000Y-66810000D02*
X118850000Y-67730000D01*
X127000000Y-94683051D02*
X128862208Y-94683051D01*
D73*
X162215975Y-69534025D02*
X163836000Y-67914000D01*
D74*
X131269000Y-115019000D02*
X131500000Y-115250000D01*
X147984129Y-82319430D02*
X147984021Y-82319538D01*
X134743500Y-115479307D02*
X134743500Y-114806500D01*
D73*
X187275000Y-116975000D02*
X186750000Y-117500000D01*
D74*
X148381000Y-98969000D02*
X148381000Y-97221953D01*
X119060000Y-73440000D02*
X119060000Y-74860000D01*
D73*
X187875000Y-109125000D02*
X187875000Y-106950000D01*
D74*
X125500000Y-69574996D02*
X125406000Y-69668996D01*
X130306000Y-115019000D02*
X131269000Y-115019000D01*
D73*
X138106000Y-106550000D02*
X138207000Y-106449000D01*
X144500000Y-76250000D02*
X144348530Y-76250000D01*
X134443500Y-101744000D02*
X134443500Y-100081500D01*
D74*
X135206000Y-96794000D02*
X136456000Y-96794000D01*
X119860000Y-68190000D02*
X119610000Y-67940000D01*
D73*
X155250000Y-91590000D02*
X154095000Y-91590000D01*
D74*
X138106000Y-106550000D02*
X138106000Y-106750000D01*
X186725000Y-102450000D02*
X188200000Y-102450000D01*
X138881000Y-100744000D02*
X138350000Y-100744000D01*
X119060000Y-74860000D02*
X118850000Y-75070000D01*
D73*
X119387500Y-113250000D02*
X117250000Y-113250000D01*
D74*
X126788449Y-94471500D02*
X127000000Y-94683051D01*
X150556000Y-92794000D02*
X151556000Y-92794000D01*
X146193500Y-102706500D02*
X145850000Y-103050000D01*
D73*
X162215975Y-69984025D02*
X162215975Y-69534025D01*
D74*
X136456000Y-96794000D02*
X136706000Y-97044000D01*
X148381000Y-97221953D02*
X147759047Y-96600000D01*
D73*
X139706000Y-71444000D02*
X139706000Y-70494000D01*
X129864500Y-115460500D02*
X127500000Y-115460500D01*
D74*
X146193500Y-102181500D02*
X146193500Y-102706500D01*
X147984021Y-82322021D02*
X148381000Y-82719000D01*
D73*
X155250000Y-91590000D02*
X155250000Y-92250000D01*
X188200000Y-106625000D02*
X187875000Y-106950000D01*
X116468500Y-86244000D02*
X114756000Y-86244000D01*
X188200000Y-102450000D02*
X188200000Y-98548000D01*
D74*
X120090000Y-73690000D02*
X120760000Y-73690000D01*
D73*
X155250000Y-92250000D02*
X155000000Y-92500000D01*
D74*
X130956000Y-114369000D02*
X130306000Y-115019000D01*
D73*
X187275000Y-116200000D02*
X187275000Y-116975000D01*
D74*
X125500000Y-68250000D02*
X125500000Y-69574996D01*
D73*
X188200000Y-103500000D02*
X188200000Y-106625000D01*
D74*
X146193500Y-102181500D02*
X142818500Y-102181500D01*
X138106000Y-106750000D02*
X137931000Y-106925000D01*
D73*
X188200000Y-103500000D02*
X188200000Y-102450000D01*
D74*
X137525000Y-82475000D02*
X137381000Y-82619000D01*
D73*
X186717250Y-97065250D02*
X183684750Y-97065250D01*
X179296000Y-75934000D02*
X179506000Y-76144000D01*
X141381000Y-76944000D02*
X141381000Y-77594000D01*
X138207000Y-106449000D02*
X138207000Y-102418000D01*
X188200000Y-98548000D02*
X186717250Y-97065250D01*
X114756000Y-86244000D02*
X114750000Y-86250000D01*
D74*
X119060000Y-73440000D02*
X119840000Y-73440000D01*
D73*
X134443500Y-101744000D02*
X134443500Y-104744000D01*
D74*
X120760000Y-68190000D02*
X119860000Y-68190000D01*
X147506000Y-100869000D02*
X146193500Y-102181500D01*
X129306000Y-94844000D02*
X129506000Y-95044000D01*
X128862208Y-94683051D02*
X129023157Y-94844000D01*
D73*
X144348530Y-76250000D02*
X143654530Y-76944000D01*
X152716000Y-90384000D02*
X153500000Y-89600000D01*
D74*
X137381000Y-82619000D02*
X137381000Y-83619000D01*
D73*
X186750000Y-117500000D02*
X186612500Y-117500000D01*
D74*
X138350000Y-100744000D02*
X138106000Y-100500000D01*
X118850000Y-67730000D02*
X119060000Y-67940000D01*
D73*
X186112500Y-109500000D02*
X185106000Y-110506500D01*
X175957000Y-69825000D02*
X179296000Y-73164000D01*
X179382000Y-73250000D02*
X181425000Y-73250000D01*
D74*
X134200000Y-115775000D02*
X134447807Y-115775000D01*
X138207000Y-102418000D02*
X138417500Y-102207500D01*
X147984021Y-82319538D02*
X147984021Y-82322021D01*
D73*
X141381000Y-77594000D02*
X142193500Y-77594000D01*
D74*
X137931000Y-107244000D02*
X134743500Y-110431500D01*
D73*
X130243500Y-74844000D02*
X130243500Y-74756500D01*
X130243500Y-74844000D02*
X130243500Y-76444000D01*
X166567000Y-69825000D02*
X175957000Y-69825000D01*
X143654530Y-76944000D02*
X141381000Y-76944000D01*
X117250000Y-113250000D02*
X116250000Y-114250000D01*
X113212500Y-108212500D02*
X114250000Y-109250000D01*
D74*
X125846000Y-94471500D02*
X126788449Y-94471500D01*
D73*
X181425000Y-73250000D02*
X181775000Y-72900000D01*
X187875000Y-109125000D02*
X187500000Y-109500000D01*
D74*
X134447807Y-115775000D02*
X134743500Y-115479307D01*
X148381000Y-82719000D02*
X148381000Y-83619000D01*
D73*
%TO.N,-5V*%
X185106000Y-117281500D02*
X184887500Y-117500000D01*
X185106000Y-116831500D02*
X185093500Y-116844000D01*
X184887500Y-118637500D02*
X184887500Y-117500000D01*
X185250000Y-119000000D02*
X185000000Y-119000000D01*
X185106000Y-114944000D02*
X185106000Y-116831500D01*
X185000000Y-119000000D02*
X184750000Y-119250000D01*
X185106000Y-115304000D02*
X185106000Y-117281500D01*
X184750000Y-119250000D02*
X178000000Y-119250000D01*
X185250000Y-119000000D02*
X184887500Y-118637500D01*
D74*
%TO.N,+5V*%
X126512500Y-67837500D02*
X126525000Y-67825000D01*
X126175000Y-70100000D02*
X126200000Y-70125000D01*
D73*
X175000000Y-116750000D02*
X136000000Y-116750000D01*
D74*
X127950000Y-70750000D02*
X128600000Y-70750000D01*
X126200000Y-70125000D02*
X126200000Y-70200000D01*
D73*
X134106000Y-73756500D02*
X134106000Y-72719000D01*
X180250000Y-98250000D02*
X182125000Y-100125000D01*
X184156000Y-115304000D02*
X184102000Y-115250000D01*
D74*
X126525000Y-67825000D02*
X126525000Y-68625000D01*
X126750000Y-70750000D02*
X127300000Y-70750000D01*
X124250000Y-115460500D02*
X124250000Y-115750000D01*
D73*
X183750000Y-107075000D02*
X184150000Y-107075000D01*
D74*
X124250000Y-115750000D02*
X123250000Y-116750000D01*
X126175000Y-68950000D02*
X126175000Y-70100000D01*
D73*
X184093500Y-112181500D02*
X184156000Y-112244000D01*
D74*
X126250000Y-73025000D02*
X126250000Y-74500000D01*
X126525000Y-68625000D02*
X126475000Y-68675000D01*
D73*
X184387500Y-109500000D02*
X184050000Y-109500000D01*
D74*
X124775000Y-67650000D02*
X125296000Y-67129000D01*
D73*
X134106000Y-72719000D02*
X135506000Y-71319000D01*
X182125000Y-100125000D02*
X182125000Y-105450000D01*
D74*
X127950000Y-71325000D02*
X126250000Y-73025000D01*
D73*
X184102000Y-115250000D02*
X176500000Y-115250000D01*
D74*
X126475000Y-68675000D02*
X126450000Y-68675000D01*
D73*
X182125000Y-105450000D02*
X183750000Y-107075000D01*
X183150000Y-110400000D02*
X184093500Y-111343500D01*
D74*
X127950000Y-70750000D02*
X127950000Y-71325000D01*
D73*
X127850000Y-70725000D02*
X127325000Y-70725000D01*
X127325000Y-70725000D02*
X127300000Y-70750000D01*
D74*
X125804000Y-67129000D02*
X126512500Y-67837500D01*
D73*
X135506000Y-71319000D02*
X135506000Y-70584000D01*
D74*
X126450000Y-68675000D02*
X126175000Y-68950000D01*
D73*
X184156000Y-112244000D02*
X184156000Y-115304000D01*
X176500000Y-115250000D02*
X175000000Y-116750000D01*
X184050000Y-109500000D02*
X183150000Y-110400000D01*
X184093500Y-111343500D02*
X184093500Y-112181500D01*
D74*
X126200000Y-70200000D02*
X126750000Y-70750000D01*
X125296000Y-67129000D02*
X125804000Y-67129000D01*
D73*
%TO.N,ADC2_INP3*%
X167738501Y-83844000D02*
X167738501Y-85394000D01*
D74*
X146381000Y-83619000D02*
X146381000Y-82619000D01*
D73*
X168250000Y-80750000D02*
X168750000Y-80250000D01*
X167000000Y-78500000D02*
X165250000Y-78500000D01*
D74*
X146750000Y-82250000D02*
X147000000Y-82250000D01*
D73*
X167738501Y-82786501D02*
X168250000Y-82275002D01*
X168750000Y-80250000D02*
X167000000Y-78500000D01*
D74*
X146381000Y-82619000D02*
X146750000Y-82250000D01*
D73*
X167738501Y-83844000D02*
X167738501Y-82786501D01*
X165250000Y-80575000D02*
X165625000Y-80950000D01*
X165250000Y-78500000D02*
X161841211Y-78500000D01*
X161841211Y-78500000D02*
X161095382Y-77754171D01*
X167738501Y-85394000D02*
X167788501Y-85444000D01*
X165250000Y-78500000D02*
X165250000Y-80575000D01*
X168250000Y-82275002D02*
X168250000Y-80750000D01*
D74*
%TO.N,ADC1_INP0*%
X149256000Y-86294000D02*
X149106000Y-86444000D01*
D73*
X149250000Y-80000000D02*
X148062000Y-80000000D01*
D74*
X150556000Y-86294000D02*
X149256000Y-86294000D01*
D73*
X148062000Y-80000000D02*
X147906000Y-79844000D01*
%TO.N,+3.3VA*%
X161139804Y-82555196D02*
X159919804Y-82555196D01*
X155250000Y-85363000D02*
X154306000Y-84419000D01*
X167105000Y-77645000D02*
X164645000Y-77645000D01*
X137981000Y-80044000D02*
X137981000Y-80431500D01*
X142456000Y-80044000D02*
X142500000Y-80000000D01*
X152896502Y-83069000D02*
X150732493Y-83069000D01*
X154306000Y-84419000D02*
X154246502Y-84419000D01*
X161195000Y-82500000D02*
X161139804Y-82555196D01*
X141106000Y-82244000D02*
X141106000Y-80444000D01*
X152500000Y-87500000D02*
X154548344Y-87500000D01*
X154246502Y-84419000D02*
X152896502Y-83069000D01*
X141106000Y-80444000D02*
X140706000Y-80044000D01*
X162750000Y-81000000D02*
X163750000Y-80000000D01*
X155250000Y-86798344D02*
X155250000Y-85363000D01*
X140706000Y-80044000D02*
X142456000Y-80044000D01*
X140706000Y-80044000D02*
X137981000Y-80044000D01*
X137605250Y-79668250D02*
X137605250Y-78650000D01*
X164645000Y-77645000D02*
X164500000Y-77500000D01*
X137981000Y-80044000D02*
X137605250Y-79668250D01*
X159919804Y-82555196D02*
X159500000Y-82975000D01*
X168250000Y-76500000D02*
X167105000Y-77645000D01*
X154548344Y-87500000D02*
X155250000Y-86798344D01*
X137981000Y-80431500D02*
X137368500Y-81044000D01*
%TO.N,Net-(U9A-+)*%
X115306000Y-106069000D02*
X115306000Y-107981500D01*
X118285000Y-105515000D02*
X119275000Y-105515000D01*
X115306000Y-106069000D02*
X115346000Y-106109000D01*
X115306000Y-107981500D02*
X115287500Y-108000000D01*
X117691000Y-106109000D02*
X118285000Y-105515000D01*
X115346000Y-106109000D02*
X117691000Y-106109000D01*
%TO.N,Net-(U10B-+)*%
X118831000Y-83934000D02*
X119601000Y-84704000D01*
X118543500Y-86244000D02*
X118543500Y-84221500D01*
X119601000Y-84704000D02*
X123181000Y-84704000D01*
X118543500Y-84221500D02*
X118831000Y-83934000D01*
%TO.N,-5VCLEAN*%
X171899500Y-91500000D02*
X170843500Y-90444000D01*
X166126001Y-88194000D02*
X165346002Y-88194000D01*
X163167723Y-88194000D02*
X166126001Y-88194000D01*
X175500000Y-91500000D02*
X171899500Y-91500000D01*
X127087000Y-100000000D02*
X126500000Y-100000000D01*
X150637500Y-78986500D02*
X150637500Y-78648000D01*
X147106000Y-77594000D02*
X149118500Y-77594000D01*
X167725001Y-89274724D02*
X167725001Y-89863001D01*
X128631000Y-90744000D02*
X128356397Y-90744000D01*
X149500000Y-78750000D02*
X150401000Y-78750000D01*
X142500000Y-81512500D02*
X142500000Y-82250000D01*
X128731000Y-101644000D02*
X127087000Y-100000000D01*
X149118500Y-77594000D02*
X149351000Y-77361500D01*
X162361723Y-89000000D02*
X163167723Y-88194000D01*
X145856000Y-78844000D02*
X147106000Y-77594000D01*
X166644277Y-88194000D02*
X167725001Y-89274724D01*
X128356397Y-90744000D02*
X127842975Y-90230578D01*
X164168500Y-87016498D02*
X164168500Y-84644000D01*
X150637500Y-78648000D02*
X149351000Y-77361500D01*
X168831000Y-90969000D02*
X170318500Y-90969000D01*
X166126001Y-88194000D02*
X166644277Y-88194000D01*
X165346002Y-88194000D02*
X164168500Y-87016498D01*
X145168500Y-78844000D02*
X145856000Y-78844000D01*
X170318500Y-90969000D02*
X170843500Y-90444000D01*
X162000000Y-89000000D02*
X162361723Y-89000000D01*
X164000000Y-83750000D02*
X164000000Y-84475500D01*
X145168500Y-78844000D02*
X142500000Y-81512500D01*
X167725001Y-89863001D02*
X168831000Y-90969000D01*
X150401000Y-78750000D02*
X150637500Y-78986500D01*
X164000000Y-84475500D02*
X164168500Y-84644000D01*
D74*
%TO.N,RCC_OSC_IN*%
X153092500Y-91995500D02*
X153092500Y-92907500D01*
X152891000Y-91794000D02*
X153092500Y-91995500D01*
X153092500Y-92907500D02*
X153435000Y-93250000D01*
X152250000Y-91794000D02*
X152891000Y-91794000D01*
X152250000Y-91794000D02*
X150556000Y-91794000D01*
%TO.N,RCC_OSC_OUT*%
X151750000Y-90132900D02*
X151750000Y-90933824D01*
X154750000Y-89885000D02*
X154750000Y-89396520D01*
D73*
X155250000Y-90775000D02*
X154272000Y-90775000D01*
D74*
X152882900Y-89000000D02*
X151750000Y-90132900D01*
X151750000Y-90933824D02*
X151389824Y-91294000D01*
X154066000Y-90569000D02*
X154750000Y-89885000D01*
D73*
X154272000Y-90775000D02*
X154066000Y-90569000D01*
D74*
X154750000Y-89396520D02*
X154353480Y-89000000D01*
X154353480Y-89000000D02*
X152882900Y-89000000D01*
X151389824Y-91294000D02*
X150556000Y-91294000D01*
%TO.N,RCC_OSC32_IN*%
X150556000Y-93794000D02*
X151389824Y-93794000D01*
X151389824Y-93794000D02*
X151906000Y-94310176D01*
X151906000Y-94310176D02*
X151906000Y-94844000D01*
%TO.N,RCC_OSC32_OUT*%
X151956000Y-93294000D02*
X150556000Y-93294000D01*
D73*
%TO.N,+12VA*%
X119890000Y-106785000D02*
X119275000Y-106785000D01*
X127264949Y-95685051D02*
X127178500Y-95771500D01*
X124625000Y-81325000D02*
X124625000Y-83163000D01*
X121000000Y-104900000D02*
X121000000Y-104950000D01*
X127853017Y-95685051D02*
X127264949Y-95685051D01*
X127178500Y-95771500D02*
X125846000Y-95771500D01*
X125706000Y-84244000D02*
X124896000Y-83434000D01*
X120825000Y-105125000D02*
X120825000Y-105850000D01*
X111500000Y-113675000D02*
X111500000Y-107750000D01*
X111500000Y-107750000D02*
X112000000Y-107250000D01*
X121125000Y-104625000D02*
X121125000Y-104775000D01*
X124625000Y-83163000D02*
X124896000Y-83434000D01*
X120825000Y-105850000D02*
X119890000Y-106785000D01*
X125125000Y-80825000D02*
X124625000Y-81325000D01*
X121125000Y-104775000D02*
X121000000Y-104900000D01*
X121000000Y-104950000D02*
X120825000Y-105125000D01*
X124896000Y-83434000D02*
X123181000Y-83434000D01*
%TO.N,-12VA*%
X126350000Y-82475000D02*
X127309000Y-83434000D01*
X128506000Y-97981500D02*
X128268500Y-97981500D01*
X121075000Y-115000000D02*
X121350000Y-115000000D01*
X125900000Y-107379000D02*
X125854000Y-107379000D01*
X128506000Y-97244000D02*
X129106000Y-96644000D01*
X125900000Y-107379000D02*
X128578500Y-107379000D01*
X121112500Y-113250000D02*
X121112500Y-114962500D01*
X126748000Y-93821500D02*
X125846000Y-93821500D01*
X121350000Y-115000000D02*
X122500000Y-116150000D01*
X125285000Y-106785000D02*
X124225000Y-106785000D01*
X127309000Y-83434000D02*
X128131000Y-83434000D01*
X129931000Y-92000000D02*
X129931000Y-89490000D01*
X128506000Y-97981500D02*
X128506000Y-97244000D01*
X127706000Y-94044000D02*
X126970500Y-94044000D01*
X127906000Y-93844000D02*
X127706000Y-94044000D01*
X125879000Y-107379000D02*
X125285000Y-106785000D01*
X125900000Y-107379000D02*
X125879000Y-107379000D01*
X121418500Y-112944000D02*
X121112500Y-113250000D01*
X128578500Y-107379000D02*
X129306000Y-108106500D01*
X126970500Y-94044000D02*
X126748000Y-93821500D01*
X121112500Y-114962500D02*
X121075000Y-115000000D01*
X122250000Y-112944000D02*
X121418500Y-112944000D01*
X128268500Y-97981500D02*
X127500000Y-98750000D01*
D74*
%TO.N,+3.3V*%
X124866050Y-117707520D02*
X124866050Y-117707521D01*
X141500000Y-96844000D02*
X145500000Y-96844000D01*
X147881000Y-83619000D02*
X147881000Y-84854052D01*
X122706969Y-118653024D02*
X121915993Y-119444000D01*
X141750000Y-86444000D02*
X140906000Y-86444000D01*
D73*
X136168500Y-103244000D02*
X136168500Y-104744000D01*
X129969000Y-113469000D02*
X130306000Y-113469000D01*
D74*
X149722176Y-92294000D02*
X149455000Y-92561176D01*
X134372176Y-96294000D02*
X134105000Y-96561176D01*
X149455000Y-94526824D02*
X149722176Y-94794000D01*
X147881000Y-84854052D02*
X147980999Y-84954051D01*
X148881000Y-95635176D02*
X149722176Y-94794000D01*
X129505000Y-95844002D02*
X129456059Y-95844002D01*
X124572571Y-118001000D02*
X124572570Y-118001000D01*
X124866050Y-117707521D02*
X124572571Y-118001000D01*
X129456059Y-95844002D02*
X128696108Y-95084051D01*
X136507000Y-83245000D02*
X136507000Y-82468000D01*
X135300000Y-74775000D02*
X135275000Y-74800000D01*
X149455000Y-92561176D02*
X149455000Y-94526824D01*
X134372176Y-97294000D02*
X135206000Y-97294000D01*
X141500000Y-89087943D02*
X138472176Y-86060119D01*
X138472176Y-86060119D02*
X138472176Y-86044000D01*
X128696108Y-95084051D02*
X125883449Y-95084051D01*
X123358993Y-118001000D02*
X123059026Y-118300967D01*
X125883449Y-95084051D02*
X125846000Y-95121500D01*
X134105000Y-97026824D02*
X134372176Y-97294000D01*
X135206000Y-97294000D02*
X135557000Y-97645000D01*
D73*
X129250000Y-112750000D02*
X129969000Y-113469000D01*
D74*
X146106000Y-96844000D02*
X146950000Y-96000000D01*
X136200000Y-73875000D02*
X135300000Y-74775000D01*
X130830050Y-117000000D02*
X125573570Y-117000000D01*
X148881000Y-98969000D02*
X148881000Y-95635176D01*
X138306000Y-96844000D02*
X141500000Y-96844000D01*
X134105000Y-96561176D02*
X134105000Y-97026824D01*
D73*
X135206000Y-97769000D02*
X134806000Y-98169000D01*
D74*
X135487500Y-72737500D02*
X135487500Y-73012500D01*
X138472176Y-86044000D02*
X136881000Y-84452824D01*
X146950000Y-96000000D02*
X148758795Y-96000000D01*
X135557000Y-97645000D02*
X137505000Y-97645000D01*
X138000000Y-81800000D02*
X138625000Y-81175000D01*
X132665025Y-115165025D02*
X130830050Y-117000000D01*
D73*
X136168500Y-100131500D02*
X136168500Y-101744000D01*
D74*
X133023550Y-114806500D02*
X132665025Y-115165025D01*
X136507000Y-83245000D02*
X136881000Y-83619000D01*
X135487500Y-73012500D02*
X136200000Y-73725000D01*
X123059026Y-118300967D02*
X122706969Y-118653024D01*
X141500000Y-96844000D02*
X141500000Y-89087943D01*
D73*
X134806000Y-98169000D02*
X134806000Y-98769000D01*
D74*
X124572570Y-118001000D02*
X124157530Y-118001000D01*
X150556000Y-92294000D02*
X149722176Y-92294000D01*
X137175000Y-81800000D02*
X138000000Y-81800000D01*
X125573570Y-117000000D02*
X124866050Y-117707520D01*
D73*
X135906000Y-105006500D02*
X136168500Y-104744000D01*
D74*
X149722176Y-94794000D02*
X150556000Y-94794000D01*
D73*
X136168500Y-101744000D02*
X136168500Y-103244000D01*
X135906000Y-105844000D02*
X135906000Y-105006500D01*
D74*
X136231000Y-101681500D02*
X136168500Y-101744000D01*
X148881000Y-96122205D02*
X148881000Y-98969000D01*
X137505000Y-97645000D02*
X138306000Y-96844000D01*
X140906000Y-86444000D02*
X140506000Y-86044000D01*
X138443500Y-101681500D02*
X136231000Y-101681500D01*
X121915993Y-119444000D02*
X121756000Y-119444000D01*
X136881000Y-84452824D02*
X136881000Y-83619000D01*
X136200000Y-73725000D02*
X136200000Y-73875000D01*
D73*
X135206000Y-97345000D02*
X135206000Y-97769000D01*
D74*
X135206000Y-96294000D02*
X134372176Y-96294000D01*
X136507000Y-82468000D02*
X137175000Y-81800000D01*
X140506000Y-86044000D02*
X138472176Y-86044000D01*
X145500000Y-96844000D02*
X146106000Y-96844000D01*
X124157530Y-118001000D02*
X123358993Y-118001000D01*
D73*
X134806000Y-98769000D02*
X136168500Y-100131500D01*
D74*
X134243500Y-114806500D02*
X133023550Y-114806500D01*
X148758795Y-96000000D02*
X148881000Y-96122205D01*
D73*
%TO.N,Net-(U13-Vfb1)*%
X117100000Y-115675000D02*
X116775000Y-116000000D01*
X116775000Y-116000000D02*
X113675000Y-116000000D01*
X111500000Y-115325000D02*
X113000000Y-115325000D01*
X113675000Y-116000000D02*
X113000000Y-115325000D01*
%TO.N,Net-(C46-Pad1)*%
X119275000Y-116750000D02*
X119275000Y-115150000D01*
X119275000Y-115150000D02*
X119425000Y-115000000D01*
D74*
%TO.N,Net-(U13-Vfb2)*%
X122458026Y-117308026D02*
X121900000Y-116750000D01*
D73*
X126000000Y-115865050D02*
X124365050Y-117500000D01*
X123010050Y-117500000D02*
X122458026Y-118052024D01*
D74*
X121900000Y-116750000D02*
X121000000Y-116750000D01*
D73*
X124365050Y-117500000D02*
X123010050Y-117500000D01*
D74*
X122458026Y-118052024D02*
X122458026Y-117308026D01*
D73*
X126250000Y-113000000D02*
X126000000Y-113250000D01*
X126000000Y-113250000D02*
X126000000Y-115865050D01*
%TO.N,Net-(D8-K)*%
X134106000Y-76731500D02*
X134106000Y-75844000D01*
X131968500Y-76444000D02*
X131968500Y-77081500D01*
X131968500Y-76444000D02*
X133818500Y-76444000D01*
X134106000Y-75844000D02*
X133906000Y-75644000D01*
X131968500Y-77081500D02*
X131106000Y-77944000D01*
X133818500Y-76444000D02*
X134106000Y-76731500D01*
%TO.N,Net-(U16-C+)*%
X186416000Y-114944000D02*
X187118500Y-114944000D01*
X186056000Y-115304000D02*
X186416000Y-114944000D01*
X187118500Y-114944000D02*
X187756000Y-114306500D01*
%TO.N,Net-(U16-C-)*%
X186393500Y-112581500D02*
X186056000Y-112244000D01*
X187756000Y-112581500D02*
X186393500Y-112581500D01*
D74*
%TO.N,Net-(C31-Pad1)*%
X147881000Y-98131000D02*
X147250000Y-97500000D01*
X147881000Y-98969000D02*
X147881000Y-98131000D01*
%TO.N,UCPD_CC1*%
X140950000Y-69750000D02*
X141175000Y-69750000D01*
X139812500Y-67325000D02*
X140575000Y-68087500D01*
X140575000Y-69375000D02*
X140950000Y-69750000D01*
X140575000Y-68087500D02*
X140575000Y-69375000D01*
%TO.N,UCPD_CC2*%
X130750000Y-73260050D02*
X130750000Y-69000000D01*
X133926470Y-82926470D02*
X134000000Y-83000000D01*
X125975000Y-66175000D02*
X126005000Y-66145000D01*
X130211760Y-73798290D02*
X130750000Y-73260050D01*
D73*
%TO.N,NRST*%
X167125000Y-117625000D02*
X167050000Y-117700000D01*
X167050000Y-117700000D02*
X133660000Y-117700000D01*
D74*
X149656000Y-90794000D02*
X149106000Y-90244000D01*
X150556000Y-90794000D02*
X149656000Y-90794000D01*
D73*
X133660000Y-117700000D02*
X131916000Y-119444000D01*
D74*
%TO.N,CH1_attenuate*%
X143305000Y-86820000D02*
X143305000Y-86796057D01*
X143657057Y-86444000D02*
X143681000Y-86444000D01*
D73*
X183637250Y-104732750D02*
X186542250Y-104732750D01*
X144000000Y-89750000D02*
X148459047Y-94209047D01*
D74*
X144881000Y-85869000D02*
X144881000Y-83619000D01*
X142880000Y-87245000D02*
X143305000Y-86820000D01*
X143305000Y-86796057D02*
X143657057Y-86444000D01*
X142556000Y-87245000D02*
X142880000Y-87245000D01*
X143681000Y-86444000D02*
X143875000Y-86250000D01*
D73*
X142750000Y-89750000D02*
X144000000Y-89750000D01*
X148459047Y-94209047D02*
X148459047Y-95208599D01*
D74*
X144500000Y-86250000D02*
X144881000Y-85869000D01*
X143875000Y-86250000D02*
X144500000Y-86250000D01*
D73*
X186542250Y-104732750D02*
X186725000Y-104550000D01*
%TO.N,CH0_attenuate*%
X184400000Y-72900000D02*
X184275000Y-72900000D01*
D74*
X150556000Y-89294000D02*
X148544000Y-89294000D01*
D73*
X187126000Y-76144000D02*
X187126000Y-75626000D01*
D74*
X148544000Y-89294000D02*
X148500000Y-89250000D01*
D73*
X187126000Y-75626000D02*
X184400000Y-72900000D01*
D74*
%TO.N,Net-(D5-A)*%
X124250000Y-114000000D02*
X124250000Y-113000000D01*
%TO.N,Net-(D6-K)*%
X127250000Y-112864000D02*
X127250000Y-113250000D01*
X127500000Y-113500000D02*
X127500000Y-114000000D01*
X127250000Y-113250000D02*
X127500000Y-113500000D01*
D73*
%TO.N,Net-(D7-K)*%
X136306000Y-68844000D02*
X135506000Y-68044000D01*
X139706000Y-68844000D02*
X136306000Y-68844000D01*
%TO.N,P_CH1_IN*%
X176300900Y-110784000D02*
X177709650Y-109375250D01*
X169746000Y-110784000D02*
X176300900Y-110784000D01*
X177709650Y-109375250D02*
X177709650Y-106425150D01*
X177709650Y-106425150D02*
X176017250Y-104732750D01*
%TO.N,P_CH0_IN*%
X184476100Y-81114100D02*
X176106000Y-81114100D01*
X187126000Y-83764000D02*
X184476100Y-81114100D01*
D74*
%TO.N,DEBUG_JTMS-SWDI0*%
X135206000Y-95794000D02*
X136456000Y-95794000D01*
X136456000Y-95794000D02*
X136706000Y-96044000D01*
%TO.N,DEBUG_JTD-SW0*%
X140506000Y-95844000D02*
X138706000Y-95844000D01*
X143306000Y-97644000D02*
X143381000Y-97719000D01*
X143381000Y-97719000D02*
X143381000Y-98969000D01*
%TO.N,DEBUG_JTCK_SWCLK*%
X136881000Y-100019000D02*
X136881000Y-98969000D01*
X137406000Y-100544000D02*
X136881000Y-100019000D01*
X137406000Y-101000000D02*
X137406000Y-100544000D01*
%TO.N,LOGIC_INP0*%
X140467000Y-106905000D02*
X145547000Y-106905000D01*
X138881000Y-103119000D02*
X138881000Y-105319000D01*
X138881000Y-105319000D02*
X140467000Y-106905000D01*
X145547000Y-106905000D02*
X146886000Y-108244000D01*
%TO.N,LOGIC_INP7*%
X162921000Y-106499000D02*
X164666000Y-108244000D01*
X154327400Y-105797000D02*
X156499000Y-105797000D01*
X149550000Y-104945000D02*
X151502500Y-104945000D01*
X156900000Y-106198000D02*
X158674200Y-106198000D01*
X142699000Y-104099000D02*
X143361000Y-104099000D01*
X149199000Y-104594000D02*
X149550000Y-104945000D01*
X156499000Y-105797000D02*
X156900000Y-106198000D01*
X143361000Y-104099000D02*
X143362000Y-104098000D01*
X142381000Y-103781000D02*
X142699000Y-104099000D01*
X143362000Y-104098000D02*
X146804000Y-104098000D01*
X153926400Y-105396000D02*
X154327400Y-105797000D01*
X151502500Y-104945000D02*
X151953500Y-105396000D01*
X158674200Y-106198000D02*
X158975200Y-106499000D01*
X158975200Y-106499000D02*
X162921000Y-106499000D01*
X142381000Y-103119000D02*
X142381000Y-103781000D01*
X146804000Y-104098000D02*
X147300000Y-104594000D01*
X147300000Y-104594000D02*
X149199000Y-104594000D01*
X151953500Y-105396000D02*
X153926400Y-105396000D01*
%TO.N,LOGIC_INP11*%
X137796800Y-112369000D02*
X138826800Y-113399000D01*
X138826800Y-113399000D02*
X151891000Y-113399000D01*
X151891000Y-113399000D02*
X154506000Y-110784000D01*
X135681000Y-112369000D02*
X137796800Y-112369000D01*
%TO.N,LOGIC_INP5*%
X158342000Y-107000000D02*
X159586000Y-108244000D01*
X141506900Y-104547000D02*
X141741800Y-104781900D01*
X145713100Y-104900000D02*
X145884200Y-104900000D01*
X141381000Y-104421100D02*
X141506900Y-104547000D01*
X147517600Y-105396000D02*
X147849800Y-105396000D01*
X145552000Y-104900000D02*
X145569100Y-104900000D01*
X145901300Y-104900000D02*
X146045300Y-104900000D01*
X146612400Y-105134900D02*
X146847300Y-105369800D01*
X155968100Y-106599000D02*
X156369100Y-107000000D01*
X145048700Y-104900000D02*
X145219800Y-104900000D01*
X141859900Y-104900000D02*
X144716500Y-104900000D01*
X146045300Y-104900000D02*
X146377500Y-104900000D01*
X153995200Y-106599000D02*
X155968100Y-106599000D01*
X141381000Y-103119000D02*
X141381000Y-104421100D01*
X156369100Y-107000000D02*
X158342000Y-107000000D01*
X144904700Y-104900000D02*
X145048700Y-104900000D01*
X149197400Y-105747000D02*
X151170300Y-105747000D01*
X145219800Y-104900000D02*
X145236900Y-104900000D01*
X147849800Y-105396000D02*
X148182000Y-105396000D01*
X144716500Y-104900000D02*
X144904700Y-104900000D01*
X153594200Y-106198000D02*
X153995200Y-106599000D01*
X146377500Y-104900000D02*
X146612400Y-105134900D01*
X151621300Y-106198000D02*
X153594200Y-106198000D01*
X146873500Y-105396000D02*
X147517600Y-105396000D01*
X145236900Y-104900000D02*
X145380900Y-104900000D01*
X145569100Y-104900000D02*
X145713100Y-104900000D01*
X146847300Y-105369800D02*
X146873500Y-105396000D01*
X148846400Y-105396000D02*
X149197400Y-105747000D01*
X148182000Y-105396000D02*
X148846400Y-105396000D01*
X141741800Y-104781900D02*
X141859900Y-104900000D01*
X145884200Y-104900000D02*
X145901300Y-104900000D01*
X151170300Y-105747000D02*
X151621300Y-106198000D01*
X145380900Y-104900000D02*
X145552000Y-104900000D01*
%TO.N,LOGIC_INP4*%
X148915200Y-106031900D02*
X149031300Y-106148000D01*
X145214800Y-105301000D02*
X145385900Y-105301000D01*
X148680300Y-105797000D02*
X148915200Y-106031900D01*
X153428100Y-106599000D02*
X153663000Y-106833900D01*
X144882600Y-105301000D02*
X145070800Y-105301000D01*
X140881000Y-104396100D02*
X140881000Y-104488200D01*
X146446300Y-105535900D02*
X146681200Y-105770800D01*
X155802000Y-107000000D02*
X157046000Y-108244000D01*
X145879200Y-105301000D02*
X146211400Y-105301000D01*
X150339800Y-106148000D02*
X150672000Y-106148000D01*
X145070800Y-105301000D02*
X145214800Y-105301000D01*
X141575700Y-105182900D02*
X141693800Y-105301000D01*
X146707400Y-105797000D02*
X147683700Y-105797000D01*
X146211400Y-105301000D02*
X146446300Y-105535900D01*
X140881000Y-104488200D02*
X141340800Y-104948000D01*
X147683700Y-105797000D02*
X148015900Y-105797000D01*
X146681200Y-105770800D02*
X146707400Y-105797000D01*
X149031300Y-106148000D02*
X150339800Y-106148000D01*
X148015900Y-105797000D02*
X148348100Y-105797000D01*
X151004200Y-106148000D02*
X151239100Y-106382900D01*
X145718100Y-105301000D02*
X145735200Y-105301000D01*
X153829100Y-107000000D02*
X155802000Y-107000000D01*
X145385900Y-105301000D02*
X145403000Y-105301000D01*
X151239100Y-106382900D02*
X151455200Y-106599000D01*
X145403000Y-105301000D02*
X145547000Y-105301000D01*
X141340800Y-104948000D02*
X141575700Y-105182900D01*
X151455200Y-106599000D02*
X153095900Y-106599000D01*
X153663000Y-106833900D02*
X153829100Y-107000000D01*
X153095900Y-106599000D02*
X153428100Y-106599000D01*
X150672000Y-106148000D02*
X151004200Y-106148000D01*
X140881000Y-103119000D02*
X140881000Y-104063900D01*
X141693800Y-105301000D02*
X144882600Y-105301000D01*
X145547000Y-105301000D02*
X145718100Y-105301000D01*
X148348100Y-105797000D02*
X148680300Y-105797000D01*
X145735200Y-105301000D02*
X145879200Y-105301000D01*
X140881000Y-104063900D02*
X140881000Y-104396100D01*
D73*
%TO.N,CH0_ACDC*%
X154505003Y-88443003D02*
X156007000Y-89945000D01*
X156007000Y-89945000D02*
X156007000Y-94360450D01*
D74*
X151756000Y-88794000D02*
X152106997Y-88443003D01*
D73*
X169706500Y-70956500D02*
X168506000Y-70956500D01*
D74*
X150556000Y-88794000D02*
X151756000Y-88794000D01*
D73*
X170500000Y-71750000D02*
X169706500Y-70956500D01*
X156007000Y-94360450D02*
X155838696Y-94528754D01*
X168506000Y-70956500D02*
X168306000Y-70756500D01*
X152106997Y-88443003D02*
X154505003Y-88443003D01*
D74*
%TO.N,LOGIC_INP3*%
X141527700Y-105702000D02*
X146045300Y-105702000D01*
X146045300Y-105702000D02*
X146541300Y-106198000D01*
X153262000Y-107000000D02*
X154506000Y-108244000D01*
X140381000Y-104555300D02*
X141527700Y-105702000D01*
X140381000Y-103119000D02*
X140381000Y-104555300D01*
X150838100Y-106549000D02*
X151289100Y-107000000D01*
X148514200Y-106198000D02*
X148865200Y-106549000D01*
X146541300Y-106198000D02*
X148514200Y-106198000D01*
X148865200Y-106549000D02*
X150838100Y-106549000D01*
X151289100Y-107000000D02*
X153262000Y-107000000D01*
%TO.N,LOGIC_INP2*%
X146349000Y-106572800D02*
X146375200Y-106599000D01*
X139881000Y-103812398D02*
X139881000Y-104631000D01*
X148348100Y-106599000D02*
X148583000Y-106833900D01*
X139881000Y-103119000D02*
X139881000Y-103480198D01*
X145879200Y-106103000D02*
X146114100Y-106337900D01*
X146114100Y-106337900D02*
X146349000Y-106572800D01*
X141008600Y-105750000D02*
X141243500Y-105984900D01*
X145214800Y-106103000D02*
X145403000Y-106103000D01*
X148583000Y-106833900D02*
X148699100Y-106950000D01*
X148699100Y-106950000D02*
X150672000Y-106950000D01*
X148015900Y-106599000D02*
X148348100Y-106599000D01*
X145403000Y-106103000D02*
X145547000Y-106103000D01*
X150672000Y-106950000D02*
X151966000Y-108244000D01*
X141243500Y-105984900D02*
X141361600Y-106103000D01*
X146375200Y-106599000D02*
X148015900Y-106599000D01*
X141000000Y-105750000D02*
X141008600Y-105750000D01*
X139881000Y-103480198D02*
X139881000Y-103812398D01*
X139881000Y-104631000D02*
X141000000Y-105750000D01*
X141361600Y-106103000D02*
X145214800Y-106103000D01*
X145547000Y-106103000D02*
X145879200Y-106103000D01*
D73*
%TO.N,DAC1_OUT1*%
X129481000Y-102569000D02*
X129806000Y-102244000D01*
X124494000Y-103244000D02*
X124225000Y-102975000D01*
X129306000Y-103244000D02*
X124494000Y-103244000D01*
X129481000Y-103244000D02*
X129481000Y-102569000D01*
%TO.N,DAC1_OUT2*%
X132506000Y-87244000D02*
X128131000Y-87244000D01*
X133306000Y-86744000D02*
X132806000Y-87244000D01*
X132806000Y-87244000D02*
X132506000Y-87244000D01*
D74*
%TO.N,LOGIC_INP8*%
X136450000Y-111067000D02*
X138196100Y-111067000D01*
X136252000Y-110869000D02*
X136450000Y-111067000D01*
X145474000Y-112196000D02*
X146886000Y-110784000D01*
X138196100Y-111067000D02*
X139325100Y-112196000D01*
X135681000Y-110869000D02*
X136252000Y-110869000D01*
X139325100Y-112196000D02*
X145474000Y-112196000D01*
%TO.N,LOGIC_INP6*%
X147351500Y-104995000D02*
X147683700Y-104995000D01*
X156535200Y-106599000D02*
X158175900Y-106599000D01*
X146067400Y-104499000D02*
X146211400Y-104499000D01*
X151336400Y-105346000D02*
X151571300Y-105580900D01*
X153760300Y-105797000D02*
X153995200Y-106031900D01*
X144882600Y-104499000D02*
X145053700Y-104499000D01*
X145053700Y-104499000D02*
X145070800Y-104499000D01*
X153995200Y-106031900D02*
X154161300Y-106198000D01*
X156369100Y-106432900D02*
X156535200Y-106599000D01*
X158175900Y-106599000D02*
X158508100Y-106599000D01*
X141881000Y-103119000D02*
X141881000Y-104070830D01*
X145214800Y-104499000D02*
X145385900Y-104499000D01*
X155802000Y-106198000D02*
X156134200Y-106198000D01*
X146543600Y-104499000D02*
X146778500Y-104733900D01*
X146778500Y-104733900D02*
X147013400Y-104968800D01*
X156134200Y-106198000D02*
X156369100Y-106432900D01*
X160782000Y-106900000D02*
X162126000Y-108244000D01*
X158508100Y-106599000D02*
X158743000Y-106833900D01*
X149012500Y-104995000D02*
X149247400Y-105229900D01*
X146211400Y-104499000D02*
X146543600Y-104499000D01*
X145735200Y-104499000D02*
X145879200Y-104499000D01*
X141881000Y-104070830D02*
X142309170Y-104499000D01*
X145879200Y-104499000D02*
X146050300Y-104499000D01*
X147039600Y-104995000D02*
X147351500Y-104995000D01*
X148680300Y-104995000D02*
X149012500Y-104995000D01*
X151004200Y-105346000D02*
X151336400Y-105346000D01*
X144550400Y-104499000D02*
X144738600Y-104499000D01*
X145547000Y-104499000D02*
X145718100Y-104499000D01*
X153428100Y-105797000D02*
X153760300Y-105797000D01*
X145385900Y-104499000D02*
X145403000Y-104499000D01*
X145718100Y-104499000D02*
X145735200Y-104499000D01*
X158809100Y-106900000D02*
X160782000Y-106900000D01*
X142309170Y-104499000D02*
X144550400Y-104499000D01*
X145070800Y-104499000D02*
X145214800Y-104499000D01*
X144738600Y-104499000D02*
X144882600Y-104499000D01*
X148348100Y-104995000D02*
X148680300Y-104995000D01*
X146050300Y-104499000D02*
X146067400Y-104499000D01*
X151571300Y-105580900D02*
X151787400Y-105797000D01*
X147683700Y-104995000D02*
X148015900Y-104995000D01*
X158743000Y-106833900D02*
X158809100Y-106900000D01*
X154161300Y-106198000D02*
X155802000Y-106198000D01*
X151787400Y-105797000D02*
X153428100Y-105797000D01*
X147013400Y-104968800D02*
X147039600Y-104995000D01*
X149247400Y-105229900D02*
X149363500Y-105346000D01*
X148015900Y-104995000D02*
X148348100Y-104995000D01*
X145403000Y-104499000D02*
X145547000Y-104499000D01*
X149363500Y-105346000D02*
X151004200Y-105346000D01*
%TO.N,LOGIC_INP1*%
X145713100Y-106504000D02*
X146209100Y-107000000D01*
X141195500Y-106504000D02*
X145713100Y-106504000D01*
X148182000Y-107000000D02*
X149426000Y-108244000D01*
X139381000Y-103119000D02*
X139381000Y-104698100D01*
X140833900Y-106151000D02*
X140842500Y-106151000D01*
X146209100Y-107000000D02*
X148182000Y-107000000D01*
X139381000Y-104698100D02*
X140833900Y-106151000D01*
X140842500Y-106151000D02*
X141195500Y-106504000D01*
D73*
%TO.N,CH1_ACDC*%
X153597444Y-82920000D02*
X152927444Y-82250000D01*
X154814556Y-83530500D02*
X154305500Y-83530500D01*
X152927444Y-82250000D02*
X149712000Y-82250000D01*
X155182000Y-83897944D02*
X154814556Y-83530500D01*
X155906000Y-86835364D02*
X155906000Y-85131000D01*
X156706000Y-87635364D02*
X155906000Y-86835364D01*
X149712000Y-82250000D02*
X148962000Y-81500000D01*
X159700000Y-93250000D02*
X157700000Y-93250000D01*
X153695000Y-82920000D02*
X153597444Y-82920000D01*
X155182000Y-84407000D02*
X155182000Y-83897944D01*
D74*
X145922176Y-82244000D02*
X145381000Y-82785176D01*
X145381000Y-82785176D02*
X145381000Y-83619000D01*
D73*
X154305500Y-83530500D02*
X153695000Y-82920000D01*
X146666176Y-81500000D02*
X145922176Y-82244000D01*
X157700000Y-93250000D02*
X156706000Y-92256000D01*
X155906000Y-85131000D02*
X155182000Y-84407000D01*
X156706000Y-92256000D02*
X156706000Y-87635364D01*
X159706000Y-93244000D02*
X159700000Y-93250000D01*
X148962000Y-81500000D02*
X146666176Y-81500000D01*
D74*
%TO.N,LOGIC_INP14*%
X138328500Y-114602000D02*
X158308000Y-114602000D01*
X137595500Y-113869000D02*
X138328500Y-114602000D01*
X158308000Y-114602000D02*
X162126000Y-110784000D01*
X135681000Y-113869000D02*
X137595500Y-113869000D01*
%TO.N,LOGIC_INP10*%
X149752000Y-112998000D02*
X151966000Y-110784000D01*
X135681000Y-111869000D02*
X137863900Y-111869000D01*
X138992900Y-112998000D02*
X149752000Y-112998000D01*
X137863900Y-111869000D02*
X138992900Y-112998000D01*
%TO.N,LOGIC_INP9*%
X135681000Y-111369000D02*
X135755000Y-111443000D01*
X138030000Y-111468000D02*
X139159000Y-112597000D01*
X136208298Y-111468000D02*
X138030000Y-111468000D01*
X135755000Y-111443000D02*
X136183298Y-111443000D01*
X139159000Y-112597000D02*
X147613000Y-112597000D01*
X136183298Y-111443000D02*
X136208298Y-111468000D01*
X147613000Y-112597000D02*
X149426000Y-110784000D01*
%TO.N,LOGIC_INP15*%
X136315000Y-115003000D02*
X160447000Y-115003000D01*
X135681000Y-114369000D02*
X136315000Y-115003000D01*
X160447000Y-115003000D02*
X164666000Y-110784000D01*
%TO.N,LOGIC_INP12*%
X154030000Y-113800000D02*
X157046000Y-110784000D01*
X138660700Y-113800000D02*
X154030000Y-113800000D01*
X135681000Y-112869000D02*
X137729700Y-112869000D01*
X137729700Y-112869000D02*
X138660700Y-113800000D01*
%TO.N,LOGIC_INP13*%
X151091000Y-114201000D02*
X156169000Y-114201000D01*
X135681000Y-113369000D02*
X137662600Y-113369000D01*
X138493600Y-114200000D02*
X151090000Y-114200000D01*
X156169000Y-114201000D02*
X159586000Y-110784000D01*
X151090000Y-114200000D02*
X151091000Y-114201000D01*
X137662600Y-113369000D02*
X138493600Y-114200000D01*
D73*
%TO.N,Net-(JP1-B)*%
X116406000Y-111754000D02*
X116481000Y-111829000D01*
X117681000Y-109919000D02*
X118275000Y-109325000D01*
X129306000Y-111569000D02*
X128631000Y-112244000D01*
X119275000Y-109325000D02*
X119275000Y-110595000D01*
X114481000Y-111829000D02*
X114556000Y-111754000D01*
X116481000Y-111829000D02*
X117041000Y-111829000D01*
X118736000Y-112244000D02*
X117681000Y-111189000D01*
X117681000Y-109919000D02*
X117681000Y-111189000D01*
X117041000Y-111829000D02*
X117681000Y-111189000D01*
X118275000Y-109325000D02*
X119275000Y-109325000D01*
X114556000Y-111754000D02*
X116406000Y-111754000D01*
X128631000Y-112244000D02*
X118736000Y-112244000D01*
%TO.N,C0_IN*%
X117500000Y-108150000D02*
X119180000Y-108150000D01*
X116966000Y-108634000D02*
X117450000Y-108150000D01*
D74*
X147381000Y-86194000D02*
X147050000Y-86525000D01*
D73*
X114481000Y-110454000D02*
X114556000Y-110379000D01*
D74*
X147381000Y-83619000D02*
X147381000Y-86194000D01*
D73*
X117450000Y-108150000D02*
X117500000Y-108150000D01*
X119180000Y-108150000D02*
X119275000Y-108055000D01*
X115236000Y-110379000D02*
X116966000Y-108649000D01*
X114556000Y-110379000D02*
X115236000Y-110379000D01*
X116966000Y-108649000D02*
X116966000Y-108634000D01*
%TO.N,C1_IN*%
X121150000Y-82164000D02*
X123181000Y-82164000D01*
D74*
X146875000Y-83625000D02*
X146881000Y-83619000D01*
D73*
X118926000Y-82164000D02*
X121150000Y-82164000D01*
X121150000Y-82164000D02*
X121150000Y-81525000D01*
D74*
X146881000Y-83619000D02*
X146881000Y-85194000D01*
X146881000Y-85194000D02*
X146700000Y-85375000D01*
X146700000Y-85375000D02*
X146700000Y-85700000D01*
X146700000Y-85700000D02*
X146687500Y-85712500D01*
D73*
X118006000Y-81244000D02*
X118926000Y-82164000D01*
X118006000Y-81169000D02*
X118006000Y-81244000D01*
X121150000Y-81525000D02*
X121375000Y-81300000D01*
%TO.N,Net-(JP2-B)*%
X120836000Y-79794000D02*
X121506000Y-79124000D01*
X118006000Y-79869000D02*
X118081000Y-79794000D01*
X118081000Y-79794000D02*
X120836000Y-79794000D01*
X123181000Y-79624000D02*
X123181000Y-80894000D01*
X121506000Y-77609000D02*
X121506000Y-79124000D01*
X121506000Y-79124000D02*
X122681000Y-79124000D01*
X122681000Y-79124000D02*
X123181000Y-79624000D01*
%TO.N,Net-(L1-Pad1)*%
X162593500Y-86244000D02*
X161093500Y-84744000D01*
X161093500Y-84744000D02*
X160718500Y-84744000D01*
%TO.N,Net-(L2-Pad1)*%
X154156000Y-80444000D02*
X152818500Y-80444000D01*
X152818500Y-80444000D02*
X152618500Y-80644000D01*
%TO.N,Net-(R10-Pad1)*%
X168213500Y-68931500D02*
X166376000Y-67094000D01*
X168306000Y-68931500D02*
X168213500Y-68931500D01*
D74*
%TO.N,Net-(U3-1Y)*%
X169731000Y-92269000D02*
X168831000Y-92269000D01*
X170143500Y-92681500D02*
X169731000Y-92269000D01*
X170143500Y-92849939D02*
X170143500Y-92681500D01*
D73*
%TO.N,Net-(U5-1Y)*%
X149351000Y-76061500D02*
X147123500Y-76061500D01*
X147106000Y-76294000D02*
X147106000Y-76044000D01*
X141381000Y-74344000D02*
X139481000Y-74344000D01*
X139481000Y-74344000D02*
X139325000Y-74500000D01*
X147123500Y-76061500D02*
X147106000Y-76044000D01*
X141381000Y-73694000D02*
X141381000Y-74344000D01*
X144779792Y-75644000D02*
X143479792Y-74344000D01*
X147106000Y-76044000D02*
X147106000Y-75644000D01*
X147106000Y-75644000D02*
X144779792Y-75644000D01*
X143479792Y-74344000D02*
X141381000Y-74344000D01*
%TO.N,Net-(U5-1Z)*%
X142700000Y-73044000D02*
X141381000Y-73044000D01*
X143500000Y-72244000D02*
X142700000Y-73044000D01*
%TO.N,Net-(U5-2Z)*%
X142906000Y-75044000D02*
X141431000Y-75044000D01*
X141431000Y-75044000D02*
X141381000Y-74994000D01*
%TO.N,Net-(U5-3Z)*%
X145706000Y-77044000D02*
X145806000Y-76944000D01*
X145806000Y-76944000D02*
X147106000Y-76944000D01*
%TO.N,Net-(U5-4Z)*%
X145906000Y-74944000D02*
X147056000Y-74944000D01*
X147056000Y-74944000D02*
X147106000Y-74994000D01*
%TO.N,Net-(U4-+IN_B)*%
X161706000Y-90044000D02*
X163681000Y-90044000D01*
X161131000Y-87744000D02*
X161131000Y-89469000D01*
X166106000Y-91244000D02*
X166106000Y-93244000D01*
X164606000Y-90969000D02*
X165831000Y-90969000D01*
X165831000Y-90969000D02*
X166106000Y-91244000D01*
X163681000Y-90044000D02*
X164606000Y-90969000D01*
X166106000Y-93244000D02*
X167306000Y-94444000D01*
X161131000Y-89469000D02*
X161706000Y-90044000D01*
%TO.N,TIM2_CH3*%
X156319614Y-83750000D02*
X156638115Y-84068501D01*
X156638115Y-84068501D02*
X158218001Y-84068501D01*
X150607000Y-85243000D02*
X150556000Y-85243000D01*
X158218001Y-84068501D02*
X158893500Y-84744000D01*
X150706000Y-85144000D02*
X150607000Y-85243000D01*
X150706000Y-84644000D02*
X150706000Y-85144000D01*
%TO.N,Net-(U6-+IN_B)*%
X153212500Y-78001000D02*
X153463500Y-77750000D01*
X153463500Y-77750000D02*
X153463500Y-77474000D01*
X153478000Y-78001000D02*
X154263500Y-78786500D01*
X152806000Y-78001000D02*
X153212500Y-78001000D01*
X153463500Y-77474000D02*
X153576000Y-77361500D01*
X152806000Y-78001000D02*
X153478000Y-78001000D01*
X154263500Y-78786500D02*
X155613500Y-78786500D01*
D74*
%TO.N,TIM2_CH2*%
X149722176Y-85794000D02*
X149455000Y-85526824D01*
X149455000Y-84695000D02*
X149506000Y-84644000D01*
D73*
X150031000Y-80919000D02*
X150306000Y-80644000D01*
X149505000Y-80919000D02*
X150031000Y-80919000D01*
X150306000Y-80644000D02*
X150793500Y-80644000D01*
D74*
X149455000Y-85526824D02*
X149455000Y-84695000D01*
X150556000Y-85794000D02*
X149722176Y-85794000D01*
D73*
%TO.N,Net-(U4--IN_B)*%
X163281000Y-91619000D02*
X162706000Y-91044000D01*
X164606000Y-91619000D02*
X163281000Y-91619000D01*
X161106000Y-91044000D02*
X162706000Y-91044000D01*
%TO.N,Net-(U6--IN_B)*%
X155261000Y-76711500D02*
X155593500Y-77044000D01*
X157251000Y-75386500D02*
X155593500Y-77044000D01*
X157418500Y-75386500D02*
X157251000Y-75386500D01*
X153576000Y-76711500D02*
X155261000Y-76711500D01*
%TO.N,Net-(U4-OUT_B)*%
X164606000Y-92269000D02*
X163306000Y-92269000D01*
X162000000Y-92000000D02*
X162000000Y-92163000D01*
X163306000Y-92269000D02*
X162706000Y-92869000D01*
X166126001Y-89144000D02*
X163095950Y-89144000D01*
X162000000Y-92163000D02*
X162706000Y-92869000D01*
X163095950Y-89144000D02*
X162895949Y-89344001D01*
%TO.N,Net-(U6-OUT_B)*%
X156400000Y-83025000D02*
X156950000Y-82475000D01*
X158750000Y-74500000D02*
X156480000Y-74500000D01*
X156950000Y-80800000D02*
X159250000Y-78500000D01*
X156480000Y-74500000D02*
X155593500Y-75386500D01*
X154918500Y-76061500D02*
X155593500Y-75386500D01*
X156950000Y-82475000D02*
X156950000Y-80800000D01*
X153576000Y-76061500D02*
X154918500Y-76061500D01*
X155875000Y-83025000D02*
X156400000Y-83025000D01*
X159250000Y-78500000D02*
X159250000Y-78000000D01*
D74*
%TO.N,TIM1_CH1*%
X137651470Y-93000000D02*
X136550000Y-93000000D01*
X136550000Y-93000000D02*
X136256000Y-93294000D01*
X136256000Y-93294000D02*
X135206000Y-93294000D01*
D73*
X113490000Y-106069000D02*
X113656000Y-106069000D01*
X112705475Y-105284475D02*
X113490000Y-106069000D01*
%TO.N,TIM1_CH2*%
X126457500Y-91895500D02*
X125306000Y-90744000D01*
D74*
X135242420Y-94330420D02*
X135206000Y-94294000D01*
X137619580Y-94330420D02*
X135242420Y-94330420D01*
X138039160Y-94750000D02*
X137619580Y-94330420D01*
D73*
X129906000Y-94219000D02*
X129806000Y-94119000D01*
X117181000Y-83934000D02*
X116316000Y-83934000D01*
D74*
X138500000Y-94750000D02*
X138039160Y-94750000D01*
D73*
X129806000Y-94119000D02*
X129806000Y-93744000D01*
X129806000Y-93744000D02*
X127957500Y-91895500D01*
X116316000Y-83934000D02*
X116006000Y-84244000D01*
X125306000Y-90744000D02*
X124306000Y-90744000D01*
X127957500Y-91895500D02*
X126457500Y-91895500D01*
%TO.N,/AWG_FrontEnd/C0_FB*%
X125425000Y-109325000D02*
X124225000Y-109325000D01*
X124478500Y-97071500D02*
X125846000Y-97071500D01*
X123781000Y-96719000D02*
X124126000Y-96719000D01*
X126050000Y-109919000D02*
X126019000Y-109919000D01*
X124126000Y-96719000D02*
X124478500Y-97071500D01*
X126050000Y-109919000D02*
X129306000Y-109919000D01*
X123781000Y-96719000D02*
X122183500Y-95121500D01*
X122183500Y-95121500D02*
X120208500Y-95121500D01*
X126019000Y-109919000D02*
X125425000Y-109325000D01*
%TO.N,/AWG_FrontEnd/C1_FB*%
X130255000Y-80945000D02*
X130204000Y-80894000D01*
X130925000Y-80400000D02*
X130431000Y-80894000D01*
X130204000Y-80894000D02*
X128131000Y-80894000D01*
X125933500Y-92521500D02*
X124583500Y-92521500D01*
X123156000Y-77609000D02*
X126492000Y-80945000D01*
X122078500Y-94471500D02*
X120208500Y-94471500D01*
X128080000Y-80945000D02*
X128131000Y-80894000D01*
X126492000Y-80945000D02*
X128080000Y-80945000D01*
X124306000Y-92244000D02*
X122078500Y-94471500D01*
X124583500Y-92521500D02*
X124306000Y-92244000D01*
X130431000Y-80894000D02*
X130306000Y-80894000D01*
X130306000Y-80894000D02*
X130255000Y-80945000D01*
%TO.N,Net-(U11B-D2)*%
X120208500Y-97071500D02*
X119207500Y-97071500D01*
X119207500Y-97071500D02*
X118325000Y-97954000D01*
%TO.N,/AWG_FrontEnd/C0_OUT_G*%
X117000000Y-101500000D02*
X117260000Y-101500000D01*
X120481000Y-99954000D02*
X118806000Y-99954000D01*
X124874000Y-111244000D02*
X124225000Y-110595000D01*
X117260000Y-101500000D02*
X118306000Y-100454000D01*
X118306000Y-100454000D02*
X118306000Y-100306000D01*
X118306000Y-100306000D02*
X116750000Y-98750000D01*
X116750000Y-98750000D02*
X116750000Y-96425000D01*
X125306000Y-111244000D02*
X124874000Y-111244000D01*
X116750000Y-96425000D02*
X116925000Y-96250000D01*
X118806000Y-99954000D02*
X118306000Y-100454000D01*
X120481000Y-99954000D02*
X120481000Y-98454000D01*
%TO.N,Net-(U11B-D4)*%
X119053500Y-95771500D02*
X118575000Y-96250000D01*
X120208500Y-95771500D02*
X119053500Y-95771500D01*
%TO.N,Net-(U11A-D1)*%
X118548500Y-92521500D02*
X120296000Y-92521500D01*
X118306000Y-92764000D02*
X118548500Y-92521500D01*
%TO.N,/AWG_FrontEnd/C1_OUT_G*%
X127126000Y-79624000D02*
X126750000Y-80000000D01*
X120506000Y-88244000D02*
X120506000Y-89109000D01*
X116600000Y-94244000D02*
X116600000Y-92800000D01*
X128282000Y-79775000D02*
X128131000Y-79624000D01*
X118466000Y-90934000D02*
X120181000Y-90934000D01*
X120181000Y-89434000D02*
X120181000Y-90934000D01*
X132795000Y-79775000D02*
X128282000Y-79775000D01*
X116600000Y-92800000D02*
X116656000Y-92744000D01*
X128131000Y-79624000D02*
X127126000Y-79624000D01*
X133250000Y-79320000D02*
X132795000Y-79775000D01*
X116656000Y-92744000D02*
X118466000Y-90934000D01*
X120506000Y-89109000D02*
X120181000Y-89434000D01*
%TO.N,Net-(U11A-D3)*%
X118672500Y-93821500D02*
X120208500Y-93821500D01*
X118250000Y-94244000D02*
X118672500Y-93821500D01*
%TO.N,Net-(U9D--)*%
X122131000Y-99954000D02*
X122131000Y-98454000D01*
X125631000Y-101454000D02*
X126891000Y-101454000D01*
X127081000Y-101919000D02*
X126500000Y-102500000D01*
X125631000Y-101454000D02*
X124131000Y-99954000D01*
X124131000Y-99954000D02*
X122131000Y-99954000D01*
X126891000Y-101454000D02*
X127081000Y-101644000D01*
X125825000Y-103950000D02*
X124520000Y-103950000D01*
X124520000Y-103950000D02*
X124225000Y-104245000D01*
X129306000Y-104894000D02*
X128979612Y-104567612D01*
X128979612Y-104567612D02*
X126442612Y-104567612D01*
X126442612Y-104567612D02*
X126437500Y-104562500D01*
X126437500Y-104562500D02*
X125825000Y-103950000D01*
X127081000Y-101644000D02*
X127081000Y-101919000D01*
%TO.N,Net-(U10C--)*%
X123156000Y-88109000D02*
X121831000Y-89434000D01*
X126506000Y-88784000D02*
X125831000Y-88109000D01*
X126981000Y-89584000D02*
X126506000Y-89109000D01*
X126506000Y-89109000D02*
X126506000Y-88784000D01*
X132126000Y-85974000D02*
X128131000Y-85974000D01*
X121831000Y-90934000D02*
X121831000Y-89434000D01*
X126275000Y-86325000D02*
X127780000Y-86325000D01*
X132506000Y-85594000D02*
X132126000Y-85974000D01*
X127780000Y-86325000D02*
X128131000Y-85974000D01*
X125831000Y-88109000D02*
X123156000Y-88109000D01*
X126981000Y-90744000D02*
X126981000Y-89584000D01*
%TO.N,/AWG_FrontEnd/C0_V_OFF*%
X120025000Y-101900000D02*
X120425000Y-101500000D01*
X119275000Y-102975000D02*
X119275000Y-104245000D01*
X120425000Y-101500000D02*
X123935000Y-101500000D01*
X114981000Y-103379000D02*
X117021000Y-103379000D01*
X117021000Y-103379000D02*
X118350000Y-102050000D01*
X123935000Y-101500000D02*
X123981000Y-101454000D01*
X118350000Y-102050000D02*
X118500000Y-101900000D01*
X118500000Y-101900000D02*
X120025000Y-101900000D01*
X118350000Y-102050000D02*
X119275000Y-102975000D01*
%TO.N,/AWG_FrontEnd/C1_V_OFF*%
X128156000Y-89109000D02*
X126291000Y-87244000D01*
X123181000Y-87244000D02*
X126291000Y-87244000D01*
X119696000Y-87244000D02*
X123181000Y-87244000D01*
X117831000Y-89109000D02*
X119696000Y-87244000D01*
X123181000Y-87244000D02*
X123181000Y-85974000D01*
D74*
%TO.N,Net-(U12-BOOT0)*%
X145881000Y-98969000D02*
X145881000Y-100844000D01*
X145881000Y-100844000D02*
X145856000Y-100869000D01*
D73*
%TO.N,Net-(U12-VDDA)*%
X152606000Y-84544000D02*
X154306000Y-86244000D01*
D74*
X151389824Y-86794000D02*
X150556000Y-86794000D01*
X151806000Y-85219000D02*
X151806000Y-86377824D01*
X151806000Y-86377824D02*
X151389824Y-86794000D01*
X152606000Y-84419000D02*
X152606000Y-84544000D01*
X152606000Y-84419000D02*
X151806000Y-85219000D01*
%TO.N,VREFP*%
X151556000Y-87294000D02*
X150556000Y-87294000D01*
X152606000Y-86244000D02*
X151556000Y-87294000D01*
%TO.N,UCPD_FLT*%
X135206000Y-92794000D02*
X136188900Y-92794000D01*
X136188900Y-92794000D02*
X136683635Y-92299265D01*
X136683635Y-92299265D02*
X136950735Y-92299265D01*
%TO.N,Net-(U17-VBUS_CTRL)*%
X126250000Y-72000000D02*
X126087004Y-72000000D01*
X126087004Y-72000000D02*
X125406000Y-71318996D01*
X125481000Y-73244000D02*
X125481000Y-71393996D01*
X125481000Y-71393996D02*
X125406000Y-71318996D01*
%TO.N,CH1_amp_10*%
X138381000Y-82571000D02*
X138381000Y-83619000D01*
X138707000Y-82245000D02*
X138381000Y-82571000D01*
%TO.N,CH1_amp_5*%
X143551190Y-85703747D02*
X143551190Y-85148810D01*
X143551190Y-85148810D02*
X143881000Y-84819000D01*
X143881000Y-84819000D02*
X143881000Y-83619000D01*
%TO.N,CH1_amp_1*%
X144381000Y-83619000D02*
X144381000Y-85167530D01*
X144381000Y-85167530D02*
X144274860Y-85273670D01*
%TO.N,CH1_amp_2.5*%
X141049265Y-85200735D02*
X142799265Y-85200735D01*
X142799265Y-85200735D02*
X143381000Y-84619000D01*
X143381000Y-84619000D02*
X143381000Y-83619000D01*
%TO.N,CH0_amp_1*%
X133625000Y-84375000D02*
X133919735Y-84669735D01*
X134581735Y-84669735D02*
X135206000Y-85294000D01*
X133919735Y-84669735D02*
X134581735Y-84669735D01*
X145556000Y-73694000D02*
X145506000Y-73744000D01*
X147106000Y-73694000D02*
X145556000Y-73694000D01*
D73*
%TO.N,CH0_amp_5*%
X141381000Y-76294000D02*
X139856000Y-76294000D01*
X139856000Y-76294000D02*
X139506000Y-76644000D01*
D74*
X137506000Y-90827824D02*
X137506000Y-90244000D01*
X135206000Y-92294000D02*
X136039824Y-92294000D01*
X136039824Y-92294000D02*
X137506000Y-90827824D01*
%TO.N,CH0_amp_2.5*%
X135206000Y-91294000D02*
X136039824Y-91294000D01*
X136039824Y-91294000D02*
X136706000Y-90627824D01*
D73*
X141381000Y-75644000D02*
X139506000Y-75644000D01*
D74*
X136706000Y-90627824D02*
X136706000Y-89644000D01*
%TO.N,CH0_amp_10*%
X145406000Y-74344000D02*
X144937871Y-74812129D01*
X134372176Y-86794000D02*
X135206000Y-86794000D01*
X147106000Y-74344000D02*
X145406000Y-74344000D01*
X133706000Y-86127824D02*
X134372176Y-86794000D01*
X133706000Y-86044000D02*
X133706000Y-86127824D01*
D73*
%TO.N,GAIN_C1*%
X127306000Y-93244000D02*
X127233500Y-93171500D01*
D74*
X145500000Y-85100000D02*
X145706000Y-84894000D01*
X145881000Y-84594244D02*
X145881000Y-83619000D01*
X145706000Y-84894000D02*
X145706000Y-84769244D01*
D73*
X127233500Y-93171500D02*
X125846000Y-93171500D01*
D74*
X145706000Y-84769244D02*
X145881000Y-84594244D01*
D73*
%TO.N,GAIN_C0*%
X145756000Y-88744000D02*
X142806000Y-88744000D01*
X148881000Y-85044000D02*
X148106000Y-85819000D01*
X148106000Y-86894000D02*
X146250000Y-88750000D01*
X126728500Y-96421500D02*
X125846000Y-96421500D01*
X148106000Y-85819000D02*
X148106000Y-86894000D01*
X126751000Y-96444000D02*
X126728500Y-96421500D01*
X146250000Y-88750000D02*
X145762000Y-88750000D01*
X128106000Y-96444000D02*
X126751000Y-96444000D01*
X145762000Y-88750000D02*
X145756000Y-88744000D01*
D74*
X148881000Y-85044000D02*
X148881000Y-83619000D01*
%TO.N,LOGIC_IN6*%
X142381000Y-100744000D02*
X142381000Y-98969000D01*
%TO.N,LOGIC_IN15*%
X133806000Y-87294000D02*
X135206000Y-87294000D01*
X130531000Y-90569000D02*
X133806000Y-87294000D01*
X133306000Y-113869000D02*
X132550684Y-113869000D01*
X130531000Y-111849316D02*
X130531000Y-90569000D01*
X132550684Y-113869000D02*
X130531000Y-111849316D01*
%TO.N,LOGIC_IN8*%
X133331000Y-109919000D02*
X133331000Y-91836590D01*
X133843500Y-110431500D02*
X133331000Y-109919000D01*
X134373590Y-90794000D02*
X135206000Y-90794000D01*
X134243500Y-110431500D02*
X133843500Y-110431500D01*
X133331000Y-91836590D02*
X134373590Y-90794000D01*
%TO.N,LOGIC_IN11*%
X134106000Y-89294000D02*
X135206000Y-89294000D01*
X133306000Y-111869000D02*
X132813428Y-111869000D01*
X132813428Y-111869000D02*
X132131000Y-111186572D01*
X132131000Y-91269000D02*
X134106000Y-89294000D01*
X132131000Y-111186572D02*
X132131000Y-91269000D01*
%TO.N,LOGIC_IN4*%
X141381000Y-100744000D02*
X141381000Y-98969000D01*
%TO.N,LOGIC_IN7*%
X142881000Y-101619000D02*
X142881000Y-98969000D01*
X142818500Y-101681500D02*
X142881000Y-101619000D01*
%TO.N,LOGIC_IN1*%
X139881000Y-100744000D02*
X139881000Y-98969000D01*
%TO.N,LOGIC_IN0*%
X139381000Y-100744000D02*
X139381000Y-98969000D01*
%TO.N,LOGIC_IN9*%
X132931000Y-110494000D02*
X132931000Y-91670904D01*
X132931000Y-91670904D02*
X134307904Y-90294000D01*
X133306000Y-110869000D02*
X132931000Y-110494000D01*
X134307904Y-90294000D02*
X135206000Y-90294000D01*
%TO.N,LOGIC_IN13*%
X131331000Y-111517944D02*
X131331000Y-90937628D01*
X132682056Y-112869000D02*
X131331000Y-111517944D01*
X131331000Y-90937628D02*
X133974628Y-88294000D01*
X133974628Y-88294000D02*
X135206000Y-88294000D01*
X133306000Y-112869000D02*
X132682056Y-112869000D01*
%TO.N,USCPD_DBn*%
X138250000Y-91750000D02*
X138806000Y-92306000D01*
X138020580Y-93729420D02*
X136107754Y-93729420D01*
X138806000Y-92944000D02*
X138020580Y-93729420D01*
X138806000Y-92306000D02*
X138806000Y-92944000D01*
X136107754Y-93729420D02*
X136043174Y-93794000D01*
X136043174Y-93794000D02*
X135206000Y-93794000D01*
%TO.N,LOGIC_IN12*%
X131731000Y-91103314D02*
X134040314Y-88794000D01*
X134040314Y-88794000D02*
X135206000Y-88794000D01*
X132747742Y-112369000D02*
X131731000Y-111352258D01*
X133306000Y-112369000D02*
X132747742Y-112369000D01*
X131731000Y-111352258D02*
X131731000Y-91103314D01*
%TO.N,LOGIC_IN2*%
X140381000Y-100744000D02*
X140381000Y-98969000D01*
%TO.N,LOGIC_IN14*%
X130931000Y-111683630D02*
X130931000Y-90771942D01*
X133908942Y-87794000D02*
X135206000Y-87794000D01*
X133306000Y-113369000D02*
X132616370Y-113369000D01*
X130931000Y-90771942D02*
X133908942Y-87794000D01*
X132616370Y-113369000D02*
X130931000Y-111683630D01*
%TO.N,LOGIC_IN5*%
X141881000Y-100744000D02*
X141881000Y-98969000D01*
%TO.N,LOGIC_IN3*%
X140881000Y-100744000D02*
X140881000Y-98969000D01*
%TO.N,LOGIC_IN10*%
X134242218Y-89794000D02*
X135206000Y-89794000D01*
X133306000Y-111369000D02*
X132879114Y-111369000D01*
X132879114Y-111369000D02*
X132531000Y-111020886D01*
X132531000Y-91505218D02*
X134242218Y-89794000D01*
X132531000Y-111020886D02*
X132531000Y-91505218D01*
%TO.N,Net-(C31-Pad2)*%
X138500000Y-85250000D02*
X137881000Y-84631000D01*
X137881000Y-84631000D02*
X137881000Y-83619000D01*
%TO.N,Net-(Q1-G)*%
X126556000Y-75744000D02*
X125668500Y-75744000D01*
X129325000Y-73025000D02*
X129275000Y-73025000D01*
X129275000Y-73025000D02*
X126556000Y-75744000D01*
X129215000Y-70790000D02*
X129215000Y-72735000D01*
D73*
%TO.N,+5VCLEAN*%
X174800000Y-108300000D02*
X176000000Y-109500000D01*
X153788500Y-75199000D02*
X153576000Y-75411500D01*
X153631736Y-73786500D02*
X152620236Y-72775000D01*
X149529761Y-73044000D02*
X149784714Y-72789047D01*
X147106000Y-73044000D02*
X149529761Y-73044000D01*
X170843500Y-86844000D02*
X170750000Y-86750500D01*
X169226001Y-86844000D02*
X168826001Y-87244000D01*
X174800000Y-98525000D02*
X174800000Y-108300000D01*
X169500000Y-96000000D02*
X172275000Y-96000000D01*
X170750000Y-86750500D02*
X170750000Y-86000000D01*
X153788500Y-73786500D02*
X153788500Y-75199000D01*
X169250000Y-96000000D02*
X168500000Y-96750000D01*
X165644000Y-94644000D02*
X167000000Y-96000000D01*
X164606000Y-92919000D02*
X164606000Y-94606500D01*
X170843500Y-86844000D02*
X169226001Y-86844000D01*
X169500000Y-96000000D02*
X169250000Y-96000000D01*
X164568500Y-94644000D02*
X165644000Y-94644000D01*
X168826001Y-88194000D02*
X168826001Y-87244000D01*
X164606000Y-94606500D02*
X164568500Y-94644000D01*
X147387500Y-71500000D02*
X147387500Y-72762500D01*
X147387500Y-72762500D02*
X147106000Y-73044000D01*
X172275000Y-96000000D02*
X174800000Y-98525000D01*
X153788500Y-73786500D02*
X153631736Y-73786500D01*
X167000000Y-96000000D02*
X169500000Y-96000000D01*
%TO.N,Net-(U4-+IN_A)*%
X171250000Y-92750000D02*
X170119000Y-91619000D01*
X170119000Y-91619000D02*
X168831000Y-91619000D01*
X174500000Y-92750000D02*
X171250000Y-92750000D01*
%TO.N,Net-(C10-Pad1)*%
X166376000Y-72594000D02*
X168032000Y-74250000D01*
X168032000Y-74250000D02*
X174500000Y-74250000D01*
%TO.N,Net-(U6-+IN_A)*%
X163836000Y-72594000D02*
X161086000Y-69844000D01*
X150438500Y-76711500D02*
X149351000Y-76711500D01*
X152506000Y-69844000D02*
X150906000Y-71444000D01*
X161000000Y-68500000D02*
X161000000Y-68844000D01*
X150906000Y-71444000D02*
X150906000Y-76244000D01*
X158306000Y-69844000D02*
X152506000Y-69844000D01*
X160000000Y-69844000D02*
X158306000Y-69844000D01*
X161000000Y-68844000D02*
X160000000Y-69844000D01*
X150906000Y-76244000D02*
X150438500Y-76711500D01*
X161086000Y-69844000D02*
X160000000Y-69844000D01*
%TO.N,Net-(U15-VO)*%
X131994500Y-74870000D02*
X134259580Y-74870000D01*
X134259580Y-74870000D02*
X135906000Y-76516420D01*
X131968500Y-74844000D02*
X131994500Y-74870000D01*
X135906000Y-78411250D02*
X136144750Y-78650000D01*
X135906000Y-78044000D02*
X135906000Y-78411250D01*
X135906000Y-76516420D02*
X135906000Y-78044000D01*
D74*
%TO.N,USB_D+*%
X121385000Y-70690000D02*
X120760000Y-70690000D01*
X119610000Y-70940000D02*
X119860000Y-70690000D01*
X123800000Y-69200000D02*
X123100000Y-69200000D01*
X135206000Y-95294000D02*
X136805943Y-95294000D01*
X136805943Y-95294000D02*
X137760318Y-96248375D01*
X124750000Y-70150000D02*
X123800000Y-69200000D01*
X137760318Y-96248375D02*
X137900325Y-96248375D01*
X119060000Y-70940000D02*
X119610000Y-70940000D01*
X122375000Y-69925000D02*
X122150000Y-69925000D01*
X122150000Y-69925000D02*
X121385000Y-70690000D01*
X124750000Y-70500000D02*
X124750000Y-70150000D01*
X123100000Y-69200000D02*
X122375000Y-69925000D01*
X123425762Y-73763762D02*
X122706000Y-73044000D01*
X119860000Y-70690000D02*
X120760000Y-70690000D01*
X124500000Y-73763762D02*
X123425762Y-73763762D01*
%TO.N,USB_D-*%
X121090000Y-71190000D02*
X120760000Y-71190000D01*
X117060000Y-70440000D02*
X119060000Y-70440000D01*
X121950000Y-72050000D02*
X121090000Y-71190000D01*
X121500000Y-75000000D02*
X121500000Y-73080002D01*
X137256000Y-94794000D02*
X137906000Y-95444000D01*
X135206000Y-94794000D02*
X137256000Y-94794000D01*
X121500000Y-73080002D02*
X121950000Y-72630002D01*
X121950000Y-72630002D02*
X121950000Y-72050000D01*
X117050000Y-70450000D02*
X117060000Y-70440000D01*
X116450000Y-70450000D02*
X117050000Y-70450000D01*
D73*
%TO.N,Net-(U8--)*%
X155995227Y-73954773D02*
X157306000Y-72644000D01*
X155995227Y-73995028D02*
X155995227Y-73954773D01*
%TO.N,Net-(C20-Pad1)*%
X157438500Y-78786500D02*
X157438500Y-78911500D01*
X155906000Y-80444000D02*
X155906000Y-82031500D01*
X159181000Y-77044000D02*
X157438500Y-78786500D01*
X164500000Y-75850000D02*
X163306000Y-77044000D01*
X163306000Y-77044000D02*
X159181000Y-77044000D01*
X164500000Y-75750000D02*
X164500000Y-75850000D01*
X155906000Y-82031500D02*
X155893500Y-82044000D01*
X157438500Y-78911500D02*
X155906000Y-80444000D01*
%TO.N,Net-(U7--)*%
X165706000Y-85851501D02*
X165706000Y-86823999D01*
X175906000Y-86244000D02*
X173006000Y-89144000D01*
X165706000Y-86823999D02*
X166126001Y-87244000D01*
D74*
X167500000Y-88307989D02*
X168336011Y-89144000D01*
X166929995Y-87244000D02*
X167500000Y-87814005D01*
X168336011Y-89144000D02*
X168826001Y-89144000D01*
X167500000Y-87814005D02*
X167500000Y-88307989D01*
D73*
X173006000Y-89144000D02*
X168826001Y-89144000D01*
D74*
X166126001Y-87244000D02*
X166929995Y-87244000D01*
D73*
X165963501Y-85594000D02*
X165706000Y-85851501D01*
%TO.N,Net-(C19-Pad1)*%
X160843500Y-86244000D02*
X159906000Y-86244000D01*
X161000000Y-73138000D02*
X160906000Y-73044000D01*
X161000000Y-75000000D02*
X161000000Y-73138000D01*
X159343500Y-87744000D02*
X160843500Y-86244000D01*
X162033349Y-87249293D02*
X161028056Y-86244000D01*
X159306000Y-87744000D02*
X159343500Y-87744000D01*
X161028056Y-86244000D02*
X160843500Y-86244000D01*
X159906000Y-86244000D02*
X159081000Y-86244000D01*
X162290657Y-87249293D02*
X162033349Y-87249293D01*
%TO.N,Net-(U6-OUT_A)*%
X154250000Y-71250000D02*
X154500000Y-71500000D01*
X149876000Y-74586500D02*
X149493750Y-74968750D01*
X149493750Y-75268750D02*
X149351000Y-75411500D01*
X149493750Y-74968750D02*
X149493750Y-75268750D01*
X152500000Y-71250000D02*
X154250000Y-71250000D01*
%TO.N,Net-(U4-OUT_A)*%
X173500000Y-85238000D02*
X172306000Y-84044000D01*
X167106000Y-91444000D02*
X167230265Y-91319735D01*
X168831000Y-92919000D02*
X168831000Y-94144000D01*
X167106000Y-92444000D02*
X167106000Y-91444000D01*
X173500000Y-85500000D02*
X173500000Y-85238000D01*
X168831000Y-94144000D02*
X169131000Y-94444000D01*
X167581000Y-92919000D02*
X167106000Y-92444000D01*
X168831000Y-92919000D02*
X167581000Y-92919000D01*
D74*
%TO.N,Net-(D10-A)*%
X121500000Y-69500000D02*
X121310000Y-69690000D01*
X127131000Y-73244000D02*
X127131000Y-74366452D01*
X116850000Y-73100000D02*
X118010000Y-71940000D01*
X121310000Y-69690000D02*
X120760000Y-69690000D01*
X119060000Y-69440000D02*
X119610000Y-69440000D01*
D73*
X122500000Y-68500000D02*
X122000000Y-68500000D01*
D74*
X123475000Y-67650000D02*
X123475000Y-67275000D01*
X121500000Y-69000000D02*
X121500000Y-69500000D01*
D73*
X137575000Y-71275000D02*
X137575000Y-70300000D01*
D74*
X129200000Y-67600000D02*
X133350000Y-67600000D01*
X126775000Y-69925000D02*
X126875000Y-69925000D01*
X119610000Y-69440000D02*
X119860000Y-69690000D01*
X119060000Y-71940000D02*
X119610000Y-71940000D01*
X115100000Y-72150000D02*
X116000000Y-73050000D01*
X123943500Y-75744000D02*
X123943500Y-77193500D01*
X118376806Y-69440000D02*
X118115806Y-69179000D01*
X128275000Y-67975000D02*
X128275000Y-68525000D01*
X127075000Y-66775000D02*
X128275000Y-67975000D01*
X125250000Y-66625000D02*
X125400000Y-66775000D01*
X119860000Y-69690000D02*
X120760000Y-69690000D01*
D73*
X137575000Y-70300000D02*
X137025000Y-69750000D01*
D74*
X127525000Y-72850000D02*
X128350000Y-72850000D01*
X116000000Y-73050000D02*
X116000000Y-73100000D01*
X123943500Y-77193500D02*
X124500000Y-77750000D01*
X123475000Y-67275000D02*
X124125000Y-66625000D01*
X128275000Y-68525000D02*
X129200000Y-67600000D01*
X122000000Y-68500000D02*
X121500000Y-69000000D01*
X115100000Y-69850000D02*
X115100000Y-72150000D01*
X119060000Y-69440000D02*
X118376806Y-69440000D01*
X126875000Y-69925000D02*
X128275000Y-68525000D01*
D73*
X122500000Y-68500000D02*
X123350000Y-67650000D01*
D74*
X118010000Y-71940000D02*
X119060000Y-71940000D01*
X124638500Y-75049000D02*
X123943500Y-75744000D01*
X115771000Y-69179000D02*
X115100000Y-69850000D01*
D73*
X123350000Y-67650000D02*
X123475000Y-67650000D01*
D74*
X119860000Y-72190000D02*
X120760000Y-72190000D01*
X119610000Y-71940000D02*
X119860000Y-72190000D01*
X127131000Y-74366452D02*
X126448452Y-75049000D01*
X126448452Y-75049000D02*
X124638500Y-75049000D01*
X125400000Y-66775000D02*
X127075000Y-66775000D01*
X118115806Y-69179000D02*
X115771000Y-69179000D01*
X127131000Y-73244000D02*
X127525000Y-72850000D01*
X124125000Y-66625000D02*
X125250000Y-66625000D01*
X116000000Y-73100000D02*
X116850000Y-73100000D01*
%TO.N,Net-(J20-CC1)*%
X120775000Y-70175000D02*
X121325000Y-70175000D01*
X120760000Y-70190000D02*
X120775000Y-70175000D01*
X121325000Y-70141840D02*
X122075031Y-69391809D01*
X121325000Y-70175000D02*
X121325000Y-70141840D01*
%TO.N,Net-(J20-CC2)*%
X116310000Y-71440000D02*
X116250000Y-71500000D01*
X119060000Y-71440000D02*
X116310000Y-71440000D01*
%TO.N,Net-(U12-PB13)*%
X132750000Y-84750000D02*
X133261943Y-84750000D01*
X132000000Y-83250000D02*
X132000000Y-84000000D01*
X133261943Y-84750000D02*
X134305943Y-85794000D01*
X132000000Y-84000000D02*
X132750000Y-84750000D01*
X131750000Y-83000000D02*
X132000000Y-83250000D01*
X134305943Y-85794000D02*
X135206000Y-85794000D01*
X141637500Y-67325000D02*
X141637500Y-68537500D01*
X131525000Y-83000000D02*
X131750000Y-83000000D01*
X141637500Y-68537500D02*
X141450000Y-68725000D01*
%TO.N,Net-(U12-PB14)*%
X136156000Y-86294000D02*
X136525000Y-85925000D01*
X135206000Y-86294000D02*
X136156000Y-86294000D01*
X136525000Y-85925000D02*
X136525000Y-85150000D01*
X136525000Y-85150000D02*
X135150000Y-83775000D01*
X135150000Y-83775000D02*
X133100000Y-83775000D01*
%TD*%
M02*
