%TF.GenerationSoftware,KiCad,Pcbnew,9.0.0*%
%TF.CreationDate,2025-04-10T22:59:03-04:00*%
%TF.ProjectId,USBLabTool,5553424c-6162-4546-9f6f-6c2e6b696361,2*%
%TF.SameCoordinates,Original*%
%TF.FileFunction,Paste,Bot*%
%TF.FilePolarity,Positive*%
%FSLAX46Y46*%
G04 Gerber Fmt 4.6, Leading zero omitted, Abs format (unit mm)*
G04 Created by KiCad (PCBNEW 9.0.0) date 2025-04-10 22:59:03*
%MOMM*%
%LPD*%
G01*
G04 APERTURE LIST*
G04 Aperture macros list*
%AMRoundRect*
0 Rectangle with rounded corners*
0 $1 Rounding radius*
0 $2 $3 $4 $5 $6 $7 $8 $9 X,Y pos of 4 corners*
0 Add a 4 corners polygon primitive as box body*
4,1,4,$2,$3,$4,$5,$6,$7,$8,$9,$2,$3,0*
0 Add four circle primitives for the rounded corners*
1,1,$1+$1,$2,$3*
1,1,$1+$1,$4,$5*
1,1,$1+$1,$6,$7*
1,1,$1+$1,$8,$9*
0 Add four rect primitives between the rounded corners*
20,1,$1+$1,$2,$3,$4,$5,0*
20,1,$1+$1,$4,$5,$6,$7,0*
20,1,$1+$1,$6,$7,$8,$9,0*
20,1,$1+$1,$8,$9,$2,$3,0*%
G04 Aperture macros list end*
%ADD10C,0.010000*%
%ADD11RoundRect,0.200000X0.275000X-0.200000X0.275000X0.200000X-0.275000X0.200000X-0.275000X-0.200000X0*%
%ADD12RoundRect,0.090000X-0.139000X-0.090000X0.139000X-0.090000X0.139000X0.090000X-0.139000X0.090000X0*%
%ADD13RoundRect,0.237500X0.300000X0.237500X-0.300000X0.237500X-0.300000X-0.237500X0.300000X-0.237500X0*%
%ADD14RoundRect,0.250000X0.250000X-0.250000X0.250000X0.250000X-0.250000X0.250000X-0.250000X-0.250000X0*%
%ADD15RoundRect,0.200000X-0.275000X0.200000X-0.275000X-0.200000X0.275000X-0.200000X0.275000X0.200000X0*%
%ADD16RoundRect,0.090000X-0.090000X0.139000X-0.090000X-0.139000X0.090000X-0.139000X0.090000X0.139000X0*%
%ADD17RoundRect,0.137500X-0.587500X-0.137500X0.587500X-0.137500X0.587500X0.137500X-0.587500X0.137500X0*%
%ADD18RoundRect,0.090000X0.090000X-0.139000X0.090000X0.139000X-0.090000X0.139000X-0.090000X-0.139000X0*%
%ADD19RoundRect,0.237500X0.237500X-0.300000X0.237500X0.300000X-0.237500X0.300000X-0.237500X-0.300000X0*%
%ADD20RoundRect,0.237500X-0.237500X0.300000X-0.237500X-0.300000X0.237500X-0.300000X0.237500X0.300000X0*%
%ADD21RoundRect,0.237500X0.250000X0.237500X-0.250000X0.237500X-0.250000X-0.237500X0.250000X-0.237500X0*%
%ADD22RoundRect,0.237500X-0.300000X-0.237500X0.300000X-0.237500X0.300000X0.237500X-0.300000X0.237500X0*%
%ADD23RoundRect,0.237500X-0.237500X0.250000X-0.237500X-0.250000X0.237500X-0.250000X0.237500X0.250000X0*%
%ADD24RoundRect,0.250000X-0.337500X-0.475000X0.337500X-0.475000X0.337500X0.475000X-0.337500X0.475000X0*%
%ADD25R,0.812800X0.254000*%
%ADD26R,0.254000X0.812800*%
%ADD27R,1.549400X1.549400*%
%ADD28R,0.304800X0.228600*%
%ADD29R,0.812800X0.406400*%
%ADD30R,1.752600X2.489200*%
%ADD31RoundRect,0.237500X0.237500X-0.250000X0.237500X0.250000X-0.237500X0.250000X-0.237500X-0.250000X0*%
%ADD32RoundRect,0.150000X0.150000X0.200000X-0.150000X0.200000X-0.150000X-0.200000X0.150000X-0.200000X0*%
%ADD33RoundRect,0.250000X0.315000X0.780000X-0.315000X0.780000X-0.315000X-0.780000X0.315000X-0.780000X0*%
%ADD34RoundRect,0.062500X0.300000X0.062500X-0.300000X0.062500X-0.300000X-0.062500X0.300000X-0.062500X0*%
%ADD35RoundRect,0.237500X-0.250000X-0.237500X0.250000X-0.237500X0.250000X0.237500X-0.250000X0.237500X0*%
%ADD36RoundRect,0.250000X0.325000X0.450000X-0.325000X0.450000X-0.325000X-0.450000X0.325000X-0.450000X0*%
%ADD37RoundRect,0.250000X-0.250000X0.250000X-0.250000X-0.250000X0.250000X-0.250000X0.250000X0.250000X0*%
%ADD38RoundRect,0.237500X0.237500X-0.287500X0.237500X0.287500X-0.237500X0.287500X-0.237500X-0.287500X0*%
%ADD39RoundRect,0.250000X0.475000X-0.337500X0.475000X0.337500X-0.475000X0.337500X-0.475000X-0.337500X0*%
%ADD40RoundRect,0.150000X-0.587500X-0.150000X0.587500X-0.150000X0.587500X0.150000X-0.587500X0.150000X0*%
%ADD41R,1.750000X1.800000*%
%ADD42R,0.406400X0.812800*%
%ADD43R,2.489200X1.752600*%
%ADD44RoundRect,0.090000X0.139000X0.090000X-0.139000X0.090000X-0.139000X-0.090000X0.139000X-0.090000X0*%
%ADD45RoundRect,0.162500X0.617500X0.162500X-0.617500X0.162500X-0.617500X-0.162500X0.617500X-0.162500X0*%
%ADD46RoundRect,0.200000X0.200000X0.275000X-0.200000X0.275000X-0.200000X-0.275000X0.200000X-0.275000X0*%
%ADD47RoundRect,0.200000X-0.200000X-0.275000X0.200000X-0.275000X0.200000X0.275000X-0.200000X0.275000X0*%
%ADD48RoundRect,0.150000X-0.512500X-0.150000X0.512500X-0.150000X0.512500X0.150000X-0.512500X0.150000X0*%
%ADD49RoundRect,0.100000X0.637500X0.100000X-0.637500X0.100000X-0.637500X-0.100000X0.637500X-0.100000X0*%
G04 APERTURE END LIST*
D10*
%TO.C,D9*%
X157316000Y-82424000D02*
X156796000Y-82424000D01*
X156796000Y-81664000D01*
X157316000Y-81664000D01*
X157316000Y-82424000D01*
G36*
X157316000Y-82424000D02*
G01*
X156796000Y-82424000D01*
X156796000Y-81664000D01*
X157316000Y-81664000D01*
X157316000Y-82424000D01*
G37*
X158566000Y-82424000D02*
X158046000Y-82424000D01*
X158046000Y-81664000D01*
X158566000Y-81664000D01*
X158566000Y-82424000D01*
G36*
X158566000Y-82424000D02*
G01*
X158046000Y-82424000D01*
X158046000Y-81664000D01*
X158566000Y-81664000D01*
X158566000Y-82424000D01*
G37*
%TD*%
D11*
%TO.C,R60*%
X119000000Y-120750000D03*
X119000000Y-119100000D03*
%TD*%
D12*
%TO.C,C35*%
X155706000Y-91244000D03*
X156571000Y-91244000D03*
%TD*%
D13*
%TO.C,C52*%
X145262500Y-94700000D03*
X143537500Y-94700000D03*
%TD*%
D14*
%TO.C,D6*%
X127250000Y-111750000D03*
X127250000Y-109250000D03*
%TD*%
D15*
%TO.C,R70*%
X159550000Y-113400000D03*
X159550000Y-115050000D03*
%TD*%
D16*
%TO.C,C72*%
X131925000Y-69900000D03*
X131925000Y-70765000D03*
%TD*%
D17*
%TO.C,U1*%
X165806000Y-94784000D03*
X165806000Y-92244000D03*
X171306000Y-92244000D03*
X171306000Y-94784000D03*
%TD*%
D18*
%TO.C,C73*%
X117556000Y-73926500D03*
X117556000Y-73061500D03*
%TD*%
D19*
%TO.C,C1*%
X168806000Y-101969000D03*
X168806000Y-100244000D03*
%TD*%
D13*
%TO.C,C22*%
X155068500Y-78944000D03*
X153343500Y-78944000D03*
%TD*%
D20*
%TO.C,C2*%
X173306000Y-100244000D03*
X173306000Y-101969000D03*
%TD*%
D15*
%TO.C,R35*%
X125506000Y-96644000D03*
X125506000Y-98294000D03*
%TD*%
D20*
%TO.C,C4*%
X166997250Y-100302750D03*
X166997250Y-102027750D03*
%TD*%
D11*
%TO.C,R71*%
X149550000Y-115050000D03*
X149550000Y-113400000D03*
%TD*%
D19*
%TO.C,C9*%
X173306000Y-94546500D03*
X173306000Y-92821500D03*
%TD*%
%TO.C,C24*%
X157237412Y-80106500D03*
X157237412Y-78381500D03*
%TD*%
D21*
%TO.C,R5*%
X185106000Y-83444000D03*
X183281000Y-83444000D03*
%TD*%
D15*
%TO.C,R57*%
X164550000Y-113400000D03*
X164550000Y-115050000D03*
%TD*%
D22*
%TO.C,C14*%
X158443500Y-83644000D03*
X160168500Y-83644000D03*
%TD*%
D23*
%TO.C,R16*%
X168306000Y-88444000D03*
X168306000Y-90269000D03*
%TD*%
D24*
%TO.C,C51*%
X118462500Y-112750000D03*
X120537500Y-112750000D03*
%TD*%
D25*
%TO.C,U17*%
X130706000Y-69968998D03*
X130706000Y-70468997D03*
X130706000Y-70968996D03*
D26*
X129783599Y-71891397D03*
X129283600Y-71891397D03*
X128783601Y-71891397D03*
D25*
X127861200Y-70968996D03*
X127861200Y-70468997D03*
X127861200Y-69968998D03*
D26*
X128783601Y-69046597D03*
X129283600Y-69046597D03*
X129783599Y-69046597D03*
D27*
X129283600Y-70468997D03*
%TD*%
D23*
%TO.C,R13*%
X171506000Y-88444000D03*
X171506000Y-90269000D03*
%TD*%
D13*
%TO.C,C53*%
X145262500Y-93100000D03*
X143537500Y-93100000D03*
%TD*%
D28*
%TO.C,CR2*%
X149106000Y-90888400D03*
X149106000Y-91244000D03*
%TD*%
D23*
%TO.C,R1*%
X163906000Y-100331500D03*
X163906000Y-102156500D03*
%TD*%
D13*
%TO.C,C28*%
X151168500Y-88244000D03*
X149443500Y-88244000D03*
%TD*%
D29*
%TO.C,U14*%
X131951600Y-74744000D03*
X131951600Y-75694001D03*
X131951600Y-76644002D03*
X129056000Y-76644002D03*
X129056000Y-75694001D03*
X129056000Y-74744000D03*
D30*
X130503800Y-75694001D03*
%TD*%
D31*
%TO.C,R32*%
X150706000Y-82044000D03*
X150706000Y-80219000D03*
%TD*%
D32*
%TO.C,D10*%
X126250000Y-73250000D03*
X127650000Y-73250000D03*
%TD*%
D11*
%TO.C,R75*%
X152150000Y-103900000D03*
X152150000Y-102250000D03*
%TD*%
D21*
%TO.C,R82*%
X160262500Y-94375000D03*
X158437500Y-94375000D03*
%TD*%
D20*
%TO.C,C75*%
X147325000Y-91212500D03*
X147325000Y-92937500D03*
%TD*%
D33*
%TO.C,U13*%
X119737500Y-115750000D03*
D34*
X121250000Y-114500000D03*
X121250000Y-115000000D03*
X121250000Y-115500000D03*
X121250000Y-116000000D03*
X121250000Y-116500000D03*
X121250000Y-117000000D03*
X118225000Y-117000000D03*
X118225000Y-116500000D03*
X118225000Y-116000000D03*
X118225000Y-115500000D03*
X118225000Y-115000000D03*
X118225000Y-114500000D03*
%TD*%
D23*
%TO.C,R4*%
X171806000Y-100194000D03*
X171806000Y-102019000D03*
%TD*%
D22*
%TO.C,C58*%
X143537500Y-91500000D03*
X145262500Y-91500000D03*
%TD*%
D35*
%TO.C,R83*%
X148875000Y-94100000D03*
X150700000Y-94100000D03*
%TD*%
D22*
%TO.C,C26*%
X152843500Y-84844000D03*
X154568500Y-84844000D03*
%TD*%
D31*
%TO.C,R2*%
X165497250Y-102077750D03*
X165497250Y-100252750D03*
%TD*%
D22*
%TO.C,C57*%
X142966000Y-81244000D03*
X144691000Y-81244000D03*
%TD*%
D36*
%TO.C,C31*%
X141647620Y-91700000D03*
X139597620Y-91700000D03*
%TD*%
D37*
%TO.C,D5*%
X122750000Y-108000000D03*
X122750000Y-110500000D03*
%TD*%
D20*
%TO.C,C68*%
X177306000Y-110581500D03*
X177306000Y-112306500D03*
%TD*%
D22*
%TO.C,C47*%
X125443500Y-85444000D03*
X127168500Y-85444000D03*
%TD*%
D11*
%TO.C,R37*%
X125506000Y-95269000D03*
X125506000Y-93619000D03*
%TD*%
D15*
%TO.C,R74*%
X162150000Y-102250000D03*
X162150000Y-103900000D03*
%TD*%
D38*
%TO.C,L8*%
X178750000Y-100625000D03*
X178750000Y-98875000D03*
%TD*%
D13*
%TO.C,C5*%
X185056000Y-81844000D03*
X183331000Y-81844000D03*
%TD*%
D23*
%TO.C,R14*%
X169906000Y-88444000D03*
X169906000Y-90269000D03*
%TD*%
D15*
%TO.C,R68*%
X162050000Y-113400000D03*
X162050000Y-115050000D03*
%TD*%
%TO.C,R61*%
X119250000Y-108000000D03*
X119250000Y-109650000D03*
%TD*%
D24*
%TO.C,C50*%
X120712500Y-103000000D03*
X122787500Y-103000000D03*
%TD*%
D15*
%TO.C,R78*%
X157150000Y-102250000D03*
X157150000Y-103900000D03*
%TD*%
D20*
%TO.C,C40*%
X123906000Y-80500000D03*
X123906000Y-82225000D03*
%TD*%
D11*
%TO.C,R79*%
X147150000Y-103900000D03*
X147150000Y-102250000D03*
%TD*%
D31*
%TO.C,R3*%
X170306000Y-102019000D03*
X170306000Y-100194000D03*
%TD*%
D15*
%TO.C,R80*%
X154650000Y-102250000D03*
X154650000Y-103900000D03*
%TD*%
D11*
%TO.C,R77*%
X149650000Y-103900000D03*
X149650000Y-102250000D03*
%TD*%
D22*
%TO.C,C8*%
X183331000Y-93886500D03*
X185056000Y-93886500D03*
%TD*%
D11*
%TO.C,R65*%
X154550000Y-115050000D03*
X154550000Y-113400000D03*
%TD*%
D39*
%TO.C,C37*%
X115000000Y-115075000D03*
X115000000Y-113000000D03*
%TD*%
D11*
%TO.C,R73*%
X147020000Y-115050000D03*
X147020000Y-113400000D03*
%TD*%
D22*
%TO.C,C11*%
X158775000Y-90844000D03*
X160500000Y-90844000D03*
%TD*%
D35*
%TO.C,R19*%
X148993500Y-73644000D03*
X150818500Y-73644000D03*
%TD*%
%TO.C,R11*%
X154837500Y-90000000D03*
X156662500Y-90000000D03*
%TD*%
D22*
%TO.C,C54*%
X142906000Y-78339000D03*
X144631000Y-78339000D03*
%TD*%
D40*
%TO.C,D4*%
X153250000Y-88450000D03*
X153250000Y-86550000D03*
X155125000Y-87500000D03*
%TD*%
D15*
%TO.C,R76*%
X159650000Y-102250000D03*
X159650000Y-103900000D03*
%TD*%
D13*
%TO.C,C10*%
X165968500Y-70250000D03*
X164243500Y-70250000D03*
%TD*%
D20*
%TO.C,C45*%
X120750000Y-108137500D03*
X120750000Y-109862500D03*
%TD*%
D11*
%TO.C,R81*%
X144650000Y-103900000D03*
X144650000Y-102250000D03*
%TD*%
D41*
%TO.C,Y1*%
X153283500Y-92844000D03*
X156533500Y-92844000D03*
%TD*%
D22*
%TO.C,C38*%
X121137500Y-105750000D03*
X122862500Y-105750000D03*
%TD*%
D13*
%TO.C,C7*%
X185056000Y-90686500D03*
X183331000Y-90686500D03*
%TD*%
D21*
%TO.C,R85*%
X117050000Y-76825000D03*
X115225000Y-76825000D03*
%TD*%
D35*
%TO.C,R6*%
X183281000Y-85384000D03*
X185106000Y-85384000D03*
%TD*%
D42*
%TO.C,U15*%
X138306000Y-76939600D03*
X137355999Y-76939600D03*
X136405998Y-76939600D03*
X136405998Y-74044000D03*
X137355999Y-74044000D03*
X138306000Y-74044000D03*
D43*
X137355999Y-75491800D03*
%TD*%
D44*
%TO.C,C36*%
X154113500Y-91294000D03*
X153248500Y-91294000D03*
%TD*%
D21*
%TO.C,R8*%
X185106000Y-92286500D03*
X183281000Y-92286500D03*
%TD*%
D35*
%TO.C,R17*%
X149193500Y-68844000D03*
X151018500Y-68844000D03*
%TD*%
D21*
%TO.C,R9*%
X163818500Y-93244000D03*
X161993500Y-93244000D03*
%TD*%
D23*
%TO.C,R23*%
X151463500Y-75474000D03*
X151463500Y-77299000D03*
%TD*%
D22*
%TO.C,C71*%
X123000000Y-68500000D03*
X124725000Y-68500000D03*
%TD*%
D13*
%TO.C,C63*%
X182787500Y-119600000D03*
X181062500Y-119600000D03*
%TD*%
D45*
%TO.C,U8*%
X155306000Y-80544000D03*
X155306000Y-81494000D03*
X155306000Y-82444000D03*
X152606000Y-82444000D03*
X152606000Y-81494000D03*
X152606000Y-80544000D03*
%TD*%
D46*
%TO.C,R56*%
X131131000Y-67493996D03*
X129481000Y-67493996D03*
%TD*%
D22*
%TO.C,C6*%
X183331000Y-87044000D03*
X185056000Y-87044000D03*
%TD*%
D36*
%TO.C,C32*%
X141647620Y-93750000D03*
X139597620Y-93750000D03*
%TD*%
D15*
%TO.C,R72*%
X157050000Y-113400000D03*
X157050000Y-115050000D03*
%TD*%
D22*
%TO.C,C65*%
X166137500Y-83750000D03*
X167862500Y-83750000D03*
%TD*%
D20*
%TO.C,C67*%
X180506000Y-110581500D03*
X180506000Y-112306500D03*
%TD*%
D47*
%TO.C,R59*%
X123425000Y-113750000D03*
X125075000Y-113750000D03*
%TD*%
D16*
%TO.C,C42*%
X117000000Y-117225000D03*
X117000000Y-118090000D03*
%TD*%
D48*
%TO.C,U19*%
X121250000Y-71950000D03*
X121250000Y-71000000D03*
X121250000Y-70050000D03*
X123525000Y-70050000D03*
X123525000Y-71000000D03*
X123525000Y-71950000D03*
%TD*%
D49*
%TO.C,U3*%
X164293500Y-84944000D03*
X164293500Y-85594000D03*
X164293500Y-86244000D03*
X164293500Y-86894000D03*
X164293500Y-87544000D03*
X164293500Y-88194000D03*
X164293500Y-88844000D03*
X164293500Y-89494000D03*
X158568500Y-89494000D03*
X158568500Y-88844000D03*
X158568500Y-88194000D03*
X158568500Y-87544000D03*
X158568500Y-86894000D03*
X158568500Y-86244000D03*
X158568500Y-85594000D03*
X158568500Y-84944000D03*
%TD*%
D22*
%TO.C,C74*%
X121506000Y-77644000D03*
X123231000Y-77644000D03*
%TD*%
D13*
%TO.C,C64*%
X182725000Y-118000000D03*
X181000000Y-118000000D03*
%TD*%
D35*
%TO.C,R20*%
X148993500Y-72044000D03*
X150818500Y-72044000D03*
%TD*%
D38*
%TO.C,L7*%
X179000000Y-111050000D03*
X179000000Y-109300000D03*
%TD*%
D35*
%TO.C,R18*%
X149193500Y-70444000D03*
X151018500Y-70444000D03*
%TD*%
%TO.C,R7*%
X183281000Y-88844000D03*
X185106000Y-88844000D03*
%TD*%
D23*
%TO.C,R15*%
X166706000Y-88444000D03*
X166706000Y-90269000D03*
%TD*%
D11*
%TO.C,R69*%
X152050000Y-115050000D03*
X152050000Y-113400000D03*
%TD*%
M02*
