%TF.GenerationSoftware,KiCad,Pcbnew,9.0.0*%
%TF.CreationDate,2025-04-10T22:59:03-04:00*%
%TF.ProjectId,USBLabTool,5553424c-6162-4546-9f6f-6c2e6b696361,2*%
%TF.SameCoordinates,Original*%
%TF.FileFunction,Soldermask,Top*%
%TF.FilePolarity,Negative*%
%FSLAX46Y46*%
G04 Gerber Fmt 4.6, Leading zero omitted, Abs format (unit mm)*
G04 Created by KiCad (PCBNEW 9.0.0) date 2025-04-10 22:59:03*
%MOMM*%
%LPD*%
G01*
G04 APERTURE LIST*
G04 Aperture macros list*
%AMRoundRect*
0 Rectangle with rounded corners*
0 $1 Rounding radius*
0 $2 $3 $4 $5 $6 $7 $8 $9 X,Y pos of 4 corners*
0 Add a 4 corners polygon primitive as box body*
4,1,4,$2,$3,$4,$5,$6,$7,$8,$9,$2,$3,0*
0 Add four circle primitives for the rounded corners*
1,1,$1+$1,$2,$3*
1,1,$1+$1,$4,$5*
1,1,$1+$1,$6,$7*
1,1,$1+$1,$8,$9*
0 Add four rect primitives between the rounded corners*
20,1,$1+$1,$2,$3,$4,$5,0*
20,1,$1+$1,$4,$5,$6,$7,0*
20,1,$1+$1,$6,$7,$8,$9,0*
20,1,$1+$1,$8,$9,$2,$3,0*%
%AMFreePoly0*
4,1,23,0.500000,-0.750000,0.000000,-0.750000,0.000000,-0.745722,-0.065263,-0.745722,-0.191342,-0.711940,-0.304381,-0.646677,-0.396677,-0.554381,-0.461940,-0.441342,-0.495722,-0.315263,-0.495722,-0.250000,-0.500000,-0.250000,-0.500000,0.250000,-0.495722,0.250000,-0.495722,0.315263,-0.461940,0.441342,-0.396677,0.554381,-0.304381,0.646677,-0.191342,0.711940,-0.065263,0.745722,0.000000,0.745722,
0.000000,0.750000,0.500000,0.750000,0.500000,-0.750000,0.500000,-0.750000,$1*%
%AMFreePoly1*
4,1,23,0.000000,0.745722,0.065263,0.745722,0.191342,0.711940,0.304381,0.646677,0.396677,0.554381,0.461940,0.441342,0.495722,0.315263,0.495722,0.250000,0.500000,0.250000,0.500000,-0.250000,0.495722,-0.250000,0.495722,-0.315263,0.461940,-0.441342,0.396677,-0.554381,0.304381,-0.646677,0.191342,-0.711940,0.065263,-0.745722,0.000000,-0.745722,0.000000,-0.750000,-0.500000,-0.750000,
-0.500000,0.750000,0.000000,0.750000,0.000000,0.745722,0.000000,0.745722,$1*%
G04 Aperture macros list end*
%ADD10RoundRect,0.200000X-0.200000X-0.275000X0.200000X-0.275000X0.200000X0.275000X-0.200000X0.275000X0*%
%ADD11RoundRect,0.250000X0.337500X0.475000X-0.337500X0.475000X-0.337500X-0.475000X0.337500X-0.475000X0*%
%ADD12RoundRect,0.237500X-0.250000X-0.237500X0.250000X-0.237500X0.250000X0.237500X-0.250000X0.237500X0*%
%ADD13RoundRect,0.075000X0.725000X0.075000X-0.725000X0.075000X-0.725000X-0.075000X0.725000X-0.075000X0*%
%ADD14RoundRect,0.075000X0.075000X0.725000X-0.075000X0.725000X-0.075000X-0.725000X0.075000X-0.725000X0*%
%ADD15RoundRect,0.237500X0.300000X0.237500X-0.300000X0.237500X-0.300000X-0.237500X0.300000X-0.237500X0*%
%ADD16C,2.000000*%
%ADD17RoundRect,0.150000X-0.825000X-0.150000X0.825000X-0.150000X0.825000X0.150000X-0.825000X0.150000X0*%
%ADD18RoundRect,0.100000X-0.637500X-0.100000X0.637500X-0.100000X0.637500X0.100000X-0.637500X0.100000X0*%
%ADD19C,2.200000*%
%ADD20R,1.700000X1.700000*%
%ADD21O,1.700000X1.700000*%
%ADD22RoundRect,0.237500X-0.237500X0.250000X-0.237500X-0.250000X0.237500X-0.250000X0.237500X0.250000X0*%
%ADD23RoundRect,0.237500X-0.300000X-0.237500X0.300000X-0.237500X0.300000X0.237500X-0.300000X0.237500X0*%
%ADD24R,5.207000X1.066800*%
%ADD25RoundRect,0.137500X-0.137500X0.587500X-0.137500X-0.587500X0.137500X-0.587500X0.137500X0.587500X0*%
%ADD26RoundRect,0.200000X0.200000X0.275000X-0.200000X0.275000X-0.200000X-0.275000X0.200000X-0.275000X0*%
%ADD27RoundRect,0.237500X-0.237500X0.300000X-0.237500X-0.300000X0.237500X-0.300000X0.237500X0.300000X0*%
%ADD28RoundRect,0.237500X0.250000X0.237500X-0.250000X0.237500X-0.250000X-0.237500X0.250000X-0.237500X0*%
%ADD29RoundRect,0.200000X0.275000X-0.200000X0.275000X0.200000X-0.275000X0.200000X-0.275000X-0.200000X0*%
%ADD30RoundRect,0.150000X-0.587500X-0.150000X0.587500X-0.150000X0.587500X0.150000X-0.587500X0.150000X0*%
%ADD31R,0.838200X0.762000*%
%ADD32RoundRect,0.112500X0.187500X0.112500X-0.187500X0.112500X-0.187500X-0.112500X0.187500X-0.112500X0*%
%ADD33RoundRect,0.125000X-0.687500X-0.125000X0.687500X-0.125000X0.687500X0.125000X-0.687500X0.125000X0*%
%ADD34RoundRect,0.062500X0.062500X0.350000X-0.062500X0.350000X-0.062500X-0.350000X0.062500X-0.350000X0*%
%ADD35RoundRect,0.062500X0.350000X0.062500X-0.350000X0.062500X-0.350000X-0.062500X0.350000X-0.062500X0*%
%ADD36R,1.000000X3.000000*%
%ADD37RoundRect,0.100000X-0.217500X-0.100000X0.217500X-0.100000X0.217500X0.100000X-0.217500X0.100000X0*%
%ADD38R,0.698500X2.006600*%
%ADD39RoundRect,0.112500X0.112500X-0.187500X0.112500X0.187500X-0.112500X0.187500X-0.112500X-0.187500X0*%
%ADD40RoundRect,0.102000X-0.754000X-0.754000X0.754000X-0.754000X0.754000X0.754000X-0.754000X0.754000X0*%
%ADD41C,1.712000*%
%ADD42RoundRect,0.237500X-0.287500X-0.237500X0.287500X-0.237500X0.287500X0.237500X-0.287500X0.237500X0*%
%ADD43RoundRect,0.200000X-0.275000X0.200000X-0.275000X-0.200000X0.275000X-0.200000X0.275000X0.200000X0*%
%ADD44RoundRect,0.162500X0.162500X-0.837500X0.162500X0.837500X-0.162500X0.837500X-0.162500X-0.837500X0*%
%ADD45RoundRect,0.100000X0.100000X-0.217500X0.100000X0.217500X-0.100000X0.217500X-0.100000X-0.217500X0*%
%ADD46RoundRect,0.237500X0.237500X-0.300000X0.237500X0.300000X-0.237500X0.300000X-0.237500X-0.300000X0*%
%ADD47R,1.800000X1.800000*%
%ADD48C,1.800000*%
%ADD49RoundRect,0.225000X-0.250000X0.225000X-0.250000X-0.225000X0.250000X-0.225000X0.250000X0.225000X0*%
%ADD50FreePoly0,270.000000*%
%ADD51FreePoly1,270.000000*%
%ADD52RoundRect,0.102000X-0.900000X-0.900000X0.900000X-0.900000X0.900000X0.900000X-0.900000X0.900000X0*%
%ADD53C,2.004000*%
%ADD54FreePoly0,180.000000*%
%ADD55FreePoly1,180.000000*%
%ADD56R,1.066800X5.207000*%
%ADD57R,2.006600X0.698500*%
%ADD58RoundRect,0.162500X-0.617500X-0.162500X0.617500X-0.162500X0.617500X0.162500X-0.617500X0.162500X0*%
%ADD59RoundRect,0.062500X0.350000X-0.062500X0.350000X0.062500X-0.350000X0.062500X-0.350000X-0.062500X0*%
%ADD60RoundRect,0.062500X0.062500X-0.350000X0.062500X0.350000X-0.062500X0.350000X-0.062500X-0.350000X0*%
%ADD61R,3.000000X1.000000*%
%ADD62RoundRect,0.125000X0.687500X0.125000X-0.687500X0.125000X-0.687500X-0.125000X0.687500X-0.125000X0*%
%ADD63FreePoly0,90.000000*%
%ADD64FreePoly1,90.000000*%
%ADD65RoundRect,0.237500X0.237500X-0.250000X0.237500X0.250000X-0.237500X0.250000X-0.237500X-0.250000X0*%
%ADD66R,1.400000X1.400000*%
%ADD67C,1.400000*%
%ADD68RoundRect,0.237500X0.287500X0.237500X-0.287500X0.237500X-0.287500X-0.237500X0.287500X-0.237500X0*%
%ADD69RoundRect,0.102000X-0.200000X-0.375000X0.200000X-0.375000X0.200000X0.375000X-0.200000X0.375000X0*%
%ADD70RoundRect,0.102000X-1.225000X-1.200000X1.225000X-1.200000X1.225000X1.200000X-1.225000X1.200000X0*%
%ADD71RoundRect,0.102000X-0.265000X-0.200000X0.265000X-0.200000X0.265000X0.200000X-0.265000X0.200000X0*%
%ADD72RoundRect,0.250001X0.624999X-0.462499X0.624999X0.462499X-0.624999X0.462499X-0.624999X-0.462499X0*%
%ADD73C,0.650000*%
%ADD74O,0.650000X0.950000*%
%ADD75R,0.700000X0.300000*%
%ADD76O,1.400000X0.800000*%
G04 APERTURE END LIST*
%TO.C,JP1*%
G36*
X115231000Y-110954000D02*
G01*
X113731000Y-110954000D01*
X113731000Y-111254000D01*
X115231000Y-111254000D01*
X115231000Y-110954000D01*
G37*
%TO.C,JP3*%
G36*
X124275000Y-68400000D02*
G01*
X123975000Y-68400000D01*
X123975000Y-66900000D01*
X124275000Y-66900000D01*
X124275000Y-68400000D01*
G37*
%TO.C,JP2*%
G36*
X117256000Y-80669000D02*
G01*
X118756000Y-80669000D01*
X118756000Y-80369000D01*
X117256000Y-80369000D01*
X117256000Y-80669000D01*
G37*
%TD*%
D10*
%TO.C,R45*%
X120181000Y-89434000D03*
X121831000Y-89434000D03*
%TD*%
D11*
%TO.C,C30*%
X118543500Y-86244000D03*
X116468500Y-86244000D03*
%TD*%
D12*
%TO.C,R31*%
X165963501Y-85444000D03*
X167788501Y-85444000D03*
%TD*%
D13*
%TO.C,U12*%
X150556000Y-97294000D03*
X150556000Y-96794000D03*
X150556000Y-96294000D03*
X150556000Y-95794000D03*
X150556000Y-95294000D03*
X150556000Y-94794000D03*
X150556000Y-94294000D03*
X150556000Y-93794000D03*
X150556000Y-93294000D03*
X150556000Y-92794000D03*
X150556000Y-92294000D03*
X150556000Y-91794000D03*
X150556000Y-91294000D03*
X150556000Y-90794000D03*
X150556000Y-90294000D03*
X150556000Y-89794000D03*
X150556000Y-89294000D03*
X150556000Y-88794000D03*
X150556000Y-88294000D03*
X150556000Y-87794000D03*
X150556000Y-87294000D03*
X150556000Y-86794000D03*
X150556000Y-86294000D03*
X150556000Y-85794000D03*
X150556000Y-85294000D03*
D14*
X148881000Y-83619000D03*
X148381000Y-83619000D03*
X147881000Y-83619000D03*
X147381000Y-83619000D03*
X146881000Y-83619000D03*
X146381000Y-83619000D03*
X145881000Y-83619000D03*
X145381000Y-83619000D03*
X144881000Y-83619000D03*
X144381000Y-83619000D03*
X143881000Y-83619000D03*
X143381000Y-83619000D03*
X142881000Y-83619000D03*
X142381000Y-83619000D03*
X141881000Y-83619000D03*
X141381000Y-83619000D03*
X140881000Y-83619000D03*
X140381000Y-83619000D03*
X139881000Y-83619000D03*
X139381000Y-83619000D03*
X138881000Y-83619000D03*
X138381000Y-83619000D03*
X137881000Y-83619000D03*
X137381000Y-83619000D03*
X136881000Y-83619000D03*
D13*
X135206000Y-85294000D03*
X135206000Y-85794000D03*
X135206000Y-86294000D03*
X135206000Y-86794000D03*
X135206000Y-87294000D03*
X135206000Y-87794000D03*
X135206000Y-88294000D03*
X135206000Y-88794000D03*
X135206000Y-89294000D03*
X135206000Y-89794000D03*
X135206000Y-90294000D03*
X135206000Y-90794000D03*
X135206000Y-91294000D03*
X135206000Y-91794000D03*
X135206000Y-92294000D03*
X135206000Y-92794000D03*
X135206000Y-93294000D03*
X135206000Y-93794000D03*
X135206000Y-94294000D03*
X135206000Y-94794000D03*
X135206000Y-95294000D03*
X135206000Y-95794000D03*
X135206000Y-96294000D03*
X135206000Y-96794000D03*
X135206000Y-97294000D03*
D14*
X136881000Y-98969000D03*
X137381000Y-98969000D03*
X137881000Y-98969000D03*
X138381000Y-98969000D03*
X138881000Y-98969000D03*
X139381000Y-98969000D03*
X139881000Y-98969000D03*
X140381000Y-98969000D03*
X140881000Y-98969000D03*
X141381000Y-98969000D03*
X141881000Y-98969000D03*
X142381000Y-98969000D03*
X142881000Y-98969000D03*
X143381000Y-98969000D03*
X143881000Y-98969000D03*
X144381000Y-98969000D03*
X144881000Y-98969000D03*
X145381000Y-98969000D03*
X145881000Y-98969000D03*
X146381000Y-98969000D03*
X146881000Y-98969000D03*
X147381000Y-98969000D03*
X147881000Y-98969000D03*
X148381000Y-98969000D03*
X148881000Y-98969000D03*
%TD*%
D15*
%TO.C,C18*%
X153788500Y-73786500D03*
X152063500Y-73786500D03*
%TD*%
D16*
%TO.C,TP4*%
X133250000Y-79320000D03*
%TD*%
D17*
%TO.C,U9*%
X119275000Y-102975000D03*
X119275000Y-104245000D03*
X119275000Y-105515000D03*
X119275000Y-106785000D03*
X119275000Y-108055000D03*
X119275000Y-109325000D03*
X119275000Y-110595000D03*
X124225000Y-110595000D03*
X124225000Y-109325000D03*
X124225000Y-108055000D03*
X124225000Y-106785000D03*
X124225000Y-105515000D03*
X124225000Y-104245000D03*
X124225000Y-102975000D03*
%TD*%
D18*
%TO.C,U5*%
X141381000Y-73044000D03*
X141381000Y-73694000D03*
X141381000Y-74344000D03*
X141381000Y-74994000D03*
X141381000Y-75644000D03*
X141381000Y-76294000D03*
X141381000Y-76944000D03*
X141381000Y-77594000D03*
X147106000Y-77594000D03*
X147106000Y-76944000D03*
X147106000Y-76294000D03*
X147106000Y-75644000D03*
X147106000Y-74994000D03*
X147106000Y-74344000D03*
X147106000Y-73694000D03*
X147106000Y-73044000D03*
%TD*%
D19*
%TO.C,H2*%
X113000000Y-118750000D03*
%TD*%
D10*
%TO.C,R48*%
X127081000Y-101644000D03*
X128731000Y-101644000D03*
%TD*%
D12*
%TO.C,R27*%
X155593500Y-77044000D03*
X157418500Y-77044000D03*
%TD*%
D16*
%TO.C,TP1*%
X114981000Y-103379000D03*
%TD*%
D10*
%TO.C,R47*%
X123981000Y-101454000D03*
X125631000Y-101454000D03*
%TD*%
D20*
%TO.C,J17*%
X111906000Y-81384000D03*
D21*
X111906000Y-78844000D03*
%TD*%
D15*
%TO.C,C15*%
X164568500Y-94644000D03*
X162843500Y-94644000D03*
%TD*%
D22*
%TO.C,R28*%
X162706000Y-91044000D03*
X162706000Y-92869000D03*
%TD*%
D23*
%TO.C,C66*%
X184887500Y-117500000D03*
X186612500Y-117500000D03*
%TD*%
D24*
%TO.C,GD2*%
X174906000Y-76973900D03*
X174906000Y-81114100D03*
%TD*%
D16*
%TO.C,TP10*%
X169250000Y-80250000D03*
%TD*%
D25*
%TO.C,U2*%
X166376000Y-67094000D03*
X163836000Y-67094000D03*
X163836000Y-72594000D03*
X166376000Y-72594000D03*
%TD*%
D20*
%TO.C,J19*%
X178000000Y-119250000D03*
%TD*%
D26*
%TO.C,R53*%
X147506000Y-100869000D03*
X145856000Y-100869000D03*
%TD*%
%TO.C,R62*%
X121075000Y-115000000D03*
X119425000Y-115000000D03*
%TD*%
D18*
%TO.C,U11*%
X120208500Y-92521500D03*
X120208500Y-93171500D03*
X120208500Y-93821500D03*
X120208500Y-94471500D03*
X120208500Y-95121500D03*
X120208500Y-95771500D03*
X120208500Y-96421500D03*
X120208500Y-97071500D03*
X125933500Y-97071500D03*
X125933500Y-96421500D03*
X125933500Y-95771500D03*
X125933500Y-95121500D03*
X125933500Y-94471500D03*
X125933500Y-93821500D03*
X125933500Y-93171500D03*
X125933500Y-92521500D03*
%TD*%
D27*
%TO.C,C48*%
X129306000Y-106381500D03*
X129306000Y-108106500D03*
%TD*%
D28*
%TO.C,R29*%
X157438500Y-78786500D03*
X155613500Y-78786500D03*
%TD*%
D23*
%TO.C,C41*%
X119387500Y-113250000D03*
X121112500Y-113250000D03*
%TD*%
D29*
%TO.C,R51*%
X129306000Y-104894000D03*
X129306000Y-103244000D03*
%TD*%
D22*
%TO.C,R54*%
X154306000Y-84419000D03*
X154306000Y-86244000D03*
%TD*%
D10*
%TO.C,R46*%
X120181000Y-90934000D03*
X121831000Y-90934000D03*
%TD*%
D22*
%TO.C,R25*%
X161106000Y-91044000D03*
X161106000Y-92869000D03*
%TD*%
D30*
%TO.C,D3*%
X163750000Y-80000000D03*
X163750000Y-81900000D03*
X165625000Y-80950000D03*
%TD*%
D16*
%TO.C,TP12*%
X161000000Y-72750000D03*
%TD*%
D12*
%TO.C,R24*%
X150793500Y-80644000D03*
X152618500Y-80644000D03*
%TD*%
D10*
%TO.C,R33*%
X113656000Y-106069000D03*
X115306000Y-106069000D03*
%TD*%
D19*
%TO.C,H1*%
X186250000Y-68500000D03*
%TD*%
D31*
%TO.C,Y2*%
X152750000Y-91550000D03*
X154100000Y-91550000D03*
X154100000Y-90500000D03*
X152750000Y-90500000D03*
%TD*%
D23*
%TO.C,C60*%
X135643500Y-81044000D03*
X137368500Y-81044000D03*
%TD*%
D12*
%TO.C,R12*%
X137500000Y-74500000D03*
X139325000Y-74500000D03*
%TD*%
D10*
%TO.C,R42*%
X116600000Y-94244000D03*
X118250000Y-94244000D03*
%TD*%
D32*
%TO.C,D2*%
X184075000Y-72900000D03*
X181975000Y-72900000D03*
%TD*%
D33*
%TO.C,U6*%
X149351000Y-75411500D03*
X149351000Y-76061500D03*
X149351000Y-76711500D03*
X149351000Y-77361500D03*
X153576000Y-77361500D03*
X153576000Y-76711500D03*
X153576000Y-76061500D03*
X153576000Y-75411500D03*
%TD*%
D34*
%TO.C,U18*%
X134743500Y-114806500D03*
D35*
X135681000Y-114369000D03*
X135681000Y-113869000D03*
X135681000Y-113369000D03*
X135681000Y-112869000D03*
X135681000Y-112369000D03*
X135681000Y-111869000D03*
X135681000Y-111369000D03*
X135681000Y-110869000D03*
D34*
X134743500Y-110431500D03*
X134243500Y-110431500D03*
D35*
X133306000Y-110869000D03*
X133306000Y-111369000D03*
X133306000Y-111869000D03*
X133306000Y-112369000D03*
X133306000Y-112869000D03*
X133306000Y-113369000D03*
X133306000Y-113869000D03*
X133306000Y-114369000D03*
D34*
X134243500Y-114806500D03*
D36*
X134493500Y-112619000D03*
%TD*%
D15*
%TO.C,C23*%
X164168500Y-84644000D03*
X162443500Y-84644000D03*
%TD*%
D37*
%TO.C,C33*%
X153435000Y-93250000D03*
X154250000Y-93250000D03*
%TD*%
D38*
%TO.C,L5*%
X136144750Y-78650000D03*
X137605250Y-78650000D03*
%TD*%
D39*
%TO.C,D1*%
X186725000Y-104550000D03*
X186725000Y-102450000D03*
%TD*%
D16*
%TO.C,TP14*%
X172250000Y-83750000D03*
%TD*%
D26*
%TO.C,R49*%
X128156000Y-89109000D03*
X126506000Y-89109000D03*
%TD*%
D23*
%TO.C,C46*%
X119275000Y-116750000D03*
X121000000Y-116750000D03*
%TD*%
D40*
%TO.C,SW1*%
X153750000Y-95750000D03*
D41*
X160250000Y-95750000D03*
X153750000Y-100250000D03*
X160250000Y-100250000D03*
%TD*%
D26*
%TO.C,R43*%
X122131000Y-98454000D03*
X120481000Y-98454000D03*
%TD*%
D15*
%TO.C,C43*%
X136168500Y-103244000D03*
X134443500Y-103244000D03*
%TD*%
D11*
%TO.C,C29*%
X115287500Y-108000000D03*
X113212500Y-108000000D03*
%TD*%
D42*
%TO.C,L2*%
X154156000Y-80444000D03*
X155906000Y-80444000D03*
%TD*%
D15*
%TO.C,C20*%
X155893500Y-82044000D03*
X154168500Y-82044000D03*
%TD*%
D16*
%TO.C,TP8*%
X140500000Y-80000000D03*
%TD*%
%TO.C,TP3*%
X118306000Y-100454000D03*
%TD*%
%TO.C,TP11*%
X176250000Y-86000000D03*
%TD*%
D23*
%TO.C,C16*%
X150637500Y-78986500D03*
X152362500Y-78986500D03*
%TD*%
D43*
%TO.C,R58*%
X111500000Y-113675000D03*
X111500000Y-115325000D03*
%TD*%
D44*
%TO.C,U16*%
X184156000Y-115304000D03*
X185106000Y-115304000D03*
X186056000Y-115304000D03*
X186056000Y-111884000D03*
X185106000Y-111884000D03*
X184156000Y-111884000D03*
%TD*%
D16*
%TO.C,TP5*%
X157750000Y-72000000D03*
%TD*%
D23*
%TO.C,C70*%
X123943500Y-75744000D03*
X125668500Y-75744000D03*
%TD*%
%TO.C,C59*%
X130243500Y-74844000D03*
X131968500Y-74844000D03*
%TD*%
D45*
%TO.C,C34*%
X155250000Y-91590000D03*
X155250000Y-90775000D03*
%TD*%
D29*
%TO.C,R66*%
X125406000Y-71318996D03*
X125406000Y-69668996D03*
%TD*%
D23*
%TO.C,C61*%
X184387500Y-109500000D03*
X186112500Y-109500000D03*
%TD*%
D46*
%TO.C,C27*%
X159500000Y-82975000D03*
X159500000Y-81250000D03*
%TD*%
D47*
%TO.C,D7*%
X135506000Y-68044000D03*
D48*
X135506000Y-70584000D03*
%TD*%
D49*
%TO.C,C78*%
X134506000Y-98469000D03*
X134506000Y-100019000D03*
%TD*%
D50*
%TO.C,JP1*%
X114481000Y-110454000D03*
D51*
X114481000Y-111754000D03*
%TD*%
D20*
%TO.C,J1*%
X121756000Y-119444000D03*
D21*
X124296000Y-119444000D03*
X126836000Y-119444000D03*
X129376000Y-119444000D03*
X131916000Y-119444000D03*
X134456000Y-119444000D03*
%TD*%
D15*
%TO.C,C25*%
X167738501Y-83844000D03*
X166013501Y-83844000D03*
%TD*%
D26*
%TO.C,R41*%
X118306000Y-92744000D03*
X116656000Y-92744000D03*
%TD*%
D52*
%TO.C,J2*%
X169746000Y-108244000D03*
D53*
X169746000Y-110784000D03*
X167206000Y-108244000D03*
X167206000Y-110784000D03*
X164666000Y-108244000D03*
X164666000Y-110784000D03*
X162126000Y-108244000D03*
X162126000Y-110784000D03*
X159586000Y-108244000D03*
X159586000Y-110784000D03*
X157046000Y-108244000D03*
X157046000Y-110784000D03*
X154506000Y-108244000D03*
X154506000Y-110784000D03*
X151966000Y-108244000D03*
X151966000Y-110784000D03*
X149426000Y-108244000D03*
X149426000Y-110784000D03*
X146886000Y-108244000D03*
X146886000Y-110784000D03*
X144346000Y-108244000D03*
X144346000Y-110784000D03*
X141806000Y-108244000D03*
X141806000Y-110784000D03*
%TD*%
D43*
%TO.C,R52*%
X132506000Y-85594000D03*
X132506000Y-87244000D03*
%TD*%
D23*
%TO.C,C13*%
X170843500Y-90444000D03*
X172568500Y-90444000D03*
%TD*%
D12*
%TO.C,R22*%
X158893500Y-84744000D03*
X160718500Y-84744000D03*
%TD*%
D54*
%TO.C,JP3*%
X124775000Y-67650000D03*
D55*
X123475000Y-67650000D03*
%TD*%
D56*
%TO.C,GD1*%
X181849850Y-109375250D03*
X177709650Y-109375250D03*
%TD*%
D23*
%TO.C,C17*%
X147387500Y-71500000D03*
X149112500Y-71500000D03*
%TD*%
D16*
%TO.C,TP6*%
X165000000Y-75500000D03*
%TD*%
D57*
%TO.C,L4*%
X127750000Y-114000000D03*
X127750000Y-115460500D03*
%TD*%
D58*
%TO.C,U7*%
X166126001Y-87244000D03*
X166126001Y-88194000D03*
X166126001Y-89144000D03*
X168826001Y-89144000D03*
X168826001Y-88194000D03*
X168826001Y-87244000D03*
%TD*%
D26*
%TO.C,R39*%
X118325000Y-97954000D03*
X116675000Y-97954000D03*
%TD*%
D15*
%TO.C,C12*%
X145168500Y-78844000D03*
X143443500Y-78844000D03*
%TD*%
D10*
%TO.C,R44*%
X120481000Y-99954000D03*
X122131000Y-99954000D03*
%TD*%
D16*
%TO.C,TP2*%
X117831000Y-89109000D03*
%TD*%
D26*
%TO.C,R40*%
X118575000Y-96250000D03*
X116925000Y-96250000D03*
%TD*%
D12*
%TO.C,R26*%
X159306000Y-87744000D03*
X161131000Y-87744000D03*
%TD*%
D15*
%TO.C,C21*%
X172568500Y-86844000D03*
X170843500Y-86844000D03*
%TD*%
%TO.C,C49*%
X136168500Y-104744000D03*
X134443500Y-104744000D03*
%TD*%
D28*
%TO.C,R84*%
X141637500Y-67325000D03*
X139812500Y-67325000D03*
%TD*%
D43*
%TO.C,R63*%
X113000000Y-113675000D03*
X113000000Y-115325000D03*
%TD*%
D59*
%TO.C,U20*%
X138443500Y-102181500D03*
D60*
X138881000Y-103119000D03*
X139381000Y-103119000D03*
X139881000Y-103119000D03*
X140381000Y-103119000D03*
X140881000Y-103119000D03*
X141381000Y-103119000D03*
X141881000Y-103119000D03*
X142381000Y-103119000D03*
D59*
X142818500Y-102181500D03*
X142818500Y-101681500D03*
D60*
X142381000Y-100744000D03*
X141881000Y-100744000D03*
X141381000Y-100744000D03*
X140881000Y-100744000D03*
X140381000Y-100744000D03*
X139881000Y-100744000D03*
X139381000Y-100744000D03*
X138881000Y-100744000D03*
D59*
X138443500Y-101681500D03*
D61*
X140631000Y-101931500D03*
%TD*%
D62*
%TO.C,U4*%
X168831000Y-92919000D03*
X168831000Y-92269000D03*
X168831000Y-91619000D03*
X168831000Y-90969000D03*
X164606000Y-90969000D03*
X164606000Y-91619000D03*
X164606000Y-92269000D03*
X164606000Y-92919000D03*
%TD*%
D63*
%TO.C,JP2*%
X118006000Y-81169000D03*
D64*
X118006000Y-79869000D03*
%TD*%
D46*
%TO.C,C39*%
X128506000Y-99706500D03*
X128506000Y-97981500D03*
%TD*%
D65*
%TO.C,R55*%
X152606000Y-86244000D03*
X152606000Y-84419000D03*
%TD*%
D66*
%TO.C,K2*%
X179506000Y-76144000D03*
D67*
X179506000Y-83764000D03*
X179506000Y-88844000D03*
X179506000Y-93924000D03*
X187126000Y-93924000D03*
X187126000Y-88844000D03*
X187126000Y-83764000D03*
X187126000Y-76144000D03*
%TD*%
D68*
%TO.C,L1*%
X162593500Y-86244000D03*
X160843500Y-86244000D03*
%TD*%
D22*
%TO.C,R10*%
X168306000Y-68931500D03*
X168306000Y-70756500D03*
%TD*%
D43*
%TO.C,R64*%
X139706000Y-68844000D03*
X139706000Y-70494000D03*
%TD*%
D69*
%TO.C,Q1*%
X127300000Y-70750000D03*
X127950000Y-70750000D03*
X128600000Y-70750000D03*
X129250000Y-70750000D03*
D70*
X128275000Y-68525000D03*
D71*
X126785000Y-69225000D03*
X129765000Y-69225000D03*
%TD*%
D16*
%TO.C,TP9*%
X168750000Y-76250000D03*
%TD*%
D15*
%TO.C,C19*%
X159081000Y-86244000D03*
X157356000Y-86244000D03*
%TD*%
%TO.C,C55*%
X131106000Y-77944000D03*
X129381000Y-77944000D03*
%TD*%
D28*
%TO.C,R21*%
X169131000Y-94444000D03*
X167306000Y-94444000D03*
%TD*%
D10*
%TO.C,R34*%
X117181000Y-83934000D03*
X118831000Y-83934000D03*
%TD*%
D49*
%TO.C,C76*%
X130306000Y-113469000D03*
X130306000Y-115019000D03*
%TD*%
D57*
%TO.C,L3*%
X124250000Y-115460500D03*
X124250000Y-114000000D03*
%TD*%
D72*
%TO.C,D8*%
X134106000Y-76731500D03*
X134106000Y-73756500D03*
%TD*%
D16*
%TO.C,TP7*%
X147500000Y-79750000D03*
%TD*%
D38*
%TO.C,L6*%
X187875000Y-106950000D03*
X186414500Y-106950000D03*
%TD*%
D10*
%TO.C,R50*%
X126981000Y-90744000D03*
X128631000Y-90744000D03*
%TD*%
D66*
%TO.C,K1*%
X183637250Y-97112750D03*
D67*
X176017250Y-97112750D03*
X170937250Y-97112750D03*
X165857250Y-97112750D03*
X165857250Y-104732750D03*
X170937250Y-104732750D03*
X176017250Y-104732750D03*
X183637250Y-104732750D03*
%TD*%
D17*
%TO.C,U10*%
X123181000Y-79624000D03*
X123181000Y-80894000D03*
X123181000Y-82164000D03*
X123181000Y-83434000D03*
X123181000Y-84704000D03*
X123181000Y-85974000D03*
X123181000Y-87244000D03*
X128131000Y-87244000D03*
X128131000Y-85974000D03*
X128131000Y-84704000D03*
X128131000Y-83434000D03*
X128131000Y-82164000D03*
X128131000Y-80894000D03*
X128131000Y-79624000D03*
%TD*%
D46*
%TO.C,C3*%
X163306000Y-102106500D03*
X163306000Y-100381500D03*
%TD*%
D10*
%TO.C,R38*%
X121506000Y-77609000D03*
X123156000Y-77609000D03*
%TD*%
D29*
%TO.C,R36*%
X129306000Y-111569000D03*
X129306000Y-109919000D03*
%TD*%
D46*
%TO.C,C62*%
X187756000Y-114306500D03*
X187756000Y-112581500D03*
%TD*%
D16*
%TO.C,TP13*%
X154500000Y-71500000D03*
%TD*%
D73*
%TO.C,J20*%
X120100000Y-67340000D03*
D74*
X120100000Y-74540000D03*
D75*
X120760000Y-68190000D03*
X120760000Y-68690000D03*
X120760000Y-69190000D03*
X120760000Y-69690000D03*
X120760000Y-70190000D03*
X120760000Y-70690000D03*
X120760000Y-71190000D03*
X120760000Y-71690000D03*
X120760000Y-72190000D03*
X120760000Y-72690000D03*
X120760000Y-73190000D03*
X120760000Y-73690000D03*
X119060000Y-73440000D03*
X119060000Y-72940000D03*
X119060000Y-72440000D03*
X119060000Y-71940000D03*
X119060000Y-71440000D03*
X119060000Y-70940000D03*
X119060000Y-70440000D03*
X119060000Y-69940000D03*
X119060000Y-69440000D03*
X119060000Y-68940000D03*
X119060000Y-68440000D03*
X119060000Y-67940000D03*
D76*
X112900000Y-66450000D03*
X118850000Y-66810000D03*
X118850000Y-75070000D03*
X112900000Y-75430000D03*
%TD*%
D15*
%TO.C,C44*%
X136168500Y-101744000D03*
X134443500Y-101744000D03*
%TD*%
D26*
%TO.C,R67*%
X127131000Y-73244000D03*
X125481000Y-73244000D03*
%TD*%
D15*
%TO.C,C56*%
X131968500Y-76444000D03*
X130243500Y-76444000D03*
%TD*%
D28*
%TO.C,R30*%
X157418500Y-75386500D03*
X155593500Y-75386500D03*
%TD*%
M02*
