%TF.GenerationSoftware,KiCad,Pcbnew,9.0.0*%
%TF.CreationDate,2025-04-10T22:59:03-04:00*%
%TF.ProjectId,USBLabTool,5553424c-6162-4546-9f6f-6c2e6b696361,2*%
%TF.SameCoordinates,Original*%
%TF.FileFunction,Copper,L4,Bot*%
%TF.FilePolarity,Positive*%
%FSLAX46Y46*%
G04 Gerber Fmt 4.6, Leading zero omitted, Abs format (unit mm)*
G04 Created by KiCad (PCBNEW 9.0.0) date 2025-04-10 22:59:03*
%MOMM*%
%LPD*%
G01*
G04 APERTURE LIST*
G04 Aperture macros list*
%AMRoundRect*
0 Rectangle with rounded corners*
0 $1 Rounding radius*
0 $2 $3 $4 $5 $6 $7 $8 $9 X,Y pos of 4 corners*
0 Add a 4 corners polygon primitive as box body*
4,1,4,$2,$3,$4,$5,$6,$7,$8,$9,$2,$3,0*
0 Add four circle primitives for the rounded corners*
1,1,$1+$1,$2,$3*
1,1,$1+$1,$4,$5*
1,1,$1+$1,$6,$7*
1,1,$1+$1,$8,$9*
0 Add four rect primitives between the rounded corners*
20,1,$1+$1,$2,$3,$4,$5,0*
20,1,$1+$1,$4,$5,$6,$7,0*
20,1,$1+$1,$6,$7,$8,$9,0*
20,1,$1+$1,$8,$9,$2,$3,0*%
%AMFreePoly0*
4,1,23,0.500000,-0.750000,0.000000,-0.750000,0.000000,-0.745722,-0.065263,-0.745722,-0.191342,-0.711940,-0.304381,-0.646677,-0.396677,-0.554381,-0.461940,-0.441342,-0.495722,-0.315263,-0.495722,-0.250000,-0.500000,-0.250000,-0.500000,0.250000,-0.495722,0.250000,-0.495722,0.315263,-0.461940,0.441342,-0.396677,0.554381,-0.304381,0.646677,-0.191342,0.711940,-0.065263,0.745722,0.000000,0.745722,
0.000000,0.750000,0.500000,0.750000,0.500000,-0.750000,0.500000,-0.750000,$1*%
%AMFreePoly1*
4,1,23,0.000000,0.745722,0.065263,0.745722,0.191342,0.711940,0.304381,0.646677,0.396677,0.554381,0.461940,0.441342,0.495722,0.315263,0.495722,0.250000,0.500000,0.250000,0.500000,-0.250000,0.495722,-0.250000,0.495722,-0.315263,0.461940,-0.441342,0.396677,-0.554381,0.304381,-0.646677,0.191342,-0.711940,0.065263,-0.745722,0.000000,-0.745722,0.000000,-0.750000,-0.500000,-0.750000,
-0.500000,0.750000,0.000000,0.750000,0.000000,0.745722,0.000000,0.745722,$1*%
G04 Aperture macros list end*
%TA.AperFunction,ComponentPad*%
%ADD10R,1.700000X1.700000*%
%TD*%
%TA.AperFunction,ComponentPad*%
%ADD11O,1.700000X1.700000*%
%TD*%
%TA.AperFunction,ComponentPad*%
%ADD12R,1.508000X1.508000*%
%TD*%
%TA.AperFunction,ComponentPad*%
%ADD13C,1.508000*%
%TD*%
%TA.AperFunction,ComponentPad*%
%ADD14R,1.800000X1.800000*%
%TD*%
%TA.AperFunction,ComponentPad*%
%ADD15C,1.800000*%
%TD*%
%TA.AperFunction,ComponentPad*%
%ADD16R,1.400000X1.400000*%
%TD*%
%TA.AperFunction,ComponentPad*%
%ADD17C,1.400000*%
%TD*%
%TA.AperFunction,HeatsinkPad*%
%ADD18O,1.400000X0.800000*%
%TD*%
%TA.AperFunction,SMDPad,CuDef*%
%ADD19RoundRect,0.200000X0.275000X-0.200000X0.275000X0.200000X-0.275000X0.200000X-0.275000X-0.200000X0*%
%TD*%
%TA.AperFunction,SMDPad,CuDef*%
%ADD20RoundRect,0.100000X-0.217500X-0.100000X0.217500X-0.100000X0.217500X0.100000X-0.217500X0.100000X0*%
%TD*%
%TA.AperFunction,SMDPad,CuDef*%
%ADD21RoundRect,0.237500X0.300000X0.237500X-0.300000X0.237500X-0.300000X-0.237500X0.300000X-0.237500X0*%
%TD*%
%TA.AperFunction,SMDPad,CuDef*%
%ADD22RoundRect,0.250000X0.250000X-0.250000X0.250000X0.250000X-0.250000X0.250000X-0.250000X-0.250000X0*%
%TD*%
%TA.AperFunction,SMDPad,CuDef*%
%ADD23RoundRect,0.200000X-0.275000X0.200000X-0.275000X-0.200000X0.275000X-0.200000X0.275000X0.200000X0*%
%TD*%
%TA.AperFunction,SMDPad,CuDef*%
%ADD24RoundRect,0.100000X-0.100000X0.217500X-0.100000X-0.217500X0.100000X-0.217500X0.100000X0.217500X0*%
%TD*%
%TA.AperFunction,SMDPad,CuDef*%
%ADD25RoundRect,0.137500X-0.587500X-0.137500X0.587500X-0.137500X0.587500X0.137500X-0.587500X0.137500X0*%
%TD*%
%TA.AperFunction,SMDPad,CuDef*%
%ADD26RoundRect,0.100000X0.100000X-0.217500X0.100000X0.217500X-0.100000X0.217500X-0.100000X-0.217500X0*%
%TD*%
%TA.AperFunction,SMDPad,CuDef*%
%ADD27RoundRect,0.237500X0.237500X-0.300000X0.237500X0.300000X-0.237500X0.300000X-0.237500X-0.300000X0*%
%TD*%
%TA.AperFunction,SMDPad,CuDef*%
%ADD28RoundRect,0.237500X-0.237500X0.300000X-0.237500X-0.300000X0.237500X-0.300000X0.237500X0.300000X0*%
%TD*%
%TA.AperFunction,SMDPad,CuDef*%
%ADD29RoundRect,0.237500X0.250000X0.237500X-0.250000X0.237500X-0.250000X-0.237500X0.250000X-0.237500X0*%
%TD*%
%TA.AperFunction,SMDPad,CuDef*%
%ADD30RoundRect,0.237500X-0.300000X-0.237500X0.300000X-0.237500X0.300000X0.237500X-0.300000X0.237500X0*%
%TD*%
%TA.AperFunction,SMDPad,CuDef*%
%ADD31RoundRect,0.237500X-0.237500X0.250000X-0.237500X-0.250000X0.237500X-0.250000X0.237500X0.250000X0*%
%TD*%
%TA.AperFunction,SMDPad,CuDef*%
%ADD32RoundRect,0.250000X-0.337500X-0.475000X0.337500X-0.475000X0.337500X0.475000X-0.337500X0.475000X0*%
%TD*%
%TA.AperFunction,SMDPad,CuDef*%
%ADD33R,0.812800X0.254000*%
%TD*%
%TA.AperFunction,SMDPad,CuDef*%
%ADD34R,0.254000X0.812800*%
%TD*%
%TA.AperFunction,SMDPad,CuDef*%
%ADD35R,1.549400X1.549400*%
%TD*%
%TA.AperFunction,SMDPad,CuDef*%
%ADD36R,0.304800X0.228600*%
%TD*%
%TA.AperFunction,SMDPad,CuDef*%
%ADD37R,0.812800X0.406400*%
%TD*%
%TA.AperFunction,SMDPad,CuDef*%
%ADD38R,1.752600X2.489200*%
%TD*%
%TA.AperFunction,SMDPad,CuDef*%
%ADD39RoundRect,0.237500X0.237500X-0.250000X0.237500X0.250000X-0.237500X0.250000X-0.237500X-0.250000X0*%
%TD*%
%TA.AperFunction,SMDPad,CuDef*%
%ADD40RoundRect,0.150000X0.150000X0.200000X-0.150000X0.200000X-0.150000X-0.200000X0.150000X-0.200000X0*%
%TD*%
%TA.AperFunction,SMDPad,CuDef*%
%ADD41FreePoly0,270.000000*%
%TD*%
%TA.AperFunction,SMDPad,CuDef*%
%ADD42FreePoly1,270.000000*%
%TD*%
%TA.AperFunction,SMDPad,CuDef*%
%ADD43RoundRect,0.062500X0.300000X0.062500X-0.300000X0.062500X-0.300000X-0.062500X0.300000X-0.062500X0*%
%TD*%
%TA.AperFunction,HeatsinkPad*%
%ADD44R,1.400000X2.550000*%
%TD*%
%TA.AperFunction,SMDPad,CuDef*%
%ADD45RoundRect,0.237500X-0.250000X-0.237500X0.250000X-0.237500X0.250000X0.237500X-0.250000X0.237500X0*%
%TD*%
%TA.AperFunction,SMDPad,CuDef*%
%ADD46RoundRect,0.250000X0.325000X0.450000X-0.325000X0.450000X-0.325000X-0.450000X0.325000X-0.450000X0*%
%TD*%
%TA.AperFunction,SMDPad,CuDef*%
%ADD47RoundRect,0.250000X-0.250000X0.250000X-0.250000X-0.250000X0.250000X-0.250000X0.250000X0.250000X0*%
%TD*%
%TA.AperFunction,SMDPad,CuDef*%
%ADD48RoundRect,0.237500X0.237500X-0.287500X0.237500X0.287500X-0.237500X0.287500X-0.237500X-0.287500X0*%
%TD*%
%TA.AperFunction,SMDPad,CuDef*%
%ADD49RoundRect,0.250000X0.475000X-0.337500X0.475000X0.337500X-0.475000X0.337500X-0.475000X-0.337500X0*%
%TD*%
%TA.AperFunction,SMDPad,CuDef*%
%ADD50RoundRect,0.150000X-0.587500X-0.150000X0.587500X-0.150000X0.587500X0.150000X-0.587500X0.150000X0*%
%TD*%
%TA.AperFunction,SMDPad,CuDef*%
%ADD51R,1.750000X1.800000*%
%TD*%
%TA.AperFunction,SMDPad,CuDef*%
%ADD52R,0.406400X0.812800*%
%TD*%
%TA.AperFunction,SMDPad,CuDef*%
%ADD53R,2.489200X1.752600*%
%TD*%
%TA.AperFunction,SMDPad,CuDef*%
%ADD54RoundRect,0.100000X0.217500X0.100000X-0.217500X0.100000X-0.217500X-0.100000X0.217500X-0.100000X0*%
%TD*%
%TA.AperFunction,SMDPad,CuDef*%
%ADD55RoundRect,0.162500X0.617500X0.162500X-0.617500X0.162500X-0.617500X-0.162500X0.617500X-0.162500X0*%
%TD*%
%TA.AperFunction,SMDPad,CuDef*%
%ADD56RoundRect,0.200000X0.200000X0.275000X-0.200000X0.275000X-0.200000X-0.275000X0.200000X-0.275000X0*%
%TD*%
%TA.AperFunction,SMDPad,CuDef*%
%ADD57R,0.550000X0.800000*%
%TD*%
%TA.AperFunction,SMDPad,CuDef*%
%ADD58RoundRect,0.200000X-0.200000X-0.275000X0.200000X-0.275000X0.200000X0.275000X-0.200000X0.275000X0*%
%TD*%
%TA.AperFunction,SMDPad,CuDef*%
%ADD59RoundRect,0.150000X-0.512500X-0.150000X0.512500X-0.150000X0.512500X0.150000X-0.512500X0.150000X0*%
%TD*%
%TA.AperFunction,SMDPad,CuDef*%
%ADD60FreePoly0,0.000000*%
%TD*%
%TA.AperFunction,SMDPad,CuDef*%
%ADD61FreePoly1,0.000000*%
%TD*%
%TA.AperFunction,SMDPad,CuDef*%
%ADD62RoundRect,0.100000X0.637500X0.100000X-0.637500X0.100000X-0.637500X-0.100000X0.637500X-0.100000X0*%
%TD*%
%TA.AperFunction,ViaPad*%
%ADD63C,0.600000*%
%TD*%
%TA.AperFunction,Conductor*%
%ADD64C,0.400000*%
%TD*%
%TA.AperFunction,Conductor*%
%ADD65C,0.200000*%
%TD*%
G04 APERTURE END LIST*
D10*
%TO.P,J17,1,Pin_1*%
%TO.N,+12VA*%
X111906000Y-81384000D03*
D11*
%TO.P,J17,2,Pin_2*%
%TO.N,-12VA*%
X111906000Y-78844000D03*
%TD*%
D10*
%TO.P,J19,1,Pin_1*%
%TO.N,-5V*%
X178000000Y-119250000D03*
%TD*%
D12*
%TO.P,SW1,1,1*%
%TO.N,NRST*%
X153750000Y-95750000D03*
D13*
%TO.P,SW1,2,2*%
X160250000Y-95750000D03*
%TO.P,SW1,3,K*%
%TO.N,GND*%
X153750000Y-100250000D03*
%TO.P,SW1,4,A*%
X160250000Y-100250000D03*
%TD*%
D14*
%TO.P,D7,1,K*%
%TO.N,Net-(D7-K)*%
X135506000Y-68044000D03*
D15*
%TO.P,D7,2,A*%
%TO.N,+5V*%
X135506000Y-70584000D03*
%TD*%
D10*
%TO.P,J1,1,Pin_1*%
%TO.N,+3.3V*%
X121756000Y-119444000D03*
D11*
%TO.P,J1,2,Pin_2*%
%TO.N,DEBUG_JTCK_SWCLK*%
X124296000Y-119444000D03*
%TO.P,J1,3,Pin_3*%
%TO.N,GND*%
X126836000Y-119444000D03*
%TO.P,J1,4,Pin_4*%
%TO.N,DEBUG_JTMS-SWDI0*%
X129376000Y-119444000D03*
%TO.P,J1,5,Pin_5*%
%TO.N,NRST*%
X131916000Y-119444000D03*
%TO.P,J1,6,Pin_6*%
%TO.N,DEBUG_JTD-SW0*%
X134456000Y-119444000D03*
%TD*%
D14*
%TO.P,J2,1,Pin_1*%
%TO.N,P_CH0_IN*%
X169746000Y-108244000D03*
D15*
%TO.P,J2,2,Pin_2*%
%TO.N,P_CH1_IN*%
X169746000Y-110784000D03*
%TO.P,J2,3,Pin_3*%
%TO.N,GND*%
X167206000Y-108244000D03*
%TO.P,J2,4,Pin_4*%
%TO.N,GNDA*%
X167206000Y-110784000D03*
%TO.P,J2,5,Pin_5*%
%TO.N,LOGIC_INP7*%
X164666000Y-108244000D03*
%TO.P,J2,6,Pin_6*%
%TO.N,LOGIC_INP15*%
X164666000Y-110784000D03*
%TO.P,J2,7,Pin_7*%
%TO.N,LOGIC_INP6*%
X162126000Y-108244000D03*
%TO.P,J2,8,Pin_8*%
%TO.N,LOGIC_INP14*%
X162126000Y-110784000D03*
%TO.P,J2,9,Pin_9*%
%TO.N,LOGIC_INP5*%
X159586000Y-108244000D03*
%TO.P,J2,10,Pin_10*%
%TO.N,LOGIC_INP13*%
X159586000Y-110784000D03*
%TO.P,J2,11,Pin_11*%
%TO.N,LOGIC_INP4*%
X157046000Y-108244000D03*
%TO.P,J2,12,Pin_12*%
%TO.N,LOGIC_INP12*%
X157046000Y-110784000D03*
%TO.P,J2,13,Pin_13*%
%TO.N,LOGIC_INP3*%
X154506000Y-108244000D03*
%TO.P,J2,14,Pin_14*%
%TO.N,LOGIC_INP11*%
X154506000Y-110784000D03*
%TO.P,J2,15,Pin_15*%
%TO.N,LOGIC_INP2*%
X151966000Y-108244000D03*
%TO.P,J2,16,Pin_16*%
%TO.N,LOGIC_INP10*%
X151966000Y-110784000D03*
%TO.P,J2,17,Pin_17*%
%TO.N,LOGIC_INP1*%
X149426000Y-108244000D03*
%TO.P,J2,18,Pin_18*%
%TO.N,LOGIC_INP9*%
X149426000Y-110784000D03*
%TO.P,J2,19,Pin_19*%
%TO.N,LOGIC_INP0*%
X146886000Y-108244000D03*
%TO.P,J2,20,Pin_20*%
%TO.N,LOGIC_INP8*%
X146886000Y-110784000D03*
%TO.P,J2,21,Pin_21*%
%TO.N,GND*%
X144346000Y-108244000D03*
%TO.P,J2,22,Pin_22*%
%TO.N,GNDA*%
X144346000Y-110784000D03*
%TO.P,J2,23,Pin_23*%
%TO.N,DAC1_OUT1*%
X141806000Y-108244000D03*
%TO.P,J2,24,Pin_24*%
%TO.N,DAC1_OUT2*%
X141806000Y-110784000D03*
%TD*%
D16*
%TO.P,K2,1*%
%TO.N,GND*%
X179506000Y-76144000D03*
D17*
%TO.P,K2,4*%
%TO.N,Net-(C10-Pad1)*%
X179506000Y-83764000D03*
%TO.P,K2,6*%
%TO.N,Net-(C5-Pad2)*%
X179506000Y-88844000D03*
%TO.P,K2,8*%
%TO.N,Net-(C7-Pad2)*%
X179506000Y-93924000D03*
%TO.P,K2,9*%
%TO.N,Net-(C7-Pad1)*%
X187126000Y-93924000D03*
%TO.P,K2,11*%
%TO.N,Net-(C6-Pad2)*%
X187126000Y-88844000D03*
%TO.P,K2,13*%
%TO.N,P_CH0_IN*%
X187126000Y-83764000D03*
%TO.P,K2,16*%
%TO.N,CH0_attenuate*%
X187126000Y-76144000D03*
%TD*%
D16*
%TO.P,K1,1*%
%TO.N,GND*%
X183637250Y-97112750D03*
D17*
%TO.P,K1,4*%
%TO.N,Net-(C9-Pad1)*%
X176017250Y-97112750D03*
%TO.P,K1,6*%
%TO.N,Net-(C1-Pad2)*%
X170937250Y-97112750D03*
%TO.P,K1,8*%
%TO.N,Net-(C3-Pad2)*%
X165857250Y-97112750D03*
%TO.P,K1,9*%
%TO.N,Net-(C3-Pad1)*%
X165857250Y-104732750D03*
%TO.P,K1,11*%
%TO.N,Net-(C2-Pad2)*%
X170937250Y-104732750D03*
%TO.P,K1,13*%
%TO.N,P_CH1_IN*%
X176017250Y-104732750D03*
%TO.P,K1,16*%
%TO.N,CH1_attenuate*%
X183637250Y-104732750D03*
%TD*%
D18*
%TO.P,J20,S1,SHIELD*%
%TO.N,GND*%
X112900000Y-66450000D03*
X118850000Y-66810000D03*
X118850000Y-75070000D03*
X112900000Y-75430000D03*
%TD*%
D19*
%TO.P,R60,1*%
%TO.N,Net-(U13-Vfb2)*%
X119000000Y-120750000D03*
%TO.P,R60,2*%
%TO.N,Net-(U13-Vref)*%
X119000000Y-119100000D03*
%TD*%
D20*
%TO.P,C35,1*%
%TO.N,GND*%
X155731000Y-91244000D03*
%TO.P,C35,2*%
%TO.N,Net-(C35-Pad2)*%
X156546000Y-91244000D03*
%TD*%
D21*
%TO.P,C52,1*%
%TO.N,+3.3V*%
X145262500Y-94700000D03*
%TO.P,C52,2*%
%TO.N,GND*%
X143537500Y-94700000D03*
%TD*%
D22*
%TO.P,D6,1,K*%
%TO.N,Net-(D6-K)*%
X127250000Y-111750000D03*
%TO.P,D6,2,A*%
%TO.N,-12VA*%
X127250000Y-109250000D03*
%TD*%
D23*
%TO.P,R70,1*%
%TO.N,LOGIC_INP13*%
X159550000Y-113400000D03*
%TO.P,R70,2*%
%TO.N,GND*%
X159550000Y-115050000D03*
%TD*%
D24*
%TO.P,C72,1*%
%TO.N,GND*%
X131925000Y-69925000D03*
%TO.P,C72,2*%
%TO.N,Net-(J20-CC1)*%
X131925000Y-70740000D03*
%TD*%
D25*
%TO.P,U1,1*%
%TO.N,Net-(R9-Pad1)*%
X165806000Y-94784000D03*
%TO.P,U1,2*%
%TO.N,GND*%
X165806000Y-92244000D03*
%TO.P,U1,3*%
%TO.N,Net-(U4-+IN_A)*%
X171306000Y-92244000D03*
%TO.P,U1,4*%
%TO.N,Net-(C9-Pad1)*%
X171306000Y-94784000D03*
%TD*%
D26*
%TO.P,C73,1*%
%TO.N,GND*%
X117556000Y-73901500D03*
%TO.P,C73,2*%
%TO.N,Net-(J20-CC2)*%
X117556000Y-73086500D03*
%TD*%
D27*
%TO.P,C1,1*%
%TO.N,GNDA*%
X168806000Y-101969000D03*
%TO.P,C1,2*%
%TO.N,Net-(C1-Pad2)*%
X168806000Y-100244000D03*
%TD*%
D21*
%TO.P,C22,1*%
%TO.N,GNDA*%
X155068500Y-78944000D03*
%TO.P,C22,2*%
%TO.N,+5VCLEAN*%
X153343500Y-78944000D03*
%TD*%
D28*
%TO.P,C2,1*%
%TO.N,Net-(C1-Pad2)*%
X173306000Y-100244000D03*
%TO.P,C2,2*%
%TO.N,Net-(C2-Pad2)*%
X173306000Y-101969000D03*
%TD*%
D23*
%TO.P,R35,1*%
%TO.N,-5VCLEAN*%
X125506000Y-96644000D03*
%TO.P,R35,2*%
%TO.N,/AWG_FrontEnd/C0_FB*%
X125506000Y-98294000D03*
%TD*%
D28*
%TO.P,C4,1*%
%TO.N,Net-(C3-Pad2)*%
X166997250Y-100302750D03*
%TO.P,C4,2*%
%TO.N,GNDA*%
X166997250Y-102027750D03*
%TD*%
D19*
%TO.P,R71,1*%
%TO.N,GND*%
X149550000Y-115050000D03*
%TO.P,R71,2*%
%TO.N,LOGIC_INP9*%
X149550000Y-113400000D03*
%TD*%
D27*
%TO.P,C9,1*%
%TO.N,Net-(C9-Pad1)*%
X173306000Y-94546500D03*
%TO.P,C9,2*%
%TO.N,Net-(U4-+IN_A)*%
X173306000Y-92821500D03*
%TD*%
%TO.P,C24,1*%
%TO.N,-5VCLEAN*%
X157237412Y-80106500D03*
%TO.P,C24,2*%
%TO.N,GNDA*%
X157237412Y-78381500D03*
%TD*%
D29*
%TO.P,R5,1*%
%TO.N,GNDA*%
X185106000Y-83444000D03*
%TO.P,R5,2*%
%TO.N,Net-(C5-Pad2)*%
X183281000Y-83444000D03*
%TD*%
D23*
%TO.P,R57,1*%
%TO.N,LOGIC_INP15*%
X164550000Y-113400000D03*
%TO.P,R57,2*%
%TO.N,GND*%
X164550000Y-115050000D03*
%TD*%
D30*
%TO.P,C14,1*%
%TO.N,+5VCLEAN*%
X158443500Y-83644000D03*
%TO.P,C14,2*%
%TO.N,GNDA*%
X160168500Y-83644000D03*
%TD*%
D31*
%TO.P,R16,1*%
%TO.N,Net-(U3-4Z)*%
X168306000Y-88444000D03*
%TO.P,R16,2*%
%TO.N,Net-(U4-OUT_A)*%
X168306000Y-90269000D03*
%TD*%
D32*
%TO.P,C51,1*%
%TO.N,GNDA*%
X118462500Y-112750000D03*
%TO.P,C51,2*%
%TO.N,-12VA*%
X120537500Y-112750000D03*
%TD*%
D33*
%TO.P,U17,1,CC2*%
%TO.N,UCPD_CC2*%
X130706000Y-69968998D03*
%TO.P,U17,2,GND*%
%TO.N,GND*%
X130706000Y-70468997D03*
%TO.P,U17,3,CC1*%
%TO.N,UCPD_CC1*%
X130706000Y-70968996D03*
D34*
%TO.P,U17,4,SOURCE*%
%TO.N,+5V*%
X129783599Y-71891397D03*
%TO.P,U17,5,GATE*%
%TO.N,Net-(Q1-G)*%
X129283600Y-71891397D03*
%TO.P,U17,6,VBUS_CTRL*%
%TO.N,Net-(U17-VBUS_CTRL)*%
X128783601Y-71891397D03*
D33*
%TO.P,U17,7,CC1c*%
%TO.N,Net-(J20-CC1)*%
X127861200Y-70968996D03*
%TO.P,U17,8,IN_GD*%
%TO.N,Net-(D10-K)*%
X127861200Y-70468997D03*
%TO.P,U17,9,CC2c*%
%TO.N,Net-(J20-CC2)*%
X127861200Y-69968998D03*
D34*
%TO.P,U17,10,DB/*%
%TO.N,USCPD_DBn*%
X128783601Y-69046597D03*
%TO.P,U17,11,FLT/*%
%TO.N,UCPD_FLT*%
X129283600Y-69046597D03*
%TO.P,U17,12,VCC*%
%TO.N,+3.3V*%
X129783599Y-69046597D03*
D35*
%TO.P,U17,13,GND*%
%TO.N,GND*%
X129283600Y-70468997D03*
%TD*%
D31*
%TO.P,R13,1*%
%TO.N,Net-(U3-1Z)*%
X171506000Y-88444000D03*
%TO.P,R13,2*%
%TO.N,Net-(U4-OUT_A)*%
X171506000Y-90269000D03*
%TD*%
D21*
%TO.P,C53,1*%
%TO.N,+3.3V*%
X145262500Y-93100000D03*
%TO.P,C53,2*%
%TO.N,GND*%
X143537500Y-93100000D03*
%TD*%
D36*
%TO.P,CR2,1,1*%
%TO.N,NRST*%
X149106000Y-90888400D03*
%TO.P,CR2,2,2*%
%TO.N,GND*%
X149106000Y-91244000D03*
%TD*%
D31*
%TO.P,R1,1*%
%TO.N,Net-(C3-Pad2)*%
X163906000Y-100331500D03*
%TO.P,R1,2*%
%TO.N,Net-(C3-Pad1)*%
X163906000Y-102156500D03*
%TD*%
D21*
%TO.P,C28,1*%
%TO.N,+3.3VA*%
X151168500Y-88244000D03*
%TO.P,C28,2*%
%TO.N,GNDA*%
X149443500Y-88244000D03*
%TD*%
D37*
%TO.P,U14,1,NC*%
%TO.N,unconnected-(U14-NC-Pad1)*%
X131951600Y-74744000D03*
%TO.P,U14,2,VO*%
%TO.N,+3.3V*%
X131951600Y-75694001D03*
%TO.P,U14,3,VI*%
%TO.N,Net-(D8-K)*%
X131951600Y-76644002D03*
%TO.P,U14,4,NC*%
%TO.N,unconnected-(U14-NC-Pad4)*%
X129056000Y-76644002D03*
%TO.P,U14,5,NC*%
%TO.N,unconnected-(U14-NC-Pad5)*%
X129056000Y-75694001D03*
%TO.P,U14,6,GND*%
%TO.N,GND*%
X129056000Y-74744000D03*
D38*
%TO.P,U14,7,GND*%
X130503800Y-75694001D03*
%TD*%
D39*
%TO.P,R32,1*%
%TO.N,Net-(U8--)*%
X150706000Y-82044000D03*
%TO.P,R32,2*%
%TO.N,ADC1_INP0*%
X150706000Y-80219000D03*
%TD*%
D40*
%TO.P,D10,1,K*%
%TO.N,Net-(D10-K)*%
X126250000Y-73250000D03*
%TO.P,D10,2,A*%
%TO.N,Net-(D10-A)*%
X127650000Y-73250000D03*
%TD*%
D19*
%TO.P,R75,1*%
%TO.N,LOGIC_INP3*%
X152150000Y-103900000D03*
%TO.P,R75,2*%
%TO.N,GND*%
X152150000Y-102250000D03*
%TD*%
D29*
%TO.P,R82,1*%
%TO.N,RCC_OSC32_IN*%
X160262500Y-94375000D03*
%TO.P,R82,2*%
%TO.N,Net-(C35-Pad2)*%
X158437500Y-94375000D03*
%TD*%
D41*
%TO.P,JP5,1,A*%
%TO.N,UCPD_CC2*%
X113400000Y-71525000D03*
D42*
%TO.P,JP5,2,B*%
%TO.N,Net-(J20-CC2)*%
X113400000Y-72825000D03*
%TD*%
D28*
%TO.P,C75,1*%
%TO.N,NRST*%
X147325000Y-91212500D03*
%TO.P,C75,2*%
%TO.N,GND*%
X147325000Y-92937500D03*
%TD*%
D43*
%TO.P,U13,1,NC*%
%TO.N,unconnected-(U13-NC-Pad1)*%
X121250000Y-114500000D03*
%TO.P,U13,2,Lx1*%
%TO.N,Net-(D5-A)*%
X121250000Y-115000000D03*
%TO.P,U13,3,Lx2*%
%TO.N,Net-(D6-K)*%
X121250000Y-115500000D03*
%TO.P,U13,4,Voutn*%
%TO.N,-12VA*%
X121250000Y-116000000D03*
%TO.P,U13,5,CE*%
%TO.N,+5V*%
X121250000Y-116500000D03*
%TO.P,U13,6,Vfb2*%
%TO.N,Net-(U13-Vfb2)*%
X121250000Y-117000000D03*
%TO.P,U13,7,Vref*%
%TO.N,Net-(U13-Vref)*%
X118225000Y-117000000D03*
%TO.P,U13,8,Vcc*%
%TO.N,+5V*%
X118225000Y-116500000D03*
%TO.P,U13,9,Vfb1*%
%TO.N,Net-(U13-Vfb1)*%
X118225000Y-116000000D03*
%TO.P,U13,10,GND*%
%TO.N,GND*%
X118225000Y-115500000D03*
%TO.P,U13,11,PVcc*%
%TO.N,+5V*%
X118225000Y-115000000D03*
%TO.P,U13,12,PGND*%
%TO.N,GND*%
X118225000Y-114500000D03*
D44*
%TO.P,U13,13,GND*%
X119737500Y-115750000D03*
%TD*%
D31*
%TO.P,R4,1*%
%TO.N,Net-(C1-Pad2)*%
X171806000Y-100194000D03*
%TO.P,R4,2*%
%TO.N,Net-(C2-Pad2)*%
X171806000Y-102019000D03*
%TD*%
D30*
%TO.P,C58,1*%
%TO.N,GND*%
X143537500Y-91500000D03*
%TO.P,C58,2*%
%TO.N,+3.3V*%
X145262500Y-91500000D03*
%TD*%
D45*
%TO.P,R83,1*%
%TO.N,RCC_OSC32_OUT*%
X148875000Y-94100000D03*
%TO.P,R83,2*%
%TO.N,Net-(C36-Pad2)*%
X150700000Y-94100000D03*
%TD*%
D30*
%TO.P,C26,1*%
%TO.N,ADC1_INP0*%
X152843500Y-84844000D03*
%TO.P,C26,2*%
%TO.N,GNDA*%
X154568500Y-84844000D03*
%TD*%
D39*
%TO.P,R2,1*%
%TO.N,GNDA*%
X165497250Y-102077750D03*
%TO.P,R2,2*%
%TO.N,Net-(C3-Pad2)*%
X165497250Y-100252750D03*
%TD*%
D30*
%TO.P,C57,1*%
%TO.N,+3.3VA*%
X142966000Y-81244000D03*
%TO.P,C57,2*%
%TO.N,GNDA*%
X144691000Y-81244000D03*
%TD*%
D46*
%TO.P,C31,1*%
%TO.N,Net-(C31-Pad1)*%
X141647620Y-91700000D03*
%TO.P,C31,2*%
%TO.N,Net-(C31-Pad2)*%
X139597620Y-91700000D03*
%TD*%
D47*
%TO.P,D5,1,K*%
%TO.N,+12VA*%
X122750000Y-108000000D03*
%TO.P,D5,2,A*%
%TO.N,Net-(D5-A)*%
X122750000Y-110500000D03*
%TD*%
D28*
%TO.P,C68,1*%
%TO.N,+5VCLEAN*%
X177306000Y-110581500D03*
%TO.P,C68,2*%
%TO.N,GNDA*%
X177306000Y-112306500D03*
%TD*%
D30*
%TO.P,C47,1*%
%TO.N,+12VA*%
X125443500Y-85444000D03*
%TO.P,C47,2*%
%TO.N,GNDA*%
X127168500Y-85444000D03*
%TD*%
D19*
%TO.P,R37,1*%
%TO.N,-5VCLEAN*%
X125506000Y-95269000D03*
%TO.P,R37,2*%
%TO.N,/AWG_FrontEnd/C1_FB*%
X125506000Y-93619000D03*
%TD*%
D23*
%TO.P,R74,1*%
%TO.N,GND*%
X162150000Y-102250000D03*
%TO.P,R74,2*%
%TO.N,LOGIC_INP7*%
X162150000Y-103900000D03*
%TD*%
D48*
%TO.P,L8,1,1*%
%TO.N,-5V*%
X178750000Y-100625000D03*
%TO.P,L8,2,2*%
%TO.N,-5VCLEAN*%
X178750000Y-98875000D03*
%TD*%
D21*
%TO.P,C5,1*%
%TO.N,GNDA*%
X185056000Y-81844000D03*
%TO.P,C5,2*%
%TO.N,Net-(C5-Pad2)*%
X183331000Y-81844000D03*
%TD*%
D31*
%TO.P,R14,1*%
%TO.N,Net-(U3-2Z)*%
X169906000Y-88444000D03*
%TO.P,R14,2*%
%TO.N,Net-(U4-OUT_A)*%
X169906000Y-90269000D03*
%TD*%
D23*
%TO.P,R68,1*%
%TO.N,LOGIC_INP14*%
X162050000Y-113400000D03*
%TO.P,R68,2*%
%TO.N,GND*%
X162050000Y-115050000D03*
%TD*%
%TO.P,R61,1*%
%TO.N,+12VA*%
X119250000Y-108000000D03*
%TO.P,R61,2*%
%TO.N,Net-(C45-Pad1)*%
X119250000Y-109650000D03*
%TD*%
D32*
%TO.P,C50,1*%
%TO.N,+12VA*%
X120712500Y-103000000D03*
%TO.P,C50,2*%
%TO.N,GNDA*%
X122787500Y-103000000D03*
%TD*%
D23*
%TO.P,R78,1*%
%TO.N,GND*%
X157150000Y-102250000D03*
%TO.P,R78,2*%
%TO.N,LOGIC_INP5*%
X157150000Y-103900000D03*
%TD*%
D28*
%TO.P,C40,1*%
%TO.N,GND*%
X123906000Y-80500000D03*
%TO.P,C40,2*%
%TO.N,+12VA*%
X123906000Y-82225000D03*
%TD*%
D19*
%TO.P,R79,1*%
%TO.N,LOGIC_INP1*%
X147150000Y-103900000D03*
%TO.P,R79,2*%
%TO.N,GND*%
X147150000Y-102250000D03*
%TD*%
D39*
%TO.P,R3,1*%
%TO.N,GNDA*%
X170306000Y-102019000D03*
%TO.P,R3,2*%
%TO.N,Net-(C1-Pad2)*%
X170306000Y-100194000D03*
%TD*%
D23*
%TO.P,R80,1*%
%TO.N,GND*%
X154650000Y-102250000D03*
%TO.P,R80,2*%
%TO.N,LOGIC_INP4*%
X154650000Y-103900000D03*
%TD*%
D19*
%TO.P,R77,1*%
%TO.N,LOGIC_INP2*%
X149650000Y-103900000D03*
%TO.P,R77,2*%
%TO.N,GND*%
X149650000Y-102250000D03*
%TD*%
D30*
%TO.P,C8,1*%
%TO.N,Net-(C7-Pad2)*%
X183331000Y-93886500D03*
%TO.P,C8,2*%
%TO.N,GNDA*%
X185056000Y-93886500D03*
%TD*%
D19*
%TO.P,R65,1*%
%TO.N,GND*%
X154550000Y-115050000D03*
%TO.P,R65,2*%
%TO.N,LOGIC_INP11*%
X154550000Y-113400000D03*
%TD*%
D49*
%TO.P,C37,1*%
%TO.N,+5V*%
X115000000Y-115075000D03*
%TO.P,C37,2*%
%TO.N,GND*%
X115000000Y-113000000D03*
%TD*%
D19*
%TO.P,R73,1*%
%TO.N,GND*%
X147020000Y-115050000D03*
%TO.P,R73,2*%
%TO.N,LOGIC_INP8*%
X147020000Y-113400000D03*
%TD*%
D30*
%TO.P,C11,1*%
%TO.N,-5VCLEAN*%
X158775000Y-90844000D03*
%TO.P,C11,2*%
%TO.N,GNDA*%
X160500000Y-90844000D03*
%TD*%
D45*
%TO.P,R19,1*%
%TO.N,Net-(U5-3Z)*%
X148993500Y-73644000D03*
%TO.P,R19,2*%
%TO.N,Net-(U6-OUT_A)*%
X150818500Y-73644000D03*
%TD*%
%TO.P,R11,1*%
%TO.N,GNDA*%
X154837500Y-90000000D03*
%TO.P,R11,2*%
%TO.N,Net-(U3-1Y)*%
X156662500Y-90000000D03*
%TD*%
D30*
%TO.P,C54,1*%
%TO.N,+3.3VA*%
X142906000Y-78339000D03*
%TO.P,C54,2*%
%TO.N,GNDA*%
X144631000Y-78339000D03*
%TD*%
D50*
%TO.P,D4,1,K*%
%TO.N,+3.3VA*%
X153250000Y-88450000D03*
%TO.P,D4,2,A*%
%TO.N,GNDA*%
X153250000Y-86550000D03*
%TO.P,D4,3,K*%
%TO.N,ADC1_INP0*%
X155125000Y-87500000D03*
%TD*%
D23*
%TO.P,R76,1*%
%TO.N,GND*%
X159650000Y-102250000D03*
%TO.P,R76,2*%
%TO.N,LOGIC_INP6*%
X159650000Y-103900000D03*
%TD*%
D21*
%TO.P,C10,1*%
%TO.N,Net-(C10-Pad1)*%
X165968500Y-70250000D03*
%TO.P,C10,2*%
%TO.N,Net-(U6-+IN_A)*%
X164243500Y-70250000D03*
%TD*%
D28*
%TO.P,C45,1*%
%TO.N,Net-(C45-Pad1)*%
X120750000Y-108137500D03*
%TO.P,C45,2*%
%TO.N,Net-(U13-Vfb1)*%
X120750000Y-109862500D03*
%TD*%
D19*
%TO.P,R81,1*%
%TO.N,LOGIC_INP0*%
X144650000Y-103900000D03*
%TO.P,R81,2*%
%TO.N,GND*%
X144650000Y-102250000D03*
%TD*%
D51*
%TO.P,Y1,1,1*%
%TO.N,Net-(C36-Pad2)*%
X153283500Y-92844000D03*
%TO.P,Y1,2,2*%
%TO.N,Net-(C35-Pad2)*%
X156533500Y-92844000D03*
%TD*%
D30*
%TO.P,C38,1*%
%TO.N,+12VA*%
X121137500Y-105750000D03*
%TO.P,C38,2*%
%TO.N,GNDA*%
X122862500Y-105750000D03*
%TD*%
D21*
%TO.P,C7,1*%
%TO.N,Net-(C7-Pad1)*%
X185056000Y-90686500D03*
%TO.P,C7,2*%
%TO.N,Net-(C7-Pad2)*%
X183331000Y-90686500D03*
%TD*%
D29*
%TO.P,R85,1*%
%TO.N,Net-(U12-PB14)*%
X117050000Y-76825000D03*
%TO.P,R85,2*%
%TO.N,UCPD_CC2*%
X115225000Y-76825000D03*
%TD*%
D45*
%TO.P,R6,1*%
%TO.N,Net-(C5-Pad2)*%
X183281000Y-85384000D03*
%TO.P,R6,2*%
%TO.N,Net-(C6-Pad2)*%
X185106000Y-85384000D03*
%TD*%
D52*
%TO.P,U15,1,NC*%
%TO.N,unconnected-(U15-NC-Pad1)*%
X138306000Y-76939600D03*
%TO.P,U15,2,VO*%
%TO.N,Net-(U15-VO)*%
X137355999Y-76939600D03*
%TO.P,U15,3,VI*%
%TO.N,Net-(D8-K)*%
X136405998Y-76939600D03*
%TO.P,U15,4,NC*%
%TO.N,unconnected-(U15-NC-Pad4)*%
X136405998Y-74044000D03*
%TO.P,U15,5,NC*%
%TO.N,unconnected-(U15-NC-Pad5)*%
X137355999Y-74044000D03*
%TO.P,U15,6,GND*%
%TO.N,GND*%
X138306000Y-74044000D03*
D53*
%TO.P,U15,7,GND*%
X137355999Y-75491800D03*
%TD*%
D54*
%TO.P,C36,1*%
%TO.N,GND*%
X154088500Y-91294000D03*
%TO.P,C36,2*%
%TO.N,Net-(C36-Pad2)*%
X153273500Y-91294000D03*
%TD*%
D29*
%TO.P,R8,1*%
%TO.N,GNDA*%
X185106000Y-92286500D03*
%TO.P,R8,2*%
%TO.N,Net-(C7-Pad2)*%
X183281000Y-92286500D03*
%TD*%
D45*
%TO.P,R17,1*%
%TO.N,Net-(U5-1Z)*%
X149193500Y-68844000D03*
%TO.P,R17,2*%
%TO.N,Net-(U6-OUT_A)*%
X151018500Y-68844000D03*
%TD*%
D29*
%TO.P,R9,1*%
%TO.N,Net-(R9-Pad1)*%
X163818500Y-93244000D03*
%TO.P,R9,2*%
%TO.N,CH1_ACDC*%
X161993500Y-93244000D03*
%TD*%
D31*
%TO.P,R23,1*%
%TO.N,Net-(U6-OUT_A)*%
X151463500Y-75474000D03*
%TO.P,R23,2*%
%TO.N,Net-(U6-+IN_B)*%
X151463500Y-77299000D03*
%TD*%
D30*
%TO.P,C71,1*%
%TO.N,GND*%
X123000000Y-68500000D03*
%TO.P,C71,2*%
%TO.N,Net-(D10-K)*%
X124725000Y-68500000D03*
%TD*%
D21*
%TO.P,C63,1*%
%TO.N,-5V*%
X182787500Y-119600000D03*
%TO.P,C63,2*%
%TO.N,GNDA*%
X181062500Y-119600000D03*
%TD*%
D55*
%TO.P,U8,1*%
%TO.N,Net-(U8--)*%
X155306000Y-80544000D03*
%TO.P,U8,2,V-*%
%TO.N,-5VCLEAN*%
X155306000Y-81494000D03*
%TO.P,U8,3,+*%
%TO.N,Net-(U6-OUT_B)*%
X155306000Y-82444000D03*
%TO.P,U8,4,-*%
%TO.N,Net-(U8--)*%
X152606000Y-82444000D03*
%TO.P,U8,5,~{DISABLE}*%
%TO.N,+5VCLEAN*%
X152606000Y-81494000D03*
%TO.P,U8,6,V+*%
X152606000Y-80544000D03*
%TD*%
D56*
%TO.P,R56,1*%
%TO.N,+3.3V*%
X131131000Y-67493996D03*
%TO.P,R56,2*%
%TO.N,UCPD_FLT*%
X129481000Y-67493996D03*
%TD*%
D30*
%TO.P,C6,1*%
%TO.N,Net-(C5-Pad2)*%
X183331000Y-87044000D03*
%TO.P,C6,2*%
%TO.N,Net-(C6-Pad2)*%
X185056000Y-87044000D03*
%TD*%
D46*
%TO.P,C32,1*%
%TO.N,Net-(C31-Pad1)*%
X141647620Y-93750000D03*
%TO.P,C32,2*%
%TO.N,Net-(C31-Pad2)*%
X139597620Y-93750000D03*
%TD*%
D23*
%TO.P,R72,1*%
%TO.N,LOGIC_INP12*%
X157050000Y-113400000D03*
%TO.P,R72,2*%
%TO.N,GND*%
X157050000Y-115050000D03*
%TD*%
D30*
%TO.P,C65,1*%
%TO.N,-5VCLEAN*%
X166137500Y-83750000D03*
%TO.P,C65,2*%
%TO.N,GNDA*%
X167862500Y-83750000D03*
%TD*%
D28*
%TO.P,C67,1*%
%TO.N,+5V*%
X180506000Y-110581500D03*
%TO.P,C67,2*%
%TO.N,GND*%
X180506000Y-112306500D03*
%TD*%
D57*
%TO.P,D9,A*%
%TO.N,GND*%
X158306000Y-82044000D03*
%TO.P,D9,C*%
%TO.N,Net-(D10-A)*%
X157056000Y-82044000D03*
%TD*%
D58*
%TO.P,R59,1*%
%TO.N,-12VA*%
X123425000Y-113750000D03*
%TO.P,R59,2*%
%TO.N,Net-(U13-Vfb2)*%
X125075000Y-113750000D03*
%TD*%
D24*
%TO.P,C42,1*%
%TO.N,Net-(U13-Vref)*%
X117000000Y-117250000D03*
%TO.P,C42,2*%
%TO.N,GND*%
X117000000Y-118065000D03*
%TD*%
D59*
%TO.P,U19,1,I/O1*%
%TO.N,USB_D-*%
X121250000Y-71950000D03*
%TO.P,U19,2,GND*%
%TO.N,GND*%
X121250000Y-71000000D03*
%TO.P,U19,3,I/O2*%
%TO.N,USB_D+*%
X121250000Y-70050000D03*
%TO.P,U19,4,I/O2*%
X123525000Y-70050000D03*
%TO.P,U19,5,VBUS*%
%TO.N,unconnected-(U19-VBUS-Pad5)*%
X123525000Y-71000000D03*
%TO.P,U19,6,I/O1*%
%TO.N,USB_D-*%
X123525000Y-71950000D03*
%TD*%
D60*
%TO.P,JP4,1,A*%
%TO.N,UCPD_CC1*%
X138175000Y-68100000D03*
D61*
%TO.P,JP4,2,B*%
%TO.N,Net-(J20-CC1)*%
X139475000Y-68100000D03*
%TD*%
D62*
%TO.P,U3,1,1Z*%
%TO.N,Net-(U3-1Z)*%
X164293500Y-84944000D03*
%TO.P,U3,2,1Y*%
%TO.N,Net-(U3-1Y)*%
X164293500Y-85594000D03*
%TO.P,U3,3,2Y*%
X164293500Y-86244000D03*
%TO.P,U3,4,2Z*%
%TO.N,Net-(U3-2Z)*%
X164293500Y-86894000D03*
%TO.P,U3,5,2S*%
%TO.N,CH1_amp_2.5*%
X164293500Y-87544000D03*
%TO.P,U3,6,3S*%
%TO.N,CH1_amp_5*%
X164293500Y-88194000D03*
%TO.P,U3,7,E*%
%TO.N,GND*%
X164293500Y-88844000D03*
%TO.P,U3,8,GND*%
X164293500Y-89494000D03*
%TO.P,U3,9,V_EE*%
%TO.N,-5VCLEAN*%
X158568500Y-89494000D03*
%TO.P,U3,10,3Z*%
%TO.N,Net-(U3-3Z)*%
X158568500Y-88844000D03*
%TO.P,U3,11,3Y*%
%TO.N,Net-(U3-1Y)*%
X158568500Y-88194000D03*
%TO.P,U3,12,4Y*%
X158568500Y-87544000D03*
%TO.P,U3,13,4Z*%
%TO.N,Net-(U3-4Z)*%
X158568500Y-86894000D03*
%TO.P,U3,14,4S*%
%TO.N,CH1_amp_10*%
X158568500Y-86244000D03*
%TO.P,U3,15,1S*%
%TO.N,CH1_amp_1*%
X158568500Y-85594000D03*
%TO.P,U3,16,V_CC*%
%TO.N,+5VCLEAN*%
X158568500Y-84944000D03*
%TD*%
D30*
%TO.P,C74,1*%
%TO.N,GND*%
X121506000Y-77644000D03*
%TO.P,C74,2*%
%TO.N,Net-(D10-A)*%
X123231000Y-77644000D03*
%TD*%
D21*
%TO.P,C64,1*%
%TO.N,-5V*%
X182725000Y-118000000D03*
%TO.P,C64,2*%
%TO.N,GNDA*%
X181000000Y-118000000D03*
%TD*%
D45*
%TO.P,R20,1*%
%TO.N,Net-(U5-4Z)*%
X148993500Y-72044000D03*
%TO.P,R20,2*%
%TO.N,Net-(U6-OUT_A)*%
X150818500Y-72044000D03*
%TD*%
D48*
%TO.P,L7,1,1*%
%TO.N,+5V*%
X179000000Y-111050000D03*
%TO.P,L7,2,2*%
%TO.N,+5VCLEAN*%
X179000000Y-109300000D03*
%TD*%
D45*
%TO.P,R18,1*%
%TO.N,Net-(U5-2Z)*%
X149193500Y-70444000D03*
%TO.P,R18,2*%
%TO.N,Net-(U6-OUT_A)*%
X151018500Y-70444000D03*
%TD*%
%TO.P,R7,1*%
%TO.N,Net-(C7-Pad2)*%
X183281000Y-88844000D03*
%TO.P,R7,2*%
%TO.N,Net-(C7-Pad1)*%
X185106000Y-88844000D03*
%TD*%
D31*
%TO.P,R15,1*%
%TO.N,Net-(U3-3Z)*%
X166706000Y-88444000D03*
%TO.P,R15,2*%
%TO.N,Net-(U4-OUT_A)*%
X166706000Y-90269000D03*
%TD*%
D19*
%TO.P,R69,1*%
%TO.N,GND*%
X152050000Y-115050000D03*
%TO.P,R69,2*%
%TO.N,LOGIC_INP10*%
X152050000Y-113400000D03*
%TD*%
D63*
%TO.N,GNDA*%
X176106000Y-113044000D03*
X128000000Y-106000000D03*
X169000000Y-103250000D03*
X144500000Y-77250000D03*
X157250000Y-84768501D03*
X165275000Y-82725000D03*
X170306000Y-113044000D03*
X159906000Y-91844000D03*
X152750000Y-68250000D03*
X134662735Y-80500000D03*
X163880025Y-95880025D03*
X112500000Y-110000000D03*
X186250000Y-80750000D03*
X152106000Y-76410500D03*
X122862500Y-104612500D03*
X129706000Y-99844000D03*
X173706000Y-89844000D03*
X126475000Y-84550000D03*
X186700000Y-95975000D03*
X147750000Y-88750000D03*
X161004625Y-81254625D03*
X158875000Y-75875000D03*
X173706000Y-87444000D03*
X177250000Y-75500000D03*
X116750000Y-112750000D03*
X140250000Y-72250000D03*
%TO.N,GND*%
X128306000Y-74744000D03*
X114250000Y-109250000D03*
X138106000Y-106550000D03*
X131750000Y-73250000D03*
X136706000Y-97044000D03*
X187275000Y-116200000D03*
X131500000Y-115250000D03*
X116750000Y-119000000D03*
X155000000Y-92500000D03*
X131725000Y-69000000D03*
X145850000Y-103050000D03*
X134306000Y-105844000D03*
X143700000Y-95900000D03*
X153500000Y-89600000D03*
X138500000Y-72650000D03*
X158250000Y-92000000D03*
X138106000Y-100500000D03*
X134200000Y-115775000D03*
X137525000Y-82475000D03*
X144500000Y-76250000D03*
X114750000Y-86250000D03*
X147984129Y-82319430D03*
X147759047Y-96600000D03*
X182425000Y-113500000D03*
X162215975Y-69984025D03*
X129506000Y-95044000D03*
X159325000Y-79875000D03*
X151906000Y-92444000D03*
X116500000Y-74500000D03*
X125712500Y-68037500D03*
X116250000Y-114250000D03*
X187500000Y-109500000D03*
%TO.N,-5V*%
X185250000Y-119000000D03*
X179648511Y-102025372D03*
%TO.N,+5V*%
X123250000Y-116750000D03*
X184150000Y-107075000D03*
X116000000Y-117000000D03*
X136000000Y-116750000D03*
X177550000Y-83650000D03*
X183150000Y-110400000D03*
X180250000Y-98250000D03*
X126250000Y-74500000D03*
X171425000Y-76450000D03*
%TO.N,ADC2_INP3*%
X161095382Y-77754171D03*
X147000000Y-82250000D03*
%TO.N,ADC1_INP0*%
X149106000Y-86444000D03*
X149250000Y-80000000D03*
%TO.N,+3.3VA*%
X164500000Y-77500000D03*
X162750000Y-81000000D03*
X152500000Y-87500000D03*
X141106000Y-82244000D03*
X161195000Y-82500000D03*
X150732493Y-83069000D03*
X142500000Y-80000000D03*
%TO.N,-5VCLEAN*%
X162000000Y-89000000D03*
X137719649Y-86140001D03*
X164000000Y-83750000D03*
X160750000Y-78750000D03*
X149500000Y-78750000D03*
X175500000Y-91500000D03*
X142500000Y-82250000D03*
X126500000Y-100000000D03*
X127842975Y-90230578D03*
%TO.N,RCC_OSC32_IN*%
X151906000Y-94844000D03*
%TO.N,RCC_OSC32_OUT*%
X151956000Y-93294000D03*
%TO.N,+12VA*%
X121125000Y-104625000D03*
X112000000Y-107250000D03*
X127853017Y-95685051D03*
X125706000Y-84244000D03*
X125125000Y-80825000D03*
%TO.N,-12VA*%
X122500000Y-116150000D03*
X127500000Y-98750000D03*
X129106000Y-96644000D03*
X126350000Y-82475000D03*
X122250000Y-112944000D03*
X125900000Y-107379000D03*
X129931000Y-92000000D03*
X127906000Y-93844000D03*
X129931000Y-89490000D03*
%TO.N,+3.3V*%
X132665025Y-115165025D03*
X129505000Y-95844002D03*
X135487500Y-72737500D03*
X145500000Y-96844000D03*
X131975000Y-66950000D03*
X138625000Y-81175000D03*
X135906000Y-105844000D03*
X129250000Y-112750000D03*
X141750000Y-86444000D03*
X132806000Y-72744000D03*
X135693500Y-99656500D03*
X147980999Y-84954051D03*
X135300000Y-74775000D03*
%TO.N,Net-(U13-Vfb1)*%
X120125000Y-111500000D03*
X117100000Y-115675000D03*
%TO.N,Net-(U13-Vfb2)*%
X117750000Y-120500000D03*
X122458026Y-118052024D03*
X126250000Y-113000000D03*
%TO.N,Net-(D8-K)*%
X133906000Y-75644000D03*
%TO.N,Net-(C31-Pad1)*%
X147250000Y-97500000D03*
%TO.N,UCPD_CC1*%
X141175000Y-69750000D03*
%TO.N,UCPD_CC2*%
X133926470Y-82926470D03*
X130211760Y-73798290D03*
X125975000Y-66175000D03*
X130750000Y-69000000D03*
%TO.N,NRST*%
X149106000Y-90244000D03*
X167125000Y-117625000D03*
%TO.N,CH1_attenuate*%
X142750000Y-89750000D03*
X148459047Y-95208599D03*
X142556000Y-87245000D03*
%TO.N,CH0_attenuate*%
X166250000Y-79500000D03*
X148500000Y-89250000D03*
%TO.N,Net-(D5-A)*%
X124250000Y-113000000D03*
%TO.N,Net-(D6-K)*%
X127250000Y-112864000D03*
%TO.N,DEBUG_JTMS-SWDI0*%
X137000000Y-109500000D03*
X136706000Y-96044000D03*
%TO.N,DEBUG_JTD-SW0*%
X143306000Y-97644000D03*
X140506000Y-95844000D03*
X138706000Y-95844000D03*
%TO.N,DEBUG_JTCK_SWCLK*%
X137506000Y-104044000D03*
X137406000Y-101000000D03*
%TO.N,CH0_ACDC*%
X155838696Y-94528754D03*
X170500000Y-71750000D03*
X170500000Y-82250000D03*
%TO.N,DAC1_OUT1*%
X129806000Y-102244000D03*
%TO.N,DAC1_OUT2*%
X140106000Y-86844000D03*
X133306000Y-86744000D03*
%TO.N,CH1_ACDC*%
X159706000Y-93244000D03*
%TO.N,C0_IN*%
X147050000Y-86525000D03*
X117500000Y-108150000D03*
%TO.N,C1_IN*%
X146687500Y-85712500D03*
X121375000Y-81300000D03*
%TO.N,Net-(U3-1Y)*%
X170143500Y-92849939D03*
%TO.N,Net-(U3-2Z)*%
X168491052Y-86419002D03*
X163090575Y-87237812D03*
%TO.N,Net-(U3-3Z)*%
X166506000Y-86419000D03*
X160200661Y-88344001D03*
%TO.N,Net-(U3-4Z)*%
X157306000Y-87244000D03*
X167421658Y-86769707D03*
%TO.N,Net-(U5-1Z)*%
X143500000Y-72244000D03*
%TO.N,Net-(U5-2Z)*%
X142906000Y-75044000D03*
%TO.N,Net-(U5-3Z)*%
X145706000Y-77044000D03*
%TO.N,Net-(U5-4Z)*%
X145906000Y-74944000D03*
%TO.N,TIM2_CH3*%
X156319614Y-83750000D03*
X150706000Y-84644000D03*
%TO.N,Net-(U6-+IN_B)*%
X152806000Y-78001000D03*
%TO.N,TIM2_CH2*%
X149506000Y-84644000D03*
X149505000Y-80919000D03*
%TO.N,Net-(U4-OUT_B)*%
X162895949Y-89344001D03*
X162000000Y-92000000D03*
%TO.N,Net-(U6-OUT_B)*%
X159250000Y-78000000D03*
X155875000Y-83025000D03*
X158750000Y-74500000D03*
%TO.N,TIM1_CH1*%
X133931000Y-93244000D03*
X112705475Y-105284475D03*
X137651470Y-93000000D03*
%TO.N,TIM1_CH2*%
X116006000Y-84244000D03*
X124306000Y-90744000D03*
X129906000Y-94219000D03*
X138500000Y-94750000D03*
%TO.N,/AWG_FrontEnd/C0_FB*%
X126050000Y-109919000D03*
X123781000Y-96719000D03*
%TO.N,/AWG_FrontEnd/C1_FB*%
X124306000Y-92244000D03*
X130925000Y-80400000D03*
%TO.N,/AWG_FrontEnd/C0_OUT_G*%
X125306000Y-111244000D03*
X117000000Y-101500000D03*
%TO.N,/AWG_FrontEnd/C1_OUT_G*%
X120506000Y-88244000D03*
X126750000Y-80000000D03*
%TO.N,Net-(U9D--)*%
X126437500Y-104562500D03*
X126500000Y-102500000D03*
%TO.N,Net-(U10C--)*%
X125831000Y-88109000D03*
X126275000Y-86325000D03*
%TO.N,UCPD_FLT*%
X131250000Y-66344000D03*
X127500000Y-76000000D03*
X131831000Y-84764072D03*
X136950735Y-92299265D03*
%TO.N,Net-(U17-VBUS_CTRL)*%
X126250000Y-72000000D03*
%TO.N,CH1_amp_10*%
X156675477Y-85355472D03*
X138707000Y-82245000D03*
%TO.N,CH1_amp_5*%
X143551190Y-85703747D03*
X146450000Y-87450000D03*
X162200987Y-88044252D03*
%TO.N,CH1_amp_1*%
X159778337Y-85382393D03*
X144274860Y-85273670D03*
%TO.N,CH1_amp_2.5*%
X141049265Y-85200735D03*
X165306000Y-90219000D03*
X143906000Y-87045000D03*
%TO.N,CH0_amp_1*%
X133625000Y-84375000D03*
X145506000Y-73744000D03*
%TO.N,CH0_amp_5*%
X137506000Y-90244000D03*
X139506000Y-76644000D03*
%TO.N,CH0_amp_2.5*%
X136706000Y-89644000D03*
X139506000Y-75644000D03*
%TO.N,CH0_amp_10*%
X144937871Y-74812129D03*
X133706000Y-86044000D03*
%TO.N,GAIN_C1*%
X127306000Y-93244000D03*
X145500000Y-85100000D03*
%TO.N,GAIN_C0*%
X142806000Y-88744000D03*
X128106000Y-96444000D03*
%TO.N,USCPD_DBn*%
X138250000Y-91750000D03*
X128125000Y-66600000D03*
%TO.N,Net-(C31-Pad2)*%
X138500000Y-90000000D03*
X138500000Y-85250000D03*
%TO.N,Net-(Q1-G)*%
X129325000Y-73025000D03*
%TO.N,+5VCLEAN*%
X170750000Y-86000000D03*
X151720976Y-79786570D03*
X157175000Y-83350000D03*
X176000000Y-109500000D03*
X149825000Y-72789047D03*
X168500000Y-96750000D03*
X152620236Y-72775000D03*
%TO.N,Net-(U4-+IN_A)*%
X174500000Y-92750000D03*
%TO.N,Net-(C10-Pad1)*%
X174500000Y-74250000D03*
%TO.N,Net-(U6-+IN_A)*%
X161000000Y-68500000D03*
%TO.N,Net-(U15-VO)*%
X135906000Y-78044000D03*
%TO.N,USB_D+*%
X122706000Y-73044000D03*
X124750000Y-70500000D03*
X137900325Y-96248375D03*
X124500000Y-73763762D03*
X130500000Y-88750000D03*
%TO.N,USB_D-*%
X137906000Y-95444000D03*
X116450000Y-70450000D03*
X121500000Y-75000000D03*
X131250000Y-88250000D03*
%TO.N,Net-(U8--)*%
X155995227Y-73995028D03*
%TO.N,Net-(C19-Pad1)*%
X161000000Y-75000000D03*
X162290657Y-87249293D03*
%TO.N,Net-(U6-OUT_A)*%
X152500000Y-71250000D03*
X149876000Y-74586500D03*
%TO.N,Net-(U4-OUT_A)*%
X173500000Y-85500000D03*
X167230265Y-91319735D03*
%TO.N,Net-(D10-A)*%
X133350000Y-67600000D03*
X124500000Y-77750000D03*
X137575000Y-71275000D03*
X137025000Y-69750000D03*
X126775000Y-69925000D03*
X157775000Y-81225000D03*
X128350000Y-72850000D03*
%TO.N,Net-(J20-CC1)*%
X133000000Y-70500000D03*
X126500000Y-71250000D03*
X122075031Y-69391809D03*
%TO.N,Net-(J20-CC2)*%
X116250000Y-71500000D03*
X122075000Y-67450000D03*
%TO.N,Net-(U12-PB13)*%
X131525000Y-83000000D03*
X141450000Y-68725000D03*
X131300000Y-79075000D03*
%TO.N,Net-(U12-PB14)*%
X119975000Y-81075000D03*
X133100000Y-83775000D03*
%TD*%
D64*
%TO.N,Net-(C1-Pad2)*%
X170306000Y-97744000D02*
X170937250Y-97112750D01*
X170306000Y-100194000D02*
X170306000Y-97744000D01*
X168806000Y-100244000D02*
X173306000Y-100244000D01*
%TO.N,GNDA*%
X158500000Y-76250000D02*
X158500000Y-77118912D01*
X170306000Y-113044000D02*
X169466000Y-113044000D01*
X186150000Y-80750000D02*
X185056000Y-81844000D01*
X122862500Y-104612500D02*
X122862500Y-104537500D01*
X165497250Y-101747250D02*
X165497250Y-102077750D01*
X170256000Y-101969000D02*
X168806000Y-101969000D01*
X155068500Y-78469000D02*
X153010000Y-76410500D01*
X154837500Y-88620252D02*
X154837500Y-90000000D01*
X185106000Y-92286500D02*
X185106000Y-93836500D01*
X181000000Y-117750000D02*
X176294000Y-113044000D01*
X114525000Y-110275000D02*
X116750000Y-112500000D01*
X153010000Y-76410500D02*
X152106000Y-76410500D01*
X118462500Y-112750000D02*
X116750000Y-112750000D01*
X158500000Y-77118912D02*
X157237412Y-78381500D01*
X112500000Y-110000000D02*
X112775000Y-110275000D01*
X176843500Y-112306500D02*
X176106000Y-113044000D01*
X167862500Y-83750000D02*
X166837500Y-82725000D01*
X151972056Y-76362500D02*
X147378864Y-76362500D01*
X152015028Y-76319528D02*
X151972056Y-76362500D01*
X170247250Y-102077750D02*
X170306000Y-102019000D01*
X122862500Y-104612500D02*
X122862500Y-105750000D01*
X116750000Y-112500000D02*
X116750000Y-112750000D01*
X139389113Y-77639113D02*
X136528227Y-80500000D01*
X165497250Y-102077750D02*
X165497250Y-101722250D01*
X123000000Y-103212500D02*
X122787500Y-103000000D01*
X165497250Y-102077750D02*
X166947250Y-102077750D01*
X144500000Y-77250000D02*
X144500000Y-78208000D01*
X126475000Y-84550000D02*
X127050000Y-84550000D01*
X112775000Y-110275000D02*
X114525000Y-110275000D01*
X154568500Y-84844000D02*
X154678028Y-84734472D01*
X144631000Y-81184000D02*
X144691000Y-81244000D01*
X181000000Y-118000000D02*
X181000000Y-119537500D01*
X147378864Y-76362500D02*
X145402364Y-78339000D01*
X169466000Y-113044000D02*
X167206000Y-110784000D01*
X144500000Y-78208000D02*
X144631000Y-78339000D01*
X154844000Y-84844000D02*
X154568500Y-84844000D01*
X177306000Y-112306500D02*
X176843500Y-112306500D01*
X186250000Y-80750000D02*
X186150000Y-80750000D01*
X160031000Y-91719000D02*
X159906000Y-91844000D01*
X166997250Y-106377750D02*
X165975000Y-107400000D01*
X158875000Y-75875000D02*
X158500000Y-76250000D01*
X185056000Y-81844000D02*
X185056000Y-83394000D01*
X166997250Y-102027750D02*
X167200000Y-102230500D01*
X127250000Y-85300000D02*
X127168500Y-85381500D01*
X154837500Y-88620252D02*
X155879748Y-88620252D01*
X185106000Y-93836500D02*
X185056000Y-93886500D01*
X153250000Y-86550000D02*
X153250000Y-87042248D01*
D65*
X165975000Y-109553000D02*
X165975000Y-107400000D01*
D64*
X127050000Y-84550000D02*
X127250000Y-84750000D01*
X139389113Y-77639113D02*
X140250000Y-76778227D01*
X145402364Y-78339000D02*
X144631000Y-78339000D01*
X168806000Y-101969000D02*
X168806000Y-103056000D01*
X122862500Y-104537500D02*
X123000000Y-104400000D01*
X166947250Y-102077750D02*
X166997250Y-102027750D01*
X152106000Y-76410500D02*
X152015028Y-76319528D01*
X160500000Y-90844000D02*
X160031000Y-91313000D01*
X166837500Y-82725000D02*
X165275000Y-82725000D01*
X157215971Y-84734472D02*
X157250000Y-84768501D01*
X136528227Y-80500000D02*
X134662735Y-80500000D01*
X186700000Y-95975000D02*
X185975000Y-95975000D01*
X181000000Y-119537500D02*
X181062500Y-119600000D01*
X160168500Y-83644000D02*
X160168500Y-82090750D01*
X160031000Y-91313000D02*
X160031000Y-91719000D01*
X153250000Y-87042248D02*
X154828004Y-88620252D01*
X155879748Y-88620252D02*
X156183500Y-88316500D01*
X154828004Y-88620252D02*
X154837500Y-88620252D01*
X185056000Y-95056000D02*
X185056000Y-93886500D01*
X154616500Y-90221000D02*
X154837500Y-90000000D01*
X144631000Y-78339000D02*
X144631000Y-81184000D01*
D65*
X167206000Y-110784000D02*
X165975000Y-109553000D01*
D64*
X166997250Y-102027750D02*
X167056000Y-101969000D01*
X149443500Y-88244000D02*
X148256000Y-88244000D01*
X149443500Y-88244000D02*
X151420500Y-90221000D01*
X176294000Y-113044000D02*
X176106000Y-113044000D01*
X181000000Y-118000000D02*
X181000000Y-117750000D01*
X156183500Y-86183500D02*
X154844000Y-84844000D01*
X155068500Y-78944000D02*
X155068500Y-78469000D01*
X167056000Y-101969000D02*
X168806000Y-101969000D01*
X154678028Y-84734472D02*
X157215971Y-84734472D01*
X151420500Y-90221000D02*
X154616500Y-90221000D01*
X185975000Y-95975000D02*
X185056000Y-95056000D01*
X160168500Y-82090750D02*
X161004625Y-81254625D01*
X166997250Y-102027750D02*
X166997250Y-106377750D01*
X127168500Y-85381500D02*
X127168500Y-85444000D01*
X127250000Y-84750000D02*
X127250000Y-85300000D01*
X140250000Y-76778227D02*
X140250000Y-72250000D01*
X123000000Y-104400000D02*
X123000000Y-103212500D01*
X168806000Y-103056000D02*
X169000000Y-103250000D01*
X170306000Y-102019000D02*
X170256000Y-101969000D01*
X156183500Y-88316500D02*
X156183500Y-86183500D01*
X148256000Y-88244000D02*
X147750000Y-88750000D01*
%TO.N,Net-(C2-Pad2)*%
X171806000Y-102019000D02*
X171806000Y-103864000D01*
X173256000Y-102019000D02*
X173306000Y-101969000D01*
X171806000Y-102019000D02*
X173256000Y-102019000D01*
X171806000Y-103864000D02*
X170937250Y-104732750D01*
%TO.N,Net-(C3-Pad2)*%
X165497250Y-100252750D02*
X163984750Y-100252750D01*
X165497250Y-100252750D02*
X166947250Y-100252750D01*
X166947250Y-100252750D02*
X166997250Y-100302750D01*
X165497250Y-97472750D02*
X165857250Y-97112750D01*
X163984750Y-100252750D02*
X163906000Y-100331500D01*
X165497250Y-100252750D02*
X165497250Y-97472750D01*
%TO.N,Net-(C3-Pad1)*%
X165857250Y-104107750D02*
X163906000Y-102156500D01*
X165857250Y-104732750D02*
X165857250Y-104107750D01*
%TO.N,Net-(C5-Pad2)*%
X179506000Y-88844000D02*
X181306000Y-87044000D01*
X181306000Y-87044000D02*
X183331000Y-87044000D01*
X183331000Y-81844000D02*
X183331000Y-87044000D01*
%TO.N,Net-(C6-Pad2)*%
X185056000Y-87044000D02*
X185056000Y-85434000D01*
X185326000Y-87044000D02*
X187126000Y-88844000D01*
X185056000Y-87044000D02*
X185326000Y-87044000D01*
X185056000Y-85434000D02*
X185106000Y-85384000D01*
%TO.N,Net-(C7-Pad1)*%
X187126000Y-92756500D02*
X187126000Y-93924000D01*
X185106000Y-90636500D02*
X185056000Y-90686500D01*
X185106000Y-88844000D02*
X185106000Y-90636500D01*
X185056000Y-90686500D02*
X187126000Y-92756500D01*
%TO.N,Net-(C7-Pad2)*%
X183281000Y-88844000D02*
X183281000Y-93836500D01*
X183281000Y-93836500D02*
X183331000Y-93886500D01*
X183331000Y-93886500D02*
X179543500Y-93886500D01*
X179543500Y-93886500D02*
X179506000Y-93924000D01*
D65*
%TO.N,GND*%
X119200000Y-115750000D02*
X118950000Y-115500000D01*
D64*
X164293500Y-90731500D02*
X164293500Y-89494000D01*
X143537500Y-95737500D02*
X143700000Y-95900000D01*
D65*
X116500000Y-114000000D02*
X118500000Y-114000000D01*
X125425000Y-67750000D02*
X123250000Y-67750000D01*
D64*
X121250000Y-71000000D02*
X120587501Y-71000000D01*
X138050000Y-115050000D02*
X147020000Y-115050000D01*
D65*
X115000000Y-113000000D02*
X116250000Y-114250000D01*
D64*
X145366000Y-103050000D02*
X144650000Y-102334000D01*
D65*
X131906000Y-69406000D02*
X131906000Y-69906000D01*
D64*
X159467526Y-81532474D02*
X158956000Y-82044000D01*
X155000000Y-92500000D02*
X155000000Y-92205500D01*
X162200000Y-70000000D02*
X162200000Y-78400000D01*
D65*
X119737500Y-115634202D02*
X119737500Y-115750000D01*
D64*
X143537500Y-94700000D02*
X143537500Y-95737500D01*
X158715000Y-92465000D02*
X158250000Y-92000000D01*
X138306000Y-74541799D02*
X138306000Y-74044000D01*
X162200000Y-78400000D02*
X160850000Y-79750000D01*
D65*
X128306000Y-74744000D02*
X129056000Y-74744000D01*
D64*
X160625000Y-102250000D02*
X160625000Y-100375000D01*
X121424000Y-77644000D02*
X118850000Y-75070000D01*
D65*
X130738498Y-70436499D02*
X130706000Y-70468997D01*
X123000000Y-68000000D02*
X123000000Y-68500000D01*
X118950000Y-115500000D02*
X118225000Y-115500000D01*
X117098500Y-73901500D02*
X116500000Y-74500000D01*
X119000000Y-114500000D02*
X119375000Y-114500000D01*
X119487500Y-115500000D02*
X119737500Y-115750000D01*
D64*
X160625000Y-100375000D02*
X160375000Y-100125000D01*
D65*
X181231500Y-112306500D02*
X182425000Y-113500000D01*
D64*
X155681000Y-91294000D02*
X155731000Y-91244000D01*
D65*
X147356000Y-92906500D02*
X147325000Y-92937500D01*
D64*
X134200000Y-115775000D02*
X134225000Y-115750000D01*
D65*
X131725000Y-69225000D02*
X131906000Y-69406000D01*
D64*
X164293500Y-88844000D02*
X164293500Y-89494000D01*
D65*
X131925000Y-69925000D02*
X131413501Y-70436499D01*
D64*
X159325000Y-79875000D02*
X159467526Y-80017526D01*
X159450000Y-79750000D02*
X159325000Y-79875000D01*
X162215975Y-69984025D02*
X162200000Y-70000000D01*
X118850000Y-69262499D02*
X118850000Y-66810000D01*
X137355999Y-75491800D02*
X138306000Y-74541799D01*
D65*
X149106000Y-92906500D02*
X147356000Y-92906500D01*
D64*
X158956000Y-82044000D02*
X158306000Y-82044000D01*
D65*
X123250000Y-67750000D02*
X123000000Y-68000000D01*
X149106000Y-92906500D02*
X149106000Y-91303700D01*
X117000000Y-118750000D02*
X116750000Y-119000000D01*
X119737500Y-115750000D02*
X119375000Y-115387500D01*
D64*
X137350000Y-115750000D02*
X138050000Y-115050000D01*
D65*
X151443500Y-92906500D02*
X149106000Y-92906500D01*
X131725000Y-69000000D02*
X131725000Y-69225000D01*
D64*
X159467526Y-80017526D02*
X159467526Y-81532474D01*
D65*
X117000000Y-118065000D02*
X117000000Y-118750000D01*
D64*
X147020000Y-115050000D02*
X164550000Y-115050000D01*
X165806000Y-92244000D02*
X164293500Y-90731500D01*
X138306000Y-74044000D02*
X138306000Y-72844000D01*
X144650000Y-102334000D02*
X144650000Y-102250000D01*
D65*
X117556000Y-73901500D02*
X117098500Y-73901500D01*
D64*
X160656773Y-92465000D02*
X158715000Y-92465000D01*
X164293500Y-88844000D02*
X164277773Y-88844000D01*
X138306000Y-72844000D02*
X138500000Y-72650000D01*
D65*
X116250000Y-114250000D02*
X116500000Y-114000000D01*
D64*
X155000000Y-92205500D02*
X154088500Y-91294000D01*
X160850000Y-79750000D02*
X159450000Y-79750000D01*
X123906000Y-80044000D02*
X121506000Y-77644000D01*
D65*
X151906000Y-92444000D02*
X151443500Y-92906500D01*
D64*
X154088500Y-91294000D02*
X155681000Y-91294000D01*
X144650000Y-102250000D02*
X160625000Y-102250000D01*
X160625000Y-102250000D02*
X162150000Y-102250000D01*
X164277773Y-88844000D02*
X160656773Y-92465000D01*
D65*
X118225000Y-114500000D02*
X119000000Y-114500000D01*
X145850000Y-103050000D02*
X146000000Y-103200000D01*
X131413501Y-70436499D02*
X130738498Y-70436499D01*
D64*
X121506000Y-77644000D02*
X121424000Y-77644000D01*
D65*
X131906000Y-69906000D02*
X131925000Y-69925000D01*
D64*
X145850000Y-103050000D02*
X145366000Y-103050000D01*
D65*
X119737500Y-115750000D02*
X119200000Y-115750000D01*
X118500000Y-114000000D02*
X119000000Y-114500000D01*
D64*
X120587501Y-71000000D02*
X118850000Y-69262499D01*
X129553799Y-74744000D02*
X130503800Y-75694001D01*
D65*
X125712500Y-68037500D02*
X125425000Y-67750000D01*
D64*
X134225000Y-115750000D02*
X137350000Y-115750000D01*
D65*
X180506000Y-112306500D02*
X181231500Y-112306500D01*
D64*
X129056000Y-74744000D02*
X129553799Y-74744000D01*
X137355999Y-75491800D02*
X137922799Y-74925000D01*
D65*
X119375000Y-115387500D02*
X119375000Y-114500000D01*
D64*
X143537500Y-91500000D02*
X143537500Y-94700000D01*
D65*
X129283600Y-70468997D02*
X130706000Y-70468997D01*
D64*
%TO.N,-5V*%
X185250000Y-119000000D02*
X184650000Y-119600000D01*
X184650000Y-119600000D02*
X182787500Y-119600000D01*
X178750000Y-100625000D02*
X178750000Y-101126861D01*
X182787500Y-119576750D02*
X182787500Y-118039250D01*
X178750000Y-101126861D02*
X179648511Y-102025372D01*
D65*
%TO.N,+5V*%
X122250057Y-116750000D02*
X122000057Y-116500000D01*
D64*
X183150000Y-110400000D02*
X182968500Y-110581500D01*
D65*
X126825000Y-73925000D02*
X126250000Y-74500000D01*
X116000000Y-116925000D02*
X116425000Y-116500000D01*
X129225000Y-73925000D02*
X126825000Y-73925000D01*
D64*
X171425000Y-77525000D02*
X171425000Y-76450000D01*
D65*
X129783599Y-71891397D02*
X131000000Y-71891397D01*
X118151000Y-116574000D02*
X118225000Y-116500000D01*
X130225000Y-72925000D02*
X129225000Y-73925000D01*
D64*
X183150000Y-110400000D02*
X184150000Y-109400000D01*
D65*
X122000057Y-116500000D02*
X121250000Y-116500000D01*
X116500000Y-115075000D02*
X118150000Y-115075000D01*
X129783599Y-71891397D02*
X130225000Y-72332798D01*
X134198603Y-71891397D02*
X135506000Y-70584000D01*
D64*
X179000000Y-111050000D02*
X180037500Y-111050000D01*
X171425000Y-76450000D02*
X171425000Y-76425000D01*
D65*
X116000000Y-117000000D02*
X116000000Y-116925000D01*
X123250000Y-116750000D02*
X122250057Y-116750000D01*
X115000000Y-115075000D02*
X116425000Y-116500000D01*
X116425000Y-116500000D02*
X118225000Y-116500000D01*
X131000000Y-71891397D02*
X134198603Y-71891397D01*
D64*
X184150000Y-109400000D02*
X184150000Y-107075000D01*
X180037500Y-111050000D02*
X180506000Y-110581500D01*
D65*
X130225000Y-72332798D02*
X130225000Y-72925000D01*
D64*
X182968500Y-110581500D02*
X180506000Y-110581500D01*
D65*
X115000000Y-115075000D02*
X116500000Y-115075000D01*
X118150000Y-115075000D02*
X118225000Y-115000000D01*
D64*
X177550000Y-83650000D02*
X171425000Y-77525000D01*
%TO.N,ADC1_INP0*%
X148750000Y-80500000D02*
X148750000Y-86088000D01*
X152843500Y-84844000D02*
X151243500Y-86444000D01*
X149469000Y-80219000D02*
X150706000Y-80219000D01*
X148750000Y-86088000D02*
X149106000Y-86444000D01*
X151243500Y-86444000D02*
X149106000Y-86444000D01*
X153094000Y-84844000D02*
X152843500Y-84844000D01*
X149250000Y-80000000D02*
X148750000Y-80500000D01*
X155125000Y-87500000D02*
X155125000Y-86875000D01*
X155125000Y-86875000D02*
X153094000Y-84844000D01*
%TO.N,+3.3VA*%
X152500000Y-87500000D02*
X151756000Y-88244000D01*
X151374500Y-88450000D02*
X151168500Y-88244000D01*
X162750000Y-81000000D02*
X164500000Y-79250000D01*
X142500000Y-78745000D02*
X142906000Y-78339000D01*
X142966000Y-81244000D02*
X142106000Y-81244000D01*
X153250000Y-88450000D02*
X151374500Y-88450000D01*
X142500000Y-80000000D02*
X142500000Y-80778000D01*
X142500000Y-80000000D02*
X142500000Y-78745000D01*
X151756000Y-88244000D02*
X151168500Y-88244000D01*
X142106000Y-81244000D02*
X141106000Y-82244000D01*
X164500000Y-79250000D02*
X164500000Y-77500000D01*
X142500000Y-80778000D02*
X142966000Y-81244000D01*
%TO.N,-5VCLEAN*%
X161506000Y-89494000D02*
X162000000Y-89000000D01*
X125506000Y-96644000D02*
X126500000Y-97638000D01*
X126500000Y-94275000D02*
X126500000Y-91573553D01*
X138609999Y-86140001D02*
X137719649Y-86140001D01*
X126500000Y-97638000D02*
X126500000Y-100000000D01*
X142500000Y-82250000D02*
X138609999Y-86140001D01*
X166137500Y-83750000D02*
X164000000Y-83750000D01*
X157237412Y-80106500D02*
X157237412Y-80342587D01*
X126500000Y-91573553D02*
X127842975Y-90230578D01*
X175500000Y-92371773D02*
X178750000Y-95621773D01*
X156085999Y-81494000D02*
X155306000Y-81494000D01*
X158568500Y-89494000D02*
X158568500Y-90637500D01*
X125506000Y-96644000D02*
X125506000Y-95269000D01*
X157237412Y-80342587D02*
X156085999Y-81494000D01*
X157237412Y-80106500D02*
X158593912Y-78750000D01*
X158568500Y-89494000D02*
X161506000Y-89494000D01*
X178750000Y-95621773D02*
X178750000Y-98875000D01*
X175500000Y-91500000D02*
X175500000Y-92371773D01*
X125506000Y-95269000D02*
X126500000Y-94275000D01*
X158568500Y-90637500D02*
X158775000Y-90844000D01*
X158593912Y-78750000D02*
X160750000Y-78750000D01*
D65*
%TO.N,RCC_OSC32_IN*%
X159975000Y-94375000D02*
X159225000Y-95125000D01*
X154975000Y-95125000D02*
X154500000Y-94650000D01*
X152100000Y-94650000D02*
X151906000Y-94844000D01*
X154500000Y-94650000D02*
X152100000Y-94650000D01*
X159225000Y-95125000D02*
X154975000Y-95125000D01*
X160262500Y-94375000D02*
X159975000Y-94375000D01*
%TO.N,RCC_OSC32_OUT*%
X151956000Y-93294000D02*
X149681000Y-93294000D01*
X149681000Y-93294000D02*
X148875000Y-94100000D01*
D64*
%TO.N,+12VA*%
X112000000Y-107250000D02*
X113000000Y-106250000D01*
X121137500Y-106387500D02*
X122750000Y-108000000D01*
X121137500Y-103425000D02*
X120712500Y-103000000D01*
X123906000Y-82044000D02*
X123906000Y-82225000D01*
X121137500Y-105750000D02*
X121137500Y-103425000D01*
X113000000Y-106250000D02*
X117462500Y-106250000D01*
X120862500Y-106387500D02*
X121137500Y-106387500D01*
X121137500Y-104762500D02*
X121137500Y-105750000D01*
X121125000Y-104750000D02*
X121137500Y-104762500D01*
X121125000Y-104625000D02*
X121125000Y-104750000D01*
X125706000Y-84244000D02*
X125443500Y-84506500D01*
X125443500Y-84506500D02*
X125443500Y-85444000D01*
X119250000Y-108000000D02*
X120862500Y-106387500D01*
X121137500Y-105750000D02*
X121137500Y-106387500D01*
X117462500Y-106250000D02*
X120712500Y-103000000D01*
X125125000Y-80825000D02*
X123906000Y-82044000D01*
%TO.N,-12VA*%
X125900000Y-107900000D02*
X127250000Y-109250000D01*
X123425000Y-113750000D02*
X123056000Y-113750000D01*
X120537500Y-112750000D02*
X122056000Y-112750000D01*
X128250000Y-87809000D02*
X129931000Y-89490000D01*
X123056000Y-113750000D02*
X122250000Y-112944000D01*
X125900000Y-107379000D02*
X125900000Y-107900000D01*
X122056000Y-112750000D02*
X122250000Y-112944000D01*
X126350000Y-82475000D02*
X128250000Y-84375000D01*
X128087000Y-93844000D02*
X129931000Y-92000000D01*
X127906000Y-93844000D02*
X128087000Y-93844000D01*
X128250000Y-84375000D02*
X128250000Y-87809000D01*
D65*
X121250000Y-116000000D02*
X122350000Y-116000000D01*
X122350000Y-116000000D02*
X122500000Y-116150000D01*
D64*
%TO.N,Net-(U13-Vref)*%
X118435000Y-118535000D02*
X118435000Y-118000000D01*
X118050000Y-117250000D02*
X118225000Y-117075000D01*
D65*
X118435000Y-118000000D02*
X118435000Y-117210000D01*
D64*
X117000000Y-117250000D02*
X118050000Y-117250000D01*
D65*
X118435000Y-117210000D02*
X118225000Y-117000000D01*
D64*
X119000000Y-119100000D02*
X118435000Y-118535000D01*
D65*
%TO.N,+3.3V*%
X135681000Y-99644000D02*
X135693500Y-99656500D01*
X135681000Y-99506500D02*
X135681000Y-99644000D01*
D64*
X145262500Y-91500000D02*
X145262500Y-94700000D01*
X132806000Y-75301200D02*
X132806000Y-72744000D01*
D65*
X129505000Y-95844002D02*
X132018502Y-95844002D01*
X131131000Y-67493996D02*
X131131000Y-67699196D01*
X135012500Y-72737500D02*
X135006000Y-72744000D01*
D64*
X145262500Y-96606500D02*
X145500000Y-96844000D01*
X132413199Y-75694001D02*
X132806000Y-75301200D01*
X145262500Y-94700000D02*
X145262500Y-96606500D01*
D65*
X135487500Y-72737500D02*
X135012500Y-72737500D01*
X132018502Y-95844002D02*
X135681000Y-99506500D01*
D64*
X131431004Y-67493996D02*
X131131000Y-67493996D01*
X131975000Y-66950000D02*
X131431004Y-67493996D01*
D65*
X131131000Y-67699196D02*
X129783599Y-69046597D01*
D64*
X131951600Y-75694001D02*
X132413199Y-75694001D01*
D65*
X135006000Y-72744000D02*
X132806000Y-72744000D01*
D64*
%TO.N,Net-(U13-Vfb1)*%
X120125000Y-110875000D02*
X120750000Y-110250000D01*
D65*
X117425000Y-116000000D02*
X118225000Y-116000000D01*
X117100000Y-115675000D02*
X117425000Y-116000000D01*
D64*
X120750000Y-110250000D02*
X120750000Y-109862500D01*
X120125000Y-111500000D02*
X120125000Y-110875000D01*
%TO.N,Net-(C45-Pad1)*%
X119250000Y-109637500D02*
X120750000Y-108137500D01*
X119250000Y-109650000D02*
X119250000Y-109637500D01*
%TO.N,Net-(U13-Vfb2)*%
X125750000Y-113000000D02*
X125075000Y-113675000D01*
X118000000Y-120750000D02*
X117750000Y-120500000D01*
X126250000Y-113000000D02*
X125750000Y-113000000D01*
D65*
X121506002Y-117100000D02*
X121350000Y-117100000D01*
X122458026Y-118052024D02*
X121506002Y-117100000D01*
X121350000Y-117100000D02*
X121250000Y-117000000D01*
D64*
X119000000Y-120750000D02*
X118000000Y-120750000D01*
X125075000Y-113675000D02*
X125075000Y-113750000D01*
%TO.N,Net-(D8-K)*%
X135201600Y-76939600D02*
X136405998Y-76939600D01*
X133906000Y-75644000D02*
X135201600Y-76939600D01*
X132905998Y-76644002D02*
X133906000Y-75644000D01*
X131951600Y-76644002D02*
X132905998Y-76644002D01*
D65*
%TO.N,Net-(C31-Pad1)*%
X141647620Y-94647620D02*
X141647620Y-93750000D01*
X144500000Y-97500000D02*
X141647620Y-94647620D01*
X147250000Y-97500000D02*
X144500000Y-97500000D01*
D64*
X141647620Y-93750000D02*
X141647620Y-91700000D01*
D65*
%TO.N,UCPD_CC1*%
X132975000Y-71375000D02*
X133625000Y-70725000D01*
X130788504Y-71051500D02*
X130706000Y-70968996D01*
X138600000Y-69550000D02*
X138800000Y-69750000D01*
X131112004Y-71375000D02*
X132975000Y-71375000D01*
X133625000Y-70725000D02*
X133625000Y-69675000D01*
X130706000Y-70968996D02*
X131112004Y-71375000D01*
X133625000Y-69675000D02*
X132975000Y-69025000D01*
X133300000Y-66875000D02*
X136950000Y-66875000D01*
X138600000Y-68525000D02*
X138600000Y-69550000D01*
X132700000Y-67475000D02*
X133300000Y-66875000D01*
X138175000Y-68100000D02*
X138600000Y-68525000D01*
X132975000Y-68050000D02*
X132700000Y-67775000D01*
X141175000Y-69750000D02*
X141200000Y-69750000D01*
X132975000Y-69025000D02*
X132975000Y-68050000D01*
X136950000Y-66875000D02*
X138175000Y-68100000D01*
X132700000Y-67775000D02*
X132700000Y-67475000D01*
X138800000Y-69750000D02*
X141175000Y-69750000D01*
%TO.N,UCPD_CC2*%
X111875000Y-73100000D02*
X111875000Y-71775000D01*
X115000000Y-70200000D02*
X113675000Y-71525000D01*
X130750000Y-69924998D02*
X130706000Y-69968998D01*
X125975000Y-66175000D02*
X116925000Y-66175000D01*
X116925000Y-66175000D02*
X115000000Y-68100000D01*
X114000000Y-73950000D02*
X112725000Y-73950000D01*
X114350000Y-74300000D02*
X114000000Y-73950000D01*
X111975000Y-71675000D02*
X113250000Y-71675000D01*
X115225000Y-76825000D02*
X114350000Y-75950000D01*
X113675000Y-71525000D02*
X113400000Y-71525000D01*
X111875000Y-71775000D02*
X111975000Y-71675000D01*
X114350000Y-75950000D02*
X114350000Y-74300000D01*
X112725000Y-73950000D02*
X111875000Y-73100000D01*
X113250000Y-71675000D02*
X113400000Y-71525000D01*
X130750000Y-69000000D02*
X130750000Y-69924998D01*
X115000000Y-68100000D02*
X115000000Y-70200000D01*
D64*
%TO.N,NRST*%
X160306000Y-95644000D02*
X160287000Y-95625000D01*
D65*
X147875000Y-91212500D02*
X147906000Y-91181500D01*
X147325000Y-91212500D02*
X147875000Y-91212500D01*
X149106000Y-90244000D02*
X149106000Y-90828700D01*
X147968500Y-91181500D02*
X148906000Y-90244000D01*
X148906000Y-90244000D02*
X149106000Y-90244000D01*
X147906000Y-91181500D02*
X147968500Y-91181500D01*
D64*
X153825000Y-95625000D02*
X153806000Y-95644000D01*
X160287000Y-95625000D02*
X153825000Y-95625000D01*
%TO.N,CH1_attenuate*%
X148459047Y-95208599D02*
X148459047Y-97197047D01*
X172261750Y-96011750D02*
X180982750Y-104732750D01*
X180982750Y-104732750D02*
X183637250Y-104732750D01*
X164738250Y-96011750D02*
X172261750Y-96011750D01*
X162906000Y-97844000D02*
X164738250Y-96011750D01*
X149106000Y-97844000D02*
X162906000Y-97844000D01*
X148459047Y-97197047D02*
X149106000Y-97844000D01*
%TO.N,Net-(D5-A)*%
X122750000Y-111500000D02*
X124250000Y-113000000D01*
D65*
X124250000Y-113000000D02*
X124250000Y-114250000D01*
X124250000Y-114250000D02*
X123500000Y-115000000D01*
X123500000Y-115000000D02*
X121250000Y-115000000D01*
D64*
X122750000Y-110500000D02*
X122750000Y-111500000D01*
%TO.N,Net-(D6-K)*%
X127250000Y-111750000D02*
X127250000Y-112864000D01*
X127250000Y-112864000D02*
X127250000Y-113250000D01*
X127250000Y-113250000D02*
X125000000Y-115500000D01*
D65*
X125000000Y-115500000D02*
X121250000Y-115500000D01*
D64*
%TO.N,P_CH0_IN*%
X188227000Y-84865000D02*
X187126000Y-83764000D01*
X181683050Y-108244000D02*
X185451029Y-104476021D01*
X169746000Y-108244000D02*
X181683050Y-108244000D01*
X185451029Y-104476021D02*
X185451029Y-100029942D01*
X185451029Y-100029942D02*
X188227000Y-97253971D01*
X188227000Y-97253971D02*
X188227000Y-84865000D01*
%TO.N,DEBUG_JTMS-SWDI0*%
X129376000Y-119444000D02*
X137000000Y-111820000D01*
X137000000Y-111820000D02*
X137000000Y-109500000D01*
D65*
%TO.N,DEBUG_JTD-SW0*%
X140506000Y-95844000D02*
X140594000Y-95844000D01*
X142394000Y-97644000D02*
X143306000Y-97644000D01*
X140594000Y-95844000D02*
X142394000Y-97644000D01*
%TO.N,DEBUG_JTCK_SWCLK*%
X137506000Y-106234000D02*
X137506000Y-104044000D01*
X124296000Y-119444000D02*
X137506000Y-106234000D01*
D64*
%TO.N,LOGIC_INP0*%
X144650000Y-103900000D02*
X146886000Y-106136000D01*
X146886000Y-106186000D02*
X146886000Y-108244000D01*
%TO.N,LOGIC_INP7*%
X162150000Y-103900000D02*
X164666000Y-106416000D01*
X164666000Y-106416000D02*
X164666000Y-108244000D01*
%TO.N,LOGIC_INP11*%
X154506000Y-113356000D02*
X154506000Y-110784000D01*
X154550000Y-113400000D02*
X154506000Y-113356000D01*
%TO.N,LOGIC_INP5*%
X157150000Y-103900000D02*
X159586000Y-106336000D01*
X159586000Y-106336000D02*
X159586000Y-108244000D01*
%TO.N,LOGIC_INP4*%
X157046000Y-106296000D02*
X157046000Y-108244000D01*
X154650000Y-103900000D02*
X157046000Y-106296000D01*
%TO.N,CH0_ACDC*%
X170500000Y-71750000D02*
X170500000Y-82250000D01*
%TO.N,LOGIC_INP3*%
X154506000Y-106256000D02*
X154506000Y-108244000D01*
X152150000Y-103900000D02*
X154506000Y-106256000D01*
%TO.N,LOGIC_INP2*%
X149650000Y-103900000D02*
X151966000Y-106216000D01*
X151966000Y-106216000D02*
X151966000Y-108244000D01*
%TO.N,DAC1_OUT1*%
X141806000Y-108244000D02*
X141806000Y-106971208D01*
X141806000Y-106971208D02*
X137078792Y-102244000D01*
X137078792Y-102244000D02*
X129806000Y-102244000D01*
%TO.N,DAC1_OUT2*%
X133402001Y-86840001D02*
X133306000Y-86744000D01*
X140102001Y-86840001D02*
X133402001Y-86840001D01*
X140106000Y-86844000D02*
X140102001Y-86840001D01*
%TO.N,LOGIC_INP8*%
X146886000Y-113266000D02*
X146886000Y-110784000D01*
X147020000Y-113400000D02*
X146886000Y-113266000D01*
%TO.N,LOGIC_INP6*%
X162126000Y-106376000D02*
X162126000Y-108244000D01*
X159650000Y-103900000D02*
X162126000Y-106376000D01*
%TO.N,LOGIC_INP1*%
X149426000Y-106176000D02*
X149426000Y-108244000D01*
X147150000Y-103900000D02*
X149426000Y-106176000D01*
%TO.N,CH1_ACDC*%
X159706000Y-93244000D02*
X161993500Y-93244000D01*
%TO.N,LOGIC_INP14*%
X162126000Y-110784000D02*
X162126000Y-113324000D01*
X162126000Y-113324000D02*
X162050000Y-113400000D01*
%TO.N,LOGIC_INP10*%
X152050000Y-110868000D02*
X151966000Y-110784000D01*
X152050000Y-113400000D02*
X152050000Y-110868000D01*
%TO.N,LOGIC_INP9*%
X149550000Y-110908000D02*
X149426000Y-110784000D01*
X149550000Y-113400000D02*
X149550000Y-110908000D01*
%TO.N,LOGIC_INP15*%
X164666000Y-113284000D02*
X164550000Y-113400000D01*
X164666000Y-110784000D02*
X164666000Y-113284000D01*
%TO.N,LOGIC_INP12*%
X157050000Y-110788000D02*
X157046000Y-110784000D01*
X157050000Y-113400000D02*
X157050000Y-110788000D01*
D65*
%TO.N,LOGIC_INP13*%
X159586000Y-113364000D02*
X159550000Y-113400000D01*
X159586000Y-110784000D02*
X159586000Y-113364000D01*
D64*
%TO.N,Net-(R9-Pad1)*%
X165358500Y-94784000D02*
X163818500Y-93244000D01*
X165806000Y-94784000D02*
X165358500Y-94784000D01*
D65*
%TO.N,Net-(U3-1Y)*%
X164293500Y-86244000D02*
X164293500Y-85594000D01*
X165906000Y-90844000D02*
X167911939Y-92849939D01*
X165906000Y-87199130D02*
X165906000Y-90844000D01*
X164293500Y-86244000D02*
X164950870Y-86244000D01*
D64*
X158568500Y-87544000D02*
X161006000Y-87544000D01*
X162306000Y-86244000D02*
X164293500Y-86244000D01*
X156662500Y-89337500D02*
X157806000Y-88194000D01*
D65*
X164950870Y-86244000D02*
X165906000Y-87199130D01*
D64*
X156662500Y-90000000D02*
X156662500Y-89337500D01*
D65*
X167911939Y-92849939D02*
X170143500Y-92849939D01*
D64*
X161006000Y-87544000D02*
X162306000Y-86244000D01*
X157806000Y-88194000D02*
X158568500Y-88194000D01*
D65*
X158568500Y-87544000D02*
X158568500Y-88194000D01*
D64*
%TO.N,Net-(U3-1Z)*%
X168006000Y-84944000D02*
X164293500Y-84944000D01*
X171506000Y-88444000D02*
X168006000Y-84944000D01*
%TO.N,Net-(U3-2Z)*%
X163090575Y-87237812D02*
X163434387Y-86894000D01*
X169906000Y-88444000D02*
X169906000Y-87833950D01*
X163434387Y-86894000D02*
X164293500Y-86894000D01*
X169906000Y-87833950D02*
X168491052Y-86419002D01*
%TO.N,Net-(U3-3Z)*%
X159700662Y-88844000D02*
X158568500Y-88844000D01*
X166706000Y-86619000D02*
X166506000Y-86419000D01*
X160200661Y-88344001D02*
X159700662Y-88844000D01*
X166706000Y-88444000D02*
X166706000Y-86619000D01*
%TO.N,Net-(U3-4Z)*%
X157306000Y-87244000D02*
X157656000Y-86894000D01*
X167421658Y-86769707D02*
X167431707Y-86769707D01*
X167431707Y-86769707D02*
X168306000Y-87644000D01*
X157656000Y-86894000D02*
X158568500Y-86894000D01*
X168306000Y-87644000D02*
X168306000Y-88444000D01*
%TO.N,Net-(U5-1Z)*%
X143500000Y-72244000D02*
X144506000Y-72244000D01*
X144506000Y-72244000D02*
X147906000Y-68844000D01*
X147906000Y-68844000D02*
X149193500Y-68844000D01*
%TO.N,Net-(U5-2Z)*%
X142956000Y-75044000D02*
X142906000Y-75044000D01*
X149193500Y-70444000D02*
X147556000Y-70444000D01*
X147556000Y-70444000D02*
X142956000Y-75044000D01*
%TO.N,Net-(U5-3Z)*%
X148993500Y-73644000D02*
X148993500Y-73756500D01*
X148993500Y-73756500D02*
X145706000Y-77044000D01*
%TO.N,Net-(U5-4Z)*%
X148806000Y-72044000D02*
X145906000Y-74944000D01*
X148993500Y-72044000D02*
X148806000Y-72044000D01*
%TO.N,TIM2_CH3*%
X151600000Y-83750000D02*
X150706000Y-84644000D01*
X156319614Y-83750000D02*
X151600000Y-83750000D01*
%TO.N,Net-(U6-+IN_B)*%
X152104000Y-77299000D02*
X152806000Y-78001000D01*
X151463500Y-77299000D02*
X152104000Y-77299000D01*
%TO.N,TIM2_CH2*%
X149505000Y-80919000D02*
X149505000Y-81443000D01*
X149505000Y-81443000D02*
X149506000Y-81444000D01*
X149506000Y-81444000D02*
X149506000Y-84644000D01*
%TO.N,Net-(U6-OUT_B)*%
X158750000Y-74500000D02*
X159000000Y-74500000D01*
X159750000Y-75250000D02*
X159750000Y-77500000D01*
X155875000Y-83013000D02*
X155306000Y-82444000D01*
X155875000Y-83025000D02*
X155875000Y-83013000D01*
X159000000Y-74500000D02*
X159750000Y-75250000D01*
X159750000Y-77500000D02*
X159250000Y-78000000D01*
%TO.N,TIM1_CH1*%
X137651470Y-93000000D02*
X137407470Y-93244000D01*
X137407470Y-93244000D02*
X133931000Y-93244000D01*
%TO.N,TIM1_CH2*%
X129931000Y-94244000D02*
X129906000Y-94219000D01*
X116006000Y-84735364D02*
X122014636Y-90744000D01*
X116006000Y-84244000D02*
X116006000Y-84735364D01*
X122014636Y-90744000D02*
X124306000Y-90744000D01*
X138500000Y-94750000D02*
X137994000Y-94244000D01*
X137994000Y-94244000D02*
X129931000Y-94244000D01*
%TO.N,/AWG_FrontEnd/C0_FB*%
X124500000Y-99300000D02*
X125506000Y-98294000D01*
X124500000Y-101900058D02*
X124500000Y-99300000D01*
X124601000Y-109101000D02*
X124601000Y-102001058D01*
X126050000Y-109919000D02*
X125419000Y-109919000D01*
X125356000Y-98294000D02*
X125506000Y-98294000D01*
X123781000Y-96719000D02*
X125356000Y-98294000D01*
X125419000Y-109919000D02*
X124601000Y-109101000D01*
X124601000Y-102001058D02*
X124500000Y-101900058D01*
%TO.N,/AWG_FrontEnd/C1_FB*%
X125506000Y-93619000D02*
X125506000Y-93444000D01*
X125506000Y-93444000D02*
X124306000Y-92244000D01*
%TO.N,/AWG_FrontEnd/C0_OUT_G*%
X124000000Y-109938000D02*
X125306000Y-111244000D01*
X117000000Y-101500000D02*
X118046000Y-100454000D01*
X122204000Y-100454000D02*
X124000000Y-102250000D01*
X118046000Y-100454000D02*
X122204000Y-100454000D01*
X124000000Y-102250000D02*
X124000000Y-109938000D01*
%TO.N,/AWG_FrontEnd/C1_OUT_G*%
X125300000Y-82850000D02*
X120506000Y-87644000D01*
X126750000Y-80250000D02*
X125300000Y-81700000D01*
X125300000Y-81700000D02*
X125300000Y-82850000D01*
X120506000Y-87644000D02*
X120506000Y-88244000D01*
X126750000Y-80000000D02*
X126750000Y-80250000D01*
%TO.N,Net-(U9D--)*%
X126500000Y-104500000D02*
X126437500Y-104562500D01*
X126500000Y-102500000D02*
X126500000Y-104500000D01*
%TO.N,Net-(U10C--)*%
X126275000Y-87665000D02*
X125831000Y-88109000D01*
X126275000Y-86325000D02*
X126275000Y-87665000D01*
D65*
%TO.N,UCPD_FLT*%
X130630996Y-66344000D02*
X129481000Y-67493996D01*
X129283600Y-67691396D02*
X129283600Y-69046597D01*
X127500000Y-76750000D02*
X128500000Y-77750000D01*
X129481000Y-67493996D02*
X129283600Y-67691396D01*
X131831000Y-84294000D02*
X131831000Y-84764072D01*
X133250000Y-82875000D02*
X131831000Y-84294000D01*
X127500000Y-76000000D02*
X127500000Y-76750000D01*
X128500000Y-77750000D02*
X129050000Y-77750000D01*
X131250000Y-66344000D02*
X130630996Y-66344000D01*
X133250000Y-81950000D02*
X133250000Y-82875000D01*
X129050000Y-77750000D02*
X133250000Y-81950000D01*
%TO.N,Net-(U17-VBUS_CTRL)*%
X127280000Y-72244000D02*
X127286000Y-72250000D01*
X126250000Y-72000000D02*
X126494000Y-72244000D01*
X128424998Y-72250000D02*
X128783601Y-71891397D01*
X126494000Y-72244000D02*
X127280000Y-72244000D01*
X127286000Y-72250000D02*
X128424998Y-72250000D01*
%TO.N,CH1_amp_10*%
X156675477Y-85413477D02*
X157506000Y-86244000D01*
X156675477Y-85355472D02*
X156675477Y-85413477D01*
X157506000Y-86244000D02*
X158568500Y-86244000D01*
D64*
%TO.N,CH1_amp_5*%
X162350735Y-88194000D02*
X164293500Y-88194000D01*
X162200987Y-88044252D02*
X162350735Y-88194000D01*
%TO.N,CH1_amp_1*%
X159566730Y-85594000D02*
X159778337Y-85382393D01*
X158568500Y-85594000D02*
X159566730Y-85594000D01*
D65*
%TO.N,CH1_amp_2.5*%
X165332000Y-90193000D02*
X165306000Y-90219000D01*
X143545000Y-87045000D02*
X143906000Y-87045000D01*
X164293500Y-87544000D02*
X164950870Y-87544000D01*
X165030999Y-87544000D02*
X165332000Y-87845001D01*
X164293500Y-87544000D02*
X165030999Y-87544000D01*
X141049265Y-85200735D02*
X141487530Y-85639000D01*
X142139000Y-85639000D02*
X143545000Y-87045000D01*
X165332000Y-87845001D02*
X165332000Y-90193000D01*
X141487530Y-85639000D02*
X142139000Y-85639000D01*
%TO.N,CH0_amp_1*%
X145156057Y-73744000D02*
X145506000Y-73744000D01*
X140132735Y-77843000D02*
X141057057Y-77843000D01*
X133975735Y-84000000D02*
X140132735Y-77843000D01*
X141057057Y-77843000D02*
X145156057Y-73744000D01*
X133975735Y-84024265D02*
X133975735Y-84000000D01*
X133625000Y-84375000D02*
X133975735Y-84024265D01*
%TO.N,CH0_amp_10*%
X141506000Y-78244000D02*
X140531000Y-78244000D01*
X144937871Y-74812129D02*
X141506000Y-78244000D01*
X140531000Y-78244000D02*
X133706000Y-85069000D01*
X133706000Y-85069000D02*
X133706000Y-86044000D01*
D64*
%TO.N,GAIN_C1*%
X144205000Y-87945000D02*
X132605000Y-87945000D01*
X145500000Y-85100000D02*
X145706000Y-85306000D01*
X132605000Y-87945000D02*
X127306000Y-93244000D01*
X145706000Y-85306000D02*
X145706000Y-86444000D01*
X145706000Y-86444000D02*
X144205000Y-87945000D01*
%TO.N,GAIN_C0*%
X129205000Y-93928636D02*
X129615636Y-93518000D01*
X129632000Y-93518000D02*
X134406000Y-88744000D01*
X129205000Y-93945000D02*
X129205000Y-93928636D01*
X128706000Y-95844000D02*
X128706000Y-94444000D01*
X129615636Y-93518000D02*
X129632000Y-93518000D01*
X128706000Y-94444000D02*
X129205000Y-93945000D01*
X134406000Y-88744000D02*
X142806000Y-88744000D01*
X128106000Y-96444000D02*
X128706000Y-95844000D01*
D65*
%TO.N,USCPD_DBn*%
X128637263Y-66912737D02*
X128637263Y-68887263D01*
X128125000Y-66600000D02*
X128324526Y-66600000D01*
X128324526Y-66600000D02*
X128637263Y-66912737D01*
%TO.N,Net-(C31-Pad2)*%
X139597620Y-91097620D02*
X138500000Y-90000000D01*
X139597620Y-91700000D02*
X139597620Y-91097620D01*
D64*
X139597620Y-93750000D02*
X139597620Y-91700000D01*
D65*
%TO.N,Net-(Q1-G)*%
X129400000Y-72007797D02*
X129283600Y-71891397D01*
X129325000Y-73025000D02*
X129325000Y-72707800D01*
X129400000Y-72632800D02*
X129400000Y-72007797D01*
X129325000Y-72707800D02*
X129400000Y-72632800D01*
%TO.N,+5VCLEAN*%
X178587500Y-109300000D02*
X177306000Y-110581500D01*
D64*
X168475000Y-81975000D02*
X163284556Y-81975000D01*
X158443500Y-84819000D02*
X158568500Y-84944000D01*
X152502087Y-79785413D02*
X152606000Y-79681500D01*
X151720976Y-79786570D02*
X151963430Y-79786570D01*
X158443500Y-83644000D02*
X158443500Y-84819000D01*
X152606000Y-79681500D02*
X153343500Y-78944000D01*
X160577162Y-84682394D02*
X158830106Y-84682394D01*
X151964587Y-79785413D02*
X152502087Y-79785413D01*
X158830106Y-84682394D02*
X158568500Y-84944000D01*
X163284556Y-81975000D02*
X160577162Y-84682394D01*
D65*
X176881500Y-110581500D02*
X176450000Y-110150000D01*
X177306000Y-110581500D02*
X176881500Y-110581500D01*
X176450000Y-109950000D02*
X176000000Y-109500000D01*
D64*
X151963430Y-79786570D02*
X151964587Y-79785413D01*
X152606000Y-80544000D02*
X152606000Y-81494000D01*
X170750000Y-86000000D02*
X170750000Y-84250000D01*
D65*
X176450000Y-110150000D02*
X176450000Y-109950000D01*
X179000000Y-109300000D02*
X178587500Y-109300000D01*
D64*
X157469000Y-83644000D02*
X157175000Y-83350000D01*
X158443500Y-83644000D02*
X157469000Y-83644000D01*
X152606000Y-80544000D02*
X152606000Y-79681500D01*
X170750000Y-84250000D02*
X168475000Y-81975000D01*
%TO.N,Net-(C9-Pad1)*%
X176017250Y-97112750D02*
X175806000Y-96901500D01*
X173068500Y-94784000D02*
X173306000Y-94546500D01*
X175806000Y-97046500D02*
X173306000Y-94546500D01*
X175806000Y-96901500D02*
X175806000Y-97046500D01*
X171306000Y-94784000D02*
X173068500Y-94784000D01*
%TO.N,Net-(U4-+IN_A)*%
X171812000Y-92750000D02*
X173234500Y-92750000D01*
X173428500Y-92821500D02*
X173306000Y-92821500D01*
X173234500Y-92750000D02*
X173306000Y-92821500D01*
X171306000Y-92244000D02*
X171812000Y-92750000D01*
X174500000Y-92750000D02*
X173500000Y-92750000D01*
X173500000Y-92750000D02*
X173428500Y-92821500D01*
%TO.N,Net-(C10-Pad1)*%
X170500000Y-70250000D02*
X174500000Y-74250000D01*
X174500000Y-77638000D02*
X174500000Y-74250000D01*
X165968500Y-70250000D02*
X170500000Y-70250000D01*
X179506000Y-83764000D02*
X179506000Y-82644000D01*
X179506000Y-82644000D02*
X174500000Y-77638000D01*
%TO.N,Net-(U6-+IN_A)*%
X164243500Y-70250000D02*
X162493500Y-68500000D01*
X162493500Y-68500000D02*
X161000000Y-68500000D01*
%TO.N,Net-(U15-VO)*%
X135906000Y-78044000D02*
X137057999Y-78044000D01*
X137355999Y-77746000D02*
X137355999Y-76939600D01*
X137057999Y-78044000D02*
X137355999Y-77746000D01*
D65*
%TO.N,Net-(D10-K)*%
X125454981Y-69229981D02*
X125454981Y-70500000D01*
X125462004Y-73250000D02*
X125250000Y-73037996D01*
X126250000Y-73250000D02*
X125462004Y-73250000D01*
X127861200Y-70468997D02*
X125485984Y-70468997D01*
X125250000Y-70704982D02*
X125454981Y-70500000D01*
X124725000Y-68500000D02*
X125454981Y-69229981D01*
X125250000Y-73037996D02*
X125250000Y-70704982D01*
X125485984Y-70468997D02*
X125454981Y-70500000D01*
D64*
%TO.N,USB_D+*%
X130500000Y-88750000D02*
X129706000Y-87956000D01*
D65*
X124500000Y-73763762D02*
X124707114Y-73763762D01*
D64*
X123525000Y-70050000D02*
X121250000Y-70050000D01*
D65*
X124707114Y-73763762D02*
X124500000Y-73556648D01*
D64*
X129706000Y-87956000D02*
X129706000Y-81456000D01*
D65*
X124500000Y-70750000D02*
X124750000Y-70500000D01*
X124300000Y-70050000D02*
X124750000Y-70500000D01*
X123525000Y-70050000D02*
X124300000Y-70050000D01*
X124500000Y-73556648D02*
X124500000Y-70750000D01*
D64*
X129706000Y-81456000D02*
X122706000Y-74456000D01*
X122706000Y-74456000D02*
X122706000Y-73044000D01*
%TO.N,USB_D-*%
X123500000Y-74000000D02*
X130506000Y-81006000D01*
X123579000Y-72004000D02*
X123500000Y-72083000D01*
D65*
X121500000Y-75000000D02*
X121530002Y-74969998D01*
X121530002Y-72630002D02*
X121250000Y-72350000D01*
X121250000Y-72350000D02*
X121250000Y-72008000D01*
D64*
X130506000Y-87506000D02*
X131250000Y-88250000D01*
D65*
X118004000Y-72004000D02*
X121246000Y-72004000D01*
D64*
X121246000Y-72004000D02*
X123579000Y-72004000D01*
X130506000Y-81006000D02*
X130506000Y-87506000D01*
D65*
X121250000Y-72008000D02*
X121246000Y-72004000D01*
D64*
X123500000Y-72083000D02*
X123500000Y-74000000D01*
D65*
X116450000Y-70450000D02*
X118004000Y-72004000D01*
X121530002Y-74969998D02*
X121530002Y-72630002D01*
D64*
%TO.N,Net-(U8--)*%
X154125000Y-81704999D02*
X154125000Y-81093588D01*
X156007000Y-73943000D02*
X156007000Y-79843000D01*
X156007000Y-79843000D02*
X155306000Y-80544000D01*
X156007000Y-73983255D02*
X155995227Y-73995028D01*
X150674588Y-82369000D02*
X152531000Y-82369000D01*
X154125000Y-81093588D02*
X154674588Y-80544000D01*
X153385999Y-82444000D02*
X154125000Y-81704999D01*
X154674588Y-80544000D02*
X155306000Y-80544000D01*
X152531000Y-82369000D02*
X152606000Y-82444000D01*
X152606000Y-82444000D02*
X153385999Y-82444000D01*
X156007000Y-73943000D02*
X156007000Y-73983255D01*
%TO.N,Net-(U6-OUT_A)*%
X149876000Y-74586500D02*
X150818500Y-73644000D01*
X150818500Y-72044000D02*
X150818500Y-73644000D01*
X151224000Y-75474000D02*
X151463500Y-75474000D01*
X151018500Y-73606500D02*
X151106000Y-73694000D01*
X150336500Y-74586500D02*
X151224000Y-75474000D01*
X151018500Y-68844000D02*
X151018500Y-70444000D01*
X149876000Y-74586500D02*
X150336500Y-74586500D01*
X151018500Y-70444000D02*
X151018500Y-71844000D01*
X151018500Y-70444000D02*
X151694000Y-70444000D01*
X151018500Y-71844000D02*
X150818500Y-72044000D01*
X151694000Y-70444000D02*
X152500000Y-71250000D01*
%TO.N,Net-(U4-OUT_A)*%
X167230265Y-90793265D02*
X166706000Y-90269000D01*
X172500000Y-89000000D02*
X172500000Y-86500000D01*
X171506000Y-90269000D02*
X172500000Y-89275000D01*
X172500000Y-86500000D02*
X173500000Y-85500000D01*
X171506000Y-90269000D02*
X166706000Y-90269000D01*
X167230265Y-91319735D02*
X167230265Y-90793265D01*
X172500000Y-89275000D02*
X172500000Y-89000000D01*
D65*
%TO.N,Net-(C35-Pad2)*%
X158437500Y-94375000D02*
X158064500Y-94375000D01*
D64*
X156533500Y-92844000D02*
X156533500Y-91256500D01*
X156533500Y-91256500D02*
X156546000Y-91244000D01*
D65*
X158064500Y-94375000D02*
X156533500Y-92844000D01*
%TO.N,Net-(C36-Pad2)*%
X151977500Y-94150000D02*
X153283500Y-92844000D01*
D64*
X153283500Y-92844000D02*
X153283500Y-91304000D01*
D65*
X150750000Y-94150000D02*
X150700000Y-94100000D01*
D64*
X153283500Y-92844000D02*
X152833500Y-93294000D01*
D65*
X151977500Y-94150000D02*
X150750000Y-94150000D01*
D64*
X153283500Y-91304000D02*
X153273500Y-91294000D01*
%TO.N,Net-(D10-A)*%
X157056000Y-81944000D02*
X157056000Y-82044000D01*
X133700000Y-67950000D02*
X133350000Y-67600000D01*
X157056000Y-82044000D02*
X157775000Y-81325000D01*
X127650000Y-73250000D02*
X127500000Y-73250000D01*
X134250000Y-69300000D02*
X133700000Y-68750000D01*
D65*
X124500000Y-77750000D02*
X123337000Y-77750000D01*
D64*
X157056000Y-82044000D02*
X157056000Y-82256500D01*
D65*
X123337000Y-77750000D02*
X123231000Y-77644000D01*
X127650000Y-73250000D02*
X127950000Y-73250000D01*
X127650000Y-73250000D02*
X127696000Y-73296000D01*
D64*
X157775000Y-81325000D02*
X157775000Y-81225000D01*
X137025000Y-69750000D02*
X136575000Y-69300000D01*
X136575000Y-69300000D02*
X134250000Y-69300000D01*
D65*
X127950000Y-73250000D02*
X128350000Y-72850000D01*
D64*
X133700000Y-68750000D02*
X133700000Y-67950000D01*
D65*
%TO.N,Net-(J20-CC1)*%
X139475000Y-67050000D02*
X139475000Y-68100000D01*
X132760000Y-70740000D02*
X133000000Y-70500000D01*
X132375000Y-69875000D02*
X132375000Y-68775000D01*
X126837004Y-70968996D02*
X127861200Y-70968996D01*
X133000000Y-70500000D02*
X132375000Y-69875000D01*
X132375000Y-68775000D02*
X132025000Y-68425000D01*
X133250000Y-66450000D02*
X138875000Y-66450000D01*
X138875000Y-66450000D02*
X139475000Y-67050000D01*
X132025000Y-67675000D02*
X133250000Y-66450000D01*
X131925000Y-70740000D02*
X132760000Y-70740000D01*
X126556000Y-71250000D02*
X126837004Y-70968996D01*
X126500000Y-71250000D02*
X126556000Y-71250000D01*
X133000000Y-70500000D02*
X132853000Y-70500000D01*
X132025000Y-68425000D02*
X132025000Y-67675000D01*
%TO.N,Net-(J20-CC2)*%
X127861200Y-68586200D02*
X126275000Y-67000000D01*
X117225000Y-71950000D02*
X116700000Y-71950000D01*
X122075000Y-67300000D02*
X122075000Y-67450000D01*
X117469500Y-73000000D02*
X117556000Y-73086500D01*
X117550000Y-73080500D02*
X117550000Y-72275000D01*
X117469500Y-72969500D02*
X117469500Y-73000000D01*
X126275000Y-67000000D02*
X122375000Y-67000000D01*
X116700000Y-71950000D02*
X116250000Y-71500000D01*
X122075000Y-67450000D02*
X122075000Y-67500000D01*
X117556000Y-73086500D02*
X117550000Y-73080500D01*
X113661500Y-73086500D02*
X113400000Y-72825000D01*
X122375000Y-67000000D02*
X122200000Y-67175000D01*
X117550000Y-72275000D02*
X117225000Y-71950000D01*
X117556000Y-73086500D02*
X113661500Y-73086500D01*
X127861200Y-69968998D02*
X127861200Y-68586200D01*
X122200000Y-67175000D02*
X122075000Y-67300000D01*
%TO.N,Net-(U12-PB14)*%
X117050000Y-78550000D02*
X119575000Y-81075000D01*
X119575000Y-81075000D02*
X119975000Y-81075000D01*
X117050000Y-76825000D02*
X117050000Y-78550000D01*
%TD*%
M02*
