%TF.GenerationSoftware,KiCad,Pcbnew,(6.0.7)*%
%TF.CreationDate,2023-02-28T16:34:10-05:00*%
%TF.ProjectId,Front_EndDesign3,46726f6e-745f-4456-9e64-44657369676e,rev?*%
%TF.SameCoordinates,Original*%
%TF.FileFunction,Copper,L3,Inr*%
%TF.FilePolarity,Positive*%
%FSLAX46Y46*%
G04 Gerber Fmt 4.6, Leading zero omitted, Abs format (unit mm)*
G04 Created by KiCad (PCBNEW (6.0.7)) date 2023-02-28 16:34:10*
%MOMM*%
%LPD*%
G01*
G04 APERTURE LIST*
%TA.AperFunction,ComponentPad*%
%ADD10R,1.700000X1.700000*%
%TD*%
%TA.AperFunction,ComponentPad*%
%ADD11R,1.400000X1.400000*%
%TD*%
%TA.AperFunction,ComponentPad*%
%ADD12C,1.400000*%
%TD*%
%TA.AperFunction,ComponentPad*%
%ADD13R,1.600000X1.600000*%
%TD*%
%TA.AperFunction,ComponentPad*%
%ADD14O,1.600000X1.600000*%
%TD*%
%TA.AperFunction,ComponentPad*%
%ADD15O,1.700000X1.700000*%
%TD*%
%TA.AperFunction,ViaPad*%
%ADD16C,0.838000*%
%TD*%
%TA.AperFunction,ViaPad*%
%ADD17C,0.600000*%
%TD*%
%TA.AperFunction,ViaPad*%
%ADD18C,0.800000*%
%TD*%
G04 APERTURE END LIST*
D10*
%TO.N,Net-(J7-Pad1)*%
%TO.C,J7*%
X95270000Y-75050000D03*
%TD*%
%TO.N,Net-(C5-Pad1)*%
%TO.C,J4*%
X67715000Y-94586000D03*
%TD*%
%TO.N,+5V*%
%TO.C,J8*%
X103500000Y-88900000D03*
%TD*%
D11*
%TO.N,GND*%
%TO.C,K1*%
X72012500Y-82607500D03*
D12*
%TO.N,Net-(C7-Pad1)*%
X72012500Y-74987500D03*
%TO.N,Net-(C1-Pad2)*%
X72012500Y-69907500D03*
%TO.N,Net-(C3-Pad2)*%
X72012500Y-64827500D03*
%TO.N,Net-(C3-Pad1)*%
X64392500Y-64827500D03*
%TO.N,Net-(C2-Pad2)*%
X64392500Y-69907500D03*
%TO.N,Net-(GD1-Pad1)*%
X64392500Y-74987500D03*
%TO.N,attenuate*%
X64392500Y-82607500D03*
%TD*%
D13*
%TO.N,attenuate*%
%TO.C,D2*%
X64400000Y-85600000D03*
D14*
%TO.N,GND*%
X72020000Y-85600000D03*
%TD*%
D10*
%TO.N,Net-(J12-Pad1)*%
%TO.C,J12*%
X113030000Y-75438000D03*
%TD*%
%TO.N,Net-(C7-Pad1)*%
%TO.C,J3*%
X75600000Y-75000000D03*
%TD*%
%TO.N,Net-(C7-Pad2)*%
%TO.C,J5*%
X85280000Y-75040000D03*
%TD*%
%TO.N,Net-(GD1-Pad1)*%
%TO.C,J1*%
X59436000Y-74970000D03*
%TD*%
%TO.N,attenuate*%
%TO.C,J11*%
X79475000Y-64200000D03*
D15*
%TO.N,acdc*%
X82015000Y-64200000D03*
%TO.N,amp1-10*%
X84555000Y-64200000D03*
%TO.N,amp1-5*%
X87095000Y-64200000D03*
%TO.N,amp1-2.5*%
X89635000Y-64200000D03*
%TO.N,amp1-1*%
X92175000Y-64200000D03*
%TO.N,pwm*%
X94715000Y-64200000D03*
%TO.N,GND*%
X97255000Y-64200000D03*
X99795000Y-64200000D03*
X102335000Y-64200000D03*
%TD*%
D10*
%TO.N,-5V*%
%TO.C,J10*%
X118500000Y-89000000D03*
%TD*%
%TO.N,+3.3V*%
%TO.C,J14*%
X113100000Y-66100000D03*
%TD*%
%TO.N,Net-(C13-Pad1)*%
%TO.C,J9*%
X107100000Y-67200000D03*
%TD*%
%TO.N,+5V*%
%TO.C,J6*%
X77567000Y-90236000D03*
%TD*%
%TO.N,Net-(C21-Pad1)*%
%TO.C,J13*%
X120904000Y-75420000D03*
%TD*%
D16*
%TO.N,GND*%
X80642700Y-82857300D03*
X98200000Y-85200000D03*
X61900000Y-95700000D03*
X74400000Y-67400000D03*
X83200000Y-93400000D03*
X93100000Y-71800000D03*
X83200000Y-86500000D03*
X94500000Y-80600000D03*
X65400000Y-73000000D03*
X93100000Y-77100000D03*
X108700000Y-85600000D03*
X120200000Y-78900000D03*
X63400000Y-89300000D03*
D17*
X106300000Y-81500000D03*
D16*
X109800000Y-64400000D03*
%TO.N,-5V*%
X116300000Y-84500000D03*
X101500000Y-72300000D03*
X89900000Y-88900000D03*
X111400000Y-72400000D03*
X96700000Y-72300000D03*
%TO.N,+5V*%
X105700000Y-76500000D03*
D18*
X110490000Y-82550000D03*
D16*
X86700000Y-80000000D03*
X80700000Y-90300000D03*
X84700000Y-86229000D03*
%TO.N,+3.3V*%
X115500000Y-64000000D03*
D17*
%TO.N,acdc*%
X76500000Y-78700000D03*
%TO.N,amp1-1*%
X94700000Y-91229000D03*
%TO.N,amp1-2.5*%
X90700000Y-80600000D03*
%TO.N,amp1-5*%
X88100000Y-80900000D03*
D16*
%TO.N,amp1-10*%
X82700000Y-91200000D03*
%TD*%
%TA.AperFunction,Conductor*%
%TO.N,+3.3V*%
G36*
X123893621Y-62250002D02*
G01*
X123940114Y-62303658D01*
X123951500Y-62356000D01*
X123951500Y-69676713D01*
X123931498Y-69744834D01*
X123877842Y-69791327D01*
X123826041Y-69802712D01*
X77822847Y-69999475D01*
X77754643Y-69979764D01*
X77707921Y-69926308D01*
X77696365Y-69877204D01*
X77643703Y-68098134D01*
X105741500Y-68098134D01*
X105748255Y-68160316D01*
X105799385Y-68296705D01*
X105886739Y-68413261D01*
X106003295Y-68500615D01*
X106139684Y-68551745D01*
X106201866Y-68558500D01*
X107998134Y-68558500D01*
X108060316Y-68551745D01*
X108196705Y-68500615D01*
X108313261Y-68413261D01*
X108400615Y-68296705D01*
X108451745Y-68160316D01*
X108458500Y-68098134D01*
X108458500Y-66994669D01*
X111742001Y-66994669D01*
X111742371Y-67001490D01*
X111747895Y-67052352D01*
X111751521Y-67067604D01*
X111796676Y-67188054D01*
X111805214Y-67203649D01*
X111881715Y-67305724D01*
X111894276Y-67318285D01*
X111996351Y-67394786D01*
X112011946Y-67403324D01*
X112132394Y-67448478D01*
X112147649Y-67452105D01*
X112198514Y-67457631D01*
X112205328Y-67458000D01*
X112827885Y-67458000D01*
X112843124Y-67453525D01*
X112844329Y-67452135D01*
X112846000Y-67444452D01*
X112846000Y-67439884D01*
X113354000Y-67439884D01*
X113358475Y-67455123D01*
X113359865Y-67456328D01*
X113367548Y-67457999D01*
X113994669Y-67457999D01*
X114001490Y-67457629D01*
X114052352Y-67452105D01*
X114067604Y-67448479D01*
X114188054Y-67403324D01*
X114203649Y-67394786D01*
X114305724Y-67318285D01*
X114318285Y-67305724D01*
X114394786Y-67203649D01*
X114403324Y-67188054D01*
X114448478Y-67067606D01*
X114452105Y-67052351D01*
X114457631Y-67001486D01*
X114458000Y-66994672D01*
X114458000Y-66372115D01*
X114453525Y-66356876D01*
X114452135Y-66355671D01*
X114444452Y-66354000D01*
X113372115Y-66354000D01*
X113356876Y-66358475D01*
X113355671Y-66359865D01*
X113354000Y-66367548D01*
X113354000Y-67439884D01*
X112846000Y-67439884D01*
X112846000Y-66372115D01*
X112841525Y-66356876D01*
X112840135Y-66355671D01*
X112832452Y-66354000D01*
X111760116Y-66354000D01*
X111744877Y-66358475D01*
X111743672Y-66359865D01*
X111742001Y-66367548D01*
X111742001Y-66994669D01*
X108458500Y-66994669D01*
X108458500Y-66301866D01*
X108451745Y-66239684D01*
X108400615Y-66103295D01*
X108313261Y-65986739D01*
X108196705Y-65899385D01*
X108060316Y-65848255D01*
X107998134Y-65841500D01*
X106201866Y-65841500D01*
X106139684Y-65848255D01*
X106003295Y-65899385D01*
X105886739Y-65986739D01*
X105799385Y-66103295D01*
X105748255Y-66239684D01*
X105741500Y-66301866D01*
X105741500Y-68098134D01*
X77643703Y-68098134D01*
X77624581Y-67452135D01*
X77576501Y-65827885D01*
X111742000Y-65827885D01*
X111746475Y-65843124D01*
X111747865Y-65844329D01*
X111755548Y-65846000D01*
X112827885Y-65846000D01*
X112843124Y-65841525D01*
X112844329Y-65840135D01*
X112846000Y-65832452D01*
X112846000Y-65827885D01*
X113354000Y-65827885D01*
X113358475Y-65843124D01*
X113359865Y-65844329D01*
X113367548Y-65846000D01*
X114439884Y-65846000D01*
X114455123Y-65841525D01*
X114456328Y-65840135D01*
X114457999Y-65832452D01*
X114457999Y-65205331D01*
X114457629Y-65198510D01*
X114452105Y-65147648D01*
X114448479Y-65132396D01*
X114403324Y-65011946D01*
X114394786Y-64996351D01*
X114318285Y-64894276D01*
X114305724Y-64881715D01*
X114203649Y-64805214D01*
X114188054Y-64796676D01*
X114067606Y-64751522D01*
X114052351Y-64747895D01*
X114001486Y-64742369D01*
X113994672Y-64742000D01*
X113372115Y-64742000D01*
X113356876Y-64746475D01*
X113355671Y-64747865D01*
X113354000Y-64755548D01*
X113354000Y-65827885D01*
X112846000Y-65827885D01*
X112846000Y-64760116D01*
X112841525Y-64744877D01*
X112840135Y-64743672D01*
X112832452Y-64742001D01*
X112205331Y-64742001D01*
X112198510Y-64742371D01*
X112147648Y-64747895D01*
X112132396Y-64751521D01*
X112011946Y-64796676D01*
X111996351Y-64805214D01*
X111894276Y-64881715D01*
X111881715Y-64894276D01*
X111805214Y-64996351D01*
X111796676Y-65011946D01*
X111751522Y-65132394D01*
X111747895Y-65147649D01*
X111742369Y-65198514D01*
X111742000Y-65205328D01*
X111742000Y-65827885D01*
X77576501Y-65827885D01*
X77554900Y-65098134D01*
X78116500Y-65098134D01*
X78123255Y-65160316D01*
X78174385Y-65296705D01*
X78261739Y-65413261D01*
X78378295Y-65500615D01*
X78514684Y-65551745D01*
X78576866Y-65558500D01*
X80373134Y-65558500D01*
X80435316Y-65551745D01*
X80571705Y-65500615D01*
X80688261Y-65413261D01*
X80775615Y-65296705D01*
X80807989Y-65210348D01*
X80819598Y-65179382D01*
X80862240Y-65122618D01*
X80928802Y-65097918D01*
X80998150Y-65113126D01*
X81032817Y-65141114D01*
X81061250Y-65173938D01*
X81233126Y-65316632D01*
X81426000Y-65429338D01*
X81634692Y-65509030D01*
X81639760Y-65510061D01*
X81639763Y-65510062D01*
X81747017Y-65531883D01*
X81853597Y-65553567D01*
X81858772Y-65553757D01*
X81858774Y-65553757D01*
X82071673Y-65561564D01*
X82071677Y-65561564D01*
X82076837Y-65561753D01*
X82081957Y-65561097D01*
X82081959Y-65561097D01*
X82293288Y-65534025D01*
X82293289Y-65534025D01*
X82298416Y-65533368D01*
X82303366Y-65531883D01*
X82507429Y-65470661D01*
X82507434Y-65470659D01*
X82512384Y-65469174D01*
X82712994Y-65370896D01*
X82894860Y-65241173D01*
X82930828Y-65205331D01*
X83039595Y-65096943D01*
X83053096Y-65083489D01*
X83183453Y-64902077D01*
X83184776Y-64903028D01*
X83231645Y-64859857D01*
X83301580Y-64847625D01*
X83367026Y-64875144D01*
X83394875Y-64906994D01*
X83454987Y-65005088D01*
X83601250Y-65173938D01*
X83773126Y-65316632D01*
X83966000Y-65429338D01*
X84174692Y-65509030D01*
X84179760Y-65510061D01*
X84179763Y-65510062D01*
X84287017Y-65531883D01*
X84393597Y-65553567D01*
X84398772Y-65553757D01*
X84398774Y-65553757D01*
X84611673Y-65561564D01*
X84611677Y-65561564D01*
X84616837Y-65561753D01*
X84621957Y-65561097D01*
X84621959Y-65561097D01*
X84833288Y-65534025D01*
X84833289Y-65534025D01*
X84838416Y-65533368D01*
X84843366Y-65531883D01*
X85047429Y-65470661D01*
X85047434Y-65470659D01*
X85052384Y-65469174D01*
X85252994Y-65370896D01*
X85434860Y-65241173D01*
X85470828Y-65205331D01*
X85579595Y-65096943D01*
X85593096Y-65083489D01*
X85723453Y-64902077D01*
X85724776Y-64903028D01*
X85771645Y-64859857D01*
X85841580Y-64847625D01*
X85907026Y-64875144D01*
X85934875Y-64906994D01*
X85994987Y-65005088D01*
X86141250Y-65173938D01*
X86313126Y-65316632D01*
X86506000Y-65429338D01*
X86714692Y-65509030D01*
X86719760Y-65510061D01*
X86719763Y-65510062D01*
X86827017Y-65531883D01*
X86933597Y-65553567D01*
X86938772Y-65553757D01*
X86938774Y-65553757D01*
X87151673Y-65561564D01*
X87151677Y-65561564D01*
X87156837Y-65561753D01*
X87161957Y-65561097D01*
X87161959Y-65561097D01*
X87373288Y-65534025D01*
X87373289Y-65534025D01*
X87378416Y-65533368D01*
X87383366Y-65531883D01*
X87587429Y-65470661D01*
X87587434Y-65470659D01*
X87592384Y-65469174D01*
X87792994Y-65370896D01*
X87974860Y-65241173D01*
X88010828Y-65205331D01*
X88119595Y-65096943D01*
X88133096Y-65083489D01*
X88263453Y-64902077D01*
X88264776Y-64903028D01*
X88311645Y-64859857D01*
X88381580Y-64847625D01*
X88447026Y-64875144D01*
X88474875Y-64906994D01*
X88534987Y-65005088D01*
X88681250Y-65173938D01*
X88853126Y-65316632D01*
X89046000Y-65429338D01*
X89254692Y-65509030D01*
X89259760Y-65510061D01*
X89259763Y-65510062D01*
X89367017Y-65531883D01*
X89473597Y-65553567D01*
X89478772Y-65553757D01*
X89478774Y-65553757D01*
X89691673Y-65561564D01*
X89691677Y-65561564D01*
X89696837Y-65561753D01*
X89701957Y-65561097D01*
X89701959Y-65561097D01*
X89913288Y-65534025D01*
X89913289Y-65534025D01*
X89918416Y-65533368D01*
X89923366Y-65531883D01*
X90127429Y-65470661D01*
X90127434Y-65470659D01*
X90132384Y-65469174D01*
X90332994Y-65370896D01*
X90514860Y-65241173D01*
X90550828Y-65205331D01*
X90659595Y-65096943D01*
X90673096Y-65083489D01*
X90803453Y-64902077D01*
X90804776Y-64903028D01*
X90851645Y-64859857D01*
X90921580Y-64847625D01*
X90987026Y-64875144D01*
X91014875Y-64906994D01*
X91074987Y-65005088D01*
X91221250Y-65173938D01*
X91393126Y-65316632D01*
X91586000Y-65429338D01*
X91794692Y-65509030D01*
X91799760Y-65510061D01*
X91799763Y-65510062D01*
X91907017Y-65531883D01*
X92013597Y-65553567D01*
X92018772Y-65553757D01*
X92018774Y-65553757D01*
X92231673Y-65561564D01*
X92231677Y-65561564D01*
X92236837Y-65561753D01*
X92241957Y-65561097D01*
X92241959Y-65561097D01*
X92453288Y-65534025D01*
X92453289Y-65534025D01*
X92458416Y-65533368D01*
X92463366Y-65531883D01*
X92667429Y-65470661D01*
X92667434Y-65470659D01*
X92672384Y-65469174D01*
X92872994Y-65370896D01*
X93054860Y-65241173D01*
X93090828Y-65205331D01*
X93199595Y-65096943D01*
X93213096Y-65083489D01*
X93343453Y-64902077D01*
X93344776Y-64903028D01*
X93391645Y-64859857D01*
X93461580Y-64847625D01*
X93527026Y-64875144D01*
X93554875Y-64906994D01*
X93614987Y-65005088D01*
X93761250Y-65173938D01*
X93933126Y-65316632D01*
X94126000Y-65429338D01*
X94334692Y-65509030D01*
X94339760Y-65510061D01*
X94339763Y-65510062D01*
X94447017Y-65531883D01*
X94553597Y-65553567D01*
X94558772Y-65553757D01*
X94558774Y-65553757D01*
X94771673Y-65561564D01*
X94771677Y-65561564D01*
X94776837Y-65561753D01*
X94781957Y-65561097D01*
X94781959Y-65561097D01*
X94993288Y-65534025D01*
X94993289Y-65534025D01*
X94998416Y-65533368D01*
X95003366Y-65531883D01*
X95207429Y-65470661D01*
X95207434Y-65470659D01*
X95212384Y-65469174D01*
X95412994Y-65370896D01*
X95594860Y-65241173D01*
X95630828Y-65205331D01*
X95739595Y-65096943D01*
X95753096Y-65083489D01*
X95883453Y-64902077D01*
X95884776Y-64903028D01*
X95931645Y-64859857D01*
X96001580Y-64847625D01*
X96067026Y-64875144D01*
X96094875Y-64906994D01*
X96154987Y-65005088D01*
X96301250Y-65173938D01*
X96473126Y-65316632D01*
X96666000Y-65429338D01*
X96874692Y-65509030D01*
X96879760Y-65510061D01*
X96879763Y-65510062D01*
X96987017Y-65531883D01*
X97093597Y-65553567D01*
X97098772Y-65553757D01*
X97098774Y-65553757D01*
X97311673Y-65561564D01*
X97311677Y-65561564D01*
X97316837Y-65561753D01*
X97321957Y-65561097D01*
X97321959Y-65561097D01*
X97533288Y-65534025D01*
X97533289Y-65534025D01*
X97538416Y-65533368D01*
X97543366Y-65531883D01*
X97747429Y-65470661D01*
X97747434Y-65470659D01*
X97752384Y-65469174D01*
X97952994Y-65370896D01*
X98134860Y-65241173D01*
X98170828Y-65205331D01*
X98279595Y-65096943D01*
X98293096Y-65083489D01*
X98423453Y-64902077D01*
X98424776Y-64903028D01*
X98471645Y-64859857D01*
X98541580Y-64847625D01*
X98607026Y-64875144D01*
X98634875Y-64906994D01*
X98694987Y-65005088D01*
X98841250Y-65173938D01*
X99013126Y-65316632D01*
X99206000Y-65429338D01*
X99414692Y-65509030D01*
X99419760Y-65510061D01*
X99419763Y-65510062D01*
X99527017Y-65531883D01*
X99633597Y-65553567D01*
X99638772Y-65553757D01*
X99638774Y-65553757D01*
X99851673Y-65561564D01*
X99851677Y-65561564D01*
X99856837Y-65561753D01*
X99861957Y-65561097D01*
X99861959Y-65561097D01*
X100073288Y-65534025D01*
X100073289Y-65534025D01*
X100078416Y-65533368D01*
X100083366Y-65531883D01*
X100287429Y-65470661D01*
X100287434Y-65470659D01*
X100292384Y-65469174D01*
X100492994Y-65370896D01*
X100674860Y-65241173D01*
X100710828Y-65205331D01*
X100819595Y-65096943D01*
X100833096Y-65083489D01*
X100963453Y-64902077D01*
X100964776Y-64903028D01*
X101011645Y-64859857D01*
X101081580Y-64847625D01*
X101147026Y-64875144D01*
X101174875Y-64906994D01*
X101234987Y-65005088D01*
X101381250Y-65173938D01*
X101553126Y-65316632D01*
X101746000Y-65429338D01*
X101954692Y-65509030D01*
X101959760Y-65510061D01*
X101959763Y-65510062D01*
X102067017Y-65531883D01*
X102173597Y-65553567D01*
X102178772Y-65553757D01*
X102178774Y-65553757D01*
X102391673Y-65561564D01*
X102391677Y-65561564D01*
X102396837Y-65561753D01*
X102401957Y-65561097D01*
X102401959Y-65561097D01*
X102613288Y-65534025D01*
X102613289Y-65534025D01*
X102618416Y-65533368D01*
X102623366Y-65531883D01*
X102827429Y-65470661D01*
X102827434Y-65470659D01*
X102832384Y-65469174D01*
X103032994Y-65370896D01*
X103214860Y-65241173D01*
X103250828Y-65205331D01*
X103359595Y-65096943D01*
X103373096Y-65083489D01*
X103503453Y-64902077D01*
X103507309Y-64894276D01*
X103600136Y-64706453D01*
X103600137Y-64706451D01*
X103602430Y-64701811D01*
X103667370Y-64488069D01*
X103678965Y-64400000D01*
X108867391Y-64400000D01*
X108887771Y-64593900D01*
X108948019Y-64779326D01*
X108951322Y-64785048D01*
X108951323Y-64785049D01*
X108987451Y-64847625D01*
X109045503Y-64948174D01*
X109049921Y-64953081D01*
X109049922Y-64953082D01*
X109167342Y-65083489D01*
X109175963Y-65093064D01*
X109181302Y-65096943D01*
X109294770Y-65179382D01*
X109333695Y-65207663D01*
X109339723Y-65210347D01*
X109339725Y-65210348D01*
X109415693Y-65244171D01*
X109511808Y-65286964D01*
X109591444Y-65303891D01*
X109696059Y-65326128D01*
X109696063Y-65326128D01*
X109702516Y-65327500D01*
X109897484Y-65327500D01*
X109903937Y-65326128D01*
X109903941Y-65326128D01*
X110008556Y-65303891D01*
X110088192Y-65286964D01*
X110184307Y-65244171D01*
X110260275Y-65210348D01*
X110260277Y-65210347D01*
X110266305Y-65207663D01*
X110305231Y-65179382D01*
X110418698Y-65096943D01*
X110424037Y-65093064D01*
X110432659Y-65083489D01*
X110550078Y-64953082D01*
X110550079Y-64953081D01*
X110554497Y-64948174D01*
X110612549Y-64847625D01*
X110648677Y-64785049D01*
X110648678Y-64785048D01*
X110651981Y-64779326D01*
X110712229Y-64593900D01*
X110732609Y-64400000D01*
X110712229Y-64206100D01*
X110651981Y-64020674D01*
X110554497Y-63851826D01*
X110476967Y-63765720D01*
X110428452Y-63711839D01*
X110428450Y-63711838D01*
X110424037Y-63706936D01*
X110266305Y-63592337D01*
X110260277Y-63589653D01*
X110260275Y-63589652D01*
X110094223Y-63515721D01*
X110094222Y-63515721D01*
X110088192Y-63513036D01*
X109992838Y-63492768D01*
X109903941Y-63473872D01*
X109903937Y-63473872D01*
X109897484Y-63472500D01*
X109702516Y-63472500D01*
X109696063Y-63473872D01*
X109696059Y-63473872D01*
X109607162Y-63492768D01*
X109511808Y-63513036D01*
X109505779Y-63515720D01*
X109505777Y-63515721D01*
X109339726Y-63589652D01*
X109339724Y-63589653D01*
X109333696Y-63592337D01*
X109175963Y-63706936D01*
X109171550Y-63711838D01*
X109171548Y-63711839D01*
X109123033Y-63765720D01*
X109045503Y-63851826D01*
X108948019Y-64020674D01*
X108887771Y-64206100D01*
X108867391Y-64400000D01*
X103678965Y-64400000D01*
X103696529Y-64266590D01*
X103698156Y-64200000D01*
X103679852Y-63977361D01*
X103625431Y-63760702D01*
X103536354Y-63555840D01*
X103496906Y-63494862D01*
X103417822Y-63372617D01*
X103417820Y-63372614D01*
X103415014Y-63368277D01*
X103264670Y-63203051D01*
X103260619Y-63199852D01*
X103260615Y-63199848D01*
X103093414Y-63067800D01*
X103093410Y-63067798D01*
X103089359Y-63064598D01*
X102893789Y-62956638D01*
X102888920Y-62954914D01*
X102888916Y-62954912D01*
X102688087Y-62883795D01*
X102688083Y-62883794D01*
X102683212Y-62882069D01*
X102678119Y-62881162D01*
X102678116Y-62881161D01*
X102468373Y-62843800D01*
X102468367Y-62843799D01*
X102463284Y-62842894D01*
X102389452Y-62841992D01*
X102245081Y-62840228D01*
X102245079Y-62840228D01*
X102239911Y-62840165D01*
X102019091Y-62873955D01*
X101806756Y-62943357D01*
X101608607Y-63046507D01*
X101604474Y-63049610D01*
X101604471Y-63049612D01*
X101434100Y-63177530D01*
X101429965Y-63180635D01*
X101426393Y-63184373D01*
X101318729Y-63297037D01*
X101275629Y-63342138D01*
X101168201Y-63499621D01*
X101113293Y-63544621D01*
X101042768Y-63552792D01*
X100979021Y-63521538D01*
X100958324Y-63497054D01*
X100877822Y-63372617D01*
X100877820Y-63372614D01*
X100875014Y-63368277D01*
X100724670Y-63203051D01*
X100720619Y-63199852D01*
X100720615Y-63199848D01*
X100553414Y-63067800D01*
X100553410Y-63067798D01*
X100549359Y-63064598D01*
X100353789Y-62956638D01*
X100348920Y-62954914D01*
X100348916Y-62954912D01*
X100148087Y-62883795D01*
X100148083Y-62883794D01*
X100143212Y-62882069D01*
X100138119Y-62881162D01*
X100138116Y-62881161D01*
X99928373Y-62843800D01*
X99928367Y-62843799D01*
X99923284Y-62842894D01*
X99849452Y-62841992D01*
X99705081Y-62840228D01*
X99705079Y-62840228D01*
X99699911Y-62840165D01*
X99479091Y-62873955D01*
X99266756Y-62943357D01*
X99068607Y-63046507D01*
X99064474Y-63049610D01*
X99064471Y-63049612D01*
X98894100Y-63177530D01*
X98889965Y-63180635D01*
X98886393Y-63184373D01*
X98778729Y-63297037D01*
X98735629Y-63342138D01*
X98628201Y-63499621D01*
X98573293Y-63544621D01*
X98502768Y-63552792D01*
X98439021Y-63521538D01*
X98418324Y-63497054D01*
X98337822Y-63372617D01*
X98337820Y-63372614D01*
X98335014Y-63368277D01*
X98184670Y-63203051D01*
X98180619Y-63199852D01*
X98180615Y-63199848D01*
X98013414Y-63067800D01*
X98013410Y-63067798D01*
X98009359Y-63064598D01*
X97813789Y-62956638D01*
X97808920Y-62954914D01*
X97808916Y-62954912D01*
X97608087Y-62883795D01*
X97608083Y-62883794D01*
X97603212Y-62882069D01*
X97598119Y-62881162D01*
X97598116Y-62881161D01*
X97388373Y-62843800D01*
X97388367Y-62843799D01*
X97383284Y-62842894D01*
X97309452Y-62841992D01*
X97165081Y-62840228D01*
X97165079Y-62840228D01*
X97159911Y-62840165D01*
X96939091Y-62873955D01*
X96726756Y-62943357D01*
X96528607Y-63046507D01*
X96524474Y-63049610D01*
X96524471Y-63049612D01*
X96354100Y-63177530D01*
X96349965Y-63180635D01*
X96346393Y-63184373D01*
X96238729Y-63297037D01*
X96195629Y-63342138D01*
X96088201Y-63499621D01*
X96033293Y-63544621D01*
X95962768Y-63552792D01*
X95899021Y-63521538D01*
X95878324Y-63497054D01*
X95797822Y-63372617D01*
X95797820Y-63372614D01*
X95795014Y-63368277D01*
X95644670Y-63203051D01*
X95640619Y-63199852D01*
X95640615Y-63199848D01*
X95473414Y-63067800D01*
X95473410Y-63067798D01*
X95469359Y-63064598D01*
X95273789Y-62956638D01*
X95268920Y-62954914D01*
X95268916Y-62954912D01*
X95068087Y-62883795D01*
X95068083Y-62883794D01*
X95063212Y-62882069D01*
X95058119Y-62881162D01*
X95058116Y-62881161D01*
X94848373Y-62843800D01*
X94848367Y-62843799D01*
X94843284Y-62842894D01*
X94769452Y-62841992D01*
X94625081Y-62840228D01*
X94625079Y-62840228D01*
X94619911Y-62840165D01*
X94399091Y-62873955D01*
X94186756Y-62943357D01*
X93988607Y-63046507D01*
X93984474Y-63049610D01*
X93984471Y-63049612D01*
X93814100Y-63177530D01*
X93809965Y-63180635D01*
X93806393Y-63184373D01*
X93698729Y-63297037D01*
X93655629Y-63342138D01*
X93548201Y-63499621D01*
X93493293Y-63544621D01*
X93422768Y-63552792D01*
X93359021Y-63521538D01*
X93338324Y-63497054D01*
X93257822Y-63372617D01*
X93257820Y-63372614D01*
X93255014Y-63368277D01*
X93104670Y-63203051D01*
X93100619Y-63199852D01*
X93100615Y-63199848D01*
X92933414Y-63067800D01*
X92933410Y-63067798D01*
X92929359Y-63064598D01*
X92733789Y-62956638D01*
X92728920Y-62954914D01*
X92728916Y-62954912D01*
X92528087Y-62883795D01*
X92528083Y-62883794D01*
X92523212Y-62882069D01*
X92518119Y-62881162D01*
X92518116Y-62881161D01*
X92308373Y-62843800D01*
X92308367Y-62843799D01*
X92303284Y-62842894D01*
X92229452Y-62841992D01*
X92085081Y-62840228D01*
X92085079Y-62840228D01*
X92079911Y-62840165D01*
X91859091Y-62873955D01*
X91646756Y-62943357D01*
X91448607Y-63046507D01*
X91444474Y-63049610D01*
X91444471Y-63049612D01*
X91274100Y-63177530D01*
X91269965Y-63180635D01*
X91266393Y-63184373D01*
X91158729Y-63297037D01*
X91115629Y-63342138D01*
X91008201Y-63499621D01*
X90953293Y-63544621D01*
X90882768Y-63552792D01*
X90819021Y-63521538D01*
X90798324Y-63497054D01*
X90717822Y-63372617D01*
X90717820Y-63372614D01*
X90715014Y-63368277D01*
X90564670Y-63203051D01*
X90560619Y-63199852D01*
X90560615Y-63199848D01*
X90393414Y-63067800D01*
X90393410Y-63067798D01*
X90389359Y-63064598D01*
X90193789Y-62956638D01*
X90188920Y-62954914D01*
X90188916Y-62954912D01*
X89988087Y-62883795D01*
X89988083Y-62883794D01*
X89983212Y-62882069D01*
X89978119Y-62881162D01*
X89978116Y-62881161D01*
X89768373Y-62843800D01*
X89768367Y-62843799D01*
X89763284Y-62842894D01*
X89689452Y-62841992D01*
X89545081Y-62840228D01*
X89545079Y-62840228D01*
X89539911Y-62840165D01*
X89319091Y-62873955D01*
X89106756Y-62943357D01*
X88908607Y-63046507D01*
X88904474Y-63049610D01*
X88904471Y-63049612D01*
X88734100Y-63177530D01*
X88729965Y-63180635D01*
X88726393Y-63184373D01*
X88618729Y-63297037D01*
X88575629Y-63342138D01*
X88468201Y-63499621D01*
X88413293Y-63544621D01*
X88342768Y-63552792D01*
X88279021Y-63521538D01*
X88258324Y-63497054D01*
X88177822Y-63372617D01*
X88177820Y-63372614D01*
X88175014Y-63368277D01*
X88024670Y-63203051D01*
X88020619Y-63199852D01*
X88020615Y-63199848D01*
X87853414Y-63067800D01*
X87853410Y-63067798D01*
X87849359Y-63064598D01*
X87653789Y-62956638D01*
X87648920Y-62954914D01*
X87648916Y-62954912D01*
X87448087Y-62883795D01*
X87448083Y-62883794D01*
X87443212Y-62882069D01*
X87438119Y-62881162D01*
X87438116Y-62881161D01*
X87228373Y-62843800D01*
X87228367Y-62843799D01*
X87223284Y-62842894D01*
X87149452Y-62841992D01*
X87005081Y-62840228D01*
X87005079Y-62840228D01*
X86999911Y-62840165D01*
X86779091Y-62873955D01*
X86566756Y-62943357D01*
X86368607Y-63046507D01*
X86364474Y-63049610D01*
X86364471Y-63049612D01*
X86194100Y-63177530D01*
X86189965Y-63180635D01*
X86186393Y-63184373D01*
X86078729Y-63297037D01*
X86035629Y-63342138D01*
X85928201Y-63499621D01*
X85873293Y-63544621D01*
X85802768Y-63552792D01*
X85739021Y-63521538D01*
X85718324Y-63497054D01*
X85637822Y-63372617D01*
X85637820Y-63372614D01*
X85635014Y-63368277D01*
X85484670Y-63203051D01*
X85480619Y-63199852D01*
X85480615Y-63199848D01*
X85313414Y-63067800D01*
X85313410Y-63067798D01*
X85309359Y-63064598D01*
X85113789Y-62956638D01*
X85108920Y-62954914D01*
X85108916Y-62954912D01*
X84908087Y-62883795D01*
X84908083Y-62883794D01*
X84903212Y-62882069D01*
X84898119Y-62881162D01*
X84898116Y-62881161D01*
X84688373Y-62843800D01*
X84688367Y-62843799D01*
X84683284Y-62842894D01*
X84609452Y-62841992D01*
X84465081Y-62840228D01*
X84465079Y-62840228D01*
X84459911Y-62840165D01*
X84239091Y-62873955D01*
X84026756Y-62943357D01*
X83828607Y-63046507D01*
X83824474Y-63049610D01*
X83824471Y-63049612D01*
X83654100Y-63177530D01*
X83649965Y-63180635D01*
X83646393Y-63184373D01*
X83538729Y-63297037D01*
X83495629Y-63342138D01*
X83388201Y-63499621D01*
X83333293Y-63544621D01*
X83262768Y-63552792D01*
X83199021Y-63521538D01*
X83178324Y-63497054D01*
X83097822Y-63372617D01*
X83097820Y-63372614D01*
X83095014Y-63368277D01*
X82944670Y-63203051D01*
X82940619Y-63199852D01*
X82940615Y-63199848D01*
X82773414Y-63067800D01*
X82773410Y-63067798D01*
X82769359Y-63064598D01*
X82573789Y-62956638D01*
X82568920Y-62954914D01*
X82568916Y-62954912D01*
X82368087Y-62883795D01*
X82368083Y-62883794D01*
X82363212Y-62882069D01*
X82358119Y-62881162D01*
X82358116Y-62881161D01*
X82148373Y-62843800D01*
X82148367Y-62843799D01*
X82143284Y-62842894D01*
X82069452Y-62841992D01*
X81925081Y-62840228D01*
X81925079Y-62840228D01*
X81919911Y-62840165D01*
X81699091Y-62873955D01*
X81486756Y-62943357D01*
X81288607Y-63046507D01*
X81284474Y-63049610D01*
X81284471Y-63049612D01*
X81114100Y-63177530D01*
X81109965Y-63180635D01*
X81053537Y-63239684D01*
X81029283Y-63265064D01*
X80967759Y-63300494D01*
X80896846Y-63297037D01*
X80839060Y-63255791D01*
X80820207Y-63222243D01*
X80778767Y-63111703D01*
X80775615Y-63103295D01*
X80688261Y-62986739D01*
X80571705Y-62899385D01*
X80435316Y-62848255D01*
X80373134Y-62841500D01*
X78576866Y-62841500D01*
X78514684Y-62848255D01*
X78378295Y-62899385D01*
X78261739Y-62986739D01*
X78174385Y-63103295D01*
X78123255Y-63239684D01*
X78116500Y-63301866D01*
X78116500Y-65098134D01*
X77554900Y-65098134D01*
X77473840Y-62359728D01*
X77491818Y-62291045D01*
X77544074Y-62242985D01*
X77599785Y-62230000D01*
X123825500Y-62230000D01*
X123893621Y-62250002D01*
G37*
%TD.AperFunction*%
%TD*%
%TA.AperFunction,Conductor*%
%TO.N,-5V*%
G36*
X123893380Y-71141289D02*
G01*
X123939995Y-71194839D01*
X123951500Y-71247441D01*
X123951500Y-97217500D01*
X123931498Y-97285621D01*
X123877842Y-97332114D01*
X123825500Y-97343500D01*
X112933809Y-97343500D01*
X112865688Y-97323498D01*
X112819195Y-97269842D01*
X112807815Y-97216244D01*
X112880809Y-89894669D01*
X117142001Y-89894669D01*
X117142371Y-89901490D01*
X117147895Y-89952352D01*
X117151521Y-89967604D01*
X117196676Y-90088054D01*
X117205214Y-90103649D01*
X117281715Y-90205724D01*
X117294276Y-90218285D01*
X117396351Y-90294786D01*
X117411946Y-90303324D01*
X117532394Y-90348478D01*
X117547649Y-90352105D01*
X117598514Y-90357631D01*
X117605328Y-90358000D01*
X118227885Y-90358000D01*
X118243124Y-90353525D01*
X118244329Y-90352135D01*
X118246000Y-90344452D01*
X118246000Y-90339884D01*
X118754000Y-90339884D01*
X118758475Y-90355123D01*
X118759865Y-90356328D01*
X118767548Y-90357999D01*
X119394669Y-90357999D01*
X119401490Y-90357629D01*
X119452352Y-90352105D01*
X119467604Y-90348479D01*
X119588054Y-90303324D01*
X119603649Y-90294786D01*
X119705724Y-90218285D01*
X119718285Y-90205724D01*
X119794786Y-90103649D01*
X119803324Y-90088054D01*
X119848478Y-89967606D01*
X119852105Y-89952351D01*
X119857631Y-89901486D01*
X119858000Y-89894672D01*
X119858000Y-89272115D01*
X119853525Y-89256876D01*
X119852135Y-89255671D01*
X119844452Y-89254000D01*
X118772115Y-89254000D01*
X118756876Y-89258475D01*
X118755671Y-89259865D01*
X118754000Y-89267548D01*
X118754000Y-90339884D01*
X118246000Y-90339884D01*
X118246000Y-89272115D01*
X118241525Y-89256876D01*
X118240135Y-89255671D01*
X118232452Y-89254000D01*
X117160116Y-89254000D01*
X117144877Y-89258475D01*
X117143672Y-89259865D01*
X117142001Y-89267548D01*
X117142001Y-89894669D01*
X112880809Y-89894669D01*
X112892441Y-88727885D01*
X117142000Y-88727885D01*
X117146475Y-88743124D01*
X117147865Y-88744329D01*
X117155548Y-88746000D01*
X118227885Y-88746000D01*
X118243124Y-88741525D01*
X118244329Y-88740135D01*
X118246000Y-88732452D01*
X118246000Y-88727885D01*
X118754000Y-88727885D01*
X118758475Y-88743124D01*
X118759865Y-88744329D01*
X118767548Y-88746000D01*
X119839884Y-88746000D01*
X119855123Y-88741525D01*
X119856328Y-88740135D01*
X119857999Y-88732452D01*
X119857999Y-88105331D01*
X119857629Y-88098510D01*
X119852105Y-88047648D01*
X119848479Y-88032396D01*
X119803324Y-87911946D01*
X119794786Y-87896351D01*
X119718285Y-87794276D01*
X119705724Y-87781715D01*
X119603649Y-87705214D01*
X119588054Y-87696676D01*
X119467606Y-87651522D01*
X119452351Y-87647895D01*
X119401486Y-87642369D01*
X119394672Y-87642000D01*
X118772115Y-87642000D01*
X118756876Y-87646475D01*
X118755671Y-87647865D01*
X118754000Y-87655548D01*
X118754000Y-88727885D01*
X118246000Y-88727885D01*
X118246000Y-87660116D01*
X118241525Y-87644877D01*
X118240135Y-87643672D01*
X118232452Y-87642001D01*
X117605331Y-87642001D01*
X117598510Y-87642371D01*
X117547648Y-87647895D01*
X117532396Y-87651521D01*
X117411946Y-87696676D01*
X117396351Y-87705214D01*
X117294276Y-87781715D01*
X117281715Y-87794276D01*
X117205214Y-87896351D01*
X117196676Y-87911946D01*
X117151522Y-88032394D01*
X117147895Y-88047649D01*
X117142369Y-88098514D01*
X117142000Y-88105328D01*
X117142000Y-88727885D01*
X112892441Y-88727885D01*
X112990421Y-78900000D01*
X119267391Y-78900000D01*
X119287771Y-79093900D01*
X119348019Y-79279326D01*
X119445503Y-79448174D01*
X119575963Y-79593064D01*
X119581302Y-79596943D01*
X119687186Y-79673872D01*
X119733695Y-79707663D01*
X119739723Y-79710347D01*
X119739725Y-79710348D01*
X119905777Y-79784279D01*
X119911808Y-79786964D01*
X119994911Y-79804628D01*
X120096059Y-79826128D01*
X120096063Y-79826128D01*
X120102516Y-79827500D01*
X120297484Y-79827500D01*
X120303937Y-79826128D01*
X120303941Y-79826128D01*
X120405089Y-79804628D01*
X120488192Y-79786964D01*
X120494223Y-79784279D01*
X120660275Y-79710348D01*
X120660277Y-79710347D01*
X120666305Y-79707663D01*
X120712815Y-79673872D01*
X120818698Y-79596943D01*
X120824037Y-79593064D01*
X120954497Y-79448174D01*
X121051981Y-79279326D01*
X121112229Y-79093900D01*
X121132609Y-78900000D01*
X121112229Y-78706100D01*
X121051981Y-78520674D01*
X120954497Y-78351826D01*
X120824037Y-78206936D01*
X120666305Y-78092337D01*
X120660277Y-78089653D01*
X120660275Y-78089652D01*
X120494223Y-78015721D01*
X120494222Y-78015721D01*
X120488192Y-78013036D01*
X120371987Y-77988336D01*
X120303941Y-77973872D01*
X120303937Y-77973872D01*
X120297484Y-77972500D01*
X120102516Y-77972500D01*
X120096063Y-77973872D01*
X120096059Y-77973872D01*
X120028013Y-77988336D01*
X119911808Y-78013036D01*
X119905779Y-78015720D01*
X119905777Y-78015721D01*
X119739726Y-78089652D01*
X119739724Y-78089653D01*
X119733696Y-78092337D01*
X119575963Y-78206936D01*
X119445503Y-78351826D01*
X119348019Y-78520674D01*
X119287771Y-78706100D01*
X119267391Y-78900000D01*
X112990421Y-78900000D01*
X113010148Y-76921244D01*
X113030828Y-76853326D01*
X113084945Y-76807370D01*
X113136142Y-76796500D01*
X113928134Y-76796500D01*
X113990316Y-76789745D01*
X114126705Y-76738615D01*
X114243261Y-76651261D01*
X114330615Y-76534705D01*
X114381745Y-76398316D01*
X114388500Y-76336134D01*
X114388500Y-76318134D01*
X119545500Y-76318134D01*
X119552255Y-76380316D01*
X119603385Y-76516705D01*
X119690739Y-76633261D01*
X119807295Y-76720615D01*
X119943684Y-76771745D01*
X120005866Y-76778500D01*
X121802134Y-76778500D01*
X121864316Y-76771745D01*
X122000705Y-76720615D01*
X122117261Y-76633261D01*
X122204615Y-76516705D01*
X122255745Y-76380316D01*
X122262500Y-76318134D01*
X122262500Y-74521866D01*
X122255745Y-74459684D01*
X122204615Y-74323295D01*
X122117261Y-74206739D01*
X122000705Y-74119385D01*
X121864316Y-74068255D01*
X121802134Y-74061500D01*
X120005866Y-74061500D01*
X119943684Y-74068255D01*
X119807295Y-74119385D01*
X119690739Y-74206739D01*
X119603385Y-74323295D01*
X119552255Y-74459684D01*
X119545500Y-74521866D01*
X119545500Y-76318134D01*
X114388500Y-76318134D01*
X114388500Y-74539866D01*
X114381745Y-74477684D01*
X114330615Y-74341295D01*
X114243261Y-74224739D01*
X114126705Y-74137385D01*
X113990316Y-74086255D01*
X113928134Y-74079500D01*
X112131866Y-74079500D01*
X112069684Y-74086255D01*
X111933295Y-74137385D01*
X111816739Y-74224739D01*
X111729385Y-74341295D01*
X111678255Y-74477684D01*
X111671500Y-74539866D01*
X111671500Y-74804000D01*
X111651498Y-74872121D01*
X111597842Y-74918614D01*
X111545500Y-74930000D01*
X96754500Y-74930000D01*
X96686379Y-74909998D01*
X96639886Y-74856342D01*
X96628500Y-74804000D01*
X96628500Y-74151866D01*
X96621745Y-74089684D01*
X96570615Y-73953295D01*
X96483261Y-73836739D01*
X96366705Y-73749385D01*
X96230316Y-73698255D01*
X96168134Y-73691500D01*
X94371866Y-73691500D01*
X94309684Y-73698255D01*
X94173295Y-73749385D01*
X94056739Y-73836739D01*
X93969385Y-73953295D01*
X93918255Y-74089684D01*
X93911500Y-74151866D01*
X93911500Y-75948134D01*
X93918255Y-76010316D01*
X93969385Y-76146705D01*
X94056739Y-76263261D01*
X94173295Y-76350615D01*
X94309684Y-76401745D01*
X94371866Y-76408500D01*
X96168134Y-76408500D01*
X96230316Y-76401745D01*
X96366705Y-76350615D01*
X96366720Y-76350603D01*
X96431676Y-76336398D01*
X96498224Y-76361136D01*
X96540833Y-76417924D01*
X96548804Y-76459715D01*
X96797551Y-89669950D01*
X96778835Y-89738435D01*
X96726064Y-89785930D01*
X96669938Y-89798311D01*
X89225038Y-89701624D01*
X89157183Y-89680739D01*
X89111390Y-89626485D01*
X89100676Y-89574954D01*
X89145250Y-81328679D01*
X89149250Y-80588640D01*
X89886463Y-80588640D01*
X89904163Y-80769160D01*
X89961418Y-80941273D01*
X89965065Y-80947295D01*
X89965066Y-80947297D01*
X89988367Y-80985771D01*
X90055380Y-81096424D01*
X90060269Y-81101487D01*
X90060270Y-81101488D01*
X90099830Y-81142453D01*
X90181382Y-81226902D01*
X90187278Y-81230760D01*
X90306360Y-81308685D01*
X90333159Y-81326222D01*
X90339763Y-81328678D01*
X90339765Y-81328679D01*
X90496558Y-81386990D01*
X90496560Y-81386990D01*
X90503168Y-81389448D01*
X90586995Y-81400633D01*
X90675980Y-81412507D01*
X90675984Y-81412507D01*
X90682961Y-81413438D01*
X90689972Y-81412800D01*
X90689976Y-81412800D01*
X90832459Y-81399832D01*
X90863600Y-81396998D01*
X90870302Y-81394820D01*
X90870304Y-81394820D01*
X91029409Y-81343124D01*
X91029412Y-81343123D01*
X91036108Y-81340947D01*
X91191912Y-81248069D01*
X91323266Y-81122982D01*
X91423643Y-80971902D01*
X91488055Y-80802338D01*
X91489241Y-80793900D01*
X91512748Y-80626639D01*
X91512748Y-80626636D01*
X91513299Y-80622717D01*
X91513452Y-80611738D01*
X91513561Y-80603962D01*
X91513561Y-80603957D01*
X91513616Y-80600000D01*
X93567391Y-80600000D01*
X93587771Y-80793900D01*
X93589811Y-80800178D01*
X93589811Y-80800179D01*
X93592651Y-80808920D01*
X93648019Y-80979326D01*
X93745503Y-81148174D01*
X93875963Y-81293064D01*
X94033695Y-81407663D01*
X94039723Y-81410347D01*
X94039725Y-81410348D01*
X94205777Y-81484279D01*
X94211808Y-81486964D01*
X94307162Y-81507232D01*
X94396059Y-81526128D01*
X94396063Y-81526128D01*
X94402516Y-81527500D01*
X94597484Y-81527500D01*
X94603937Y-81526128D01*
X94603941Y-81526128D01*
X94692838Y-81507232D01*
X94788192Y-81486964D01*
X94794223Y-81484279D01*
X94960275Y-81410348D01*
X94960277Y-81410347D01*
X94966305Y-81407663D01*
X95124037Y-81293064D01*
X95254497Y-81148174D01*
X95351981Y-80979326D01*
X95407349Y-80808920D01*
X95410189Y-80800179D01*
X95410189Y-80800178D01*
X95412229Y-80793900D01*
X95432609Y-80600000D01*
X95412229Y-80406100D01*
X95351981Y-80220674D01*
X95254497Y-80051826D01*
X95177145Y-79965918D01*
X95128452Y-79911839D01*
X95128450Y-79911838D01*
X95124037Y-79906936D01*
X95014703Y-79827500D01*
X94971647Y-79796218D01*
X94971646Y-79796217D01*
X94966305Y-79792337D01*
X94960277Y-79789653D01*
X94960275Y-79789652D01*
X94794223Y-79715721D01*
X94794222Y-79715721D01*
X94788192Y-79713036D01*
X94692838Y-79692768D01*
X94603941Y-79673872D01*
X94603937Y-79673872D01*
X94597484Y-79672500D01*
X94402516Y-79672500D01*
X94396063Y-79673872D01*
X94396059Y-79673872D01*
X94307162Y-79692768D01*
X94211808Y-79713036D01*
X94205779Y-79715720D01*
X94205777Y-79715721D01*
X94039726Y-79789652D01*
X94039724Y-79789653D01*
X94033696Y-79792337D01*
X94028355Y-79796217D01*
X94028354Y-79796218D01*
X93923352Y-79872506D01*
X93875963Y-79906936D01*
X93871550Y-79911838D01*
X93871548Y-79911839D01*
X93822855Y-79965918D01*
X93745503Y-80051826D01*
X93648019Y-80220674D01*
X93587771Y-80406100D01*
X93567391Y-80600000D01*
X91513616Y-80600000D01*
X91493397Y-80419745D01*
X91490931Y-80412664D01*
X91436064Y-80255106D01*
X91436062Y-80255103D01*
X91433745Y-80248448D01*
X91337626Y-80094624D01*
X91290252Y-80046918D01*
X91214778Y-79970915D01*
X91214774Y-79970912D01*
X91209815Y-79965918D01*
X91198697Y-79958862D01*
X91116874Y-79906936D01*
X91056666Y-79868727D01*
X91027463Y-79858328D01*
X90892425Y-79810243D01*
X90892420Y-79810242D01*
X90885790Y-79807881D01*
X90878802Y-79807048D01*
X90878799Y-79807047D01*
X90732918Y-79789652D01*
X90705680Y-79786404D01*
X90698677Y-79787140D01*
X90698676Y-79787140D01*
X90532288Y-79804628D01*
X90532286Y-79804629D01*
X90525288Y-79805364D01*
X90353579Y-79863818D01*
X90347575Y-79867512D01*
X90205095Y-79955166D01*
X90205092Y-79955168D01*
X90199088Y-79958862D01*
X90194053Y-79963793D01*
X90194050Y-79963795D01*
X90109168Y-80046918D01*
X90069493Y-80085771D01*
X89971235Y-80238238D01*
X89968826Y-80244858D01*
X89968824Y-80244861D01*
X89912423Y-80399821D01*
X89909197Y-80408685D01*
X89886463Y-80588640D01*
X89149250Y-80588640D01*
X89168108Y-77100000D01*
X92167391Y-77100000D01*
X92187771Y-77293900D01*
X92248019Y-77479326D01*
X92345503Y-77648174D01*
X92475963Y-77793064D01*
X92633695Y-77907663D01*
X92639723Y-77910347D01*
X92639725Y-77910348D01*
X92805777Y-77984279D01*
X92811808Y-77986964D01*
X92907162Y-78007232D01*
X92996059Y-78026128D01*
X92996063Y-78026128D01*
X93002516Y-78027500D01*
X93197484Y-78027500D01*
X93203937Y-78026128D01*
X93203941Y-78026128D01*
X93292838Y-78007232D01*
X93388192Y-77986964D01*
X93394223Y-77984279D01*
X93560275Y-77910348D01*
X93560277Y-77910347D01*
X93566305Y-77907663D01*
X93724037Y-77793064D01*
X93854497Y-77648174D01*
X93951981Y-77479326D01*
X94012229Y-77293900D01*
X94032609Y-77100000D01*
X94012229Y-76906100D01*
X93951981Y-76720674D01*
X93854497Y-76551826D01*
X93850078Y-76546918D01*
X93728452Y-76411839D01*
X93728450Y-76411838D01*
X93724037Y-76406936D01*
X93650856Y-76353767D01*
X93571647Y-76296218D01*
X93571646Y-76296217D01*
X93566305Y-76292337D01*
X93560277Y-76289653D01*
X93560275Y-76289652D01*
X93394223Y-76215721D01*
X93394222Y-76215721D01*
X93388192Y-76213036D01*
X93292838Y-76192768D01*
X93203941Y-76173872D01*
X93203937Y-76173872D01*
X93197484Y-76172500D01*
X93002516Y-76172500D01*
X92996063Y-76173872D01*
X92996059Y-76173872D01*
X92907162Y-76192768D01*
X92811808Y-76213036D01*
X92805779Y-76215720D01*
X92805777Y-76215721D01*
X92639726Y-76289652D01*
X92639724Y-76289653D01*
X92633696Y-76292337D01*
X92628355Y-76296217D01*
X92628354Y-76296218D01*
X92502419Y-76387715D01*
X92475963Y-76406936D01*
X92471550Y-76411838D01*
X92471548Y-76411839D01*
X92349922Y-76546918D01*
X92345503Y-76551826D01*
X92248019Y-76720674D01*
X92187771Y-76906100D01*
X92167391Y-77100000D01*
X89168108Y-77100000D01*
X89199324Y-71325035D01*
X89219694Y-71257023D01*
X89273600Y-71210821D01*
X89325035Y-71199716D01*
X90300546Y-71197503D01*
X92160779Y-71193283D01*
X92228945Y-71213131D01*
X92275560Y-71266681D01*
X92285823Y-71336932D01*
X92270184Y-71382283D01*
X92248019Y-71420674D01*
X92187771Y-71606100D01*
X92167391Y-71800000D01*
X92187771Y-71993900D01*
X92248019Y-72179326D01*
X92345503Y-72348174D01*
X92475963Y-72493064D01*
X92633695Y-72607663D01*
X92639723Y-72610347D01*
X92639725Y-72610348D01*
X92805777Y-72684279D01*
X92811808Y-72686964D01*
X92907162Y-72707232D01*
X92996059Y-72726128D01*
X92996063Y-72726128D01*
X93002516Y-72727500D01*
X93197484Y-72727500D01*
X93203937Y-72726128D01*
X93203941Y-72726128D01*
X93292838Y-72707232D01*
X93388192Y-72686964D01*
X93394223Y-72684279D01*
X93560275Y-72610348D01*
X93560277Y-72610347D01*
X93566305Y-72607663D01*
X93724037Y-72493064D01*
X93854497Y-72348174D01*
X93951981Y-72179326D01*
X94012229Y-71993900D01*
X94032609Y-71800000D01*
X94012229Y-71606100D01*
X93951981Y-71420674D01*
X93927358Y-71378026D01*
X93910621Y-71309033D01*
X93933841Y-71241941D01*
X93989648Y-71198054D01*
X94036192Y-71189028D01*
X123825214Y-71121441D01*
X123893380Y-71141289D01*
G37*
%TD.AperFunction*%
%TD*%
%TA.AperFunction,Conductor*%
%TO.N,+5V*%
G36*
X75852600Y-61828502D02*
G01*
X75899093Y-61882158D01*
X75910416Y-61930531D01*
X76199394Y-71100762D01*
X76200000Y-71120000D01*
X88173342Y-71120000D01*
X88241463Y-71140002D01*
X88287956Y-71193658D01*
X88299340Y-71246655D01*
X88256244Y-79512507D01*
X88253896Y-79962817D01*
X88233539Y-80030832D01*
X88179642Y-80077045D01*
X88119727Y-80086239D01*
X88119720Y-80087287D01*
X88113197Y-80087241D01*
X88112985Y-80087274D01*
X88112682Y-80087238D01*
X88112674Y-80087238D01*
X88105680Y-80086404D01*
X88098677Y-80087140D01*
X88098676Y-80087140D01*
X87932288Y-80104628D01*
X87932286Y-80104629D01*
X87925288Y-80105364D01*
X87753579Y-80163818D01*
X87747575Y-80167512D01*
X87605095Y-80255166D01*
X87605092Y-80255168D01*
X87599088Y-80258862D01*
X87594053Y-80263793D01*
X87594050Y-80263795D01*
X87474525Y-80380843D01*
X87469493Y-80385771D01*
X87371235Y-80538238D01*
X87368826Y-80544858D01*
X87368824Y-80544861D01*
X87352890Y-80588640D01*
X87309197Y-80708685D01*
X87286463Y-80888640D01*
X87304163Y-81069160D01*
X87361418Y-81241273D01*
X87365065Y-81247295D01*
X87365066Y-81247297D01*
X87413181Y-81326744D01*
X87455380Y-81396424D01*
X87460269Y-81401487D01*
X87460270Y-81401488D01*
X87470745Y-81412335D01*
X87581382Y-81526902D01*
X87733159Y-81626222D01*
X87739763Y-81628678D01*
X87739765Y-81628679D01*
X87896558Y-81686990D01*
X87896560Y-81686990D01*
X87903168Y-81689448D01*
X87986995Y-81700633D01*
X88075980Y-81712507D01*
X88075984Y-81712507D01*
X88082961Y-81713438D01*
X88089972Y-81712800D01*
X88089975Y-81712800D01*
X88099940Y-81711893D01*
X88106704Y-81711277D01*
X88176357Y-81725022D01*
X88227521Y-81774242D01*
X88244122Y-81837415D01*
X88242528Y-82143211D01*
X88200221Y-90257631D01*
X88200000Y-90300000D01*
X94063460Y-90420896D01*
X94131154Y-90442298D01*
X94176531Y-90496900D01*
X94185184Y-90567368D01*
X94154366Y-90631327D01*
X94149032Y-90636881D01*
X94069493Y-90714771D01*
X93971235Y-90867238D01*
X93968826Y-90873858D01*
X93968824Y-90873861D01*
X93922978Y-90999821D01*
X93909197Y-91037685D01*
X93886463Y-91217640D01*
X93904163Y-91398160D01*
X93961418Y-91570273D01*
X93965065Y-91576295D01*
X93965066Y-91576297D01*
X93975978Y-91594314D01*
X94055380Y-91725424D01*
X94060269Y-91730487D01*
X94060270Y-91730488D01*
X94081027Y-91751982D01*
X94181382Y-91855902D01*
X94333159Y-91955222D01*
X94339763Y-91957678D01*
X94339765Y-91957679D01*
X94496558Y-92015990D01*
X94496560Y-92015990D01*
X94503168Y-92018448D01*
X94586995Y-92029633D01*
X94675980Y-92041507D01*
X94675984Y-92041507D01*
X94682961Y-92042438D01*
X94689972Y-92041800D01*
X94689976Y-92041800D01*
X94832459Y-92028832D01*
X94863600Y-92025998D01*
X94870302Y-92023820D01*
X94870304Y-92023820D01*
X95029409Y-91972124D01*
X95029412Y-91972123D01*
X95036108Y-91969947D01*
X95191912Y-91877069D01*
X95323266Y-91751982D01*
X95423643Y-91600902D01*
X95488055Y-91431338D01*
X95489035Y-91424366D01*
X95512748Y-91255639D01*
X95512748Y-91255636D01*
X95513299Y-91251717D01*
X95513616Y-91229000D01*
X95493397Y-91048745D01*
X95491080Y-91042091D01*
X95436064Y-90884106D01*
X95436062Y-90884103D01*
X95433745Y-90877448D01*
X95337626Y-90723624D01*
X95276998Y-90662571D01*
X95243191Y-90600140D01*
X95248503Y-90529342D01*
X95291248Y-90472656D01*
X95357854Y-90448077D01*
X95368991Y-90447814D01*
X96669790Y-90474635D01*
X97881889Y-90499627D01*
X97881890Y-90499627D01*
X97900000Y-90500000D01*
X97898583Y-90315721D01*
X97894575Y-89794669D01*
X102142001Y-89794669D01*
X102142371Y-89801490D01*
X102147895Y-89852352D01*
X102151521Y-89867604D01*
X102196676Y-89988054D01*
X102205214Y-90003649D01*
X102281715Y-90105724D01*
X102294276Y-90118285D01*
X102396351Y-90194786D01*
X102411946Y-90203324D01*
X102532394Y-90248478D01*
X102547649Y-90252105D01*
X102598514Y-90257631D01*
X102605328Y-90258000D01*
X103227885Y-90258000D01*
X103243124Y-90253525D01*
X103244329Y-90252135D01*
X103246000Y-90244452D01*
X103246000Y-90239884D01*
X103754000Y-90239884D01*
X103758475Y-90255123D01*
X103759865Y-90256328D01*
X103767548Y-90257999D01*
X104394669Y-90257999D01*
X104401490Y-90257629D01*
X104452352Y-90252105D01*
X104467604Y-90248479D01*
X104588054Y-90203324D01*
X104603649Y-90194786D01*
X104705724Y-90118285D01*
X104718285Y-90105724D01*
X104794786Y-90003649D01*
X104803324Y-89988054D01*
X104848478Y-89867606D01*
X104852105Y-89852351D01*
X104857631Y-89801486D01*
X104858000Y-89794672D01*
X104858000Y-89172115D01*
X104853525Y-89156876D01*
X104852135Y-89155671D01*
X104844452Y-89154000D01*
X103772115Y-89154000D01*
X103756876Y-89158475D01*
X103755671Y-89159865D01*
X103754000Y-89167548D01*
X103754000Y-90239884D01*
X103246000Y-90239884D01*
X103246000Y-89172115D01*
X103241525Y-89156876D01*
X103240135Y-89155671D01*
X103232452Y-89154000D01*
X102160116Y-89154000D01*
X102144877Y-89158475D01*
X102143672Y-89159865D01*
X102142001Y-89167548D01*
X102142001Y-89794669D01*
X97894575Y-89794669D01*
X97885599Y-88627885D01*
X102142000Y-88627885D01*
X102146475Y-88643124D01*
X102147865Y-88644329D01*
X102155548Y-88646000D01*
X103227885Y-88646000D01*
X103243124Y-88641525D01*
X103244329Y-88640135D01*
X103246000Y-88632452D01*
X103246000Y-88627885D01*
X103754000Y-88627885D01*
X103758475Y-88643124D01*
X103759865Y-88644329D01*
X103767548Y-88646000D01*
X104839884Y-88646000D01*
X104855123Y-88641525D01*
X104856328Y-88640135D01*
X104857999Y-88632452D01*
X104857999Y-88005331D01*
X104857629Y-87998510D01*
X104852105Y-87947648D01*
X104848479Y-87932396D01*
X104803324Y-87811946D01*
X104794786Y-87796351D01*
X104718285Y-87694276D01*
X104705724Y-87681715D01*
X104603649Y-87605214D01*
X104588054Y-87596676D01*
X104467606Y-87551522D01*
X104452351Y-87547895D01*
X104401486Y-87542369D01*
X104394672Y-87542000D01*
X103772115Y-87542000D01*
X103756876Y-87546475D01*
X103755671Y-87547865D01*
X103754000Y-87555548D01*
X103754000Y-88627885D01*
X103246000Y-88627885D01*
X103246000Y-87560116D01*
X103241525Y-87544877D01*
X103240135Y-87543672D01*
X103232452Y-87542001D01*
X102605331Y-87542001D01*
X102598510Y-87542371D01*
X102547648Y-87547895D01*
X102532396Y-87551521D01*
X102411946Y-87596676D01*
X102396351Y-87605214D01*
X102294276Y-87681715D01*
X102281715Y-87694276D01*
X102205214Y-87796351D01*
X102196676Y-87811946D01*
X102151522Y-87932394D01*
X102147895Y-87947649D01*
X102142369Y-87998514D01*
X102142000Y-88005328D01*
X102142000Y-88627885D01*
X97885599Y-88627885D01*
X97867185Y-86234044D01*
X97886662Y-86165772D01*
X97939959Y-86118867D01*
X98010153Y-86108223D01*
X98019379Y-86109829D01*
X98096052Y-86126127D01*
X98096061Y-86126128D01*
X98102516Y-86127500D01*
X98297484Y-86127500D01*
X98303937Y-86126128D01*
X98303941Y-86126128D01*
X98392838Y-86107232D01*
X98488192Y-86086964D01*
X98572915Y-86049243D01*
X98660275Y-86010348D01*
X98660277Y-86010347D01*
X98666305Y-86007663D01*
X98824037Y-85893064D01*
X98901588Y-85806936D01*
X98950078Y-85753082D01*
X98950079Y-85753081D01*
X98954497Y-85748174D01*
X98988285Y-85689652D01*
X99040045Y-85600000D01*
X107767391Y-85600000D01*
X107787771Y-85793900D01*
X107789811Y-85800178D01*
X107789811Y-85800179D01*
X107793600Y-85811839D01*
X107848019Y-85979326D01*
X107851322Y-85985048D01*
X107851323Y-85985049D01*
X107910956Y-86088336D01*
X107945503Y-86148174D01*
X107949921Y-86153081D01*
X107949922Y-86153082D01*
X108047324Y-86261257D01*
X108075963Y-86293064D01*
X108233695Y-86407663D01*
X108239723Y-86410347D01*
X108239725Y-86410348D01*
X108332224Y-86451531D01*
X108411808Y-86486964D01*
X108504024Y-86506565D01*
X108596059Y-86526128D01*
X108596063Y-86526128D01*
X108602516Y-86527500D01*
X108797484Y-86527500D01*
X108803937Y-86526128D01*
X108803941Y-86526128D01*
X108895976Y-86506565D01*
X108988192Y-86486964D01*
X109067776Y-86451531D01*
X109160275Y-86410348D01*
X109160277Y-86410347D01*
X109166305Y-86407663D01*
X109324037Y-86293064D01*
X109352677Y-86261257D01*
X109450078Y-86153082D01*
X109450079Y-86153081D01*
X109454497Y-86148174D01*
X109489044Y-86088336D01*
X109548677Y-85985049D01*
X109548678Y-85985048D01*
X109551981Y-85979326D01*
X109606400Y-85811839D01*
X109610189Y-85800179D01*
X109610189Y-85800178D01*
X109612229Y-85793900D01*
X109632609Y-85600000D01*
X109612229Y-85406100D01*
X109551981Y-85220674D01*
X109454497Y-85051826D01*
X109413325Y-85006100D01*
X109328452Y-84911839D01*
X109328450Y-84911838D01*
X109324037Y-84906936D01*
X109166305Y-84792337D01*
X109160277Y-84789653D01*
X109160275Y-84789652D01*
X108994223Y-84715721D01*
X108994222Y-84715721D01*
X108988192Y-84713036D01*
X108878329Y-84689684D01*
X108803941Y-84673872D01*
X108803937Y-84673872D01*
X108797484Y-84672500D01*
X108602516Y-84672500D01*
X108596063Y-84673872D01*
X108596059Y-84673872D01*
X108521671Y-84689684D01*
X108411808Y-84713036D01*
X108405779Y-84715720D01*
X108405777Y-84715721D01*
X108239726Y-84789652D01*
X108239724Y-84789653D01*
X108233696Y-84792337D01*
X108228355Y-84796217D01*
X108228354Y-84796218D01*
X108081302Y-84903057D01*
X108075963Y-84906936D01*
X108071550Y-84911838D01*
X108071548Y-84911839D01*
X107986675Y-85006100D01*
X107945503Y-85051826D01*
X107848019Y-85220674D01*
X107787771Y-85406100D01*
X107767391Y-85600000D01*
X99040045Y-85600000D01*
X99048677Y-85585049D01*
X99048678Y-85585048D01*
X99051981Y-85579326D01*
X99112229Y-85393900D01*
X99132609Y-85200000D01*
X99112229Y-85006100D01*
X99051981Y-84820674D01*
X99037862Y-84796218D01*
X98957800Y-84657547D01*
X98954497Y-84651826D01*
X98902252Y-84593802D01*
X98828452Y-84511839D01*
X98828450Y-84511838D01*
X98824037Y-84506936D01*
X98767190Y-84465634D01*
X98671647Y-84396218D01*
X98671646Y-84396217D01*
X98666305Y-84392337D01*
X98660277Y-84389653D01*
X98660275Y-84389652D01*
X98494223Y-84315721D01*
X98494222Y-84315721D01*
X98488192Y-84313036D01*
X98388609Y-84291869D01*
X98303941Y-84273872D01*
X98303937Y-84273872D01*
X98297484Y-84272500D01*
X98102516Y-84272500D01*
X98096063Y-84273872D01*
X98096059Y-84273872D01*
X98003511Y-84293544D01*
X97932720Y-84288142D01*
X97876087Y-84245325D01*
X97851594Y-84178687D01*
X97851318Y-84171266D01*
X97830682Y-81488640D01*
X105486463Y-81488640D01*
X105504163Y-81669160D01*
X105561418Y-81841273D01*
X105565065Y-81847295D01*
X105565066Y-81847297D01*
X105641207Y-81973021D01*
X105655380Y-81996424D01*
X105660269Y-82001487D01*
X105660270Y-82001488D01*
X105710515Y-82053518D01*
X105781382Y-82126902D01*
X105787278Y-82130760D01*
X105874151Y-82187608D01*
X105933159Y-82226222D01*
X105939763Y-82228678D01*
X105939765Y-82228679D01*
X106096558Y-82286990D01*
X106096560Y-82286990D01*
X106103168Y-82289448D01*
X106186995Y-82300633D01*
X106275980Y-82312507D01*
X106275984Y-82312507D01*
X106282961Y-82313438D01*
X106289972Y-82312800D01*
X106289976Y-82312800D01*
X106432459Y-82299832D01*
X106463600Y-82296998D01*
X106470302Y-82294820D01*
X106470304Y-82294820D01*
X106629409Y-82243124D01*
X106629412Y-82243123D01*
X106636108Y-82240947D01*
X106791912Y-82148069D01*
X106923266Y-82022982D01*
X107023643Y-81871902D01*
X107079438Y-81725022D01*
X107085555Y-81708920D01*
X107085556Y-81708918D01*
X107088055Y-81702338D01*
X107091448Y-81678199D01*
X107112748Y-81526639D01*
X107112748Y-81526636D01*
X107113299Y-81522717D01*
X107113616Y-81500000D01*
X107093397Y-81319745D01*
X107091080Y-81313091D01*
X107036064Y-81155106D01*
X107036062Y-81155103D01*
X107033745Y-81148448D01*
X106937626Y-80994624D01*
X106923941Y-80980843D01*
X106814778Y-80870915D01*
X106814774Y-80870912D01*
X106809815Y-80865918D01*
X106798697Y-80858862D01*
X106750538Y-80828300D01*
X106656666Y-80768727D01*
X106627463Y-80758328D01*
X106492425Y-80710243D01*
X106492420Y-80710242D01*
X106485790Y-80707881D01*
X106478802Y-80707048D01*
X106478799Y-80707047D01*
X106355698Y-80692368D01*
X106305680Y-80686404D01*
X106298677Y-80687140D01*
X106298676Y-80687140D01*
X106132288Y-80704628D01*
X106132286Y-80704629D01*
X106125288Y-80705364D01*
X105953579Y-80763818D01*
X105947575Y-80767512D01*
X105805095Y-80855166D01*
X105805092Y-80855168D01*
X105799088Y-80858862D01*
X105794053Y-80863793D01*
X105794050Y-80863795D01*
X105676074Y-80979326D01*
X105669493Y-80985771D01*
X105571235Y-81138238D01*
X105568826Y-81144858D01*
X105568824Y-81144861D01*
X105511606Y-81302066D01*
X105509197Y-81308685D01*
X105486463Y-81488640D01*
X97830682Y-81488640D01*
X97790977Y-76326969D01*
X97810454Y-76258697D01*
X97863751Y-76211792D01*
X97916973Y-76200000D01*
X111545500Y-76200000D01*
X111613621Y-76220002D01*
X111660114Y-76273658D01*
X111671500Y-76326000D01*
X111671500Y-76336134D01*
X111678255Y-76398316D01*
X111729385Y-76534705D01*
X111737541Y-76545587D01*
X111762388Y-76612091D01*
X111762710Y-76620320D01*
X111880010Y-94811664D01*
X111895518Y-97216688D01*
X111875956Y-97284936D01*
X111822601Y-97331774D01*
X111769521Y-97343500D01*
X56260500Y-97343500D01*
X56192379Y-97323498D01*
X56145886Y-97269842D01*
X56134500Y-97217500D01*
X56134500Y-95700000D01*
X60967391Y-95700000D01*
X60987771Y-95893900D01*
X61048019Y-96079326D01*
X61145503Y-96248174D01*
X61275963Y-96393064D01*
X61433695Y-96507663D01*
X61439723Y-96510347D01*
X61439725Y-96510348D01*
X61605777Y-96584279D01*
X61611808Y-96586964D01*
X61707162Y-96607232D01*
X61796059Y-96626128D01*
X61796063Y-96626128D01*
X61802516Y-96627500D01*
X61997484Y-96627500D01*
X62003937Y-96626128D01*
X62003941Y-96626128D01*
X62092838Y-96607232D01*
X62188192Y-96586964D01*
X62194223Y-96584279D01*
X62360275Y-96510348D01*
X62360277Y-96510347D01*
X62366305Y-96507663D01*
X62524037Y-96393064D01*
X62654497Y-96248174D01*
X62751981Y-96079326D01*
X62812229Y-95893900D01*
X62832609Y-95700000D01*
X62831919Y-95693435D01*
X62812919Y-95512664D01*
X62812919Y-95512663D01*
X62812229Y-95506100D01*
X62805092Y-95484134D01*
X66356500Y-95484134D01*
X66363255Y-95546316D01*
X66414385Y-95682705D01*
X66501739Y-95799261D01*
X66618295Y-95886615D01*
X66754684Y-95937745D01*
X66816866Y-95944500D01*
X68613134Y-95944500D01*
X68675316Y-95937745D01*
X68811705Y-95886615D01*
X68928261Y-95799261D01*
X69015615Y-95682705D01*
X69066745Y-95546316D01*
X69073500Y-95484134D01*
X69073500Y-93687866D01*
X69066745Y-93625684D01*
X69015615Y-93489295D01*
X68948692Y-93400000D01*
X82267391Y-93400000D01*
X82287771Y-93593900D01*
X82348019Y-93779326D01*
X82445503Y-93948174D01*
X82575963Y-94093064D01*
X82733695Y-94207663D01*
X82739723Y-94210347D01*
X82739725Y-94210348D01*
X82905777Y-94284279D01*
X82911808Y-94286964D01*
X83007162Y-94307232D01*
X83096059Y-94326128D01*
X83096063Y-94326128D01*
X83102516Y-94327500D01*
X83297484Y-94327500D01*
X83303937Y-94326128D01*
X83303941Y-94326128D01*
X83392838Y-94307232D01*
X83488192Y-94286964D01*
X83494223Y-94284279D01*
X83660275Y-94210348D01*
X83660277Y-94210347D01*
X83666305Y-94207663D01*
X83824037Y-94093064D01*
X83954497Y-93948174D01*
X84051981Y-93779326D01*
X84112229Y-93593900D01*
X84132609Y-93400000D01*
X84112229Y-93206100D01*
X84051981Y-93020674D01*
X83954497Y-92851826D01*
X83824037Y-92706936D01*
X83666305Y-92592337D01*
X83660277Y-92589653D01*
X83660275Y-92589652D01*
X83494223Y-92515721D01*
X83494222Y-92515721D01*
X83488192Y-92513036D01*
X83392838Y-92492768D01*
X83303941Y-92473872D01*
X83303937Y-92473872D01*
X83297484Y-92472500D01*
X83102516Y-92472500D01*
X83096063Y-92473872D01*
X83096059Y-92473872D01*
X83007162Y-92492768D01*
X82911808Y-92513036D01*
X82905779Y-92515720D01*
X82905777Y-92515721D01*
X82739726Y-92589652D01*
X82739724Y-92589653D01*
X82733696Y-92592337D01*
X82575963Y-92706936D01*
X82445503Y-92851826D01*
X82348019Y-93020674D01*
X82287771Y-93206100D01*
X82267391Y-93400000D01*
X68948692Y-93400000D01*
X68928261Y-93372739D01*
X68811705Y-93285385D01*
X68675316Y-93234255D01*
X68613134Y-93227500D01*
X66816866Y-93227500D01*
X66754684Y-93234255D01*
X66618295Y-93285385D01*
X66501739Y-93372739D01*
X66414385Y-93489295D01*
X66363255Y-93625684D01*
X66356500Y-93687866D01*
X66356500Y-95484134D01*
X62805092Y-95484134D01*
X62751981Y-95320674D01*
X62654497Y-95151826D01*
X62524037Y-95006936D01*
X62366305Y-94892337D01*
X62360277Y-94889653D01*
X62360275Y-94889652D01*
X62194223Y-94815721D01*
X62194222Y-94815721D01*
X62188192Y-94813036D01*
X62092838Y-94792768D01*
X62003941Y-94773872D01*
X62003937Y-94773872D01*
X61997484Y-94772500D01*
X61802516Y-94772500D01*
X61796063Y-94773872D01*
X61796059Y-94773872D01*
X61707162Y-94792768D01*
X61611808Y-94813036D01*
X61605779Y-94815720D01*
X61605777Y-94815721D01*
X61439726Y-94889652D01*
X61439724Y-94889653D01*
X61433696Y-94892337D01*
X61275963Y-95006936D01*
X61145503Y-95151826D01*
X61048019Y-95320674D01*
X60987771Y-95506100D01*
X60987081Y-95512663D01*
X60987081Y-95512664D01*
X60968081Y-95693435D01*
X60967391Y-95700000D01*
X56134500Y-95700000D01*
X56134500Y-91130669D01*
X76209001Y-91130669D01*
X76209371Y-91137490D01*
X76214895Y-91188352D01*
X76218521Y-91203604D01*
X76263676Y-91324054D01*
X76272214Y-91339649D01*
X76348715Y-91441724D01*
X76361276Y-91454285D01*
X76463351Y-91530786D01*
X76478946Y-91539324D01*
X76599394Y-91584478D01*
X76614649Y-91588105D01*
X76665514Y-91593631D01*
X76672328Y-91594000D01*
X77294885Y-91594000D01*
X77310124Y-91589525D01*
X77311329Y-91588135D01*
X77313000Y-91580452D01*
X77313000Y-91575884D01*
X77821000Y-91575884D01*
X77825475Y-91591123D01*
X77826865Y-91592328D01*
X77834548Y-91593999D01*
X78461669Y-91593999D01*
X78468490Y-91593629D01*
X78519352Y-91588105D01*
X78534604Y-91584479D01*
X78655054Y-91539324D01*
X78670649Y-91530786D01*
X78772724Y-91454285D01*
X78785285Y-91441724D01*
X78861786Y-91339649D01*
X78870324Y-91324054D01*
X78915478Y-91203606D01*
X78916335Y-91200000D01*
X81767391Y-91200000D01*
X81768081Y-91206565D01*
X81772411Y-91247757D01*
X81787771Y-91393900D01*
X81848019Y-91579326D01*
X81851322Y-91585048D01*
X81851323Y-91585049D01*
X81853105Y-91588135D01*
X81945503Y-91748174D01*
X81949921Y-91753081D01*
X81949922Y-91753082D01*
X82064810Y-91880677D01*
X82075963Y-91893064D01*
X82233695Y-92007663D01*
X82239723Y-92010347D01*
X82239725Y-92010348D01*
X82405777Y-92084279D01*
X82411808Y-92086964D01*
X82507162Y-92107232D01*
X82596059Y-92126128D01*
X82596063Y-92126128D01*
X82602516Y-92127500D01*
X82797484Y-92127500D01*
X82803937Y-92126128D01*
X82803941Y-92126128D01*
X82892838Y-92107232D01*
X82988192Y-92086964D01*
X82994223Y-92084279D01*
X83160275Y-92010348D01*
X83160277Y-92010347D01*
X83166305Y-92007663D01*
X83324037Y-91893064D01*
X83335191Y-91880677D01*
X83450078Y-91753082D01*
X83450079Y-91753081D01*
X83454497Y-91748174D01*
X83546895Y-91588135D01*
X83548677Y-91585049D01*
X83548678Y-91585048D01*
X83551981Y-91579326D01*
X83612229Y-91393900D01*
X83627590Y-91247757D01*
X83631919Y-91206565D01*
X83632609Y-91200000D01*
X83616711Y-91048745D01*
X83612919Y-91012664D01*
X83612919Y-91012663D01*
X83612229Y-91006100D01*
X83551981Y-90820674D01*
X83499399Y-90729598D01*
X83457800Y-90657547D01*
X83454497Y-90651826D01*
X83403257Y-90594918D01*
X83328452Y-90511839D01*
X83328450Y-90511838D01*
X83324037Y-90506936D01*
X83300727Y-90490000D01*
X83171647Y-90396218D01*
X83171646Y-90396217D01*
X83166305Y-90392337D01*
X83160277Y-90389653D01*
X83160275Y-90389652D01*
X82994223Y-90315721D01*
X82994222Y-90315721D01*
X82988192Y-90313036D01*
X82892838Y-90292768D01*
X82803941Y-90273872D01*
X82803937Y-90273872D01*
X82797484Y-90272500D01*
X82602516Y-90272500D01*
X82596063Y-90273872D01*
X82596059Y-90273872D01*
X82507162Y-90292768D01*
X82411808Y-90313036D01*
X82405779Y-90315720D01*
X82405777Y-90315721D01*
X82239726Y-90389652D01*
X82239724Y-90389653D01*
X82233696Y-90392337D01*
X82228355Y-90396217D01*
X82228354Y-90396218D01*
X82175850Y-90434364D01*
X82075963Y-90506936D01*
X82071550Y-90511838D01*
X82071548Y-90511839D01*
X81996743Y-90594918D01*
X81945503Y-90651826D01*
X81942200Y-90657547D01*
X81900602Y-90729598D01*
X81848019Y-90820674D01*
X81787771Y-91006100D01*
X81787081Y-91012663D01*
X81787081Y-91012664D01*
X81783289Y-91048745D01*
X81767391Y-91200000D01*
X78916335Y-91200000D01*
X78919105Y-91188351D01*
X78924631Y-91137486D01*
X78925000Y-91130672D01*
X78925000Y-90508115D01*
X78920525Y-90492876D01*
X78919135Y-90491671D01*
X78911452Y-90490000D01*
X77839115Y-90490000D01*
X77823876Y-90494475D01*
X77822671Y-90495865D01*
X77821000Y-90503548D01*
X77821000Y-91575884D01*
X77313000Y-91575884D01*
X77313000Y-90508115D01*
X77308525Y-90492876D01*
X77307135Y-90491671D01*
X77299452Y-90490000D01*
X76227116Y-90490000D01*
X76211877Y-90494475D01*
X76210672Y-90495865D01*
X76209001Y-90503548D01*
X76209001Y-91130669D01*
X56134500Y-91130669D01*
X56134500Y-89300000D01*
X62467391Y-89300000D01*
X62487771Y-89493900D01*
X62548019Y-89679326D01*
X62551322Y-89685048D01*
X62551323Y-89685049D01*
X62614612Y-89794669D01*
X62645503Y-89848174D01*
X62649921Y-89853081D01*
X62649922Y-89853082D01*
X62761972Y-89977525D01*
X62775963Y-89993064D01*
X62933695Y-90107663D01*
X62939723Y-90110347D01*
X62939725Y-90110348D01*
X62957552Y-90118285D01*
X63111808Y-90186964D01*
X63207162Y-90207232D01*
X63296059Y-90226128D01*
X63296063Y-90226128D01*
X63302516Y-90227500D01*
X63497484Y-90227500D01*
X63503937Y-90226128D01*
X63503941Y-90226128D01*
X63592838Y-90207232D01*
X63688192Y-90186964D01*
X63842448Y-90118285D01*
X63860275Y-90110348D01*
X63860277Y-90110347D01*
X63866305Y-90107663D01*
X64024037Y-89993064D01*
X64038029Y-89977525D01*
X64050311Y-89963885D01*
X76209000Y-89963885D01*
X76213475Y-89979124D01*
X76214865Y-89980329D01*
X76222548Y-89982000D01*
X77294885Y-89982000D01*
X77310124Y-89977525D01*
X77311329Y-89976135D01*
X77313000Y-89968452D01*
X77313000Y-89963885D01*
X77821000Y-89963885D01*
X77825475Y-89979124D01*
X77826865Y-89980329D01*
X77834548Y-89982000D01*
X78906884Y-89982000D01*
X78922123Y-89977525D01*
X78923328Y-89976135D01*
X78924999Y-89968452D01*
X78924999Y-89341331D01*
X78924629Y-89334510D01*
X78919105Y-89283648D01*
X78915479Y-89268396D01*
X78870324Y-89147946D01*
X78861786Y-89132351D01*
X78785285Y-89030276D01*
X78772724Y-89017715D01*
X78670649Y-88941214D01*
X78655054Y-88932676D01*
X78534606Y-88887522D01*
X78519351Y-88883895D01*
X78468486Y-88878369D01*
X78461672Y-88878000D01*
X77839115Y-88878000D01*
X77823876Y-88882475D01*
X77822671Y-88883865D01*
X77821000Y-88891548D01*
X77821000Y-89963885D01*
X77313000Y-89963885D01*
X77313000Y-88896116D01*
X77308525Y-88880877D01*
X77307135Y-88879672D01*
X77299452Y-88878001D01*
X76672331Y-88878001D01*
X76665510Y-88878371D01*
X76614648Y-88883895D01*
X76599396Y-88887521D01*
X76478946Y-88932676D01*
X76463351Y-88941214D01*
X76361276Y-89017715D01*
X76348715Y-89030276D01*
X76272214Y-89132351D01*
X76263676Y-89147946D01*
X76218522Y-89268394D01*
X76214895Y-89283649D01*
X76209369Y-89334514D01*
X76209000Y-89341328D01*
X76209000Y-89963885D01*
X64050311Y-89963885D01*
X64150078Y-89853082D01*
X64150079Y-89853081D01*
X64154497Y-89848174D01*
X64185388Y-89794669D01*
X64248677Y-89685049D01*
X64248678Y-89685048D01*
X64251981Y-89679326D01*
X64312229Y-89493900D01*
X64332609Y-89300000D01*
X64312229Y-89106100D01*
X64251981Y-88920674D01*
X64237803Y-88896116D01*
X64157800Y-88757547D01*
X64154497Y-88751826D01*
X64024037Y-88606936D01*
X63866305Y-88492337D01*
X63860277Y-88489653D01*
X63860275Y-88489652D01*
X63694223Y-88415721D01*
X63694222Y-88415721D01*
X63688192Y-88413036D01*
X63592838Y-88392768D01*
X63503941Y-88373872D01*
X63503937Y-88373872D01*
X63497484Y-88372500D01*
X63302516Y-88372500D01*
X63296063Y-88373872D01*
X63296059Y-88373872D01*
X63207162Y-88392768D01*
X63111808Y-88413036D01*
X63105779Y-88415720D01*
X63105777Y-88415721D01*
X62939726Y-88489652D01*
X62939724Y-88489653D01*
X62933696Y-88492337D01*
X62775963Y-88606936D01*
X62645503Y-88751826D01*
X62642200Y-88757547D01*
X62562198Y-88896116D01*
X62548019Y-88920674D01*
X62487771Y-89106100D01*
X62467391Y-89300000D01*
X56134500Y-89300000D01*
X56134500Y-86448134D01*
X63091500Y-86448134D01*
X63098255Y-86510316D01*
X63149385Y-86646705D01*
X63236739Y-86763261D01*
X63353295Y-86850615D01*
X63489684Y-86901745D01*
X63551866Y-86908500D01*
X65248134Y-86908500D01*
X65310316Y-86901745D01*
X65446705Y-86850615D01*
X65563261Y-86763261D01*
X65650615Y-86646705D01*
X65701745Y-86510316D01*
X65708500Y-86448134D01*
X65708500Y-85600000D01*
X70706502Y-85600000D01*
X70726457Y-85828087D01*
X70727881Y-85833400D01*
X70727881Y-85833402D01*
X70774575Y-86007663D01*
X70785716Y-86049243D01*
X70788039Y-86054224D01*
X70788039Y-86054225D01*
X70880151Y-86251762D01*
X70880154Y-86251767D01*
X70882477Y-86256749D01*
X71013802Y-86444300D01*
X71175700Y-86606198D01*
X71180208Y-86609355D01*
X71180211Y-86609357D01*
X71221542Y-86638297D01*
X71363251Y-86737523D01*
X71368233Y-86739846D01*
X71368238Y-86739849D01*
X71565775Y-86831961D01*
X71570757Y-86834284D01*
X71576065Y-86835706D01*
X71576067Y-86835707D01*
X71786598Y-86892119D01*
X71786600Y-86892119D01*
X71791913Y-86893543D01*
X72020000Y-86913498D01*
X72248087Y-86893543D01*
X72253400Y-86892119D01*
X72253402Y-86892119D01*
X72463933Y-86835707D01*
X72463935Y-86835706D01*
X72469243Y-86834284D01*
X72474225Y-86831961D01*
X72671762Y-86739849D01*
X72671767Y-86739846D01*
X72676749Y-86737523D01*
X72818458Y-86638297D01*
X72859789Y-86609357D01*
X72859792Y-86609355D01*
X72864300Y-86606198D01*
X72970498Y-86500000D01*
X82267391Y-86500000D01*
X82268081Y-86506565D01*
X82282811Y-86646705D01*
X82287771Y-86693900D01*
X82289811Y-86700178D01*
X82289811Y-86700179D01*
X82312056Y-86768642D01*
X82348019Y-86879326D01*
X82351322Y-86885048D01*
X82351323Y-86885049D01*
X82367748Y-86913498D01*
X82445503Y-87048174D01*
X82575963Y-87193064D01*
X82733695Y-87307663D01*
X82739723Y-87310347D01*
X82739725Y-87310348D01*
X82905777Y-87384279D01*
X82911808Y-87386964D01*
X83007162Y-87407232D01*
X83096059Y-87426128D01*
X83096063Y-87426128D01*
X83102516Y-87427500D01*
X83297484Y-87427500D01*
X83303937Y-87426128D01*
X83303941Y-87426128D01*
X83392838Y-87407232D01*
X83488192Y-87386964D01*
X83494223Y-87384279D01*
X83660275Y-87310348D01*
X83660277Y-87310347D01*
X83666305Y-87307663D01*
X83824037Y-87193064D01*
X83954497Y-87048174D01*
X84032252Y-86913498D01*
X84048677Y-86885049D01*
X84048678Y-86885048D01*
X84051981Y-86879326D01*
X84087944Y-86768642D01*
X84110189Y-86700179D01*
X84110189Y-86700178D01*
X84112229Y-86693900D01*
X84117190Y-86646705D01*
X84131919Y-86506565D01*
X84132609Y-86500000D01*
X84126755Y-86444300D01*
X84112919Y-86312664D01*
X84112919Y-86312663D01*
X84112229Y-86306100D01*
X84107994Y-86293064D01*
X84054023Y-86126959D01*
X84051981Y-86120674D01*
X84044793Y-86108223D01*
X83957800Y-85957547D01*
X83954497Y-85951826D01*
X83905080Y-85896943D01*
X83828452Y-85811839D01*
X83828450Y-85811838D01*
X83824037Y-85806936D01*
X83666305Y-85692337D01*
X83660277Y-85689653D01*
X83660275Y-85689652D01*
X83494223Y-85615721D01*
X83494222Y-85615721D01*
X83488192Y-85613036D01*
X83392838Y-85592768D01*
X83303941Y-85573872D01*
X83303937Y-85573872D01*
X83297484Y-85572500D01*
X83102516Y-85572500D01*
X83096063Y-85573872D01*
X83096059Y-85573872D01*
X83007162Y-85592768D01*
X82911808Y-85613036D01*
X82905779Y-85615720D01*
X82905777Y-85615721D01*
X82739726Y-85689652D01*
X82739724Y-85689653D01*
X82733696Y-85692337D01*
X82575963Y-85806936D01*
X82571550Y-85811838D01*
X82571548Y-85811839D01*
X82494920Y-85896943D01*
X82445503Y-85951826D01*
X82442200Y-85957547D01*
X82355208Y-86108223D01*
X82348019Y-86120674D01*
X82345977Y-86126959D01*
X82292007Y-86293064D01*
X82287771Y-86306100D01*
X82287081Y-86312663D01*
X82287081Y-86312664D01*
X82273245Y-86444300D01*
X82267391Y-86500000D01*
X72970498Y-86500000D01*
X73026198Y-86444300D01*
X73157523Y-86256749D01*
X73159846Y-86251767D01*
X73159849Y-86251762D01*
X73251961Y-86054225D01*
X73251961Y-86054224D01*
X73254284Y-86049243D01*
X73265426Y-86007663D01*
X73312119Y-85833402D01*
X73312119Y-85833400D01*
X73313543Y-85828087D01*
X73333498Y-85600000D01*
X73313543Y-85371913D01*
X73312119Y-85366598D01*
X73255707Y-85156067D01*
X73255706Y-85156065D01*
X73254284Y-85150757D01*
X73208152Y-85051826D01*
X73159849Y-84948238D01*
X73159846Y-84948233D01*
X73157523Y-84943251D01*
X73026198Y-84755700D01*
X72864300Y-84593802D01*
X72859792Y-84590645D01*
X72859789Y-84590643D01*
X72734703Y-84503057D01*
X72676749Y-84462477D01*
X72671767Y-84460154D01*
X72671762Y-84460151D01*
X72474225Y-84368039D01*
X72474224Y-84368039D01*
X72469243Y-84365716D01*
X72463935Y-84364294D01*
X72463933Y-84364293D01*
X72253402Y-84307881D01*
X72253400Y-84307881D01*
X72248087Y-84306457D01*
X72020000Y-84286502D01*
X71791913Y-84306457D01*
X71786600Y-84307881D01*
X71786598Y-84307881D01*
X71576067Y-84364293D01*
X71576065Y-84364294D01*
X71570757Y-84365716D01*
X71565776Y-84368039D01*
X71565775Y-84368039D01*
X71368238Y-84460151D01*
X71368233Y-84460154D01*
X71363251Y-84462477D01*
X71305297Y-84503057D01*
X71180211Y-84590643D01*
X71180208Y-84590645D01*
X71175700Y-84593802D01*
X71013802Y-84755700D01*
X70882477Y-84943251D01*
X70880154Y-84948233D01*
X70880151Y-84948238D01*
X70831848Y-85051826D01*
X70785716Y-85150757D01*
X70784294Y-85156065D01*
X70784293Y-85156067D01*
X70727881Y-85366598D01*
X70726457Y-85371913D01*
X70706502Y-85600000D01*
X65708500Y-85600000D01*
X65708500Y-84751866D01*
X65701745Y-84689684D01*
X65650615Y-84553295D01*
X65563261Y-84436739D01*
X65446705Y-84349385D01*
X65310316Y-84298255D01*
X65248134Y-84291500D01*
X63551866Y-84291500D01*
X63489684Y-84298255D01*
X63353295Y-84349385D01*
X63236739Y-84436739D01*
X63149385Y-84553295D01*
X63098255Y-84689684D01*
X63091500Y-84751866D01*
X63091500Y-86448134D01*
X56134500Y-86448134D01*
X56134500Y-82607500D01*
X63179384Y-82607500D01*
X63197814Y-82818155D01*
X63252544Y-83022410D01*
X63341911Y-83214058D01*
X63463199Y-83387276D01*
X63612724Y-83536801D01*
X63785942Y-83658089D01*
X63790920Y-83660410D01*
X63790923Y-83660412D01*
X63972608Y-83745133D01*
X63977590Y-83747456D01*
X63982898Y-83748878D01*
X63982900Y-83748879D01*
X64176530Y-83800762D01*
X64176532Y-83800762D01*
X64181845Y-83802186D01*
X64392500Y-83820616D01*
X64603155Y-83802186D01*
X64608468Y-83800762D01*
X64608470Y-83800762D01*
X64802100Y-83748879D01*
X64802102Y-83748878D01*
X64807410Y-83747456D01*
X64812392Y-83745133D01*
X64994077Y-83660412D01*
X64994080Y-83660410D01*
X64999058Y-83658089D01*
X65172276Y-83536801D01*
X65321801Y-83387276D01*
X65343957Y-83355634D01*
X70804000Y-83355634D01*
X70810755Y-83417816D01*
X70861885Y-83554205D01*
X70949239Y-83670761D01*
X71065795Y-83758115D01*
X71202184Y-83809245D01*
X71264366Y-83816000D01*
X72760634Y-83816000D01*
X72822816Y-83809245D01*
X72959205Y-83758115D01*
X73075761Y-83670761D01*
X73163115Y-83554205D01*
X73214245Y-83417816D01*
X73221000Y-83355634D01*
X73221000Y-82857300D01*
X79710091Y-82857300D01*
X79730471Y-83051200D01*
X79790719Y-83236626D01*
X79888203Y-83405474D01*
X79892621Y-83410381D01*
X79892622Y-83410382D01*
X80006451Y-83536801D01*
X80018663Y-83550364D01*
X80024002Y-83554243D01*
X80166934Y-83658089D01*
X80176395Y-83664963D01*
X80182423Y-83667647D01*
X80182425Y-83667648D01*
X80201503Y-83676142D01*
X80354508Y-83744264D01*
X80449862Y-83764532D01*
X80538759Y-83783428D01*
X80538763Y-83783428D01*
X80545216Y-83784800D01*
X80740184Y-83784800D01*
X80746637Y-83783428D01*
X80746641Y-83783428D01*
X80835538Y-83764532D01*
X80930892Y-83744264D01*
X81083897Y-83676142D01*
X81102975Y-83667648D01*
X81102977Y-83667647D01*
X81109005Y-83664963D01*
X81118467Y-83658089D01*
X81261398Y-83554243D01*
X81266737Y-83550364D01*
X81278950Y-83536801D01*
X81392778Y-83410382D01*
X81392779Y-83410381D01*
X81397197Y-83405474D01*
X81494681Y-83236626D01*
X81554929Y-83051200D01*
X81575309Y-82857300D01*
X81554929Y-82663400D01*
X81494681Y-82477974D01*
X81397197Y-82309126D01*
X81377266Y-82286990D01*
X81271152Y-82169139D01*
X81271150Y-82169138D01*
X81266737Y-82164236D01*
X81109005Y-82049637D01*
X81102977Y-82046953D01*
X81102975Y-82046952D01*
X80936923Y-81973021D01*
X80936922Y-81973021D01*
X80930892Y-81970336D01*
X80835538Y-81950068D01*
X80746641Y-81931172D01*
X80746637Y-81931172D01*
X80740184Y-81929800D01*
X80545216Y-81929800D01*
X80538763Y-81931172D01*
X80538759Y-81931172D01*
X80449862Y-81950068D01*
X80354508Y-81970336D01*
X80348479Y-81973020D01*
X80348477Y-81973021D01*
X80182426Y-82046952D01*
X80182424Y-82046953D01*
X80176396Y-82049637D01*
X80018663Y-82164236D01*
X80014250Y-82169138D01*
X80014248Y-82169139D01*
X79908134Y-82286990D01*
X79888203Y-82309126D01*
X79790719Y-82477974D01*
X79730471Y-82663400D01*
X79710091Y-82857300D01*
X73221000Y-82857300D01*
X73221000Y-81859366D01*
X73214245Y-81797184D01*
X73163115Y-81660795D01*
X73075761Y-81544239D01*
X72959205Y-81456885D01*
X72822816Y-81405755D01*
X72760634Y-81399000D01*
X71264366Y-81399000D01*
X71202184Y-81405755D01*
X71065795Y-81456885D01*
X70949239Y-81544239D01*
X70861885Y-81660795D01*
X70810755Y-81797184D01*
X70804000Y-81859366D01*
X70804000Y-83355634D01*
X65343957Y-83355634D01*
X65443089Y-83214058D01*
X65532456Y-83022410D01*
X65587186Y-82818155D01*
X65605616Y-82607500D01*
X65587186Y-82396845D01*
X65560432Y-82296998D01*
X65533879Y-82197900D01*
X65533878Y-82197898D01*
X65532456Y-82192590D01*
X65519234Y-82164236D01*
X65445412Y-82005923D01*
X65445410Y-82005920D01*
X65443089Y-82000942D01*
X65321801Y-81827724D01*
X65172276Y-81678199D01*
X64999058Y-81556911D01*
X64994080Y-81554590D01*
X64994077Y-81554588D01*
X64812392Y-81469867D01*
X64812391Y-81469866D01*
X64807410Y-81467544D01*
X64802102Y-81466122D01*
X64802100Y-81466121D01*
X64608470Y-81414238D01*
X64608468Y-81414238D01*
X64603155Y-81412814D01*
X64392500Y-81394384D01*
X64181845Y-81412814D01*
X64176532Y-81414238D01*
X64176530Y-81414238D01*
X63982900Y-81466121D01*
X63982898Y-81466122D01*
X63977590Y-81467544D01*
X63972609Y-81469866D01*
X63972608Y-81469867D01*
X63790923Y-81554588D01*
X63790920Y-81554590D01*
X63785942Y-81556911D01*
X63612724Y-81678199D01*
X63463199Y-81827724D01*
X63341911Y-82000942D01*
X63339590Y-82005920D01*
X63339588Y-82005923D01*
X63265766Y-82164236D01*
X63252544Y-82192590D01*
X63251122Y-82197898D01*
X63251121Y-82197900D01*
X63224568Y-82296998D01*
X63197814Y-82396845D01*
X63179384Y-82607500D01*
X56134500Y-82607500D01*
X56134500Y-78688640D01*
X75686463Y-78688640D01*
X75704163Y-78869160D01*
X75761418Y-79041273D01*
X75765065Y-79047295D01*
X75765066Y-79047297D01*
X75775978Y-79065314D01*
X75855380Y-79196424D01*
X75981382Y-79326902D01*
X76133159Y-79426222D01*
X76139763Y-79428678D01*
X76139765Y-79428679D01*
X76296558Y-79486990D01*
X76296560Y-79486990D01*
X76303168Y-79489448D01*
X76386995Y-79500633D01*
X76475980Y-79512507D01*
X76475984Y-79512507D01*
X76482961Y-79513438D01*
X76489972Y-79512800D01*
X76489976Y-79512800D01*
X76632459Y-79499832D01*
X76663600Y-79496998D01*
X76670302Y-79494820D01*
X76670304Y-79494820D01*
X76829409Y-79443124D01*
X76829412Y-79443123D01*
X76836108Y-79440947D01*
X76991912Y-79348069D01*
X77123266Y-79222982D01*
X77223643Y-79071902D01*
X77288055Y-78902338D01*
X77289035Y-78895366D01*
X77312748Y-78726639D01*
X77312748Y-78726636D01*
X77313299Y-78722717D01*
X77313616Y-78700000D01*
X77293397Y-78519745D01*
X77291080Y-78513091D01*
X77236064Y-78355106D01*
X77236062Y-78355103D01*
X77233745Y-78348448D01*
X77137626Y-78194624D01*
X77123941Y-78180843D01*
X77014778Y-78070915D01*
X77014774Y-78070912D01*
X77009815Y-78065918D01*
X76998697Y-78058862D01*
X76949278Y-78027500D01*
X76856666Y-77968727D01*
X76827463Y-77958328D01*
X76692425Y-77910243D01*
X76692420Y-77910242D01*
X76685790Y-77907881D01*
X76678802Y-77907048D01*
X76678799Y-77907047D01*
X76555698Y-77892368D01*
X76505680Y-77886404D01*
X76498677Y-77887140D01*
X76498676Y-77887140D01*
X76332288Y-77904628D01*
X76332286Y-77904629D01*
X76325288Y-77905364D01*
X76153579Y-77963818D01*
X76147575Y-77967512D01*
X76005095Y-78055166D01*
X76005092Y-78055168D01*
X75999088Y-78058862D01*
X75994053Y-78063793D01*
X75994050Y-78063795D01*
X75874525Y-78180843D01*
X75869493Y-78185771D01*
X75771235Y-78338238D01*
X75768826Y-78344858D01*
X75768824Y-78344861D01*
X75711606Y-78502066D01*
X75709197Y-78508685D01*
X75686463Y-78688640D01*
X56134500Y-78688640D01*
X56134500Y-75868134D01*
X58077500Y-75868134D01*
X58084255Y-75930316D01*
X58135385Y-76066705D01*
X58222739Y-76183261D01*
X58339295Y-76270615D01*
X58475684Y-76321745D01*
X58537866Y-76328500D01*
X60334134Y-76328500D01*
X60396316Y-76321745D01*
X60532705Y-76270615D01*
X60649261Y-76183261D01*
X60736615Y-76066705D01*
X60787745Y-75930316D01*
X60794500Y-75868134D01*
X60794500Y-74987500D01*
X63179384Y-74987500D01*
X63197814Y-75198155D01*
X63252544Y-75402410D01*
X63341911Y-75594058D01*
X63463199Y-75767276D01*
X63612724Y-75916801D01*
X63785942Y-76038089D01*
X63790920Y-76040410D01*
X63790923Y-76040412D01*
X63972608Y-76125133D01*
X63977590Y-76127456D01*
X63982898Y-76128878D01*
X63982900Y-76128879D01*
X64176530Y-76180762D01*
X64176532Y-76180762D01*
X64181845Y-76182186D01*
X64392500Y-76200616D01*
X64603155Y-76182186D01*
X64608468Y-76180762D01*
X64608470Y-76180762D01*
X64802100Y-76128879D01*
X64802102Y-76128878D01*
X64807410Y-76127456D01*
X64812392Y-76125133D01*
X64994077Y-76040412D01*
X64994080Y-76040410D01*
X64999058Y-76038089D01*
X65172276Y-75916801D01*
X65321801Y-75767276D01*
X65443089Y-75594058D01*
X65532456Y-75402410D01*
X65587186Y-75198155D01*
X65605616Y-74987500D01*
X70799384Y-74987500D01*
X70817814Y-75198155D01*
X70872544Y-75402410D01*
X70961911Y-75594058D01*
X71083199Y-75767276D01*
X71232724Y-75916801D01*
X71405942Y-76038089D01*
X71410920Y-76040410D01*
X71410923Y-76040412D01*
X71592608Y-76125133D01*
X71597590Y-76127456D01*
X71602898Y-76128878D01*
X71602900Y-76128879D01*
X71796530Y-76180762D01*
X71796532Y-76180762D01*
X71801845Y-76182186D01*
X72012500Y-76200616D01*
X72223155Y-76182186D01*
X72228468Y-76180762D01*
X72228470Y-76180762D01*
X72422100Y-76128879D01*
X72422102Y-76128878D01*
X72427410Y-76127456D01*
X72432392Y-76125133D01*
X72614077Y-76040412D01*
X72614080Y-76040410D01*
X72619058Y-76038089D01*
X72792276Y-75916801D01*
X72810943Y-75898134D01*
X74241500Y-75898134D01*
X74248255Y-75960316D01*
X74299385Y-76096705D01*
X74386739Y-76213261D01*
X74503295Y-76300615D01*
X74639684Y-76351745D01*
X74701866Y-76358500D01*
X76498134Y-76358500D01*
X76560316Y-76351745D01*
X76696705Y-76300615D01*
X76813261Y-76213261D01*
X76900615Y-76096705D01*
X76951745Y-75960316D01*
X76954155Y-75938134D01*
X83921500Y-75938134D01*
X83928255Y-76000316D01*
X83979385Y-76136705D01*
X84066739Y-76253261D01*
X84183295Y-76340615D01*
X84319684Y-76391745D01*
X84381866Y-76398500D01*
X86178134Y-76398500D01*
X86240316Y-76391745D01*
X86376705Y-76340615D01*
X86493261Y-76253261D01*
X86580615Y-76136705D01*
X86631745Y-76000316D01*
X86638500Y-75938134D01*
X86638500Y-74141866D01*
X86631745Y-74079684D01*
X86580615Y-73943295D01*
X86493261Y-73826739D01*
X86376705Y-73739385D01*
X86240316Y-73688255D01*
X86178134Y-73681500D01*
X84381866Y-73681500D01*
X84319684Y-73688255D01*
X84183295Y-73739385D01*
X84066739Y-73826739D01*
X83979385Y-73943295D01*
X83928255Y-74079684D01*
X83921500Y-74141866D01*
X83921500Y-75938134D01*
X76954155Y-75938134D01*
X76958500Y-75898134D01*
X76958500Y-74101866D01*
X76951745Y-74039684D01*
X76900615Y-73903295D01*
X76813261Y-73786739D01*
X76696705Y-73699385D01*
X76560316Y-73648255D01*
X76498134Y-73641500D01*
X74701866Y-73641500D01*
X74639684Y-73648255D01*
X74503295Y-73699385D01*
X74386739Y-73786739D01*
X74299385Y-73903295D01*
X74248255Y-74039684D01*
X74241500Y-74101866D01*
X74241500Y-75898134D01*
X72810943Y-75898134D01*
X72941801Y-75767276D01*
X73063089Y-75594058D01*
X73152456Y-75402410D01*
X73207186Y-75198155D01*
X73225616Y-74987500D01*
X73207186Y-74776845D01*
X73152456Y-74572590D01*
X73063089Y-74380942D01*
X72941801Y-74207724D01*
X72792276Y-74058199D01*
X72619058Y-73936911D01*
X72614080Y-73934590D01*
X72614077Y-73934588D01*
X72432392Y-73849867D01*
X72432391Y-73849866D01*
X72427410Y-73847544D01*
X72422102Y-73846122D01*
X72422100Y-73846121D01*
X72228470Y-73794238D01*
X72228468Y-73794238D01*
X72223155Y-73792814D01*
X72012500Y-73774384D01*
X71801845Y-73792814D01*
X71796532Y-73794238D01*
X71796530Y-73794238D01*
X71602900Y-73846121D01*
X71602898Y-73846122D01*
X71597590Y-73847544D01*
X71592609Y-73849866D01*
X71592608Y-73849867D01*
X71410923Y-73934588D01*
X71410920Y-73934590D01*
X71405942Y-73936911D01*
X71232724Y-74058199D01*
X71083199Y-74207724D01*
X70961911Y-74380942D01*
X70872544Y-74572590D01*
X70817814Y-74776845D01*
X70799384Y-74987500D01*
X65605616Y-74987500D01*
X65587186Y-74776845D01*
X65532456Y-74572590D01*
X65443089Y-74380942D01*
X65321801Y-74207724D01*
X65256672Y-74142595D01*
X65222646Y-74080283D01*
X65227711Y-74009468D01*
X65270258Y-73952632D01*
X65336778Y-73927821D01*
X65345767Y-73927500D01*
X65497484Y-73927500D01*
X65503937Y-73926128D01*
X65503941Y-73926128D01*
X65611360Y-73903295D01*
X65688192Y-73886964D01*
X65694223Y-73884279D01*
X65860275Y-73810348D01*
X65860277Y-73810347D01*
X65866305Y-73807663D01*
X65890786Y-73789877D01*
X66018698Y-73696943D01*
X66024037Y-73693064D01*
X66034450Y-73681500D01*
X66150078Y-73553082D01*
X66150079Y-73553081D01*
X66154497Y-73548174D01*
X66251981Y-73379326D01*
X66312229Y-73193900D01*
X66332609Y-73000000D01*
X66312229Y-72806100D01*
X66251981Y-72620674D01*
X66154497Y-72451826D01*
X66150078Y-72446918D01*
X66028452Y-72311839D01*
X66028450Y-72311838D01*
X66024037Y-72306936D01*
X65866305Y-72192337D01*
X65860277Y-72189653D01*
X65860275Y-72189652D01*
X65694223Y-72115721D01*
X65694222Y-72115721D01*
X65688192Y-72113036D01*
X65592838Y-72092768D01*
X65503941Y-72073872D01*
X65503937Y-72073872D01*
X65497484Y-72072500D01*
X65302516Y-72072500D01*
X65296063Y-72073872D01*
X65296059Y-72073872D01*
X65207162Y-72092768D01*
X65111808Y-72113036D01*
X65105779Y-72115720D01*
X65105777Y-72115721D01*
X64939726Y-72189652D01*
X64939724Y-72189653D01*
X64933696Y-72192337D01*
X64775963Y-72306936D01*
X64771550Y-72311838D01*
X64771548Y-72311839D01*
X64649922Y-72446918D01*
X64645503Y-72451826D01*
X64548019Y-72620674D01*
X64487771Y-72806100D01*
X64467391Y-73000000D01*
X64487771Y-73193900D01*
X64548019Y-73379326D01*
X64645503Y-73548174D01*
X64649921Y-73553081D01*
X64649922Y-73553082D01*
X64674200Y-73580045D01*
X64704917Y-73644053D01*
X64696154Y-73714506D01*
X64650691Y-73769038D01*
X64582963Y-73790333D01*
X64569587Y-73789877D01*
X64392500Y-73774384D01*
X64181845Y-73792814D01*
X64176532Y-73794238D01*
X64176530Y-73794238D01*
X63982900Y-73846121D01*
X63982898Y-73846122D01*
X63977590Y-73847544D01*
X63972609Y-73849866D01*
X63972608Y-73849867D01*
X63790923Y-73934588D01*
X63790920Y-73934590D01*
X63785942Y-73936911D01*
X63612724Y-74058199D01*
X63463199Y-74207724D01*
X63341911Y-74380942D01*
X63252544Y-74572590D01*
X63197814Y-74776845D01*
X63179384Y-74987500D01*
X60794500Y-74987500D01*
X60794500Y-74071866D01*
X60787745Y-74009684D01*
X60736615Y-73873295D01*
X60649261Y-73756739D01*
X60532705Y-73669385D01*
X60396316Y-73618255D01*
X60334134Y-73611500D01*
X58537866Y-73611500D01*
X58475684Y-73618255D01*
X58339295Y-73669385D01*
X58222739Y-73756739D01*
X58135385Y-73873295D01*
X58084255Y-74009684D01*
X58077500Y-74071866D01*
X58077500Y-75868134D01*
X56134500Y-75868134D01*
X56134500Y-69907500D01*
X63179384Y-69907500D01*
X63197814Y-70118155D01*
X63252544Y-70322410D01*
X63341911Y-70514058D01*
X63463199Y-70687276D01*
X63612724Y-70836801D01*
X63785942Y-70958089D01*
X63790920Y-70960410D01*
X63790923Y-70960412D01*
X63972608Y-71045133D01*
X63977590Y-71047456D01*
X63982898Y-71048878D01*
X63982900Y-71048879D01*
X64176530Y-71100762D01*
X64176532Y-71100762D01*
X64181845Y-71102186D01*
X64392500Y-71120616D01*
X64603155Y-71102186D01*
X64608468Y-71100762D01*
X64608470Y-71100762D01*
X64802100Y-71048879D01*
X64802102Y-71048878D01*
X64807410Y-71047456D01*
X64812392Y-71045133D01*
X64994077Y-70960412D01*
X64994080Y-70960410D01*
X64999058Y-70958089D01*
X65172276Y-70836801D01*
X65321801Y-70687276D01*
X65443089Y-70514058D01*
X65532456Y-70322410D01*
X65587186Y-70118155D01*
X65605616Y-69907500D01*
X70799384Y-69907500D01*
X70817814Y-70118155D01*
X70872544Y-70322410D01*
X70961911Y-70514058D01*
X71083199Y-70687276D01*
X71232724Y-70836801D01*
X71405942Y-70958089D01*
X71410920Y-70960410D01*
X71410923Y-70960412D01*
X71592608Y-71045133D01*
X71597590Y-71047456D01*
X71602898Y-71048878D01*
X71602900Y-71048879D01*
X71796530Y-71100762D01*
X71796532Y-71100762D01*
X71801845Y-71102186D01*
X72012500Y-71120616D01*
X72223155Y-71102186D01*
X72228468Y-71100762D01*
X72228470Y-71100762D01*
X72422100Y-71048879D01*
X72422102Y-71048878D01*
X72427410Y-71047456D01*
X72432392Y-71045133D01*
X72614077Y-70960412D01*
X72614080Y-70960410D01*
X72619058Y-70958089D01*
X72792276Y-70836801D01*
X72941801Y-70687276D01*
X73063089Y-70514058D01*
X73152456Y-70322410D01*
X73207186Y-70118155D01*
X73225616Y-69907500D01*
X73207186Y-69696845D01*
X73152456Y-69492590D01*
X73063089Y-69300942D01*
X72941801Y-69127724D01*
X72792276Y-68978199D01*
X72619058Y-68856911D01*
X72614080Y-68854590D01*
X72614077Y-68854588D01*
X72432392Y-68769867D01*
X72432391Y-68769866D01*
X72427410Y-68767544D01*
X72422102Y-68766122D01*
X72422100Y-68766121D01*
X72228470Y-68714238D01*
X72228468Y-68714238D01*
X72223155Y-68712814D01*
X72012500Y-68694384D01*
X71801845Y-68712814D01*
X71796532Y-68714238D01*
X71796530Y-68714238D01*
X71602900Y-68766121D01*
X71602898Y-68766122D01*
X71597590Y-68767544D01*
X71592609Y-68769866D01*
X71592608Y-68769867D01*
X71410923Y-68854588D01*
X71410920Y-68854590D01*
X71405942Y-68856911D01*
X71232724Y-68978199D01*
X71083199Y-69127724D01*
X70961911Y-69300942D01*
X70872544Y-69492590D01*
X70817814Y-69696845D01*
X70799384Y-69907500D01*
X65605616Y-69907500D01*
X65587186Y-69696845D01*
X65532456Y-69492590D01*
X65443089Y-69300942D01*
X65321801Y-69127724D01*
X65172276Y-68978199D01*
X64999058Y-68856911D01*
X64994080Y-68854590D01*
X64994077Y-68854588D01*
X64812392Y-68769867D01*
X64812391Y-68769866D01*
X64807410Y-68767544D01*
X64802102Y-68766122D01*
X64802100Y-68766121D01*
X64608470Y-68714238D01*
X64608468Y-68714238D01*
X64603155Y-68712814D01*
X64392500Y-68694384D01*
X64181845Y-68712814D01*
X64176532Y-68714238D01*
X64176530Y-68714238D01*
X63982900Y-68766121D01*
X63982898Y-68766122D01*
X63977590Y-68767544D01*
X63972609Y-68769866D01*
X63972608Y-68769867D01*
X63790923Y-68854588D01*
X63790920Y-68854590D01*
X63785942Y-68856911D01*
X63612724Y-68978199D01*
X63463199Y-69127724D01*
X63341911Y-69300942D01*
X63252544Y-69492590D01*
X63197814Y-69696845D01*
X63179384Y-69907500D01*
X56134500Y-69907500D01*
X56134500Y-67400000D01*
X73467391Y-67400000D01*
X73487771Y-67593900D01*
X73548019Y-67779326D01*
X73645503Y-67948174D01*
X73775963Y-68093064D01*
X73933695Y-68207663D01*
X73939723Y-68210347D01*
X73939725Y-68210348D01*
X74105777Y-68284279D01*
X74111808Y-68286964D01*
X74207162Y-68307232D01*
X74296059Y-68326128D01*
X74296063Y-68326128D01*
X74302516Y-68327500D01*
X74497484Y-68327500D01*
X74503937Y-68326128D01*
X74503941Y-68326128D01*
X74592838Y-68307232D01*
X74688192Y-68286964D01*
X74694223Y-68284279D01*
X74860275Y-68210348D01*
X74860277Y-68210347D01*
X74866305Y-68207663D01*
X75024037Y-68093064D01*
X75154497Y-67948174D01*
X75251981Y-67779326D01*
X75312229Y-67593900D01*
X75332609Y-67400000D01*
X75312229Y-67206100D01*
X75309177Y-67196705D01*
X75254023Y-67026959D01*
X75251981Y-67020674D01*
X75154497Y-66851826D01*
X75024037Y-66706936D01*
X74866305Y-66592337D01*
X74860277Y-66589653D01*
X74860275Y-66589652D01*
X74694223Y-66515721D01*
X74694222Y-66515721D01*
X74688192Y-66513036D01*
X74592838Y-66492768D01*
X74503941Y-66473872D01*
X74503937Y-66473872D01*
X74497484Y-66472500D01*
X74302516Y-66472500D01*
X74296063Y-66473872D01*
X74296059Y-66473872D01*
X74207162Y-66492768D01*
X74111808Y-66513036D01*
X74105779Y-66515720D01*
X74105777Y-66515721D01*
X73939726Y-66589652D01*
X73939724Y-66589653D01*
X73933696Y-66592337D01*
X73775963Y-66706936D01*
X73645503Y-66851826D01*
X73548019Y-67020674D01*
X73545977Y-67026959D01*
X73490824Y-67196705D01*
X73487771Y-67206100D01*
X73467391Y-67400000D01*
X56134500Y-67400000D01*
X56134500Y-64827500D01*
X63179384Y-64827500D01*
X63197814Y-65038155D01*
X63199238Y-65043468D01*
X63199238Y-65043470D01*
X63243234Y-65207663D01*
X63252544Y-65242410D01*
X63341911Y-65434058D01*
X63463199Y-65607276D01*
X63612724Y-65756801D01*
X63785942Y-65878089D01*
X63790920Y-65880410D01*
X63790923Y-65880412D01*
X63831611Y-65899385D01*
X63977590Y-65967456D01*
X63982898Y-65968878D01*
X63982900Y-65968879D01*
X64176530Y-66020762D01*
X64176532Y-66020762D01*
X64181845Y-66022186D01*
X64392500Y-66040616D01*
X64603155Y-66022186D01*
X64608468Y-66020762D01*
X64608470Y-66020762D01*
X64802100Y-65968879D01*
X64802102Y-65968878D01*
X64807410Y-65967456D01*
X64953389Y-65899385D01*
X64994077Y-65880412D01*
X64994080Y-65880410D01*
X64999058Y-65878089D01*
X65172276Y-65756801D01*
X65321801Y-65607276D01*
X65443089Y-65434058D01*
X65532456Y-65242410D01*
X65541767Y-65207663D01*
X65585762Y-65043470D01*
X65585762Y-65043468D01*
X65587186Y-65038155D01*
X65605616Y-64827500D01*
X70799384Y-64827500D01*
X70817814Y-65038155D01*
X70819238Y-65043468D01*
X70819238Y-65043470D01*
X70863234Y-65207663D01*
X70872544Y-65242410D01*
X70961911Y-65434058D01*
X71083199Y-65607276D01*
X71232724Y-65756801D01*
X71405942Y-65878089D01*
X71410920Y-65880410D01*
X71410923Y-65880412D01*
X71451611Y-65899385D01*
X71597590Y-65967456D01*
X71602898Y-65968878D01*
X71602900Y-65968879D01*
X71796530Y-66020762D01*
X71796532Y-66020762D01*
X71801845Y-66022186D01*
X72012500Y-66040616D01*
X72223155Y-66022186D01*
X72228468Y-66020762D01*
X72228470Y-66020762D01*
X72422100Y-65968879D01*
X72422102Y-65968878D01*
X72427410Y-65967456D01*
X72573389Y-65899385D01*
X72614077Y-65880412D01*
X72614080Y-65880410D01*
X72619058Y-65878089D01*
X72792276Y-65756801D01*
X72941801Y-65607276D01*
X73063089Y-65434058D01*
X73152456Y-65242410D01*
X73161767Y-65207663D01*
X73205762Y-65043470D01*
X73205762Y-65043468D01*
X73207186Y-65038155D01*
X73225616Y-64827500D01*
X73207186Y-64616845D01*
X73152456Y-64412590D01*
X73063089Y-64220942D01*
X72941801Y-64047724D01*
X72792276Y-63898199D01*
X72619058Y-63776911D01*
X72614080Y-63774590D01*
X72614077Y-63774588D01*
X72432392Y-63689867D01*
X72432391Y-63689866D01*
X72427410Y-63687544D01*
X72422102Y-63686122D01*
X72422100Y-63686121D01*
X72228470Y-63634238D01*
X72228468Y-63634238D01*
X72223155Y-63632814D01*
X72012500Y-63614384D01*
X71801845Y-63632814D01*
X71796532Y-63634238D01*
X71796530Y-63634238D01*
X71602900Y-63686121D01*
X71602898Y-63686122D01*
X71597590Y-63687544D01*
X71592609Y-63689866D01*
X71592608Y-63689867D01*
X71410923Y-63774588D01*
X71410920Y-63774590D01*
X71405942Y-63776911D01*
X71232724Y-63898199D01*
X71083199Y-64047724D01*
X70961911Y-64220942D01*
X70872544Y-64412590D01*
X70817814Y-64616845D01*
X70799384Y-64827500D01*
X65605616Y-64827500D01*
X65587186Y-64616845D01*
X65532456Y-64412590D01*
X65443089Y-64220942D01*
X65321801Y-64047724D01*
X65172276Y-63898199D01*
X64999058Y-63776911D01*
X64994080Y-63774590D01*
X64994077Y-63774588D01*
X64812392Y-63689867D01*
X64812391Y-63689866D01*
X64807410Y-63687544D01*
X64802102Y-63686122D01*
X64802100Y-63686121D01*
X64608470Y-63634238D01*
X64608468Y-63634238D01*
X64603155Y-63632814D01*
X64392500Y-63614384D01*
X64181845Y-63632814D01*
X64176532Y-63634238D01*
X64176530Y-63634238D01*
X63982900Y-63686121D01*
X63982898Y-63686122D01*
X63977590Y-63687544D01*
X63972609Y-63689866D01*
X63972608Y-63689867D01*
X63790923Y-63774588D01*
X63790920Y-63774590D01*
X63785942Y-63776911D01*
X63612724Y-63898199D01*
X63463199Y-64047724D01*
X63341911Y-64220942D01*
X63252544Y-64412590D01*
X63197814Y-64616845D01*
X63179384Y-64827500D01*
X56134500Y-64827500D01*
X56134500Y-61934500D01*
X56154502Y-61866379D01*
X56208158Y-61819886D01*
X56260500Y-61808500D01*
X75784479Y-61808500D01*
X75852600Y-61828502D01*
G37*
%TD.AperFunction*%
%TD*%
M02*
