M48
; DRILL file {KiCad (6.0.7)} date Tue Feb 28 16:34:30 2023
; FORMAT={-:-/ absolute / inch / decimal}
; #@! TF.CreationDate,2023-02-28T16:34:30-05:00
; #@! TF.GenerationSoftware,Kicad,Pcbnew,(6.0.7)
; #@! TF.FileFunction,Plated,1,4,PTH
FMAT,2
INCH
; #@! TA.AperFunction,Plated,PTH,ViaDrill
T1C0.0118
; #@! TA.AperFunction,Plated,PTH,ViaDrill
T2C0.0157
; #@! TA.AperFunction,Plated,PTH,ViaDrill
T3C0.0170
; #@! TA.AperFunction,Plated,PTH,ComponentDrill
T4C0.0276
; #@! TA.AperFunction,Plated,PTH,ComponentDrill
T5C0.0315
; #@! TA.AperFunction,Plated,PTH,ComponentDrill
T6C0.0394
%
G90
G05
T1
X3.0118Y-3.0984
X3.4685Y-3.185
X3.5709Y-3.1732
X3.7283Y-3.5917
X4.185Y-3.2087
T2
X4.35Y-3.25
T3
X2.437Y-3.7677
X2.4961Y-3.5157
X2.5748Y-2.874
X2.9291Y-2.6535
X3.1749Y-3.2621
X3.1772Y-3.5551
X3.2559Y-3.5906
X3.2756Y-3.4055
X3.2756Y-3.6772
X3.3346Y-3.3948
X3.4134Y-3.1496
X3.5394Y-3.5
X3.6654Y-2.8268
X3.6654Y-3.0354
X3.7205Y-3.1732
X3.8071Y-2.8465
X3.8661Y-3.3543
X3.9961Y-2.8465
X4.1614Y-3.0118
X4.2795Y-3.3701
X4.3228Y-2.5354
X4.3858Y-2.8504
X4.5472Y-2.5197
X4.5787Y-3.3268
X4.7323Y-3.1063
T4
X2.5351Y-2.5523
X2.5351Y-2.7523
X2.5351Y-2.9523
X2.5351Y-3.2523
X2.8351Y-2.5523
X2.8351Y-2.7523
X2.8351Y-2.9523
X2.8351Y-3.2523
T5
X2.5354Y-3.3701
X2.8354Y-3.3701
T6
X2.34Y-2.9516
X2.6659Y-3.7239
X2.9764Y-2.9528
X3.0538Y-3.5526
X3.1289Y-2.5276
X3.2289Y-2.5276
X3.3289Y-2.5276
X3.3575Y-2.9543
X3.4289Y-2.5276
X3.5289Y-2.5276
X3.6289Y-2.5276
X3.7289Y-2.5276
X3.7508Y-2.9547
X3.8289Y-2.5276
X3.9289Y-2.5276
X4.0289Y-2.5276
X4.0748Y-3.5
X4.2165Y-2.6457
X4.45Y-2.97
X4.4528Y-2.6024
X4.6654Y-3.5039
X4.76Y-2.9693
T0
M30
