%TF.GenerationSoftware,KiCad,Pcbnew,(6.0.7)*%
%TF.CreationDate,2023-02-28T16:34:33-05:00*%
%TF.ProjectId,Front_EndDesign3,46726f6e-745f-4456-9e64-44657369676e,rev?*%
%TF.SameCoordinates,Original*%
%TF.FileFunction,Drillmap*%
%TF.FilePolarity,Positive*%
%FSLAX45Y45*%
G04 Gerber Fmt 4.5, Leading zero omitted, Abs format (unit mm)*
G04 Created by KiCad (PCBNEW (6.0.7)) date 2023-02-28 16:34:33*
%MOMM*%
%LPD*%
G01*
G04 APERTURE LIST*
%ADD10C,0.100000*%
%ADD11C,0.200000*%
G04 APERTURE END LIST*
D10*
X5562600Y-6130000D02*
X12446000Y-6130000D01*
X12446000Y-6130000D02*
X12446000Y-9785200D01*
X12446000Y-9785200D02*
X5562600Y-9785200D01*
X5562600Y-9785200D02*
X5562600Y-6130000D01*
D11*
X5815219Y-10100676D02*
X5815219Y-9900676D01*
X5862838Y-9900676D01*
X5891409Y-9910200D01*
X5910457Y-9929248D01*
X5919981Y-9948295D01*
X5929505Y-9986390D01*
X5929505Y-10014962D01*
X5919981Y-10053057D01*
X5910457Y-10072105D01*
X5891409Y-10091152D01*
X5862838Y-10100676D01*
X5815219Y-10100676D01*
X6015219Y-10100676D02*
X6015219Y-9967343D01*
X6015219Y-10005438D02*
X6024743Y-9986390D01*
X6034267Y-9976867D01*
X6053314Y-9967343D01*
X6072362Y-9967343D01*
X6139028Y-10100676D02*
X6139028Y-9967343D01*
X6139028Y-9900676D02*
X6129505Y-9910200D01*
X6139028Y-9919724D01*
X6148552Y-9910200D01*
X6139028Y-9900676D01*
X6139028Y-9919724D01*
X6262838Y-10100676D02*
X6243790Y-10091152D01*
X6234267Y-10072105D01*
X6234267Y-9900676D01*
X6367600Y-10100676D02*
X6348552Y-10091152D01*
X6339028Y-10072105D01*
X6339028Y-9900676D01*
X6596171Y-10100676D02*
X6596171Y-9900676D01*
X6662838Y-10043533D01*
X6729505Y-9900676D01*
X6729505Y-10100676D01*
X6910457Y-10100676D02*
X6910457Y-9995914D01*
X6900933Y-9976867D01*
X6881886Y-9967343D01*
X6843790Y-9967343D01*
X6824743Y-9976867D01*
X6910457Y-10091152D02*
X6891409Y-10100676D01*
X6843790Y-10100676D01*
X6824743Y-10091152D01*
X6815219Y-10072105D01*
X6815219Y-10053057D01*
X6824743Y-10034010D01*
X6843790Y-10024486D01*
X6891409Y-10024486D01*
X6910457Y-10014962D01*
X7005695Y-9967343D02*
X7005695Y-10167343D01*
X7005695Y-9976867D02*
X7024743Y-9967343D01*
X7062838Y-9967343D01*
X7081886Y-9976867D01*
X7091409Y-9986390D01*
X7100933Y-10005438D01*
X7100933Y-10062581D01*
X7091409Y-10081629D01*
X7081886Y-10091152D01*
X7062838Y-10100676D01*
X7024743Y-10100676D01*
X7005695Y-10091152D01*
X7186648Y-10081629D02*
X7196171Y-10091152D01*
X7186648Y-10100676D01*
X7177124Y-10091152D01*
X7186648Y-10081629D01*
X7186648Y-10100676D01*
X7186648Y-9976867D02*
X7196171Y-9986390D01*
X7186648Y-9995914D01*
X7177124Y-9986390D01*
X7186648Y-9976867D01*
X7186648Y-9995914D01*
M02*
