%TF.GenerationSoftware,KiCad,Pcbnew,(6.0.7)*%
%TF.CreationDate,2023-02-28T16:34:09-05:00*%
%TF.ProjectId,Front_EndDesign3,46726f6e-745f-4456-9e64-44657369676e,rev?*%
%TF.SameCoordinates,Original*%
%TF.FileFunction,Copper,L2,Inr*%
%TF.FilePolarity,Positive*%
%FSLAX46Y46*%
G04 Gerber Fmt 4.6, Leading zero omitted, Abs format (unit mm)*
G04 Created by KiCad (PCBNEW (6.0.7)) date 2023-02-28 16:34:09*
%MOMM*%
%LPD*%
G01*
G04 APERTURE LIST*
%TA.AperFunction,ComponentPad*%
%ADD10R,1.700000X1.700000*%
%TD*%
%TA.AperFunction,ComponentPad*%
%ADD11R,1.400000X1.400000*%
%TD*%
%TA.AperFunction,ComponentPad*%
%ADD12C,1.400000*%
%TD*%
%TA.AperFunction,ComponentPad*%
%ADD13R,1.600000X1.600000*%
%TD*%
%TA.AperFunction,ComponentPad*%
%ADD14O,1.600000X1.600000*%
%TD*%
%TA.AperFunction,ComponentPad*%
%ADD15O,1.700000X1.700000*%
%TD*%
%TA.AperFunction,ViaPad*%
%ADD16C,0.838000*%
%TD*%
%TA.AperFunction,ViaPad*%
%ADD17C,0.600000*%
%TD*%
%TA.AperFunction,ViaPad*%
%ADD18C,0.800000*%
%TD*%
G04 APERTURE END LIST*
D10*
%TO.N,Net-(J7-Pad1)*%
%TO.C,J7*%
X95270000Y-75050000D03*
%TD*%
%TO.N,Net-(C5-Pad1)*%
%TO.C,J4*%
X67715000Y-94586000D03*
%TD*%
%TO.N,+5V*%
%TO.C,J8*%
X103500000Y-88900000D03*
%TD*%
D11*
%TO.N,GND*%
%TO.C,K1*%
X72012500Y-82607500D03*
D12*
%TO.N,Net-(C7-Pad1)*%
X72012500Y-74987500D03*
%TO.N,Net-(C1-Pad2)*%
X72012500Y-69907500D03*
%TO.N,Net-(C3-Pad2)*%
X72012500Y-64827500D03*
%TO.N,Net-(C3-Pad1)*%
X64392500Y-64827500D03*
%TO.N,Net-(C2-Pad2)*%
X64392500Y-69907500D03*
%TO.N,Net-(GD1-Pad1)*%
X64392500Y-74987500D03*
%TO.N,attenuate*%
X64392500Y-82607500D03*
%TD*%
D13*
%TO.N,attenuate*%
%TO.C,D2*%
X64400000Y-85600000D03*
D14*
%TO.N,GND*%
X72020000Y-85600000D03*
%TD*%
D10*
%TO.N,Net-(J12-Pad1)*%
%TO.C,J12*%
X113030000Y-75438000D03*
%TD*%
%TO.N,Net-(C7-Pad1)*%
%TO.C,J3*%
X75600000Y-75000000D03*
%TD*%
%TO.N,Net-(C7-Pad2)*%
%TO.C,J5*%
X85280000Y-75040000D03*
%TD*%
%TO.N,Net-(GD1-Pad1)*%
%TO.C,J1*%
X59436000Y-74970000D03*
%TD*%
%TO.N,attenuate*%
%TO.C,J11*%
X79475000Y-64200000D03*
D15*
%TO.N,acdc*%
X82015000Y-64200000D03*
%TO.N,amp1-10*%
X84555000Y-64200000D03*
%TO.N,amp1-5*%
X87095000Y-64200000D03*
%TO.N,amp1-2.5*%
X89635000Y-64200000D03*
%TO.N,amp1-1*%
X92175000Y-64200000D03*
%TO.N,pwm*%
X94715000Y-64200000D03*
%TO.N,GND*%
X97255000Y-64200000D03*
X99795000Y-64200000D03*
X102335000Y-64200000D03*
%TD*%
D10*
%TO.N,-5V*%
%TO.C,J10*%
X118500000Y-89000000D03*
%TD*%
%TO.N,+3.3V*%
%TO.C,J14*%
X113100000Y-66100000D03*
%TD*%
%TO.N,Net-(C13-Pad1)*%
%TO.C,J9*%
X107100000Y-67200000D03*
%TD*%
%TO.N,+5V*%
%TO.C,J6*%
X77567000Y-90236000D03*
%TD*%
%TO.N,Net-(C21-Pad1)*%
%TO.C,J13*%
X120904000Y-75420000D03*
%TD*%
D16*
%TO.N,GND*%
X80642700Y-82857300D03*
X98200000Y-85200000D03*
X61900000Y-95700000D03*
X74400000Y-67400000D03*
X83200000Y-93400000D03*
X93100000Y-71800000D03*
X83200000Y-86500000D03*
X94500000Y-80600000D03*
X65400000Y-73000000D03*
X93100000Y-77100000D03*
X108700000Y-85600000D03*
X120200000Y-78900000D03*
X63400000Y-89300000D03*
D17*
X106300000Y-81500000D03*
D16*
X109800000Y-64400000D03*
%TO.N,-5V*%
X116300000Y-84500000D03*
X101500000Y-72300000D03*
X89900000Y-88900000D03*
X111400000Y-72400000D03*
X96700000Y-72300000D03*
%TO.N,+5V*%
X105700000Y-76500000D03*
D18*
X110490000Y-82550000D03*
D16*
X86700000Y-80000000D03*
X80700000Y-90300000D03*
X84700000Y-86229000D03*
%TO.N,+3.3V*%
X115500000Y-64000000D03*
D17*
%TO.N,acdc*%
X76500000Y-78700000D03*
%TO.N,amp1-1*%
X94700000Y-91229000D03*
%TO.N,amp1-2.5*%
X90700000Y-80600000D03*
%TO.N,amp1-5*%
X88100000Y-80900000D03*
D16*
%TO.N,amp1-10*%
X82700000Y-91200000D03*
%TD*%
%TA.AperFunction,Conductor*%
%TO.N,GND*%
G36*
X123893621Y-61828502D02*
G01*
X123940114Y-61882158D01*
X123951500Y-61934500D01*
X123951500Y-97217500D01*
X123931498Y-97285621D01*
X123877842Y-97332114D01*
X123825500Y-97343500D01*
X56260500Y-97343500D01*
X56192379Y-97323498D01*
X56145886Y-97269842D01*
X56134500Y-97217500D01*
X56134500Y-95484134D01*
X66356500Y-95484134D01*
X66363255Y-95546316D01*
X66414385Y-95682705D01*
X66501739Y-95799261D01*
X66618295Y-95886615D01*
X66754684Y-95937745D01*
X66816866Y-95944500D01*
X68613134Y-95944500D01*
X68675316Y-95937745D01*
X68811705Y-95886615D01*
X68928261Y-95799261D01*
X69015615Y-95682705D01*
X69066745Y-95546316D01*
X69073500Y-95484134D01*
X69073500Y-93687866D01*
X69066745Y-93625684D01*
X69015615Y-93489295D01*
X68928261Y-93372739D01*
X68811705Y-93285385D01*
X68675316Y-93234255D01*
X68613134Y-93227500D01*
X66816866Y-93227500D01*
X66754684Y-93234255D01*
X66618295Y-93285385D01*
X66501739Y-93372739D01*
X66414385Y-93489295D01*
X66363255Y-93625684D01*
X66356500Y-93687866D01*
X66356500Y-95484134D01*
X56134500Y-95484134D01*
X56134500Y-91134134D01*
X76208500Y-91134134D01*
X76215255Y-91196316D01*
X76266385Y-91332705D01*
X76353739Y-91449261D01*
X76470295Y-91536615D01*
X76606684Y-91587745D01*
X76668866Y-91594500D01*
X78465134Y-91594500D01*
X78527316Y-91587745D01*
X78663705Y-91536615D01*
X78780261Y-91449261D01*
X78867615Y-91332705D01*
X78918745Y-91196316D01*
X78925500Y-91134134D01*
X78925500Y-90300000D01*
X79767391Y-90300000D01*
X79787771Y-90493900D01*
X79789811Y-90500178D01*
X79789811Y-90500179D01*
X79793600Y-90511839D01*
X79848019Y-90679326D01*
X79945503Y-90848174D01*
X79949921Y-90853081D01*
X79949922Y-90853082D01*
X79971862Y-90877448D01*
X80075963Y-90993064D01*
X80081302Y-90996943D01*
X80162235Y-91055744D01*
X80233695Y-91107663D01*
X80239723Y-91110347D01*
X80239725Y-91110348D01*
X80405777Y-91184279D01*
X80411808Y-91186964D01*
X80490616Y-91203715D01*
X80596059Y-91226128D01*
X80596063Y-91226128D01*
X80602516Y-91227500D01*
X80797484Y-91227500D01*
X80803937Y-91226128D01*
X80803941Y-91226128D01*
X80909384Y-91203715D01*
X80926862Y-91200000D01*
X81767391Y-91200000D01*
X81768081Y-91206565D01*
X81772411Y-91247757D01*
X81787771Y-91393900D01*
X81848019Y-91579326D01*
X81851322Y-91585048D01*
X81851323Y-91585049D01*
X81856672Y-91594314D01*
X81945503Y-91748174D01*
X81949921Y-91753081D01*
X81949922Y-91753082D01*
X82064810Y-91880677D01*
X82075963Y-91893064D01*
X82233695Y-92007663D01*
X82239723Y-92010347D01*
X82239725Y-92010348D01*
X82405777Y-92084279D01*
X82411808Y-92086964D01*
X82507162Y-92107232D01*
X82596059Y-92126128D01*
X82596063Y-92126128D01*
X82602516Y-92127500D01*
X82797484Y-92127500D01*
X82803937Y-92126128D01*
X82803941Y-92126128D01*
X82892838Y-92107232D01*
X82988192Y-92086964D01*
X82994223Y-92084279D01*
X83160275Y-92010348D01*
X83160277Y-92010347D01*
X83166305Y-92007663D01*
X83324037Y-91893064D01*
X83335191Y-91880677D01*
X83450078Y-91753082D01*
X83450079Y-91753081D01*
X83454497Y-91748174D01*
X83543328Y-91594314D01*
X83548677Y-91585049D01*
X83548678Y-91585048D01*
X83551981Y-91579326D01*
X83612229Y-91393900D01*
X83627590Y-91247757D01*
X83630755Y-91217640D01*
X93886463Y-91217640D01*
X93904163Y-91398160D01*
X93961418Y-91570273D01*
X93965065Y-91576295D01*
X93965066Y-91576297D01*
X93975978Y-91594314D01*
X94055380Y-91725424D01*
X94060269Y-91730487D01*
X94060270Y-91730488D01*
X94081027Y-91751982D01*
X94181382Y-91855902D01*
X94333159Y-91955222D01*
X94339763Y-91957678D01*
X94339765Y-91957679D01*
X94496558Y-92015990D01*
X94496560Y-92015990D01*
X94503168Y-92018448D01*
X94586995Y-92029633D01*
X94675980Y-92041507D01*
X94675984Y-92041507D01*
X94682961Y-92042438D01*
X94689972Y-92041800D01*
X94689976Y-92041800D01*
X94832459Y-92028832D01*
X94863600Y-92025998D01*
X94870302Y-92023820D01*
X94870304Y-92023820D01*
X95029409Y-91972124D01*
X95029412Y-91972123D01*
X95036108Y-91969947D01*
X95191912Y-91877069D01*
X95323266Y-91751982D01*
X95423643Y-91600902D01*
X95488055Y-91431338D01*
X95489035Y-91424366D01*
X95512748Y-91255639D01*
X95512748Y-91255636D01*
X95513299Y-91251717D01*
X95513616Y-91229000D01*
X95493397Y-91048745D01*
X95491080Y-91042091D01*
X95436064Y-90884106D01*
X95436062Y-90884103D01*
X95433745Y-90877448D01*
X95337626Y-90723624D01*
X95323941Y-90709843D01*
X95214778Y-90599915D01*
X95214774Y-90599912D01*
X95209815Y-90594918D01*
X95198697Y-90587862D01*
X95150538Y-90557300D01*
X95056666Y-90497727D01*
X95027463Y-90487328D01*
X94892425Y-90439243D01*
X94892420Y-90439242D01*
X94885790Y-90436881D01*
X94878802Y-90436048D01*
X94878799Y-90436047D01*
X94755698Y-90421368D01*
X94705680Y-90415404D01*
X94698677Y-90416140D01*
X94698676Y-90416140D01*
X94532288Y-90433628D01*
X94532286Y-90433629D01*
X94525288Y-90434364D01*
X94353579Y-90492818D01*
X94347575Y-90496512D01*
X94205095Y-90584166D01*
X94205092Y-90584168D01*
X94199088Y-90587862D01*
X94194053Y-90592793D01*
X94194050Y-90592795D01*
X94138782Y-90646918D01*
X94069493Y-90714771D01*
X93971235Y-90867238D01*
X93968826Y-90873858D01*
X93968824Y-90873861D01*
X93927222Y-90988161D01*
X93909197Y-91037685D01*
X93886463Y-91217640D01*
X83630755Y-91217640D01*
X83631919Y-91206565D01*
X83632609Y-91200000D01*
X83616711Y-91048745D01*
X83612919Y-91012664D01*
X83612919Y-91012663D01*
X83612229Y-91006100D01*
X83607994Y-90993064D01*
X83554023Y-90826959D01*
X83551981Y-90820674D01*
X83499399Y-90729598D01*
X83457800Y-90657547D01*
X83454497Y-90651826D01*
X83399858Y-90591143D01*
X83328452Y-90511839D01*
X83328450Y-90511838D01*
X83324037Y-90506936D01*
X83166305Y-90392337D01*
X83160277Y-90389653D01*
X83160275Y-90389652D01*
X82994223Y-90315721D01*
X82994222Y-90315721D01*
X82988192Y-90313036D01*
X82892838Y-90292768D01*
X82803941Y-90273872D01*
X82803937Y-90273872D01*
X82797484Y-90272500D01*
X82602516Y-90272500D01*
X82596063Y-90273872D01*
X82596059Y-90273872D01*
X82507162Y-90292768D01*
X82411808Y-90313036D01*
X82405779Y-90315720D01*
X82405777Y-90315721D01*
X82239726Y-90389652D01*
X82239724Y-90389653D01*
X82233696Y-90392337D01*
X82075963Y-90506936D01*
X82071550Y-90511838D01*
X82071548Y-90511839D01*
X82000142Y-90591143D01*
X81945503Y-90651826D01*
X81942200Y-90657547D01*
X81900602Y-90729598D01*
X81848019Y-90820674D01*
X81845977Y-90826959D01*
X81792007Y-90993064D01*
X81787771Y-91006100D01*
X81787081Y-91012663D01*
X81787081Y-91012664D01*
X81783289Y-91048745D01*
X81767391Y-91200000D01*
X80926862Y-91200000D01*
X80988192Y-91186964D01*
X80994223Y-91184279D01*
X81160275Y-91110348D01*
X81160277Y-91110347D01*
X81166305Y-91107663D01*
X81237766Y-91055744D01*
X81318698Y-90996943D01*
X81324037Y-90993064D01*
X81428139Y-90877448D01*
X81450078Y-90853082D01*
X81450079Y-90853081D01*
X81454497Y-90848174D01*
X81551981Y-90679326D01*
X81606400Y-90511839D01*
X81610189Y-90500179D01*
X81610189Y-90500178D01*
X81612229Y-90493900D01*
X81632609Y-90300000D01*
X81612229Y-90106100D01*
X81609177Y-90096705D01*
X81554023Y-89926959D01*
X81551981Y-89920674D01*
X81517134Y-89860316D01*
X81457800Y-89757547D01*
X81454497Y-89751826D01*
X81417150Y-89710348D01*
X81328452Y-89611839D01*
X81328450Y-89611838D01*
X81324037Y-89606936D01*
X81166305Y-89492337D01*
X81160277Y-89489653D01*
X81160275Y-89489652D01*
X80994223Y-89415721D01*
X80994222Y-89415721D01*
X80988192Y-89413036D01*
X80892838Y-89392768D01*
X80803941Y-89373872D01*
X80803937Y-89373872D01*
X80797484Y-89372500D01*
X80602516Y-89372500D01*
X80596063Y-89373872D01*
X80596059Y-89373872D01*
X80507162Y-89392768D01*
X80411808Y-89413036D01*
X80405779Y-89415720D01*
X80405777Y-89415721D01*
X80239726Y-89489652D01*
X80239724Y-89489653D01*
X80233696Y-89492337D01*
X80075963Y-89606936D01*
X80071550Y-89611838D01*
X80071548Y-89611839D01*
X79982850Y-89710348D01*
X79945503Y-89751826D01*
X79942200Y-89757547D01*
X79882867Y-89860316D01*
X79848019Y-89920674D01*
X79845977Y-89926959D01*
X79790824Y-90096705D01*
X79787771Y-90106100D01*
X79767391Y-90300000D01*
X78925500Y-90300000D01*
X78925500Y-89337866D01*
X78918745Y-89275684D01*
X78867615Y-89139295D01*
X78780261Y-89022739D01*
X78663705Y-88935385D01*
X78569316Y-88900000D01*
X88967391Y-88900000D01*
X88987771Y-89093900D01*
X88989811Y-89100178D01*
X88989811Y-89100179D01*
X89005252Y-89147703D01*
X89048019Y-89279326D01*
X89145503Y-89448174D01*
X89149921Y-89453081D01*
X89149922Y-89453082D01*
X89185268Y-89492337D01*
X89275963Y-89593064D01*
X89433695Y-89707663D01*
X89439723Y-89710347D01*
X89439725Y-89710348D01*
X89545736Y-89757547D01*
X89611808Y-89786964D01*
X89680341Y-89801531D01*
X89796059Y-89826128D01*
X89796063Y-89826128D01*
X89802516Y-89827500D01*
X89997484Y-89827500D01*
X90003937Y-89826128D01*
X90003941Y-89826128D01*
X90119659Y-89801531D01*
X90135641Y-89798134D01*
X102141500Y-89798134D01*
X102148255Y-89860316D01*
X102199385Y-89996705D01*
X102286739Y-90113261D01*
X102403295Y-90200615D01*
X102539684Y-90251745D01*
X102601866Y-90258500D01*
X104398134Y-90258500D01*
X104460316Y-90251745D01*
X104596705Y-90200615D01*
X104713261Y-90113261D01*
X104800615Y-89996705D01*
X104837568Y-89898134D01*
X117141500Y-89898134D01*
X117148255Y-89960316D01*
X117199385Y-90096705D01*
X117286739Y-90213261D01*
X117403295Y-90300615D01*
X117539684Y-90351745D01*
X117601866Y-90358500D01*
X119398134Y-90358500D01*
X119460316Y-90351745D01*
X119596705Y-90300615D01*
X119713261Y-90213261D01*
X119800615Y-90096705D01*
X119851745Y-89960316D01*
X119858500Y-89898134D01*
X119858500Y-88101866D01*
X119851745Y-88039684D01*
X119800615Y-87903295D01*
X119713261Y-87786739D01*
X119596705Y-87699385D01*
X119460316Y-87648255D01*
X119398134Y-87641500D01*
X117601866Y-87641500D01*
X117539684Y-87648255D01*
X117403295Y-87699385D01*
X117286739Y-87786739D01*
X117199385Y-87903295D01*
X117148255Y-88039684D01*
X117141500Y-88101866D01*
X117141500Y-89898134D01*
X104837568Y-89898134D01*
X104851745Y-89860316D01*
X104858500Y-89798134D01*
X104858500Y-88001866D01*
X104851745Y-87939684D01*
X104800615Y-87803295D01*
X104713261Y-87686739D01*
X104596705Y-87599385D01*
X104460316Y-87548255D01*
X104398134Y-87541500D01*
X102601866Y-87541500D01*
X102539684Y-87548255D01*
X102403295Y-87599385D01*
X102286739Y-87686739D01*
X102199385Y-87803295D01*
X102148255Y-87939684D01*
X102141500Y-88001866D01*
X102141500Y-89798134D01*
X90135641Y-89798134D01*
X90188192Y-89786964D01*
X90254264Y-89757547D01*
X90360275Y-89710348D01*
X90360277Y-89710347D01*
X90366305Y-89707663D01*
X90524037Y-89593064D01*
X90614733Y-89492337D01*
X90650078Y-89453082D01*
X90650079Y-89453081D01*
X90654497Y-89448174D01*
X90751981Y-89279326D01*
X90794748Y-89147703D01*
X90810189Y-89100179D01*
X90810189Y-89100178D01*
X90812229Y-89093900D01*
X90832609Y-88900000D01*
X90812229Y-88706100D01*
X90751981Y-88520674D01*
X90654497Y-88351826D01*
X90524037Y-88206936D01*
X90366305Y-88092337D01*
X90360277Y-88089653D01*
X90360275Y-88089652D01*
X90194223Y-88015721D01*
X90194222Y-88015721D01*
X90188192Y-88013036D01*
X90092838Y-87992768D01*
X90003941Y-87973872D01*
X90003937Y-87973872D01*
X89997484Y-87972500D01*
X89802516Y-87972500D01*
X89796063Y-87973872D01*
X89796059Y-87973872D01*
X89707162Y-87992768D01*
X89611808Y-88013036D01*
X89605779Y-88015720D01*
X89605777Y-88015721D01*
X89439726Y-88089652D01*
X89439724Y-88089653D01*
X89433696Y-88092337D01*
X89275963Y-88206936D01*
X89145503Y-88351826D01*
X89048019Y-88520674D01*
X88987771Y-88706100D01*
X88967391Y-88900000D01*
X78569316Y-88900000D01*
X78527316Y-88884255D01*
X78465134Y-88877500D01*
X76668866Y-88877500D01*
X76606684Y-88884255D01*
X76470295Y-88935385D01*
X76353739Y-89022739D01*
X76266385Y-89139295D01*
X76215255Y-89275684D01*
X76208500Y-89337866D01*
X76208500Y-91134134D01*
X56134500Y-91134134D01*
X56134500Y-86448134D01*
X63091500Y-86448134D01*
X63098255Y-86510316D01*
X63149385Y-86646705D01*
X63236739Y-86763261D01*
X63353295Y-86850615D01*
X63489684Y-86901745D01*
X63551866Y-86908500D01*
X65248134Y-86908500D01*
X65310316Y-86901745D01*
X65446705Y-86850615D01*
X65563261Y-86763261D01*
X65650615Y-86646705D01*
X65701745Y-86510316D01*
X65708500Y-86448134D01*
X65708500Y-85866522D01*
X70737273Y-85866522D01*
X70784764Y-86043761D01*
X70788510Y-86054053D01*
X70880586Y-86251511D01*
X70886069Y-86261007D01*
X71011028Y-86439467D01*
X71018084Y-86447875D01*
X71172125Y-86601916D01*
X71180533Y-86608972D01*
X71358993Y-86733931D01*
X71368489Y-86739414D01*
X71565947Y-86831490D01*
X71576239Y-86835236D01*
X71748503Y-86881394D01*
X71762599Y-86881058D01*
X71766000Y-86873116D01*
X71766000Y-86867967D01*
X72274000Y-86867967D01*
X72277973Y-86881498D01*
X72286522Y-86882727D01*
X72463761Y-86835236D01*
X72474053Y-86831490D01*
X72671511Y-86739414D01*
X72681007Y-86733931D01*
X72859467Y-86608972D01*
X72867875Y-86601916D01*
X73021916Y-86447875D01*
X73028972Y-86439467D01*
X73153931Y-86261007D01*
X73159414Y-86251511D01*
X73169911Y-86229000D01*
X83767391Y-86229000D01*
X83787771Y-86422900D01*
X83848019Y-86608326D01*
X83945503Y-86777174D01*
X83949921Y-86782081D01*
X83949922Y-86782082D01*
X84063418Y-86908131D01*
X84075963Y-86922064D01*
X84233695Y-87036663D01*
X84239723Y-87039347D01*
X84239725Y-87039348D01*
X84405777Y-87113279D01*
X84411808Y-87115964D01*
X84507162Y-87136232D01*
X84596059Y-87155128D01*
X84596063Y-87155128D01*
X84602516Y-87156500D01*
X84797484Y-87156500D01*
X84803937Y-87155128D01*
X84803941Y-87155128D01*
X84892838Y-87136232D01*
X84988192Y-87115964D01*
X84994223Y-87113279D01*
X85160275Y-87039348D01*
X85160277Y-87039347D01*
X85166305Y-87036663D01*
X85324037Y-86922064D01*
X85336583Y-86908131D01*
X85450078Y-86782082D01*
X85450079Y-86782081D01*
X85454497Y-86777174D01*
X85551981Y-86608326D01*
X85612229Y-86422900D01*
X85632609Y-86229000D01*
X85612229Y-86035100D01*
X85551981Y-85849674D01*
X85454497Y-85680826D01*
X85324037Y-85535936D01*
X85174788Y-85427500D01*
X85171647Y-85425218D01*
X85171646Y-85425217D01*
X85166305Y-85421337D01*
X85160277Y-85418653D01*
X85160275Y-85418652D01*
X84994223Y-85344721D01*
X84994222Y-85344721D01*
X84988192Y-85342036D01*
X84892838Y-85321768D01*
X84803941Y-85302872D01*
X84803937Y-85302872D01*
X84797484Y-85301500D01*
X84602516Y-85301500D01*
X84596063Y-85302872D01*
X84596059Y-85302872D01*
X84507162Y-85321768D01*
X84411808Y-85342036D01*
X84405779Y-85344720D01*
X84405777Y-85344721D01*
X84239726Y-85418652D01*
X84239724Y-85418653D01*
X84233696Y-85421337D01*
X84228355Y-85425217D01*
X84228354Y-85425218D01*
X84225213Y-85427500D01*
X84075963Y-85535936D01*
X83945503Y-85680826D01*
X83848019Y-85849674D01*
X83787771Y-86035100D01*
X83767391Y-86229000D01*
X73169911Y-86229000D01*
X73251490Y-86054053D01*
X73255236Y-86043761D01*
X73301394Y-85871497D01*
X73301058Y-85857401D01*
X73293116Y-85854000D01*
X72292115Y-85854000D01*
X72276876Y-85858475D01*
X72275671Y-85859865D01*
X72274000Y-85867548D01*
X72274000Y-86867967D01*
X71766000Y-86867967D01*
X71766000Y-85872115D01*
X71761525Y-85856876D01*
X71760135Y-85855671D01*
X71752452Y-85854000D01*
X70752033Y-85854000D01*
X70738502Y-85857973D01*
X70737273Y-85866522D01*
X65708500Y-85866522D01*
X65708500Y-85328503D01*
X70738606Y-85328503D01*
X70738942Y-85342599D01*
X70746884Y-85346000D01*
X71747885Y-85346000D01*
X71763124Y-85341525D01*
X71764329Y-85340135D01*
X71766000Y-85332452D01*
X71766000Y-85327885D01*
X72274000Y-85327885D01*
X72278475Y-85343124D01*
X72279865Y-85344329D01*
X72287548Y-85346000D01*
X73287967Y-85346000D01*
X73301498Y-85342027D01*
X73302727Y-85333478D01*
X73255236Y-85156239D01*
X73251490Y-85145947D01*
X73159414Y-84948489D01*
X73153931Y-84938993D01*
X73028972Y-84760533D01*
X73021916Y-84752125D01*
X72867875Y-84598084D01*
X72859467Y-84591028D01*
X72729466Y-84500000D01*
X115367391Y-84500000D01*
X115387771Y-84693900D01*
X115448019Y-84879326D01*
X115545503Y-85048174D01*
X115549921Y-85053081D01*
X115549922Y-85053082D01*
X115642806Y-85156239D01*
X115675963Y-85193064D01*
X115681302Y-85196943D01*
X115827101Y-85302872D01*
X115833695Y-85307663D01*
X115839723Y-85310347D01*
X115839725Y-85310348D01*
X115919801Y-85346000D01*
X116011808Y-85386964D01*
X116107162Y-85407232D01*
X116196059Y-85426128D01*
X116196063Y-85426128D01*
X116202516Y-85427500D01*
X116397484Y-85427500D01*
X116403937Y-85426128D01*
X116403941Y-85426128D01*
X116492838Y-85407232D01*
X116588192Y-85386964D01*
X116680199Y-85346000D01*
X116760275Y-85310348D01*
X116760277Y-85310347D01*
X116766305Y-85307663D01*
X116772900Y-85302872D01*
X116918698Y-85196943D01*
X116924037Y-85193064D01*
X116957195Y-85156239D01*
X117050078Y-85053082D01*
X117050079Y-85053081D01*
X117054497Y-85048174D01*
X117151981Y-84879326D01*
X117212229Y-84693900D01*
X117232609Y-84500000D01*
X117213579Y-84318942D01*
X117212919Y-84312664D01*
X117212919Y-84312663D01*
X117212229Y-84306100D01*
X117151981Y-84120674D01*
X117054497Y-83951826D01*
X116936355Y-83820616D01*
X116928452Y-83811839D01*
X116928450Y-83811838D01*
X116924037Y-83806936D01*
X116848818Y-83752286D01*
X116771647Y-83696218D01*
X116771646Y-83696217D01*
X116766305Y-83692337D01*
X116760277Y-83689653D01*
X116760275Y-83689652D01*
X116594223Y-83615721D01*
X116594222Y-83615721D01*
X116588192Y-83613036D01*
X116492838Y-83592768D01*
X116403941Y-83573872D01*
X116403937Y-83573872D01*
X116397484Y-83572500D01*
X116202516Y-83572500D01*
X116196063Y-83573872D01*
X116196059Y-83573872D01*
X116107162Y-83592768D01*
X116011808Y-83613036D01*
X116005779Y-83615720D01*
X116005777Y-83615721D01*
X115839726Y-83689652D01*
X115839724Y-83689653D01*
X115833696Y-83692337D01*
X115675963Y-83806936D01*
X115671550Y-83811838D01*
X115671548Y-83811839D01*
X115663645Y-83820616D01*
X115545503Y-83951826D01*
X115448019Y-84120674D01*
X115387771Y-84306100D01*
X115387081Y-84312663D01*
X115387081Y-84312664D01*
X115386421Y-84318942D01*
X115367391Y-84500000D01*
X72729466Y-84500000D01*
X72681007Y-84466069D01*
X72671511Y-84460586D01*
X72474053Y-84368510D01*
X72463761Y-84364764D01*
X72291497Y-84318606D01*
X72277401Y-84318942D01*
X72274000Y-84326884D01*
X72274000Y-85327885D01*
X71766000Y-85327885D01*
X71766000Y-84332033D01*
X71762027Y-84318502D01*
X71753478Y-84317273D01*
X71576239Y-84364764D01*
X71565947Y-84368510D01*
X71368489Y-84460586D01*
X71358993Y-84466069D01*
X71180533Y-84591028D01*
X71172125Y-84598084D01*
X71018084Y-84752125D01*
X71011028Y-84760533D01*
X70886069Y-84938993D01*
X70880586Y-84948489D01*
X70788510Y-85145947D01*
X70784764Y-85156239D01*
X70738606Y-85328503D01*
X65708500Y-85328503D01*
X65708500Y-84751866D01*
X65701745Y-84689684D01*
X65650615Y-84553295D01*
X65563261Y-84436739D01*
X65446705Y-84349385D01*
X65310316Y-84298255D01*
X65248134Y-84291500D01*
X63551866Y-84291500D01*
X63489684Y-84298255D01*
X63353295Y-84349385D01*
X63236739Y-84436739D01*
X63149385Y-84553295D01*
X63098255Y-84689684D01*
X63091500Y-84751866D01*
X63091500Y-86448134D01*
X56134500Y-86448134D01*
X56134500Y-82607500D01*
X63179384Y-82607500D01*
X63197814Y-82818155D01*
X63252544Y-83022410D01*
X63341911Y-83214058D01*
X63463199Y-83387276D01*
X63612724Y-83536801D01*
X63785942Y-83658089D01*
X63790920Y-83660410D01*
X63790923Y-83660412D01*
X63972608Y-83745133D01*
X63977590Y-83747456D01*
X63982898Y-83748878D01*
X63982900Y-83748879D01*
X64176530Y-83800762D01*
X64176532Y-83800762D01*
X64181845Y-83802186D01*
X64392500Y-83820616D01*
X64603155Y-83802186D01*
X64608468Y-83800762D01*
X64608470Y-83800762D01*
X64802100Y-83748879D01*
X64802102Y-83748878D01*
X64807410Y-83747456D01*
X64812392Y-83745133D01*
X64994077Y-83660412D01*
X64994080Y-83660410D01*
X64999058Y-83658089D01*
X65172276Y-83536801D01*
X65321801Y-83387276D01*
X65346383Y-83352169D01*
X70804501Y-83352169D01*
X70804871Y-83358990D01*
X70810395Y-83409852D01*
X70814021Y-83425104D01*
X70859176Y-83545554D01*
X70867714Y-83561149D01*
X70944215Y-83663224D01*
X70956776Y-83675785D01*
X71058851Y-83752286D01*
X71074446Y-83760824D01*
X71194894Y-83805978D01*
X71210149Y-83809605D01*
X71261014Y-83815131D01*
X71267828Y-83815500D01*
X71740385Y-83815500D01*
X71755624Y-83811025D01*
X71756829Y-83809635D01*
X71758500Y-83801952D01*
X71758500Y-83797384D01*
X72266500Y-83797384D01*
X72270975Y-83812623D01*
X72272365Y-83813828D01*
X72280048Y-83815499D01*
X72757169Y-83815499D01*
X72763990Y-83815129D01*
X72814852Y-83809605D01*
X72830104Y-83805979D01*
X72950554Y-83760824D01*
X72966149Y-83752286D01*
X73068224Y-83675785D01*
X73080785Y-83663224D01*
X73157286Y-83561149D01*
X73165824Y-83545554D01*
X73210978Y-83425106D01*
X73214605Y-83409851D01*
X73220131Y-83358986D01*
X73220500Y-83352172D01*
X73220500Y-82879615D01*
X73216025Y-82864376D01*
X73214635Y-82863171D01*
X73206952Y-82861500D01*
X72284615Y-82861500D01*
X72269376Y-82865975D01*
X72268171Y-82867365D01*
X72266500Y-82875048D01*
X72266500Y-83797384D01*
X71758500Y-83797384D01*
X71758500Y-82879615D01*
X71754025Y-82864376D01*
X71752635Y-82863171D01*
X71744952Y-82861500D01*
X70822616Y-82861500D01*
X70807377Y-82865975D01*
X70806172Y-82867365D01*
X70804501Y-82875048D01*
X70804501Y-83352169D01*
X65346383Y-83352169D01*
X65443089Y-83214058D01*
X65532456Y-83022410D01*
X65587186Y-82818155D01*
X65605616Y-82607500D01*
X65600585Y-82550000D01*
X109576496Y-82550000D01*
X109596458Y-82739928D01*
X109655473Y-82921556D01*
X109750960Y-83086944D01*
X109878747Y-83228866D01*
X110033248Y-83341118D01*
X110039276Y-83343802D01*
X110039278Y-83343803D01*
X110201681Y-83416109D01*
X110207712Y-83418794D01*
X110301112Y-83438647D01*
X110388056Y-83457128D01*
X110388061Y-83457128D01*
X110394513Y-83458500D01*
X110585487Y-83458500D01*
X110591939Y-83457128D01*
X110591944Y-83457128D01*
X110678888Y-83438647D01*
X110772288Y-83418794D01*
X110778319Y-83416109D01*
X110940722Y-83343803D01*
X110940724Y-83343802D01*
X110946752Y-83341118D01*
X111101253Y-83228866D01*
X111229040Y-83086944D01*
X111324527Y-82921556D01*
X111383542Y-82739928D01*
X111403504Y-82550000D01*
X111387407Y-82396845D01*
X111384232Y-82366635D01*
X111384232Y-82366633D01*
X111383542Y-82360072D01*
X111324527Y-82178444D01*
X111229040Y-82013056D01*
X111222618Y-82005923D01*
X111105675Y-81876045D01*
X111105674Y-81876044D01*
X111101253Y-81871134D01*
X110946752Y-81758882D01*
X110940724Y-81756198D01*
X110940722Y-81756197D01*
X110778319Y-81683891D01*
X110778318Y-81683891D01*
X110772288Y-81681206D01*
X110643594Y-81653851D01*
X110591944Y-81642872D01*
X110591939Y-81642872D01*
X110585487Y-81641500D01*
X110394513Y-81641500D01*
X110388061Y-81642872D01*
X110388056Y-81642872D01*
X110336406Y-81653851D01*
X110207712Y-81681206D01*
X110201682Y-81683891D01*
X110201681Y-81683891D01*
X110039278Y-81756197D01*
X110039276Y-81756198D01*
X110033248Y-81758882D01*
X109878747Y-81871134D01*
X109874326Y-81876044D01*
X109874325Y-81876045D01*
X109757383Y-82005923D01*
X109750960Y-82013056D01*
X109655473Y-82178444D01*
X109596458Y-82360072D01*
X109595768Y-82366633D01*
X109595768Y-82366635D01*
X109592593Y-82396845D01*
X109576496Y-82550000D01*
X65600585Y-82550000D01*
X65587186Y-82396845D01*
X65570718Y-82335385D01*
X70804500Y-82335385D01*
X70808975Y-82350624D01*
X70810365Y-82351829D01*
X70818048Y-82353500D01*
X71740385Y-82353500D01*
X71755624Y-82349025D01*
X71756829Y-82347635D01*
X71758500Y-82339952D01*
X71758500Y-82335385D01*
X72266500Y-82335385D01*
X72270975Y-82350624D01*
X72272365Y-82351829D01*
X72280048Y-82353500D01*
X73202384Y-82353500D01*
X73217623Y-82349025D01*
X73218828Y-82347635D01*
X73220499Y-82339952D01*
X73220499Y-81862831D01*
X73220129Y-81856010D01*
X73214605Y-81805148D01*
X73210979Y-81789896D01*
X73165824Y-81669446D01*
X73157286Y-81653851D01*
X73080785Y-81551776D01*
X73068224Y-81539215D01*
X72966149Y-81462714D01*
X72950554Y-81454176D01*
X72830106Y-81409022D01*
X72814851Y-81405395D01*
X72763986Y-81399869D01*
X72757172Y-81399500D01*
X72284615Y-81399500D01*
X72269376Y-81403975D01*
X72268171Y-81405365D01*
X72266500Y-81413048D01*
X72266500Y-82335385D01*
X71758500Y-82335385D01*
X71758500Y-81417616D01*
X71754025Y-81402377D01*
X71752635Y-81401172D01*
X71744952Y-81399501D01*
X71267831Y-81399501D01*
X71261010Y-81399871D01*
X71210148Y-81405395D01*
X71194896Y-81409021D01*
X71074446Y-81454176D01*
X71058851Y-81462714D01*
X70956776Y-81539215D01*
X70944215Y-81551776D01*
X70867714Y-81653851D01*
X70859176Y-81669446D01*
X70814022Y-81789894D01*
X70810395Y-81805149D01*
X70804869Y-81856014D01*
X70804500Y-81862828D01*
X70804500Y-82335385D01*
X65570718Y-82335385D01*
X65532456Y-82192590D01*
X65530133Y-82187608D01*
X65445412Y-82005923D01*
X65445410Y-82005920D01*
X65443089Y-82000942D01*
X65321801Y-81827724D01*
X65172276Y-81678199D01*
X64999058Y-81556911D01*
X64994080Y-81554590D01*
X64994077Y-81554588D01*
X64812392Y-81469867D01*
X64812391Y-81469866D01*
X64807410Y-81467544D01*
X64802102Y-81466122D01*
X64802100Y-81466121D01*
X64608470Y-81414238D01*
X64608468Y-81414238D01*
X64603155Y-81412814D01*
X64392500Y-81394384D01*
X64181845Y-81412814D01*
X64176532Y-81414238D01*
X64176530Y-81414238D01*
X63982900Y-81466121D01*
X63982898Y-81466122D01*
X63977590Y-81467544D01*
X63972609Y-81469866D01*
X63972608Y-81469867D01*
X63790923Y-81554588D01*
X63790920Y-81554590D01*
X63785942Y-81556911D01*
X63612724Y-81678199D01*
X63463199Y-81827724D01*
X63341911Y-82000942D01*
X63339590Y-82005920D01*
X63339588Y-82005923D01*
X63254867Y-82187608D01*
X63252544Y-82192590D01*
X63197814Y-82396845D01*
X63179384Y-82607500D01*
X56134500Y-82607500D01*
X56134500Y-80000000D01*
X85767391Y-80000000D01*
X85768081Y-80006565D01*
X85777337Y-80094624D01*
X85787771Y-80193900D01*
X85789811Y-80200178D01*
X85789811Y-80200179D01*
X85807658Y-80255106D01*
X85848019Y-80379326D01*
X85945503Y-80548174D01*
X85949921Y-80553081D01*
X85949922Y-80553082D01*
X85992168Y-80600000D01*
X86075963Y-80693064D01*
X86081302Y-80696943D01*
X86216770Y-80795366D01*
X86233695Y-80807663D01*
X86239723Y-80810347D01*
X86239725Y-80810348D01*
X86405777Y-80884279D01*
X86411808Y-80886964D01*
X86491778Y-80903962D01*
X86596059Y-80926128D01*
X86596063Y-80926128D01*
X86602516Y-80927500D01*
X86797484Y-80927500D01*
X86803937Y-80926128D01*
X86803941Y-80926128D01*
X86908222Y-80903962D01*
X86988192Y-80886964D01*
X86994223Y-80884279D01*
X87114229Y-80830849D01*
X87184596Y-80821415D01*
X87248893Y-80851522D01*
X87286707Y-80911610D01*
X87290877Y-80933660D01*
X87292214Y-80947297D01*
X87304163Y-81069160D01*
X87361418Y-81241273D01*
X87365065Y-81247295D01*
X87365066Y-81247297D01*
X87451720Y-81390380D01*
X87455380Y-81396424D01*
X87460269Y-81401487D01*
X87460270Y-81401488D01*
X87471810Y-81413438D01*
X87581382Y-81526902D01*
X87733159Y-81626222D01*
X87739763Y-81628678D01*
X87739765Y-81628679D01*
X87896558Y-81686990D01*
X87896560Y-81686990D01*
X87903168Y-81689448D01*
X87986995Y-81700633D01*
X88075980Y-81712507D01*
X88075984Y-81712507D01*
X88082961Y-81713438D01*
X88089972Y-81712800D01*
X88089976Y-81712800D01*
X88232459Y-81699832D01*
X88263600Y-81696998D01*
X88270302Y-81694820D01*
X88270304Y-81694820D01*
X88429409Y-81643124D01*
X88429412Y-81643123D01*
X88436108Y-81640947D01*
X88571787Y-81560066D01*
X88585860Y-81551677D01*
X88585862Y-81551676D01*
X88591912Y-81548069D01*
X88723266Y-81422982D01*
X88823643Y-81271902D01*
X88888055Y-81102338D01*
X88889733Y-81090401D01*
X88912748Y-80926639D01*
X88912748Y-80926636D01*
X88913299Y-80922717D01*
X88913616Y-80900000D01*
X88893397Y-80719745D01*
X88891080Y-80713091D01*
X88847742Y-80588640D01*
X89886463Y-80588640D01*
X89904163Y-80769160D01*
X89961418Y-80941273D01*
X89965065Y-80947295D01*
X89965066Y-80947297D01*
X89975978Y-80965314D01*
X90055380Y-81096424D01*
X90181382Y-81226902D01*
X90333159Y-81326222D01*
X90339763Y-81328678D01*
X90339765Y-81328679D01*
X90496558Y-81386990D01*
X90496560Y-81386990D01*
X90503168Y-81389448D01*
X90581268Y-81399869D01*
X90675980Y-81412507D01*
X90675984Y-81412507D01*
X90682961Y-81413438D01*
X90689972Y-81412800D01*
X90689976Y-81412800D01*
X90832459Y-81399832D01*
X90863600Y-81396998D01*
X90870302Y-81394820D01*
X90870304Y-81394820D01*
X91029409Y-81343124D01*
X91029412Y-81343123D01*
X91036108Y-81340947D01*
X91151932Y-81271902D01*
X91185860Y-81251677D01*
X91185862Y-81251676D01*
X91191912Y-81248069D01*
X91323266Y-81122982D01*
X91423643Y-80971902D01*
X91480808Y-80821415D01*
X91485555Y-80808920D01*
X91485556Y-80808918D01*
X91488055Y-80802338D01*
X91489035Y-80795366D01*
X91512748Y-80626639D01*
X91512748Y-80626636D01*
X91513299Y-80622717D01*
X91513616Y-80600000D01*
X91493397Y-80419745D01*
X91491080Y-80413091D01*
X91436064Y-80255106D01*
X91436062Y-80255103D01*
X91433745Y-80248448D01*
X91423662Y-80232312D01*
X91341359Y-80100598D01*
X91337626Y-80094624D01*
X91332664Y-80089627D01*
X91214778Y-79970915D01*
X91214774Y-79970912D01*
X91209815Y-79965918D01*
X91198697Y-79958862D01*
X91150538Y-79928300D01*
X91056666Y-79868727D01*
X91027463Y-79858328D01*
X90892425Y-79810243D01*
X90892420Y-79810242D01*
X90885790Y-79807881D01*
X90878802Y-79807048D01*
X90878799Y-79807047D01*
X90755698Y-79792368D01*
X90705680Y-79786404D01*
X90698677Y-79787140D01*
X90698676Y-79787140D01*
X90532288Y-79804628D01*
X90532286Y-79804629D01*
X90525288Y-79805364D01*
X90353579Y-79863818D01*
X90347575Y-79867512D01*
X90205095Y-79955166D01*
X90205092Y-79955168D01*
X90199088Y-79958862D01*
X90194053Y-79963793D01*
X90194050Y-79963795D01*
X90102903Y-80053053D01*
X90069493Y-80085771D01*
X89971235Y-80238238D01*
X89968826Y-80244858D01*
X89968824Y-80244861D01*
X89914315Y-80394624D01*
X89909197Y-80408685D01*
X89886463Y-80588640D01*
X88847742Y-80588640D01*
X88836064Y-80555106D01*
X88836062Y-80555103D01*
X88833745Y-80548448D01*
X88737626Y-80394624D01*
X88728118Y-80385049D01*
X88614778Y-80270915D01*
X88614774Y-80270912D01*
X88609815Y-80265918D01*
X88598697Y-80258862D01*
X88550538Y-80228300D01*
X88456666Y-80168727D01*
X88401586Y-80149114D01*
X88292425Y-80110243D01*
X88292420Y-80110242D01*
X88285790Y-80107881D01*
X88278802Y-80107048D01*
X88278799Y-80107047D01*
X88155698Y-80092368D01*
X88105680Y-80086404D01*
X88098677Y-80087140D01*
X88098676Y-80087140D01*
X87932288Y-80104628D01*
X87932286Y-80104629D01*
X87925288Y-80105364D01*
X87805638Y-80146096D01*
X87796772Y-80149114D01*
X87725840Y-80152132D01*
X87664536Y-80116322D01*
X87632324Y-80053053D01*
X87630858Y-80016662D01*
X87631919Y-80006570D01*
X87631919Y-80006565D01*
X87632609Y-80000000D01*
X87619209Y-79872506D01*
X87612919Y-79812664D01*
X87612919Y-79812663D01*
X87612229Y-79806100D01*
X87606101Y-79787238D01*
X87554023Y-79626959D01*
X87551981Y-79620674D01*
X87479320Y-79494820D01*
X87457800Y-79457547D01*
X87454497Y-79451826D01*
X87446662Y-79443124D01*
X87328452Y-79311839D01*
X87328450Y-79311838D01*
X87324037Y-79306936D01*
X87208484Y-79222982D01*
X87171647Y-79196218D01*
X87171646Y-79196217D01*
X87166305Y-79192337D01*
X87160277Y-79189653D01*
X87160275Y-79189652D01*
X86994223Y-79115721D01*
X86994222Y-79115721D01*
X86988192Y-79113036D01*
X86892838Y-79092768D01*
X86803941Y-79073872D01*
X86803937Y-79073872D01*
X86797484Y-79072500D01*
X86602516Y-79072500D01*
X86596063Y-79073872D01*
X86596059Y-79073872D01*
X86507162Y-79092768D01*
X86411808Y-79113036D01*
X86405779Y-79115720D01*
X86405777Y-79115721D01*
X86239726Y-79189652D01*
X86239724Y-79189653D01*
X86233696Y-79192337D01*
X86228355Y-79196217D01*
X86228354Y-79196218D01*
X86081302Y-79303057D01*
X86075963Y-79306936D01*
X86071550Y-79311838D01*
X86071548Y-79311839D01*
X85953338Y-79443124D01*
X85945503Y-79451826D01*
X85942200Y-79457547D01*
X85920681Y-79494820D01*
X85848019Y-79620674D01*
X85845977Y-79626959D01*
X85793900Y-79787238D01*
X85787771Y-79806100D01*
X85787081Y-79812663D01*
X85787081Y-79812664D01*
X85780791Y-79872506D01*
X85767391Y-80000000D01*
X56134500Y-80000000D01*
X56134500Y-78688640D01*
X75686463Y-78688640D01*
X75704163Y-78869160D01*
X75761418Y-79041273D01*
X75765065Y-79047295D01*
X75765066Y-79047297D01*
X75851279Y-79189652D01*
X75855380Y-79196424D01*
X75981382Y-79326902D01*
X76133159Y-79426222D01*
X76139763Y-79428678D01*
X76139765Y-79428679D01*
X76296558Y-79486990D01*
X76296560Y-79486990D01*
X76303168Y-79489448D01*
X76386995Y-79500633D01*
X76475980Y-79512507D01*
X76475984Y-79512507D01*
X76482961Y-79513438D01*
X76489972Y-79512800D01*
X76489976Y-79512800D01*
X76632459Y-79499832D01*
X76663600Y-79496998D01*
X76670302Y-79494820D01*
X76670304Y-79494820D01*
X76829409Y-79443124D01*
X76829412Y-79443123D01*
X76836108Y-79440947D01*
X76991912Y-79348069D01*
X77123266Y-79222982D01*
X77223643Y-79071902D01*
X77288055Y-78902338D01*
X77289035Y-78895366D01*
X77312748Y-78726639D01*
X77312748Y-78726636D01*
X77313299Y-78722717D01*
X77313616Y-78700000D01*
X77293397Y-78519745D01*
X77291080Y-78513091D01*
X77236064Y-78355106D01*
X77236062Y-78355103D01*
X77233745Y-78348448D01*
X77137626Y-78194624D01*
X77123941Y-78180843D01*
X77014778Y-78070915D01*
X77014774Y-78070912D01*
X77009815Y-78065918D01*
X76998697Y-78058862D01*
X76950538Y-78028300D01*
X76856666Y-77968727D01*
X76827463Y-77958328D01*
X76692425Y-77910243D01*
X76692420Y-77910242D01*
X76685790Y-77907881D01*
X76678802Y-77907048D01*
X76678799Y-77907047D01*
X76555698Y-77892368D01*
X76505680Y-77886404D01*
X76498677Y-77887140D01*
X76498676Y-77887140D01*
X76332288Y-77904628D01*
X76332286Y-77904629D01*
X76325288Y-77905364D01*
X76153579Y-77963818D01*
X76147575Y-77967512D01*
X76005095Y-78055166D01*
X76005092Y-78055168D01*
X75999088Y-78058862D01*
X75994053Y-78063793D01*
X75994050Y-78063795D01*
X75874525Y-78180843D01*
X75869493Y-78185771D01*
X75771235Y-78338238D01*
X75768826Y-78344858D01*
X75768824Y-78344861D01*
X75711606Y-78502066D01*
X75709197Y-78508685D01*
X75686463Y-78688640D01*
X56134500Y-78688640D01*
X56134500Y-76500000D01*
X104767391Y-76500000D01*
X104787771Y-76693900D01*
X104848019Y-76879326D01*
X104945503Y-77048174D01*
X105075963Y-77193064D01*
X105233695Y-77307663D01*
X105239723Y-77310347D01*
X105239725Y-77310348D01*
X105405777Y-77384279D01*
X105411808Y-77386964D01*
X105507162Y-77407232D01*
X105596059Y-77426128D01*
X105596063Y-77426128D01*
X105602516Y-77427500D01*
X105797484Y-77427500D01*
X105803937Y-77426128D01*
X105803941Y-77426128D01*
X105892838Y-77407232D01*
X105988192Y-77386964D01*
X105994223Y-77384279D01*
X106160275Y-77310348D01*
X106160277Y-77310347D01*
X106166305Y-77307663D01*
X106324037Y-77193064D01*
X106454497Y-77048174D01*
X106551981Y-76879326D01*
X106612229Y-76693900D01*
X106632609Y-76500000D01*
X106622699Y-76405715D01*
X106615386Y-76336134D01*
X111671500Y-76336134D01*
X111678255Y-76398316D01*
X111729385Y-76534705D01*
X111816739Y-76651261D01*
X111933295Y-76738615D01*
X112069684Y-76789745D01*
X112131866Y-76796500D01*
X113928134Y-76796500D01*
X113990316Y-76789745D01*
X114126705Y-76738615D01*
X114243261Y-76651261D01*
X114330615Y-76534705D01*
X114381745Y-76398316D01*
X114388500Y-76336134D01*
X114388500Y-76318134D01*
X119545500Y-76318134D01*
X119552255Y-76380316D01*
X119603385Y-76516705D01*
X119690739Y-76633261D01*
X119807295Y-76720615D01*
X119943684Y-76771745D01*
X120005866Y-76778500D01*
X121802134Y-76778500D01*
X121864316Y-76771745D01*
X122000705Y-76720615D01*
X122117261Y-76633261D01*
X122204615Y-76516705D01*
X122255745Y-76380316D01*
X122262500Y-76318134D01*
X122262500Y-74521866D01*
X122255745Y-74459684D01*
X122204615Y-74323295D01*
X122117261Y-74206739D01*
X122000705Y-74119385D01*
X121864316Y-74068255D01*
X121802134Y-74061500D01*
X120005866Y-74061500D01*
X119943684Y-74068255D01*
X119807295Y-74119385D01*
X119690739Y-74206739D01*
X119603385Y-74323295D01*
X119552255Y-74459684D01*
X119545500Y-74521866D01*
X119545500Y-76318134D01*
X114388500Y-76318134D01*
X114388500Y-74539866D01*
X114381745Y-74477684D01*
X114330615Y-74341295D01*
X114243261Y-74224739D01*
X114126705Y-74137385D01*
X113990316Y-74086255D01*
X113928134Y-74079500D01*
X112131866Y-74079500D01*
X112069684Y-74086255D01*
X111933295Y-74137385D01*
X111816739Y-74224739D01*
X111729385Y-74341295D01*
X111678255Y-74477684D01*
X111671500Y-74539866D01*
X111671500Y-76336134D01*
X106615386Y-76336134D01*
X106612919Y-76312664D01*
X106612919Y-76312663D01*
X106612229Y-76306100D01*
X106601724Y-76273767D01*
X106554458Y-76128297D01*
X106551981Y-76120674D01*
X106542292Y-76103891D01*
X106457800Y-75957547D01*
X106454497Y-75951826D01*
X106448096Y-75944717D01*
X106328452Y-75811839D01*
X106328450Y-75811838D01*
X106324037Y-75806936D01*
X106269450Y-75767276D01*
X106171647Y-75696218D01*
X106171646Y-75696217D01*
X106166305Y-75692337D01*
X106160277Y-75689653D01*
X106160275Y-75689652D01*
X105994223Y-75615721D01*
X105994222Y-75615721D01*
X105988192Y-75613036D01*
X105892838Y-75592768D01*
X105803941Y-75573872D01*
X105803937Y-75573872D01*
X105797484Y-75572500D01*
X105602516Y-75572500D01*
X105596063Y-75573872D01*
X105596059Y-75573872D01*
X105507162Y-75592768D01*
X105411808Y-75613036D01*
X105405779Y-75615720D01*
X105405777Y-75615721D01*
X105239726Y-75689652D01*
X105239724Y-75689653D01*
X105233696Y-75692337D01*
X105075963Y-75806936D01*
X105071550Y-75811838D01*
X105071548Y-75811839D01*
X104951904Y-75944717D01*
X104945503Y-75951826D01*
X104942200Y-75957547D01*
X104857709Y-76103891D01*
X104848019Y-76120674D01*
X104845542Y-76128297D01*
X104798277Y-76273767D01*
X104787771Y-76306100D01*
X104787081Y-76312663D01*
X104787081Y-76312664D01*
X104777301Y-76405715D01*
X104767391Y-76500000D01*
X56134500Y-76500000D01*
X56134500Y-75868134D01*
X58077500Y-75868134D01*
X58084255Y-75930316D01*
X58135385Y-76066705D01*
X58222739Y-76183261D01*
X58339295Y-76270615D01*
X58475684Y-76321745D01*
X58537866Y-76328500D01*
X60334134Y-76328500D01*
X60396316Y-76321745D01*
X60532705Y-76270615D01*
X60649261Y-76183261D01*
X60736615Y-76066705D01*
X60787745Y-75930316D01*
X60794500Y-75868134D01*
X60794500Y-74987500D01*
X63179384Y-74987500D01*
X63197814Y-75198155D01*
X63252544Y-75402410D01*
X63341911Y-75594058D01*
X63463199Y-75767276D01*
X63612724Y-75916801D01*
X63785942Y-76038089D01*
X63790920Y-76040410D01*
X63790923Y-76040412D01*
X63950773Y-76114951D01*
X63977590Y-76127456D01*
X63982898Y-76128878D01*
X63982900Y-76128879D01*
X64176530Y-76180762D01*
X64176532Y-76180762D01*
X64181845Y-76182186D01*
X64392500Y-76200616D01*
X64603155Y-76182186D01*
X64608468Y-76180762D01*
X64608470Y-76180762D01*
X64802100Y-76128879D01*
X64802102Y-76128878D01*
X64807410Y-76127456D01*
X64834227Y-76114951D01*
X64994077Y-76040412D01*
X64994080Y-76040410D01*
X64999058Y-76038089D01*
X65172276Y-75916801D01*
X65321801Y-75767276D01*
X65443089Y-75594058D01*
X65532456Y-75402410D01*
X65587186Y-75198155D01*
X65605616Y-74987500D01*
X70799384Y-74987500D01*
X70817814Y-75198155D01*
X70872544Y-75402410D01*
X70961911Y-75594058D01*
X71083199Y-75767276D01*
X71232724Y-75916801D01*
X71405942Y-76038089D01*
X71410920Y-76040410D01*
X71410923Y-76040412D01*
X71570773Y-76114951D01*
X71597590Y-76127456D01*
X71602898Y-76128878D01*
X71602900Y-76128879D01*
X71796530Y-76180762D01*
X71796532Y-76180762D01*
X71801845Y-76182186D01*
X72012500Y-76200616D01*
X72223155Y-76182186D01*
X72228468Y-76180762D01*
X72228470Y-76180762D01*
X72422100Y-76128879D01*
X72422102Y-76128878D01*
X72427410Y-76127456D01*
X72454227Y-76114951D01*
X72614077Y-76040412D01*
X72614080Y-76040410D01*
X72619058Y-76038089D01*
X72792276Y-75916801D01*
X72810943Y-75898134D01*
X74241500Y-75898134D01*
X74248255Y-75960316D01*
X74299385Y-76096705D01*
X74386739Y-76213261D01*
X74503295Y-76300615D01*
X74639684Y-76351745D01*
X74701866Y-76358500D01*
X76498134Y-76358500D01*
X76560316Y-76351745D01*
X76696705Y-76300615D01*
X76813261Y-76213261D01*
X76900615Y-76096705D01*
X76951745Y-75960316D01*
X76954155Y-75938134D01*
X83921500Y-75938134D01*
X83928255Y-76000316D01*
X83979385Y-76136705D01*
X84066739Y-76253261D01*
X84183295Y-76340615D01*
X84319684Y-76391745D01*
X84381866Y-76398500D01*
X86178134Y-76398500D01*
X86240316Y-76391745D01*
X86376705Y-76340615D01*
X86493261Y-76253261D01*
X86580615Y-76136705D01*
X86631745Y-76000316D01*
X86637414Y-75948134D01*
X93911500Y-75948134D01*
X93918255Y-76010316D01*
X93969385Y-76146705D01*
X94056739Y-76263261D01*
X94173295Y-76350615D01*
X94309684Y-76401745D01*
X94371866Y-76408500D01*
X96168134Y-76408500D01*
X96230316Y-76401745D01*
X96366705Y-76350615D01*
X96483261Y-76263261D01*
X96570615Y-76146705D01*
X96621745Y-76010316D01*
X96628500Y-75948134D01*
X96628500Y-74151866D01*
X96621745Y-74089684D01*
X96570615Y-73953295D01*
X96483261Y-73836739D01*
X96366705Y-73749385D01*
X96230316Y-73698255D01*
X96168134Y-73691500D01*
X94371866Y-73691500D01*
X94309684Y-73698255D01*
X94173295Y-73749385D01*
X94056739Y-73836739D01*
X93969385Y-73953295D01*
X93918255Y-74089684D01*
X93911500Y-74151866D01*
X93911500Y-75948134D01*
X86637414Y-75948134D01*
X86638500Y-75938134D01*
X86638500Y-74141866D01*
X86631745Y-74079684D01*
X86580615Y-73943295D01*
X86493261Y-73826739D01*
X86376705Y-73739385D01*
X86240316Y-73688255D01*
X86178134Y-73681500D01*
X84381866Y-73681500D01*
X84319684Y-73688255D01*
X84183295Y-73739385D01*
X84066739Y-73826739D01*
X83979385Y-73943295D01*
X83928255Y-74079684D01*
X83921500Y-74141866D01*
X83921500Y-75938134D01*
X76954155Y-75938134D01*
X76958500Y-75898134D01*
X76958500Y-74101866D01*
X76951745Y-74039684D01*
X76900615Y-73903295D01*
X76813261Y-73786739D01*
X76696705Y-73699385D01*
X76560316Y-73648255D01*
X76498134Y-73641500D01*
X74701866Y-73641500D01*
X74639684Y-73648255D01*
X74503295Y-73699385D01*
X74386739Y-73786739D01*
X74299385Y-73903295D01*
X74248255Y-74039684D01*
X74241500Y-74101866D01*
X74241500Y-75898134D01*
X72810943Y-75898134D01*
X72941801Y-75767276D01*
X73063089Y-75594058D01*
X73152456Y-75402410D01*
X73207186Y-75198155D01*
X73225616Y-74987500D01*
X73207186Y-74776845D01*
X73152456Y-74572590D01*
X73137197Y-74539866D01*
X73065412Y-74385923D01*
X73065410Y-74385920D01*
X73063089Y-74380942D01*
X72941801Y-74207724D01*
X72792276Y-74058199D01*
X72619058Y-73936911D01*
X72614080Y-73934590D01*
X72614077Y-73934588D01*
X72432392Y-73849867D01*
X72432391Y-73849866D01*
X72427410Y-73847544D01*
X72422102Y-73846122D01*
X72422100Y-73846121D01*
X72228470Y-73794238D01*
X72228468Y-73794238D01*
X72223155Y-73792814D01*
X72012500Y-73774384D01*
X71801845Y-73792814D01*
X71796532Y-73794238D01*
X71796530Y-73794238D01*
X71602900Y-73846121D01*
X71602898Y-73846122D01*
X71597590Y-73847544D01*
X71592609Y-73849866D01*
X71592608Y-73849867D01*
X71410923Y-73934588D01*
X71410920Y-73934590D01*
X71405942Y-73936911D01*
X71232724Y-74058199D01*
X71083199Y-74207724D01*
X70961911Y-74380942D01*
X70959590Y-74385920D01*
X70959588Y-74385923D01*
X70887803Y-74539866D01*
X70872544Y-74572590D01*
X70817814Y-74776845D01*
X70799384Y-74987500D01*
X65605616Y-74987500D01*
X65587186Y-74776845D01*
X65532456Y-74572590D01*
X65517197Y-74539866D01*
X65445412Y-74385923D01*
X65445410Y-74385920D01*
X65443089Y-74380942D01*
X65321801Y-74207724D01*
X65172276Y-74058199D01*
X64999058Y-73936911D01*
X64994080Y-73934590D01*
X64994077Y-73934588D01*
X64812392Y-73849867D01*
X64812391Y-73849866D01*
X64807410Y-73847544D01*
X64802102Y-73846122D01*
X64802100Y-73846121D01*
X64608470Y-73794238D01*
X64608468Y-73794238D01*
X64603155Y-73792814D01*
X64392500Y-73774384D01*
X64181845Y-73792814D01*
X64176532Y-73794238D01*
X64176530Y-73794238D01*
X63982900Y-73846121D01*
X63982898Y-73846122D01*
X63977590Y-73847544D01*
X63972609Y-73849866D01*
X63972608Y-73849867D01*
X63790923Y-73934588D01*
X63790920Y-73934590D01*
X63785942Y-73936911D01*
X63612724Y-74058199D01*
X63463199Y-74207724D01*
X63341911Y-74380942D01*
X63339590Y-74385920D01*
X63339588Y-74385923D01*
X63267803Y-74539866D01*
X63252544Y-74572590D01*
X63197814Y-74776845D01*
X63179384Y-74987500D01*
X60794500Y-74987500D01*
X60794500Y-74071866D01*
X60787745Y-74009684D01*
X60736615Y-73873295D01*
X60649261Y-73756739D01*
X60532705Y-73669385D01*
X60396316Y-73618255D01*
X60334134Y-73611500D01*
X58537866Y-73611500D01*
X58475684Y-73618255D01*
X58339295Y-73669385D01*
X58222739Y-73756739D01*
X58135385Y-73873295D01*
X58084255Y-74009684D01*
X58077500Y-74071866D01*
X58077500Y-75868134D01*
X56134500Y-75868134D01*
X56134500Y-72300000D01*
X95767391Y-72300000D01*
X95787771Y-72493900D01*
X95848019Y-72679326D01*
X95945503Y-72848174D01*
X95949921Y-72853081D01*
X95949922Y-72853082D01*
X96035544Y-72948174D01*
X96075963Y-72993064D01*
X96233695Y-73107663D01*
X96239723Y-73110347D01*
X96239725Y-73110348D01*
X96405777Y-73184279D01*
X96411808Y-73186964D01*
X96490931Y-73203782D01*
X96596059Y-73226128D01*
X96596063Y-73226128D01*
X96602516Y-73227500D01*
X96797484Y-73227500D01*
X96803937Y-73226128D01*
X96803941Y-73226128D01*
X96909069Y-73203782D01*
X96988192Y-73186964D01*
X96994223Y-73184279D01*
X97160275Y-73110348D01*
X97160277Y-73110347D01*
X97166305Y-73107663D01*
X97324037Y-72993064D01*
X97364457Y-72948174D01*
X97450078Y-72853082D01*
X97450079Y-72853081D01*
X97454497Y-72848174D01*
X97551981Y-72679326D01*
X97612229Y-72493900D01*
X97632609Y-72300000D01*
X100567391Y-72300000D01*
X100587771Y-72493900D01*
X100648019Y-72679326D01*
X100745503Y-72848174D01*
X100749921Y-72853081D01*
X100749922Y-72853082D01*
X100835544Y-72948174D01*
X100875963Y-72993064D01*
X101033695Y-73107663D01*
X101039723Y-73110347D01*
X101039725Y-73110348D01*
X101205777Y-73184279D01*
X101211808Y-73186964D01*
X101290931Y-73203782D01*
X101396059Y-73226128D01*
X101396063Y-73226128D01*
X101402516Y-73227500D01*
X101597484Y-73227500D01*
X101603937Y-73226128D01*
X101603941Y-73226128D01*
X101709069Y-73203782D01*
X101788192Y-73186964D01*
X101794223Y-73184279D01*
X101960275Y-73110348D01*
X101960277Y-73110347D01*
X101966305Y-73107663D01*
X102124037Y-72993064D01*
X102164457Y-72948174D01*
X102250078Y-72853082D01*
X102250079Y-72853081D01*
X102254497Y-72848174D01*
X102351981Y-72679326D01*
X102412229Y-72493900D01*
X102422098Y-72400000D01*
X110467391Y-72400000D01*
X110468081Y-72406565D01*
X110476571Y-72487336D01*
X110487771Y-72593900D01*
X110548019Y-72779326D01*
X110645503Y-72948174D01*
X110649921Y-72953081D01*
X110649922Y-72953082D01*
X110681508Y-72988161D01*
X110775963Y-73093064D01*
X110781302Y-73096943D01*
X110907094Y-73188336D01*
X110933695Y-73207663D01*
X110939723Y-73210347D01*
X110939725Y-73210348D01*
X111105777Y-73284279D01*
X111111808Y-73286964D01*
X111207162Y-73307232D01*
X111296059Y-73326128D01*
X111296063Y-73326128D01*
X111302516Y-73327500D01*
X111497484Y-73327500D01*
X111503937Y-73326128D01*
X111503941Y-73326128D01*
X111592838Y-73307232D01*
X111688192Y-73286964D01*
X111694223Y-73284279D01*
X111860275Y-73210348D01*
X111860277Y-73210347D01*
X111866305Y-73207663D01*
X111892907Y-73188336D01*
X112018698Y-73096943D01*
X112024037Y-73093064D01*
X112118493Y-72988161D01*
X112150078Y-72953082D01*
X112150079Y-72953081D01*
X112154497Y-72948174D01*
X112251981Y-72779326D01*
X112312229Y-72593900D01*
X112323430Y-72487336D01*
X112331919Y-72406565D01*
X112332609Y-72400000D01*
X112312229Y-72206100D01*
X112251981Y-72020674D01*
X112154497Y-71851826D01*
X112069608Y-71757547D01*
X112028452Y-71711839D01*
X112028450Y-71711838D01*
X112024037Y-71706936D01*
X111866305Y-71592337D01*
X111860277Y-71589653D01*
X111860275Y-71589652D01*
X111694223Y-71515721D01*
X111694222Y-71515721D01*
X111688192Y-71513036D01*
X111590810Y-71492337D01*
X111503941Y-71473872D01*
X111503937Y-71473872D01*
X111497484Y-71472500D01*
X111302516Y-71472500D01*
X111296063Y-71473872D01*
X111296059Y-71473872D01*
X111209190Y-71492337D01*
X111111808Y-71513036D01*
X111105779Y-71515720D01*
X111105777Y-71515721D01*
X110939726Y-71589652D01*
X110939724Y-71589653D01*
X110933696Y-71592337D01*
X110928355Y-71596217D01*
X110928354Y-71596218D01*
X110781302Y-71703057D01*
X110775963Y-71706936D01*
X110771550Y-71711838D01*
X110771548Y-71711839D01*
X110730392Y-71757547D01*
X110645503Y-71851826D01*
X110548019Y-72020674D01*
X110487771Y-72206100D01*
X110467391Y-72400000D01*
X102422098Y-72400000D01*
X102432609Y-72300000D01*
X102431919Y-72293435D01*
X102412919Y-72112664D01*
X102412919Y-72112663D01*
X102412229Y-72106100D01*
X102351981Y-71920674D01*
X102254497Y-71751826D01*
X102250078Y-71746918D01*
X102128452Y-71611839D01*
X102128450Y-71611838D01*
X102124037Y-71606936D01*
X102100248Y-71589652D01*
X101971647Y-71496218D01*
X101971646Y-71496217D01*
X101966305Y-71492337D01*
X101960277Y-71489653D01*
X101960275Y-71489652D01*
X101794223Y-71415721D01*
X101794222Y-71415721D01*
X101788192Y-71413036D01*
X101692838Y-71392768D01*
X101603941Y-71373872D01*
X101603937Y-71373872D01*
X101597484Y-71372500D01*
X101402516Y-71372500D01*
X101396063Y-71373872D01*
X101396059Y-71373872D01*
X101307162Y-71392768D01*
X101211808Y-71413036D01*
X101205779Y-71415720D01*
X101205777Y-71415721D01*
X101039726Y-71489652D01*
X101039724Y-71489653D01*
X101033696Y-71492337D01*
X101028355Y-71496217D01*
X101028354Y-71496218D01*
X100896057Y-71592337D01*
X100875963Y-71606936D01*
X100871550Y-71611838D01*
X100871548Y-71611839D01*
X100749922Y-71746918D01*
X100745503Y-71751826D01*
X100648019Y-71920674D01*
X100587771Y-72106100D01*
X100587081Y-72112663D01*
X100587081Y-72112664D01*
X100568081Y-72293435D01*
X100567391Y-72300000D01*
X97632609Y-72300000D01*
X97631919Y-72293435D01*
X97612919Y-72112664D01*
X97612919Y-72112663D01*
X97612229Y-72106100D01*
X97551981Y-71920674D01*
X97454497Y-71751826D01*
X97450078Y-71746918D01*
X97328452Y-71611839D01*
X97328450Y-71611838D01*
X97324037Y-71606936D01*
X97300248Y-71589652D01*
X97171647Y-71496218D01*
X97171646Y-71496217D01*
X97166305Y-71492337D01*
X97160277Y-71489653D01*
X97160275Y-71489652D01*
X96994223Y-71415721D01*
X96994222Y-71415721D01*
X96988192Y-71413036D01*
X96892838Y-71392768D01*
X96803941Y-71373872D01*
X96803937Y-71373872D01*
X96797484Y-71372500D01*
X96602516Y-71372500D01*
X96596063Y-71373872D01*
X96596059Y-71373872D01*
X96507162Y-71392768D01*
X96411808Y-71413036D01*
X96405779Y-71415720D01*
X96405777Y-71415721D01*
X96239726Y-71489652D01*
X96239724Y-71489653D01*
X96233696Y-71492337D01*
X96228355Y-71496217D01*
X96228354Y-71496218D01*
X96096057Y-71592337D01*
X96075963Y-71606936D01*
X96071550Y-71611838D01*
X96071548Y-71611839D01*
X95949922Y-71746918D01*
X95945503Y-71751826D01*
X95848019Y-71920674D01*
X95787771Y-72106100D01*
X95787081Y-72112663D01*
X95787081Y-72112664D01*
X95768081Y-72293435D01*
X95767391Y-72300000D01*
X56134500Y-72300000D01*
X56134500Y-69907500D01*
X63179384Y-69907500D01*
X63197814Y-70118155D01*
X63252544Y-70322410D01*
X63341911Y-70514058D01*
X63463199Y-70687276D01*
X63612724Y-70836801D01*
X63785942Y-70958089D01*
X63790920Y-70960410D01*
X63790923Y-70960412D01*
X63972608Y-71045133D01*
X63977590Y-71047456D01*
X63982898Y-71048878D01*
X63982900Y-71048879D01*
X64176530Y-71100762D01*
X64176532Y-71100762D01*
X64181845Y-71102186D01*
X64392500Y-71120616D01*
X64603155Y-71102186D01*
X64608468Y-71100762D01*
X64608470Y-71100762D01*
X64802100Y-71048879D01*
X64802102Y-71048878D01*
X64807410Y-71047456D01*
X64812392Y-71045133D01*
X64994077Y-70960412D01*
X64994080Y-70960410D01*
X64999058Y-70958089D01*
X65172276Y-70836801D01*
X65321801Y-70687276D01*
X65443089Y-70514058D01*
X65532456Y-70322410D01*
X65587186Y-70118155D01*
X65605616Y-69907500D01*
X70799384Y-69907500D01*
X70817814Y-70118155D01*
X70872544Y-70322410D01*
X70961911Y-70514058D01*
X71083199Y-70687276D01*
X71232724Y-70836801D01*
X71405942Y-70958089D01*
X71410920Y-70960410D01*
X71410923Y-70960412D01*
X71592608Y-71045133D01*
X71597590Y-71047456D01*
X71602898Y-71048878D01*
X71602900Y-71048879D01*
X71796530Y-71100762D01*
X71796532Y-71100762D01*
X71801845Y-71102186D01*
X72012500Y-71120616D01*
X72223155Y-71102186D01*
X72228468Y-71100762D01*
X72228470Y-71100762D01*
X72422100Y-71048879D01*
X72422102Y-71048878D01*
X72427410Y-71047456D01*
X72432392Y-71045133D01*
X72614077Y-70960412D01*
X72614080Y-70960410D01*
X72619058Y-70958089D01*
X72792276Y-70836801D01*
X72941801Y-70687276D01*
X73063089Y-70514058D01*
X73152456Y-70322410D01*
X73207186Y-70118155D01*
X73225616Y-69907500D01*
X73207186Y-69696845D01*
X73152456Y-69492590D01*
X73063089Y-69300942D01*
X72941801Y-69127724D01*
X72792276Y-68978199D01*
X72619058Y-68856911D01*
X72614080Y-68854590D01*
X72614077Y-68854588D01*
X72432392Y-68769867D01*
X72432391Y-68769866D01*
X72427410Y-68767544D01*
X72422102Y-68766122D01*
X72422100Y-68766121D01*
X72228470Y-68714238D01*
X72228468Y-68714238D01*
X72223155Y-68712814D01*
X72012500Y-68694384D01*
X71801845Y-68712814D01*
X71796532Y-68714238D01*
X71796530Y-68714238D01*
X71602900Y-68766121D01*
X71602898Y-68766122D01*
X71597590Y-68767544D01*
X71592609Y-68769866D01*
X71592608Y-68769867D01*
X71410923Y-68854588D01*
X71410920Y-68854590D01*
X71405942Y-68856911D01*
X71232724Y-68978199D01*
X71083199Y-69127724D01*
X70961911Y-69300942D01*
X70872544Y-69492590D01*
X70817814Y-69696845D01*
X70799384Y-69907500D01*
X65605616Y-69907500D01*
X65587186Y-69696845D01*
X65532456Y-69492590D01*
X65443089Y-69300942D01*
X65321801Y-69127724D01*
X65172276Y-68978199D01*
X64999058Y-68856911D01*
X64994080Y-68854590D01*
X64994077Y-68854588D01*
X64812392Y-68769867D01*
X64812391Y-68769866D01*
X64807410Y-68767544D01*
X64802102Y-68766122D01*
X64802100Y-68766121D01*
X64608470Y-68714238D01*
X64608468Y-68714238D01*
X64603155Y-68712814D01*
X64392500Y-68694384D01*
X64181845Y-68712814D01*
X64176532Y-68714238D01*
X64176530Y-68714238D01*
X63982900Y-68766121D01*
X63982898Y-68766122D01*
X63977590Y-68767544D01*
X63972609Y-68769866D01*
X63972608Y-68769867D01*
X63790923Y-68854588D01*
X63790920Y-68854590D01*
X63785942Y-68856911D01*
X63612724Y-68978199D01*
X63463199Y-69127724D01*
X63341911Y-69300942D01*
X63252544Y-69492590D01*
X63197814Y-69696845D01*
X63179384Y-69907500D01*
X56134500Y-69907500D01*
X56134500Y-68098134D01*
X105741500Y-68098134D01*
X105748255Y-68160316D01*
X105799385Y-68296705D01*
X105886739Y-68413261D01*
X106003295Y-68500615D01*
X106139684Y-68551745D01*
X106201866Y-68558500D01*
X107998134Y-68558500D01*
X108060316Y-68551745D01*
X108196705Y-68500615D01*
X108313261Y-68413261D01*
X108400615Y-68296705D01*
X108451745Y-68160316D01*
X108458500Y-68098134D01*
X108458500Y-66998134D01*
X111741500Y-66998134D01*
X111748255Y-67060316D01*
X111799385Y-67196705D01*
X111886739Y-67313261D01*
X112003295Y-67400615D01*
X112139684Y-67451745D01*
X112201866Y-67458500D01*
X113998134Y-67458500D01*
X114060316Y-67451745D01*
X114196705Y-67400615D01*
X114313261Y-67313261D01*
X114400615Y-67196705D01*
X114451745Y-67060316D01*
X114458500Y-66998134D01*
X114458500Y-65201866D01*
X114451745Y-65139684D01*
X114400615Y-65003295D01*
X114313261Y-64886739D01*
X114196705Y-64799385D01*
X114060316Y-64748255D01*
X113998134Y-64741500D01*
X112201866Y-64741500D01*
X112139684Y-64748255D01*
X112003295Y-64799385D01*
X111886739Y-64886739D01*
X111799385Y-65003295D01*
X111748255Y-65139684D01*
X111741500Y-65201866D01*
X111741500Y-66998134D01*
X108458500Y-66998134D01*
X108458500Y-66301866D01*
X108451745Y-66239684D01*
X108400615Y-66103295D01*
X108313261Y-65986739D01*
X108196705Y-65899385D01*
X108060316Y-65848255D01*
X107998134Y-65841500D01*
X106201866Y-65841500D01*
X106139684Y-65848255D01*
X106003295Y-65899385D01*
X105886739Y-65986739D01*
X105799385Y-66103295D01*
X105748255Y-66239684D01*
X105741500Y-66301866D01*
X105741500Y-68098134D01*
X56134500Y-68098134D01*
X56134500Y-64827500D01*
X63179384Y-64827500D01*
X63197814Y-65038155D01*
X63199238Y-65043468D01*
X63199238Y-65043470D01*
X63233053Y-65169667D01*
X63252544Y-65242410D01*
X63254866Y-65247391D01*
X63254867Y-65247392D01*
X63338284Y-65426279D01*
X63341911Y-65434058D01*
X63463199Y-65607276D01*
X63612724Y-65756801D01*
X63785942Y-65878089D01*
X63790920Y-65880410D01*
X63790923Y-65880412D01*
X63972608Y-65965133D01*
X63977590Y-65967456D01*
X63982898Y-65968878D01*
X63982900Y-65968879D01*
X64176530Y-66020762D01*
X64176532Y-66020762D01*
X64181845Y-66022186D01*
X64392500Y-66040616D01*
X64603155Y-66022186D01*
X64608468Y-66020762D01*
X64608470Y-66020762D01*
X64802100Y-65968879D01*
X64802102Y-65968878D01*
X64807410Y-65967456D01*
X64812392Y-65965133D01*
X64994077Y-65880412D01*
X64994080Y-65880410D01*
X64999058Y-65878089D01*
X65172276Y-65756801D01*
X65321801Y-65607276D01*
X65443089Y-65434058D01*
X65446717Y-65426279D01*
X65530133Y-65247392D01*
X65530134Y-65247391D01*
X65532456Y-65242410D01*
X65551948Y-65169667D01*
X65585762Y-65043470D01*
X65585762Y-65043468D01*
X65587186Y-65038155D01*
X65605616Y-64827500D01*
X70799384Y-64827500D01*
X70817814Y-65038155D01*
X70819238Y-65043468D01*
X70819238Y-65043470D01*
X70853053Y-65169667D01*
X70872544Y-65242410D01*
X70874866Y-65247391D01*
X70874867Y-65247392D01*
X70958284Y-65426279D01*
X70961911Y-65434058D01*
X71083199Y-65607276D01*
X71232724Y-65756801D01*
X71405942Y-65878089D01*
X71410920Y-65880410D01*
X71410923Y-65880412D01*
X71592608Y-65965133D01*
X71597590Y-65967456D01*
X71602898Y-65968878D01*
X71602900Y-65968879D01*
X71796530Y-66020762D01*
X71796532Y-66020762D01*
X71801845Y-66022186D01*
X72012500Y-66040616D01*
X72223155Y-66022186D01*
X72228468Y-66020762D01*
X72228470Y-66020762D01*
X72422100Y-65968879D01*
X72422102Y-65968878D01*
X72427410Y-65967456D01*
X72432392Y-65965133D01*
X72614077Y-65880412D01*
X72614080Y-65880410D01*
X72619058Y-65878089D01*
X72792276Y-65756801D01*
X72941801Y-65607276D01*
X73063089Y-65434058D01*
X73066717Y-65426279D01*
X73150133Y-65247392D01*
X73150134Y-65247391D01*
X73152456Y-65242410D01*
X73171948Y-65169667D01*
X73191115Y-65098134D01*
X78116500Y-65098134D01*
X78123255Y-65160316D01*
X78174385Y-65296705D01*
X78261739Y-65413261D01*
X78378295Y-65500615D01*
X78514684Y-65551745D01*
X78576866Y-65558500D01*
X80373134Y-65558500D01*
X80435316Y-65551745D01*
X80571705Y-65500615D01*
X80688261Y-65413261D01*
X80775615Y-65296705D01*
X80795451Y-65243792D01*
X80819598Y-65179382D01*
X80862240Y-65122618D01*
X80928802Y-65097918D01*
X80998150Y-65113126D01*
X81032817Y-65141114D01*
X81061250Y-65173938D01*
X81233126Y-65316632D01*
X81426000Y-65429338D01*
X81634692Y-65509030D01*
X81639760Y-65510061D01*
X81639763Y-65510062D01*
X81734862Y-65529410D01*
X81853597Y-65553567D01*
X81858772Y-65553757D01*
X81858774Y-65553757D01*
X82071673Y-65561564D01*
X82071677Y-65561564D01*
X82076837Y-65561753D01*
X82081957Y-65561097D01*
X82081959Y-65561097D01*
X82293288Y-65534025D01*
X82293289Y-65534025D01*
X82298416Y-65533368D01*
X82303366Y-65531883D01*
X82507429Y-65470661D01*
X82507434Y-65470659D01*
X82512384Y-65469174D01*
X82712994Y-65370896D01*
X82894860Y-65241173D01*
X82898948Y-65237100D01*
X83038616Y-65097918D01*
X83053096Y-65083489D01*
X83081853Y-65043470D01*
X83183453Y-64902077D01*
X83184776Y-64903028D01*
X83231645Y-64859857D01*
X83301580Y-64847625D01*
X83367026Y-64875144D01*
X83394875Y-64906994D01*
X83454987Y-65005088D01*
X83601250Y-65173938D01*
X83773126Y-65316632D01*
X83966000Y-65429338D01*
X84174692Y-65509030D01*
X84179760Y-65510061D01*
X84179763Y-65510062D01*
X84274862Y-65529410D01*
X84393597Y-65553567D01*
X84398772Y-65553757D01*
X84398774Y-65553757D01*
X84611673Y-65561564D01*
X84611677Y-65561564D01*
X84616837Y-65561753D01*
X84621957Y-65561097D01*
X84621959Y-65561097D01*
X84833288Y-65534025D01*
X84833289Y-65534025D01*
X84838416Y-65533368D01*
X84843366Y-65531883D01*
X85047429Y-65470661D01*
X85047434Y-65470659D01*
X85052384Y-65469174D01*
X85252994Y-65370896D01*
X85434860Y-65241173D01*
X85438948Y-65237100D01*
X85578616Y-65097918D01*
X85593096Y-65083489D01*
X85621853Y-65043470D01*
X85723453Y-64902077D01*
X85724776Y-64903028D01*
X85771645Y-64859857D01*
X85841580Y-64847625D01*
X85907026Y-64875144D01*
X85934875Y-64906994D01*
X85994987Y-65005088D01*
X86141250Y-65173938D01*
X86313126Y-65316632D01*
X86506000Y-65429338D01*
X86714692Y-65509030D01*
X86719760Y-65510061D01*
X86719763Y-65510062D01*
X86814862Y-65529410D01*
X86933597Y-65553567D01*
X86938772Y-65553757D01*
X86938774Y-65553757D01*
X87151673Y-65561564D01*
X87151677Y-65561564D01*
X87156837Y-65561753D01*
X87161957Y-65561097D01*
X87161959Y-65561097D01*
X87373288Y-65534025D01*
X87373289Y-65534025D01*
X87378416Y-65533368D01*
X87383366Y-65531883D01*
X87587429Y-65470661D01*
X87587434Y-65470659D01*
X87592384Y-65469174D01*
X87792994Y-65370896D01*
X87974860Y-65241173D01*
X87978948Y-65237100D01*
X88118616Y-65097918D01*
X88133096Y-65083489D01*
X88161853Y-65043470D01*
X88263453Y-64902077D01*
X88264776Y-64903028D01*
X88311645Y-64859857D01*
X88381580Y-64847625D01*
X88447026Y-64875144D01*
X88474875Y-64906994D01*
X88534987Y-65005088D01*
X88681250Y-65173938D01*
X88853126Y-65316632D01*
X89046000Y-65429338D01*
X89254692Y-65509030D01*
X89259760Y-65510061D01*
X89259763Y-65510062D01*
X89354862Y-65529410D01*
X89473597Y-65553567D01*
X89478772Y-65553757D01*
X89478774Y-65553757D01*
X89691673Y-65561564D01*
X89691677Y-65561564D01*
X89696837Y-65561753D01*
X89701957Y-65561097D01*
X89701959Y-65561097D01*
X89913288Y-65534025D01*
X89913289Y-65534025D01*
X89918416Y-65533368D01*
X89923366Y-65531883D01*
X90127429Y-65470661D01*
X90127434Y-65470659D01*
X90132384Y-65469174D01*
X90332994Y-65370896D01*
X90514860Y-65241173D01*
X90518948Y-65237100D01*
X90658616Y-65097918D01*
X90673096Y-65083489D01*
X90701853Y-65043470D01*
X90803453Y-64902077D01*
X90804776Y-64903028D01*
X90851645Y-64859857D01*
X90921580Y-64847625D01*
X90987026Y-64875144D01*
X91014875Y-64906994D01*
X91074987Y-65005088D01*
X91221250Y-65173938D01*
X91393126Y-65316632D01*
X91586000Y-65429338D01*
X91794692Y-65509030D01*
X91799760Y-65510061D01*
X91799763Y-65510062D01*
X91894862Y-65529410D01*
X92013597Y-65553567D01*
X92018772Y-65553757D01*
X92018774Y-65553757D01*
X92231673Y-65561564D01*
X92231677Y-65561564D01*
X92236837Y-65561753D01*
X92241957Y-65561097D01*
X92241959Y-65561097D01*
X92453288Y-65534025D01*
X92453289Y-65534025D01*
X92458416Y-65533368D01*
X92463366Y-65531883D01*
X92667429Y-65470661D01*
X92667434Y-65470659D01*
X92672384Y-65469174D01*
X92872994Y-65370896D01*
X93054860Y-65241173D01*
X93058948Y-65237100D01*
X93198616Y-65097918D01*
X93213096Y-65083489D01*
X93241853Y-65043470D01*
X93343453Y-64902077D01*
X93344776Y-64903028D01*
X93391645Y-64859857D01*
X93461580Y-64847625D01*
X93527026Y-64875144D01*
X93554875Y-64906994D01*
X93614987Y-65005088D01*
X93761250Y-65173938D01*
X93933126Y-65316632D01*
X94126000Y-65429338D01*
X94334692Y-65509030D01*
X94339760Y-65510061D01*
X94339763Y-65510062D01*
X94434862Y-65529410D01*
X94553597Y-65553567D01*
X94558772Y-65553757D01*
X94558774Y-65553757D01*
X94771673Y-65561564D01*
X94771677Y-65561564D01*
X94776837Y-65561753D01*
X94781957Y-65561097D01*
X94781959Y-65561097D01*
X94993288Y-65534025D01*
X94993289Y-65534025D01*
X94998416Y-65533368D01*
X95003366Y-65531883D01*
X95207429Y-65470661D01*
X95207434Y-65470659D01*
X95212384Y-65469174D01*
X95412994Y-65370896D01*
X95594860Y-65241173D01*
X95598948Y-65237100D01*
X95738616Y-65097918D01*
X95753096Y-65083489D01*
X95781853Y-65043470D01*
X95883453Y-64902077D01*
X95884640Y-64902930D01*
X95931960Y-64859362D01*
X96001897Y-64847145D01*
X96067338Y-64874678D01*
X96095166Y-64906511D01*
X96152694Y-65000388D01*
X96158777Y-65008699D01*
X96298213Y-65169667D01*
X96305580Y-65176883D01*
X96469434Y-65312916D01*
X96477881Y-65318831D01*
X96661756Y-65426279D01*
X96671042Y-65430729D01*
X96870001Y-65506703D01*
X96879899Y-65509579D01*
X96983250Y-65530606D01*
X96997299Y-65529410D01*
X97001000Y-65519065D01*
X97001000Y-65518517D01*
X97509000Y-65518517D01*
X97513064Y-65532359D01*
X97526478Y-65534393D01*
X97533184Y-65533534D01*
X97543262Y-65531392D01*
X97747255Y-65470191D01*
X97756842Y-65466433D01*
X97948095Y-65372739D01*
X97956945Y-65367464D01*
X98130328Y-65243792D01*
X98138200Y-65237139D01*
X98289052Y-65086812D01*
X98295730Y-65078965D01*
X98423022Y-64901819D01*
X98424147Y-64902627D01*
X98471669Y-64858876D01*
X98541607Y-64846661D01*
X98607046Y-64874197D01*
X98634870Y-64906028D01*
X98692690Y-65000383D01*
X98698777Y-65008699D01*
X98838213Y-65169667D01*
X98845580Y-65176883D01*
X99009434Y-65312916D01*
X99017881Y-65318831D01*
X99201756Y-65426279D01*
X99211042Y-65430729D01*
X99410001Y-65506703D01*
X99419899Y-65509579D01*
X99523250Y-65530606D01*
X99537299Y-65529410D01*
X99541000Y-65519065D01*
X99541000Y-65518517D01*
X100049000Y-65518517D01*
X100053064Y-65532359D01*
X100066478Y-65534393D01*
X100073184Y-65533534D01*
X100083262Y-65531392D01*
X100287255Y-65470191D01*
X100296842Y-65466433D01*
X100488095Y-65372739D01*
X100496945Y-65367464D01*
X100670328Y-65243792D01*
X100678200Y-65237139D01*
X100829052Y-65086812D01*
X100835730Y-65078965D01*
X100963022Y-64901819D01*
X100964147Y-64902627D01*
X101011669Y-64858876D01*
X101081607Y-64846661D01*
X101147046Y-64874197D01*
X101174870Y-64906028D01*
X101232690Y-65000383D01*
X101238777Y-65008699D01*
X101378213Y-65169667D01*
X101385580Y-65176883D01*
X101549434Y-65312916D01*
X101557881Y-65318831D01*
X101741756Y-65426279D01*
X101751042Y-65430729D01*
X101950001Y-65506703D01*
X101959899Y-65509579D01*
X102063250Y-65530606D01*
X102077299Y-65529410D01*
X102081000Y-65519065D01*
X102081000Y-65518517D01*
X102589000Y-65518517D01*
X102593064Y-65532359D01*
X102606478Y-65534393D01*
X102613184Y-65533534D01*
X102623262Y-65531392D01*
X102827255Y-65470191D01*
X102836842Y-65466433D01*
X103028095Y-65372739D01*
X103036945Y-65367464D01*
X103210328Y-65243792D01*
X103218200Y-65237139D01*
X103369052Y-65086812D01*
X103375730Y-65078965D01*
X103500003Y-64906020D01*
X103505313Y-64897183D01*
X103599670Y-64706267D01*
X103603469Y-64696672D01*
X103665377Y-64492910D01*
X103667555Y-64482837D01*
X103668986Y-64471962D01*
X103666775Y-64457778D01*
X103653617Y-64454000D01*
X102607115Y-64454000D01*
X102591876Y-64458475D01*
X102590671Y-64459865D01*
X102589000Y-64467548D01*
X102589000Y-65518517D01*
X102081000Y-65518517D01*
X102081000Y-64472115D01*
X102076525Y-64456876D01*
X102075135Y-64455671D01*
X102067452Y-64454000D01*
X100067115Y-64454000D01*
X100051876Y-64458475D01*
X100050671Y-64459865D01*
X100049000Y-64467548D01*
X100049000Y-65518517D01*
X99541000Y-65518517D01*
X99541000Y-64472115D01*
X99536525Y-64456876D01*
X99535135Y-64455671D01*
X99527452Y-64454000D01*
X97527115Y-64454000D01*
X97511876Y-64458475D01*
X97510671Y-64459865D01*
X97509000Y-64467548D01*
X97509000Y-65518517D01*
X97001000Y-65518517D01*
X97001000Y-64000000D01*
X114567391Y-64000000D01*
X114587771Y-64193900D01*
X114648019Y-64379326D01*
X114651322Y-64385048D01*
X114651323Y-64385049D01*
X114713596Y-64492910D01*
X114745503Y-64548174D01*
X114875963Y-64693064D01*
X115033695Y-64807663D01*
X115039723Y-64810347D01*
X115039725Y-64810348D01*
X115205777Y-64884279D01*
X115211808Y-64886964D01*
X115286923Y-64902930D01*
X115396059Y-64926128D01*
X115396063Y-64926128D01*
X115402516Y-64927500D01*
X115597484Y-64927500D01*
X115603937Y-64926128D01*
X115603941Y-64926128D01*
X115713077Y-64902930D01*
X115788192Y-64886964D01*
X115794223Y-64884279D01*
X115960275Y-64810348D01*
X115960277Y-64810347D01*
X115966305Y-64807663D01*
X116124037Y-64693064D01*
X116254497Y-64548174D01*
X116286404Y-64492910D01*
X116348677Y-64385049D01*
X116348678Y-64385048D01*
X116351981Y-64379326D01*
X116412229Y-64193900D01*
X116432609Y-64000000D01*
X116412229Y-63806100D01*
X116397479Y-63760702D01*
X116354023Y-63626959D01*
X116351981Y-63620674D01*
X116348350Y-63614384D01*
X116257800Y-63457547D01*
X116254497Y-63451826D01*
X116179269Y-63368277D01*
X116128452Y-63311839D01*
X116128450Y-63311838D01*
X116124037Y-63306936D01*
X116053642Y-63255791D01*
X115971647Y-63196218D01*
X115971646Y-63196217D01*
X115966305Y-63192337D01*
X115960277Y-63189653D01*
X115960275Y-63189652D01*
X115794223Y-63115721D01*
X115794222Y-63115721D01*
X115788192Y-63113036D01*
X115692838Y-63092768D01*
X115603941Y-63073872D01*
X115603937Y-63073872D01*
X115597484Y-63072500D01*
X115402516Y-63072500D01*
X115396063Y-63073872D01*
X115396059Y-63073872D01*
X115307162Y-63092768D01*
X115211808Y-63113036D01*
X115205779Y-63115720D01*
X115205777Y-63115721D01*
X115039726Y-63189652D01*
X115039724Y-63189653D01*
X115033696Y-63192337D01*
X115028355Y-63196217D01*
X115028354Y-63196218D01*
X114933595Y-63265064D01*
X114875963Y-63306936D01*
X114871550Y-63311838D01*
X114871548Y-63311839D01*
X114820731Y-63368277D01*
X114745503Y-63451826D01*
X114742200Y-63457547D01*
X114651651Y-63614384D01*
X114648019Y-63620674D01*
X114645977Y-63626959D01*
X114602522Y-63760702D01*
X114587771Y-63806100D01*
X114567391Y-64000000D01*
X97001000Y-64000000D01*
X97001000Y-63927885D01*
X97509000Y-63927885D01*
X97513475Y-63943124D01*
X97514865Y-63944329D01*
X97522548Y-63946000D01*
X99522885Y-63946000D01*
X99538124Y-63941525D01*
X99539329Y-63940135D01*
X99541000Y-63932452D01*
X99541000Y-63927885D01*
X100049000Y-63927885D01*
X100053475Y-63943124D01*
X100054865Y-63944329D01*
X100062548Y-63946000D01*
X102062885Y-63946000D01*
X102078124Y-63941525D01*
X102079329Y-63940135D01*
X102081000Y-63932452D01*
X102081000Y-63927885D01*
X102589000Y-63927885D01*
X102593475Y-63943124D01*
X102594865Y-63944329D01*
X102602548Y-63946000D01*
X103653344Y-63946000D01*
X103666875Y-63942027D01*
X103668180Y-63932947D01*
X103626214Y-63765875D01*
X103622894Y-63756124D01*
X103537972Y-63560814D01*
X103533105Y-63551739D01*
X103417426Y-63372926D01*
X103411136Y-63364757D01*
X103267806Y-63207240D01*
X103260273Y-63200215D01*
X103093139Y-63068222D01*
X103084552Y-63062517D01*
X102898117Y-62959599D01*
X102888705Y-62955369D01*
X102687959Y-62884280D01*
X102677988Y-62881646D01*
X102606837Y-62868972D01*
X102593540Y-62870432D01*
X102589000Y-62884989D01*
X102589000Y-63927885D01*
X102081000Y-63927885D01*
X102081000Y-62883102D01*
X102077082Y-62869758D01*
X102062806Y-62867771D01*
X102024324Y-62873660D01*
X102014288Y-62876051D01*
X101811868Y-62942212D01*
X101802359Y-62946209D01*
X101613463Y-63044542D01*
X101604738Y-63050036D01*
X101434433Y-63177905D01*
X101426726Y-63184748D01*
X101279590Y-63338717D01*
X101273104Y-63346727D01*
X101168193Y-63500521D01*
X101113282Y-63545524D01*
X101042757Y-63553695D01*
X100979010Y-63522441D01*
X100958313Y-63497957D01*
X100877427Y-63372926D01*
X100871136Y-63364757D01*
X100727806Y-63207240D01*
X100720273Y-63200215D01*
X100553139Y-63068222D01*
X100544552Y-63062517D01*
X100358117Y-62959599D01*
X100348705Y-62955369D01*
X100147959Y-62884280D01*
X100137988Y-62881646D01*
X100066837Y-62868972D01*
X100053540Y-62870432D01*
X100049000Y-62884989D01*
X100049000Y-63927885D01*
X99541000Y-63927885D01*
X99541000Y-62883102D01*
X99537082Y-62869758D01*
X99522806Y-62867771D01*
X99484324Y-62873660D01*
X99474288Y-62876051D01*
X99271868Y-62942212D01*
X99262359Y-62946209D01*
X99073463Y-63044542D01*
X99064738Y-63050036D01*
X98894433Y-63177905D01*
X98886726Y-63184748D01*
X98739590Y-63338717D01*
X98733104Y-63346727D01*
X98628193Y-63500521D01*
X98573282Y-63545524D01*
X98502757Y-63553695D01*
X98439010Y-63522441D01*
X98418313Y-63497957D01*
X98337427Y-63372926D01*
X98331136Y-63364757D01*
X98187806Y-63207240D01*
X98180273Y-63200215D01*
X98013139Y-63068222D01*
X98004552Y-63062517D01*
X97818117Y-62959599D01*
X97808705Y-62955369D01*
X97607959Y-62884280D01*
X97597988Y-62881646D01*
X97526837Y-62868972D01*
X97513540Y-62870432D01*
X97509000Y-62884989D01*
X97509000Y-63927885D01*
X97001000Y-63927885D01*
X97001000Y-62883102D01*
X96997082Y-62869758D01*
X96982806Y-62867771D01*
X96944324Y-62873660D01*
X96934288Y-62876051D01*
X96731868Y-62942212D01*
X96722359Y-62946209D01*
X96533463Y-63044542D01*
X96524738Y-63050036D01*
X96354433Y-63177905D01*
X96346726Y-63184748D01*
X96199590Y-63338717D01*
X96193109Y-63346722D01*
X96088498Y-63500074D01*
X96033587Y-63545076D01*
X95963062Y-63553247D01*
X95899315Y-63521993D01*
X95878618Y-63497509D01*
X95797822Y-63372617D01*
X95797820Y-63372614D01*
X95795014Y-63368277D01*
X95644670Y-63203051D01*
X95640619Y-63199852D01*
X95640615Y-63199848D01*
X95473414Y-63067800D01*
X95473410Y-63067798D01*
X95469359Y-63064598D01*
X95433028Y-63044542D01*
X95417136Y-63035769D01*
X95273789Y-62956638D01*
X95268920Y-62954914D01*
X95268916Y-62954912D01*
X95068087Y-62883795D01*
X95068083Y-62883794D01*
X95063212Y-62882069D01*
X95058119Y-62881162D01*
X95058116Y-62881161D01*
X94848373Y-62843800D01*
X94848367Y-62843799D01*
X94843284Y-62842894D01*
X94769452Y-62841992D01*
X94625081Y-62840228D01*
X94625079Y-62840228D01*
X94619911Y-62840165D01*
X94399091Y-62873955D01*
X94186756Y-62943357D01*
X93988607Y-63046507D01*
X93984474Y-63049610D01*
X93984471Y-63049612D01*
X93896422Y-63115721D01*
X93809965Y-63180635D01*
X93806393Y-63184373D01*
X93698729Y-63297037D01*
X93655629Y-63342138D01*
X93548201Y-63499621D01*
X93493293Y-63544621D01*
X93422768Y-63552792D01*
X93359021Y-63521538D01*
X93338324Y-63497054D01*
X93257822Y-63372617D01*
X93257820Y-63372614D01*
X93255014Y-63368277D01*
X93104670Y-63203051D01*
X93100619Y-63199852D01*
X93100615Y-63199848D01*
X92933414Y-63067800D01*
X92933410Y-63067798D01*
X92929359Y-63064598D01*
X92893028Y-63044542D01*
X92877136Y-63035769D01*
X92733789Y-62956638D01*
X92728920Y-62954914D01*
X92728916Y-62954912D01*
X92528087Y-62883795D01*
X92528083Y-62883794D01*
X92523212Y-62882069D01*
X92518119Y-62881162D01*
X92518116Y-62881161D01*
X92308373Y-62843800D01*
X92308367Y-62843799D01*
X92303284Y-62842894D01*
X92229452Y-62841992D01*
X92085081Y-62840228D01*
X92085079Y-62840228D01*
X92079911Y-62840165D01*
X91859091Y-62873955D01*
X91646756Y-62943357D01*
X91448607Y-63046507D01*
X91444474Y-63049610D01*
X91444471Y-63049612D01*
X91356422Y-63115721D01*
X91269965Y-63180635D01*
X91266393Y-63184373D01*
X91158729Y-63297037D01*
X91115629Y-63342138D01*
X91008201Y-63499621D01*
X90953293Y-63544621D01*
X90882768Y-63552792D01*
X90819021Y-63521538D01*
X90798324Y-63497054D01*
X90717822Y-63372617D01*
X90717820Y-63372614D01*
X90715014Y-63368277D01*
X90564670Y-63203051D01*
X90560619Y-63199852D01*
X90560615Y-63199848D01*
X90393414Y-63067800D01*
X90393410Y-63067798D01*
X90389359Y-63064598D01*
X90353028Y-63044542D01*
X90337136Y-63035769D01*
X90193789Y-62956638D01*
X90188920Y-62954914D01*
X90188916Y-62954912D01*
X89988087Y-62883795D01*
X89988083Y-62883794D01*
X89983212Y-62882069D01*
X89978119Y-62881162D01*
X89978116Y-62881161D01*
X89768373Y-62843800D01*
X89768367Y-62843799D01*
X89763284Y-62842894D01*
X89689452Y-62841992D01*
X89545081Y-62840228D01*
X89545079Y-62840228D01*
X89539911Y-62840165D01*
X89319091Y-62873955D01*
X89106756Y-62943357D01*
X88908607Y-63046507D01*
X88904474Y-63049610D01*
X88904471Y-63049612D01*
X88816422Y-63115721D01*
X88729965Y-63180635D01*
X88726393Y-63184373D01*
X88618729Y-63297037D01*
X88575629Y-63342138D01*
X88468201Y-63499621D01*
X88413293Y-63544621D01*
X88342768Y-63552792D01*
X88279021Y-63521538D01*
X88258324Y-63497054D01*
X88177822Y-63372617D01*
X88177820Y-63372614D01*
X88175014Y-63368277D01*
X88024670Y-63203051D01*
X88020619Y-63199852D01*
X88020615Y-63199848D01*
X87853414Y-63067800D01*
X87853410Y-63067798D01*
X87849359Y-63064598D01*
X87813028Y-63044542D01*
X87797136Y-63035769D01*
X87653789Y-62956638D01*
X87648920Y-62954914D01*
X87648916Y-62954912D01*
X87448087Y-62883795D01*
X87448083Y-62883794D01*
X87443212Y-62882069D01*
X87438119Y-62881162D01*
X87438116Y-62881161D01*
X87228373Y-62843800D01*
X87228367Y-62843799D01*
X87223284Y-62842894D01*
X87149452Y-62841992D01*
X87005081Y-62840228D01*
X87005079Y-62840228D01*
X86999911Y-62840165D01*
X86779091Y-62873955D01*
X86566756Y-62943357D01*
X86368607Y-63046507D01*
X86364474Y-63049610D01*
X86364471Y-63049612D01*
X86276422Y-63115721D01*
X86189965Y-63180635D01*
X86186393Y-63184373D01*
X86078729Y-63297037D01*
X86035629Y-63342138D01*
X85928201Y-63499621D01*
X85873293Y-63544621D01*
X85802768Y-63552792D01*
X85739021Y-63521538D01*
X85718324Y-63497054D01*
X85637822Y-63372617D01*
X85637820Y-63372614D01*
X85635014Y-63368277D01*
X85484670Y-63203051D01*
X85480619Y-63199852D01*
X85480615Y-63199848D01*
X85313414Y-63067800D01*
X85313410Y-63067798D01*
X85309359Y-63064598D01*
X85273028Y-63044542D01*
X85257136Y-63035769D01*
X85113789Y-62956638D01*
X85108920Y-62954914D01*
X85108916Y-62954912D01*
X84908087Y-62883795D01*
X84908083Y-62883794D01*
X84903212Y-62882069D01*
X84898119Y-62881162D01*
X84898116Y-62881161D01*
X84688373Y-62843800D01*
X84688367Y-62843799D01*
X84683284Y-62842894D01*
X84609452Y-62841992D01*
X84465081Y-62840228D01*
X84465079Y-62840228D01*
X84459911Y-62840165D01*
X84239091Y-62873955D01*
X84026756Y-62943357D01*
X83828607Y-63046507D01*
X83824474Y-63049610D01*
X83824471Y-63049612D01*
X83736422Y-63115721D01*
X83649965Y-63180635D01*
X83646393Y-63184373D01*
X83538729Y-63297037D01*
X83495629Y-63342138D01*
X83388201Y-63499621D01*
X83333293Y-63544621D01*
X83262768Y-63552792D01*
X83199021Y-63521538D01*
X83178324Y-63497054D01*
X83097822Y-63372617D01*
X83097820Y-63372614D01*
X83095014Y-63368277D01*
X82944670Y-63203051D01*
X82940619Y-63199852D01*
X82940615Y-63199848D01*
X82773414Y-63067800D01*
X82773410Y-63067798D01*
X82769359Y-63064598D01*
X82733028Y-63044542D01*
X82717136Y-63035769D01*
X82573789Y-62956638D01*
X82568920Y-62954914D01*
X82568916Y-62954912D01*
X82368087Y-62883795D01*
X82368083Y-62883794D01*
X82363212Y-62882069D01*
X82358119Y-62881162D01*
X82358116Y-62881161D01*
X82148373Y-62843800D01*
X82148367Y-62843799D01*
X82143284Y-62842894D01*
X82069452Y-62841992D01*
X81925081Y-62840228D01*
X81925079Y-62840228D01*
X81919911Y-62840165D01*
X81699091Y-62873955D01*
X81486756Y-62943357D01*
X81288607Y-63046507D01*
X81284474Y-63049610D01*
X81284471Y-63049612D01*
X81196422Y-63115721D01*
X81109965Y-63180635D01*
X81053537Y-63239684D01*
X81029283Y-63265064D01*
X80967759Y-63300494D01*
X80896846Y-63297037D01*
X80839060Y-63255791D01*
X80820207Y-63222243D01*
X80778767Y-63111703D01*
X80775615Y-63103295D01*
X80688261Y-62986739D01*
X80571705Y-62899385D01*
X80435316Y-62848255D01*
X80373134Y-62841500D01*
X78576866Y-62841500D01*
X78514684Y-62848255D01*
X78378295Y-62899385D01*
X78261739Y-62986739D01*
X78174385Y-63103295D01*
X78123255Y-63239684D01*
X78116500Y-63301866D01*
X78116500Y-65098134D01*
X73191115Y-65098134D01*
X73205762Y-65043470D01*
X73205762Y-65043468D01*
X73207186Y-65038155D01*
X73225616Y-64827500D01*
X73207186Y-64616845D01*
X73164564Y-64457778D01*
X73153879Y-64417900D01*
X73153878Y-64417898D01*
X73152456Y-64412590D01*
X73150133Y-64407608D01*
X73065412Y-64225923D01*
X73065410Y-64225920D01*
X73063089Y-64220942D01*
X72941801Y-64047724D01*
X72792276Y-63898199D01*
X72619058Y-63776911D01*
X72614080Y-63774590D01*
X72614077Y-63774588D01*
X72432392Y-63689867D01*
X72432391Y-63689866D01*
X72427410Y-63687544D01*
X72422102Y-63686122D01*
X72422100Y-63686121D01*
X72228470Y-63634238D01*
X72228468Y-63634238D01*
X72223155Y-63632814D01*
X72012500Y-63614384D01*
X71801845Y-63632814D01*
X71796532Y-63634238D01*
X71796530Y-63634238D01*
X71602900Y-63686121D01*
X71602898Y-63686122D01*
X71597590Y-63687544D01*
X71592609Y-63689866D01*
X71592608Y-63689867D01*
X71410923Y-63774588D01*
X71410920Y-63774590D01*
X71405942Y-63776911D01*
X71232724Y-63898199D01*
X71083199Y-64047724D01*
X70961911Y-64220942D01*
X70959590Y-64225920D01*
X70959588Y-64225923D01*
X70874867Y-64407608D01*
X70872544Y-64412590D01*
X70871122Y-64417898D01*
X70871121Y-64417900D01*
X70860436Y-64457778D01*
X70817814Y-64616845D01*
X70799384Y-64827500D01*
X65605616Y-64827500D01*
X65587186Y-64616845D01*
X65544564Y-64457778D01*
X65533879Y-64417900D01*
X65533878Y-64417898D01*
X65532456Y-64412590D01*
X65530133Y-64407608D01*
X65445412Y-64225923D01*
X65445410Y-64225920D01*
X65443089Y-64220942D01*
X65321801Y-64047724D01*
X65172276Y-63898199D01*
X64999058Y-63776911D01*
X64994080Y-63774590D01*
X64994077Y-63774588D01*
X64812392Y-63689867D01*
X64812391Y-63689866D01*
X64807410Y-63687544D01*
X64802102Y-63686122D01*
X64802100Y-63686121D01*
X64608470Y-63634238D01*
X64608468Y-63634238D01*
X64603155Y-63632814D01*
X64392500Y-63614384D01*
X64181845Y-63632814D01*
X64176532Y-63634238D01*
X64176530Y-63634238D01*
X63982900Y-63686121D01*
X63982898Y-63686122D01*
X63977590Y-63687544D01*
X63972609Y-63689866D01*
X63972608Y-63689867D01*
X63790923Y-63774588D01*
X63790920Y-63774590D01*
X63785942Y-63776911D01*
X63612724Y-63898199D01*
X63463199Y-64047724D01*
X63341911Y-64220942D01*
X63339590Y-64225920D01*
X63339588Y-64225923D01*
X63254867Y-64407608D01*
X63252544Y-64412590D01*
X63251122Y-64417898D01*
X63251121Y-64417900D01*
X63240436Y-64457778D01*
X63197814Y-64616845D01*
X63179384Y-64827500D01*
X56134500Y-64827500D01*
X56134500Y-61934500D01*
X56154502Y-61866379D01*
X56208158Y-61819886D01*
X56260500Y-61808500D01*
X123825500Y-61808500D01*
X123893621Y-61828502D01*
G37*
%TD.AperFunction*%
%TD*%
M02*
